<svg xmlns="http://www.w3.org/2000/svg" width="900" height="520" viewBox="0 0 900 520">
<rect width="100%" height="100%" fill="white"/>
<text x="450.0" y="28" text-anchor="middle" font-size="22" font-family="Arial">MDS Scatter: latent_gram</text>
<rect x="70" y="50" width="650" height="420" fill="none" stroke="black"/>
<circle cx="466.1" cy="165.9" r="4.2" fill="#7f7f7f" fill-opacity="0.75"/>
<circle cx="534.9" cy="266.0" r="4.2" fill="#7f7f7f" fill-opacity="0.75"/>
<circle cx="598.3" cy="237.2" r="4.2" fill="#7f7f7f" fill-opacity="0.75"/>
<circle cx="577.6" cy="203.0" r="4.2" fill="#7f7f7f" fill-opacity="0.75"/>
<circle cx="587.5" cy="214.0" r="4.2" fill="#7f7f7f" fill-opacity="0.75"/>
<circle cx="625.4" cy="242.8" r="4.2" fill="#7f7f7f" fill-opacity="0.75"/>
<circle cx="627.9" cy="247.8" r="4.2" fill="#7f7f7f" fill-opacity="0.75"/>
<circle cx="506.9" cy="65.4" r="4.2" fill="#7f7f7f" fill-opacity="0.75"/>
<circle cx="498.0" cy="175.0" r="4.2" fill="#7f7f7f" fill-opacity="0.75"/>
<circle cx="543.9" cy="141.4" r="4.2" fill="#7f7f7f" fill-opacity="0.75"/>
<circle cx="613.2" cy="244.3" r="4.2" fill="#7f7f7f" fill-opacity="0.75"/>
<circle cx="568.7" cy="156.4" r="4.2" fill="#7f7f7f" fill-opacity="0.75"/>
<circle cx="580.7" cy="264.9" r="4.2" fill="#7f7f7f" fill-opacity="0.75"/>
<circle cx="520.0" cy="167.3" r="4.2" fill="#7f7f7f" fill-opacity="0.75"/>
<circle cx="485.7" cy="218.2" r="4.2" fill="#7f7f7f" fill-opacity="0.75"/>
<circle cx="453.0" cy="197.0" r="4.2" fill="#7f7f7f" fill-opacity="0.75"/>
<circle cx="435.9" cy="215.5" r="4.2" fill="#7f7f7f" fill-opacity="0.75"/>
<circle cx="499.4" cy="237.5" r="4.2" fill="#7f7f7f" fill-opacity="0.75"/>
<circle cx="641.3" cy="238.8" r="4.2" fill="#7f7f7f" fill-opacity="0.75"/>
<circle cx="70.0" cy="173.7" r="4.2" fill="#7f7f7f" fill-opacity="0.75"/>
<circle cx="534.2" cy="210.5" r="4.2" fill="#7f7f7f" fill-opacity="0.75"/>
<circle cx="581.0" cy="205.3" r="4.2" fill="#7f7f7f" fill-opacity="0.75"/>
<circle cx="610.1" cy="258.1" r="4.2" fill="#7f7f7f" fill-opacity="0.75"/>
<circle cx="559.7" cy="247.2" r="4.2" fill="#7f7f7f" fill-opacity="0.75"/>
<circle cx="559.8" cy="250.0" r="4.2" fill="#7f7f7f" fill-opacity="0.75"/>
<circle cx="635.1" cy="228.1" r="4.2" fill="#7f7f7f" fill-opacity="0.75"/>
<circle cx="608.2" cy="259.0" r="4.2" fill="#7f7f7f" fill-opacity="0.75"/>
<circle cx="530.8" cy="175.8" r="4.2" fill="#7f7f7f" fill-opacity="0.75"/>
<circle cx="549.3" cy="259.3" r="4.2" fill="#7f7f7f" fill-opacity="0.75"/>
<circle cx="612.5" cy="176.4" r="4.2" fill="#7f7f7f" fill-opacity="0.75"/>
<circle cx="513.1" cy="307.3" r="4.2" fill="#7f7f7f" fill-opacity="0.75"/>
<circle cx="563.8" cy="210.7" r="4.2" fill="#7f7f7f" fill-opacity="0.75"/>
<circle cx="615.0" cy="224.0" r="4.2" fill="#7f7f7f" fill-opacity="0.75"/>
<circle cx="553.1" cy="185.3" r="4.2" fill="#7f7f7f" fill-opacity="0.75"/>
<circle cx="495.1" cy="308.9" r="4.2" fill="#7f7f7f" fill-opacity="0.75"/>
<circle cx="610.0" cy="267.5" r="4.2" fill="#7f7f7f" fill-opacity="0.75"/>
<circle cx="457.6" cy="239.4" r="4.2" fill="#7f7f7f" fill-opacity="0.75"/>
<circle cx="548.9" cy="238.9" r="4.2" fill="#7f7f7f" fill-opacity="0.75"/>
<circle cx="494.4" cy="174.6" r="4.2" fill="#7f7f7f" fill-opacity="0.75"/>
<circle cx="486.7" cy="57.5" r="4.2" fill="#7f7f7f" fill-opacity="0.75"/>
<circle cx="619.0" cy="253.4" r="4.2" fill="#7f7f7f" fill-opacity="0.75"/>
<circle cx="509.8" cy="194.6" r="4.2" fill="#7f7f7f" fill-opacity="0.75"/>
<circle cx="545.7" cy="271.2" r="4.2" fill="#7f7f7f" fill-opacity="0.75"/>
<circle cx="573.7" cy="275.6" r="4.2" fill="#7f7f7f" fill-opacity="0.75"/>
<circle cx="507.1" cy="239.3" r="4.2" fill="#7f7f7f" fill-opacity="0.75"/>
<circle cx="546.9" cy="289.1" r="4.2" fill="#7f7f7f" fill-opacity="0.75"/>
<circle cx="570.3" cy="231.1" r="4.2" fill="#7f7f7f" fill-opacity="0.75"/>
<circle cx="621.6" cy="180.5" r="4.2" fill="#7f7f7f" fill-opacity="0.75"/>
<circle cx="466.8" cy="270.3" r="4.2" fill="#7f7f7f" fill-opacity="0.75"/>
<circle cx="419.7" cy="160.0" r="4.2" fill="#7f7f7f" fill-opacity="0.75"/>
<circle cx="633.1" cy="254.5" r="4.2" fill="#7f7f7f" fill-opacity="0.75"/>
<circle cx="566.9" cy="235.9" r="4.2" fill="#7f7f7f" fill-opacity="0.75"/>
<circle cx="573.8" cy="216.5" r="4.2" fill="#7f7f7f" fill-opacity="0.75"/>
<circle cx="631.1" cy="207.0" r="4.2" fill="#7f7f7f" fill-opacity="0.75"/>
<circle cx="625.3" cy="230.9" r="4.2" fill="#7f7f7f" fill-opacity="0.75"/>
<circle cx="616.3" cy="199.2" r="4.2" fill="#7f7f7f" fill-opacity="0.75"/>
<circle cx="535.0" cy="282.1" r="4.2" fill="#7f7f7f" fill-opacity="0.75"/>
<circle cx="607.8" cy="227.9" r="4.2" fill="#7f7f7f" fill-opacity="0.75"/>
<circle cx="557.6" cy="293.0" r="4.2" fill="#7f7f7f" fill-opacity="0.75"/>
<circle cx="524.3" cy="188.0" r="4.2" fill="#7f7f7f" fill-opacity="0.75"/>
<circle cx="524.7" cy="200.5" r="4.2" fill="#7f7f7f" fill-opacity="0.75"/>
<circle cx="593.1" cy="253.9" r="4.2" fill="#7f7f7f" fill-opacity="0.75"/>
<circle cx="587.4" cy="240.4" r="4.2" fill="#7f7f7f" fill-opacity="0.75"/>
<circle cx="576.9" cy="275.4" r="4.2" fill="#7f7f7f" fill-opacity="0.75"/>
<circle cx="541.5" cy="221.8" r="4.2" fill="#7f7f7f" fill-opacity="0.75"/>
<circle cx="582.7" cy="237.0" r="4.2" fill="#7f7f7f" fill-opacity="0.75"/>
<circle cx="445.6" cy="320.1" r="4.2" fill="#7f7f7f" fill-opacity="0.75"/>
<circle cx="417.0" cy="138.4" r="4.2" fill="#7f7f7f" fill-opacity="0.75"/>
<circle cx="612.7" cy="185.7" r="4.2" fill="#7f7f7f" fill-opacity="0.75"/>
<circle cx="435.9" cy="169.6" r="4.2" fill="#7f7f7f" fill-opacity="0.75"/>
<circle cx="549.7" cy="217.8" r="4.2" fill="#7f7f7f" fill-opacity="0.75"/>
<circle cx="598.8" cy="249.3" r="4.2" fill="#7f7f7f" fill-opacity="0.75"/>
<circle cx="442.9" cy="333.2" r="4.2" fill="#7f7f7f" fill-opacity="0.75"/>
<circle cx="432.3" cy="281.6" r="4.2" fill="#7f7f7f" fill-opacity="0.75"/>
<circle cx="600.8" cy="221.1" r="4.2" fill="#7f7f7f" fill-opacity="0.75"/>
<circle cx="394.5" cy="347.8" r="4.2" fill="#7f7f7f" fill-opacity="0.75"/>
<circle cx="553.0" cy="181.7" r="4.2" fill="#7f7f7f" fill-opacity="0.75"/>
<circle cx="621.9" cy="221.2" r="4.2" fill="#7f7f7f" fill-opacity="0.75"/>
<circle cx="464.0" cy="101.1" r="4.2" fill="#7f7f7f" fill-opacity="0.75"/>
<circle cx="562.3" cy="228.7" r="4.2" fill="#7f7f7f" fill-opacity="0.75"/>
<circle cx="502.3" cy="95.2" r="4.2" fill="#7f7f7f" fill-opacity="0.75"/>
<circle cx="590.0" cy="264.8" r="4.2" fill="#7f7f7f" fill-opacity="0.75"/>
<circle cx="555.0" cy="122.6" r="4.2" fill="#7f7f7f" fill-opacity="0.75"/>
<circle cx="531.7" cy="256.8" r="4.2" fill="#7f7f7f" fill-opacity="0.75"/>
<circle cx="383.2" cy="266.2" r="4.2" fill="#7f7f7f" fill-opacity="0.75"/>
<circle cx="557.1" cy="186.2" r="4.2" fill="#7f7f7f" fill-opacity="0.75"/>
<circle cx="605.5" cy="229.8" r="4.2" fill="#7f7f7f" fill-opacity="0.75"/>
<circle cx="544.7" cy="188.4" r="4.2" fill="#7f7f7f" fill-opacity="0.75"/>
<circle cx="512.9" cy="250.7" r="4.2" fill="#7f7f7f" fill-opacity="0.75"/>
<circle cx="598.4" cy="252.1" r="4.2" fill="#7f7f7f" fill-opacity="0.75"/>
<circle cx="639.1" cy="210.0" r="4.2" fill="#7f7f7f" fill-opacity="0.75"/>
<circle cx="584.2" cy="212.0" r="4.2" fill="#7f7f7f" fill-opacity="0.75"/>
<circle cx="617.5" cy="240.0" r="4.2" fill="#7f7f7f" fill-opacity="0.75"/>
<circle cx="529.9" cy="260.4" r="4.2" fill="#7f7f7f" fill-opacity="0.75"/>
<circle cx="551.2" cy="230.5" r="4.2" fill="#7f7f7f" fill-opacity="0.75"/>
<circle cx="591.7" cy="87.4" r="4.2" fill="#7f7f7f" fill-opacity="0.75"/>
<circle cx="461.7" cy="50.0" r="4.2" fill="#7f7f7f" fill-opacity="0.75"/>
<circle cx="559.9" cy="244.8" r="4.2" fill="#7f7f7f" fill-opacity="0.75"/>
<circle cx="558.5" cy="219.3" r="4.2" fill="#7f7f7f" fill-opacity="0.75"/>
<circle cx="454.2" cy="149.3" r="4.2" fill="#7f7f7f" fill-opacity="0.75"/>
<circle cx="639.4" cy="218.5" r="4.2" fill="#17becf" fill-opacity="0.75"/>
<circle cx="441.6" cy="197.1" r="4.2" fill="#17becf" fill-opacity="0.75"/>
<circle cx="498.6" cy="190.2" r="4.2" fill="#17becf" fill-opacity="0.75"/>
<circle cx="623.8" cy="208.5" r="4.2" fill="#17becf" fill-opacity="0.75"/>
<circle cx="438.7" cy="182.2" r="4.2" fill="#17becf" fill-opacity="0.75"/>
<circle cx="629.9" cy="248.7" r="4.2" fill="#17becf" fill-opacity="0.75"/>
<circle cx="504.4" cy="213.1" r="4.2" fill="#17becf" fill-opacity="0.75"/>
<circle cx="579.4" cy="248.4" r="4.2" fill="#17becf" fill-opacity="0.75"/>
<circle cx="540.5" cy="231.6" r="4.2" fill="#17becf" fill-opacity="0.75"/>
<circle cx="538.9" cy="205.4" r="4.2" fill="#17becf" fill-opacity="0.75"/>
<circle cx="625.0" cy="216.4" r="4.2" fill="#17becf" fill-opacity="0.75"/>
<circle cx="599.1" cy="248.3" r="4.2" fill="#17becf" fill-opacity="0.75"/>
<circle cx="592.3" cy="252.1" r="4.2" fill="#17becf" fill-opacity="0.75"/>
<circle cx="605.5" cy="243.6" r="4.2" fill="#17becf" fill-opacity="0.75"/>
<circle cx="589.6" cy="251.1" r="4.2" fill="#17becf" fill-opacity="0.75"/>
<circle cx="559.7" cy="225.6" r="4.2" fill="#17becf" fill-opacity="0.75"/>
<circle cx="514.5" cy="206.5" r="4.2" fill="#17becf" fill-opacity="0.75"/>
<circle cx="627.5" cy="215.7" r="4.2" fill="#17becf" fill-opacity="0.75"/>
<circle cx="496.4" cy="168.1" r="4.2" fill="#17becf" fill-opacity="0.75"/>
<circle cx="595.6" cy="251.5" r="4.2" fill="#17becf" fill-opacity="0.75"/>
<circle cx="508.0" cy="225.4" r="4.2" fill="#17becf" fill-opacity="0.75"/>
<circle cx="431.3" cy="163.2" r="4.2" fill="#17becf" fill-opacity="0.75"/>
<circle cx="594.6" cy="241.2" r="4.2" fill="#17becf" fill-opacity="0.75"/>
<circle cx="573.8" cy="234.7" r="4.2" fill="#17becf" fill-opacity="0.75"/>
<circle cx="720.0" cy="199.3" r="4.2" fill="#17becf" fill-opacity="0.75"/>
<circle cx="584.5" cy="233.8" r="4.2" fill="#17becf" fill-opacity="0.75"/>
<circle cx="592.4" cy="245.1" r="4.2" fill="#17becf" fill-opacity="0.75"/>
<circle cx="617.7" cy="246.4" r="4.2" fill="#17becf" fill-opacity="0.75"/>
<circle cx="603.2" cy="241.3" r="4.2" fill="#17becf" fill-opacity="0.75"/>
<circle cx="683.5" cy="174.6" r="4.2" fill="#17becf" fill-opacity="0.75"/>
<circle cx="541.3" cy="230.2" r="4.2" fill="#17becf" fill-opacity="0.75"/>
<circle cx="570.5" cy="255.4" r="4.2" fill="#17becf" fill-opacity="0.75"/>
<circle cx="498.5" cy="228.5" r="4.2" fill="#17becf" fill-opacity="0.75"/>
<circle cx="542.4" cy="232.0" r="4.2" fill="#17becf" fill-opacity="0.75"/>
<circle cx="535.9" cy="232.1" r="4.2" fill="#17becf" fill-opacity="0.75"/>
<circle cx="599.3" cy="233.3" r="4.2" fill="#17becf" fill-opacity="0.75"/>
<circle cx="632.5" cy="256.1" r="4.2" fill="#17becf" fill-opacity="0.75"/>
<circle cx="621.3" cy="249.1" r="4.2" fill="#17becf" fill-opacity="0.75"/>
<circle cx="626.1" cy="245.5" r="4.2" fill="#17becf" fill-opacity="0.75"/>
<circle cx="474.1" cy="203.2" r="4.2" fill="#17becf" fill-opacity="0.75"/>
<circle cx="612.5" cy="222.9" r="4.2" fill="#17becf" fill-opacity="0.75"/>
<circle cx="546.6" cy="196.3" r="4.2" fill="#17becf" fill-opacity="0.75"/>
<circle cx="589.9" cy="221.0" r="4.2" fill="#17becf" fill-opacity="0.75"/>
<circle cx="585.6" cy="230.5" r="4.2" fill="#17becf" fill-opacity="0.75"/>
<circle cx="489.5" cy="174.3" r="4.2" fill="#17becf" fill-opacity="0.75"/>
<circle cx="567.2" cy="232.3" r="4.2" fill="#17becf" fill-opacity="0.75"/>
<circle cx="620.3" cy="250.6" r="4.2" fill="#17becf" fill-opacity="0.75"/>
<circle cx="613.7" cy="253.1" r="4.2" fill="#17becf" fill-opacity="0.75"/>
<circle cx="534.9" cy="214.4" r="4.2" fill="#17becf" fill-opacity="0.75"/>
<circle cx="558.7" cy="211.0" r="4.2" fill="#17becf" fill-opacity="0.75"/>
<circle cx="621.4" cy="231.9" r="4.2" fill="#17becf" fill-opacity="0.75"/>
<circle cx="640.1" cy="248.5" r="4.2" fill="#17becf" fill-opacity="0.75"/>
<circle cx="525.3" cy="219.9" r="4.2" fill="#17becf" fill-opacity="0.75"/>
<circle cx="556.2" cy="225.5" r="4.2" fill="#17becf" fill-opacity="0.75"/>
<circle cx="466.5" cy="212.1" r="4.2" fill="#17becf" fill-opacity="0.75"/>
<circle cx="591.3" cy="225.1" r="4.2" fill="#17becf" fill-opacity="0.75"/>
<circle cx="483.9" cy="195.4" r="4.2" fill="#17becf" fill-opacity="0.75"/>
<circle cx="553.5" cy="217.3" r="4.2" fill="#17becf" fill-opacity="0.75"/>
<circle cx="622.3" cy="259.7" r="4.2" fill="#17becf" fill-opacity="0.75"/>
<circle cx="646.0" cy="200.6" r="4.2" fill="#17becf" fill-opacity="0.75"/>
<circle cx="576.1" cy="244.0" r="4.2" fill="#17becf" fill-opacity="0.75"/>
<circle cx="510.0" cy="224.7" r="4.2" fill="#17becf" fill-opacity="0.75"/>
<circle cx="590.7" cy="229.8" r="4.2" fill="#17becf" fill-opacity="0.75"/>
<circle cx="484.7" cy="171.8" r="4.2" fill="#17becf" fill-opacity="0.75"/>
<circle cx="611.0" cy="235.5" r="4.2" fill="#17becf" fill-opacity="0.75"/>
<circle cx="508.0" cy="235.9" r="4.2" fill="#17becf" fill-opacity="0.75"/>
<circle cx="539.6" cy="238.5" r="4.2" fill="#17becf" fill-opacity="0.75"/>
<circle cx="452.9" cy="198.2" r="4.2" fill="#17becf" fill-opacity="0.75"/>
<circle cx="627.6" cy="243.2" r="4.2" fill="#17becf" fill-opacity="0.75"/>
<circle cx="526.5" cy="242.4" r="4.2" fill="#17becf" fill-opacity="0.75"/>
<circle cx="526.5" cy="213.1" r="4.2" fill="#17becf" fill-opacity="0.75"/>
<circle cx="437.2" cy="188.0" r="4.2" fill="#17becf" fill-opacity="0.75"/>
<circle cx="603.8" cy="235.4" r="4.2" fill="#17becf" fill-opacity="0.75"/>
<circle cx="620.2" cy="245.3" r="4.2" fill="#17becf" fill-opacity="0.75"/>
<circle cx="509.3" cy="234.1" r="4.2" fill="#17becf" fill-opacity="0.75"/>
<circle cx="585.8" cy="261.5" r="4.2" fill="#17becf" fill-opacity="0.75"/>
<circle cx="611.1" cy="231.1" r="4.2" fill="#17becf" fill-opacity="0.75"/>
<circle cx="455.7" cy="218.0" r="4.2" fill="#17becf" fill-opacity="0.75"/>
<circle cx="620.1" cy="227.2" r="4.2" fill="#17becf" fill-opacity="0.75"/>
<circle cx="610.4" cy="243.5" r="4.2" fill="#17becf" fill-opacity="0.75"/>
<circle cx="638.3" cy="213.6" r="4.2" fill="#17becf" fill-opacity="0.75"/>
<circle cx="545.0" cy="204.5" r="4.2" fill="#17becf" fill-opacity="0.75"/>
<circle cx="420.0" cy="184.3" r="4.2" fill="#17becf" fill-opacity="0.75"/>
<circle cx="586.6" cy="210.8" r="4.2" fill="#17becf" fill-opacity="0.75"/>
<circle cx="542.8" cy="246.4" r="4.2" fill="#17becf" fill-opacity="0.75"/>
<circle cx="423.5" cy="187.1" r="4.2" fill="#17becf" fill-opacity="0.75"/>
<circle cx="592.8" cy="255.8" r="4.2" fill="#17becf" fill-opacity="0.75"/>
<circle cx="601.3" cy="209.9" r="4.2" fill="#17becf" fill-opacity="0.75"/>
<circle cx="511.8" cy="241.7" r="4.2" fill="#17becf" fill-opacity="0.75"/>
<circle cx="602.9" cy="251.0" r="4.2" fill="#17becf" fill-opacity="0.75"/>
<circle cx="615.7" cy="238.2" r="4.2" fill="#17becf" fill-opacity="0.75"/>
<circle cx="598.7" cy="219.3" r="4.2" fill="#17becf" fill-opacity="0.75"/>
<circle cx="292.8" cy="162.6" r="4.2" fill="#17becf" fill-opacity="0.75"/>
<circle cx="518.1" cy="196.0" r="4.2" fill="#17becf" fill-opacity="0.75"/>
<circle cx="539.2" cy="189.8" r="4.2" fill="#17becf" fill-opacity="0.75"/>
<circle cx="628.4" cy="228.4" r="4.2" fill="#17becf" fill-opacity="0.75"/>
<circle cx="592.3" cy="246.8" r="4.2" fill="#17becf" fill-opacity="0.75"/>
<circle cx="416.5" cy="214.6" r="4.2" fill="#17becf" fill-opacity="0.75"/>
<circle cx="559.3" cy="233.7" r="4.2" fill="#17becf" fill-opacity="0.75"/>
<circle cx="601.9" cy="240.2" r="4.2" fill="#17becf" fill-opacity="0.75"/>
<circle cx="605.5" cy="238.9" r="4.2" fill="#2ca02c" fill-opacity="0.75"/>
<circle cx="587.3" cy="260.3" r="4.2" fill="#2ca02c" fill-opacity="0.75"/>
<circle cx="543.3" cy="238.3" r="4.2" fill="#2ca02c" fill-opacity="0.75"/>
<circle cx="576.5" cy="228.4" r="4.2" fill="#2ca02c" fill-opacity="0.75"/>
<circle cx="595.6" cy="238.4" r="4.2" fill="#2ca02c" fill-opacity="0.75"/>
<circle cx="648.4" cy="225.6" r="4.2" fill="#2ca02c" fill-opacity="0.75"/>
<circle cx="639.5" cy="236.4" r="4.2" fill="#2ca02c" fill-opacity="0.75"/>
<circle cx="589.2" cy="240.7" r="4.2" fill="#2ca02c" fill-opacity="0.75"/>
<circle cx="613.3" cy="238.3" r="4.2" fill="#2ca02c" fill-opacity="0.75"/>
<circle cx="618.3" cy="205.0" r="4.2" fill="#2ca02c" fill-opacity="0.75"/>
<circle cx="628.0" cy="220.2" r="4.2" fill="#2ca02c" fill-opacity="0.75"/>
<circle cx="624.9" cy="207.0" r="4.2" fill="#2ca02c" fill-opacity="0.75"/>
<circle cx="617.2" cy="224.3" r="4.2" fill="#2ca02c" fill-opacity="0.75"/>
<circle cx="603.8" cy="240.7" r="4.2" fill="#2ca02c" fill-opacity="0.75"/>
<circle cx="600.0" cy="250.7" r="4.2" fill="#2ca02c" fill-opacity="0.75"/>
<circle cx="654.8" cy="244.9" r="4.2" fill="#2ca02c" fill-opacity="0.75"/>
<circle cx="632.8" cy="250.2" r="4.2" fill="#2ca02c" fill-opacity="0.75"/>
<circle cx="605.8" cy="270.4" r="4.2" fill="#2ca02c" fill-opacity="0.75"/>
<circle cx="640.4" cy="228.3" r="4.2" fill="#2ca02c" fill-opacity="0.75"/>
<circle cx="550.2" cy="263.0" r="4.2" fill="#2ca02c" fill-opacity="0.75"/>
<circle cx="598.9" cy="189.3" r="4.2" fill="#2ca02c" fill-opacity="0.75"/>
<circle cx="509.5" cy="205.1" r="4.2" fill="#2ca02c" fill-opacity="0.75"/>
<circle cx="360.2" cy="226.5" r="4.2" fill="#2ca02c" fill-opacity="0.75"/>
<circle cx="627.0" cy="227.9" r="4.2" fill="#2ca02c" fill-opacity="0.75"/>
<circle cx="576.0" cy="249.1" r="4.2" fill="#2ca02c" fill-opacity="0.75"/>
<circle cx="535.9" cy="291.1" r="4.2" fill="#2ca02c" fill-opacity="0.75"/>
<circle cx="620.0" cy="227.1" r="4.2" fill="#2ca02c" fill-opacity="0.75"/>
<circle cx="582.4" cy="235.5" r="4.2" fill="#2ca02c" fill-opacity="0.75"/>
<circle cx="568.7" cy="217.3" r="4.2" fill="#2ca02c" fill-opacity="0.75"/>
<circle cx="559.4" cy="222.4" r="4.2" fill="#2ca02c" fill-opacity="0.75"/>
<circle cx="632.0" cy="228.6" r="4.2" fill="#2ca02c" fill-opacity="0.75"/>
<circle cx="492.2" cy="218.4" r="4.2" fill="#2ca02c" fill-opacity="0.75"/>
<circle cx="576.9" cy="213.3" r="4.2" fill="#2ca02c" fill-opacity="0.75"/>
<circle cx="604.3" cy="231.6" r="4.2" fill="#2ca02c" fill-opacity="0.75"/>
<circle cx="560.6" cy="216.4" r="4.2" fill="#2ca02c" fill-opacity="0.75"/>
<circle cx="547.6" cy="229.1" r="4.2" fill="#2ca02c" fill-opacity="0.75"/>
<circle cx="579.3" cy="215.8" r="4.2" fill="#2ca02c" fill-opacity="0.75"/>
<circle cx="606.4" cy="238.0" r="4.2" fill="#2ca02c" fill-opacity="0.75"/>
<circle cx="544.5" cy="279.5" r="4.2" fill="#2ca02c" fill-opacity="0.75"/>
<circle cx="601.1" cy="239.8" r="4.2" fill="#2ca02c" fill-opacity="0.75"/>
<circle cx="639.0" cy="221.2" r="4.2" fill="#2ca02c" fill-opacity="0.75"/>
<circle cx="611.0" cy="237.1" r="4.2" fill="#2ca02c" fill-opacity="0.75"/>
<circle cx="602.1" cy="248.0" r="4.2" fill="#2ca02c" fill-opacity="0.75"/>
<circle cx="587.7" cy="267.7" r="4.2" fill="#2ca02c" fill-opacity="0.75"/>
<circle cx="569.8" cy="217.3" r="4.2" fill="#2ca02c" fill-opacity="0.75"/>
<circle cx="567.6" cy="267.9" r="4.2" fill="#2ca02c" fill-opacity="0.75"/>
<circle cx="602.5" cy="243.9" r="4.2" fill="#2ca02c" fill-opacity="0.75"/>
<circle cx="599.7" cy="250.9" r="4.2" fill="#2ca02c" fill-opacity="0.75"/>
<circle cx="610.0" cy="234.2" r="4.2" fill="#2ca02c" fill-opacity="0.75"/>
<circle cx="630.4" cy="237.5" r="4.2" fill="#2ca02c" fill-opacity="0.75"/>
<circle cx="624.4" cy="217.0" r="4.2" fill="#2ca02c" fill-opacity="0.75"/>
<circle cx="580.8" cy="263.6" r="4.2" fill="#2ca02c" fill-opacity="0.75"/>
<circle cx="547.6" cy="272.0" r="4.2" fill="#2ca02c" fill-opacity="0.75"/>
<circle cx="632.6" cy="230.5" r="4.2" fill="#2ca02c" fill-opacity="0.75"/>
<circle cx="581.3" cy="250.9" r="4.2" fill="#2ca02c" fill-opacity="0.75"/>
<circle cx="547.5" cy="262.5" r="4.2" fill="#2ca02c" fill-opacity="0.75"/>
<circle cx="579.2" cy="250.5" r="4.2" fill="#2ca02c" fill-opacity="0.75"/>
<circle cx="587.2" cy="205.3" r="4.2" fill="#2ca02c" fill-opacity="0.75"/>
<circle cx="607.6" cy="253.0" r="4.2" fill="#2ca02c" fill-opacity="0.75"/>
<circle cx="578.7" cy="159.5" r="4.2" fill="#2ca02c" fill-opacity="0.75"/>
<circle cx="587.8" cy="320.8" r="4.2" fill="#2ca02c" fill-opacity="0.75"/>
<circle cx="632.9" cy="233.3" r="4.2" fill="#2ca02c" fill-opacity="0.75"/>
<circle cx="593.1" cy="247.7" r="4.2" fill="#2ca02c" fill-opacity="0.75"/>
<circle cx="585.6" cy="246.7" r="4.2" fill="#2ca02c" fill-opacity="0.75"/>
<circle cx="612.9" cy="242.6" r="4.2" fill="#2ca02c" fill-opacity="0.75"/>
<circle cx="571.4" cy="253.7" r="4.2" fill="#2ca02c" fill-opacity="0.75"/>
<circle cx="593.1" cy="234.6" r="4.2" fill="#2ca02c" fill-opacity="0.75"/>
<circle cx="563.3" cy="274.6" r="4.2" fill="#2ca02c" fill-opacity="0.75"/>
<circle cx="573.4" cy="265.1" r="4.2" fill="#2ca02c" fill-opacity="0.75"/>
<circle cx="558.9" cy="231.0" r="4.2" fill="#2ca02c" fill-opacity="0.75"/>
<circle cx="498.4" cy="220.7" r="4.2" fill="#2ca02c" fill-opacity="0.75"/>
<circle cx="611.0" cy="211.9" r="4.2" fill="#2ca02c" fill-opacity="0.75"/>
<circle cx="515.6" cy="296.8" r="4.2" fill="#2ca02c" fill-opacity="0.75"/>
<circle cx="537.5" cy="249.6" r="4.2" fill="#2ca02c" fill-opacity="0.75"/>
<circle cx="577.5" cy="255.2" r="4.2" fill="#2ca02c" fill-opacity="0.75"/>
<circle cx="580.9" cy="222.0" r="4.2" fill="#2ca02c" fill-opacity="0.75"/>
<circle cx="599.8" cy="216.1" r="4.2" fill="#2ca02c" fill-opacity="0.75"/>
<circle cx="600.7" cy="217.7" r="4.2" fill="#2ca02c" fill-opacity="0.75"/>
<circle cx="583.4" cy="114.3" r="4.2" fill="#2ca02c" fill-opacity="0.75"/>
<circle cx="484.2" cy="340.1" r="4.2" fill="#2ca02c" fill-opacity="0.75"/>
<circle cx="630.9" cy="227.1" r="4.2" fill="#2ca02c" fill-opacity="0.75"/>
<circle cx="631.2" cy="217.0" r="4.2" fill="#2ca02c" fill-opacity="0.75"/>
<circle cx="622.2" cy="243.7" r="4.2" fill="#2ca02c" fill-opacity="0.75"/>
<circle cx="602.3" cy="212.2" r="4.2" fill="#2ca02c" fill-opacity="0.75"/>
<circle cx="625.1" cy="246.6" r="4.2" fill="#2ca02c" fill-opacity="0.75"/>
<circle cx="629.1" cy="207.7" r="4.2" fill="#2ca02c" fill-opacity="0.75"/>
<circle cx="589.4" cy="220.0" r="4.2" fill="#2ca02c" fill-opacity="0.75"/>
<circle cx="393.2" cy="223.5" r="4.2" fill="#2ca02c" fill-opacity="0.75"/>
<circle cx="611.2" cy="246.8" r="4.2" fill="#2ca02c" fill-opacity="0.75"/>
<circle cx="627.9" cy="225.5" r="4.2" fill="#2ca02c" fill-opacity="0.75"/>
<circle cx="504.1" cy="261.9" r="4.2" fill="#2ca02c" fill-opacity="0.75"/>
<circle cx="617.2" cy="233.7" r="4.2" fill="#2ca02c" fill-opacity="0.75"/>
<circle cx="533.5" cy="197.9" r="4.2" fill="#2ca02c" fill-opacity="0.75"/>
<circle cx="642.1" cy="232.6" r="4.2" fill="#2ca02c" fill-opacity="0.75"/>
<circle cx="494.8" cy="236.3" r="4.2" fill="#2ca02c" fill-opacity="0.75"/>
<circle cx="607.1" cy="181.5" r="4.2" fill="#2ca02c" fill-opacity="0.75"/>
<circle cx="515.4" cy="254.0" r="4.2" fill="#2ca02c" fill-opacity="0.75"/>
<circle cx="473.3" cy="275.2" r="4.2" fill="#2ca02c" fill-opacity="0.75"/>
<circle cx="591.4" cy="174.0" r="4.2" fill="#2ca02c" fill-opacity="0.75"/>
<circle cx="617.3" cy="240.2" r="4.2" fill="#2ca02c" fill-opacity="0.75"/>
<circle cx="627.3" cy="215.9" r="4.2" fill="#ff7f0e" fill-opacity="0.75"/>
<circle cx="630.2" cy="222.9" r="4.2" fill="#ff7f0e" fill-opacity="0.75"/>
<circle cx="526.8" cy="140.8" r="4.2" fill="#ff7f0e" fill-opacity="0.75"/>
<circle cx="532.3" cy="153.0" r="4.2" fill="#ff7f0e" fill-opacity="0.75"/>
<circle cx="619.6" cy="205.8" r="4.2" fill="#ff7f0e" fill-opacity="0.75"/>
<circle cx="617.0" cy="205.7" r="4.2" fill="#ff7f0e" fill-opacity="0.75"/>
<circle cx="559.1" cy="167.7" r="4.2" fill="#ff7f0e" fill-opacity="0.75"/>
<circle cx="551.9" cy="164.3" r="4.2" fill="#ff7f0e" fill-opacity="0.75"/>
<circle cx="639.1" cy="229.6" r="4.2" fill="#ff7f0e" fill-opacity="0.75"/>
<circle cx="635.5" cy="225.5" r="4.2" fill="#ff7f0e" fill-opacity="0.75"/>
<circle cx="627.8" cy="216.5" r="4.2" fill="#ff7f0e" fill-opacity="0.75"/>
<circle cx="620.9" cy="212.9" r="4.2" fill="#ff7f0e" fill-opacity="0.75"/>
<circle cx="559.0" cy="179.3" r="4.2" fill="#ff7f0e" fill-opacity="0.75"/>
<circle cx="561.3" cy="184.3" r="4.2" fill="#ff7f0e" fill-opacity="0.75"/>
<circle cx="612.5" cy="213.1" r="4.2" fill="#ff7f0e" fill-opacity="0.75"/>
<circle cx="613.7" cy="218.3" r="4.2" fill="#ff7f0e" fill-opacity="0.75"/>
<circle cx="571.2" cy="84.1" r="4.2" fill="#ff7f0e" fill-opacity="0.75"/>
<circle cx="568.9" cy="81.9" r="4.2" fill="#ff7f0e" fill-opacity="0.75"/>
<circle cx="611.3" cy="190.1" r="4.2" fill="#ff7f0e" fill-opacity="0.75"/>
<circle cx="612.8" cy="194.2" r="4.2" fill="#ff7f0e" fill-opacity="0.75"/>
<circle cx="548.7" cy="195.0" r="4.2" fill="#ff7f0e" fill-opacity="0.75"/>
<circle cx="550.6" cy="198.7" r="4.2" fill="#ff7f0e" fill-opacity="0.75"/>
<circle cx="496.6" cy="189.4" r="4.2" fill="#ff7f0e" fill-opacity="0.75"/>
<circle cx="499.1" cy="188.3" r="4.2" fill="#ff7f0e" fill-opacity="0.75"/>
<circle cx="640.5" cy="213.3" r="4.2" fill="#ff7f0e" fill-opacity="0.75"/>
<circle cx="633.7" cy="206.9" r="4.2" fill="#ff7f0e" fill-opacity="0.75"/>
<circle cx="560.0" cy="181.0" r="4.2" fill="#ff7f0e" fill-opacity="0.75"/>
<circle cx="553.0" cy="178.9" r="4.2" fill="#ff7f0e" fill-opacity="0.75"/>
<circle cx="603.1" cy="203.2" r="4.2" fill="#ff7f0e" fill-opacity="0.75"/>
<circle cx="607.9" cy="206.6" r="4.2" fill="#ff7f0e" fill-opacity="0.75"/>
<circle cx="617.8" cy="226.6" r="4.2" fill="#ff7f0e" fill-opacity="0.75"/>
<circle cx="621.9" cy="228.9" r="4.2" fill="#ff7f0e" fill-opacity="0.75"/>
<circle cx="575.3" cy="188.8" r="4.2" fill="#ff7f0e" fill-opacity="0.75"/>
<circle cx="563.3" cy="185.0" r="4.2" fill="#ff7f0e" fill-opacity="0.75"/>
<circle cx="563.9" cy="254.8" r="4.2" fill="#ff7f0e" fill-opacity="0.75"/>
<circle cx="555.6" cy="254.8" r="4.2" fill="#ff7f0e" fill-opacity="0.75"/>
<circle cx="632.4" cy="226.5" r="4.2" fill="#ff7f0e" fill-opacity="0.75"/>
<circle cx="629.1" cy="227.2" r="4.2" fill="#ff7f0e" fill-opacity="0.75"/>
<circle cx="526.5" cy="277.8" r="4.2" fill="#ff7f0e" fill-opacity="0.75"/>
<circle cx="530.0" cy="279.9" r="4.2" fill="#ff7f0e" fill-opacity="0.75"/>
<circle cx="612.7" cy="124.1" r="4.2" fill="#ff7f0e" fill-opacity="0.75"/>
<circle cx="605.8" cy="117.0" r="4.2" fill="#ff7f0e" fill-opacity="0.75"/>
<circle cx="630.8" cy="218.1" r="4.2" fill="#ff7f0e" fill-opacity="0.75"/>
<circle cx="622.8" cy="217.5" r="4.2" fill="#ff7f0e" fill-opacity="0.75"/>
<circle cx="623.4" cy="209.0" r="4.2" fill="#ff7f0e" fill-opacity="0.75"/>
<circle cx="613.0" cy="203.2" r="4.2" fill="#ff7f0e" fill-opacity="0.75"/>
<circle cx="617.4" cy="214.8" r="4.2" fill="#ff7f0e" fill-opacity="0.75"/>
<circle cx="607.5" cy="215.8" r="4.2" fill="#ff7f0e" fill-opacity="0.75"/>
<circle cx="571.4" cy="177.5" r="4.2" fill="#ff7f0e" fill-opacity="0.75"/>
<circle cx="568.5" cy="177.9" r="4.2" fill="#ff7f0e" fill-opacity="0.75"/>
<circle cx="611.6" cy="186.0" r="4.2" fill="#ff7f0e" fill-opacity="0.75"/>
<circle cx="609.3" cy="184.0" r="4.2" fill="#ff7f0e" fill-opacity="0.75"/>
<circle cx="559.6" cy="128.1" r="4.2" fill="#ff7f0e" fill-opacity="0.75"/>
<circle cx="555.2" cy="126.8" r="4.2" fill="#ff7f0e" fill-opacity="0.75"/>
<circle cx="575.8" cy="109.7" r="4.2" fill="#ff7f0e" fill-opacity="0.75"/>
<circle cx="569.6" cy="104.6" r="4.2" fill="#ff7f0e" fill-opacity="0.75"/>
<circle cx="605.4" cy="239.3" r="4.2" fill="#ff7f0e" fill-opacity="0.75"/>
<circle cx="598.9" cy="237.1" r="4.2" fill="#ff7f0e" fill-opacity="0.75"/>
<circle cx="577.5" cy="210.5" r="4.2" fill="#ff7f0e" fill-opacity="0.75"/>
<circle cx="580.2" cy="213.3" r="4.2" fill="#ff7f0e" fill-opacity="0.75"/>
<circle cx="623.3" cy="212.6" r="4.2" fill="#ff7f0e" fill-opacity="0.75"/>
<circle cx="621.5" cy="212.3" r="4.2" fill="#ff7f0e" fill-opacity="0.75"/>
<circle cx="651.3" cy="232.7" r="4.2" fill="#ff7f0e" fill-opacity="0.75"/>
<circle cx="647.5" cy="232.5" r="4.2" fill="#ff7f0e" fill-opacity="0.75"/>
<circle cx="503.4" cy="133.7" r="4.2" fill="#ff7f0e" fill-opacity="0.75"/>
<circle cx="487.6" cy="126.1" r="4.2" fill="#ff7f0e" fill-opacity="0.75"/>
<circle cx="612.8" cy="207.5" r="4.2" fill="#ff7f0e" fill-opacity="0.75"/>
<circle cx="610.1" cy="207.3" r="4.2" fill="#ff7f0e" fill-opacity="0.75"/>
<circle cx="557.2" cy="196.7" r="4.2" fill="#ff7f0e" fill-opacity="0.75"/>
<circle cx="557.5" cy="195.9" r="4.2" fill="#ff7f0e" fill-opacity="0.75"/>
<circle cx="596.7" cy="213.5" r="4.2" fill="#ff7f0e" fill-opacity="0.75"/>
<circle cx="593.7" cy="210.0" r="4.2" fill="#ff7f0e" fill-opacity="0.75"/>
<circle cx="636.3" cy="244.1" r="4.2" fill="#ff7f0e" fill-opacity="0.75"/>
<circle cx="639.4" cy="242.7" r="4.2" fill="#ff7f0e" fill-opacity="0.75"/>
<circle cx="627.2" cy="227.0" r="4.2" fill="#ff7f0e" fill-opacity="0.75"/>
<circle cx="629.0" cy="228.7" r="4.2" fill="#ff7f0e" fill-opacity="0.75"/>
<circle cx="619.7" cy="237.0" r="4.2" fill="#ff7f0e" fill-opacity="0.75"/>
<circle cx="618.5" cy="237.4" r="4.2" fill="#ff7f0e" fill-opacity="0.75"/>
<circle cx="635.7" cy="228.0" r="4.2" fill="#ff7f0e" fill-opacity="0.75"/>
<circle cx="629.4" cy="224.8" r="4.2" fill="#ff7f0e" fill-opacity="0.75"/>
<circle cx="625.1" cy="236.4" r="4.2" fill="#ff7f0e" fill-opacity="0.75"/>
<circle cx="620.0" cy="233.8" r="4.2" fill="#ff7f0e" fill-opacity="0.75"/>
<circle cx="594.3" cy="249.9" r="4.2" fill="#ff7f0e" fill-opacity="0.75"/>
<circle cx="588.7" cy="251.8" r="4.2" fill="#ff7f0e" fill-opacity="0.75"/>
<circle cx="572.5" cy="270.5" r="4.2" fill="#ff7f0e" fill-opacity="0.75"/>
<circle cx="560.1" cy="265.0" r="4.2" fill="#ff7f0e" fill-opacity="0.75"/>
<circle cx="655.8" cy="220.8" r="4.2" fill="#ff7f0e" fill-opacity="0.75"/>
<circle cx="660.7" cy="219.4" r="4.2" fill="#ff7f0e" fill-opacity="0.75"/>
<circle cx="582.6" cy="204.8" r="4.2" fill="#ff7f0e" fill-opacity="0.75"/>
<circle cx="586.4" cy="208.7" r="4.2" fill="#ff7f0e" fill-opacity="0.75"/>
<circle cx="613.0" cy="249.3" r="4.2" fill="#ff7f0e" fill-opacity="0.75"/>
<circle cx="615.3" cy="254.1" r="4.2" fill="#ff7f0e" fill-opacity="0.75"/>
<circle cx="648.0" cy="230.4" r="4.2" fill="#ff7f0e" fill-opacity="0.75"/>
<circle cx="646.9" cy="229.4" r="4.2" fill="#ff7f0e" fill-opacity="0.75"/>
<circle cx="606.4" cy="239.7" r="4.2" fill="#ff7f0e" fill-opacity="0.75"/>
<circle cx="606.6" cy="238.3" r="4.2" fill="#ff7f0e" fill-opacity="0.75"/>
<circle cx="618.1" cy="234.4" r="4.2" fill="#ff7f0e" fill-opacity="0.75"/>
<circle cx="614.4" cy="235.8" r="4.2" fill="#ff7f0e" fill-opacity="0.75"/>
<circle cx="621.5" cy="190.7" r="4.2" fill="#ff7f0e" fill-opacity="0.75"/>
<circle cx="604.8" cy="171.5" r="4.2" fill="#ff7f0e" fill-opacity="0.75"/>
<circle cx="630.2" cy="245.0" r="4.2" fill="#d62728" fill-opacity="0.75"/>
<circle cx="633.5" cy="246.6" r="4.2" fill="#d62728" fill-opacity="0.75"/>
<circle cx="532.5" cy="222.5" r="4.2" fill="#d62728" fill-opacity="0.75"/>
<circle cx="531.0" cy="219.4" r="4.2" fill="#d62728" fill-opacity="0.75"/>
<circle cx="546.2" cy="248.1" r="4.2" fill="#d62728" fill-opacity="0.75"/>
<circle cx="545.9" cy="249.4" r="4.2" fill="#d62728" fill-opacity="0.75"/>
<circle cx="598.8" cy="218.3" r="4.2" fill="#d62728" fill-opacity="0.75"/>
<circle cx="597.9" cy="218.0" r="4.2" fill="#d62728" fill-opacity="0.75"/>
<circle cx="595.3" cy="221.7" r="4.2" fill="#d62728" fill-opacity="0.75"/>
<circle cx="592.7" cy="219.1" r="4.2" fill="#d62728" fill-opacity="0.75"/>
<circle cx="576.0" cy="206.4" r="4.2" fill="#d62728" fill-opacity="0.75"/>
<circle cx="576.4" cy="208.4" r="4.2" fill="#d62728" fill-opacity="0.75"/>
<circle cx="476.4" cy="250.3" r="4.2" fill="#d62728" fill-opacity="0.75"/>
<circle cx="467.1" cy="246.7" r="4.2" fill="#d62728" fill-opacity="0.75"/>
<circle cx="432.5" cy="342.5" r="4.2" fill="#d62728" fill-opacity="0.75"/>
<circle cx="427.6" cy="340.1" r="4.2" fill="#d62728" fill-opacity="0.75"/>
<circle cx="468.5" cy="245.7" r="4.2" fill="#d62728" fill-opacity="0.75"/>
<circle cx="457.1" cy="239.7" r="4.2" fill="#d62728" fill-opacity="0.75"/>
<circle cx="274.2" cy="388.6" r="4.2" fill="#d62728" fill-opacity="0.75"/>
<circle cx="306.0" cy="470.0" r="4.2" fill="#d62728" fill-opacity="0.75"/>
<circle cx="495.1" cy="206.6" r="4.2" fill="#d62728" fill-opacity="0.75"/>
<circle cx="490.1" cy="204.7" r="4.2" fill="#d62728" fill-opacity="0.75"/>
<circle cx="593.4" cy="197.6" r="4.2" fill="#d62728" fill-opacity="0.75"/>
<circle cx="598.9" cy="203.2" r="4.2" fill="#d62728" fill-opacity="0.75"/>
<circle cx="586.4" cy="198.1" r="4.2" fill="#d62728" fill-opacity="0.75"/>
<circle cx="582.0" cy="202.3" r="4.2" fill="#d62728" fill-opacity="0.75"/>
<circle cx="587.4" cy="228.4" r="4.2" fill="#d62728" fill-opacity="0.75"/>
<circle cx="585.1" cy="227.9" r="4.2" fill="#d62728" fill-opacity="0.75"/>
<circle cx="594.5" cy="240.8" r="4.2" fill="#d62728" fill-opacity="0.75"/>
<circle cx="589.1" cy="244.5" r="4.2" fill="#d62728" fill-opacity="0.75"/>
<circle cx="542.3" cy="201.9" r="4.2" fill="#d62728" fill-opacity="0.75"/>
<circle cx="540.1" cy="206.1" r="4.2" fill="#d62728" fill-opacity="0.75"/>
<circle cx="583.6" cy="202.8" r="4.2" fill="#d62728" fill-opacity="0.75"/>
<circle cx="578.2" cy="197.6" r="4.2" fill="#d62728" fill-opacity="0.75"/>
<circle cx="538.2" cy="226.1" r="4.2" fill="#d62728" fill-opacity="0.75"/>
<circle cx="541.7" cy="231.8" r="4.2" fill="#d62728" fill-opacity="0.75"/>
<circle cx="601.5" cy="217.8" r="4.2" fill="#d62728" fill-opacity="0.75"/>
<circle cx="606.3" cy="219.8" r="4.2" fill="#d62728" fill-opacity="0.75"/>
<circle cx="581.0" cy="228.1" r="4.2" fill="#d62728" fill-opacity="0.75"/>
<circle cx="573.1" cy="215.5" r="4.2" fill="#d62728" fill-opacity="0.75"/>
<circle cx="603.2" cy="219.6" r="4.2" fill="#d62728" fill-opacity="0.75"/>
<circle cx="604.6" cy="220.2" r="4.2" fill="#d62728" fill-opacity="0.75"/>
<circle cx="599.9" cy="221.3" r="4.2" fill="#d62728" fill-opacity="0.75"/>
<circle cx="605.1" cy="230.1" r="4.2" fill="#d62728" fill-opacity="0.75"/>
<circle cx="550.7" cy="220.6" r="4.2" fill="#d62728" fill-opacity="0.75"/>
<circle cx="555.9" cy="224.9" r="4.2" fill="#d62728" fill-opacity="0.75"/>
<circle cx="603.0" cy="224.7" r="4.2" fill="#d62728" fill-opacity="0.75"/>
<circle cx="601.8" cy="224.6" r="4.2" fill="#d62728" fill-opacity="0.75"/>
<circle cx="503.9" cy="246.2" r="4.2" fill="#d62728" fill-opacity="0.75"/>
<circle cx="503.8" cy="247.9" r="4.2" fill="#d62728" fill-opacity="0.75"/>
<circle cx="599.6" cy="226.8" r="4.2" fill="#d62728" fill-opacity="0.75"/>
<circle cx="595.6" cy="224.3" r="4.2" fill="#d62728" fill-opacity="0.75"/>
<circle cx="587.0" cy="217.2" r="4.2" fill="#d62728" fill-opacity="0.75"/>
<circle cx="585.0" cy="209.9" r="4.2" fill="#d62728" fill-opacity="0.75"/>
<circle cx="581.7" cy="217.7" r="4.2" fill="#d62728" fill-opacity="0.75"/>
<circle cx="581.9" cy="223.2" r="4.2" fill="#d62728" fill-opacity="0.75"/>
<circle cx="628.1" cy="183.2" r="4.2" fill="#d62728" fill-opacity="0.75"/>
<circle cx="626.0" cy="186.0" r="4.2" fill="#d62728" fill-opacity="0.75"/>
<circle cx="568.0" cy="197.2" r="4.2" fill="#d62728" fill-opacity="0.75"/>
<circle cx="569.5" cy="197.6" r="4.2" fill="#d62728" fill-opacity="0.75"/>
<circle cx="556.4" cy="216.5" r="4.2" fill="#d62728" fill-opacity="0.75"/>
<circle cx="557.4" cy="219.8" r="4.2" fill="#d62728" fill-opacity="0.75"/>
<circle cx="620.7" cy="224.4" r="4.2" fill="#d62728" fill-opacity="0.75"/>
<circle cx="620.6" cy="227.1" r="4.2" fill="#d62728" fill-opacity="0.75"/>
<circle cx="608.7" cy="245.1" r="4.2" fill="#d62728" fill-opacity="0.75"/>
<circle cx="606.8" cy="242.9" r="4.2" fill="#d62728" fill-opacity="0.75"/>
<circle cx="583.0" cy="213.1" r="4.2" fill="#d62728" fill-opacity="0.75"/>
<circle cx="583.1" cy="210.6" r="4.2" fill="#d62728" fill-opacity="0.75"/>
<circle cx="583.5" cy="215.2" r="4.2" fill="#d62728" fill-opacity="0.75"/>
<circle cx="585.7" cy="219.9" r="4.2" fill="#d62728" fill-opacity="0.75"/>
<circle cx="577.0" cy="208.4" r="4.2" fill="#d62728" fill-opacity="0.75"/>
<circle cx="568.8" cy="201.7" r="4.2" fill="#d62728" fill-opacity="0.75"/>
<circle cx="529.2" cy="221.6" r="4.2" fill="#d62728" fill-opacity="0.75"/>
<circle cx="522.5" cy="218.1" r="4.2" fill="#d62728" fill-opacity="0.75"/>
<circle cx="599.5" cy="210.9" r="4.2" fill="#d62728" fill-opacity="0.75"/>
<circle cx="600.8" cy="213.8" r="4.2" fill="#d62728" fill-opacity="0.75"/>
<circle cx="577.4" cy="238.6" r="4.2" fill="#d62728" fill-opacity="0.75"/>
<circle cx="573.9" cy="234.8" r="4.2" fill="#d62728" fill-opacity="0.75"/>
<circle cx="611.1" cy="208.6" r="4.2" fill="#d62728" fill-opacity="0.75"/>
<circle cx="611.1" cy="204.2" r="4.2" fill="#d62728" fill-opacity="0.75"/>
<circle cx="573.7" cy="251.4" r="4.2" fill="#d62728" fill-opacity="0.75"/>
<circle cx="573.4" cy="253.7" r="4.2" fill="#d62728" fill-opacity="0.75"/>
<circle cx="573.1" cy="217.5" r="4.2" fill="#d62728" fill-opacity="0.75"/>
<circle cx="570.2" cy="223.6" r="4.2" fill="#d62728" fill-opacity="0.75"/>
<circle cx="588.9" cy="186.9" r="4.2" fill="#d62728" fill-opacity="0.75"/>
<circle cx="583.3" cy="189.6" r="4.2" fill="#d62728" fill-opacity="0.75"/>
<circle cx="625.0" cy="220.6" r="4.2" fill="#d62728" fill-opacity="0.75"/>
<circle cx="618.8" cy="222.2" r="4.2" fill="#d62728" fill-opacity="0.75"/>
<circle cx="589.2" cy="177.5" r="4.2" fill="#d62728" fill-opacity="0.75"/>
<circle cx="590.6" cy="188.2" r="4.2" fill="#d62728" fill-opacity="0.75"/>
<circle cx="571.1" cy="229.6" r="4.2" fill="#d62728" fill-opacity="0.75"/>
<circle cx="566.7" cy="228.2" r="4.2" fill="#d62728" fill-opacity="0.75"/>
<circle cx="534.5" cy="215.2" r="4.2" fill="#d62728" fill-opacity="0.75"/>
<circle cx="525.4" cy="207.7" r="4.2" fill="#d62728" fill-opacity="0.75"/>
<circle cx="584.8" cy="158.7" r="4.2" fill="#d62728" fill-opacity="0.75"/>
<circle cx="575.5" cy="153.4" r="4.2" fill="#d62728" fill-opacity="0.75"/>
<circle cx="576.1" cy="221.4" r="4.2" fill="#d62728" fill-opacity="0.75"/>
<circle cx="577.8" cy="226.1" r="4.2" fill="#d62728" fill-opacity="0.75"/>
<circle cx="596.0" cy="247.0" r="4.2" fill="#d62728" fill-opacity="0.75"/>
<circle cx="595.6" cy="249.8" r="4.2" fill="#d62728" fill-opacity="0.75"/>
<rect x="750" y="60" width="14" height="14" fill="#7f7f7f"/>
<text x="770" y="72" font-size="14" font-family="Arial">photo</text>
<rect x="750" y="84" width="14" height="14" fill="#17becf"/>
<text x="770" y="96" font-size="14" font-family="Arial">Hayao</text>
<rect x="750" y="108" width="14" height="14" fill="#2ca02c"/>
<text x="770" y="120" font-size="14" font-family="Arial">monet</text>
<rect x="750" y="132" width="14" height="14" fill="#ff7f0e"/>
<text x="770" y="144" font-size="14" font-family="Arial">vangogh</text>
<rect x="750" y="156" width="14" height="14" fill="#d62728"/>
<text x="770" y="168" font-size="14" font-family="Arial">cezanne</text>
</svg>