<svg xmlns="http://www.w3.org/2000/svg" width="900" height="520" viewBox="0 0 900 520">
<rect width="100%" height="100%" fill="white"/>
<text x="450.0" y="28" text-anchor="middle" font-size="22" font-family="Arial">MDS Scatter: latent_mse</text>
<rect x="70" y="50" width="650" height="420" fill="none" stroke="black"/>
<circle cx="549.4" cy="287.3" r="4.2" fill="#7f7f7f" fill-opacity="0.75"/>
<circle cx="451.2" cy="398.5" r="4.2" fill="#7f7f7f" fill-opacity="0.75"/>
<circle cx="386.4" cy="275.0" r="4.2" fill="#7f7f7f" fill-opacity="0.75"/>
<circle cx="368.6" cy="220.9" r="4.2" fill="#7f7f7f" fill-opacity="0.75"/>
<circle cx="427.6" cy="419.3" r="4.2" fill="#7f7f7f" fill-opacity="0.75"/>
<circle cx="400.1" cy="341.1" r="4.2" fill="#7f7f7f" fill-opacity="0.75"/>
<circle cx="377.8" cy="230.6" r="4.2" fill="#7f7f7f" fill-opacity="0.75"/>
<circle cx="511.6" cy="282.3" r="4.2" fill="#7f7f7f" fill-opacity="0.75"/>
<circle cx="460.9" cy="193.6" r="4.2" fill="#7f7f7f" fill-opacity="0.75"/>
<circle cx="409.7" cy="265.9" r="4.2" fill="#7f7f7f" fill-opacity="0.75"/>
<circle cx="387.3" cy="277.3" r="4.2" fill="#7f7f7f" fill-opacity="0.75"/>
<circle cx="437.8" cy="272.3" r="4.2" fill="#7f7f7f" fill-opacity="0.75"/>
<circle cx="377.6" cy="342.8" r="4.2" fill="#7f7f7f" fill-opacity="0.75"/>
<circle cx="476.5" cy="322.1" r="4.2" fill="#7f7f7f" fill-opacity="0.75"/>
<circle cx="444.1" cy="334.9" r="4.2" fill="#7f7f7f" fill-opacity="0.75"/>
<circle cx="284.6" cy="336.8" r="4.2" fill="#7f7f7f" fill-opacity="0.75"/>
<circle cx="544.4" cy="432.6" r="4.2" fill="#7f7f7f" fill-opacity="0.75"/>
<circle cx="484.4" cy="374.7" r="4.2" fill="#7f7f7f" fill-opacity="0.75"/>
<circle cx="381.4" cy="270.5" r="4.2" fill="#7f7f7f" fill-opacity="0.75"/>
<circle cx="720.0" cy="289.8" r="4.2" fill="#7f7f7f" fill-opacity="0.75"/>
<circle cx="375.5" cy="361.2" r="4.2" fill="#7f7f7f" fill-opacity="0.75"/>
<circle cx="356.9" cy="186.0" r="4.2" fill="#7f7f7f" fill-opacity="0.75"/>
<circle cx="360.1" cy="470.0" r="4.2" fill="#7f7f7f" fill-opacity="0.75"/>
<circle cx="446.2" cy="300.2" r="4.2" fill="#7f7f7f" fill-opacity="0.75"/>
<circle cx="346.7" cy="316.8" r="4.2" fill="#7f7f7f" fill-opacity="0.75"/>
<circle cx="363.6" cy="363.9" r="4.2" fill="#7f7f7f" fill-opacity="0.75"/>
<circle cx="424.0" cy="305.3" r="4.2" fill="#7f7f7f" fill-opacity="0.75"/>
<circle cx="425.3" cy="235.8" r="4.2" fill="#7f7f7f" fill-opacity="0.75"/>
<circle cx="351.2" cy="256.1" r="4.2" fill="#7f7f7f" fill-opacity="0.75"/>
<circle cx="405.2" cy="280.1" r="4.2" fill="#7f7f7f" fill-opacity="0.75"/>
<circle cx="412.0" cy="401.6" r="4.2" fill="#7f7f7f" fill-opacity="0.75"/>
<circle cx="467.5" cy="307.7" r="4.2" fill="#7f7f7f" fill-opacity="0.75"/>
<circle cx="363.7" cy="329.6" r="4.2" fill="#7f7f7f" fill-opacity="0.75"/>
<circle cx="421.1" cy="343.7" r="4.2" fill="#7f7f7f" fill-opacity="0.75"/>
<circle cx="509.1" cy="289.4" r="4.2" fill="#7f7f7f" fill-opacity="0.75"/>
<circle cx="348.5" cy="294.5" r="4.2" fill="#7f7f7f" fill-opacity="0.75"/>
<circle cx="393.4" cy="342.4" r="4.2" fill="#7f7f7f" fill-opacity="0.75"/>
<circle cx="441.3" cy="326.0" r="4.2" fill="#7f7f7f" fill-opacity="0.75"/>
<circle cx="438.6" cy="353.1" r="4.2" fill="#7f7f7f" fill-opacity="0.75"/>
<circle cx="468.0" cy="274.1" r="4.2" fill="#7f7f7f" fill-opacity="0.75"/>
<circle cx="389.7" cy="372.4" r="4.2" fill="#7f7f7f" fill-opacity="0.75"/>
<circle cx="428.5" cy="327.6" r="4.2" fill="#7f7f7f" fill-opacity="0.75"/>
<circle cx="442.4" cy="280.2" r="4.2" fill="#7f7f7f" fill-opacity="0.75"/>
<circle cx="432.3" cy="339.7" r="4.2" fill="#7f7f7f" fill-opacity="0.75"/>
<circle cx="348.1" cy="301.9" r="4.2" fill="#7f7f7f" fill-opacity="0.75"/>
<circle cx="383.0" cy="388.6" r="4.2" fill="#7f7f7f" fill-opacity="0.75"/>
<circle cx="351.5" cy="365.7" r="4.2" fill="#7f7f7f" fill-opacity="0.75"/>
<circle cx="401.6" cy="330.3" r="4.2" fill="#7f7f7f" fill-opacity="0.75"/>
<circle cx="433.5" cy="449.6" r="4.2" fill="#7f7f7f" fill-opacity="0.75"/>
<circle cx="540.1" cy="353.1" r="4.2" fill="#7f7f7f" fill-opacity="0.75"/>
<circle cx="383.2" cy="295.3" r="4.2" fill="#7f7f7f" fill-opacity="0.75"/>
<circle cx="439.1" cy="315.8" r="4.2" fill="#7f7f7f" fill-opacity="0.75"/>
<circle cx="426.1" cy="376.1" r="4.2" fill="#7f7f7f" fill-opacity="0.75"/>
<circle cx="350.2" cy="266.0" r="4.2" fill="#7f7f7f" fill-opacity="0.75"/>
<circle cx="378.6" cy="222.7" r="4.2" fill="#7f7f7f" fill-opacity="0.75"/>
<circle cx="400.2" cy="282.4" r="4.2" fill="#7f7f7f" fill-opacity="0.75"/>
<circle cx="327.0" cy="219.9" r="4.2" fill="#7f7f7f" fill-opacity="0.75"/>
<circle cx="413.4" cy="288.8" r="4.2" fill="#7f7f7f" fill-opacity="0.75"/>
<circle cx="332.3" cy="290.1" r="4.2" fill="#7f7f7f" fill-opacity="0.75"/>
<circle cx="504.2" cy="273.9" r="4.2" fill="#7f7f7f" fill-opacity="0.75"/>
<circle cx="376.3" cy="305.6" r="4.2" fill="#7f7f7f" fill-opacity="0.75"/>
<circle cx="360.6" cy="330.7" r="4.2" fill="#7f7f7f" fill-opacity="0.75"/>
<circle cx="407.2" cy="369.3" r="4.2" fill="#7f7f7f" fill-opacity="0.75"/>
<circle cx="384.3" cy="428.4" r="4.2" fill="#7f7f7f" fill-opacity="0.75"/>
<circle cx="410.8" cy="240.0" r="4.2" fill="#7f7f7f" fill-opacity="0.75"/>
<circle cx="380.0" cy="343.3" r="4.2" fill="#7f7f7f" fill-opacity="0.75"/>
<circle cx="224.8" cy="357.7" r="4.2" fill="#7f7f7f" fill-opacity="0.75"/>
<circle cx="562.3" cy="346.3" r="4.2" fill="#7f7f7f" fill-opacity="0.75"/>
<circle cx="314.6" cy="293.6" r="4.2" fill="#7f7f7f" fill-opacity="0.75"/>
<circle cx="474.2" cy="435.6" r="4.2" fill="#7f7f7f" fill-opacity="0.75"/>
<circle cx="342.0" cy="301.5" r="4.2" fill="#7f7f7f" fill-opacity="0.75"/>
<circle cx="403.7" cy="290.0" r="4.2" fill="#7f7f7f" fill-opacity="0.75"/>
<circle cx="310.2" cy="325.6" r="4.2" fill="#7f7f7f" fill-opacity="0.75"/>
<circle cx="331.5" cy="338.8" r="4.2" fill="#7f7f7f" fill-opacity="0.75"/>
<circle cx="383.7" cy="295.6" r="4.2" fill="#7f7f7f" fill-opacity="0.75"/>
<circle cx="258.8" cy="402.6" r="4.2" fill="#7f7f7f" fill-opacity="0.75"/>
<circle cx="403.1" cy="252.5" r="4.2" fill="#7f7f7f" fill-opacity="0.75"/>
<circle cx="401.6" cy="285.0" r="4.2" fill="#7f7f7f" fill-opacity="0.75"/>
<circle cx="397.9" cy="399.7" r="4.2" fill="#7f7f7f" fill-opacity="0.75"/>
<circle cx="324.2" cy="321.3" r="4.2" fill="#7f7f7f" fill-opacity="0.75"/>
<circle cx="425.4" cy="285.5" r="4.2" fill="#7f7f7f" fill-opacity="0.75"/>
<circle cx="369.1" cy="258.8" r="4.2" fill="#7f7f7f" fill-opacity="0.75"/>
<circle cx="482.7" cy="271.9" r="4.2" fill="#7f7f7f" fill-opacity="0.75"/>
<circle cx="452.9" cy="374.4" r="4.2" fill="#7f7f7f" fill-opacity="0.75"/>
<circle cx="315.2" cy="53.9" r="4.2" fill="#7f7f7f" fill-opacity="0.75"/>
<circle cx="426.2" cy="227.3" r="4.2" fill="#7f7f7f" fill-opacity="0.75"/>
<circle cx="385.9" cy="293.7" r="4.2" fill="#7f7f7f" fill-opacity="0.75"/>
<circle cx="356.5" cy="325.5" r="4.2" fill="#7f7f7f" fill-opacity="0.75"/>
<circle cx="314.0" cy="338.6" r="4.2" fill="#7f7f7f" fill-opacity="0.75"/>
<circle cx="355.8" cy="310.7" r="4.2" fill="#7f7f7f" fill-opacity="0.75"/>
<circle cx="365.1" cy="272.4" r="4.2" fill="#7f7f7f" fill-opacity="0.75"/>
<circle cx="368.2" cy="384.2" r="4.2" fill="#7f7f7f" fill-opacity="0.75"/>
<circle cx="370.9" cy="315.2" r="4.2" fill="#7f7f7f" fill-opacity="0.75"/>
<circle cx="493.1" cy="319.1" r="4.2" fill="#7f7f7f" fill-opacity="0.75"/>
<circle cx="401.8" cy="410.4" r="4.2" fill="#7f7f7f" fill-opacity="0.75"/>
<circle cx="486.1" cy="322.4" r="4.2" fill="#7f7f7f" fill-opacity="0.75"/>
<circle cx="401.7" cy="71.2" r="4.2" fill="#7f7f7f" fill-opacity="0.75"/>
<circle cx="456.2" cy="280.9" r="4.2" fill="#7f7f7f" fill-opacity="0.75"/>
<circle cx="359.2" cy="283.8" r="4.2" fill="#7f7f7f" fill-opacity="0.75"/>
<circle cx="381.3" cy="293.0" r="4.2" fill="#7f7f7f" fill-opacity="0.75"/>
<circle cx="369.0" cy="193.5" r="4.2" fill="#17becf" fill-opacity="0.75"/>
<circle cx="376.8" cy="99.1" r="4.2" fill="#17becf" fill-opacity="0.75"/>
<circle cx="454.6" cy="183.8" r="4.2" fill="#17becf" fill-opacity="0.75"/>
<circle cx="375.1" cy="181.0" r="4.2" fill="#17becf" fill-opacity="0.75"/>
<circle cx="533.1" cy="177.1" r="4.2" fill="#17becf" fill-opacity="0.75"/>
<circle cx="378.5" cy="196.4" r="4.2" fill="#17becf" fill-opacity="0.75"/>
<circle cx="420.8" cy="99.2" r="4.2" fill="#17becf" fill-opacity="0.75"/>
<circle cx="427.1" cy="237.3" r="4.2" fill="#17becf" fill-opacity="0.75"/>
<circle cx="394.8" cy="216.9" r="4.2" fill="#17becf" fill-opacity="0.75"/>
<circle cx="414.5" cy="197.7" r="4.2" fill="#17becf" fill-opacity="0.75"/>
<circle cx="366.9" cy="188.6" r="4.2" fill="#17becf" fill-opacity="0.75"/>
<circle cx="378.5" cy="165.6" r="4.2" fill="#17becf" fill-opacity="0.75"/>
<circle cx="385.2" cy="151.7" r="4.2" fill="#17becf" fill-opacity="0.75"/>
<circle cx="371.1" cy="201.9" r="4.2" fill="#17becf" fill-opacity="0.75"/>
<circle cx="385.9" cy="142.5" r="4.2" fill="#17becf" fill-opacity="0.75"/>
<circle cx="402.4" cy="214.0" r="4.2" fill="#17becf" fill-opacity="0.75"/>
<circle cx="405.4" cy="92.3" r="4.2" fill="#17becf" fill-opacity="0.75"/>
<circle cx="347.4" cy="140.8" r="4.2" fill="#17becf" fill-opacity="0.75"/>
<circle cx="499.1" cy="133.2" r="4.2" fill="#17becf" fill-opacity="0.75"/>
<circle cx="405.8" cy="234.4" r="4.2" fill="#17becf" fill-opacity="0.75"/>
<circle cx="443.1" cy="172.1" r="4.2" fill="#17becf" fill-opacity="0.75"/>
<circle cx="521.4" cy="141.9" r="4.2" fill="#17becf" fill-opacity="0.75"/>
<circle cx="277.2" cy="144.1" r="4.2" fill="#17becf" fill-opacity="0.75"/>
<circle cx="360.7" cy="275.7" r="4.2" fill="#17becf" fill-opacity="0.75"/>
<circle cx="364.6" cy="116.4" r="4.2" fill="#17becf" fill-opacity="0.75"/>
<circle cx="373.5" cy="243.5" r="4.2" fill="#17becf" fill-opacity="0.75"/>
<circle cx="429.8" cy="249.8" r="4.2" fill="#17becf" fill-opacity="0.75"/>
<circle cx="388.2" cy="234.9" r="4.2" fill="#17becf" fill-opacity="0.75"/>
<circle cx="359.4" cy="181.8" r="4.2" fill="#17becf" fill-opacity="0.75"/>
<circle cx="336.6" cy="134.9" r="4.2" fill="#17becf" fill-opacity="0.75"/>
<circle cx="437.8" cy="126.6" r="4.2" fill="#17becf" fill-opacity="0.75"/>
<circle cx="432.7" cy="209.1" r="4.2" fill="#17becf" fill-opacity="0.75"/>
<circle cx="476.6" cy="155.8" r="4.2" fill="#17becf" fill-opacity="0.75"/>
<circle cx="458.6" cy="202.5" r="4.2" fill="#17becf" fill-opacity="0.75"/>
<circle cx="484.1" cy="251.0" r="4.2" fill="#17becf" fill-opacity="0.75"/>
<circle cx="358.1" cy="129.7" r="4.2" fill="#17becf" fill-opacity="0.75"/>
<circle cx="373.8" cy="249.0" r="4.2" fill="#17becf" fill-opacity="0.75"/>
<circle cx="382.8" cy="166.3" r="4.2" fill="#17becf" fill-opacity="0.75"/>
<circle cx="377.5" cy="226.9" r="4.2" fill="#17becf" fill-opacity="0.75"/>
<circle cx="452.9" cy="291.3" r="4.2" fill="#17becf" fill-opacity="0.75"/>
<circle cx="349.2" cy="215.3" r="4.2" fill="#17becf" fill-opacity="0.75"/>
<circle cx="389.5" cy="99.4" r="4.2" fill="#17becf" fill-opacity="0.75"/>
<circle cx="410.9" cy="189.0" r="4.2" fill="#17becf" fill-opacity="0.75"/>
<circle cx="362.9" cy="185.5" r="4.2" fill="#17becf" fill-opacity="0.75"/>
<circle cx="513.6" cy="143.9" r="4.2" fill="#17becf" fill-opacity="0.75"/>
<circle cx="336.8" cy="263.8" r="4.2" fill="#17becf" fill-opacity="0.75"/>
<circle cx="382.9" cy="224.7" r="4.2" fill="#17becf" fill-opacity="0.75"/>
<circle cx="385.0" cy="213.3" r="4.2" fill="#17becf" fill-opacity="0.75"/>
<circle cx="454.7" cy="216.3" r="4.2" fill="#17becf" fill-opacity="0.75"/>
<circle cx="420.6" cy="264.9" r="4.2" fill="#17becf" fill-opacity="0.75"/>
<circle cx="396.4" cy="213.5" r="4.2" fill="#17becf" fill-opacity="0.75"/>
<circle cx="364.7" cy="224.8" r="4.2" fill="#17becf" fill-opacity="0.75"/>
<circle cx="489.8" cy="304.4" r="4.2" fill="#17becf" fill-opacity="0.75"/>
<circle cx="406.5" cy="201.6" r="4.2" fill="#17becf" fill-opacity="0.75"/>
<circle cx="538.1" cy="275.8" r="4.2" fill="#17becf" fill-opacity="0.75"/>
<circle cx="377.5" cy="204.5" r="4.2" fill="#17becf" fill-opacity="0.75"/>
<circle cx="515.8" cy="281.8" r="4.2" fill="#17becf" fill-opacity="0.75"/>
<circle cx="447.9" cy="154.1" r="4.2" fill="#17becf" fill-opacity="0.75"/>
<circle cx="415.6" cy="216.0" r="4.2" fill="#17becf" fill-opacity="0.75"/>
<circle cx="382.8" cy="134.6" r="4.2" fill="#17becf" fill-opacity="0.75"/>
<circle cx="450.8" cy="225.1" r="4.2" fill="#17becf" fill-opacity="0.75"/>
<circle cx="506.3" cy="256.9" r="4.2" fill="#17becf" fill-opacity="0.75"/>
<circle cx="412.7" cy="213.3" r="4.2" fill="#17becf" fill-opacity="0.75"/>
<circle cx="502.4" cy="169.7" r="4.2" fill="#17becf" fill-opacity="0.75"/>
<circle cx="398.4" cy="173.6" r="4.2" fill="#17becf" fill-opacity="0.75"/>
<circle cx="509.3" cy="253.3" r="4.2" fill="#17becf" fill-opacity="0.75"/>
<circle cx="264.9" cy="180.3" r="4.2" fill="#17becf" fill-opacity="0.75"/>
<circle cx="518.6" cy="183.8" r="4.2" fill="#17becf" fill-opacity="0.75"/>
<circle cx="384.1" cy="190.0" r="4.2" fill="#17becf" fill-opacity="0.75"/>
<circle cx="299.4" cy="136.2" r="4.2" fill="#17becf" fill-opacity="0.75"/>
<circle cx="439.7" cy="179.1" r="4.2" fill="#17becf" fill-opacity="0.75"/>
<circle cx="520.1" cy="208.1" r="4.2" fill="#17becf" fill-opacity="0.75"/>
<circle cx="375.1" cy="204.0" r="4.2" fill="#17becf" fill-opacity="0.75"/>
<circle cx="398.5" cy="188.2" r="4.2" fill="#17becf" fill-opacity="0.75"/>
<circle cx="488.5" cy="225.9" r="4.2" fill="#17becf" fill-opacity="0.75"/>
<circle cx="457.8" cy="144.7" r="4.2" fill="#17becf" fill-opacity="0.75"/>
<circle cx="389.4" cy="180.2" r="4.2" fill="#17becf" fill-opacity="0.75"/>
<circle cx="524.7" cy="170.8" r="4.2" fill="#17becf" fill-opacity="0.75"/>
<circle cx="389.1" cy="183.5" r="4.2" fill="#17becf" fill-opacity="0.75"/>
<circle cx="328.1" cy="173.4" r="4.2" fill="#17becf" fill-opacity="0.75"/>
<circle cx="407.8" cy="225.4" r="4.2" fill="#17becf" fill-opacity="0.75"/>
<circle cx="337.6" cy="109.1" r="4.2" fill="#17becf" fill-opacity="0.75"/>
<circle cx="514.3" cy="184.6" r="4.2" fill="#17becf" fill-opacity="0.75"/>
<circle cx="319.0" cy="142.2" r="4.2" fill="#17becf" fill-opacity="0.75"/>
<circle cx="413.0" cy="151.6" r="4.2" fill="#17becf" fill-opacity="0.75"/>
<circle cx="536.8" cy="249.7" r="4.2" fill="#17becf" fill-opacity="0.75"/>
<circle cx="433.6" cy="186.8" r="4.2" fill="#17becf" fill-opacity="0.75"/>
<circle cx="371.8" cy="203.5" r="4.2" fill="#17becf" fill-opacity="0.75"/>
<circle cx="382.0" cy="50.0" r="4.2" fill="#17becf" fill-opacity="0.75"/>
<circle cx="353.9" cy="203.9" r="4.2" fill="#17becf" fill-opacity="0.75"/>
<circle cx="389.8" cy="234.1" r="4.2" fill="#17becf" fill-opacity="0.75"/>
<circle cx="422.8" cy="210.2" r="4.2" fill="#17becf" fill-opacity="0.75"/>
<circle cx="617.6" cy="205.0" r="4.2" fill="#17becf" fill-opacity="0.75"/>
<circle cx="510.6" cy="209.3" r="4.2" fill="#17becf" fill-opacity="0.75"/>
<circle cx="366.8" cy="163.2" r="4.2" fill="#17becf" fill-opacity="0.75"/>
<circle cx="400.3" cy="150.7" r="4.2" fill="#17becf" fill-opacity="0.75"/>
<circle cx="305.2" cy="176.8" r="4.2" fill="#17becf" fill-opacity="0.75"/>
<circle cx="533.2" cy="194.4" r="4.2" fill="#17becf" fill-opacity="0.75"/>
<circle cx="429.3" cy="179.3" r="4.2" fill="#17becf" fill-opacity="0.75"/>
<circle cx="395.5" cy="126.0" r="4.2" fill="#17becf" fill-opacity="0.75"/>
<circle cx="343.5" cy="364.8" r="4.2" fill="#2ca02c" fill-opacity="0.75"/>
<circle cx="371.5" cy="320.4" r="4.2" fill="#2ca02c" fill-opacity="0.75"/>
<circle cx="361.2" cy="307.7" r="4.2" fill="#2ca02c" fill-opacity="0.75"/>
<circle cx="408.7" cy="273.4" r="4.2" fill="#2ca02c" fill-opacity="0.75"/>
<circle cx="340.4" cy="298.4" r="4.2" fill="#2ca02c" fill-opacity="0.75"/>
<circle cx="366.3" cy="226.1" r="4.2" fill="#2ca02c" fill-opacity="0.75"/>
<circle cx="379.8" cy="286.8" r="4.2" fill="#2ca02c" fill-opacity="0.75"/>
<circle cx="337.2" cy="305.1" r="4.2" fill="#2ca02c" fill-opacity="0.75"/>
<circle cx="367.1" cy="351.0" r="4.2" fill="#2ca02c" fill-opacity="0.75"/>
<circle cx="376.3" cy="249.6" r="4.2" fill="#2ca02c" fill-opacity="0.75"/>
<circle cx="353.3" cy="293.5" r="4.2" fill="#2ca02c" fill-opacity="0.75"/>
<circle cx="363.2" cy="345.9" r="4.2" fill="#2ca02c" fill-opacity="0.75"/>
<circle cx="336.7" cy="366.6" r="4.2" fill="#2ca02c" fill-opacity="0.75"/>
<circle cx="322.6" cy="322.9" r="4.2" fill="#2ca02c" fill-opacity="0.75"/>
<circle cx="311.0" cy="312.2" r="4.2" fill="#2ca02c" fill-opacity="0.75"/>
<circle cx="367.1" cy="283.2" r="4.2" fill="#2ca02c" fill-opacity="0.75"/>
<circle cx="390.2" cy="366.8" r="4.2" fill="#2ca02c" fill-opacity="0.75"/>
<circle cx="382.9" cy="366.3" r="4.2" fill="#2ca02c" fill-opacity="0.75"/>
<circle cx="394.5" cy="309.6" r="4.2" fill="#2ca02c" fill-opacity="0.75"/>
<circle cx="405.0" cy="349.7" r="4.2" fill="#2ca02c" fill-opacity="0.75"/>
<circle cx="422.1" cy="352.2" r="4.2" fill="#2ca02c" fill-opacity="0.75"/>
<circle cx="363.8" cy="423.4" r="4.2" fill="#2ca02c" fill-opacity="0.75"/>
<circle cx="238.2" cy="324.9" r="4.2" fill="#2ca02c" fill-opacity="0.75"/>
<circle cx="353.3" cy="265.7" r="4.2" fill="#2ca02c" fill-opacity="0.75"/>
<circle cx="293.2" cy="286.1" r="4.2" fill="#2ca02c" fill-opacity="0.75"/>
<circle cx="334.5" cy="372.5" r="4.2" fill="#2ca02c" fill-opacity="0.75"/>
<circle cx="346.0" cy="275.1" r="4.2" fill="#2ca02c" fill-opacity="0.75"/>
<circle cx="371.2" cy="361.8" r="4.2" fill="#2ca02c" fill-opacity="0.75"/>
<circle cx="324.4" cy="286.7" r="4.2" fill="#2ca02c" fill-opacity="0.75"/>
<circle cx="341.7" cy="356.7" r="4.2" fill="#2ca02c" fill-opacity="0.75"/>
<circle cx="361.2" cy="305.4" r="4.2" fill="#2ca02c" fill-opacity="0.75"/>
<circle cx="250.9" cy="346.3" r="4.2" fill="#2ca02c" fill-opacity="0.75"/>
<circle cx="307.7" cy="271.7" r="4.2" fill="#2ca02c" fill-opacity="0.75"/>
<circle cx="352.2" cy="307.4" r="4.2" fill="#2ca02c" fill-opacity="0.75"/>
<circle cx="304.5" cy="302.0" r="4.2" fill="#2ca02c" fill-opacity="0.75"/>
<circle cx="304.9" cy="330.4" r="4.2" fill="#2ca02c" fill-opacity="0.75"/>
<circle cx="313.6" cy="277.3" r="4.2" fill="#2ca02c" fill-opacity="0.75"/>
<circle cx="405.6" cy="280.9" r="4.2" fill="#2ca02c" fill-opacity="0.75"/>
<circle cx="367.7" cy="239.6" r="4.2" fill="#2ca02c" fill-opacity="0.75"/>
<circle cx="414.9" cy="354.4" r="4.2" fill="#2ca02c" fill-opacity="0.75"/>
<circle cx="369.2" cy="321.6" r="4.2" fill="#2ca02c" fill-opacity="0.75"/>
<circle cx="389.5" cy="346.5" r="4.2" fill="#2ca02c" fill-opacity="0.75"/>
<circle cx="361.2" cy="340.8" r="4.2" fill="#2ca02c" fill-opacity="0.75"/>
<circle cx="341.6" cy="329.6" r="4.2" fill="#2ca02c" fill-opacity="0.75"/>
<circle cx="320.0" cy="267.3" r="4.2" fill="#2ca02c" fill-opacity="0.75"/>
<circle cx="334.2" cy="361.9" r="4.2" fill="#2ca02c" fill-opacity="0.75"/>
<circle cx="344.1" cy="317.4" r="4.2" fill="#2ca02c" fill-opacity="0.75"/>
<circle cx="345.4" cy="330.3" r="4.2" fill="#2ca02c" fill-opacity="0.75"/>
<circle cx="355.8" cy="323.1" r="4.2" fill="#2ca02c" fill-opacity="0.75"/>
<circle cx="378.0" cy="279.6" r="4.2" fill="#2ca02c" fill-opacity="0.75"/>
<circle cx="384.8" cy="237.2" r="4.2" fill="#2ca02c" fill-opacity="0.75"/>
<circle cx="332.7" cy="263.8" r="4.2" fill="#2ca02c" fill-opacity="0.75"/>
<circle cx="285.0" cy="306.7" r="4.2" fill="#2ca02c" fill-opacity="0.75"/>
<circle cx="386.0" cy="286.0" r="4.2" fill="#2ca02c" fill-opacity="0.75"/>
<circle cx="388.1" cy="337.7" r="4.2" fill="#2ca02c" fill-opacity="0.75"/>
<circle cx="288.6" cy="299.8" r="4.2" fill="#2ca02c" fill-opacity="0.75"/>
<circle cx="315.2" cy="308.8" r="4.2" fill="#2ca02c" fill-opacity="0.75"/>
<circle cx="335.5" cy="339.5" r="4.2" fill="#2ca02c" fill-opacity="0.75"/>
<circle cx="325.2" cy="284.8" r="4.2" fill="#2ca02c" fill-opacity="0.75"/>
<circle cx="320.3" cy="238.8" r="4.2" fill="#2ca02c" fill-opacity="0.75"/>
<circle cx="316.6" cy="361.4" r="4.2" fill="#2ca02c" fill-opacity="0.75"/>
<circle cx="342.3" cy="229.6" r="4.2" fill="#2ca02c" fill-opacity="0.75"/>
<circle cx="367.5" cy="252.8" r="4.2" fill="#2ca02c" fill-opacity="0.75"/>
<circle cx="357.8" cy="391.5" r="4.2" fill="#2ca02c" fill-opacity="0.75"/>
<circle cx="359.9" cy="336.4" r="4.2" fill="#2ca02c" fill-opacity="0.75"/>
<circle cx="355.4" cy="354.8" r="4.2" fill="#2ca02c" fill-opacity="0.75"/>
<circle cx="319.1" cy="253.5" r="4.2" fill="#2ca02c" fill-opacity="0.75"/>
<circle cx="297.3" cy="277.3" r="4.2" fill="#2ca02c" fill-opacity="0.75"/>
<circle cx="299.6" cy="254.3" r="4.2" fill="#2ca02c" fill-opacity="0.75"/>
<circle cx="299.0" cy="272.1" r="4.2" fill="#2ca02c" fill-opacity="0.75"/>
<circle cx="253.2" cy="295.7" r="4.2" fill="#2ca02c" fill-opacity="0.75"/>
<circle cx="358.8" cy="277.4" r="4.2" fill="#2ca02c" fill-opacity="0.75"/>
<circle cx="274.1" cy="239.6" r="4.2" fill="#2ca02c" fill-opacity="0.75"/>
<circle cx="298.3" cy="305.8" r="4.2" fill="#2ca02c" fill-opacity="0.75"/>
<circle cx="319.7" cy="323.3" r="4.2" fill="#2ca02c" fill-opacity="0.75"/>
<circle cx="309.7" cy="268.2" r="4.2" fill="#2ca02c" fill-opacity="0.75"/>
<circle cx="326.9" cy="255.3" r="4.2" fill="#2ca02c" fill-opacity="0.75"/>
<circle cx="414.6" cy="286.9" r="4.2" fill="#2ca02c" fill-opacity="0.75"/>
<circle cx="473.2" cy="297.0" r="4.2" fill="#2ca02c" fill-opacity="0.75"/>
<circle cx="244.0" cy="273.5" r="4.2" fill="#2ca02c" fill-opacity="0.75"/>
<circle cx="387.8" cy="337.5" r="4.2" fill="#2ca02c" fill-opacity="0.75"/>
<circle cx="373.7" cy="314.3" r="4.2" fill="#2ca02c" fill-opacity="0.75"/>
<circle cx="390.0" cy="336.9" r="4.2" fill="#2ca02c" fill-opacity="0.75"/>
<circle cx="346.7" cy="288.4" r="4.2" fill="#2ca02c" fill-opacity="0.75"/>
<circle cx="355.3" cy="320.1" r="4.2" fill="#2ca02c" fill-opacity="0.75"/>
<circle cx="347.9" cy="267.8" r="4.2" fill="#2ca02c" fill-opacity="0.75"/>
<circle cx="326.9" cy="353.9" r="4.2" fill="#2ca02c" fill-opacity="0.75"/>
<circle cx="224.7" cy="271.8" r="4.2" fill="#2ca02c" fill-opacity="0.75"/>
<circle cx="386.0" cy="252.9" r="4.2" fill="#2ca02c" fill-opacity="0.75"/>
<circle cx="413.4" cy="315.0" r="4.2" fill="#2ca02c" fill-opacity="0.75"/>
<circle cx="281.9" cy="355.5" r="4.2" fill="#2ca02c" fill-opacity="0.75"/>
<circle cx="343.0" cy="228.8" r="4.2" fill="#2ca02c" fill-opacity="0.75"/>
<circle cx="277.0" cy="240.1" r="4.2" fill="#2ca02c" fill-opacity="0.75"/>
<circle cx="373.1" cy="233.7" r="4.2" fill="#2ca02c" fill-opacity="0.75"/>
<circle cx="267.4" cy="365.4" r="4.2" fill="#2ca02c" fill-opacity="0.75"/>
<circle cx="341.8" cy="273.3" r="4.2" fill="#2ca02c" fill-opacity="0.75"/>
<circle cx="284.2" cy="342.5" r="4.2" fill="#2ca02c" fill-opacity="0.75"/>
<circle cx="253.7" cy="372.8" r="4.2" fill="#2ca02c" fill-opacity="0.75"/>
<circle cx="411.1" cy="266.7" r="4.2" fill="#2ca02c" fill-opacity="0.75"/>
<circle cx="326.1" cy="282.8" r="4.2" fill="#2ca02c" fill-opacity="0.75"/>
<circle cx="359.6" cy="302.7" r="4.2" fill="#ff7f0e" fill-opacity="0.75"/>
<circle cx="359.1" cy="314.3" r="4.2" fill="#ff7f0e" fill-opacity="0.75"/>
<circle cx="291.2" cy="279.0" r="4.2" fill="#ff7f0e" fill-opacity="0.75"/>
<circle cx="295.3" cy="255.8" r="4.2" fill="#ff7f0e" fill-opacity="0.75"/>
<circle cx="376.3" cy="192.7" r="4.2" fill="#ff7f0e" fill-opacity="0.75"/>
<circle cx="376.3" cy="189.7" r="4.2" fill="#ff7f0e" fill-opacity="0.75"/>
<circle cx="295.1" cy="267.9" r="4.2" fill="#ff7f0e" fill-opacity="0.75"/>
<circle cx="292.7" cy="252.4" r="4.2" fill="#ff7f0e" fill-opacity="0.75"/>
<circle cx="366.2" cy="248.3" r="4.2" fill="#ff7f0e" fill-opacity="0.75"/>
<circle cx="365.9" cy="242.9" r="4.2" fill="#ff7f0e" fill-opacity="0.75"/>
<circle cx="364.6" cy="199.9" r="4.2" fill="#ff7f0e" fill-opacity="0.75"/>
<circle cx="364.2" cy="196.6" r="4.2" fill="#ff7f0e" fill-opacity="0.75"/>
<circle cx="355.9" cy="324.7" r="4.2" fill="#ff7f0e" fill-opacity="0.75"/>
<circle cx="354.7" cy="328.4" r="4.2" fill="#ff7f0e" fill-opacity="0.75"/>
<circle cx="328.6" cy="302.2" r="4.2" fill="#ff7f0e" fill-opacity="0.75"/>
<circle cx="327.3" cy="310.8" r="4.2" fill="#ff7f0e" fill-opacity="0.75"/>
<circle cx="270.1" cy="264.0" r="4.2" fill="#ff7f0e" fill-opacity="0.75"/>
<circle cx="268.5" cy="262.8" r="4.2" fill="#ff7f0e" fill-opacity="0.75"/>
<circle cx="318.6" cy="250.5" r="4.2" fill="#ff7f0e" fill-opacity="0.75"/>
<circle cx="317.8" cy="253.1" r="4.2" fill="#ff7f0e" fill-opacity="0.75"/>
<circle cx="272.6" cy="251.2" r="4.2" fill="#ff7f0e" fill-opacity="0.75"/>
<circle cx="271.6" cy="228.4" r="4.2" fill="#ff7f0e" fill-opacity="0.75"/>
<circle cx="280.9" cy="139.7" r="4.2" fill="#ff7f0e" fill-opacity="0.75"/>
<circle cx="279.7" cy="126.6" r="4.2" fill="#ff7f0e" fill-opacity="0.75"/>
<circle cx="385.3" cy="284.5" r="4.2" fill="#ff7f0e" fill-opacity="0.75"/>
<circle cx="384.2" cy="284.2" r="4.2" fill="#ff7f0e" fill-opacity="0.75"/>
<circle cx="365.4" cy="350.1" r="4.2" fill="#ff7f0e" fill-opacity="0.75"/>
<circle cx="367.6" cy="356.7" r="4.2" fill="#ff7f0e" fill-opacity="0.75"/>
<circle cx="340.9" cy="187.9" r="4.2" fill="#ff7f0e" fill-opacity="0.75"/>
<circle cx="342.5" cy="174.9" r="4.2" fill="#ff7f0e" fill-opacity="0.75"/>
<circle cx="366.7" cy="230.6" r="4.2" fill="#ff7f0e" fill-opacity="0.75"/>
<circle cx="367.4" cy="215.8" r="4.2" fill="#ff7f0e" fill-opacity="0.75"/>
<circle cx="292.1" cy="238.8" r="4.2" fill="#ff7f0e" fill-opacity="0.75"/>
<circle cx="286.6" cy="226.4" r="4.2" fill="#ff7f0e" fill-opacity="0.75"/>
<circle cx="322.3" cy="353.6" r="4.2" fill="#ff7f0e" fill-opacity="0.75"/>
<circle cx="321.7" cy="333.5" r="4.2" fill="#ff7f0e" fill-opacity="0.75"/>
<circle cx="371.0" cy="259.6" r="4.2" fill="#ff7f0e" fill-opacity="0.75"/>
<circle cx="370.8" cy="260.6" r="4.2" fill="#ff7f0e" fill-opacity="0.75"/>
<circle cx="272.6" cy="310.3" r="4.2" fill="#ff7f0e" fill-opacity="0.75"/>
<circle cx="271.8" cy="307.2" r="4.2" fill="#ff7f0e" fill-opacity="0.75"/>
<circle cx="363.5" cy="224.9" r="4.2" fill="#ff7f0e" fill-opacity="0.75"/>
<circle cx="363.6" cy="202.7" r="4.2" fill="#ff7f0e" fill-opacity="0.75"/>
<circle cx="361.1" cy="287.8" r="4.2" fill="#ff7f0e" fill-opacity="0.75"/>
<circle cx="361.4" cy="274.1" r="4.2" fill="#ff7f0e" fill-opacity="0.75"/>
<circle cx="332.1" cy="240.7" r="4.2" fill="#ff7f0e" fill-opacity="0.75"/>
<circle cx="329.5" cy="240.1" r="4.2" fill="#ff7f0e" fill-opacity="0.75"/>
<circle cx="346.9" cy="189.8" r="4.2" fill="#ff7f0e" fill-opacity="0.75"/>
<circle cx="343.3" cy="179.7" r="4.2" fill="#ff7f0e" fill-opacity="0.75"/>
<circle cx="335.6" cy="238.7" r="4.2" fill="#ff7f0e" fill-opacity="0.75"/>
<circle cx="333.3" cy="231.1" r="4.2" fill="#ff7f0e" fill-opacity="0.75"/>
<circle cx="315.6" cy="270.1" r="4.2" fill="#ff7f0e" fill-opacity="0.75"/>
<circle cx="312.9" cy="272.0" r="4.2" fill="#ff7f0e" fill-opacity="0.75"/>
<circle cx="305.8" cy="169.3" r="4.2" fill="#ff7f0e" fill-opacity="0.75"/>
<circle cx="303.4" cy="157.8" r="4.2" fill="#ff7f0e" fill-opacity="0.75"/>
<circle cx="280.0" cy="256.7" r="4.2" fill="#ff7f0e" fill-opacity="0.75"/>
<circle cx="274.4" cy="254.8" r="4.2" fill="#ff7f0e" fill-opacity="0.75"/>
<circle cx="383.1" cy="285.2" r="4.2" fill="#ff7f0e" fill-opacity="0.75"/>
<circle cx="384.2" cy="275.9" r="4.2" fill="#ff7f0e" fill-opacity="0.75"/>
<circle cx="404.9" cy="282.1" r="4.2" fill="#ff7f0e" fill-opacity="0.75"/>
<circle cx="405.2" cy="295.6" r="4.2" fill="#ff7f0e" fill-opacity="0.75"/>
<circle cx="337.8" cy="256.4" r="4.2" fill="#ff7f0e" fill-opacity="0.75"/>
<circle cx="336.4" cy="252.2" r="4.2" fill="#ff7f0e" fill-opacity="0.75"/>
<circle cx="371.3" cy="372.9" r="4.2" fill="#ff7f0e" fill-opacity="0.75"/>
<circle cx="373.9" cy="363.2" r="4.2" fill="#ff7f0e" fill-opacity="0.75"/>
<circle cx="335.1" cy="301.8" r="4.2" fill="#ff7f0e" fill-opacity="0.75"/>
<circle cx="338.2" cy="278.6" r="4.2" fill="#ff7f0e" fill-opacity="0.75"/>
<circle cx="328.5" cy="292.2" r="4.2" fill="#ff7f0e" fill-opacity="0.75"/>
<circle cx="325.4" cy="295.2" r="4.2" fill="#ff7f0e" fill-opacity="0.75"/>
<circle cx="316.0" cy="251.4" r="4.2" fill="#ff7f0e" fill-opacity="0.75"/>
<circle cx="317.9" cy="244.5" r="4.2" fill="#ff7f0e" fill-opacity="0.75"/>
<circle cx="308.5" cy="315.3" r="4.2" fill="#ff7f0e" fill-opacity="0.75"/>
<circle cx="305.5" cy="317.4" r="4.2" fill="#ff7f0e" fill-opacity="0.75"/>
<circle cx="355.3" cy="309.3" r="4.2" fill="#ff7f0e" fill-opacity="0.75"/>
<circle cx="356.2" cy="310.2" r="4.2" fill="#ff7f0e" fill-opacity="0.75"/>
<circle cx="352.3" cy="208.0" r="4.2" fill="#ff7f0e" fill-opacity="0.75"/>
<circle cx="352.9" cy="199.0" r="4.2" fill="#ff7f0e" fill-opacity="0.75"/>
<circle cx="331.9" cy="267.6" r="4.2" fill="#ff7f0e" fill-opacity="0.75"/>
<circle cx="328.7" cy="271.7" r="4.2" fill="#ff7f0e" fill-opacity="0.75"/>
<circle cx="347.9" cy="254.1" r="4.2" fill="#ff7f0e" fill-opacity="0.75"/>
<circle cx="347.3" cy="237.7" r="4.2" fill="#ff7f0e" fill-opacity="0.75"/>
<circle cx="343.0" cy="314.3" r="4.2" fill="#ff7f0e" fill-opacity="0.75"/>
<circle cx="341.3" cy="302.8" r="4.2" fill="#ff7f0e" fill-opacity="0.75"/>
<circle cx="321.2" cy="344.4" r="4.2" fill="#ff7f0e" fill-opacity="0.75"/>
<circle cx="316.4" cy="346.1" r="4.2" fill="#ff7f0e" fill-opacity="0.75"/>
<circle cx="280.1" cy="344.6" r="4.2" fill="#ff7f0e" fill-opacity="0.75"/>
<circle cx="274.1" cy="337.5" r="4.2" fill="#ff7f0e" fill-opacity="0.75"/>
<circle cx="380.1" cy="270.6" r="4.2" fill="#ff7f0e" fill-opacity="0.75"/>
<circle cx="381.1" cy="265.9" r="4.2" fill="#ff7f0e" fill-opacity="0.75"/>
<circle cx="346.0" cy="272.7" r="4.2" fill="#ff7f0e" fill-opacity="0.75"/>
<circle cx="346.8" cy="278.5" r="4.2" fill="#ff7f0e" fill-opacity="0.75"/>
<circle cx="431.3" cy="267.3" r="4.2" fill="#ff7f0e" fill-opacity="0.75"/>
<circle cx="438.9" cy="255.4" r="4.2" fill="#ff7f0e" fill-opacity="0.75"/>
<circle cx="362.8" cy="333.8" r="4.2" fill="#ff7f0e" fill-opacity="0.75"/>
<circle cx="365.3" cy="332.6" r="4.2" fill="#ff7f0e" fill-opacity="0.75"/>
<circle cx="323.3" cy="302.1" r="4.2" fill="#ff7f0e" fill-opacity="0.75"/>
<circle cx="323.7" cy="296.9" r="4.2" fill="#ff7f0e" fill-opacity="0.75"/>
<circle cx="335.9" cy="252.3" r="4.2" fill="#ff7f0e" fill-opacity="0.75"/>
<circle cx="330.8" cy="254.8" r="4.2" fill="#ff7f0e" fill-opacity="0.75"/>
<circle cx="338.3" cy="301.8" r="4.2" fill="#ff7f0e" fill-opacity="0.75"/>
<circle cx="330.5" cy="309.6" r="4.2" fill="#ff7f0e" fill-opacity="0.75"/>
<circle cx="404.6" cy="223.0" r="4.2" fill="#d62728" fill-opacity="0.75"/>
<circle cx="404.3" cy="225.9" r="4.2" fill="#d62728" fill-opacity="0.75"/>
<circle cx="367.7" cy="190.1" r="4.2" fill="#d62728" fill-opacity="0.75"/>
<circle cx="368.9" cy="194.4" r="4.2" fill="#d62728" fill-opacity="0.75"/>
<circle cx="454.0" cy="322.3" r="4.2" fill="#d62728" fill-opacity="0.75"/>
<circle cx="454.2" cy="313.4" r="4.2" fill="#d62728" fill-opacity="0.75"/>
<circle cx="337.4" cy="267.8" r="4.2" fill="#d62728" fill-opacity="0.75"/>
<circle cx="339.9" cy="250.3" r="4.2" fill="#d62728" fill-opacity="0.75"/>
<circle cx="377.3" cy="193.2" r="4.2" fill="#d62728" fill-opacity="0.75"/>
<circle cx="380.6" cy="198.4" r="4.2" fill="#d62728" fill-opacity="0.75"/>
<circle cx="327.9" cy="234.6" r="4.2" fill="#d62728" fill-opacity="0.75"/>
<circle cx="328.9" cy="233.7" r="4.2" fill="#d62728" fill-opacity="0.75"/>
<circle cx="241.2" cy="244.6" r="4.2" fill="#d62728" fill-opacity="0.75"/>
<circle cx="244.4" cy="238.0" r="4.2" fill="#d62728" fill-opacity="0.75"/>
<circle cx="201.6" cy="188.0" r="4.2" fill="#d62728" fill-opacity="0.75"/>
<circle cx="201.2" cy="184.5" r="4.2" fill="#d62728" fill-opacity="0.75"/>
<circle cx="522.7" cy="360.7" r="4.2" fill="#d62728" fill-opacity="0.75"/>
<circle cx="527.3" cy="357.7" r="4.2" fill="#d62728" fill-opacity="0.75"/>
<circle cx="86.9" cy="214.9" r="4.2" fill="#d62728" fill-opacity="0.75"/>
<circle cx="70.0" cy="150.8" r="4.2" fill="#d62728" fill-opacity="0.75"/>
<circle cx="472.4" cy="252.3" r="4.2" fill="#d62728" fill-opacity="0.75"/>
<circle cx="478.9" cy="250.9" r="4.2" fill="#d62728" fill-opacity="0.75"/>
<circle cx="360.9" cy="207.9" r="4.2" fill="#d62728" fill-opacity="0.75"/>
<circle cx="360.9" cy="200.6" r="4.2" fill="#d62728" fill-opacity="0.75"/>
<circle cx="300.7" cy="214.3" r="4.2" fill="#d62728" fill-opacity="0.75"/>
<circle cx="300.3" cy="205.9" r="4.2" fill="#d62728" fill-opacity="0.75"/>
<circle cx="375.6" cy="272.9" r="4.2" fill="#d62728" fill-opacity="0.75"/>
<circle cx="377.6" cy="262.2" r="4.2" fill="#d62728" fill-opacity="0.75"/>
<circle cx="420.9" cy="258.3" r="4.2" fill="#d62728" fill-opacity="0.75"/>
<circle cx="424.5" cy="257.9" r="4.2" fill="#d62728" fill-opacity="0.75"/>
<circle cx="292.2" cy="222.7" r="4.2" fill="#d62728" fill-opacity="0.75"/>
<circle cx="292.2" cy="221.3" r="4.2" fill="#d62728" fill-opacity="0.75"/>
<circle cx="378.2" cy="182.2" r="4.2" fill="#d62728" fill-opacity="0.75"/>
<circle cx="378.8" cy="185.1" r="4.2" fill="#d62728" fill-opacity="0.75"/>
<circle cx="448.3" cy="322.5" r="4.2" fill="#d62728" fill-opacity="0.75"/>
<circle cx="447.9" cy="315.4" r="4.2" fill="#d62728" fill-opacity="0.75"/>
<circle cx="352.4" cy="259.8" r="4.2" fill="#d62728" fill-opacity="0.75"/>
<circle cx="355.4" cy="252.1" r="4.2" fill="#d62728" fill-opacity="0.75"/>
<circle cx="355.0" cy="252.7" r="4.2" fill="#d62728" fill-opacity="0.75"/>
<circle cx="354.4" cy="267.7" r="4.2" fill="#d62728" fill-opacity="0.75"/>
<circle cx="337.7" cy="203.5" r="4.2" fill="#d62728" fill-opacity="0.75"/>
<circle cx="338.3" cy="197.3" r="4.2" fill="#d62728" fill-opacity="0.75"/>
<circle cx="392.0" cy="269.5" r="4.2" fill="#d62728" fill-opacity="0.75"/>
<circle cx="392.3" cy="271.2" r="4.2" fill="#d62728" fill-opacity="0.75"/>
<circle cx="373.3" cy="257.5" r="4.2" fill="#d62728" fill-opacity="0.75"/>
<circle cx="375.7" cy="270.1" r="4.2" fill="#d62728" fill-opacity="0.75"/>
<circle cx="358.3" cy="294.2" r="4.2" fill="#d62728" fill-opacity="0.75"/>
<circle cx="357.8" cy="296.6" r="4.2" fill="#d62728" fill-opacity="0.75"/>
<circle cx="473.9" cy="244.6" r="4.2" fill="#d62728" fill-opacity="0.75"/>
<circle cx="472.7" cy="243.5" r="4.2" fill="#d62728" fill-opacity="0.75"/>
<circle cx="375.5" cy="236.3" r="4.2" fill="#d62728" fill-opacity="0.75"/>
<circle cx="377.5" cy="226.9" r="4.2" fill="#d62728" fill-opacity="0.75"/>
<circle cx="389.4" cy="253.0" r="4.2" fill="#d62728" fill-opacity="0.75"/>
<circle cx="393.7" cy="232.0" r="4.2" fill="#d62728" fill-opacity="0.75"/>
<circle cx="372.6" cy="241.4" r="4.2" fill="#d62728" fill-opacity="0.75"/>
<circle cx="375.4" cy="234.6" r="4.2" fill="#d62728" fill-opacity="0.75"/>
<circle cx="332.4" cy="226.6" r="4.2" fill="#d62728" fill-opacity="0.75"/>
<circle cx="333.5" cy="219.9" r="4.2" fill="#d62728" fill-opacity="0.75"/>
<circle cx="340.1" cy="240.5" r="4.2" fill="#d62728" fill-opacity="0.75"/>
<circle cx="339.9" cy="247.6" r="4.2" fill="#d62728" fill-opacity="0.75"/>
<circle cx="319.9" cy="259.1" r="4.2" fill="#d62728" fill-opacity="0.75"/>
<circle cx="320.4" cy="260.9" r="4.2" fill="#d62728" fill-opacity="0.75"/>
<circle cx="391.0" cy="245.5" r="4.2" fill="#d62728" fill-opacity="0.75"/>
<circle cx="392.2" cy="243.9" r="4.2" fill="#d62728" fill-opacity="0.75"/>
<circle cx="355.1" cy="267.4" r="4.2" fill="#d62728" fill-opacity="0.75"/>
<circle cx="355.7" cy="266.0" r="4.2" fill="#d62728" fill-opacity="0.75"/>
<circle cx="403.4" cy="314.0" r="4.2" fill="#d62728" fill-opacity="0.75"/>
<circle cx="404.3" cy="318.1" r="4.2" fill="#d62728" fill-opacity="0.75"/>
<circle cx="413.8" cy="298.8" r="4.2" fill="#d62728" fill-opacity="0.75"/>
<circle cx="414.1" cy="293.9" r="4.2" fill="#d62728" fill-opacity="0.75"/>
<circle cx="365.6" cy="255.6" r="4.2" fill="#d62728" fill-opacity="0.75"/>
<circle cx="364.5" cy="257.5" r="4.2" fill="#d62728" fill-opacity="0.75"/>
<circle cx="295.6" cy="213.4" r="4.2" fill="#d62728" fill-opacity="0.75"/>
<circle cx="293.5" cy="214.4" r="4.2" fill="#d62728" fill-opacity="0.75"/>
<circle cx="356.7" cy="278.4" r="4.2" fill="#d62728" fill-opacity="0.75"/>
<circle cx="357.1" cy="271.5" r="4.2" fill="#d62728" fill-opacity="0.75"/>
<circle cx="332.5" cy="271.5" r="4.2" fill="#d62728" fill-opacity="0.75"/>
<circle cx="334.6" cy="266.5" r="4.2" fill="#d62728" fill-opacity="0.75"/>
<circle cx="390.8" cy="251.8" r="4.2" fill="#d62728" fill-opacity="0.75"/>
<circle cx="388.1" cy="252.8" r="4.2" fill="#d62728" fill-opacity="0.75"/>
<circle cx="391.3" cy="361.2" r="4.2" fill="#d62728" fill-opacity="0.75"/>
<circle cx="394.6" cy="366.1" r="4.2" fill="#d62728" fill-opacity="0.75"/>
<circle cx="434.9" cy="287.3" r="4.2" fill="#d62728" fill-opacity="0.75"/>
<circle cx="435.8" cy="298.6" r="4.2" fill="#d62728" fill-opacity="0.75"/>
<circle cx="345.8" cy="214.6" r="4.2" fill="#d62728" fill-opacity="0.75"/>
<circle cx="343.5" cy="215.5" r="4.2" fill="#d62728" fill-opacity="0.75"/>
<circle cx="398.1" cy="260.9" r="4.2" fill="#d62728" fill-opacity="0.75"/>
<circle cx="400.3" cy="252.4" r="4.2" fill="#d62728" fill-opacity="0.75"/>
<circle cx="351.2" cy="277.8" r="4.2" fill="#d62728" fill-opacity="0.75"/>
<circle cx="352.7" cy="285.0" r="4.2" fill="#d62728" fill-opacity="0.75"/>
<circle cx="311.9" cy="241.9" r="4.2" fill="#d62728" fill-opacity="0.75"/>
<circle cx="307.1" cy="242.4" r="4.2" fill="#d62728" fill-opacity="0.75"/>
<circle cx="387.6" cy="178.2" r="4.2" fill="#d62728" fill-opacity="0.75"/>
<circle cx="387.4" cy="180.9" r="4.2" fill="#d62728" fill-opacity="0.75"/>
<circle cx="378.0" cy="223.7" r="4.2" fill="#d62728" fill-opacity="0.75"/>
<circle cx="378.9" cy="223.4" r="4.2" fill="#d62728" fill-opacity="0.75"/>
<circle cx="411.6" cy="321.1" r="4.2" fill="#d62728" fill-opacity="0.75"/>
<circle cx="411.4" cy="319.4" r="4.2" fill="#d62728" fill-opacity="0.75"/>
<circle cx="404.8" cy="248.9" r="4.2" fill="#d62728" fill-opacity="0.75"/>
<circle cx="405.9" cy="253.5" r="4.2" fill="#d62728" fill-opacity="0.75"/>
<rect x="750" y="60" width="14" height="14" fill="#7f7f7f"/>
<text x="770" y="72" font-size="14" font-family="Arial">photo</text>
<rect x="750" y="84" width="14" height="14" fill="#17becf"/>
<text x="770" y="96" font-size="14" font-family="Arial">Hayao</text>
<rect x="750" y="108" width="14" height="14" fill="#2ca02c"/>
<text x="770" y="120" font-size="14" font-family="Arial">monet</text>
<rect x="750" y="132" width="14" height="14" fill="#ff7f0e"/>
<text x="770" y="144" font-size="14" font-family="Arial">vangogh</text>
<rect x="750" y="156" width="14" height="14" fill="#d62728"/>
<text x="770" y="168" font-size="14" font-family="Arial">cezanne</text>
</svg>