<svg xmlns="http://www.w3.org/2000/svg" width="900" height="520" viewBox="0 0 900 520">
<rect width="100%" height="100%" fill="white"/>
<text x="450.0" y="28" text-anchor="middle" font-size="22" font-family="Arial">MDS Scatter: latent_swd</text>
<rect x="70" y="50" width="650" height="420" fill="none" stroke="black"/>
<circle cx="207.4" cy="339.0" r="4.2" fill="#7f7f7f" fill-opacity="0.75"/>
<circle cx="309.4" cy="321.4" r="4.2" fill="#7f7f7f" fill-opacity="0.75"/>
<circle cx="393.7" cy="327.8" r="4.2" fill="#7f7f7f" fill-opacity="0.75"/>
<circle cx="426.4" cy="227.7" r="4.2" fill="#7f7f7f" fill-opacity="0.75"/>
<circle cx="341.5" cy="390.7" r="4.2" fill="#7f7f7f" fill-opacity="0.75"/>
<circle cx="379.3" cy="397.5" r="4.2" fill="#7f7f7f" fill-opacity="0.75"/>
<circle cx="407.3" cy="178.6" r="4.2" fill="#7f7f7f" fill-opacity="0.75"/>
<circle cx="239.6" cy="373.7" r="4.2" fill="#7f7f7f" fill-opacity="0.75"/>
<circle cx="325.4" cy="308.0" r="4.2" fill="#7f7f7f" fill-opacity="0.75"/>
<circle cx="381.5" cy="294.1" r="4.2" fill="#7f7f7f" fill-opacity="0.75"/>
<circle cx="411.2" cy="295.0" r="4.2" fill="#7f7f7f" fill-opacity="0.75"/>
<circle cx="346.2" cy="333.2" r="4.2" fill="#7f7f7f" fill-opacity="0.75"/>
<circle cx="437.9" cy="313.9" r="4.2" fill="#7f7f7f" fill-opacity="0.75"/>
<circle cx="284.6" cy="322.3" r="4.2" fill="#7f7f7f" fill-opacity="0.75"/>
<circle cx="314.9" cy="312.6" r="4.2" fill="#7f7f7f" fill-opacity="0.75"/>
<circle cx="545.2" cy="149.2" r="4.2" fill="#7f7f7f" fill-opacity="0.75"/>
<circle cx="183.6" cy="405.2" r="4.2" fill="#7f7f7f" fill-opacity="0.75"/>
<circle cx="268.3" cy="390.0" r="4.2" fill="#7f7f7f" fill-opacity="0.75"/>
<circle cx="417.9" cy="252.4" r="4.2" fill="#7f7f7f" fill-opacity="0.75"/>
<circle cx="70.0" cy="258.1" r="4.2" fill="#7f7f7f" fill-opacity="0.75"/>
<circle cx="431.8" cy="321.3" r="4.2" fill="#7f7f7f" fill-opacity="0.75"/>
<circle cx="445.1" cy="203.9" r="4.2" fill="#7f7f7f" fill-opacity="0.75"/>
<circle cx="441.1" cy="470.0" r="4.2" fill="#7f7f7f" fill-opacity="0.75"/>
<circle cx="305.1" cy="363.8" r="4.2" fill="#7f7f7f" fill-opacity="0.75"/>
<circle cx="466.8" cy="320.4" r="4.2" fill="#7f7f7f" fill-opacity="0.75"/>
<circle cx="446.1" cy="414.2" r="4.2" fill="#7f7f7f" fill-opacity="0.75"/>
<circle cx="343.3" cy="348.7" r="4.2" fill="#7f7f7f" fill-opacity="0.75"/>
<circle cx="327.2" cy="245.5" r="4.2" fill="#7f7f7f" fill-opacity="0.75"/>
<circle cx="434.7" cy="201.8" r="4.2" fill="#7f7f7f" fill-opacity="0.75"/>
<circle cx="388.0" cy="345.2" r="4.2" fill="#7f7f7f" fill-opacity="0.75"/>
<circle cx="362.9" cy="259.4" r="4.2" fill="#7f7f7f" fill-opacity="0.75"/>
<circle cx="281.4" cy="313.1" r="4.2" fill="#7f7f7f" fill-opacity="0.75"/>
<circle cx="440.3" cy="304.2" r="4.2" fill="#7f7f7f" fill-opacity="0.75"/>
<circle cx="347.9" cy="331.5" r="4.2" fill="#7f7f7f" fill-opacity="0.75"/>
<circle cx="235.1" cy="218.0" r="4.2" fill="#7f7f7f" fill-opacity="0.75"/>
<circle cx="461.1" cy="289.3" r="4.2" fill="#7f7f7f" fill-opacity="0.75"/>
<circle cx="346.3" cy="297.1" r="4.2" fill="#7f7f7f" fill-opacity="0.75"/>
<circle cx="315.6" cy="275.0" r="4.2" fill="#7f7f7f" fill-opacity="0.75"/>
<circle cx="347.4" cy="345.1" r="4.2" fill="#7f7f7f" fill-opacity="0.75"/>
<circle cx="312.7" cy="295.2" r="4.2" fill="#7f7f7f" fill-opacity="0.75"/>
<circle cx="394.1" cy="372.5" r="4.2" fill="#7f7f7f" fill-opacity="0.75"/>
<circle cx="352.8" cy="353.8" r="4.2" fill="#7f7f7f" fill-opacity="0.75"/>
<circle cx="345.0" cy="330.0" r="4.2" fill="#7f7f7f" fill-opacity="0.75"/>
<circle cx="329.0" cy="324.2" r="4.2" fill="#7f7f7f" fill-opacity="0.75"/>
<circle cx="430.0" cy="310.6" r="4.2" fill="#7f7f7f" fill-opacity="0.75"/>
<circle cx="409.7" cy="319.6" r="4.2" fill="#7f7f7f" fill-opacity="0.75"/>
<circle cx="453.9" cy="312.8" r="4.2" fill="#7f7f7f" fill-opacity="0.75"/>
<circle cx="392.8" cy="397.6" r="4.2" fill="#7f7f7f" fill-opacity="0.75"/>
<circle cx="338.8" cy="310.4" r="4.2" fill="#7f7f7f" fill-opacity="0.75"/>
<circle cx="210.4" cy="285.8" r="4.2" fill="#7f7f7f" fill-opacity="0.75"/>
<circle cx="413.1" cy="323.6" r="4.2" fill="#7f7f7f" fill-opacity="0.75"/>
<circle cx="317.7" cy="292.2" r="4.2" fill="#7f7f7f" fill-opacity="0.75"/>
<circle cx="332.1" cy="365.4" r="4.2" fill="#7f7f7f" fill-opacity="0.75"/>
<circle cx="453.2" cy="312.6" r="4.2" fill="#7f7f7f" fill-opacity="0.75"/>
<circle cx="413.8" cy="241.7" r="4.2" fill="#7f7f7f" fill-opacity="0.75"/>
<circle cx="385.7" cy="272.1" r="4.2" fill="#7f7f7f" fill-opacity="0.75"/>
<circle cx="498.3" cy="264.9" r="4.2" fill="#7f7f7f" fill-opacity="0.75"/>
<circle cx="359.5" cy="314.4" r="4.2" fill="#7f7f7f" fill-opacity="0.75"/>
<circle cx="487.0" cy="251.2" r="4.2" fill="#7f7f7f" fill-opacity="0.75"/>
<circle cx="229.0" cy="224.5" r="4.2" fill="#7f7f7f" fill-opacity="0.75"/>
<circle cx="416.1" cy="215.5" r="4.2" fill="#7f7f7f" fill-opacity="0.75"/>
<circle cx="450.4" cy="344.8" r="4.2" fill="#7f7f7f" fill-opacity="0.75"/>
<circle cx="372.9" cy="319.7" r="4.2" fill="#7f7f7f" fill-opacity="0.75"/>
<circle cx="402.0" cy="353.7" r="4.2" fill="#7f7f7f" fill-opacity="0.75"/>
<circle cx="374.3" cy="274.8" r="4.2" fill="#7f7f7f" fill-opacity="0.75"/>
<circle cx="423.0" cy="312.2" r="4.2" fill="#7f7f7f" fill-opacity="0.75"/>
<circle cx="609.7" cy="309.3" r="4.2" fill="#7f7f7f" fill-opacity="0.75"/>
<circle cx="204.1" cy="309.2" r="4.2" fill="#7f7f7f" fill-opacity="0.75"/>
<circle cx="520.3" cy="297.7" r="4.2" fill="#7f7f7f" fill-opacity="0.75"/>
<circle cx="300.5" cy="315.2" r="4.2" fill="#7f7f7f" fill-opacity="0.75"/>
<circle cx="477.1" cy="310.3" r="4.2" fill="#7f7f7f" fill-opacity="0.75"/>
<circle cx="372.1" cy="319.9" r="4.2" fill="#7f7f7f" fill-opacity="0.75"/>
<circle cx="454.8" cy="250.5" r="4.2" fill="#7f7f7f" fill-opacity="0.75"/>
<circle cx="508.5" cy="307.0" r="4.2" fill="#7f7f7f" fill-opacity="0.75"/>
<circle cx="400.0" cy="271.5" r="4.2" fill="#7f7f7f" fill-opacity="0.75"/>
<circle cx="574.9" cy="265.0" r="4.2" fill="#7f7f7f" fill-opacity="0.75"/>
<circle cx="391.4" cy="284.0" r="4.2" fill="#7f7f7f" fill-opacity="0.75"/>
<circle cx="378.7" cy="334.6" r="4.2" fill="#7f7f7f" fill-opacity="0.75"/>
<circle cx="380.2" cy="264.1" r="4.2" fill="#7f7f7f" fill-opacity="0.75"/>
<circle cx="471.1" cy="355.8" r="4.2" fill="#7f7f7f" fill-opacity="0.75"/>
<circle cx="352.9" cy="180.6" r="4.2" fill="#7f7f7f" fill-opacity="0.75"/>
<circle cx="439.6" cy="304.9" r="4.2" fill="#7f7f7f" fill-opacity="0.75"/>
<circle cx="262.6" cy="262.9" r="4.2" fill="#7f7f7f" fill-opacity="0.75"/>
<circle cx="302.1" cy="332.7" r="4.2" fill="#7f7f7f" fill-opacity="0.75"/>
<circle cx="512.2" cy="250.4" r="4.2" fill="#7f7f7f" fill-opacity="0.75"/>
<circle cx="332.8" cy="250.0" r="4.2" fill="#7f7f7f" fill-opacity="0.75"/>
<circle cx="414.8" cy="316.3" r="4.2" fill="#7f7f7f" fill-opacity="0.75"/>
<circle cx="466.6" cy="305.0" r="4.2" fill="#7f7f7f" fill-opacity="0.75"/>
<circle cx="516.5" cy="325.7" r="4.2" fill="#7f7f7f" fill-opacity="0.75"/>
<circle cx="437.5" cy="295.3" r="4.2" fill="#7f7f7f" fill-opacity="0.75"/>
<circle cx="449.5" cy="298.6" r="4.2" fill="#7f7f7f" fill-opacity="0.75"/>
<circle cx="422.0" cy="306.2" r="4.2" fill="#7f7f7f" fill-opacity="0.75"/>
<circle cx="415.9" cy="332.4" r="4.2" fill="#7f7f7f" fill-opacity="0.75"/>
<circle cx="261.5" cy="312.4" r="4.2" fill="#7f7f7f" fill-opacity="0.75"/>
<circle cx="391.7" cy="316.0" r="4.2" fill="#7f7f7f" fill-opacity="0.75"/>
<circle cx="257.3" cy="289.6" r="4.2" fill="#7f7f7f" fill-opacity="0.75"/>
<circle cx="404.2" cy="291.4" r="4.2" fill="#7f7f7f" fill-opacity="0.75"/>
<circle cx="300.1" cy="248.5" r="4.2" fill="#7f7f7f" fill-opacity="0.75"/>
<circle cx="450.8" cy="285.1" r="4.2" fill="#7f7f7f" fill-opacity="0.75"/>
<circle cx="396.5" cy="337.6" r="4.2" fill="#7f7f7f" fill-opacity="0.75"/>
<circle cx="418.0" cy="135.2" r="4.2" fill="#17becf" fill-opacity="0.75"/>
<circle cx="372.9" cy="150.0" r="4.2" fill="#17becf" fill-opacity="0.75"/>
<circle cx="324.0" cy="184.4" r="4.2" fill="#17becf" fill-opacity="0.75"/>
<circle cx="416.4" cy="154.5" r="4.2" fill="#17becf" fill-opacity="0.75"/>
<circle cx="200.4" cy="201.9" r="4.2" fill="#17becf" fill-opacity="0.75"/>
<circle cx="411.5" cy="137.3" r="4.2" fill="#17becf" fill-opacity="0.75"/>
<circle cx="365.8" cy="169.2" r="4.2" fill="#17becf" fill-opacity="0.75"/>
<circle cx="338.3" cy="219.1" r="4.2" fill="#17becf" fill-opacity="0.75"/>
<circle cx="372.5" cy="151.7" r="4.2" fill="#17becf" fill-opacity="0.75"/>
<circle cx="354.3" cy="183.7" r="4.2" fill="#17becf" fill-opacity="0.75"/>
<circle cx="427.7" cy="133.0" r="4.2" fill="#17becf" fill-opacity="0.75"/>
<circle cx="410.3" cy="190.5" r="4.2" fill="#17becf" fill-opacity="0.75"/>
<circle cx="403.3" cy="183.5" r="4.2" fill="#17becf" fill-opacity="0.75"/>
<circle cx="401.9" cy="183.4" r="4.2" fill="#17becf" fill-opacity="0.75"/>
<circle cx="400.3" cy="190.2" r="4.2" fill="#17becf" fill-opacity="0.75"/>
<circle cx="362.2" cy="162.5" r="4.2" fill="#17becf" fill-opacity="0.75"/>
<circle cx="396.1" cy="175.0" r="4.2" fill="#17becf" fill-opacity="0.75"/>
<circle cx="456.7" cy="84.3" r="4.2" fill="#17becf" fill-opacity="0.75"/>
<circle cx="225.0" cy="150.5" r="4.2" fill="#17becf" fill-opacity="0.75"/>
<circle cx="368.3" cy="215.8" r="4.2" fill="#17becf" fill-opacity="0.75"/>
<circle cx="307.4" cy="179.7" r="4.2" fill="#17becf" fill-opacity="0.75"/>
<circle cx="232.8" cy="179.9" r="4.2" fill="#17becf" fill-opacity="0.75"/>
<circle cx="559.6" cy="105.7" r="4.2" fill="#17becf" fill-opacity="0.75"/>
<circle cx="431.7" cy="212.2" r="4.2" fill="#17becf" fill-opacity="0.75"/>
<circle cx="429.1" cy="50.0" r="4.2" fill="#17becf" fill-opacity="0.75"/>
<circle cx="400.7" cy="195.8" r="4.2" fill="#17becf" fill-opacity="0.75"/>
<circle cx="324.8" cy="231.4" r="4.2" fill="#17becf" fill-opacity="0.75"/>
<circle cx="390.3" cy="229.9" r="4.2" fill="#17becf" fill-opacity="0.75"/>
<circle cx="452.8" cy="166.8" r="4.2" fill="#17becf" fill-opacity="0.75"/>
<circle cx="461.5" cy="71.0" r="4.2" fill="#17becf" fill-opacity="0.75"/>
<circle cx="326.6" cy="163.7" r="4.2" fill="#17becf" fill-opacity="0.75"/>
<circle cx="318.7" cy="203.5" r="4.2" fill="#17becf" fill-opacity="0.75"/>
<circle cx="275.9" cy="181.6" r="4.2" fill="#17becf" fill-opacity="0.75"/>
<circle cx="280.8" cy="203.6" r="4.2" fill="#17becf" fill-opacity="0.75"/>
<circle cx="236.7" cy="236.5" r="4.2" fill="#17becf" fill-opacity="0.75"/>
<circle cx="438.8" cy="146.9" r="4.2" fill="#17becf" fill-opacity="0.75"/>
<circle cx="419.9" cy="260.8" r="4.2" fill="#17becf" fill-opacity="0.75"/>
<circle cx="411.8" cy="149.3" r="4.2" fill="#17becf" fill-opacity="0.75"/>
<circle cx="403.6" cy="190.4" r="4.2" fill="#17becf" fill-opacity="0.75"/>
<circle cx="268.5" cy="215.3" r="4.2" fill="#17becf" fill-opacity="0.75"/>
<circle cx="448.2" cy="165.9" r="4.2" fill="#17becf" fill-opacity="0.75"/>
<circle cx="384.4" cy="124.0" r="4.2" fill="#17becf" fill-opacity="0.75"/>
<circle cx="358.4" cy="149.3" r="4.2" fill="#17becf" fill-opacity="0.75"/>
<circle cx="441.4" cy="181.4" r="4.2" fill="#17becf" fill-opacity="0.75"/>
<circle cx="217.2" cy="142.9" r="4.2" fill="#17becf" fill-opacity="0.75"/>
<circle cx="472.3" cy="282.8" r="4.2" fill="#17becf" fill-opacity="0.75"/>
<circle cx="403.7" cy="210.6" r="4.2" fill="#17becf" fill-opacity="0.75"/>
<circle cx="394.3" cy="202.0" r="4.2" fill="#17becf" fill-opacity="0.75"/>
<circle cx="280.8" cy="214.9" r="4.2" fill="#17becf" fill-opacity="0.75"/>
<circle cx="341.2" cy="169.4" r="4.2" fill="#17becf" fill-opacity="0.75"/>
<circle cx="372.7" cy="166.0" r="4.2" fill="#17becf" fill-opacity="0.75"/>
<circle cx="441.5" cy="221.0" r="4.2" fill="#17becf" fill-opacity="0.75"/>
<circle cx="232.8" cy="265.1" r="4.2" fill="#17becf" fill-opacity="0.75"/>
<circle cx="364.0" cy="144.7" r="4.2" fill="#17becf" fill-opacity="0.75"/>
<circle cx="192.0" cy="285.3" r="4.2" fill="#17becf" fill-opacity="0.75"/>
<circle cx="418.2" cy="176.1" r="4.2" fill="#17becf" fill-opacity="0.75"/>
<circle cx="204.9" cy="282.8" r="4.2" fill="#17becf" fill-opacity="0.75"/>
<circle cx="298.9" cy="207.9" r="4.2" fill="#17becf" fill-opacity="0.75"/>
<circle cx="340.3" cy="173.7" r="4.2" fill="#17becf" fill-opacity="0.75"/>
<circle cx="405.6" cy="131.7" r="4.2" fill="#17becf" fill-opacity="0.75"/>
<circle cx="290.7" cy="183.1" r="4.2" fill="#17becf" fill-opacity="0.75"/>
<circle cx="230.9" cy="236.4" r="4.2" fill="#17becf" fill-opacity="0.75"/>
<circle cx="341.8" cy="224.6" r="4.2" fill="#17becf" fill-opacity="0.75"/>
<circle cx="255.8" cy="191.9" r="4.2" fill="#17becf" fill-opacity="0.75"/>
<circle cx="375.7" cy="217.5" r="4.2" fill="#17becf" fill-opacity="0.75"/>
<circle cx="223.4" cy="246.0" r="4.2" fill="#17becf" fill-opacity="0.75"/>
<circle cx="577.0" cy="145.4" r="4.2" fill="#17becf" fill-opacity="0.75"/>
<circle cx="221.8" cy="167.5" r="4.2" fill="#17becf" fill-opacity="0.75"/>
<circle cx="406.5" cy="214.5" r="4.2" fill="#17becf" fill-opacity="0.75"/>
<circle cx="536.0" cy="133.0" r="4.2" fill="#17becf" fill-opacity="0.75"/>
<circle cx="335.1" cy="178.5" r="4.2" fill="#17becf" fill-opacity="0.75"/>
<circle cx="216.3" cy="164.9" r="4.2" fill="#17becf" fill-opacity="0.75"/>
<circle cx="417.0" cy="181.6" r="4.2" fill="#17becf" fill-opacity="0.75"/>
<circle cx="376.5" cy="131.4" r="4.2" fill="#17becf" fill-opacity="0.75"/>
<circle cx="242.9" cy="200.9" r="4.2" fill="#17becf" fill-opacity="0.75"/>
<circle cx="283.8" cy="135.3" r="4.2" fill="#17becf" fill-opacity="0.75"/>
<circle cx="386.7" cy="190.4" r="4.2" fill="#17becf" fill-opacity="0.75"/>
<circle cx="201.2" cy="195.5" r="4.2" fill="#17becf" fill-opacity="0.75"/>
<circle cx="388.4" cy="185.4" r="4.2" fill="#17becf" fill-opacity="0.75"/>
<circle cx="487.6" cy="116.7" r="4.2" fill="#17becf" fill-opacity="0.75"/>
<circle cx="351.9" cy="180.1" r="4.2" fill="#17becf" fill-opacity="0.75"/>
<circle cx="441.5" cy="128.9" r="4.2" fill="#17becf" fill-opacity="0.75"/>
<circle cx="244.6" cy="173.0" r="4.2" fill="#17becf" fill-opacity="0.75"/>
<circle cx="498.5" cy="115.6" r="4.2" fill="#17becf" fill-opacity="0.75"/>
<circle cx="370.6" cy="179.0" r="4.2" fill="#17becf" fill-opacity="0.75"/>
<circle cx="191.8" cy="209.5" r="4.2" fill="#17becf" fill-opacity="0.75"/>
<circle cx="329.4" cy="162.1" r="4.2" fill="#17becf" fill-opacity="0.75"/>
<circle cx="406.4" cy="130.0" r="4.2" fill="#17becf" fill-opacity="0.75"/>
<circle cx="416.4" cy="167.4" r="4.2" fill="#17becf" fill-opacity="0.75"/>
<circle cx="449.5" cy="161.3" r="4.2" fill="#17becf" fill-opacity="0.75"/>
<circle cx="388.9" cy="241.3" r="4.2" fill="#17becf" fill-opacity="0.75"/>
<circle cx="334.2" cy="210.7" r="4.2" fill="#17becf" fill-opacity="0.75"/>
<circle cx="160.0" cy="229.6" r="4.2" fill="#17becf" fill-opacity="0.75"/>
<circle cx="209.4" cy="201.6" r="4.2" fill="#17becf" fill-opacity="0.75"/>
<circle cx="423.3" cy="172.7" r="4.2" fill="#17becf" fill-opacity="0.75"/>
<circle cx="375.8" cy="155.3" r="4.2" fill="#17becf" fill-opacity="0.75"/>
<circle cx="525.1" cy="176.4" r="4.2" fill="#17becf" fill-opacity="0.75"/>
<circle cx="186.0" cy="195.9" r="4.2" fill="#17becf" fill-opacity="0.75"/>
<circle cx="334.0" cy="140.4" r="4.2" fill="#17becf" fill-opacity="0.75"/>
<circle cx="396.8" cy="115.2" r="4.2" fill="#17becf" fill-opacity="0.75"/>
<circle cx="462.5" cy="339.2" r="4.2" fill="#2ca02c" fill-opacity="0.75"/>
<circle cx="415.1" cy="239.8" r="4.2" fill="#2ca02c" fill-opacity="0.75"/>
<circle cx="434.5" cy="235.1" r="4.2" fill="#2ca02c" fill-opacity="0.75"/>
<circle cx="380.2" cy="281.4" r="4.2" fill="#2ca02c" fill-opacity="0.75"/>
<circle cx="462.0" cy="264.6" r="4.2" fill="#2ca02c" fill-opacity="0.75"/>
<circle cx="421.4" cy="236.1" r="4.2" fill="#2ca02c" fill-opacity="0.75"/>
<circle cx="415.3" cy="356.9" r="4.2" fill="#2ca02c" fill-opacity="0.75"/>
<circle cx="476.5" cy="316.8" r="4.2" fill="#2ca02c" fill-opacity="0.75"/>
<circle cx="432.1" cy="333.6" r="4.2" fill="#2ca02c" fill-opacity="0.75"/>
<circle cx="417.5" cy="208.1" r="4.2" fill="#2ca02c" fill-opacity="0.75"/>
<circle cx="466.4" cy="310.0" r="4.2" fill="#2ca02c" fill-opacity="0.75"/>
<circle cx="441.9" cy="359.3" r="4.2" fill="#2ca02c" fill-opacity="0.75"/>
<circle cx="484.8" cy="385.6" r="4.2" fill="#2ca02c" fill-opacity="0.75"/>
<circle cx="508.7" cy="338.1" r="4.2" fill="#2ca02c" fill-opacity="0.75"/>
<circle cx="522.8" cy="302.3" r="4.2" fill="#2ca02c" fill-opacity="0.75"/>
<circle cx="428.0" cy="302.6" r="4.2" fill="#2ca02c" fill-opacity="0.75"/>
<circle cx="395.4" cy="378.0" r="4.2" fill="#2ca02c" fill-opacity="0.75"/>
<circle cx="391.2" cy="350.8" r="4.2" fill="#2ca02c" fill-opacity="0.75"/>
<circle cx="392.1" cy="371.4" r="4.2" fill="#2ca02c" fill-opacity="0.75"/>
<circle cx="395.6" cy="367.2" r="4.2" fill="#2ca02c" fill-opacity="0.75"/>
<circle cx="354.7" cy="351.3" r="4.2" fill="#2ca02c" fill-opacity="0.75"/>
<circle cx="421.2" cy="268.0" r="4.2" fill="#2ca02c" fill-opacity="0.75"/>
<circle cx="598.5" cy="248.0" r="4.2" fill="#2ca02c" fill-opacity="0.75"/>
<circle cx="462.5" cy="237.1" r="4.2" fill="#2ca02c" fill-opacity="0.75"/>
<circle cx="543.8" cy="247.6" r="4.2" fill="#2ca02c" fill-opacity="0.75"/>
<circle cx="450.5" cy="313.3" r="4.2" fill="#2ca02c" fill-opacity="0.75"/>
<circle cx="475.1" cy="294.0" r="4.2" fill="#2ca02c" fill-opacity="0.75"/>
<circle cx="410.2" cy="341.2" r="4.2" fill="#2ca02c" fill-opacity="0.75"/>
<circle cx="492.4" cy="279.3" r="4.2" fill="#2ca02c" fill-opacity="0.75"/>
<circle cx="474.6" cy="294.4" r="4.2" fill="#2ca02c" fill-opacity="0.75"/>
<circle cx="449.6" cy="303.2" r="4.2" fill="#2ca02c" fill-opacity="0.75"/>
<circle cx="581.1" cy="263.8" r="4.2" fill="#2ca02c" fill-opacity="0.75"/>
<circle cx="523.0" cy="226.8" r="4.2" fill="#2ca02c" fill-opacity="0.75"/>
<circle cx="471.4" cy="300.8" r="4.2" fill="#2ca02c" fill-opacity="0.75"/>
<circle cx="527.3" cy="256.7" r="4.2" fill="#2ca02c" fill-opacity="0.75"/>
<circle cx="510.3" cy="362.5" r="4.2" fill="#2ca02c" fill-opacity="0.75"/>
<circle cx="516.1" cy="251.3" r="4.2" fill="#2ca02c" fill-opacity="0.75"/>
<circle cx="365.5" cy="280.4" r="4.2" fill="#2ca02c" fill-opacity="0.75"/>
<circle cx="425.7" cy="361.5" r="4.2" fill="#2ca02c" fill-opacity="0.75"/>
<circle cx="349.3" cy="396.4" r="4.2" fill="#2ca02c" fill-opacity="0.75"/>
<circle cx="441.0" cy="329.8" r="4.2" fill="#2ca02c" fill-opacity="0.75"/>
<circle cx="391.4" cy="320.0" r="4.2" fill="#2ca02c" fill-opacity="0.75"/>
<circle cx="435.2" cy="315.8" r="4.2" fill="#2ca02c" fill-opacity="0.75"/>
<circle cx="460.8" cy="334.3" r="4.2" fill="#2ca02c" fill-opacity="0.75"/>
<circle cx="479.5" cy="203.8" r="4.2" fill="#2ca02c" fill-opacity="0.75"/>
<circle cx="475.8" cy="303.2" r="4.2" fill="#2ca02c" fill-opacity="0.75"/>
<circle cx="463.9" cy="319.6" r="4.2" fill="#2ca02c" fill-opacity="0.75"/>
<circle cx="466.7" cy="306.2" r="4.2" fill="#2ca02c" fill-opacity="0.75"/>
<circle cx="440.9" cy="296.3" r="4.2" fill="#2ca02c" fill-opacity="0.75"/>
<circle cx="420.2" cy="280.7" r="4.2" fill="#2ca02c" fill-opacity="0.75"/>
<circle cx="401.1" cy="259.3" r="4.2" fill="#2ca02c" fill-opacity="0.75"/>
<circle cx="478.5" cy="242.3" r="4.2" fill="#2ca02c" fill-opacity="0.75"/>
<circle cx="546.3" cy="253.1" r="4.2" fill="#2ca02c" fill-opacity="0.75"/>
<circle cx="400.5" cy="297.4" r="4.2" fill="#2ca02c" fill-opacity="0.75"/>
<circle cx="397.2" cy="344.9" r="4.2" fill="#2ca02c" fill-opacity="0.75"/>
<circle cx="546.0" cy="282.8" r="4.2" fill="#2ca02c" fill-opacity="0.75"/>
<circle cx="495.2" cy="311.7" r="4.2" fill="#2ca02c" fill-opacity="0.75"/>
<circle cx="481.6" cy="288.0" r="4.2" fill="#2ca02c" fill-opacity="0.75"/>
<circle cx="499.9" cy="289.8" r="4.2" fill="#2ca02c" fill-opacity="0.75"/>
<circle cx="500.9" cy="288.4" r="4.2" fill="#2ca02c" fill-opacity="0.75"/>
<circle cx="505.7" cy="320.3" r="4.2" fill="#2ca02c" fill-opacity="0.75"/>
<circle cx="479.9" cy="218.5" r="4.2" fill="#2ca02c" fill-opacity="0.75"/>
<circle cx="441.6" cy="319.0" r="4.2" fill="#2ca02c" fill-opacity="0.75"/>
<circle cx="431.2" cy="357.1" r="4.2" fill="#2ca02c" fill-opacity="0.75"/>
<circle cx="443.9" cy="310.8" r="4.2" fill="#2ca02c" fill-opacity="0.75"/>
<circle cx="448.7" cy="335.7" r="4.2" fill="#2ca02c" fill-opacity="0.75"/>
<circle cx="516.0" cy="212.8" r="4.2" fill="#2ca02c" fill-opacity="0.75"/>
<circle cx="529.8" cy="272.8" r="4.2" fill="#2ca02c" fill-opacity="0.75"/>
<circle cx="535.3" cy="243.9" r="4.2" fill="#2ca02c" fill-opacity="0.75"/>
<circle cx="534.6" cy="266.3" r="4.2" fill="#2ca02c" fill-opacity="0.75"/>
<circle cx="574.9" cy="264.9" r="4.2" fill="#2ca02c" fill-opacity="0.75"/>
<circle cx="447.4" cy="306.1" r="4.2" fill="#2ca02c" fill-opacity="0.75"/>
<circle cx="536.8" cy="223.9" r="4.2" fill="#2ca02c" fill-opacity="0.75"/>
<circle cx="539.0" cy="255.1" r="4.2" fill="#2ca02c" fill-opacity="0.75"/>
<circle cx="482.5" cy="342.7" r="4.2" fill="#2ca02c" fill-opacity="0.75"/>
<circle cx="511.5" cy="257.8" r="4.2" fill="#2ca02c" fill-opacity="0.75"/>
<circle cx="504.7" cy="263.5" r="4.2" fill="#2ca02c" fill-opacity="0.75"/>
<circle cx="335.1" cy="326.8" r="4.2" fill="#2ca02c" fill-opacity="0.75"/>
<circle cx="258.8" cy="300.2" r="4.2" fill="#2ca02c" fill-opacity="0.75"/>
<circle cx="592.1" cy="249.7" r="4.2" fill="#2ca02c" fill-opacity="0.75"/>
<circle cx="397.7" cy="358.5" r="4.2" fill="#2ca02c" fill-opacity="0.75"/>
<circle cx="415.8" cy="359.2" r="4.2" fill="#2ca02c" fill-opacity="0.75"/>
<circle cx="389.5" cy="331.8" r="4.2" fill="#2ca02c" fill-opacity="0.75"/>
<circle cx="476.7" cy="315.3" r="4.2" fill="#2ca02c" fill-opacity="0.75"/>
<circle cx="454.2" cy="322.5" r="4.2" fill="#2ca02c" fill-opacity="0.75"/>
<circle cx="459.8" cy="274.8" r="4.2" fill="#2ca02c" fill-opacity="0.75"/>
<circle cx="488.0" cy="309.8" r="4.2" fill="#2ca02c" fill-opacity="0.75"/>
<circle cx="581.3" cy="244.8" r="4.2" fill="#2ca02c" fill-opacity="0.75"/>
<circle cx="390.8" cy="301.6" r="4.2" fill="#2ca02c" fill-opacity="0.75"/>
<circle cx="351.1" cy="334.9" r="4.2" fill="#2ca02c" fill-opacity="0.75"/>
<circle cx="562.2" cy="326.4" r="4.2" fill="#2ca02c" fill-opacity="0.75"/>
<circle cx="475.0" cy="231.7" r="4.2" fill="#2ca02c" fill-opacity="0.75"/>
<circle cx="569.6" cy="219.0" r="4.2" fill="#2ca02c" fill-opacity="0.75"/>
<circle cx="414.8" cy="208.0" r="4.2" fill="#2ca02c" fill-opacity="0.75"/>
<circle cx="563.8" cy="305.9" r="4.2" fill="#2ca02c" fill-opacity="0.75"/>
<circle cx="461.3" cy="276.9" r="4.2" fill="#2ca02c" fill-opacity="0.75"/>
<circle cx="548.9" cy="287.2" r="4.2" fill="#2ca02c" fill-opacity="0.75"/>
<circle cx="582.0" cy="347.3" r="4.2" fill="#2ca02c" fill-opacity="0.75"/>
<circle cx="373.6" cy="374.6" r="4.2" fill="#2ca02c" fill-opacity="0.75"/>
<circle cx="495.2" cy="286.1" r="4.2" fill="#2ca02c" fill-opacity="0.75"/>
<circle cx="444.6" cy="296.6" r="4.2" fill="#ff7f0e" fill-opacity="0.75"/>
<circle cx="447.5" cy="313.2" r="4.2" fill="#ff7f0e" fill-opacity="0.75"/>
<circle cx="496.4" cy="213.0" r="4.2" fill="#ff7f0e" fill-opacity="0.75"/>
<circle cx="493.1" cy="213.9" r="4.2" fill="#ff7f0e" fill-opacity="0.75"/>
<circle cx="407.3" cy="209.2" r="4.2" fill="#ff7f0e" fill-opacity="0.75"/>
<circle cx="406.1" cy="205.1" r="4.2" fill="#ff7f0e" fill-opacity="0.75"/>
<circle cx="515.6" cy="244.4" r="4.2" fill="#ff7f0e" fill-opacity="0.75"/>
<circle cx="513.8" cy="222.3" r="4.2" fill="#ff7f0e" fill-opacity="0.75"/>
<circle cx="439.9" cy="281.5" r="4.2" fill="#ff7f0e" fill-opacity="0.75"/>
<circle cx="439.1" cy="270.0" r="4.2" fill="#ff7f0e" fill-opacity="0.75"/>
<circle cx="431.1" cy="201.5" r="4.2" fill="#ff7f0e" fill-opacity="0.75"/>
<circle cx="430.6" cy="203.2" r="4.2" fill="#ff7f0e" fill-opacity="0.75"/>
<circle cx="433.8" cy="274.8" r="4.2" fill="#ff7f0e" fill-opacity="0.75"/>
<circle cx="434.6" cy="273.2" r="4.2" fill="#ff7f0e" fill-opacity="0.75"/>
<circle cx="490.1" cy="322.4" r="4.2" fill="#ff7f0e" fill-opacity="0.75"/>
<circle cx="492.6" cy="340.3" r="4.2" fill="#ff7f0e" fill-opacity="0.75"/>
<circle cx="554.4" cy="242.3" r="4.2" fill="#ff7f0e" fill-opacity="0.75"/>
<circle cx="556.5" cy="239.9" r="4.2" fill="#ff7f0e" fill-opacity="0.75"/>
<circle cx="511.0" cy="233.0" r="4.2" fill="#ff7f0e" fill-opacity="0.75"/>
<circle cx="511.4" cy="234.9" r="4.2" fill="#ff7f0e" fill-opacity="0.75"/>
<circle cx="563.5" cy="271.0" r="4.2" fill="#ff7f0e" fill-opacity="0.75"/>
<circle cx="561.1" cy="247.0" r="4.2" fill="#ff7f0e" fill-opacity="0.75"/>
<circle cx="537.2" cy="276.3" r="4.2" fill="#ff7f0e" fill-opacity="0.75"/>
<circle cx="536.2" cy="264.0" r="4.2" fill="#ff7f0e" fill-opacity="0.75"/>
<circle cx="399.3" cy="277.9" r="4.2" fill="#ff7f0e" fill-opacity="0.75"/>
<circle cx="396.6" cy="267.6" r="4.2" fill="#ff7f0e" fill-opacity="0.75"/>
<circle cx="419.0" cy="230.8" r="4.2" fill="#ff7f0e" fill-opacity="0.75"/>
<circle cx="413.4" cy="215.7" r="4.2" fill="#ff7f0e" fill-opacity="0.75"/>
<circle cx="470.2" cy="232.8" r="4.2" fill="#ff7f0e" fill-opacity="0.75"/>
<circle cx="468.1" cy="227.4" r="4.2" fill="#ff7f0e" fill-opacity="0.75"/>
<circle cx="443.7" cy="245.9" r="4.2" fill="#ff7f0e" fill-opacity="0.75"/>
<circle cx="444.2" cy="248.7" r="4.2" fill="#ff7f0e" fill-opacity="0.75"/>
<circle cx="538.4" cy="258.5" r="4.2" fill="#ff7f0e" fill-opacity="0.75"/>
<circle cx="538.8" cy="232.0" r="4.2" fill="#ff7f0e" fill-opacity="0.75"/>
<circle cx="494.2" cy="271.2" r="4.2" fill="#ff7f0e" fill-opacity="0.75"/>
<circle cx="491.0" cy="244.7" r="4.2" fill="#ff7f0e" fill-opacity="0.75"/>
<circle cx="421.4" cy="267.0" r="4.2" fill="#ff7f0e" fill-opacity="0.75"/>
<circle cx="422.0" cy="265.5" r="4.2" fill="#ff7f0e" fill-opacity="0.75"/>
<circle cx="558.1" cy="256.3" r="4.2" fill="#ff7f0e" fill-opacity="0.75"/>
<circle cx="556.3" cy="253.0" r="4.2" fill="#ff7f0e" fill-opacity="0.75"/>
<circle cx="445.1" cy="281.5" r="4.2" fill="#ff7f0e" fill-opacity="0.75"/>
<circle cx="444.0" cy="267.1" r="4.2" fill="#ff7f0e" fill-opacity="0.75"/>
<circle cx="445.1" cy="281.0" r="4.2" fill="#ff7f0e" fill-opacity="0.75"/>
<circle cx="442.0" cy="265.3" r="4.2" fill="#ff7f0e" fill-opacity="0.75"/>
<circle cx="478.0" cy="270.3" r="4.2" fill="#ff7f0e" fill-opacity="0.75"/>
<circle cx="477.8" cy="252.3" r="4.2" fill="#ff7f0e" fill-opacity="0.75"/>
<circle cx="469.0" cy="202.6" r="4.2" fill="#ff7f0e" fill-opacity="0.75"/>
<circle cx="471.9" cy="189.7" r="4.2" fill="#ff7f0e" fill-opacity="0.75"/>
<circle cx="483.8" cy="271.8" r="4.2" fill="#ff7f0e" fill-opacity="0.75"/>
<circle cx="483.5" cy="261.5" r="4.2" fill="#ff7f0e" fill-opacity="0.75"/>
<circle cx="510.4" cy="257.7" r="4.2" fill="#ff7f0e" fill-opacity="0.75"/>
<circle cx="511.2" cy="254.7" r="4.2" fill="#ff7f0e" fill-opacity="0.75"/>
<circle cx="532.3" cy="241.6" r="4.2" fill="#ff7f0e" fill-opacity="0.75"/>
<circle cx="533.0" cy="233.2" r="4.2" fill="#ff7f0e" fill-opacity="0.75"/>
<circle cx="554.4" cy="241.3" r="4.2" fill="#ff7f0e" fill-opacity="0.75"/>
<circle cx="559.0" cy="242.8" r="4.2" fill="#ff7f0e" fill-opacity="0.75"/>
<circle cx="405.5" cy="275.6" r="4.2" fill="#ff7f0e" fill-opacity="0.75"/>
<circle cx="401.7" cy="256.1" r="4.2" fill="#ff7f0e" fill-opacity="0.75"/>
<circle cx="365.7" cy="313.4" r="4.2" fill="#ff7f0e" fill-opacity="0.75"/>
<circle cx="363.4" cy="309.1" r="4.2" fill="#ff7f0e" fill-opacity="0.75"/>
<circle cx="482.6" cy="229.5" r="4.2" fill="#ff7f0e" fill-opacity="0.75"/>
<circle cx="483.2" cy="217.1" r="4.2" fill="#ff7f0e" fill-opacity="0.75"/>
<circle cx="430.7" cy="408.4" r="4.2" fill="#ff7f0e" fill-opacity="0.75"/>
<circle cx="425.5" cy="389.2" r="4.2" fill="#ff7f0e" fill-opacity="0.75"/>
<circle cx="435.7" cy="189.6" r="4.2" fill="#ff7f0e" fill-opacity="0.75"/>
<circle cx="429.4" cy="155.5" r="4.2" fill="#ff7f0e" fill-opacity="0.75"/>
<circle cx="488.6" cy="260.5" r="4.2" fill="#ff7f0e" fill-opacity="0.75"/>
<circle cx="492.0" cy="258.0" r="4.2" fill="#ff7f0e" fill-opacity="0.75"/>
<circle cx="483.2" cy="133.3" r="4.2" fill="#ff7f0e" fill-opacity="0.75"/>
<circle cx="483.6" cy="136.4" r="4.2" fill="#ff7f0e" fill-opacity="0.75"/>
<circle cx="510.2" cy="277.5" r="4.2" fill="#ff7f0e" fill-opacity="0.75"/>
<circle cx="515.0" cy="280.5" r="4.2" fill="#ff7f0e" fill-opacity="0.75"/>
<circle cx="446.0" cy="319.6" r="4.2" fill="#ff7f0e" fill-opacity="0.75"/>
<circle cx="445.4" cy="318.2" r="4.2" fill="#ff7f0e" fill-opacity="0.75"/>
<circle cx="444.8" cy="213.2" r="4.2" fill="#ff7f0e" fill-opacity="0.75"/>
<circle cx="441.3" cy="200.9" r="4.2" fill="#ff7f0e" fill-opacity="0.75"/>
<circle cx="492.2" cy="286.0" r="4.2" fill="#ff7f0e" fill-opacity="0.75"/>
<circle cx="496.3" cy="305.2" r="4.2" fill="#ff7f0e" fill-opacity="0.75"/>
<circle cx="462.4" cy="279.7" r="4.2" fill="#ff7f0e" fill-opacity="0.75"/>
<circle cx="461.1" cy="260.0" r="4.2" fill="#ff7f0e" fill-opacity="0.75"/>
<circle cx="469.5" cy="292.8" r="4.2" fill="#ff7f0e" fill-opacity="0.75"/>
<circle cx="469.3" cy="281.3" r="4.2" fill="#ff7f0e" fill-opacity="0.75"/>
<circle cx="496.2" cy="311.0" r="4.2" fill="#ff7f0e" fill-opacity="0.75"/>
<circle cx="499.2" cy="307.7" r="4.2" fill="#ff7f0e" fill-opacity="0.75"/>
<circle cx="550.5" cy="357.5" r="4.2" fill="#ff7f0e" fill-opacity="0.75"/>
<circle cx="555.8" cy="348.0" r="4.2" fill="#ff7f0e" fill-opacity="0.75"/>
<circle cx="413.6" cy="268.8" r="4.2" fill="#ff7f0e" fill-opacity="0.75"/>
<circle cx="411.4" cy="259.1" r="4.2" fill="#ff7f0e" fill-opacity="0.75"/>
<circle cx="432.2" cy="196.0" r="4.2" fill="#ff7f0e" fill-opacity="0.75"/>
<circle cx="433.3" cy="197.0" r="4.2" fill="#ff7f0e" fill-opacity="0.75"/>
<circle cx="328.8" cy="251.3" r="4.2" fill="#ff7f0e" fill-opacity="0.75"/>
<circle cx="319.5" cy="235.5" r="4.2" fill="#ff7f0e" fill-opacity="0.75"/>
<circle cx="443.0" cy="391.4" r="4.2" fill="#ff7f0e" fill-opacity="0.75"/>
<circle cx="440.6" cy="382.1" r="4.2" fill="#ff7f0e" fill-opacity="0.75"/>
<circle cx="502.1" cy="341.4" r="4.2" fill="#ff7f0e" fill-opacity="0.75"/>
<circle cx="502.8" cy="345.3" r="4.2" fill="#ff7f0e" fill-opacity="0.75"/>
<circle cx="492.0" cy="255.2" r="4.2" fill="#ff7f0e" fill-opacity="0.75"/>
<circle cx="496.4" cy="261.1" r="4.2" fill="#ff7f0e" fill-opacity="0.75"/>
<circle cx="466.4" cy="242.3" r="4.2" fill="#ff7f0e" fill-opacity="0.75"/>
<circle cx="475.6" cy="255.4" r="4.2" fill="#ff7f0e" fill-opacity="0.75"/>
<circle cx="369.4" cy="282.4" r="4.2" fill="#d62728" fill-opacity="0.75"/>
<circle cx="369.7" cy="281.3" r="4.2" fill="#d62728" fill-opacity="0.75"/>
<circle cx="397.6" cy="227.0" r="4.2" fill="#d62728" fill-opacity="0.75"/>
<circle cx="396.2" cy="224.8" r="4.2" fill="#d62728" fill-opacity="0.75"/>
<circle cx="309.9" cy="311.4" r="4.2" fill="#d62728" fill-opacity="0.75"/>
<circle cx="310.5" cy="311.0" r="4.2" fill="#d62728" fill-opacity="0.75"/>
<circle cx="479.3" cy="265.9" r="4.2" fill="#d62728" fill-opacity="0.75"/>
<circle cx="477.3" cy="251.9" r="4.2" fill="#d62728" fill-opacity="0.75"/>
<circle cx="406.0" cy="216.0" r="4.2" fill="#d62728" fill-opacity="0.75"/>
<circle cx="399.6" cy="200.8" r="4.2" fill="#d62728" fill-opacity="0.75"/>
<circle cx="483.8" cy="234.5" r="4.2" fill="#d62728" fill-opacity="0.75"/>
<circle cx="483.1" cy="230.5" r="4.2" fill="#d62728" fill-opacity="0.75"/>
<circle cx="580.7" cy="200.3" r="4.2" fill="#d62728" fill-opacity="0.75"/>
<circle cx="580.8" cy="192.7" r="4.2" fill="#d62728" fill-opacity="0.75"/>
<circle cx="620.7" cy="193.1" r="4.2" fill="#d62728" fill-opacity="0.75"/>
<circle cx="620.6" cy="193.2" r="4.2" fill="#d62728" fill-opacity="0.75"/>
<circle cx="226.4" cy="334.9" r="4.2" fill="#d62728" fill-opacity="0.75"/>
<circle cx="223.0" cy="328.4" r="4.2" fill="#d62728" fill-opacity="0.75"/>
<circle cx="720.0" cy="246.7" r="4.2" fill="#d62728" fill-opacity="0.75"/>
<circle cx="716.1" cy="188.5" r="4.2" fill="#d62728" fill-opacity="0.75"/>
<circle cx="261.8" cy="249.3" r="4.2" fill="#d62728" fill-opacity="0.75"/>
<circle cx="256.8" cy="237.8" r="4.2" fill="#d62728" fill-opacity="0.75"/>
<circle cx="447.5" cy="183.9" r="4.2" fill="#d62728" fill-opacity="0.75"/>
<circle cx="447.8" cy="184.1" r="4.2" fill="#d62728" fill-opacity="0.75"/>
<circle cx="514.5" cy="178.1" r="4.2" fill="#d62728" fill-opacity="0.75"/>
<circle cx="511.0" cy="161.5" r="4.2" fill="#d62728" fill-opacity="0.75"/>
<circle cx="428.6" cy="297.7" r="4.2" fill="#d62728" fill-opacity="0.75"/>
<circle cx="427.7" cy="292.6" r="4.2" fill="#d62728" fill-opacity="0.75"/>
<circle cx="339.5" cy="263.8" r="4.2" fill="#d62728" fill-opacity="0.75"/>
<circle cx="334.4" cy="254.0" r="4.2" fill="#d62728" fill-opacity="0.75"/>
<circle cx="532.9" cy="255.6" r="4.2" fill="#d62728" fill-opacity="0.75"/>
<circle cx="533.0" cy="242.4" r="4.2" fill="#d62728" fill-opacity="0.75"/>
<circle cx="408.5" cy="144.7" r="4.2" fill="#d62728" fill-opacity="0.75"/>
<circle cx="408.2" cy="144.9" r="4.2" fill="#d62728" fill-opacity="0.75"/>
<circle cx="306.8" cy="270.8" r="4.2" fill="#d62728" fill-opacity="0.75"/>
<circle cx="306.0" cy="268.0" r="4.2" fill="#d62728" fill-opacity="0.75"/>
<circle cx="448.6" cy="268.7" r="4.2" fill="#d62728" fill-opacity="0.75"/>
<circle cx="444.4" cy="254.5" r="4.2" fill="#d62728" fill-opacity="0.75"/>
<circle cx="432.7" cy="249.8" r="4.2" fill="#d62728" fill-opacity="0.75"/>
<circle cx="431.6" cy="250.2" r="4.2" fill="#d62728" fill-opacity="0.75"/>
<circle cx="471.4" cy="212.5" r="4.2" fill="#d62728" fill-opacity="0.75"/>
<circle cx="469.7" cy="201.6" r="4.2" fill="#d62728" fill-opacity="0.75"/>
<circle cx="391.8" cy="236.2" r="4.2" fill="#d62728" fill-opacity="0.75"/>
<circle cx="389.4" cy="229.8" r="4.2" fill="#d62728" fill-opacity="0.75"/>
<circle cx="426.0" cy="229.4" r="4.2" fill="#d62728" fill-opacity="0.75"/>
<circle cx="421.3" cy="218.1" r="4.2" fill="#d62728" fill-opacity="0.75"/>
<circle cx="443.8" cy="247.1" r="4.2" fill="#d62728" fill-opacity="0.75"/>
<circle cx="445.0" cy="250.7" r="4.2" fill="#d62728" fill-opacity="0.75"/>
<circle cx="293.4" cy="270.1" r="4.2" fill="#d62728" fill-opacity="0.75"/>
<circle cx="293.6" cy="274.0" r="4.2" fill="#d62728" fill-opacity="0.75"/>
<circle cx="418.6" cy="250.6" r="4.2" fill="#d62728" fill-opacity="0.75"/>
<circle cx="413.9" cy="233.8" r="4.2" fill="#d62728" fill-opacity="0.75"/>
<circle cx="403.8" cy="234.7" r="4.2" fill="#d62728" fill-opacity="0.75"/>
<circle cx="397.1" cy="211.7" r="4.2" fill="#d62728" fill-opacity="0.75"/>
<circle cx="425.7" cy="247.0" r="4.2" fill="#d62728" fill-opacity="0.75"/>
<circle cx="421.7" cy="233.6" r="4.2" fill="#d62728" fill-opacity="0.75"/>
<circle cx="492.9" cy="218.3" r="4.2" fill="#d62728" fill-opacity="0.75"/>
<circle cx="489.9" cy="214.3" r="4.2" fill="#d62728" fill-opacity="0.75"/>
<circle cx="480.5" cy="222.2" r="4.2" fill="#d62728" fill-opacity="0.75"/>
<circle cx="481.1" cy="225.6" r="4.2" fill="#d62728" fill-opacity="0.75"/>
<circle cx="477.7" cy="276.5" r="4.2" fill="#d62728" fill-opacity="0.75"/>
<circle cx="477.7" cy="272.5" r="4.2" fill="#d62728" fill-opacity="0.75"/>
<circle cx="397.5" cy="216.4" r="4.2" fill="#d62728" fill-opacity="0.75"/>
<circle cx="394.3" cy="206.2" r="4.2" fill="#d62728" fill-opacity="0.75"/>
<circle cx="457.1" cy="300.8" r="4.2" fill="#d62728" fill-opacity="0.75"/>
<circle cx="455.1" cy="291.0" r="4.2" fill="#d62728" fill-opacity="0.75"/>
<circle cx="383.8" cy="307.9" r="4.2" fill="#d62728" fill-opacity="0.75"/>
<circle cx="383.6" cy="310.9" r="4.2" fill="#d62728" fill-opacity="0.75"/>
<circle cx="369.3" cy="270.4" r="4.2" fill="#d62728" fill-opacity="0.75"/>
<circle cx="369.2" cy="268.6" r="4.2" fill="#d62728" fill-opacity="0.75"/>
<circle cx="410.6" cy="226.3" r="4.2" fill="#d62728" fill-opacity="0.75"/>
<circle cx="410.7" cy="226.9" r="4.2" fill="#d62728" fill-opacity="0.75"/>
<circle cx="503.2" cy="196.9" r="4.2" fill="#d62728" fill-opacity="0.75"/>
<circle cx="504.4" cy="197.9" r="4.2" fill="#d62728" fill-opacity="0.75"/>
<circle cx="463.6" cy="311.9" r="4.2" fill="#d62728" fill-opacity="0.75"/>
<circle cx="462.8" cy="310.3" r="4.2" fill="#d62728" fill-opacity="0.75"/>
<circle cx="475.4" cy="304.9" r="4.2" fill="#d62728" fill-opacity="0.75"/>
<circle cx="474.0" cy="302.2" r="4.2" fill="#d62728" fill-opacity="0.75"/>
<circle cx="390.3" cy="241.9" r="4.2" fill="#d62728" fill-opacity="0.75"/>
<circle cx="393.7" cy="251.8" r="4.2" fill="#d62728" fill-opacity="0.75"/>
<circle cx="372.4" cy="345.9" r="4.2" fill="#d62728" fill-opacity="0.75"/>
<circle cx="368.8" cy="338.8" r="4.2" fill="#d62728" fill-opacity="0.75"/>
<circle cx="318.0" cy="279.5" r="4.2" fill="#d62728" fill-opacity="0.75"/>
<circle cx="315.6" cy="278.8" r="4.2" fill="#d62728" fill-opacity="0.75"/>
<circle cx="457.5" cy="207.8" r="4.2" fill="#d62728" fill-opacity="0.75"/>
<circle cx="454.5" cy="193.1" r="4.2" fill="#d62728" fill-opacity="0.75"/>
<circle cx="382.8" cy="258.8" r="4.2" fill="#d62728" fill-opacity="0.75"/>
<circle cx="379.8" cy="255.4" r="4.2" fill="#d62728" fill-opacity="0.75"/>
<circle cx="451.3" cy="274.6" r="4.2" fill="#d62728" fill-opacity="0.75"/>
<circle cx="448.9" cy="275.9" r="4.2" fill="#d62728" fill-opacity="0.75"/>
<circle cx="504.9" cy="250.7" r="4.2" fill="#d62728" fill-opacity="0.75"/>
<circle cx="509.6" cy="253.2" r="4.2" fill="#d62728" fill-opacity="0.75"/>
<circle cx="365.3" cy="240.0" r="4.2" fill="#d62728" fill-opacity="0.75"/>
<circle cx="366.2" cy="243.9" r="4.2" fill="#d62728" fill-opacity="0.75"/>
<circle cx="431.7" cy="295.1" r="4.2" fill="#d62728" fill-opacity="0.75"/>
<circle cx="431.2" cy="292.8" r="4.2" fill="#d62728" fill-opacity="0.75"/>
<circle cx="364.6" cy="293.1" r="4.2" fill="#d62728" fill-opacity="0.75"/>
<circle cx="363.7" cy="292.1" r="4.2" fill="#d62728" fill-opacity="0.75"/>
<circle cx="361.1" cy="260.4" r="4.2" fill="#d62728" fill-opacity="0.75"/>
<circle cx="358.7" cy="254.9" r="4.2" fill="#d62728" fill-opacity="0.75"/>
<rect x="750" y="60" width="14" height="14" fill="#7f7f7f"/>
<text x="770" y="72" font-size="14" font-family="Arial">photo</text>
<rect x="750" y="84" width="14" height="14" fill="#17becf"/>
<text x="770" y="96" font-size="14" font-family="Arial">Hayao</text>
<rect x="750" y="108" width="14" height="14" fill="#2ca02c"/>
<text x="770" y="120" font-size="14" font-family="Arial">monet</text>
<rect x="750" y="132" width="14" height="14" fill="#ff7f0e"/>
<text x="770" y="144" font-size="14" font-family="Arial">vangogh</text>
<rect x="750" y="156" width="14" height="14" fill="#d62728"/>
<text x="770" y="168" font-size="14" font-family="Arial">cezanne</text>
</svg>