<svg xmlns="http://www.w3.org/2000/svg" width="900" height="520" viewBox="0 0 900 520">
<rect width="100%" height="100%" fill="white"/>
<text x="450.0" y="28" text-anchor="middle" font-size="22" font-family="Arial">MDS Scatter: pixel_vgg_gram</text>
<rect x="70" y="50" width="650" height="420" fill="none" stroke="black"/>
<circle cx="146.5" cy="364.4" r="4.2" fill="#7f7f7f" fill-opacity="0.75"/>
<circle cx="213.1" cy="362.1" r="4.2" fill="#7f7f7f" fill-opacity="0.75"/>
<circle cx="319.3" cy="354.3" r="4.2" fill="#7f7f7f" fill-opacity="0.75"/>
<circle cx="244.0" cy="364.2" r="4.2" fill="#7f7f7f" fill-opacity="0.75"/>
<circle cx="316.7" cy="369.8" r="4.2" fill="#7f7f7f" fill-opacity="0.75"/>
<circle cx="248.9" cy="428.3" r="4.2" fill="#7f7f7f" fill-opacity="0.75"/>
<circle cx="593.8" cy="232.1" r="4.2" fill="#7f7f7f" fill-opacity="0.75"/>
<circle cx="150.9" cy="345.5" r="4.2" fill="#7f7f7f" fill-opacity="0.75"/>
<circle cx="289.3" cy="295.2" r="4.2" fill="#7f7f7f" fill-opacity="0.75"/>
<circle cx="305.1" cy="374.7" r="4.2" fill="#7f7f7f" fill-opacity="0.75"/>
<circle cx="177.9" cy="360.0" r="4.2" fill="#7f7f7f" fill-opacity="0.75"/>
<circle cx="536.5" cy="373.8" r="4.2" fill="#7f7f7f" fill-opacity="0.75"/>
<circle cx="184.5" cy="305.6" r="4.2" fill="#7f7f7f" fill-opacity="0.75"/>
<circle cx="376.6" cy="344.1" r="4.2" fill="#7f7f7f" fill-opacity="0.75"/>
<circle cx="171.0" cy="370.5" r="4.2" fill="#7f7f7f" fill-opacity="0.75"/>
<circle cx="383.5" cy="358.5" r="4.2" fill="#7f7f7f" fill-opacity="0.75"/>
<circle cx="213.2" cy="358.3" r="4.2" fill="#7f7f7f" fill-opacity="0.75"/>
<circle cx="131.3" cy="351.1" r="4.2" fill="#7f7f7f" fill-opacity="0.75"/>
<circle cx="584.8" cy="417.8" r="4.2" fill="#7f7f7f" fill-opacity="0.75"/>
<circle cx="156.2" cy="364.9" r="4.2" fill="#7f7f7f" fill-opacity="0.75"/>
<circle cx="235.1" cy="386.4" r="4.2" fill="#7f7f7f" fill-opacity="0.75"/>
<circle cx="618.4" cy="341.9" r="4.2" fill="#7f7f7f" fill-opacity="0.75"/>
<circle cx="256.6" cy="394.7" r="4.2" fill="#7f7f7f" fill-opacity="0.75"/>
<circle cx="362.2" cy="343.9" r="4.2" fill="#7f7f7f" fill-opacity="0.75"/>
<circle cx="268.1" cy="395.7" r="4.2" fill="#7f7f7f" fill-opacity="0.75"/>
<circle cx="328.8" cy="402.7" r="4.2" fill="#7f7f7f" fill-opacity="0.75"/>
<circle cx="334.8" cy="398.0" r="4.2" fill="#7f7f7f" fill-opacity="0.75"/>
<circle cx="439.1" cy="277.4" r="4.2" fill="#7f7f7f" fill-opacity="0.75"/>
<circle cx="541.6" cy="264.7" r="4.2" fill="#7f7f7f" fill-opacity="0.75"/>
<circle cx="282.8" cy="382.5" r="4.2" fill="#7f7f7f" fill-opacity="0.75"/>
<circle cx="180.6" cy="353.4" r="4.2" fill="#7f7f7f" fill-opacity="0.75"/>
<circle cx="245.1" cy="327.0" r="4.2" fill="#7f7f7f" fill-opacity="0.75"/>
<circle cx="326.8" cy="304.6" r="4.2" fill="#7f7f7f" fill-opacity="0.75"/>
<circle cx="298.2" cy="340.2" r="4.2" fill="#7f7f7f" fill-opacity="0.75"/>
<circle cx="137.3" cy="379.2" r="4.2" fill="#7f7f7f" fill-opacity="0.75"/>
<circle cx="351.2" cy="266.3" r="4.2" fill="#7f7f7f" fill-opacity="0.75"/>
<circle cx="283.6" cy="151.4" r="4.2" fill="#7f7f7f" fill-opacity="0.75"/>
<circle cx="440.3" cy="413.1" r="4.2" fill="#7f7f7f" fill-opacity="0.75"/>
<circle cx="268.1" cy="357.3" r="4.2" fill="#7f7f7f" fill-opacity="0.75"/>
<circle cx="238.9" cy="352.2" r="4.2" fill="#7f7f7f" fill-opacity="0.75"/>
<circle cx="267.6" cy="405.0" r="4.2" fill="#7f7f7f" fill-opacity="0.75"/>
<circle cx="271.1" cy="393.6" r="4.2" fill="#7f7f7f" fill-opacity="0.75"/>
<circle cx="372.3" cy="309.2" r="4.2" fill="#7f7f7f" fill-opacity="0.75"/>
<circle cx="231.7" cy="366.1" r="4.2" fill="#7f7f7f" fill-opacity="0.75"/>
<circle cx="325.8" cy="195.8" r="4.2" fill="#7f7f7f" fill-opacity="0.75"/>
<circle cx="286.9" cy="338.1" r="4.2" fill="#7f7f7f" fill-opacity="0.75"/>
<circle cx="216.9" cy="368.9" r="4.2" fill="#7f7f7f" fill-opacity="0.75"/>
<circle cx="309.6" cy="401.1" r="4.2" fill="#7f7f7f" fill-opacity="0.75"/>
<circle cx="183.5" cy="378.3" r="4.2" fill="#7f7f7f" fill-opacity="0.75"/>
<circle cx="195.7" cy="328.4" r="4.2" fill="#7f7f7f" fill-opacity="0.75"/>
<circle cx="372.9" cy="389.1" r="4.2" fill="#7f7f7f" fill-opacity="0.75"/>
<circle cx="302.6" cy="407.6" r="4.2" fill="#7f7f7f" fill-opacity="0.75"/>
<circle cx="431.5" cy="399.1" r="4.2" fill="#7f7f7f" fill-opacity="0.75"/>
<circle cx="525.5" cy="434.3" r="4.2" fill="#7f7f7f" fill-opacity="0.75"/>
<circle cx="387.7" cy="431.9" r="4.2" fill="#7f7f7f" fill-opacity="0.75"/>
<circle cx="196.1" cy="399.3" r="4.2" fill="#7f7f7f" fill-opacity="0.75"/>
<circle cx="310.9" cy="334.3" r="4.2" fill="#7f7f7f" fill-opacity="0.75"/>
<circle cx="206.0" cy="388.9" r="4.2" fill="#7f7f7f" fill-opacity="0.75"/>
<circle cx="344.7" cy="174.3" r="4.2" fill="#7f7f7f" fill-opacity="0.75"/>
<circle cx="70.0" cy="366.7" r="4.2" fill="#7f7f7f" fill-opacity="0.75"/>
<circle cx="123.4" cy="366.9" r="4.2" fill="#7f7f7f" fill-opacity="0.75"/>
<circle cx="429.3" cy="341.5" r="4.2" fill="#7f7f7f" fill-opacity="0.75"/>
<circle cx="148.0" cy="351.7" r="4.2" fill="#7f7f7f" fill-opacity="0.75"/>
<circle cx="294.6" cy="370.5" r="4.2" fill="#7f7f7f" fill-opacity="0.75"/>
<circle cx="216.7" cy="346.9" r="4.2" fill="#7f7f7f" fill-opacity="0.75"/>
<circle cx="229.9" cy="278.2" r="4.2" fill="#7f7f7f" fill-opacity="0.75"/>
<circle cx="213.2" cy="343.9" r="4.2" fill="#7f7f7f" fill-opacity="0.75"/>
<circle cx="238.4" cy="362.0" r="4.2" fill="#7f7f7f" fill-opacity="0.75"/>
<circle cx="387.1" cy="429.2" r="4.2" fill="#7f7f7f" fill-opacity="0.75"/>
<circle cx="232.5" cy="339.9" r="4.2" fill="#7f7f7f" fill-opacity="0.75"/>
<circle cx="306.3" cy="344.7" r="4.2" fill="#7f7f7f" fill-opacity="0.75"/>
<circle cx="545.5" cy="368.8" r="4.2" fill="#7f7f7f" fill-opacity="0.75"/>
<circle cx="245.7" cy="228.3" r="4.2" fill="#7f7f7f" fill-opacity="0.75"/>
<circle cx="290.9" cy="295.3" r="4.2" fill="#7f7f7f" fill-opacity="0.75"/>
<circle cx="187.2" cy="402.2" r="4.2" fill="#7f7f7f" fill-opacity="0.75"/>
<circle cx="159.3" cy="348.3" r="4.2" fill="#7f7f7f" fill-opacity="0.75"/>
<circle cx="201.9" cy="363.7" r="4.2" fill="#7f7f7f" fill-opacity="0.75"/>
<circle cx="166.8" cy="351.8" r="4.2" fill="#7f7f7f" fill-opacity="0.75"/>
<circle cx="166.8" cy="386.2" r="4.2" fill="#7f7f7f" fill-opacity="0.75"/>
<circle cx="356.2" cy="389.8" r="4.2" fill="#7f7f7f" fill-opacity="0.75"/>
<circle cx="190.2" cy="356.3" r="4.2" fill="#7f7f7f" fill-opacity="0.75"/>
<circle cx="183.0" cy="335.7" r="4.2" fill="#7f7f7f" fill-opacity="0.75"/>
<circle cx="92.6" cy="369.4" r="4.2" fill="#7f7f7f" fill-opacity="0.75"/>
<circle cx="251.0" cy="367.0" r="4.2" fill="#7f7f7f" fill-opacity="0.75"/>
<circle cx="105.6" cy="379.8" r="4.2" fill="#7f7f7f" fill-opacity="0.75"/>
<circle cx="169.3" cy="388.0" r="4.2" fill="#7f7f7f" fill-opacity="0.75"/>
<circle cx="452.3" cy="401.1" r="4.2" fill="#7f7f7f" fill-opacity="0.75"/>
<circle cx="297.0" cy="389.3" r="4.2" fill="#7f7f7f" fill-opacity="0.75"/>
<circle cx="235.4" cy="334.7" r="4.2" fill="#7f7f7f" fill-opacity="0.75"/>
<circle cx="339.4" cy="374.4" r="4.2" fill="#7f7f7f" fill-opacity="0.75"/>
<circle cx="324.9" cy="388.6" r="4.2" fill="#7f7f7f" fill-opacity="0.75"/>
<circle cx="130.5" cy="378.8" r="4.2" fill="#7f7f7f" fill-opacity="0.75"/>
<circle cx="446.1" cy="402.3" r="4.2" fill="#7f7f7f" fill-opacity="0.75"/>
<circle cx="159.9" cy="359.7" r="4.2" fill="#7f7f7f" fill-opacity="0.75"/>
<circle cx="235.9" cy="392.8" r="4.2" fill="#7f7f7f" fill-opacity="0.75"/>
<circle cx="118.0" cy="365.3" r="4.2" fill="#7f7f7f" fill-opacity="0.75"/>
<circle cx="194.1" cy="344.3" r="4.2" fill="#7f7f7f" fill-opacity="0.75"/>
<circle cx="414.0" cy="307.0" r="4.2" fill="#7f7f7f" fill-opacity="0.75"/>
<circle cx="234.0" cy="393.2" r="4.2" fill="#7f7f7f" fill-opacity="0.75"/>
<circle cx="194.8" cy="343.4" r="4.2" fill="#7f7f7f" fill-opacity="0.75"/>
<circle cx="345.0" cy="208.9" r="4.2" fill="#17becf" fill-opacity="0.75"/>
<circle cx="198.9" cy="158.2" r="4.2" fill="#17becf" fill-opacity="0.75"/>
<circle cx="304.7" cy="89.8" r="4.2" fill="#17becf" fill-opacity="0.75"/>
<circle cx="414.6" cy="160.3" r="4.2" fill="#17becf" fill-opacity="0.75"/>
<circle cx="198.4" cy="250.9" r="4.2" fill="#17becf" fill-opacity="0.75"/>
<circle cx="195.8" cy="204.5" r="4.2" fill="#17becf" fill-opacity="0.75"/>
<circle cx="276.9" cy="116.5" r="4.2" fill="#17becf" fill-opacity="0.75"/>
<circle cx="353.3" cy="218.2" r="4.2" fill="#17becf" fill-opacity="0.75"/>
<circle cx="308.6" cy="61.7" r="4.2" fill="#17becf" fill-opacity="0.75"/>
<circle cx="336.2" cy="67.7" r="4.2" fill="#17becf" fill-opacity="0.75"/>
<circle cx="392.2" cy="110.6" r="4.2" fill="#17becf" fill-opacity="0.75"/>
<circle cx="374.8" cy="155.1" r="4.2" fill="#17becf" fill-opacity="0.75"/>
<circle cx="362.1" cy="150.1" r="4.2" fill="#17becf" fill-opacity="0.75"/>
<circle cx="225.3" cy="289.6" r="4.2" fill="#17becf" fill-opacity="0.75"/>
<circle cx="344.0" cy="156.4" r="4.2" fill="#17becf" fill-opacity="0.75"/>
<circle cx="256.3" cy="100.7" r="4.2" fill="#17becf" fill-opacity="0.75"/>
<circle cx="220.5" cy="235.4" r="4.2" fill="#17becf" fill-opacity="0.75"/>
<circle cx="383.2" cy="111.5" r="4.2" fill="#17becf" fill-opacity="0.75"/>
<circle cx="149.4" cy="278.0" r="4.2" fill="#17becf" fill-opacity="0.75"/>
<circle cx="374.0" cy="224.9" r="4.2" fill="#17becf" fill-opacity="0.75"/>
<circle cx="296.0" cy="104.9" r="4.2" fill="#17becf" fill-opacity="0.75"/>
<circle cx="164.5" cy="255.4" r="4.2" fill="#17becf" fill-opacity="0.75"/>
<circle cx="137.2" cy="306.0" r="4.2" fill="#17becf" fill-opacity="0.75"/>
<circle cx="147.1" cy="385.3" r="4.2" fill="#17becf" fill-opacity="0.75"/>
<circle cx="278.7" cy="279.1" r="4.2" fill="#17becf" fill-opacity="0.75"/>
<circle cx="191.5" cy="368.7" r="4.2" fill="#17becf" fill-opacity="0.75"/>
<circle cx="264.4" cy="341.1" r="4.2" fill="#17becf" fill-opacity="0.75"/>
<circle cx="262.3" cy="329.9" r="4.2" fill="#17becf" fill-opacity="0.75"/>
<circle cx="281.9" cy="162.2" r="4.2" fill="#17becf" fill-opacity="0.75"/>
<circle cx="273.6" cy="309.4" r="4.2" fill="#17becf" fill-opacity="0.75"/>
<circle cx="276.8" cy="175.3" r="4.2" fill="#17becf" fill-opacity="0.75"/>
<circle cx="283.4" cy="199.5" r="4.2" fill="#17becf" fill-opacity="0.75"/>
<circle cx="282.5" cy="112.6" r="4.2" fill="#17becf" fill-opacity="0.75"/>
<circle cx="262.5" cy="248.6" r="4.2" fill="#17becf" fill-opacity="0.75"/>
<circle cx="283.0" cy="281.0" r="4.2" fill="#17becf" fill-opacity="0.75"/>
<circle cx="417.1" cy="50.0" r="4.2" fill="#17becf" fill-opacity="0.75"/>
<circle cx="214.9" cy="306.8" r="4.2" fill="#17becf" fill-opacity="0.75"/>
<circle cx="262.8" cy="213.7" r="4.2" fill="#17becf" fill-opacity="0.75"/>
<circle cx="268.9" cy="245.2" r="4.2" fill="#17becf" fill-opacity="0.75"/>
<circle cx="241.5" cy="197.5" r="4.2" fill="#17becf" fill-opacity="0.75"/>
<circle cx="190.1" cy="249.3" r="4.2" fill="#17becf" fill-opacity="0.75"/>
<circle cx="221.1" cy="265.8" r="4.2" fill="#17becf" fill-opacity="0.75"/>
<circle cx="344.6" cy="147.0" r="4.2" fill="#17becf" fill-opacity="0.75"/>
<circle cx="486.0" cy="208.1" r="4.2" fill="#17becf" fill-opacity="0.75"/>
<circle cx="154.2" cy="277.3" r="4.2" fill="#17becf" fill-opacity="0.75"/>
<circle cx="244.1" cy="335.7" r="4.2" fill="#17becf" fill-opacity="0.75"/>
<circle cx="426.5" cy="179.3" r="4.2" fill="#17becf" fill-opacity="0.75"/>
<circle cx="405.1" cy="176.4" r="4.2" fill="#17becf" fill-opacity="0.75"/>
<circle cx="330.0" cy="185.7" r="4.2" fill="#17becf" fill-opacity="0.75"/>
<circle cx="265.0" cy="145.3" r="4.2" fill="#17becf" fill-opacity="0.75"/>
<circle cx="251.5" cy="230.3" r="4.2" fill="#17becf" fill-opacity="0.75"/>
<circle cx="217.8" cy="280.7" r="4.2" fill="#17becf" fill-opacity="0.75"/>
<circle cx="175.7" cy="349.9" r="4.2" fill="#17becf" fill-opacity="0.75"/>
<circle cx="344.9" cy="147.5" r="4.2" fill="#17becf" fill-opacity="0.75"/>
<circle cx="205.2" cy="258.1" r="4.2" fill="#17becf" fill-opacity="0.75"/>
<circle cx="388.3" cy="206.1" r="4.2" fill="#17becf" fill-opacity="0.75"/>
<circle cx="178.4" cy="284.2" r="4.2" fill="#17becf" fill-opacity="0.75"/>
<circle cx="176.4" cy="293.7" r="4.2" fill="#17becf" fill-opacity="0.75"/>
<circle cx="294.3" cy="252.2" r="4.2" fill="#17becf" fill-opacity="0.75"/>
<circle cx="221.2" cy="275.7" r="4.2" fill="#17becf" fill-opacity="0.75"/>
<circle cx="190.5" cy="225.6" r="4.2" fill="#17becf" fill-opacity="0.75"/>
<circle cx="202.7" cy="210.5" r="4.2" fill="#17becf" fill-opacity="0.75"/>
<circle cx="455.8" cy="180.0" r="4.2" fill="#17becf" fill-opacity="0.75"/>
<circle cx="201.5" cy="191.9" r="4.2" fill="#17becf" fill-opacity="0.75"/>
<circle cx="420.9" cy="234.6" r="4.2" fill="#17becf" fill-opacity="0.75"/>
<circle cx="226.8" cy="193.4" r="4.2" fill="#17becf" fill-opacity="0.75"/>
<circle cx="204.1" cy="232.0" r="4.2" fill="#17becf" fill-opacity="0.75"/>
<circle cx="181.2" cy="226.3" r="4.2" fill="#17becf" fill-opacity="0.75"/>
<circle cx="456.5" cy="232.3" r="4.2" fill="#17becf" fill-opacity="0.75"/>
<circle cx="276.5" cy="285.4" r="4.2" fill="#17becf" fill-opacity="0.75"/>
<circle cx="274.5" cy="89.2" r="4.2" fill="#17becf" fill-opacity="0.75"/>
<circle cx="173.9" cy="242.0" r="4.2" fill="#17becf" fill-opacity="0.75"/>
<circle cx="436.2" cy="151.1" r="4.2" fill="#17becf" fill-opacity="0.75"/>
<circle cx="199.8" cy="274.2" r="4.2" fill="#17becf" fill-opacity="0.75"/>
<circle cx="290.9" cy="203.3" r="4.2" fill="#17becf" fill-opacity="0.75"/>
<circle cx="219.5" cy="246.0" r="4.2" fill="#17becf" fill-opacity="0.75"/>
<circle cx="427.3" cy="186.7" r="4.2" fill="#17becf" fill-opacity="0.75"/>
<circle cx="220.5" cy="222.8" r="4.2" fill="#17becf" fill-opacity="0.75"/>
<circle cx="438.5" cy="178.7" r="4.2" fill="#17becf" fill-opacity="0.75"/>
<circle cx="176.9" cy="234.1" r="4.2" fill="#17becf" fill-opacity="0.75"/>
<circle cx="712.9" cy="96.8" r="4.2" fill="#17becf" fill-opacity="0.75"/>
<circle cx="230.4" cy="250.3" r="4.2" fill="#17becf" fill-opacity="0.75"/>
<circle cx="220.2" cy="209.0" r="4.2" fill="#17becf" fill-opacity="0.75"/>
<circle cx="306.7" cy="227.1" r="4.2" fill="#17becf" fill-opacity="0.75"/>
<circle cx="267.2" cy="163.6" r="4.2" fill="#17becf" fill-opacity="0.75"/>
<circle cx="180.7" cy="249.1" r="4.2" fill="#17becf" fill-opacity="0.75"/>
<circle cx="265.1" cy="204.3" r="4.2" fill="#17becf" fill-opacity="0.75"/>
<circle cx="323.7" cy="209.5" r="4.2" fill="#17becf" fill-opacity="0.75"/>
<circle cx="282.2" cy="122.4" r="4.2" fill="#17becf" fill-opacity="0.75"/>
<circle cx="326.4" cy="165.1" r="4.2" fill="#17becf" fill-opacity="0.75"/>
<circle cx="259.2" cy="288.6" r="4.2" fill="#17becf" fill-opacity="0.75"/>
<circle cx="453.2" cy="193.6" r="4.2" fill="#17becf" fill-opacity="0.75"/>
<circle cx="210.0" cy="251.7" r="4.2" fill="#17becf" fill-opacity="0.75"/>
<circle cx="206.1" cy="296.0" r="4.2" fill="#17becf" fill-opacity="0.75"/>
<circle cx="342.5" cy="195.4" r="4.2" fill="#17becf" fill-opacity="0.75"/>
<circle cx="298.6" cy="268.4" r="4.2" fill="#17becf" fill-opacity="0.75"/>
<circle cx="247.9" cy="232.8" r="4.2" fill="#17becf" fill-opacity="0.75"/>
<circle cx="192.6" cy="142.9" r="4.2" fill="#17becf" fill-opacity="0.75"/>
<circle cx="269.4" cy="246.4" r="4.2" fill="#17becf" fill-opacity="0.75"/>
<circle cx="182.8" cy="200.1" r="4.2" fill="#17becf" fill-opacity="0.75"/>
<circle cx="371.0" cy="433.2" r="4.2" fill="#2ca02c" fill-opacity="0.75"/>
<circle cx="273.6" cy="366.8" r="4.2" fill="#2ca02c" fill-opacity="0.75"/>
<circle cx="275.4" cy="372.4" r="4.2" fill="#2ca02c" fill-opacity="0.75"/>
<circle cx="374.8" cy="415.1" r="4.2" fill="#2ca02c" fill-opacity="0.75"/>
<circle cx="425.5" cy="381.4" r="4.2" fill="#2ca02c" fill-opacity="0.75"/>
<circle cx="375.6" cy="383.4" r="4.2" fill="#2ca02c" fill-opacity="0.75"/>
<circle cx="426.9" cy="445.9" r="4.2" fill="#2ca02c" fill-opacity="0.75"/>
<circle cx="271.1" cy="386.8" r="4.2" fill="#2ca02c" fill-opacity="0.75"/>
<circle cx="336.3" cy="437.2" r="4.2" fill="#2ca02c" fill-opacity="0.75"/>
<circle cx="319.2" cy="383.4" r="4.2" fill="#2ca02c" fill-opacity="0.75"/>
<circle cx="331.3" cy="429.0" r="4.2" fill="#2ca02c" fill-opacity="0.75"/>
<circle cx="360.9" cy="435.7" r="4.2" fill="#2ca02c" fill-opacity="0.75"/>
<circle cx="375.3" cy="438.9" r="4.2" fill="#2ca02c" fill-opacity="0.75"/>
<circle cx="270.3" cy="426.9" r="4.2" fill="#2ca02c" fill-opacity="0.75"/>
<circle cx="298.7" cy="433.9" r="4.2" fill="#2ca02c" fill-opacity="0.75"/>
<circle cx="422.8" cy="437.9" r="4.2" fill="#2ca02c" fill-opacity="0.75"/>
<circle cx="327.4" cy="452.5" r="4.2" fill="#2ca02c" fill-opacity="0.75"/>
<circle cx="320.5" cy="423.9" r="4.2" fill="#2ca02c" fill-opacity="0.75"/>
<circle cx="385.4" cy="444.7" r="4.2" fill="#2ca02c" fill-opacity="0.75"/>
<circle cx="245.2" cy="365.0" r="4.2" fill="#2ca02c" fill-opacity="0.75"/>
<circle cx="311.1" cy="388.9" r="4.2" fill="#2ca02c" fill-opacity="0.75"/>
<circle cx="321.9" cy="412.1" r="4.2" fill="#2ca02c" fill-opacity="0.75"/>
<circle cx="260.0" cy="374.5" r="4.2" fill="#2ca02c" fill-opacity="0.75"/>
<circle cx="295.1" cy="410.9" r="4.2" fill="#2ca02c" fill-opacity="0.75"/>
<circle cx="265.2" cy="413.8" r="4.2" fill="#2ca02c" fill-opacity="0.75"/>
<circle cx="251.7" cy="394.3" r="4.2" fill="#2ca02c" fill-opacity="0.75"/>
<circle cx="284.5" cy="364.8" r="4.2" fill="#2ca02c" fill-opacity="0.75"/>
<circle cx="287.9" cy="415.1" r="4.2" fill="#2ca02c" fill-opacity="0.75"/>
<circle cx="305.8" cy="425.1" r="4.2" fill="#2ca02c" fill-opacity="0.75"/>
<circle cx="281.9" cy="418.3" r="4.2" fill="#2ca02c" fill-opacity="0.75"/>
<circle cx="307.6" cy="438.2" r="4.2" fill="#2ca02c" fill-opacity="0.75"/>
<circle cx="286.9" cy="390.8" r="4.2" fill="#2ca02c" fill-opacity="0.75"/>
<circle cx="141.5" cy="401.6" r="4.2" fill="#2ca02c" fill-opacity="0.75"/>
<circle cx="281.1" cy="406.2" r="4.2" fill="#2ca02c" fill-opacity="0.75"/>
<circle cx="260.5" cy="406.4" r="4.2" fill="#2ca02c" fill-opacity="0.75"/>
<circle cx="434.2" cy="410.9" r="4.2" fill="#2ca02c" fill-opacity="0.75"/>
<circle cx="390.9" cy="433.4" r="4.2" fill="#2ca02c" fill-opacity="0.75"/>
<circle cx="407.4" cy="380.0" r="4.2" fill="#2ca02c" fill-opacity="0.75"/>
<circle cx="444.1" cy="351.8" r="4.2" fill="#2ca02c" fill-opacity="0.75"/>
<circle cx="278.2" cy="400.7" r="4.2" fill="#2ca02c" fill-opacity="0.75"/>
<circle cx="313.9" cy="461.2" r="4.2" fill="#2ca02c" fill-opacity="0.75"/>
<circle cx="321.0" cy="373.4" r="4.2" fill="#2ca02c" fill-opacity="0.75"/>
<circle cx="240.8" cy="407.2" r="4.2" fill="#2ca02c" fill-opacity="0.75"/>
<circle cx="290.2" cy="378.8" r="4.2" fill="#2ca02c" fill-opacity="0.75"/>
<circle cx="374.8" cy="378.8" r="4.2" fill="#2ca02c" fill-opacity="0.75"/>
<circle cx="293.0" cy="349.9" r="4.2" fill="#2ca02c" fill-opacity="0.75"/>
<circle cx="240.9" cy="395.0" r="4.2" fill="#2ca02c" fill-opacity="0.75"/>
<circle cx="264.5" cy="402.2" r="4.2" fill="#2ca02c" fill-opacity="0.75"/>
<circle cx="280.0" cy="363.2" r="4.2" fill="#2ca02c" fill-opacity="0.75"/>
<circle cx="235.6" cy="355.7" r="4.2" fill="#2ca02c" fill-opacity="0.75"/>
<circle cx="106.1" cy="406.2" r="4.2" fill="#2ca02c" fill-opacity="0.75"/>
<circle cx="345.5" cy="346.8" r="4.2" fill="#2ca02c" fill-opacity="0.75"/>
<circle cx="242.7" cy="392.7" r="4.2" fill="#2ca02c" fill-opacity="0.75"/>
<circle cx="538.2" cy="442.3" r="4.2" fill="#2ca02c" fill-opacity="0.75"/>
<circle cx="333.2" cy="394.4" r="4.2" fill="#2ca02c" fill-opacity="0.75"/>
<circle cx="306.1" cy="376.2" r="4.2" fill="#2ca02c" fill-opacity="0.75"/>
<circle cx="396.4" cy="397.8" r="4.2" fill="#2ca02c" fill-opacity="0.75"/>
<circle cx="313.3" cy="428.4" r="4.2" fill="#2ca02c" fill-opacity="0.75"/>
<circle cx="157.9" cy="412.2" r="4.2" fill="#2ca02c" fill-opacity="0.75"/>
<circle cx="372.7" cy="422.4" r="4.2" fill="#2ca02c" fill-opacity="0.75"/>
<circle cx="300.9" cy="391.7" r="4.2" fill="#2ca02c" fill-opacity="0.75"/>
<circle cx="207.9" cy="385.7" r="4.2" fill="#2ca02c" fill-opacity="0.75"/>
<circle cx="256.3" cy="414.7" r="4.2" fill="#2ca02c" fill-opacity="0.75"/>
<circle cx="327.3" cy="395.2" r="4.2" fill="#2ca02c" fill-opacity="0.75"/>
<circle cx="443.1" cy="436.8" r="4.2" fill="#2ca02c" fill-opacity="0.75"/>
<circle cx="429.0" cy="404.7" r="4.2" fill="#2ca02c" fill-opacity="0.75"/>
<circle cx="257.7" cy="396.5" r="4.2" fill="#2ca02c" fill-opacity="0.75"/>
<circle cx="217.1" cy="359.0" r="4.2" fill="#2ca02c" fill-opacity="0.75"/>
<circle cx="124.9" cy="408.0" r="4.2" fill="#2ca02c" fill-opacity="0.75"/>
<circle cx="231.9" cy="407.0" r="4.2" fill="#2ca02c" fill-opacity="0.75"/>
<circle cx="260.7" cy="395.2" r="4.2" fill="#2ca02c" fill-opacity="0.75"/>
<circle cx="168.8" cy="424.5" r="4.2" fill="#2ca02c" fill-opacity="0.75"/>
<circle cx="141.4" cy="371.1" r="4.2" fill="#2ca02c" fill-opacity="0.75"/>
<circle cx="211.4" cy="408.6" r="4.2" fill="#2ca02c" fill-opacity="0.75"/>
<circle cx="137.6" cy="413.3" r="4.2" fill="#2ca02c" fill-opacity="0.75"/>
<circle cx="353.6" cy="441.3" r="4.2" fill="#2ca02c" fill-opacity="0.75"/>
<circle cx="300.1" cy="408.6" r="4.2" fill="#2ca02c" fill-opacity="0.75"/>
<circle cx="286.4" cy="380.3" r="4.2" fill="#2ca02c" fill-opacity="0.75"/>
<circle cx="88.4" cy="407.5" r="4.2" fill="#2ca02c" fill-opacity="0.75"/>
<circle cx="157.3" cy="402.5" r="4.2" fill="#2ca02c" fill-opacity="0.75"/>
<circle cx="267.8" cy="422.5" r="4.2" fill="#2ca02c" fill-opacity="0.75"/>
<circle cx="106.5" cy="413.0" r="4.2" fill="#2ca02c" fill-opacity="0.75"/>
<circle cx="208.0" cy="385.1" r="4.2" fill="#2ca02c" fill-opacity="0.75"/>
<circle cx="467.7" cy="405.9" r="4.2" fill="#2ca02c" fill-opacity="0.75"/>
<circle cx="377.4" cy="396.2" r="4.2" fill="#2ca02c" fill-opacity="0.75"/>
<circle cx="282.9" cy="416.9" r="4.2" fill="#2ca02c" fill-opacity="0.75"/>
<circle cx="259.1" cy="407.8" r="4.2" fill="#2ca02c" fill-opacity="0.75"/>
<circle cx="202.7" cy="401.7" r="4.2" fill="#2ca02c" fill-opacity="0.75"/>
<circle cx="168.7" cy="380.0" r="4.2" fill="#2ca02c" fill-opacity="0.75"/>
<circle cx="140.2" cy="391.6" r="4.2" fill="#2ca02c" fill-opacity="0.75"/>
<circle cx="179.5" cy="417.6" r="4.2" fill="#2ca02c" fill-opacity="0.75"/>
<circle cx="126.8" cy="398.4" r="4.2" fill="#2ca02c" fill-opacity="0.75"/>
<circle cx="159.7" cy="395.8" r="4.2" fill="#2ca02c" fill-opacity="0.75"/>
<circle cx="238.6" cy="408.1" r="4.2" fill="#2ca02c" fill-opacity="0.75"/>
<circle cx="202.8" cy="410.5" r="4.2" fill="#2ca02c" fill-opacity="0.75"/>
<circle cx="166.5" cy="407.1" r="4.2" fill="#2ca02c" fill-opacity="0.75"/>
<circle cx="179.8" cy="397.0" r="4.2" fill="#2ca02c" fill-opacity="0.75"/>
<circle cx="129.7" cy="394.4" r="4.2" fill="#2ca02c" fill-opacity="0.75"/>
<circle cx="323.7" cy="412.9" r="4.2" fill="#2ca02c" fill-opacity="0.75"/>
<circle cx="254.3" cy="407.6" r="4.2" fill="#2ca02c" fill-opacity="0.75"/>
<circle cx="637.5" cy="397.5" r="4.2" fill="#ff7f0e" fill-opacity="0.75"/>
<circle cx="624.5" cy="388.3" r="4.2" fill="#ff7f0e" fill-opacity="0.75"/>
<circle cx="498.1" cy="325.8" r="4.2" fill="#ff7f0e" fill-opacity="0.75"/>
<circle cx="498.8" cy="327.7" r="4.2" fill="#ff7f0e" fill-opacity="0.75"/>
<circle cx="376.5" cy="351.7" r="4.2" fill="#ff7f0e" fill-opacity="0.75"/>
<circle cx="366.9" cy="342.5" r="4.2" fill="#ff7f0e" fill-opacity="0.75"/>
<circle cx="423.8" cy="350.0" r="4.2" fill="#ff7f0e" fill-opacity="0.75"/>
<circle cx="421.6" cy="343.9" r="4.2" fill="#ff7f0e" fill-opacity="0.75"/>
<circle cx="357.4" cy="396.6" r="4.2" fill="#ff7f0e" fill-opacity="0.75"/>
<circle cx="354.8" cy="389.9" r="4.2" fill="#ff7f0e" fill-opacity="0.75"/>
<circle cx="509.3" cy="327.6" r="4.2" fill="#ff7f0e" fill-opacity="0.75"/>
<circle cx="501.2" cy="327.4" r="4.2" fill="#ff7f0e" fill-opacity="0.75"/>
<circle cx="437.5" cy="227.9" r="4.2" fill="#ff7f0e" fill-opacity="0.75"/>
<circle cx="431.0" cy="212.0" r="4.2" fill="#ff7f0e" fill-opacity="0.75"/>
<circle cx="404.5" cy="442.2" r="4.2" fill="#ff7f0e" fill-opacity="0.75"/>
<circle cx="402.0" cy="442.0" r="4.2" fill="#ff7f0e" fill-opacity="0.75"/>
<circle cx="344.9" cy="427.6" r="4.2" fill="#ff7f0e" fill-opacity="0.75"/>
<circle cx="339.2" cy="424.9" r="4.2" fill="#ff7f0e" fill-opacity="0.75"/>
<circle cx="553.4" cy="374.0" r="4.2" fill="#ff7f0e" fill-opacity="0.75"/>
<circle cx="544.9" cy="374.2" r="4.2" fill="#ff7f0e" fill-opacity="0.75"/>
<circle cx="358.6" cy="386.1" r="4.2" fill="#ff7f0e" fill-opacity="0.75"/>
<circle cx="349.1" cy="385.6" r="4.2" fill="#ff7f0e" fill-opacity="0.75"/>
<circle cx="408.0" cy="357.8" r="4.2" fill="#ff7f0e" fill-opacity="0.75"/>
<circle cx="399.1" cy="357.8" r="4.2" fill="#ff7f0e" fill-opacity="0.75"/>
<circle cx="361.3" cy="318.0" r="4.2" fill="#ff7f0e" fill-opacity="0.75"/>
<circle cx="346.2" cy="313.3" r="4.2" fill="#ff7f0e" fill-opacity="0.75"/>
<circle cx="359.1" cy="385.7" r="4.2" fill="#ff7f0e" fill-opacity="0.75"/>
<circle cx="348.2" cy="377.0" r="4.2" fill="#ff7f0e" fill-opacity="0.75"/>
<circle cx="371.2" cy="382.7" r="4.2" fill="#ff7f0e" fill-opacity="0.75"/>
<circle cx="363.3" cy="378.3" r="4.2" fill="#ff7f0e" fill-opacity="0.75"/>
<circle cx="287.0" cy="409.4" r="4.2" fill="#ff7f0e" fill-opacity="0.75"/>
<circle cx="285.2" cy="410.8" r="4.2" fill="#ff7f0e" fill-opacity="0.75"/>
<circle cx="458.3" cy="367.3" r="4.2" fill="#ff7f0e" fill-opacity="0.75"/>
<circle cx="448.3" cy="359.0" r="4.2" fill="#ff7f0e" fill-opacity="0.75"/>
<circle cx="292.5" cy="422.0" r="4.2" fill="#ff7f0e" fill-opacity="0.75"/>
<circle cx="288.8" cy="413.2" r="4.2" fill="#ff7f0e" fill-opacity="0.75"/>
<circle cx="342.6" cy="427.9" r="4.2" fill="#ff7f0e" fill-opacity="0.75"/>
<circle cx="340.4" cy="424.7" r="4.2" fill="#ff7f0e" fill-opacity="0.75"/>
<circle cx="307.4" cy="379.2" r="4.2" fill="#ff7f0e" fill-opacity="0.75"/>
<circle cx="304.1" cy="381.7" r="4.2" fill="#ff7f0e" fill-opacity="0.75"/>
<circle cx="526.8" cy="285.0" r="4.2" fill="#ff7f0e" fill-opacity="0.75"/>
<circle cx="507.2" cy="283.6" r="4.2" fill="#ff7f0e" fill-opacity="0.75"/>
<circle cx="461.5" cy="470.0" r="4.2" fill="#ff7f0e" fill-opacity="0.75"/>
<circle cx="441.2" cy="458.5" r="4.2" fill="#ff7f0e" fill-opacity="0.75"/>
<circle cx="420.8" cy="404.8" r="4.2" fill="#ff7f0e" fill-opacity="0.75"/>
<circle cx="419.3" cy="397.0" r="4.2" fill="#ff7f0e" fill-opacity="0.75"/>
<circle cx="379.4" cy="422.6" r="4.2" fill="#ff7f0e" fill-opacity="0.75"/>
<circle cx="377.8" cy="414.3" r="4.2" fill="#ff7f0e" fill-opacity="0.75"/>
<circle cx="397.1" cy="288.6" r="4.2" fill="#ff7f0e" fill-opacity="0.75"/>
<circle cx="391.3" cy="286.2" r="4.2" fill="#ff7f0e" fill-opacity="0.75"/>
<circle cx="443.1" cy="429.8" r="4.2" fill="#ff7f0e" fill-opacity="0.75"/>
<circle cx="436.9" cy="420.4" r="4.2" fill="#ff7f0e" fill-opacity="0.75"/>
<circle cx="325.9" cy="411.3" r="4.2" fill="#ff7f0e" fill-opacity="0.75"/>
<circle cx="320.6" cy="407.5" r="4.2" fill="#ff7f0e" fill-opacity="0.75"/>
<circle cx="610.5" cy="411.7" r="4.2" fill="#ff7f0e" fill-opacity="0.75"/>
<circle cx="589.3" cy="404.5" r="4.2" fill="#ff7f0e" fill-opacity="0.75"/>
<circle cx="511.3" cy="303.0" r="4.2" fill="#ff7f0e" fill-opacity="0.75"/>
<circle cx="517.4" cy="287.7" r="4.2" fill="#ff7f0e" fill-opacity="0.75"/>
<circle cx="720.0" cy="319.2" r="4.2" fill="#ff7f0e" fill-opacity="0.75"/>
<circle cx="703.3" cy="308.8" r="4.2" fill="#ff7f0e" fill-opacity="0.75"/>
<circle cx="357.6" cy="418.1" r="4.2" fill="#ff7f0e" fill-opacity="0.75"/>
<circle cx="354.7" cy="409.4" r="4.2" fill="#ff7f0e" fill-opacity="0.75"/>
<circle cx="350.0" cy="409.1" r="4.2" fill="#ff7f0e" fill-opacity="0.75"/>
<circle cx="342.0" cy="407.5" r="4.2" fill="#ff7f0e" fill-opacity="0.75"/>
<circle cx="384.2" cy="244.4" r="4.2" fill="#ff7f0e" fill-opacity="0.75"/>
<circle cx="380.8" cy="235.0" r="4.2" fill="#ff7f0e" fill-opacity="0.75"/>
<circle cx="530.3" cy="362.2" r="4.2" fill="#ff7f0e" fill-opacity="0.75"/>
<circle cx="515.5" cy="350.9" r="4.2" fill="#ff7f0e" fill-opacity="0.75"/>
<circle cx="400.8" cy="292.6" r="4.2" fill="#ff7f0e" fill-opacity="0.75"/>
<circle cx="400.0" cy="291.7" r="4.2" fill="#ff7f0e" fill-opacity="0.75"/>
<circle cx="497.0" cy="432.0" r="4.2" fill="#ff7f0e" fill-opacity="0.75"/>
<circle cx="486.8" cy="422.2" r="4.2" fill="#ff7f0e" fill-opacity="0.75"/>
<circle cx="296.6" cy="420.7" r="4.2" fill="#ff7f0e" fill-opacity="0.75"/>
<circle cx="294.4" cy="419.8" r="4.2" fill="#ff7f0e" fill-opacity="0.75"/>
<circle cx="379.7" cy="341.0" r="4.2" fill="#ff7f0e" fill-opacity="0.75"/>
<circle cx="379.5" cy="337.0" r="4.2" fill="#ff7f0e" fill-opacity="0.75"/>
<circle cx="417.5" cy="391.4" r="4.2" fill="#ff7f0e" fill-opacity="0.75"/>
<circle cx="413.1" cy="383.3" r="4.2" fill="#ff7f0e" fill-opacity="0.75"/>
<circle cx="326.4" cy="396.7" r="4.2" fill="#ff7f0e" fill-opacity="0.75"/>
<circle cx="322.9" cy="390.8" r="4.2" fill="#ff7f0e" fill-opacity="0.75"/>
<circle cx="376.0" cy="443.0" r="4.2" fill="#ff7f0e" fill-opacity="0.75"/>
<circle cx="364.7" cy="431.5" r="4.2" fill="#ff7f0e" fill-opacity="0.75"/>
<circle cx="381.7" cy="446.5" r="4.2" fill="#ff7f0e" fill-opacity="0.75"/>
<circle cx="372.6" cy="438.6" r="4.2" fill="#ff7f0e" fill-opacity="0.75"/>
<circle cx="394.5" cy="419.1" r="4.2" fill="#ff7f0e" fill-opacity="0.75"/>
<circle cx="380.7" cy="407.1" r="4.2" fill="#ff7f0e" fill-opacity="0.75"/>
<circle cx="373.0" cy="380.9" r="4.2" fill="#ff7f0e" fill-opacity="0.75"/>
<circle cx="365.6" cy="377.3" r="4.2" fill="#ff7f0e" fill-opacity="0.75"/>
<circle cx="346.6" cy="333.5" r="4.2" fill="#ff7f0e" fill-opacity="0.75"/>
<circle cx="345.1" cy="329.6" r="4.2" fill="#ff7f0e" fill-opacity="0.75"/>
<circle cx="379.1" cy="327.0" r="4.2" fill="#ff7f0e" fill-opacity="0.75"/>
<circle cx="368.2" cy="328.0" r="4.2" fill="#ff7f0e" fill-opacity="0.75"/>
<circle cx="327.8" cy="432.0" r="4.2" fill="#ff7f0e" fill-opacity="0.75"/>
<circle cx="322.1" cy="422.8" r="4.2" fill="#ff7f0e" fill-opacity="0.75"/>
<circle cx="388.8" cy="451.1" r="4.2" fill="#ff7f0e" fill-opacity="0.75"/>
<circle cx="382.7" cy="445.3" r="4.2" fill="#ff7f0e" fill-opacity="0.75"/>
<circle cx="334.8" cy="397.4" r="4.2" fill="#ff7f0e" fill-opacity="0.75"/>
<circle cx="328.9" cy="390.5" r="4.2" fill="#ff7f0e" fill-opacity="0.75"/>
<circle cx="576.0" cy="424.7" r="4.2" fill="#ff7f0e" fill-opacity="0.75"/>
<circle cx="557.4" cy="416.3" r="4.2" fill="#ff7f0e" fill-opacity="0.75"/>
<circle cx="299.2" cy="373.9" r="4.2" fill="#d62728" fill-opacity="0.75"/>
<circle cx="293.9" cy="373.7" r="4.2" fill="#d62728" fill-opacity="0.75"/>
<circle cx="404.7" cy="239.4" r="4.2" fill="#d62728" fill-opacity="0.75"/>
<circle cx="400.1" cy="236.1" r="4.2" fill="#d62728" fill-opacity="0.75"/>
<circle cx="427.0" cy="266.1" r="4.2" fill="#d62728" fill-opacity="0.75"/>
<circle cx="423.5" cy="265.1" r="4.2" fill="#d62728" fill-opacity="0.75"/>
<circle cx="344.5" cy="340.6" r="4.2" fill="#d62728" fill-opacity="0.75"/>
<circle cx="336.8" cy="335.1" r="4.2" fill="#d62728" fill-opacity="0.75"/>
<circle cx="408.0" cy="352.3" r="4.2" fill="#d62728" fill-opacity="0.75"/>
<circle cx="402.4" cy="349.3" r="4.2" fill="#d62728" fill-opacity="0.75"/>
<circle cx="412.6" cy="349.3" r="4.2" fill="#d62728" fill-opacity="0.75"/>
<circle cx="409.6" cy="342.3" r="4.2" fill="#d62728" fill-opacity="0.75"/>
<circle cx="361.1" cy="348.1" r="4.2" fill="#d62728" fill-opacity="0.75"/>
<circle cx="355.4" cy="335.2" r="4.2" fill="#d62728" fill-opacity="0.75"/>
<circle cx="180.8" cy="305.1" r="4.2" fill="#d62728" fill-opacity="0.75"/>
<circle cx="185.0" cy="299.4" r="4.2" fill="#d62728" fill-opacity="0.75"/>
<circle cx="407.1" cy="275.9" r="4.2" fill="#d62728" fill-opacity="0.75"/>
<circle cx="394.2" cy="269.3" r="4.2" fill="#d62728" fill-opacity="0.75"/>
<circle cx="254.0" cy="355.2" r="4.2" fill="#d62728" fill-opacity="0.75"/>
<circle cx="244.0" cy="352.4" r="4.2" fill="#d62728" fill-opacity="0.75"/>
<circle cx="244.7" cy="347.9" r="4.2" fill="#d62728" fill-opacity="0.75"/>
<circle cx="245.4" cy="342.6" r="4.2" fill="#d62728" fill-opacity="0.75"/>
<circle cx="403.4" cy="303.5" r="4.2" fill="#d62728" fill-opacity="0.75"/>
<circle cx="399.1" cy="300.7" r="4.2" fill="#d62728" fill-opacity="0.75"/>
<circle cx="436.2" cy="313.2" r="4.2" fill="#d62728" fill-opacity="0.75"/>
<circle cx="427.2" cy="305.4" r="4.2" fill="#d62728" fill-opacity="0.75"/>
<circle cx="697.6" cy="241.9" r="4.2" fill="#d62728" fill-opacity="0.75"/>
<circle cx="689.9" cy="229.0" r="4.2" fill="#d62728" fill-opacity="0.75"/>
<circle cx="311.7" cy="356.8" r="4.2" fill="#d62728" fill-opacity="0.75"/>
<circle cx="308.7" cy="350.7" r="4.2" fill="#d62728" fill-opacity="0.75"/>
<circle cx="484.6" cy="287.8" r="4.2" fill="#d62728" fill-opacity="0.75"/>
<circle cx="478.8" cy="280.0" r="4.2" fill="#d62728" fill-opacity="0.75"/>
<circle cx="387.7" cy="298.5" r="4.2" fill="#d62728" fill-opacity="0.75"/>
<circle cx="386.3" cy="299.2" r="4.2" fill="#d62728" fill-opacity="0.75"/>
<circle cx="304.4" cy="387.6" r="4.2" fill="#d62728" fill-opacity="0.75"/>
<circle cx="305.6" cy="389.1" r="4.2" fill="#d62728" fill-opacity="0.75"/>
<circle cx="289.3" cy="385.1" r="4.2" fill="#d62728" fill-opacity="0.75"/>
<circle cx="275.2" cy="382.5" r="4.2" fill="#d62728" fill-opacity="0.75"/>
<circle cx="392.6" cy="294.9" r="4.2" fill="#d62728" fill-opacity="0.75"/>
<circle cx="381.5" cy="296.2" r="4.2" fill="#d62728" fill-opacity="0.75"/>
<circle cx="614.3" cy="241.1" r="4.2" fill="#d62728" fill-opacity="0.75"/>
<circle cx="597.6" cy="242.7" r="4.2" fill="#d62728" fill-opacity="0.75"/>
<circle cx="470.6" cy="375.8" r="4.2" fill="#d62728" fill-opacity="0.75"/>
<circle cx="468.0" cy="377.2" r="4.2" fill="#d62728" fill-opacity="0.75"/>
<circle cx="516.0" cy="328.5" r="4.2" fill="#d62728" fill-opacity="0.75"/>
<circle cx="514.4" cy="329.9" r="4.2" fill="#d62728" fill-opacity="0.75"/>
<circle cx="298.4" cy="323.6" r="4.2" fill="#d62728" fill-opacity="0.75"/>
<circle cx="296.1" cy="325.5" r="4.2" fill="#d62728" fill-opacity="0.75"/>
<circle cx="433.4" cy="342.5" r="4.2" fill="#d62728" fill-opacity="0.75"/>
<circle cx="429.1" cy="341.3" r="4.2" fill="#d62728" fill-opacity="0.75"/>
<circle cx="504.9" cy="342.7" r="4.2" fill="#d62728" fill-opacity="0.75"/>
<circle cx="495.7" cy="338.1" r="4.2" fill="#d62728" fill-opacity="0.75"/>
<circle cx="504.5" cy="350.6" r="4.2" fill="#d62728" fill-opacity="0.75"/>
<circle cx="494.6" cy="345.8" r="4.2" fill="#d62728" fill-opacity="0.75"/>
<circle cx="565.1" cy="320.5" r="4.2" fill="#d62728" fill-opacity="0.75"/>
<circle cx="558.4" cy="313.4" r="4.2" fill="#d62728" fill-opacity="0.75"/>
<circle cx="440.3" cy="407.7" r="4.2" fill="#d62728" fill-opacity="0.75"/>
<circle cx="438.0" cy="405.8" r="4.2" fill="#d62728" fill-opacity="0.75"/>
<circle cx="673.2" cy="312.0" r="4.2" fill="#d62728" fill-opacity="0.75"/>
<circle cx="662.8" cy="311.3" r="4.2" fill="#d62728" fill-opacity="0.75"/>
<circle cx="494.5" cy="320.0" r="4.2" fill="#d62728" fill-opacity="0.75"/>
<circle cx="483.3" cy="324.2" r="4.2" fill="#d62728" fill-opacity="0.75"/>
<circle cx="597.4" cy="329.0" r="4.2" fill="#d62728" fill-opacity="0.75"/>
<circle cx="574.5" cy="325.4" r="4.2" fill="#d62728" fill-opacity="0.75"/>
<circle cx="365.9" cy="403.3" r="4.2" fill="#d62728" fill-opacity="0.75"/>
<circle cx="355.3" cy="400.1" r="4.2" fill="#d62728" fill-opacity="0.75"/>
<circle cx="434.9" cy="337.0" r="4.2" fill="#d62728" fill-opacity="0.75"/>
<circle cx="436.1" cy="332.4" r="4.2" fill="#d62728" fill-opacity="0.75"/>
<circle cx="400.2" cy="349.1" r="4.2" fill="#d62728" fill-opacity="0.75"/>
<circle cx="390.4" cy="356.2" r="4.2" fill="#d62728" fill-opacity="0.75"/>
<circle cx="465.2" cy="272.0" r="4.2" fill="#d62728" fill-opacity="0.75"/>
<circle cx="456.5" cy="267.9" r="4.2" fill="#d62728" fill-opacity="0.75"/>
<circle cx="514.1" cy="231.3" r="4.2" fill="#d62728" fill-opacity="0.75"/>
<circle cx="497.4" cy="237.1" r="4.2" fill="#d62728" fill-opacity="0.75"/>
<circle cx="562.9" cy="417.8" r="4.2" fill="#d62728" fill-opacity="0.75"/>
<circle cx="560.6" cy="420.9" r="4.2" fill="#d62728" fill-opacity="0.75"/>
<circle cx="488.0" cy="339.9" r="4.2" fill="#d62728" fill-opacity="0.75"/>
<circle cx="486.4" cy="341.8" r="4.2" fill="#d62728" fill-opacity="0.75"/>
<circle cx="559.0" cy="422.5" r="4.2" fill="#d62728" fill-opacity="0.75"/>
<circle cx="553.4" cy="419.6" r="4.2" fill="#d62728" fill-opacity="0.75"/>
<circle cx="303.5" cy="380.1" r="4.2" fill="#d62728" fill-opacity="0.75"/>
<circle cx="298.6" cy="371.6" r="4.2" fill="#d62728" fill-opacity="0.75"/>
<circle cx="433.2" cy="387.2" r="4.2" fill="#d62728" fill-opacity="0.75"/>
<circle cx="425.1" cy="380.7" r="4.2" fill="#d62728" fill-opacity="0.75"/>
<circle cx="609.3" cy="348.1" r="4.2" fill="#d62728" fill-opacity="0.75"/>
<circle cx="612.5" cy="340.8" r="4.2" fill="#d62728" fill-opacity="0.75"/>
<circle cx="459.4" cy="419.1" r="4.2" fill="#d62728" fill-opacity="0.75"/>
<circle cx="436.3" cy="411.7" r="4.2" fill="#d62728" fill-opacity="0.75"/>
<circle cx="628.4" cy="387.4" r="4.2" fill="#d62728" fill-opacity="0.75"/>
<circle cx="623.4" cy="388.9" r="4.2" fill="#d62728" fill-opacity="0.75"/>
<circle cx="517.8" cy="337.5" r="4.2" fill="#d62728" fill-opacity="0.75"/>
<circle cx="514.0" cy="326.7" r="4.2" fill="#d62728" fill-opacity="0.75"/>
<circle cx="302.5" cy="346.9" r="4.2" fill="#d62728" fill-opacity="0.75"/>
<circle cx="290.8" cy="344.4" r="4.2" fill="#d62728" fill-opacity="0.75"/>
<circle cx="529.1" cy="416.9" r="4.2" fill="#d62728" fill-opacity="0.75"/>
<circle cx="518.6" cy="415.2" r="4.2" fill="#d62728" fill-opacity="0.75"/>
<circle cx="520.9" cy="397.5" r="4.2" fill="#d62728" fill-opacity="0.75"/>
<circle cx="520.0" cy="398.2" r="4.2" fill="#d62728" fill-opacity="0.75"/>
<circle cx="380.4" cy="353.3" r="4.2" fill="#d62728" fill-opacity="0.75"/>
<circle cx="378.8" cy="356.2" r="4.2" fill="#d62728" fill-opacity="0.75"/>
<rect x="750" y="60" width="14" height="14" fill="#7f7f7f"/>
<text x="770" y="72" font-size="14" font-family="Arial">photo</text>
<rect x="750" y="84" width="14" height="14" fill="#17becf"/>
<text x="770" y="96" font-size="14" font-family="Arial">Hayao</text>
<rect x="750" y="108" width="14" height="14" fill="#2ca02c"/>
<text x="770" y="120" font-size="14" font-family="Arial">monet</text>
<rect x="750" y="132" width="14" height="14" fill="#ff7f0e"/>
<text x="770" y="144" font-size="14" font-family="Arial">vangogh</text>
<rect x="750" y="156" width="14" height="14" fill="#d62728"/>
<text x="770" y="168" font-size="14" font-family="Arial">cezanne</text>
</svg>