<svg xmlns="http://www.w3.org/2000/svg" width="900" height="520" viewBox="0 0 900 520">
<rect width="100%" height="100%" fill="white"/>
<text x="450.0" y="28" text-anchor="middle" font-size="22" font-family="Arial">Intra vs Inter KDE: latent_tree_swd_patch_3_25</text>
<rect x="80" y="50" width="790" height="410" fill="none" stroke="black"/>
<polyline fill="none" stroke="#2f6fed" stroke-width="2.5" points="80.0,204.7 83.3,193.1 86.6,181.7 89.9,170.4 93.2,159.4 96.5,148.6 99.8,138.2 103.1,128.2 106.4,118.6 109.7,109.6 113.1,101.0 116.4,93.0 119.7,85.7 123.0,79.0 126.3,72.9 129.6,67.6 132.9,62.9 136.2,59.0 139.5,55.8 142.8,53.3 146.1,51.5 149.4,50.4 152.7,50.0 156.0,50.2 159.3,51.0 162.6,52.4 165.9,54.3 169.2,56.7 172.6,59.5 175.9,62.6 179.2,66.1 182.5,69.9 185.8,73.8 189.1,77.9 192.4,82.1 195.7,86.3 199.0,90.6 202.3,94.8 205.6,98.9 208.9,102.9 212.2,106.8 215.5,110.5 218.8,114.1 222.1,117.4 225.4,120.7 228.7,123.7 232.1,126.6 235.4,129.4 238.7,132.1 242.0,134.6 245.3,137.2 248.6,139.7 251.9,142.2 255.2,144.8 258.5,147.4 261.8,150.2 265.1,153.2 268.4,156.4 271.7,159.8 275.0,163.5 278.3,167.4 281.6,171.7 284.9,176.4 288.2,181.3 291.5,186.6 294.9,192.3 298.2,198.4 301.5,204.8 304.8,211.5 308.1,218.5 311.4,225.9 314.7,233.5 318.0,241.4 321.3,249.5 324.6,257.7 327.9,266.2 331.2,274.7 334.5,283.3 337.8,291.9 341.1,300.6 344.4,309.2 347.7,317.7 351.0,326.1 354.4,334.3 357.7,342.4 361.0,350.2 364.3,357.8 367.6,365.2 370.9,372.3 374.2,379.0 377.5,385.5 380.8,391.7 384.1,397.5 387.4,403.0 390.7,408.2 394.0,413.0 397.3,417.6 400.6,421.8 403.9,425.7 407.2,429.3 410.5,432.6 413.8,435.6 417.2,438.3 420.5,440.8 423.8,443.1 427.1,445.1 430.4,447.0 433.7,448.6 437.0,450.1 440.3,451.4 443.6,452.6 446.9,453.6 450.2,454.5 453.5,455.3 456.8,456.0 460.1,456.6 463.4,457.1 466.7,457.5 470.0,457.9 473.3,458.3 476.7,458.5 480.0,458.8 483.3,459.0 486.6,459.2 489.9,459.3 493.2,459.4 496.5,459.5 499.8,459.6 503.1,459.7 506.4,459.7 509.7,459.8 513.0,459.8 516.3,459.9 519.6,459.9 522.9,459.9 526.2,459.9 529.5,459.9 532.8,460.0 536.2,460.0 539.5,460.0 542.8,460.0 546.1,460.0 549.4,460.0 552.7,460.0 556.0,460.0 559.3,460.0 562.6,460.0 565.9,460.0 569.2,460.0 572.5,460.0 575.8,460.0 579.1,460.0 582.4,460.0 585.7,460.0 589.0,460.0 592.3,460.0 595.6,460.0 599.0,460.0 602.3,460.0 605.6,460.0 608.9,460.0 612.2,460.0 615.5,460.0 618.8,460.0 622.1,460.0 625.4,460.0 628.7,460.0 632.0,460.0 635.3,460.0 638.6,460.0 641.9,460.0 645.2,460.0 648.5,460.0 651.8,460.0 655.1,460.0 658.5,460.0 661.8,460.0 665.1,460.0 668.4,460.0 671.7,460.0 675.0,460.0 678.3,460.0 681.6,460.0 684.9,460.0 688.2,460.0 691.5,460.0 694.8,460.0 698.1,460.0 701.4,460.0 704.7,460.0 708.0,460.0 711.3,460.0 714.6,460.0 717.9,460.0 721.3,460.0 724.6,460.0 727.9,460.0 731.2,460.0 734.5,460.0 737.8,460.0 741.1,460.0 744.4,460.0 747.7,460.0 751.0,460.0 754.3,460.0 757.6,460.0 760.9,460.0 764.2,460.0 767.5,460.0 770.8,460.0 774.1,460.0 777.4,460.0 780.8,460.0 784.1,460.0 787.4,460.0 790.7,460.0 794.0,460.0 797.3,460.0 800.6,460.0 803.9,460.0 807.2,460.0 810.5,460.0 813.8,460.0 817.1,460.0 820.4,460.0 823.7,460.0 827.0,460.0 830.3,460.0 833.6,460.0 836.9,460.0 840.3,460.0 843.6,460.0 846.9,460.0 850.2,460.0 853.5,460.0 856.8,460.0 860.1,460.0 863.4,460.0 866.7,460.0 870.0,460.0"/>
<polyline fill="none" stroke="#d64545" stroke-width="2.5" points="80.0,391.9 83.3,389.7 86.6,387.5 89.9,385.2 93.2,382.9 96.5,380.6 99.8,378.3 103.1,376.0 106.4,373.6 109.7,371.2 113.1,368.7 116.4,366.3 119.7,363.8 123.0,361.3 126.3,358.8 129.6,356.3 132.9,353.7 136.2,351.2 139.5,348.6 142.8,346.0 146.1,343.5 149.4,340.9 152.7,338.3 156.0,335.7 159.3,333.1 162.6,330.5 165.9,327.9 169.2,325.4 172.6,322.8 175.9,320.3 179.2,317.7 182.5,315.2 185.8,312.8 189.1,310.3 192.4,307.9 195.7,305.5 199.0,303.2 202.3,300.9 205.6,298.6 208.9,296.4 212.2,294.2 215.5,292.1 218.8,290.1 222.1,288.1 225.4,286.2 228.7,284.3 232.1,282.5 235.4,280.8 238.7,279.1 242.0,277.5 245.3,276.0 248.6,274.6 251.9,273.2 255.2,272.0 258.5,270.8 261.8,269.7 265.1,268.6 268.4,267.7 271.7,266.8 275.0,266.0 278.3,265.3 281.6,264.7 284.9,264.1 288.2,263.7 291.5,263.3 294.9,262.9 298.2,262.7 301.5,262.5 304.8,262.4 308.1,262.3 311.4,262.3 314.7,262.4 318.0,262.5 321.3,262.7 324.6,262.9 327.9,263.1 331.2,263.4 334.5,263.8 337.8,264.1 341.1,264.6 344.4,265.0 347.7,265.5 351.0,266.0 354.4,266.5 357.7,267.0 361.0,267.5 364.3,268.1 367.6,268.7 370.9,269.3 374.2,269.9 377.5,270.5 380.8,271.1 384.1,271.7 387.4,272.3 390.7,273.0 394.0,273.6 397.3,274.3 400.6,274.9 403.9,275.6 407.2,276.2 410.5,276.9 413.8,277.6 417.2,278.3 420.5,279.0 423.8,279.7 427.1,280.4 430.4,281.1 433.7,281.9 437.0,282.7 440.3,283.5 443.6,284.3 446.9,285.1 450.2,286.0 453.5,286.9 456.8,287.8 460.1,288.8 463.4,289.8 466.7,290.8 470.0,291.9 473.3,293.0 476.7,294.1 480.0,295.3 483.3,296.5 486.6,297.8 489.9,299.1 493.2,300.4 496.5,301.8 499.8,303.2 503.1,304.7 506.4,306.2 509.7,307.8 513.0,309.3 516.3,311.0 519.6,312.6 522.9,314.3 526.2,316.1 529.5,317.9 532.8,319.7 536.2,321.5 539.5,323.4 542.8,325.3 546.1,327.2 549.4,329.1 552.7,331.1 556.0,333.0 559.3,335.0 562.6,337.0 565.9,339.0 569.2,341.0 572.5,343.0 575.8,345.1 579.1,347.1 582.4,349.1 585.7,351.1 589.0,353.1 592.3,355.0 595.6,357.0 599.0,358.9 602.3,360.8 605.6,362.7 608.9,364.6 612.2,366.4 615.5,368.2 618.8,370.0 622.1,371.8 625.4,373.5 628.7,375.1 632.0,376.8 635.3,378.4 638.6,379.9 641.9,381.4 645.2,382.9 648.5,384.4 651.8,385.7 655.1,387.1 658.5,388.4 661.8,389.7 665.1,390.9 668.4,392.1 671.7,393.2 675.0,394.4 678.3,395.4 681.6,396.5 684.9,397.5 688.2,398.4 691.5,399.4 694.8,400.3 698.1,401.2 701.4,402.0 704.7,402.8 708.0,403.6 711.3,404.4 714.6,405.2 717.9,405.9 721.3,406.6 724.6,407.4 727.9,408.0 731.2,408.7 734.5,409.4 737.8,410.1 741.1,410.7 744.4,411.4 747.7,412.0 751.0,412.6 754.3,413.3 757.6,413.9 760.9,414.5 764.2,415.2 767.5,415.8 770.8,416.4 774.1,417.1 777.4,417.7 780.8,418.4 784.1,419.0 787.4,419.6 790.7,420.3 794.0,421.0 797.3,421.6 800.6,422.3 803.9,422.9 807.2,423.6 810.5,424.3 813.8,424.9 817.1,425.6 820.4,426.3 823.7,427.0 827.0,427.6 830.3,428.3 833.6,429.0 836.9,429.7 840.3,430.4 843.6,431.0 846.9,431.7 850.2,432.4 853.5,433.1 856.8,433.7 860.1,434.4 863.4,435.1 866.7,435.7 870.0,436.4"/>
<text x="740" y="70" font-size="14" font-family="Arial" fill="#2f6fed">intra-class</text>
<text x="740" y="92" font-size="14" font-family="Arial" fill="#d64545">inter-class</text>
</svg>