<svg xmlns="http://www.w3.org/2000/svg" width="260" height="220" viewBox="0 0 260 220">
<rect width="100%" height="100%" fill="white"/>
<text x="130.0" y="28" text-anchor="middle" font-size="20" font-family="Arial">Distance Matrix: latent_tree_swd_patch_3_25</text>
<rect x="70" y="50" width="12" height="12" fill="rgb(255,255,255)" stroke="none"/>
<rect x="82" y="50" width="12" height="12" fill="rgb(255,160,160)" stroke="none"/>
<rect x="94" y="50" width="12" height="12" fill="rgb(255,76,76)" stroke="none"/>
<rect x="106" y="50" width="12" height="12" fill="rgb(255,61,61)" stroke="none"/>
<rect x="118" y="50" width="12" height="12" fill="rgb(255,0,0)" stroke="none"/>
<rect x="130" y="50" width="12" height="12" fill="rgb(255,30,30)" stroke="none"/>
<rect x="142" y="50" width="12" height="12" fill="rgb(255,65,65)" stroke="none"/>
<rect x="154" y="50" width="12" height="12" fill="rgb(255,30,30)" stroke="none"/>
<rect x="166" y="50" width="12" height="12" fill="rgb(255,69,69)" stroke="none"/>
<rect x="178" y="50" width="12" height="12" fill="rgb(255,84,84)" stroke="none"/>
<rect x="70" y="62" width="12" height="12" fill="rgb(255,160,160)" stroke="none"/>
<rect x="82" y="62" width="12" height="12" fill="rgb(255,255,255)" stroke="none"/>
<rect x="94" y="62" width="12" height="12" fill="rgb(255,88,88)" stroke="none"/>
<rect x="106" y="62" width="12" height="12" fill="rgb(255,88,88)" stroke="none"/>
<rect x="118" y="62" width="12" height="12" fill="rgb(255,27,27)" stroke="none"/>
<rect x="130" y="62" width="12" height="12" fill="rgb(255,65,65)" stroke="none"/>
<rect x="142" y="62" width="12" height="12" fill="rgb(255,91,91)" stroke="none"/>
<rect x="154" y="62" width="12" height="12" fill="rgb(255,80,80)" stroke="none"/>
<rect x="166" y="62" width="12" height="12" fill="rgb(255,110,110)" stroke="none"/>
<rect x="178" y="62" width="12" height="12" fill="rgb(255,133,133)" stroke="none"/>
<rect x="70" y="74" width="12" height="12" fill="rgb(255,76,76)" stroke="none"/>
<rect x="82" y="74" width="12" height="12" fill="rgb(255,88,88)" stroke="none"/>
<rect x="94" y="74" width="12" height="12" fill="rgb(255,255,255)" stroke="none"/>
<rect x="106" y="74" width="12" height="12" fill="rgb(255,126,126)" stroke="none"/>
<rect x="118" y="74" width="12" height="12" fill="rgb(255,126,126)" stroke="none"/>
<rect x="130" y="74" width="12" height="12" fill="rgb(255,133,133)" stroke="none"/>
<rect x="142" y="74" width="12" height="12" fill="rgb(255,99,99)" stroke="none"/>
<rect x="154" y="74" width="12" height="12" fill="rgb(255,118,118)" stroke="none"/>
<rect x="166" y="74" width="12" height="12" fill="rgb(255,133,133)" stroke="none"/>
<rect x="178" y="74" width="12" height="12" fill="rgb(255,133,133)" stroke="none"/>
<rect x="70" y="86" width="12" height="12" fill="rgb(255,61,61)" stroke="none"/>
<rect x="82" y="86" width="12" height="12" fill="rgb(255,88,88)" stroke="none"/>
<rect x="94" y="86" width="12" height="12" fill="rgb(255,126,126)" stroke="none"/>
<rect x="106" y="86" width="12" height="12" fill="rgb(255,255,255)" stroke="none"/>
<rect x="118" y="86" width="12" height="12" fill="rgb(255,126,126)" stroke="none"/>
<rect x="130" y="86" width="12" height="12" fill="rgb(255,164,164)" stroke="none"/>
<rect x="142" y="86" width="12" height="12" fill="rgb(255,129,129)" stroke="none"/>
<rect x="154" y="86" width="12" height="12" fill="rgb(255,103,103)" stroke="none"/>
<rect x="166" y="86" width="12" height="12" fill="rgb(255,95,95)" stroke="none"/>
<rect x="178" y="86" width="12" height="12" fill="rgb(255,148,148)" stroke="none"/>
<rect x="70" y="98" width="12" height="12" fill="rgb(255,0,0)" stroke="none"/>
<rect x="82" y="98" width="12" height="12" fill="rgb(255,27,27)" stroke="none"/>
<rect x="94" y="98" width="12" height="12" fill="rgb(255,126,126)" stroke="none"/>
<rect x="106" y="98" width="12" height="12" fill="rgb(255,126,126)" stroke="none"/>
<rect x="118" y="98" width="12" height="12" fill="rgb(255,255,255)" stroke="none"/>
<rect x="130" y="98" width="12" height="12" fill="rgb(255,156,156)" stroke="none"/>
<rect x="142" y="98" width="12" height="12" fill="rgb(255,129,129)" stroke="none"/>
<rect x="154" y="98" width="12" height="12" fill="rgb(255,141,141)" stroke="none"/>
<rect x="166" y="98" width="12" height="12" fill="rgb(255,110,110)" stroke="none"/>
<rect x="178" y="98" width="12" height="12" fill="rgb(255,126,126)" stroke="none"/>
<rect x="70" y="110" width="12" height="12" fill="rgb(255,30,30)" stroke="none"/>
<rect x="82" y="110" width="12" height="12" fill="rgb(255,65,65)" stroke="none"/>
<rect x="94" y="110" width="12" height="12" fill="rgb(255,133,133)" stroke="none"/>
<rect x="106" y="110" width="12" height="12" fill="rgb(255,164,164)" stroke="none"/>
<rect x="118" y="110" width="12" height="12" fill="rgb(255,156,156)" stroke="none"/>
<rect x="130" y="110" width="12" height="12" fill="rgb(255,255,255)" stroke="none"/>
<rect x="142" y="110" width="12" height="12" fill="rgb(255,175,175)" stroke="none"/>
<rect x="154" y="110" width="12" height="12" fill="rgb(255,156,156)" stroke="none"/>
<rect x="166" y="110" width="12" height="12" fill="rgb(255,88,88)" stroke="none"/>
<rect x="178" y="110" width="12" height="12" fill="rgb(255,141,141)" stroke="none"/>
<rect x="70" y="122" width="12" height="12" fill="rgb(255,65,65)" stroke="none"/>
<rect x="82" y="122" width="12" height="12" fill="rgb(255,91,91)" stroke="none"/>
<rect x="94" y="122" width="12" height="12" fill="rgb(255,99,99)" stroke="none"/>
<rect x="106" y="122" width="12" height="12" fill="rgb(255,129,129)" stroke="none"/>
<rect x="118" y="122" width="12" height="12" fill="rgb(255,129,129)" stroke="none"/>
<rect x="130" y="122" width="12" height="12" fill="rgb(255,175,175)" stroke="none"/>
<rect x="142" y="122" width="12" height="12" fill="rgb(255,255,255)" stroke="none"/>
<rect x="154" y="122" width="12" height="12" fill="rgb(255,137,137)" stroke="none"/>
<rect x="166" y="122" width="12" height="12" fill="rgb(255,99,99)" stroke="none"/>
<rect x="178" y="122" width="12" height="12" fill="rgb(255,137,137)" stroke="none"/>
<rect x="70" y="134" width="12" height="12" fill="rgb(255,30,30)" stroke="none"/>
<rect x="82" y="134" width="12" height="12" fill="rgb(255,80,80)" stroke="none"/>
<rect x="94" y="134" width="12" height="12" fill="rgb(255,118,118)" stroke="none"/>
<rect x="106" y="134" width="12" height="12" fill="rgb(255,103,103)" stroke="none"/>
<rect x="118" y="134" width="12" height="12" fill="rgb(255,141,141)" stroke="none"/>
<rect x="130" y="134" width="12" height="12" fill="rgb(255,156,156)" stroke="none"/>
<rect x="142" y="134" width="12" height="12" fill="rgb(255,137,137)" stroke="none"/>
<rect x="154" y="134" width="12" height="12" fill="rgb(255,255,255)" stroke="none"/>
<rect x="166" y="134" width="12" height="12" fill="rgb(255,156,156)" stroke="none"/>
<rect x="178" y="134" width="12" height="12" fill="rgb(255,171,171)" stroke="none"/>
<rect x="70" y="146" width="12" height="12" fill="rgb(255,69,69)" stroke="none"/>
<rect x="82" y="146" width="12" height="12" fill="rgb(255,110,110)" stroke="none"/>
<rect x="94" y="146" width="12" height="12" fill="rgb(255,133,133)" stroke="none"/>
<rect x="106" y="146" width="12" height="12" fill="rgb(255,95,95)" stroke="none"/>
<rect x="118" y="146" width="12" height="12" fill="rgb(255,110,110)" stroke="none"/>
<rect x="130" y="146" width="12" height="12" fill="rgb(255,88,88)" stroke="none"/>
<rect x="142" y="146" width="12" height="12" fill="rgb(255,99,99)" stroke="none"/>
<rect x="154" y="146" width="12" height="12" fill="rgb(255,156,156)" stroke="none"/>
<rect x="166" y="146" width="12" height="12" fill="rgb(255,255,255)" stroke="none"/>
<rect x="178" y="146" width="12" height="12" fill="rgb(255,171,171)" stroke="none"/>
<rect x="70" y="158" width="12" height="12" fill="rgb(255,84,84)" stroke="none"/>
<rect x="82" y="158" width="12" height="12" fill="rgb(255,133,133)" stroke="none"/>
<rect x="94" y="158" width="12" height="12" fill="rgb(255,133,133)" stroke="none"/>
<rect x="106" y="158" width="12" height="12" fill="rgb(255,148,148)" stroke="none"/>
<rect x="118" y="158" width="12" height="12" fill="rgb(255,126,126)" stroke="none"/>
<rect x="130" y="158" width="12" height="12" fill="rgb(255,141,141)" stroke="none"/>
<rect x="142" y="158" width="12" height="12" fill="rgb(255,137,137)" stroke="none"/>
<rect x="154" y="158" width="12" height="12" fill="rgb(255,171,171)" stroke="none"/>
<rect x="166" y="158" width="12" height="12" fill="rgb(255,171,171)" stroke="none"/>
<rect x="178" y="158" width="12" height="12" fill="rgb(255,255,255)" stroke="none"/>
<rect x="70" y="50" width="120" height="120" fill="none" stroke="black"/>
</svg>