<svg xmlns="http://www.w3.org/2000/svg" width="260" height="220" viewBox="0 0 260 220">
<rect width="100%" height="100%" fill="white"/>
<text x="130.0" y="28" text-anchor="middle" font-size="20" font-family="Arial">Distance Matrix: pixel_vgg_gram</text>
<rect x="70" y="50" width="12" height="12" fill="rgb(255,255,255)" stroke="none"/>
<rect x="82" y="50" width="12" height="12" fill="rgb(255,136,136)" stroke="none"/>
<rect x="94" y="50" width="12" height="12" fill="rgb(255,72,72)" stroke="none"/>
<rect x="106" y="50" width="12" height="12" fill="rgb(255,23,23)" stroke="none"/>
<rect x="118" y="50" width="12" height="12" fill="rgb(255,123,123)" stroke="none"/>
<rect x="130" y="50" width="12" height="12" fill="rgb(255,109,109)" stroke="none"/>
<rect x="142" y="50" width="12" height="12" fill="rgb(255,87,87)" stroke="none"/>
<rect x="154" y="50" width="12" height="12" fill="rgb(255,81,81)" stroke="none"/>
<rect x="166" y="50" width="12" height="12" fill="rgb(255,132,132)" stroke="none"/>
<rect x="178" y="50" width="12" height="12" fill="rgb(255,134,134)" stroke="none"/>
<rect x="70" y="62" width="12" height="12" fill="rgb(255,136,136)" stroke="none"/>
<rect x="82" y="62" width="12" height="12" fill="rgb(255,255,255)" stroke="none"/>
<rect x="94" y="62" width="12" height="12" fill="rgb(255,73,73)" stroke="none"/>
<rect x="106" y="62" width="12" height="12" fill="rgb(255,20,20)" stroke="none"/>
<rect x="118" y="62" width="12" height="12" fill="rgb(255,123,123)" stroke="none"/>
<rect x="130" y="62" width="12" height="12" fill="rgb(255,111,111)" stroke="none"/>
<rect x="142" y="62" width="12" height="12" fill="rgb(255,89,89)" stroke="none"/>
<rect x="154" y="62" width="12" height="12" fill="rgb(255,89,89)" stroke="none"/>
<rect x="166" y="62" width="12" height="12" fill="rgb(255,126,126)" stroke="none"/>
<rect x="178" y="62" width="12" height="12" fill="rgb(255,123,123)" stroke="none"/>
<rect x="70" y="74" width="12" height="12" fill="rgb(255,72,72)" stroke="none"/>
<rect x="82" y="74" width="12" height="12" fill="rgb(255,73,73)" stroke="none"/>
<rect x="94" y="74" width="12" height="12" fill="rgb(255,255,255)" stroke="none"/>
<rect x="106" y="74" width="12" height="12" fill="rgb(255,30,30)" stroke="none"/>
<rect x="118" y="74" width="12" height="12" fill="rgb(255,111,111)" stroke="none"/>
<rect x="130" y="74" width="12" height="12" fill="rgb(255,99,99)" stroke="none"/>
<rect x="142" y="74" width="12" height="12" fill="rgb(255,91,91)" stroke="none"/>
<rect x="154" y="74" width="12" height="12" fill="rgb(255,93,93)" stroke="none"/>
<rect x="166" y="74" width="12" height="12" fill="rgb(255,115,115)" stroke="none"/>
<rect x="178" y="74" width="12" height="12" fill="rgb(255,117,117)" stroke="none"/>
<rect x="70" y="86" width="12" height="12" fill="rgb(255,23,23)" stroke="none"/>
<rect x="82" y="86" width="12" height="12" fill="rgb(255,20,20)" stroke="none"/>
<rect x="94" y="86" width="12" height="12" fill="rgb(255,30,30)" stroke="none"/>
<rect x="106" y="86" width="12" height="12" fill="rgb(255,255,255)" stroke="none"/>
<rect x="118" y="86" width="12" height="12" fill="rgb(255,34,34)" stroke="none"/>
<rect x="130" y="86" width="12" height="12" fill="rgb(255,44,44)" stroke="none"/>
<rect x="142" y="86" width="12" height="12" fill="rgb(255,5,5)" stroke="none"/>
<rect x="154" y="86" width="12" height="12" fill="rgb(255,0,0)" stroke="none"/>
<rect x="166" y="86" width="12" height="12" fill="rgb(255,28,28)" stroke="none"/>
<rect x="178" y="86" width="12" height="12" fill="rgb(255,35,35)" stroke="none"/>
<rect x="70" y="98" width="12" height="12" fill="rgb(255,123,123)" stroke="none"/>
<rect x="82" y="98" width="12" height="12" fill="rgb(255,123,123)" stroke="none"/>
<rect x="94" y="98" width="12" height="12" fill="rgb(255,111,111)" stroke="none"/>
<rect x="106" y="98" width="12" height="12" fill="rgb(255,34,34)" stroke="none"/>
<rect x="118" y="98" width="12" height="12" fill="rgb(255,255,255)" stroke="none"/>
<rect x="130" y="98" width="12" height="12" fill="rgb(255,143,143)" stroke="none"/>
<rect x="142" y="98" width="12" height="12" fill="rgb(255,134,134)" stroke="none"/>
<rect x="154" y="98" width="12" height="12" fill="rgb(255,132,132)" stroke="none"/>
<rect x="166" y="98" width="12" height="12" fill="rgb(255,153,153)" stroke="none"/>
<rect x="178" y="98" width="12" height="12" fill="rgb(255,155,155)" stroke="none"/>
<rect x="70" y="110" width="12" height="12" fill="rgb(255,109,109)" stroke="none"/>
<rect x="82" y="110" width="12" height="12" fill="rgb(255,111,111)" stroke="none"/>
<rect x="94" y="110" width="12" height="12" fill="rgb(255,99,99)" stroke="none"/>
<rect x="106" y="110" width="12" height="12" fill="rgb(255,44,44)" stroke="none"/>
<rect x="118" y="110" width="12" height="12" fill="rgb(255,143,143)" stroke="none"/>
<rect x="130" y="110" width="12" height="12" fill="rgb(255,255,255)" stroke="none"/>
<rect x="142" y="110" width="12" height="12" fill="rgb(255,109,109)" stroke="none"/>
<rect x="154" y="110" width="12" height="12" fill="rgb(255,106,106)" stroke="none"/>
<rect x="166" y="110" width="12" height="12" fill="rgb(255,137,137)" stroke="none"/>
<rect x="178" y="110" width="12" height="12" fill="rgb(255,138,138)" stroke="none"/>
<rect x="70" y="122" width="12" height="12" fill="rgb(255,87,87)" stroke="none"/>
<rect x="82" y="122" width="12" height="12" fill="rgb(255,89,89)" stroke="none"/>
<rect x="94" y="122" width="12" height="12" fill="rgb(255,91,91)" stroke="none"/>
<rect x="106" y="122" width="12" height="12" fill="rgb(255,5,5)" stroke="none"/>
<rect x="118" y="122" width="12" height="12" fill="rgb(255,134,134)" stroke="none"/>
<rect x="130" y="122" width="12" height="12" fill="rgb(255,109,109)" stroke="none"/>
<rect x="142" y="122" width="12" height="12" fill="rgb(255,255,255)" stroke="none"/>
<rect x="154" y="122" width="12" height="12" fill="rgb(255,164,164)" stroke="none"/>
<rect x="166" y="122" width="12" height="12" fill="rgb(255,124,124)" stroke="none"/>
<rect x="178" y="122" width="12" height="12" fill="rgb(255,130,130)" stroke="none"/>
<rect x="70" y="134" width="12" height="12" fill="rgb(255,81,81)" stroke="none"/>
<rect x="82" y="134" width="12" height="12" fill="rgb(255,89,89)" stroke="none"/>
<rect x="94" y="134" width="12" height="12" fill="rgb(255,93,93)" stroke="none"/>
<rect x="106" y="134" width="12" height="12" fill="rgb(255,0,0)" stroke="none"/>
<rect x="118" y="134" width="12" height="12" fill="rgb(255,132,132)" stroke="none"/>
<rect x="130" y="134" width="12" height="12" fill="rgb(255,106,106)" stroke="none"/>
<rect x="142" y="134" width="12" height="12" fill="rgb(255,164,164)" stroke="none"/>
<rect x="154" y="134" width="12" height="12" fill="rgb(255,255,255)" stroke="none"/>
<rect x="166" y="134" width="12" height="12" fill="rgb(255,125,125)" stroke="none"/>
<rect x="178" y="134" width="12" height="12" fill="rgb(255,123,123)" stroke="none"/>
<rect x="70" y="146" width="12" height="12" fill="rgb(255,132,132)" stroke="none"/>
<rect x="82" y="146" width="12" height="12" fill="rgb(255,126,126)" stroke="none"/>
<rect x="94" y="146" width="12" height="12" fill="rgb(255,115,115)" stroke="none"/>
<rect x="106" y="146" width="12" height="12" fill="rgb(255,28,28)" stroke="none"/>
<rect x="118" y="146" width="12" height="12" fill="rgb(255,153,153)" stroke="none"/>
<rect x="130" y="146" width="12" height="12" fill="rgb(255,137,137)" stroke="none"/>
<rect x="142" y="146" width="12" height="12" fill="rgb(255,124,124)" stroke="none"/>
<rect x="154" y="146" width="12" height="12" fill="rgb(255,125,125)" stroke="none"/>
<rect x="166" y="146" width="12" height="12" fill="rgb(255,255,255)" stroke="none"/>
<rect x="178" y="146" width="12" height="12" fill="rgb(255,202,202)" stroke="none"/>
<rect x="70" y="158" width="12" height="12" fill="rgb(255,134,134)" stroke="none"/>
<rect x="82" y="158" width="12" height="12" fill="rgb(255,123,123)" stroke="none"/>
<rect x="94" y="158" width="12" height="12" fill="rgb(255,117,117)" stroke="none"/>
<rect x="106" y="158" width="12" height="12" fill="rgb(255,35,35)" stroke="none"/>
<rect x="118" y="158" width="12" height="12" fill="rgb(255,155,155)" stroke="none"/>
<rect x="130" y="158" width="12" height="12" fill="rgb(255,138,138)" stroke="none"/>
<rect x="142" y="158" width="12" height="12" fill="rgb(255,130,130)" stroke="none"/>
<rect x="154" y="158" width="12" height="12" fill="rgb(255,123,123)" stroke="none"/>
<rect x="166" y="158" width="12" height="12" fill="rgb(255,202,202)" stroke="none"/>
<rect x="178" y="158" width="12" height="12" fill="rgb(255,255,255)" stroke="none"/>
<rect x="70" y="50" width="120" height="120" fill="none" stroke="black"/>
</svg>