<svg xmlns="http://www.w3.org/2000/svg" width="900" height="520" viewBox="0 0 900 520">
<rect width="100%" height="100%" fill="white"/>
<text x="450.0" y="28" text-anchor="middle" font-size="22" font-family="Arial">Intra vs Inter KDE: pixel_vgg_gram</text>
<rect x="80" y="50" width="790" height="410" fill="none" stroke="black"/>
<polyline fill="none" stroke="#2f6fed" stroke-width="2.5" points="80.0,288.8 83.3,286.6 86.6,284.4 89.9,282.2 93.2,280.1 96.5,278.0 99.8,275.8 103.1,273.7 106.4,271.7 109.7,269.6 113.1,267.6 116.4,265.6 119.7,263.6 123.0,261.6 126.3,259.7 129.6,257.8 132.9,255.9 136.2,254.1 139.5,252.3 142.8,250.5 146.1,248.8 149.4,247.1 152.7,245.4 156.0,243.8 159.3,242.2 162.6,240.7 165.9,239.2 169.2,237.7 172.6,236.3 175.9,234.9 179.2,233.6 182.5,232.3 185.8,231.1 189.1,229.9 192.4,228.8 195.7,227.7 199.0,226.7 202.3,225.7 205.6,224.8 208.9,223.9 212.2,223.1 215.5,222.4 218.8,221.7 222.1,221.0 225.4,220.5 228.7,219.9 232.1,219.5 235.4,219.1 238.7,218.7 242.0,218.4 245.3,218.2 248.6,218.1 251.9,218.0 255.2,217.9 258.5,217.9 261.8,218.0 265.1,218.2 268.4,218.4 271.7,218.6 275.0,219.0 278.3,219.4 281.6,219.8 284.9,220.3 288.2,220.9 291.5,221.5 294.9,222.2 298.2,222.9 301.5,223.7 304.8,224.6 308.1,225.5 311.4,226.5 314.7,227.5 318.0,228.6 321.3,229.7 324.6,230.9 327.9,232.1 331.2,233.4 334.5,234.7 337.8,236.1 341.1,237.5 344.4,239.0 347.7,240.5 351.0,242.0 354.4,243.6 357.7,245.3 361.0,246.9 364.3,248.6 367.6,250.4 370.9,252.1 374.2,253.9 377.5,255.8 380.8,257.6 384.1,259.5 387.4,261.4 390.7,263.4 394.0,265.3 397.3,267.3 400.6,269.3 403.9,271.3 407.2,273.3 410.5,275.3 413.8,277.4 417.2,279.4 420.5,281.5 423.8,283.5 427.1,285.6 430.4,287.7 433.7,289.7 437.0,291.8 440.3,293.9 443.6,295.9 446.9,298.0 450.2,300.0 453.5,302.0 456.8,304.1 460.1,306.1 463.4,308.1 466.7,310.0 470.0,312.0 473.3,313.9 476.7,315.9 480.0,317.8 483.3,319.6 486.6,321.5 489.9,323.3 493.2,325.1 496.5,326.9 499.8,328.6 503.1,330.4 506.4,332.0 509.7,333.7 513.0,335.3 516.3,336.9 519.6,338.5 522.9,340.0 526.2,341.5 529.5,343.0 532.8,344.4 536.2,345.8 539.5,347.2 542.8,348.5 546.1,349.8 549.4,351.0 552.7,352.2 556.0,353.4 559.3,354.6 562.6,355.7 565.9,356.7 569.2,357.8 572.5,358.8 575.8,359.7 579.1,360.7 582.4,361.6 585.7,362.4 589.0,363.3 592.3,364.1 595.6,364.9 599.0,365.6 602.3,366.3 605.6,367.0 608.9,367.6 612.2,368.3 615.5,368.9 618.8,369.4 622.1,370.0 625.4,370.5 628.7,371.0 632.0,371.5 635.3,371.9 638.6,372.4 641.9,372.8 645.2,373.2 648.5,373.6 651.8,373.9 655.1,374.3 658.5,374.6 661.8,374.9 665.1,375.2 668.4,375.5 671.7,375.8 675.0,376.1 678.3,376.4 681.6,376.6 684.9,376.9 688.2,377.1 691.5,377.4 694.8,377.6 698.1,377.9 701.4,378.1 704.7,378.4 708.0,378.6 711.3,378.8 714.6,379.1 717.9,379.4 721.3,379.6 724.6,379.9 727.9,380.1 731.2,380.4 734.5,380.7 737.8,381.0 741.1,381.3 744.4,381.6 747.7,381.9 751.0,382.3 754.3,382.6 757.6,383.0 760.9,383.3 764.2,383.7 767.5,384.1 770.8,384.5 774.1,384.9 777.4,385.4 780.8,385.8 784.1,386.3 787.4,386.7 790.7,387.2 794.0,387.7 797.3,388.2 800.6,388.8 803.9,389.3 807.2,389.9 810.5,390.4 813.8,391.0 817.1,391.6 820.4,392.2 823.7,392.9 827.0,393.5 830.3,394.2 833.6,394.8 836.9,395.5 840.3,396.2 843.6,396.9 846.9,397.6 850.2,398.3 853.5,399.1 856.8,399.8 860.1,400.6 863.4,401.4 866.7,402.1 870.0,402.9"/>
<polyline fill="none" stroke="#d64545" stroke-width="2.5" points="80.0,456.5 83.3,456.2 86.6,455.8 89.9,455.3 93.2,454.8 96.5,454.3 99.8,453.8 103.1,453.1 106.4,452.5 109.7,451.8 113.1,451.0 116.4,450.1 119.7,449.2 123.0,448.3 126.3,447.2 129.6,446.1 132.9,444.9 136.2,443.6 139.5,442.2 142.8,440.7 146.1,439.2 149.4,437.5 152.7,435.7 156.0,433.8 159.3,431.8 162.6,429.6 165.9,427.4 169.2,425.0 172.6,422.4 175.9,419.7 179.2,416.9 182.5,414.0 185.8,410.8 189.1,407.5 192.4,404.1 195.7,400.5 199.0,396.7 202.3,392.8 205.6,388.6 208.9,384.3 212.2,379.8 215.5,375.2 218.8,370.3 222.1,365.3 225.4,360.1 228.7,354.7 232.1,349.2 235.4,343.4 238.7,337.5 242.0,331.4 245.3,325.2 248.6,318.7 251.9,312.2 255.2,305.4 258.5,298.6 261.8,291.5 265.1,284.4 268.4,277.2 271.7,269.8 275.0,262.3 278.3,254.8 281.6,247.1 284.9,239.5 288.2,231.7 291.5,224.0 294.9,216.2 298.2,208.4 301.5,200.6 304.8,192.9 308.1,185.2 311.4,177.6 314.7,170.0 318.0,162.6 321.3,155.2 324.6,148.0 327.9,141.0 331.2,134.1 334.5,127.4 337.8,120.9 341.1,114.6 344.4,108.5 347.7,102.7 351.0,97.1 354.4,91.8 357.7,86.8 361.0,82.0 364.3,77.6 367.6,73.5 370.9,69.7 374.2,66.2 377.5,63.1 380.8,60.3 384.1,57.8 387.4,55.7 390.7,53.9 394.0,52.4 397.3,51.3 400.6,50.5 403.9,50.1 407.2,50.0 410.5,50.2 413.8,50.8 417.2,51.6 420.5,52.8 423.8,54.2 427.1,55.9 430.4,58.0 433.7,60.2 437.0,62.8 440.3,65.6 443.6,68.6 446.9,71.8 450.2,75.3 453.5,78.9 456.8,82.8 460.1,86.8 463.4,91.0 466.7,95.3 470.0,99.8 473.3,104.4 476.7,109.1 480.0,114.0 483.3,118.9 486.6,124.0 489.9,129.1 493.2,134.3 496.5,139.6 499.8,144.9 503.1,150.3 506.4,155.7 509.7,161.1 513.0,166.6 516.3,172.1 519.6,177.5 522.9,183.0 526.2,188.5 529.5,194.0 532.8,199.5 536.2,204.9 539.5,210.3 542.8,215.7 546.1,221.0 549.4,226.3 552.7,231.5 556.0,236.7 559.3,241.8 562.6,246.8 565.9,251.7 569.2,256.5 572.5,261.3 575.8,266.0 579.1,270.5 582.4,274.9 585.7,279.3 589.0,283.5 592.3,287.5 595.6,291.5 599.0,295.3 602.3,298.9 605.6,302.4 608.9,305.8 612.2,309.0 615.5,312.0 618.8,314.9 622.1,317.6 625.4,320.2 628.7,322.6 632.0,324.8 635.3,326.9 638.6,328.8 641.9,330.5 645.2,332.1 648.5,333.6 651.8,334.8 655.1,335.9 658.5,336.9 661.8,337.7 665.1,338.4 668.4,339.0 671.7,339.4 675.0,339.7 678.3,339.9 681.6,340.0 684.9,340.0 688.2,340.0 691.5,339.8 694.8,339.6 698.1,339.3 701.4,338.9 704.7,338.6 708.0,338.2 711.3,337.7 714.6,337.3 717.9,336.8 721.3,336.4 724.6,335.9 727.9,335.5 731.2,335.1 734.5,334.7 737.8,334.4 741.1,334.1 744.4,333.9 747.7,333.7 751.0,333.7 754.3,333.6 757.6,333.7 760.9,333.8 764.2,334.0 767.5,334.3 770.8,334.7 774.1,335.2 777.4,335.8 780.8,336.5 784.1,337.2 787.4,338.1 790.7,339.0 794.0,340.0 797.3,341.2 800.6,342.4 803.9,343.7 807.2,345.1 810.5,346.5 813.8,348.1 817.1,349.7 820.4,351.4 823.7,353.1 827.0,354.9 830.3,356.8 833.6,358.8 836.9,360.8 840.3,362.8 843.6,364.9 846.9,367.0 850.2,369.2 853.5,371.4 856.8,373.6 860.1,375.8 863.4,378.1 866.7,380.4 870.0,382.7"/>
<text x="740" y="70" font-size="14" font-family="Arial" fill="#2f6fed">intra-class</text>
<text x="740" y="92" font-size="14" font-family="Arial" fill="#d64545">inter-class</text>
</svg>