<svg xmlns="http://www.w3.org/2000/svg" width="260" height="220" viewBox="0 0 260 220">
<rect width="100%" height="100%" fill="white"/>
<text x="130.0" y="28" text-anchor="middle" font-size="20" font-family="Arial">Distance Matrix: latent_swd_patch_3_25</text>
<rect x="70" y="50" width="12" height="12" fill="rgb(255,255,255)" stroke="none"/>
<rect x="82" y="50" width="12" height="12" fill="rgb(255,95,95)" stroke="none"/>
<rect x="94" y="50" width="12" height="12" fill="rgb(255,114,114)" stroke="none"/>
<rect x="106" y="50" width="12" height="12" fill="rgb(255,38,38)" stroke="none"/>
<rect x="118" y="50" width="12" height="12" fill="rgb(255,75,75)" stroke="none"/>
<rect x="130" y="50" width="12" height="12" fill="rgb(255,42,42)" stroke="none"/>
<rect x="142" y="50" width="12" height="12" fill="rgb(255,91,91)" stroke="none"/>
<rect x="154" y="50" width="12" height="12" fill="rgb(255,83,83)" stroke="none"/>
<rect x="166" y="50" width="12" height="12" fill="rgb(255,57,57)" stroke="none"/>
<rect x="178" y="50" width="12" height="12" fill="rgb(255,45,45)" stroke="none"/>
<rect x="70" y="62" width="12" height="12" fill="rgb(255,95,95)" stroke="none"/>
<rect x="82" y="62" width="12" height="12" fill="rgb(255,255,255)" stroke="none"/>
<rect x="94" y="62" width="12" height="12" fill="rgb(255,131,131)" stroke="none"/>
<rect x="106" y="62" width="12" height="12" fill="rgb(255,9,9)" stroke="none"/>
<rect x="118" y="62" width="12" height="12" fill="rgb(255,142,142)" stroke="none"/>
<rect x="130" y="62" width="12" height="12" fill="rgb(255,106,106)" stroke="none"/>
<rect x="142" y="62" width="12" height="12" fill="rgb(255,100,100)" stroke="none"/>
<rect x="154" y="62" width="12" height="12" fill="rgb(255,107,107)" stroke="none"/>
<rect x="166" y="62" width="12" height="12" fill="rgb(255,35,35)" stroke="none"/>
<rect x="178" y="62" width="12" height="12" fill="rgb(255,27,27)" stroke="none"/>
<rect x="70" y="74" width="12" height="12" fill="rgb(255,114,114)" stroke="none"/>
<rect x="82" y="74" width="12" height="12" fill="rgb(255,131,131)" stroke="none"/>
<rect x="94" y="74" width="12" height="12" fill="rgb(255,255,255)" stroke="none"/>
<rect x="106" y="74" width="12" height="12" fill="rgb(255,44,44)" stroke="none"/>
<rect x="118" y="74" width="12" height="12" fill="rgb(255,121,121)" stroke="none"/>
<rect x="130" y="74" width="12" height="12" fill="rgb(255,91,91)" stroke="none"/>
<rect x="142" y="74" width="12" height="12" fill="rgb(255,129,129)" stroke="none"/>
<rect x="154" y="74" width="12" height="12" fill="rgb(255,113,113)" stroke="none"/>
<rect x="166" y="74" width="12" height="12" fill="rgb(255,70,70)" stroke="none"/>
<rect x="178" y="74" width="12" height="12" fill="rgb(255,62,62)" stroke="none"/>
<rect x="70" y="86" width="12" height="12" fill="rgb(255,38,38)" stroke="none"/>
<rect x="82" y="86" width="12" height="12" fill="rgb(255,9,9)" stroke="none"/>
<rect x="94" y="86" width="12" height="12" fill="rgb(255,44,44)" stroke="none"/>
<rect x="106" y="86" width="12" height="12" fill="rgb(255,255,255)" stroke="none"/>
<rect x="118" y="86" width="12" height="12" fill="rgb(255,27,27)" stroke="none"/>
<rect x="130" y="86" width="12" height="12" fill="rgb(255,31,31)" stroke="none"/>
<rect x="142" y="86" width="12" height="12" fill="rgb(255,14,14)" stroke="none"/>
<rect x="154" y="86" width="12" height="12" fill="rgb(255,0,0)" stroke="none"/>
<rect x="166" y="86" width="12" height="12" fill="rgb(255,28,28)" stroke="none"/>
<rect x="178" y="86" width="12" height="12" fill="rgb(255,26,26)" stroke="none"/>
<rect x="70" y="98" width="12" height="12" fill="rgb(255,75,75)" stroke="none"/>
<rect x="82" y="98" width="12" height="12" fill="rgb(255,142,142)" stroke="none"/>
<rect x="94" y="98" width="12" height="12" fill="rgb(255,121,121)" stroke="none"/>
<rect x="106" y="98" width="12" height="12" fill="rgb(255,27,27)" stroke="none"/>
<rect x="118" y="98" width="12" height="12" fill="rgb(255,255,255)" stroke="none"/>
<rect x="130" y="98" width="12" height="12" fill="rgb(255,177,177)" stroke="none"/>
<rect x="142" y="98" width="12" height="12" fill="rgb(255,139,139)" stroke="none"/>
<rect x="154" y="98" width="12" height="12" fill="rgb(255,152,152)" stroke="none"/>
<rect x="166" y="98" width="12" height="12" fill="rgb(255,76,76)" stroke="none"/>
<rect x="178" y="98" width="12" height="12" fill="rgb(255,70,70)" stroke="none"/>
<rect x="70" y="110" width="12" height="12" fill="rgb(255,42,42)" stroke="none"/>
<rect x="82" y="110" width="12" height="12" fill="rgb(255,106,106)" stroke="none"/>
<rect x="94" y="110" width="12" height="12" fill="rgb(255,91,91)" stroke="none"/>
<rect x="106" y="110" width="12" height="12" fill="rgb(255,31,31)" stroke="none"/>
<rect x="118" y="110" width="12" height="12" fill="rgb(255,177,177)" stroke="none"/>
<rect x="130" y="110" width="12" height="12" fill="rgb(255,255,255)" stroke="none"/>
<rect x="142" y="110" width="12" height="12" fill="rgb(255,104,104)" stroke="none"/>
<rect x="154" y="110" width="12" height="12" fill="rgb(255,113,113)" stroke="none"/>
<rect x="166" y="110" width="12" height="12" fill="rgb(255,73,73)" stroke="none"/>
<rect x="178" y="110" width="12" height="12" fill="rgb(255,68,68)" stroke="none"/>
<rect x="70" y="122" width="12" height="12" fill="rgb(255,91,91)" stroke="none"/>
<rect x="82" y="122" width="12" height="12" fill="rgb(255,100,100)" stroke="none"/>
<rect x="94" y="122" width="12" height="12" fill="rgb(255,129,129)" stroke="none"/>
<rect x="106" y="122" width="12" height="12" fill="rgb(255,14,14)" stroke="none"/>
<rect x="118" y="122" width="12" height="12" fill="rgb(255,139,139)" stroke="none"/>
<rect x="130" y="122" width="12" height="12" fill="rgb(255,104,104)" stroke="none"/>
<rect x="142" y="122" width="12" height="12" fill="rgb(255,255,255)" stroke="none"/>
<rect x="154" y="122" width="12" height="12" fill="rgb(255,194,194)" stroke="none"/>
<rect x="166" y="122" width="12" height="12" fill="rgb(255,136,136)" stroke="none"/>
<rect x="178" y="122" width="12" height="12" fill="rgb(255,127,127)" stroke="none"/>
<rect x="70" y="134" width="12" height="12" fill="rgb(255,83,83)" stroke="none"/>
<rect x="82" y="134" width="12" height="12" fill="rgb(255,107,107)" stroke="none"/>
<rect x="94" y="134" width="12" height="12" fill="rgb(255,113,113)" stroke="none"/>
<rect x="106" y="134" width="12" height="12" fill="rgb(255,0,0)" stroke="none"/>
<rect x="118" y="134" width="12" height="12" fill="rgb(255,152,152)" stroke="none"/>
<rect x="130" y="134" width="12" height="12" fill="rgb(255,113,113)" stroke="none"/>
<rect x="142" y="134" width="12" height="12" fill="rgb(255,194,194)" stroke="none"/>
<rect x="154" y="134" width="12" height="12" fill="rgb(255,255,255)" stroke="none"/>
<rect x="166" y="134" width="12" height="12" fill="rgb(255,132,132)" stroke="none"/>
<rect x="178" y="134" width="12" height="12" fill="rgb(255,127,127)" stroke="none"/>
<rect x="70" y="146" width="12" height="12" fill="rgb(255,57,57)" stroke="none"/>
<rect x="82" y="146" width="12" height="12" fill="rgb(255,35,35)" stroke="none"/>
<rect x="94" y="146" width="12" height="12" fill="rgb(255,70,70)" stroke="none"/>
<rect x="106" y="146" width="12" height="12" fill="rgb(255,28,28)" stroke="none"/>
<rect x="118" y="146" width="12" height="12" fill="rgb(255,76,76)" stroke="none"/>
<rect x="130" y="146" width="12" height="12" fill="rgb(255,73,73)" stroke="none"/>
<rect x="142" y="146" width="12" height="12" fill="rgb(255,136,136)" stroke="none"/>
<rect x="154" y="146" width="12" height="12" fill="rgb(255,132,132)" stroke="none"/>
<rect x="166" y="146" width="12" height="12" fill="rgb(255,255,255)" stroke="none"/>
<rect x="178" y="146" width="12" height="12" fill="rgb(255,210,210)" stroke="none"/>
<rect x="70" y="158" width="12" height="12" fill="rgb(255,45,45)" stroke="none"/>
<rect x="82" y="158" width="12" height="12" fill="rgb(255,27,27)" stroke="none"/>
<rect x="94" y="158" width="12" height="12" fill="rgb(255,62,62)" stroke="none"/>
<rect x="106" y="158" width="12" height="12" fill="rgb(255,26,26)" stroke="none"/>
<rect x="118" y="158" width="12" height="12" fill="rgb(255,70,70)" stroke="none"/>
<rect x="130" y="158" width="12" height="12" fill="rgb(255,68,68)" stroke="none"/>
<rect x="142" y="158" width="12" height="12" fill="rgb(255,127,127)" stroke="none"/>
<rect x="154" y="158" width="12" height="12" fill="rgb(255,127,127)" stroke="none"/>
<rect x="166" y="158" width="12" height="12" fill="rgb(255,210,210)" stroke="none"/>
<rect x="178" y="158" width="12" height="12" fill="rgb(255,255,255)" stroke="none"/>
<rect x="70" y="50" width="120" height="120" fill="none" stroke="black"/>
</svg>