<svg xmlns="http://www.w3.org/2000/svg" width="900" height="520" viewBox="0 0 900 520">
<rect width="100%" height="100%" fill="white"/>
<text x="450.0" y="28" text-anchor="middle" font-size="22" font-family="Arial">Intra vs Inter KDE: latent_tree_swd_patch_3_25</text>
<rect x="80" y="50" width="790" height="410" fill="none" stroke="black"/>
<polyline fill="none" stroke="#2f6fed" stroke-width="2.5" points="80.0,460.0 83.3,460.0 86.6,460.0 89.9,460.0 93.2,460.0 96.5,460.0 99.8,460.0 103.1,460.0 106.4,460.0 109.7,460.0 113.1,460.0 116.4,460.0 119.7,460.0 123.0,460.0 126.3,460.0 129.6,460.0 132.9,460.0 136.2,460.0 139.5,460.0 142.8,460.0 146.1,460.0 149.4,460.0 152.7,460.0 156.0,460.0 159.3,460.0 162.6,460.0 165.9,460.0 169.2,460.0 172.6,460.0 175.9,460.0 179.2,460.0 182.5,460.0 185.8,460.0 189.1,460.0 192.4,460.0 195.7,460.0 199.0,459.9 202.3,459.9 205.6,459.9 208.9,459.9 212.2,459.9 215.5,459.9 218.8,459.8 222.1,459.8 225.4,459.8 228.7,459.7 232.1,459.7 235.4,459.6 238.7,459.5 242.0,459.4 245.3,459.3 248.6,459.2 251.9,459.1 255.2,459.0 258.5,458.8 261.8,458.6 265.1,458.4 268.4,458.1 271.7,457.8 275.0,457.5 278.3,457.1 281.6,456.7 284.9,456.3 288.2,455.8 291.5,455.2 294.9,454.5 298.2,453.8 301.5,453.0 304.8,452.1 308.1,451.1 311.4,450.0 314.7,448.9 318.0,447.5 321.3,446.1 324.6,444.5 327.9,442.8 331.2,441.0 334.5,439.0 337.8,436.8 341.1,434.4 344.4,431.9 347.7,429.2 351.0,426.3 354.4,423.2 357.7,419.8 361.0,416.3 364.3,412.6 367.6,408.6 370.9,404.4 374.2,400.0 377.5,395.4 380.8,390.6 384.1,385.5 387.4,380.3 390.7,374.8 394.0,369.1 397.3,363.2 400.6,357.1 403.9,350.9 407.2,344.5 410.5,337.9 413.8,331.2 417.2,324.3 420.5,317.4 423.8,310.4 427.1,303.2 430.4,296.1 433.7,288.8 437.0,281.6 440.3,274.3 443.6,267.1 446.9,259.9 450.2,252.7 453.5,245.6 456.8,238.6 460.1,231.7 463.4,224.9 466.7,218.3 470.0,211.7 473.3,205.3 476.7,199.1 480.0,193.1 483.3,187.2 486.6,181.5 489.9,175.9 493.2,170.6 496.5,165.4 499.8,160.4 503.1,155.6 506.4,150.9 509.7,146.5 513.0,142.1 516.3,137.9 519.6,133.9 522.9,130.0 526.2,126.2 529.5,122.5 532.8,118.9 536.2,115.4 539.5,111.9 542.8,108.6 546.1,105.3 549.4,102.1 552.7,98.9 556.0,95.7 559.3,92.6 562.6,89.6 565.9,86.6 569.2,83.6 572.5,80.7 575.8,77.8 579.1,75.1 582.4,72.3 585.7,69.7 589.0,67.2 592.3,64.8 595.6,62.5 599.0,60.3 602.3,58.3 605.6,56.5 608.9,54.9 612.2,53.5 615.5,52.3 618.8,51.3 622.1,50.6 625.4,50.2 628.7,50.0 632.0,50.1 635.3,50.6 638.6,51.3 641.9,52.4 645.2,53.8 648.5,55.5 651.8,57.6 655.1,60.0 658.5,62.7 661.8,65.8 665.1,69.1 668.4,72.8 671.7,76.8 675.0,81.1 678.3,85.7 681.6,90.5 684.9,95.7 688.2,101.0 691.5,106.6 694.8,112.5 698.1,118.5 701.4,124.8 704.7,131.2 708.0,137.8 711.3,144.6 714.6,151.5 717.9,158.5 721.3,165.7 724.6,172.9 727.9,180.3 731.2,187.7 734.5,195.2 737.8,202.7 741.1,210.3 744.4,217.9 747.7,225.5 751.0,233.2 754.3,240.8 757.6,248.5 760.9,256.1 764.2,263.6 767.5,271.2 770.8,278.6 774.1,286.0 777.4,293.3 780.8,300.6 784.1,307.7 787.4,314.7 790.7,321.6 794.0,328.4 797.3,335.0 800.6,341.5 803.9,347.8 807.2,354.0 810.5,359.9 813.8,365.7 817.1,371.4 820.4,376.8 823.7,382.0 827.0,387.1 830.3,391.9 833.6,396.5 836.9,400.9 840.3,405.2 843.6,409.2 846.9,413.0 850.2,416.6 853.5,420.0 856.8,423.2 860.1,426.2 863.4,429.1 866.7,431.7 870.0,434.2"/>
<polyline fill="none" stroke="#d64545" stroke-width="2.5" points="80.0,433.7 83.3,432.8 86.6,431.8 89.9,430.9 93.2,429.9 96.5,428.8 99.8,427.8 103.1,426.7 106.4,425.5 109.7,424.3 113.1,423.1 116.4,421.8 119.7,420.5 123.0,419.1 126.3,417.7 129.6,416.2 132.9,414.7 136.2,413.1 139.5,411.4 142.8,409.8 146.1,408.0 149.4,406.2 152.7,404.4 156.0,402.5 159.3,400.5 162.6,398.5 165.9,396.5 169.2,394.4 172.6,392.2 175.9,390.0 179.2,387.7 182.5,385.4 185.8,383.1 189.1,380.7 192.4,378.3 195.7,375.8 199.0,373.3 202.3,370.7 205.6,368.1 208.9,365.5 212.2,362.8 215.5,360.1 218.8,357.4 222.1,354.6 225.4,351.8 228.7,349.0 232.1,346.2 235.4,343.4 238.7,340.5 242.0,337.6 245.3,334.7 248.6,331.8 251.9,328.8 255.2,325.9 258.5,322.9 261.8,319.9 265.1,317.0 268.4,314.0 271.7,311.0 275.0,308.0 278.3,305.0 281.6,302.0 284.9,299.1 288.2,296.1 291.5,293.1 294.9,290.2 298.2,287.2 301.5,284.3 304.8,281.4 308.1,278.5 311.4,275.6 314.7,272.8 318.0,269.9 321.3,267.2 324.6,264.4 327.9,261.7 331.2,259.0 334.5,256.4 337.8,253.8 341.1,251.2 344.4,248.8 347.7,246.3 351.0,244.0 354.4,241.6 357.7,239.4 361.0,237.2 364.3,235.1 367.6,233.0 370.9,231.1 374.2,229.2 377.5,227.4 380.8,225.6 384.1,224.0 387.4,222.4 390.7,220.9 394.0,219.5 397.3,218.2 400.6,216.9 403.9,215.8 407.2,214.7 410.5,213.7 413.8,212.8 417.2,212.0 420.5,211.2 423.8,210.5 427.1,209.9 430.4,209.4 433.7,209.0 437.0,208.6 440.3,208.3 443.6,208.1 446.9,207.9 450.2,207.8 453.5,207.7 456.8,207.7 460.1,207.8 463.4,207.9 466.7,208.1 470.0,208.3 473.3,208.5 476.7,208.8 480.0,209.2 483.3,209.6 486.6,210.0 489.9,210.5 493.2,211.0 496.5,211.5 499.8,212.1 503.1,212.7 506.4,213.3 509.7,214.0 513.0,214.7 516.3,215.5 519.6,216.2 522.9,217.0 526.2,217.9 529.5,218.8 532.8,219.7 536.2,220.7 539.5,221.6 542.8,222.7 546.1,223.7 549.4,224.9 552.7,226.0 556.0,227.2 559.3,228.5 562.6,229.7 565.9,231.1 569.2,232.5 572.5,233.9 575.8,235.4 579.1,236.9 582.4,238.5 585.7,240.1 589.0,241.8 592.3,243.5 595.6,245.2 599.0,247.1 602.3,248.9 605.6,250.8 608.9,252.8 612.2,254.8 615.5,256.8 618.8,258.9 622.1,261.1 625.4,263.2 628.7,265.4 632.0,267.7 635.3,269.9 638.6,272.2 641.9,274.5 645.2,276.9 648.5,279.3 651.8,281.7 655.1,284.1 658.5,286.5 661.8,288.9 665.1,291.4 668.4,293.8 671.7,296.3 675.0,298.7 678.3,301.2 681.6,303.6 684.9,306.1 688.2,308.5 691.5,310.9 694.8,313.3 698.1,315.7 701.4,318.1 704.7,320.4 708.0,322.8 711.3,325.1 714.6,327.4 717.9,329.7 721.3,331.9 724.6,334.1 727.9,336.3 731.2,338.5 734.5,340.7 737.8,342.8 741.1,344.9 744.4,346.9 747.7,349.0 751.0,351.0 754.3,353.0 757.6,355.0 760.9,356.9 764.2,358.9 767.5,360.8 770.8,362.7 774.1,364.5 777.4,366.4 780.8,368.2 784.1,370.0 787.4,371.8 790.7,373.6 794.0,375.4 797.3,377.1 800.6,378.9 803.9,380.6 807.2,382.3 810.5,384.0 813.8,385.7 817.1,387.4 820.4,389.0 823.7,390.7 827.0,392.4 830.3,394.0 833.6,395.6 836.9,397.2 840.3,398.9 843.6,400.5 846.9,402.0 850.2,403.6 853.5,405.2 856.8,406.7 860.1,408.3 863.4,409.8 866.7,411.3 870.0,412.8"/>
<text x="740" y="70" font-size="14" font-family="Arial" fill="#2f6fed">intra-class</text>
<text x="740" y="92" font-size="14" font-family="Arial" fill="#d64545">inter-class</text>
</svg>