<svg xmlns="http://www.w3.org/2000/svg" width="900" height="520" viewBox="0 0 900 520">
<rect width="100%" height="100%" fill="white"/>
<text x="450.0" y="28" text-anchor="middle" font-size="22" font-family="Arial">Intra vs Inter KDE: latent_swd_patch_3_25</text>
<rect x="80" y="50" width="790" height="410" fill="none" stroke="black"/>
<polyline fill="none" stroke="#2f6fed" stroke-width="2.5" points="80.0,203.5 83.3,201.9 86.6,200.3 89.9,198.8 93.2,197.3 96.5,195.9 99.8,194.6 103.1,193.3 106.4,192.1 109.7,190.9 113.1,189.8 116.4,188.8 119.7,187.8 123.0,187.0 126.3,186.1 129.6,185.4 132.9,184.7 136.2,184.0 139.5,183.5 142.8,183.0 146.1,182.5 149.4,182.1 152.7,181.8 156.0,181.6 159.3,181.4 162.6,181.3 165.9,181.2 169.2,181.2 172.6,181.3 175.9,181.4 179.2,181.6 182.5,181.8 185.8,182.1 189.1,182.4 192.4,182.8 195.7,183.3 199.0,183.8 202.3,184.4 205.6,185.0 208.9,185.6 212.2,186.3 215.5,187.1 218.8,187.9 222.1,188.7 225.4,189.6 228.7,190.5 232.1,191.5 235.4,192.4 238.7,193.5 242.0,194.5 245.3,195.6 248.6,196.8 251.9,197.9 255.2,199.1 258.5,200.3 261.8,201.5 265.1,202.8 268.4,204.0 271.7,205.3 275.0,206.6 278.3,207.9 281.6,209.3 284.9,210.6 288.2,212.0 291.5,213.3 294.9,214.7 298.2,216.1 301.5,217.4 304.8,218.8 308.1,220.2 311.4,221.6 314.7,223.0 318.0,224.3 321.3,225.7 324.6,227.1 327.9,228.4 331.2,229.8 334.5,231.1 337.8,232.4 341.1,233.7 344.4,235.0 347.7,236.3 351.0,237.6 354.4,238.8 357.7,240.1 361.0,241.3 364.3,242.5 367.6,243.7 370.9,244.8 374.2,246.0 377.5,247.1 380.8,248.2 384.1,249.3 387.4,250.3 390.7,251.3 394.0,252.4 397.3,253.3 400.6,254.3 403.9,255.2 407.2,256.1 410.5,257.0 413.8,257.9 417.2,258.7 420.5,259.5 423.8,260.3 427.1,261.1 430.4,261.9 433.7,262.6 437.0,263.3 440.3,264.0 443.6,264.6 446.9,265.3 450.2,265.9 453.5,266.5 456.8,267.0 460.1,267.6 463.4,268.1 466.7,268.7 470.0,269.2 473.3,269.6 476.7,270.1 480.0,270.6 483.3,271.0 486.6,271.5 489.9,271.9 493.2,272.3 496.5,272.7 499.8,273.1 503.1,273.4 506.4,273.8 509.7,274.2 513.0,274.5 516.3,274.9 519.6,275.2 522.9,275.6 526.2,275.9 529.5,276.3 532.8,276.6 536.2,276.9 539.5,277.3 542.8,277.6 546.1,278.0 549.4,278.3 552.7,278.7 556.0,279.1 559.3,279.4 562.6,279.8 565.9,280.2 569.2,280.6 572.5,281.0 575.8,281.4 579.1,281.8 582.4,282.3 585.7,282.7 589.0,283.2 592.3,283.7 595.6,284.2 599.0,284.7 602.3,285.2 605.6,285.7 608.9,286.3 612.2,286.9 615.5,287.5 618.8,288.1 622.1,288.7 625.4,289.4 628.7,290.0 632.0,290.7 635.3,291.5 638.6,292.2 641.9,292.9 645.2,293.7 648.5,294.5 651.8,295.4 655.1,296.2 658.5,297.1 661.8,297.9 665.1,298.9 668.4,299.8 671.7,300.7 675.0,301.7 678.3,302.7 681.6,303.7 684.9,304.8 688.2,305.8 691.5,306.9 694.8,308.0 698.1,309.2 701.4,310.3 704.7,311.5 708.0,312.7 711.3,313.9 714.6,315.1 717.9,316.4 721.3,317.6 724.6,318.9 727.9,320.2 731.2,321.5 734.5,322.9 737.8,324.2 741.1,325.6 744.4,327.0 747.7,328.4 751.0,329.8 754.3,331.2 757.6,332.7 760.9,334.1 764.2,335.6 767.5,337.1 770.8,338.5 774.1,340.0 777.4,341.5 780.8,343.1 784.1,344.6 787.4,346.1 790.7,347.6 794.0,349.2 797.3,350.7 800.6,352.3 803.9,353.8 807.2,355.4 810.5,357.0 813.8,358.5 817.1,360.1 820.4,361.7 823.7,363.2 827.0,364.8 830.3,366.3 833.6,367.9 836.9,369.5 840.3,371.0 843.6,372.6 846.9,374.1 850.2,375.7 853.5,377.2 856.8,378.7 860.1,380.2 863.4,381.7 866.7,383.2 870.0,384.7"/>
<polyline fill="none" stroke="#d64545" stroke-width="2.5" points="80.0,458.8 83.3,458.7 86.6,458.5 89.9,458.3 93.2,458.1 96.5,457.9 99.8,457.6 103.1,457.4 106.4,457.1 109.7,456.7 113.1,456.3 116.4,455.9 119.7,455.5 123.0,455.0 126.3,454.4 129.6,453.8 132.9,453.2 136.2,452.5 139.5,451.7 142.8,450.9 146.1,450.0 149.4,449.0 152.7,447.9 156.0,446.8 159.3,445.6 162.6,444.2 165.9,442.8 169.2,441.3 172.6,439.6 175.9,437.9 179.2,436.0 182.5,434.0 185.8,431.8 189.1,429.6 192.4,427.1 195.7,424.6 199.0,421.9 202.3,419.0 205.6,416.0 208.9,412.8 212.2,409.4 215.5,405.9 218.8,402.1 222.1,398.3 225.4,394.2 228.7,389.9 232.1,385.5 235.4,380.9 238.7,376.1 242.0,371.1 245.3,365.9 248.6,360.6 251.9,355.0 255.2,349.3 258.5,343.5 261.8,337.4 265.1,331.2 268.4,324.9 271.7,318.4 275.0,311.7 278.3,304.9 281.6,298.0 284.9,291.0 288.2,283.9 291.5,276.7 294.9,269.4 298.2,262.0 301.5,254.6 304.8,247.1 308.1,239.6 311.4,232.1 314.7,224.5 318.0,217.0 321.3,209.5 324.6,202.1 327.9,194.7 331.2,187.4 334.5,180.1 337.8,173.0 341.1,165.9 344.4,159.0 347.7,152.3 351.0,145.6 354.4,139.2 357.7,132.9 361.0,126.8 364.3,120.9 367.6,115.2 370.9,109.7 374.2,104.4 377.5,99.4 380.8,94.6 384.1,90.1 387.4,85.8 390.7,81.7 394.0,77.9 397.3,74.4 400.6,71.1 403.9,68.0 407.2,65.3 410.5,62.7 413.8,60.4 417.2,58.4 420.5,56.6 423.8,55.0 427.1,53.7 430.4,52.6 433.7,51.7 437.0,51.0 440.3,50.5 443.6,50.1 446.9,50.0 450.2,50.0 453.5,50.2 456.8,50.5 460.1,51.0 463.4,51.6 466.7,52.3 470.0,53.1 473.3,54.0 476.7,55.0 480.0,56.1 483.3,57.2 486.6,58.4 489.9,59.6 493.2,60.9 496.5,62.2 499.8,63.5 503.1,64.8 506.4,66.2 509.7,67.5 513.0,68.9 516.3,70.2 519.6,71.5 522.9,72.9 526.2,74.2 529.5,75.4 532.8,76.7 536.2,77.9 539.5,79.2 542.8,80.4 546.1,81.5 549.4,82.7 552.7,83.8 556.0,84.9 559.3,86.0 562.6,87.1 565.9,88.1 569.2,89.2 572.5,90.2 575.8,91.2 579.1,92.2 582.4,93.2 585.7,94.2 589.0,95.2 592.3,96.1 595.6,97.1 599.0,98.0 602.3,98.9 605.6,99.8 608.9,100.8 612.2,101.7 615.5,102.5 618.8,103.4 622.1,104.3 625.4,105.1 628.7,105.9 632.0,106.8 635.3,107.5 638.6,108.3 641.9,109.1 645.2,109.8 648.5,110.5 651.8,111.2 655.1,111.8 658.5,112.5 661.8,113.1 665.1,113.7 668.4,114.3 671.7,114.8 675.0,115.4 678.3,115.9 681.6,116.5 684.9,117.1 688.2,117.7 691.5,118.2 694.8,118.9 698.1,119.5 701.4,120.2 704.7,120.9 708.0,121.7 711.3,122.6 714.6,123.5 717.9,124.5 721.3,125.6 724.6,126.8 727.9,128.1 731.2,129.5 734.5,131.1 737.8,132.7 741.1,134.6 744.4,136.5 747.7,138.6 751.0,140.9 754.3,143.3 757.6,145.9 760.9,148.7 764.2,151.6 767.5,154.7 770.8,158.0 774.1,161.4 777.4,165.0 780.8,168.8 784.1,172.8 787.4,176.9 790.7,181.2 794.0,185.7 797.3,190.3 800.6,195.0 803.9,199.9 807.2,204.9 810.5,210.0 813.8,215.3 817.1,220.6 820.4,226.1 823.7,231.6 827.0,237.2 830.3,242.8 833.6,248.5 836.9,254.3 840.3,260.1 843.6,265.9 846.9,271.7 850.2,277.5 853.5,283.3 856.8,289.1 860.1,294.9 863.4,300.6 866.7,306.3 870.0,311.9"/>
<text x="740" y="70" font-size="14" font-family="Arial" fill="#2f6fed">intra-class</text>
<text x="740" y="92" font-size="14" font-family="Arial" fill="#d64545">inter-class</text>
</svg>