<svg xmlns="http://www.w3.org/2000/svg" width="900" height="520" viewBox="0 0 900 520">
<rect width="100%" height="100%" fill="white"/>
<text x="450.0" y="28" text-anchor="middle" font-size="22" font-family="Arial">Intra vs Inter KDE: latent_gram</text>
<rect x="80" y="50" width="790" height="410" fill="none" stroke="black"/>
<polyline fill="none" stroke="#2f6fed" stroke-width="2.5" points="80.0,200.6 83.3,197.6 86.6,194.6 89.9,191.7 93.2,189.0 96.5,186.3 99.8,183.7 103.1,181.3 106.4,178.9 109.7,176.7 113.1,174.6 116.4,172.6 119.7,170.8 123.0,169.0 126.3,167.4 129.6,166.0 132.9,164.7 136.2,163.5 139.5,162.4 142.8,161.5 146.1,160.7 149.4,160.1 152.7,159.6 156.0,159.2 159.3,159.0 162.6,158.9 165.9,159.0 169.2,159.2 172.6,159.6 175.9,160.1 179.2,160.7 182.5,161.5 185.8,162.4 189.1,163.5 192.4,164.7 195.7,166.0 199.0,167.5 202.3,169.1 205.6,170.8 208.9,172.6 212.2,174.6 215.5,176.7 218.8,178.8 222.1,181.1 225.4,183.6 228.7,186.1 232.1,188.7 235.4,191.4 238.7,194.2 242.0,197.1 245.3,200.0 248.6,203.1 251.9,206.2 255.2,209.4 258.5,212.6 261.8,215.9 265.1,219.3 268.4,222.7 271.7,226.2 275.0,229.7 278.3,233.2 281.6,236.7 284.9,240.3 288.2,243.9 291.5,247.5 294.9,251.2 298.2,254.8 301.5,258.4 304.8,262.1 308.1,265.7 311.4,269.3 314.7,272.9 318.0,276.5 321.3,280.0 324.6,283.5 327.9,287.0 331.2,290.4 334.5,293.8 337.8,297.2 341.1,300.5 344.4,303.7 347.7,306.9 351.0,310.1 354.4,313.1 357.7,316.1 361.0,319.1 364.3,322.0 367.6,324.8 370.9,327.5 374.2,330.2 377.5,332.7 380.8,335.2 384.1,337.7 387.4,340.0 390.7,342.3 394.0,344.5 397.3,346.6 400.6,348.6 403.9,350.5 407.2,352.4 410.5,354.1 413.8,355.8 417.2,357.4 420.5,359.0 423.8,360.4 427.1,361.8 430.4,363.1 433.7,364.3 437.0,365.4 440.3,366.5 443.6,367.5 446.9,368.4 450.2,369.2 453.5,370.0 456.8,370.7 460.1,371.4 463.4,372.0 466.7,372.5 470.0,373.0 473.3,373.4 476.7,373.8 480.0,374.1 483.3,374.4 486.6,374.7 489.9,374.9 493.2,375.0 496.5,375.1 499.8,375.2 503.1,375.3 506.4,375.4 509.7,375.4 513.0,375.4 516.3,375.3 519.6,375.3 522.9,375.3 526.2,375.2 529.5,375.1 532.8,375.1 536.2,375.0 539.5,374.9 542.8,374.8 546.1,374.8 549.4,374.7 552.7,374.7 556.0,374.6 559.3,374.6 562.6,374.6 565.9,374.6 569.2,374.6 572.5,374.7 575.8,374.7 579.1,374.8 582.4,374.9 585.7,375.1 589.0,375.3 592.3,375.4 595.6,375.7 599.0,375.9 602.3,376.2 605.6,376.5 608.9,376.9 612.2,377.3 615.5,377.7 618.8,378.1 622.1,378.6 625.4,379.1 628.7,379.7 632.0,380.3 635.3,380.9 638.6,381.5 641.9,382.2 645.2,382.9 648.5,383.7 651.8,384.4 655.1,385.2 658.5,386.1 661.8,386.9 665.1,387.8 668.4,388.7 671.7,389.6 675.0,390.6 678.3,391.6 681.6,392.6 684.9,393.6 688.2,394.6 691.5,395.7 694.8,396.8 698.1,397.9 701.4,399.0 704.7,400.1 708.0,401.2 711.3,402.4 714.6,403.5 717.9,404.7 721.3,405.8 724.6,407.0 727.9,408.2 731.2,409.3 734.5,410.5 737.8,411.7 741.1,412.9 744.4,414.0 747.7,415.2 751.0,416.3 754.3,417.5 757.6,418.6 760.9,419.8 764.2,420.9 767.5,422.0 770.8,423.1 774.1,424.2 777.4,425.3 780.8,426.4 784.1,427.4 787.4,428.5 790.7,429.5 794.0,430.5 797.3,431.5 800.6,432.4 803.9,433.4 807.2,434.3 810.5,435.2 813.8,436.1 817.1,437.0 820.4,437.9 823.7,438.7 827.0,439.5 830.3,440.3 833.6,441.1 836.9,441.8 840.3,442.6 843.6,443.3 846.9,444.0 850.2,444.7 853.5,445.3 856.8,445.9 860.1,446.6 863.4,447.2 866.7,447.7 870.0,448.3"/>
<polyline fill="none" stroke="#d64545" stroke-width="2.5" points="80.0,447.9 83.3,446.7 86.6,445.4 89.9,444.1 93.2,442.6 96.5,441.0 99.8,439.3 103.1,437.5 106.4,435.5 109.7,433.5 113.1,431.3 116.4,428.9 119.7,426.4 123.0,423.8 126.3,421.0 129.6,418.1 132.9,415.0 136.2,411.7 139.5,408.2 142.8,404.6 146.1,400.8 149.4,396.9 152.7,392.7 156.0,388.4 159.3,383.9 162.6,379.2 165.9,374.4 169.2,369.3 172.6,364.1 175.9,358.7 179.2,353.2 182.5,347.4 185.8,341.5 189.1,335.4 192.4,329.2 195.7,322.8 199.0,316.3 202.3,309.6 205.6,302.8 208.9,295.9 212.2,288.8 215.5,281.7 218.8,274.4 222.1,267.1 225.4,259.7 228.7,252.2 232.1,244.6 235.4,237.0 238.7,229.4 242.0,221.8 245.3,214.1 248.6,206.5 251.9,198.9 255.2,191.3 258.5,183.8 261.8,176.4 265.1,169.0 268.4,161.7 271.7,154.5 275.0,147.5 278.3,140.6 281.6,133.9 284.9,127.3 288.2,120.9 291.5,114.7 294.9,108.8 298.2,103.0 301.5,97.5 304.8,92.3 308.1,87.3 311.4,82.6 314.7,78.2 318.0,74.0 321.3,70.2 324.6,66.7 327.9,63.5 331.2,60.7 334.5,58.1 337.8,55.9 341.1,54.1 344.4,52.6 347.7,51.4 351.0,50.6 354.4,50.1 357.7,50.0 361.0,50.2 364.3,50.7 367.6,51.6 370.9,52.8 374.2,54.3 377.5,56.1 380.8,58.2 384.1,60.6 387.4,63.3 390.7,66.2 394.0,69.4 397.3,72.9 400.6,76.6 403.9,80.5 407.2,84.6 410.5,88.9 413.8,93.3 417.2,98.0 420.5,102.8 423.8,107.7 427.1,112.8 430.4,117.9 433.7,123.2 437.0,128.6 440.3,134.0 443.6,139.5 446.9,145.0 450.2,150.6 453.5,156.2 456.8,161.8 460.1,167.4 463.4,173.0 466.7,178.6 470.0,184.2 473.3,189.8 476.7,195.3 480.0,200.8 483.3,206.2 486.6,211.6 489.9,216.9 493.2,222.1 496.5,227.3 499.8,232.4 503.1,237.4 506.4,242.3 509.7,247.2 513.0,251.9 516.3,256.6 519.6,261.1 522.9,265.6 526.2,270.0 529.5,274.3 532.8,278.5 536.2,282.6 539.5,286.6 542.8,290.5 546.1,294.2 549.4,297.9 552.7,301.6 556.0,305.1 559.3,308.5 562.6,311.8 565.9,315.0 569.2,318.2 572.5,321.2 575.8,324.2 579.1,327.1 582.4,329.9 585.7,332.7 589.0,335.3 592.3,337.9 595.6,340.4 599.0,342.9 602.3,345.2 605.6,347.5 608.9,349.8 612.2,352.0 615.5,354.1 618.8,356.2 622.1,358.3 625.4,360.2 628.7,362.2 632.0,364.1 635.3,365.9 638.6,367.7 641.9,369.5 645.2,371.2 648.5,372.9 651.8,374.6 655.1,376.2 658.5,377.8 661.8,379.3 665.1,380.8 668.4,382.3 671.7,383.8 675.0,385.2 678.3,386.6 681.6,387.9 684.9,389.3 688.2,390.6 691.5,391.8 694.8,393.1 698.1,394.3 701.4,395.4 704.7,396.6 708.0,397.7 711.3,398.7 714.6,399.8 717.9,400.7 721.3,401.7 724.6,402.6 727.9,403.5 731.2,404.3 734.5,405.2 737.8,405.9 741.1,406.6 744.4,407.3 747.7,408.0 751.0,408.6 754.3,409.2 757.6,409.7 760.9,410.2 764.2,410.7 767.5,411.1 770.8,411.5 774.1,411.9 777.4,412.2 780.8,412.6 784.1,412.9 787.4,413.1 790.7,413.4 794.0,413.6 797.3,413.8 800.6,414.0 803.9,414.3 807.2,414.5 810.5,414.6 813.8,414.8 817.1,415.1 820.4,415.3 823.7,415.5 827.0,415.7 830.3,416.0 833.6,416.3 836.9,416.5 840.3,416.9 843.6,417.2 846.9,417.6 850.2,418.0 853.5,418.4 856.8,418.9 860.1,419.4 863.4,419.9 866.7,420.5 870.0,421.1"/>
<text x="740" y="70" font-size="14" font-family="Arial" fill="#2f6fed">intra-class</text>
<text x="740" y="92" font-size="14" font-family="Arial" fill="#d64545">inter-class</text>
</svg>