<svg xmlns="http://www.w3.org/2000/svg" width="260" height="220" viewBox="0 0 260 220">
<rect width="100%" height="100%" fill="white"/>
<text x="130.0" y="28" text-anchor="middle" font-size="20" font-family="Arial">Distance Matrix: latent_tree_swd_patch_3_25</text>
<rect x="70" y="50" width="12" height="12" fill="rgb(255,255,255)" stroke="none"/>
<rect x="82" y="50" width="12" height="12" fill="rgb(255,53,53)" stroke="none"/>
<rect x="94" y="50" width="12" height="12" fill="rgb(255,75,75)" stroke="none"/>
<rect x="106" y="50" width="12" height="12" fill="rgb(255,45,45)" stroke="none"/>
<rect x="118" y="50" width="12" height="12" fill="rgb(255,45,45)" stroke="none"/>
<rect x="130" y="50" width="12" height="12" fill="rgb(255,142,142)" stroke="none"/>
<rect x="142" y="50" width="12" height="12" fill="rgb(255,0,0)" stroke="none"/>
<rect x="154" y="50" width="12" height="12" fill="rgb(255,180,180)" stroke="none"/>
<rect x="166" y="50" width="12" height="12" fill="rgb(255,23,23)" stroke="none"/>
<rect x="178" y="50" width="12" height="12" fill="rgb(255,67,67)" stroke="none"/>
<rect x="70" y="62" width="12" height="12" fill="rgb(255,53,53)" stroke="none"/>
<rect x="82" y="62" width="12" height="12" fill="rgb(255,255,255)" stroke="none"/>
<rect x="94" y="62" width="12" height="12" fill="rgb(255,142,142)" stroke="none"/>
<rect x="106" y="62" width="12" height="12" fill="rgb(255,112,112)" stroke="none"/>
<rect x="118" y="62" width="12" height="12" fill="rgb(255,98,98)" stroke="none"/>
<rect x="130" y="62" width="12" height="12" fill="rgb(255,105,105)" stroke="none"/>
<rect x="142" y="62" width="12" height="12" fill="rgb(255,38,38)" stroke="none"/>
<rect x="154" y="62" width="12" height="12" fill="rgb(255,112,112)" stroke="none"/>
<rect x="166" y="62" width="12" height="12" fill="rgb(255,105,105)" stroke="none"/>
<rect x="178" y="62" width="12" height="12" fill="rgb(255,60,60)" stroke="none"/>
<rect x="70" y="74" width="12" height="12" fill="rgb(255,75,75)" stroke="none"/>
<rect x="82" y="74" width="12" height="12" fill="rgb(255,142,142)" stroke="none"/>
<rect x="94" y="74" width="12" height="12" fill="rgb(255,255,255)" stroke="none"/>
<rect x="106" y="74" width="12" height="12" fill="rgb(255,75,75)" stroke="none"/>
<rect x="118" y="74" width="12" height="12" fill="rgb(255,135,135)" stroke="none"/>
<rect x="130" y="74" width="12" height="12" fill="rgb(255,112,112)" stroke="none"/>
<rect x="142" y="74" width="12" height="12" fill="rgb(255,120,120)" stroke="none"/>
<rect x="154" y="74" width="12" height="12" fill="rgb(255,120,120)" stroke="none"/>
<rect x="166" y="74" width="12" height="12" fill="rgb(255,67,67)" stroke="none"/>
<rect x="178" y="74" width="12" height="12" fill="rgb(255,53,53)" stroke="none"/>
<rect x="70" y="86" width="12" height="12" fill="rgb(255,45,45)" stroke="none"/>
<rect x="82" y="86" width="12" height="12" fill="rgb(255,112,112)" stroke="none"/>
<rect x="94" y="86" width="12" height="12" fill="rgb(255,75,75)" stroke="none"/>
<rect x="106" y="86" width="12" height="12" fill="rgb(255,255,255)" stroke="none"/>
<rect x="118" y="86" width="12" height="12" fill="rgb(255,15,15)" stroke="none"/>
<rect x="130" y="86" width="12" height="12" fill="rgb(255,112,112)" stroke="none"/>
<rect x="142" y="86" width="12" height="12" fill="rgb(255,105,105)" stroke="none"/>
<rect x="154" y="86" width="12" height="12" fill="rgb(255,75,75)" stroke="none"/>
<rect x="166" y="86" width="12" height="12" fill="rgb(255,142,142)" stroke="none"/>
<rect x="178" y="86" width="12" height="12" fill="rgb(255,112,112)" stroke="none"/>
<rect x="70" y="98" width="12" height="12" fill="rgb(255,45,45)" stroke="none"/>
<rect x="82" y="98" width="12" height="12" fill="rgb(255,98,98)" stroke="none"/>
<rect x="94" y="98" width="12" height="12" fill="rgb(255,135,135)" stroke="none"/>
<rect x="106" y="98" width="12" height="12" fill="rgb(255,15,15)" stroke="none"/>
<rect x="118" y="98" width="12" height="12" fill="rgb(255,255,255)" stroke="none"/>
<rect x="130" y="98" width="12" height="12" fill="rgb(255,53,53)" stroke="none"/>
<rect x="142" y="98" width="12" height="12" fill="rgb(255,60,60)" stroke="none"/>
<rect x="154" y="98" width="12" height="12" fill="rgb(255,90,90)" stroke="none"/>
<rect x="166" y="98" width="12" height="12" fill="rgb(255,23,23)" stroke="none"/>
<rect x="178" y="98" width="12" height="12" fill="rgb(255,67,67)" stroke="none"/>
<rect x="70" y="110" width="12" height="12" fill="rgb(255,142,142)" stroke="none"/>
<rect x="82" y="110" width="12" height="12" fill="rgb(255,105,105)" stroke="none"/>
<rect x="94" y="110" width="12" height="12" fill="rgb(255,112,112)" stroke="none"/>
<rect x="106" y="110" width="12" height="12" fill="rgb(255,112,112)" stroke="none"/>
<rect x="118" y="110" width="12" height="12" fill="rgb(255,53,53)" stroke="none"/>
<rect x="130" y="110" width="12" height="12" fill="rgb(255,255,255)" stroke="none"/>
<rect x="142" y="110" width="12" height="12" fill="rgb(255,53,53)" stroke="none"/>
<rect x="154" y="110" width="12" height="12" fill="rgb(255,142,142)" stroke="none"/>
<rect x="166" y="110" width="12" height="12" fill="rgb(255,90,90)" stroke="none"/>
<rect x="178" y="110" width="12" height="12" fill="rgb(255,90,90)" stroke="none"/>
<rect x="70" y="122" width="12" height="12" fill="rgb(255,0,0)" stroke="none"/>
<rect x="82" y="122" width="12" height="12" fill="rgb(255,38,38)" stroke="none"/>
<rect x="94" y="122" width="12" height="12" fill="rgb(255,120,120)" stroke="none"/>
<rect x="106" y="122" width="12" height="12" fill="rgb(255,105,105)" stroke="none"/>
<rect x="118" y="122" width="12" height="12" fill="rgb(255,60,60)" stroke="none"/>
<rect x="130" y="122" width="12" height="12" fill="rgb(255,53,53)" stroke="none"/>
<rect x="142" y="122" width="12" height="12" fill="rgb(255,255,255)" stroke="none"/>
<rect x="154" y="122" width="12" height="12" fill="rgb(255,30,30)" stroke="none"/>
<rect x="166" y="122" width="12" height="12" fill="rgb(255,98,98)" stroke="none"/>
<rect x="178" y="122" width="12" height="12" fill="rgb(255,82,82)" stroke="none"/>
<rect x="70" y="134" width="12" height="12" fill="rgb(255,180,180)" stroke="none"/>
<rect x="82" y="134" width="12" height="12" fill="rgb(255,112,112)" stroke="none"/>
<rect x="94" y="134" width="12" height="12" fill="rgb(255,120,120)" stroke="none"/>
<rect x="106" y="134" width="12" height="12" fill="rgb(255,75,75)" stroke="none"/>
<rect x="118" y="134" width="12" height="12" fill="rgb(255,90,90)" stroke="none"/>
<rect x="130" y="134" width="12" height="12" fill="rgb(255,142,142)" stroke="none"/>
<rect x="142" y="134" width="12" height="12" fill="rgb(255,30,30)" stroke="none"/>
<rect x="154" y="134" width="12" height="12" fill="rgb(255,255,255)" stroke="none"/>
<rect x="166" y="134" width="12" height="12" fill="rgb(255,67,67)" stroke="none"/>
<rect x="178" y="134" width="12" height="12" fill="rgb(255,82,82)" stroke="none"/>
<rect x="70" y="146" width="12" height="12" fill="rgb(255,23,23)" stroke="none"/>
<rect x="82" y="146" width="12" height="12" fill="rgb(255,105,105)" stroke="none"/>
<rect x="94" y="146" width="12" height="12" fill="rgb(255,67,67)" stroke="none"/>
<rect x="106" y="146" width="12" height="12" fill="rgb(255,142,142)" stroke="none"/>
<rect x="118" y="146" width="12" height="12" fill="rgb(255,23,23)" stroke="none"/>
<rect x="130" y="146" width="12" height="12" fill="rgb(255,90,90)" stroke="none"/>
<rect x="142" y="146" width="12" height="12" fill="rgb(255,98,98)" stroke="none"/>
<rect x="154" y="146" width="12" height="12" fill="rgb(255,67,67)" stroke="none"/>
<rect x="166" y="146" width="12" height="12" fill="rgb(255,255,255)" stroke="none"/>
<rect x="178" y="146" width="12" height="12" fill="rgb(255,90,90)" stroke="none"/>
<rect x="70" y="158" width="12" height="12" fill="rgb(255,67,67)" stroke="none"/>
<rect x="82" y="158" width="12" height="12" fill="rgb(255,60,60)" stroke="none"/>
<rect x="94" y="158" width="12" height="12" fill="rgb(255,53,53)" stroke="none"/>
<rect x="106" y="158" width="12" height="12" fill="rgb(255,112,112)" stroke="none"/>
<rect x="118" y="158" width="12" height="12" fill="rgb(255,67,67)" stroke="none"/>
<rect x="130" y="158" width="12" height="12" fill="rgb(255,90,90)" stroke="none"/>
<rect x="142" y="158" width="12" height="12" fill="rgb(255,82,82)" stroke="none"/>
<rect x="154" y="158" width="12" height="12" fill="rgb(255,82,82)" stroke="none"/>
<rect x="166" y="158" width="12" height="12" fill="rgb(255,90,90)" stroke="none"/>
<rect x="178" y="158" width="12" height="12" fill="rgb(255,255,255)" stroke="none"/>
<rect x="70" y="50" width="120" height="120" fill="none" stroke="black"/>
</svg>