<svg xmlns="http://www.w3.org/2000/svg" width="260" height="220" viewBox="0 0 260 220">
<rect width="100%" height="100%" fill="white"/>
<text x="130.0" y="28" text-anchor="middle" font-size="20" font-family="Arial">Distance Matrix: latent_gram</text>
<rect x="70" y="50" width="12" height="12" fill="rgb(255,255,255)" stroke="none"/>
<rect x="82" y="50" width="12" height="12" fill="rgb(255,205,205)" stroke="none"/>
<rect x="94" y="50" width="12" height="12" fill="rgb(255,158,158)" stroke="none"/>
<rect x="106" y="50" width="12" height="12" fill="rgb(255,142,142)" stroke="none"/>
<rect x="118" y="50" width="12" height="12" fill="rgb(255,145,145)" stroke="none"/>
<rect x="130" y="50" width="12" height="12" fill="rgb(255,160,160)" stroke="none"/>
<rect x="142" y="50" width="12" height="12" fill="rgb(255,116,116)" stroke="none"/>
<rect x="154" y="50" width="12" height="12" fill="rgb(255,114,114)" stroke="none"/>
<rect x="166" y="50" width="12" height="12" fill="rgb(255,87,87)" stroke="none"/>
<rect x="178" y="50" width="12" height="12" fill="rgb(255,78,78)" stroke="none"/>
<rect x="70" y="62" width="12" height="12" fill="rgb(255,205,205)" stroke="none"/>
<rect x="82" y="62" width="12" height="12" fill="rgb(255,255,255)" stroke="none"/>
<rect x="94" y="62" width="12" height="12" fill="rgb(255,173,173)" stroke="none"/>
<rect x="106" y="62" width="12" height="12" fill="rgb(255,139,139)" stroke="none"/>
<rect x="118" y="62" width="12" height="12" fill="rgb(255,184,184)" stroke="none"/>
<rect x="130" y="62" width="12" height="12" fill="rgb(255,201,201)" stroke="none"/>
<rect x="142" y="62" width="12" height="12" fill="rgb(255,158,158)" stroke="none"/>
<rect x="154" y="62" width="12" height="12" fill="rgb(255,161,161)" stroke="none"/>
<rect x="166" y="62" width="12" height="12" fill="rgb(255,121,121)" stroke="none"/>
<rect x="178" y="62" width="12" height="12" fill="rgb(255,113,113)" stroke="none"/>
<rect x="70" y="74" width="12" height="12" fill="rgb(255,158,158)" stroke="none"/>
<rect x="82" y="74" width="12" height="12" fill="rgb(255,173,173)" stroke="none"/>
<rect x="94" y="74" width="12" height="12" fill="rgb(255,255,255)" stroke="none"/>
<rect x="106" y="74" width="12" height="12" fill="rgb(255,84,84)" stroke="none"/>
<rect x="118" y="74" width="12" height="12" fill="rgb(255,189,189)" stroke="none"/>
<rect x="130" y="74" width="12" height="12" fill="rgb(255,172,172)" stroke="none"/>
<rect x="142" y="74" width="12" height="12" fill="rgb(255,162,162)" stroke="none"/>
<rect x="154" y="74" width="12" height="12" fill="rgb(255,161,161)" stroke="none"/>
<rect x="166" y="74" width="12" height="12" fill="rgb(255,139,139)" stroke="none"/>
<rect x="178" y="74" width="12" height="12" fill="rgb(255,131,131)" stroke="none"/>
<rect x="70" y="86" width="12" height="12" fill="rgb(255,142,142)" stroke="none"/>
<rect x="82" y="86" width="12" height="12" fill="rgb(255,139,139)" stroke="none"/>
<rect x="94" y="86" width="12" height="12" fill="rgb(255,84,84)" stroke="none"/>
<rect x="106" y="86" width="12" height="12" fill="rgb(255,255,255)" stroke="none"/>
<rect x="118" y="86" width="12" height="12" fill="rgb(255,89,89)" stroke="none"/>
<rect x="130" y="86" width="12" height="12" fill="rgb(255,112,112)" stroke="none"/>
<rect x="142" y="86" width="12" height="12" fill="rgb(255,60,60)" stroke="none"/>
<rect x="154" y="86" width="12" height="12" fill="rgb(255,45,45)" stroke="none"/>
<rect x="166" y="86" width="12" height="12" fill="rgb(255,9,9)" stroke="none"/>
<rect x="178" y="86" width="12" height="12" fill="rgb(255,0,0)" stroke="none"/>
<rect x="70" y="98" width="12" height="12" fill="rgb(255,145,145)" stroke="none"/>
<rect x="82" y="98" width="12" height="12" fill="rgb(255,184,184)" stroke="none"/>
<rect x="94" y="98" width="12" height="12" fill="rgb(255,189,189)" stroke="none"/>
<rect x="106" y="98" width="12" height="12" fill="rgb(255,89,89)" stroke="none"/>
<rect x="118" y="98" width="12" height="12" fill="rgb(255,255,255)" stroke="none"/>
<rect x="130" y="98" width="12" height="12" fill="rgb(255,204,204)" stroke="none"/>
<rect x="142" y="98" width="12" height="12" fill="rgb(255,178,178)" stroke="none"/>
<rect x="154" y="98" width="12" height="12" fill="rgb(255,187,187)" stroke="none"/>
<rect x="166" y="98" width="12" height="12" fill="rgb(255,169,169)" stroke="none"/>
<rect x="178" y="98" width="12" height="12" fill="rgb(255,160,160)" stroke="none"/>
<rect x="70" y="110" width="12" height="12" fill="rgb(255,160,160)" stroke="none"/>
<rect x="82" y="110" width="12" height="12" fill="rgb(255,201,201)" stroke="none"/>
<rect x="94" y="110" width="12" height="12" fill="rgb(255,172,172)" stroke="none"/>
<rect x="106" y="110" width="12" height="12" fill="rgb(255,112,112)" stroke="none"/>
<rect x="118" y="110" width="12" height="12" fill="rgb(255,204,204)" stroke="none"/>
<rect x="130" y="110" width="12" height="12" fill="rgb(255,255,255)" stroke="none"/>
<rect x="142" y="110" width="12" height="12" fill="rgb(255,137,137)" stroke="none"/>
<rect x="154" y="110" width="12" height="12" fill="rgb(255,158,158)" stroke="none"/>
<rect x="166" y="110" width="12" height="12" fill="rgb(255,151,151)" stroke="none"/>
<rect x="178" y="110" width="12" height="12" fill="rgb(255,143,143)" stroke="none"/>
<rect x="70" y="122" width="12" height="12" fill="rgb(255,116,116)" stroke="none"/>
<rect x="82" y="122" width="12" height="12" fill="rgb(255,158,158)" stroke="none"/>
<rect x="94" y="122" width="12" height="12" fill="rgb(255,162,162)" stroke="none"/>
<rect x="106" y="122" width="12" height="12" fill="rgb(255,60,60)" stroke="none"/>
<rect x="118" y="122" width="12" height="12" fill="rgb(255,178,178)" stroke="none"/>
<rect x="130" y="122" width="12" height="12" fill="rgb(255,137,137)" stroke="none"/>
<rect x="142" y="122" width="12" height="12" fill="rgb(255,255,255)" stroke="none"/>
<rect x="154" y="122" width="12" height="12" fill="rgb(255,224,224)" stroke="none"/>
<rect x="166" y="122" width="12" height="12" fill="rgb(255,168,168)" stroke="none"/>
<rect x="178" y="122" width="12" height="12" fill="rgb(255,158,158)" stroke="none"/>
<rect x="70" y="134" width="12" height="12" fill="rgb(255,114,114)" stroke="none"/>
<rect x="82" y="134" width="12" height="12" fill="rgb(255,161,161)" stroke="none"/>
<rect x="94" y="134" width="12" height="12" fill="rgb(255,161,161)" stroke="none"/>
<rect x="106" y="134" width="12" height="12" fill="rgb(255,45,45)" stroke="none"/>
<rect x="118" y="134" width="12" height="12" fill="rgb(255,187,187)" stroke="none"/>
<rect x="130" y="134" width="12" height="12" fill="rgb(255,158,158)" stroke="none"/>
<rect x="142" y="134" width="12" height="12" fill="rgb(255,224,224)" stroke="none"/>
<rect x="154" y="134" width="12" height="12" fill="rgb(255,255,255)" stroke="none"/>
<rect x="166" y="134" width="12" height="12" fill="rgb(255,195,195)" stroke="none"/>
<rect x="178" y="134" width="12" height="12" fill="rgb(255,189,189)" stroke="none"/>
<rect x="70" y="146" width="12" height="12" fill="rgb(255,87,87)" stroke="none"/>
<rect x="82" y="146" width="12" height="12" fill="rgb(255,121,121)" stroke="none"/>
<rect x="94" y="146" width="12" height="12" fill="rgb(255,139,139)" stroke="none"/>
<rect x="106" y="146" width="12" height="12" fill="rgb(255,9,9)" stroke="none"/>
<rect x="118" y="146" width="12" height="12" fill="rgb(255,169,169)" stroke="none"/>
<rect x="130" y="146" width="12" height="12" fill="rgb(255,151,151)" stroke="none"/>
<rect x="142" y="146" width="12" height="12" fill="rgb(255,168,168)" stroke="none"/>
<rect x="154" y="146" width="12" height="12" fill="rgb(255,195,195)" stroke="none"/>
<rect x="166" y="146" width="12" height="12" fill="rgb(255,255,255)" stroke="none"/>
<rect x="178" y="146" width="12" height="12" fill="rgb(255,244,244)" stroke="none"/>
<rect x="70" y="158" width="12" height="12" fill="rgb(255,78,78)" stroke="none"/>
<rect x="82" y="158" width="12" height="12" fill="rgb(255,113,113)" stroke="none"/>
<rect x="94" y="158" width="12" height="12" fill="rgb(255,131,131)" stroke="none"/>
<rect x="106" y="158" width="12" height="12" fill="rgb(255,0,0)" stroke="none"/>
<rect x="118" y="158" width="12" height="12" fill="rgb(255,160,160)" stroke="none"/>
<rect x="130" y="158" width="12" height="12" fill="rgb(255,143,143)" stroke="none"/>
<rect x="142" y="158" width="12" height="12" fill="rgb(255,158,158)" stroke="none"/>
<rect x="154" y="158" width="12" height="12" fill="rgb(255,189,189)" stroke="none"/>
<rect x="166" y="158" width="12" height="12" fill="rgb(255,244,244)" stroke="none"/>
<rect x="178" y="158" width="12" height="12" fill="rgb(255,255,255)" stroke="none"/>
<rect x="70" y="50" width="120" height="120" fill="none" stroke="black"/>
</svg>