<svg xmlns="http://www.w3.org/2000/svg" width="260" height="220" viewBox="0 0 260 220">
<rect width="100%" height="100%" fill="white"/>
<text x="130.0" y="28" text-anchor="middle" font-size="20" font-family="Arial">Distance Matrix: pixel_gram</text>
<rect x="70" y="50" width="12" height="12" fill="rgb(255,255,255)" stroke="none"/>
<rect x="82" y="50" width="12" height="12" fill="rgb(255,240,240)" stroke="none"/>
<rect x="94" y="50" width="12" height="12" fill="rgb(255,34,34)" stroke="none"/>
<rect x="106" y="50" width="12" height="12" fill="rgb(255,230,230)" stroke="none"/>
<rect x="118" y="50" width="12" height="12" fill="rgb(255,220,220)" stroke="none"/>
<rect x="130" y="50" width="12" height="12" fill="rgb(255,233,233)" stroke="none"/>
<rect x="142" y="50" width="12" height="12" fill="rgb(255,25,25)" stroke="none"/>
<rect x="154" y="50" width="12" height="12" fill="rgb(255,31,31)" stroke="none"/>
<rect x="166" y="50" width="12" height="12" fill="rgb(255,183,183)" stroke="none"/>
<rect x="178" y="50" width="12" height="12" fill="rgb(255,183,183)" stroke="none"/>
<rect x="70" y="62" width="12" height="12" fill="rgb(255,240,240)" stroke="none"/>
<rect x="82" y="62" width="12" height="12" fill="rgb(255,255,255)" stroke="none"/>
<rect x="94" y="62" width="12" height="12" fill="rgb(255,18,18)" stroke="none"/>
<rect x="106" y="62" width="12" height="12" fill="rgb(255,243,243)" stroke="none"/>
<rect x="118" y="62" width="12" height="12" fill="rgb(255,206,206)" stroke="none"/>
<rect x="130" y="62" width="12" height="12" fill="rgb(255,237,237)" stroke="none"/>
<rect x="142" y="62" width="12" height="12" fill="rgb(255,10,10)" stroke="none"/>
<rect x="154" y="62" width="12" height="12" fill="rgb(255,16,16)" stroke="none"/>
<rect x="166" y="62" width="12" height="12" fill="rgb(255,168,168)" stroke="none"/>
<rect x="178" y="62" width="12" height="12" fill="rgb(255,168,168)" stroke="none"/>
<rect x="70" y="74" width="12" height="12" fill="rgb(255,34,34)" stroke="none"/>
<rect x="82" y="74" width="12" height="12" fill="rgb(255,18,18)" stroke="none"/>
<rect x="94" y="74" width="12" height="12" fill="rgb(255,255,255)" stroke="none"/>
<rect x="106" y="74" width="12" height="12" fill="rgb(255,10,10)" stroke="none"/>
<rect x="118" y="74" width="12" height="12" fill="rgb(255,63,63)" stroke="none"/>
<rect x="130" y="74" width="12" height="12" fill="rgb(255,21,21)" stroke="none"/>
<rect x="142" y="74" width="12" height="12" fill="rgb(255,49,49)" stroke="none"/>
<rect x="154" y="74" width="12" height="12" fill="rgb(255,55,55)" stroke="none"/>
<rect x="166" y="74" width="12" height="12" fill="rgb(255,79,79)" stroke="none"/>
<rect x="178" y="74" width="12" height="12" fill="rgb(255,78,78)" stroke="none"/>
<rect x="70" y="86" width="12" height="12" fill="rgb(255,230,230)" stroke="none"/>
<rect x="82" y="86" width="12" height="12" fill="rgb(255,243,243)" stroke="none"/>
<rect x="94" y="86" width="12" height="12" fill="rgb(255,10,10)" stroke="none"/>
<rect x="106" y="86" width="12" height="12" fill="rgb(255,255,255)" stroke="none"/>
<rect x="118" y="86" width="12" height="12" fill="rgb(255,202,202)" stroke="none"/>
<rect x="130" y="86" width="12" height="12" fill="rgb(255,243,243)" stroke="none"/>
<rect x="142" y="86" width="12" height="12" fill="rgb(255,0,0)" stroke="none"/>
<rect x="154" y="86" width="12" height="12" fill="rgb(255,6,6)" stroke="none"/>
<rect x="166" y="86" width="12" height="12" fill="rgb(255,157,157)" stroke="none"/>
<rect x="178" y="86" width="12" height="12" fill="rgb(255,157,157)" stroke="none"/>
<rect x="70" y="98" width="12" height="12" fill="rgb(255,220,220)" stroke="none"/>
<rect x="82" y="98" width="12" height="12" fill="rgb(255,206,206)" stroke="none"/>
<rect x="94" y="98" width="12" height="12" fill="rgb(255,63,63)" stroke="none"/>
<rect x="106" y="98" width="12" height="12" fill="rgb(255,202,202)" stroke="none"/>
<rect x="118" y="98" width="12" height="12" fill="rgb(255,255,255)" stroke="none"/>
<rect x="130" y="98" width="12" height="12" fill="rgb(255,214,214)" stroke="none"/>
<rect x="142" y="98" width="12" height="12" fill="rgb(255,53,53)" stroke="none"/>
<rect x="154" y="98" width="12" height="12" fill="rgb(255,59,59)" stroke="none"/>
<rect x="166" y="98" width="12" height="12" fill="rgb(255,195,195)" stroke="none"/>
<rect x="178" y="98" width="12" height="12" fill="rgb(255,195,195)" stroke="none"/>
<rect x="70" y="110" width="12" height="12" fill="rgb(255,233,233)" stroke="none"/>
<rect x="82" y="110" width="12" height="12" fill="rgb(255,237,237)" stroke="none"/>
<rect x="94" y="110" width="12" height="12" fill="rgb(255,21,21)" stroke="none"/>
<rect x="106" y="110" width="12" height="12" fill="rgb(255,243,243)" stroke="none"/>
<rect x="118" y="110" width="12" height="12" fill="rgb(255,214,214)" stroke="none"/>
<rect x="130" y="110" width="12" height="12" fill="rgb(255,255,255)" stroke="none"/>
<rect x="142" y="110" width="12" height="12" fill="rgb(255,11,11)" stroke="none"/>
<rect x="154" y="110" width="12" height="12" fill="rgb(255,17,17)" stroke="none"/>
<rect x="166" y="110" width="12" height="12" fill="rgb(255,169,169)" stroke="none"/>
<rect x="178" y="110" width="12" height="12" fill="rgb(255,169,169)" stroke="none"/>
<rect x="70" y="122" width="12" height="12" fill="rgb(255,25,25)" stroke="none"/>
<rect x="82" y="122" width="12" height="12" fill="rgb(255,10,10)" stroke="none"/>
<rect x="94" y="122" width="12" height="12" fill="rgb(255,49,49)" stroke="none"/>
<rect x="106" y="122" width="12" height="12" fill="rgb(255,0,0)" stroke="none"/>
<rect x="118" y="122" width="12" height="12" fill="rgb(255,53,53)" stroke="none"/>
<rect x="130" y="122" width="12" height="12" fill="rgb(255,11,11)" stroke="none"/>
<rect x="142" y="122" width="12" height="12" fill="rgb(255,255,255)" stroke="none"/>
<rect x="154" y="122" width="12" height="12" fill="rgb(255,249,249)" stroke="none"/>
<rect x="166" y="122" width="12" height="12" fill="rgb(255,76,76)" stroke="none"/>
<rect x="178" y="122" width="12" height="12" fill="rgb(255,76,76)" stroke="none"/>
<rect x="70" y="134" width="12" height="12" fill="rgb(255,31,31)" stroke="none"/>
<rect x="82" y="134" width="12" height="12" fill="rgb(255,16,16)" stroke="none"/>
<rect x="94" y="134" width="12" height="12" fill="rgb(255,55,55)" stroke="none"/>
<rect x="106" y="134" width="12" height="12" fill="rgb(255,6,6)" stroke="none"/>
<rect x="118" y="134" width="12" height="12" fill="rgb(255,59,59)" stroke="none"/>
<rect x="130" y="134" width="12" height="12" fill="rgb(255,17,17)" stroke="none"/>
<rect x="142" y="134" width="12" height="12" fill="rgb(255,249,249)" stroke="none"/>
<rect x="154" y="134" width="12" height="12" fill="rgb(255,255,255)" stroke="none"/>
<rect x="166" y="134" width="12" height="12" fill="rgb(255,82,82)" stroke="none"/>
<rect x="178" y="134" width="12" height="12" fill="rgb(255,82,82)" stroke="none"/>
<rect x="70" y="146" width="12" height="12" fill="rgb(255,183,183)" stroke="none"/>
<rect x="82" y="146" width="12" height="12" fill="rgb(255,168,168)" stroke="none"/>
<rect x="94" y="146" width="12" height="12" fill="rgb(255,79,79)" stroke="none"/>
<rect x="106" y="146" width="12" height="12" fill="rgb(255,157,157)" stroke="none"/>
<rect x="118" y="146" width="12" height="12" fill="rgb(255,195,195)" stroke="none"/>
<rect x="130" y="146" width="12" height="12" fill="rgb(255,169,169)" stroke="none"/>
<rect x="142" y="146" width="12" height="12" fill="rgb(255,76,76)" stroke="none"/>
<rect x="154" y="146" width="12" height="12" fill="rgb(255,82,82)" stroke="none"/>
<rect x="166" y="146" width="12" height="12" fill="rgb(255,255,255)" stroke="none"/>
<rect x="178" y="146" width="12" height="12" fill="rgb(255,255,255)" stroke="none"/>
<rect x="70" y="158" width="12" height="12" fill="rgb(255,183,183)" stroke="none"/>
<rect x="82" y="158" width="12" height="12" fill="rgb(255,168,168)" stroke="none"/>
<rect x="94" y="158" width="12" height="12" fill="rgb(255,78,78)" stroke="none"/>
<rect x="106" y="158" width="12" height="12" fill="rgb(255,157,157)" stroke="none"/>
<rect x="118" y="158" width="12" height="12" fill="rgb(255,195,195)" stroke="none"/>
<rect x="130" y="158" width="12" height="12" fill="rgb(255,169,169)" stroke="none"/>
<rect x="142" y="158" width="12" height="12" fill="rgb(255,76,76)" stroke="none"/>
<rect x="154" y="158" width="12" height="12" fill="rgb(255,82,82)" stroke="none"/>
<rect x="166" y="158" width="12" height="12" fill="rgb(255,255,255)" stroke="none"/>
<rect x="178" y="158" width="12" height="12" fill="rgb(255,255,255)" stroke="none"/>
<rect x="70" y="50" width="120" height="120" fill="none" stroke="black"/>
</svg>