<svg xmlns="http://www.w3.org/2000/svg" width="900" height="520" viewBox="0 0 900 520">
<rect width="100%" height="100%" fill="white"/>
<text x="450.0" y="28" text-anchor="middle" font-size="22" font-family="Arial">Intra vs Inter KDE: pixel_tree_swd_patch_3_25</text>
<rect x="80" y="50" width="790" height="410" fill="none" stroke="black"/>
<polyline fill="none" stroke="#2f6fed" stroke-width="2.5" points="80.0,221.0 83.3,214.9 86.6,208.9 89.9,202.9 93.2,196.9 96.5,191.0 99.8,185.1 103.1,179.2 106.4,173.4 109.7,167.6 113.1,161.9 116.4,156.3 119.7,150.7 123.0,145.2 126.3,139.9 129.6,134.6 132.9,129.4 136.2,124.3 139.5,119.4 142.8,114.6 146.1,109.9 149.4,105.3 152.7,100.9 156.0,96.6 159.3,92.5 162.6,88.5 165.9,84.7 169.2,81.1 172.6,77.7 175.9,74.4 179.2,71.3 182.5,68.4 185.8,65.7 189.1,63.2 192.4,60.9 195.7,58.9 199.0,57.0 202.3,55.3 205.6,53.9 208.9,52.7 212.2,51.7 215.5,50.9 218.8,50.4 222.1,50.1 225.4,50.0 228.7,50.2 232.1,50.5 235.4,51.1 238.7,52.0 242.0,53.1 245.3,54.4 248.6,55.9 251.9,57.6 255.2,59.6 258.5,61.7 261.8,64.1 265.1,66.7 268.4,69.5 271.7,72.5 275.0,75.6 278.3,79.0 281.6,82.5 284.9,86.1 288.2,90.0 291.5,94.0 294.9,98.1 298.2,102.3 301.5,106.7 304.8,111.1 308.1,115.7 311.4,120.3 314.7,125.0 318.0,129.8 321.3,134.7 324.6,139.6 327.9,144.5 331.2,149.4 334.5,154.4 337.8,159.3 341.1,164.2 344.4,169.2 347.7,174.0 351.0,178.9 354.4,183.7 357.7,188.4 361.0,193.1 364.3,197.7 367.6,202.2 370.9,206.6 374.2,211.0 377.5,215.2 380.8,219.4 384.1,223.4 387.4,227.3 390.7,231.1 394.0,234.8 397.3,238.3 400.6,241.8 403.9,245.1 407.2,248.3 410.5,251.4 413.8,254.4 417.2,257.2 420.5,260.0 423.8,262.6 427.1,265.1 430.4,267.6 433.7,269.9 437.0,272.2 440.3,274.3 443.6,276.4 446.9,278.5 450.2,280.4 453.5,282.3 456.8,284.1 460.1,285.9 463.4,287.7 466.7,289.4 470.0,291.1 473.3,292.8 476.7,294.5 480.0,296.1 483.3,297.8 486.6,299.4 489.9,301.1 493.2,302.8 496.5,304.5 499.8,306.3 503.1,308.1 506.4,309.9 509.7,311.7 513.0,313.6 516.3,315.5 519.6,317.5 522.9,319.5 526.2,321.6 529.5,323.7 532.8,325.9 536.2,328.1 539.5,330.4 542.8,332.7 546.1,335.1 549.4,337.5 552.7,339.9 556.0,342.4 559.3,345.0 562.6,347.5 565.9,350.1 569.2,352.8 572.5,355.4 575.8,358.1 579.1,360.8 582.4,363.5 585.7,366.2 589.0,368.9 592.3,371.7 595.6,374.4 599.0,377.1 602.3,379.8 605.6,382.5 608.9,385.2 612.2,387.8 615.5,390.5 618.8,393.1 622.1,395.6 625.4,398.1 628.7,400.6 632.0,403.1 635.3,405.4 638.6,407.8 641.9,410.1 645.2,412.3 648.5,414.5 651.8,416.6 655.1,418.7 658.5,420.7 661.8,422.7 665.1,424.6 668.4,426.4 671.7,428.2 675.0,429.9 678.3,431.5 681.6,433.1 684.9,434.6 688.2,436.1 691.5,437.5 694.8,438.8 698.1,440.1 701.4,441.3 704.7,442.5 708.0,443.6 711.3,444.7 714.6,445.7 717.9,446.6 721.3,447.5 724.6,448.4 727.9,449.2 731.2,449.9 734.5,450.6 737.8,451.3 741.1,452.0 744.4,452.6 747.7,453.1 751.0,453.6 754.3,454.1 757.6,454.6 760.9,455.0 764.2,455.4 767.5,455.8 770.8,456.1 774.1,456.4 777.4,456.7 780.8,457.0 784.1,457.3 787.4,457.5 790.7,457.7 794.0,457.9 797.3,458.1 800.6,458.3 803.9,458.4 807.2,458.6 810.5,458.7 813.8,458.8 817.1,458.9 820.4,459.1 823.7,459.1 827.0,459.2 830.3,459.3 833.6,459.4 836.9,459.4 840.3,459.5 843.6,459.5 846.9,459.6 850.2,459.6 853.5,459.7 856.8,459.7 860.1,459.7 863.4,459.8 866.7,459.8 870.0,459.8"/>
<polyline fill="none" stroke="#d64545" stroke-width="2.5" points="80.0,373.7 83.3,370.1 86.6,366.3 89.9,362.4 93.2,358.5 96.5,354.4 99.8,350.3 103.1,346.1 106.4,341.8 109.7,337.4 113.1,333.0 116.4,328.5 119.7,323.9 123.0,319.3 126.3,314.6 129.6,309.8 132.9,305.0 136.2,300.2 139.5,295.3 142.8,290.4 146.1,285.5 149.4,280.6 152.7,275.6 156.0,270.7 159.3,265.7 162.6,260.8 165.9,255.8 169.2,251.0 172.6,246.1 175.9,241.3 179.2,236.5 182.5,231.8 185.8,227.1 189.1,222.5 192.4,218.0 195.7,213.6 199.0,209.2 202.3,205.0 205.6,200.8 208.9,196.8 212.2,192.9 215.5,189.1 218.8,185.4 222.1,181.8 225.4,178.4 228.7,175.1 232.1,171.9 235.4,168.9 238.7,166.1 242.0,163.4 245.3,160.8 248.6,158.4 251.9,156.1 255.2,154.0 258.5,152.1 261.8,150.3 265.1,148.7 268.4,147.2 271.7,145.8 275.0,144.7 278.3,143.6 281.6,142.8 284.9,142.0 288.2,141.4 291.5,140.9 294.9,140.6 298.2,140.4 301.5,140.3 304.8,140.3 308.1,140.5 311.4,140.7 314.7,141.1 318.0,141.5 321.3,142.1 324.6,142.7 327.9,143.4 331.2,144.1 334.5,144.9 337.8,145.8 341.1,146.7 344.4,147.7 347.7,148.7 351.0,149.7 354.4,150.8 357.7,151.9 361.0,153.0 364.3,154.1 367.6,155.2 370.9,156.2 374.2,157.3 377.5,158.4 380.8,159.5 384.1,160.5 387.4,161.5 390.7,162.5 394.0,163.5 397.3,164.5 400.6,165.4 403.9,166.3 407.2,167.1 410.5,168.0 413.8,168.8 417.2,169.6 420.5,170.4 423.8,171.1 427.1,171.9 430.4,172.6 433.7,173.3 437.0,174.0 440.3,174.7 443.6,175.4 446.9,176.1 450.2,176.8 453.5,177.6 456.8,178.3 460.1,179.1 463.4,179.9 466.7,180.8 470.0,181.7 473.3,182.6 476.7,183.6 480.0,184.6 483.3,185.7 486.6,186.8 489.9,188.1 493.2,189.3 496.5,190.7 499.8,192.1 503.1,193.6 506.4,195.2 509.7,196.9 513.0,198.6 516.3,200.5 519.6,202.4 522.9,204.4 526.2,206.4 529.5,208.6 532.8,210.9 536.2,213.2 539.5,215.6 542.8,218.1 546.1,220.7 549.4,223.3 552.7,226.0 556.0,228.8 559.3,231.7 562.6,234.6 565.9,237.6 569.2,240.6 572.5,243.7 575.8,246.9 579.1,250.1 582.4,253.3 585.7,256.6 589.0,259.9 592.3,263.3 595.6,266.7 599.0,270.1 602.3,273.5 605.6,277.0 608.9,280.4 612.2,283.9 615.5,287.4 618.8,290.9 622.1,294.4 625.4,297.8 628.7,301.3 632.0,304.8 635.3,308.2 638.6,311.7 641.9,315.1 645.2,318.4 648.5,321.8 651.8,325.1 655.1,328.4 658.5,331.6 661.8,334.8 665.1,338.0 668.4,341.1 671.7,344.2 675.0,347.2 678.3,350.1 681.6,353.0 684.9,355.8 688.2,358.6 691.5,361.3 694.8,363.9 698.1,366.5 701.4,369.0 704.7,371.5 708.0,373.8 711.3,376.1 714.6,378.3 717.9,380.5 721.3,382.6 724.6,384.6 727.9,386.5 731.2,388.4 734.5,390.2 737.8,391.9 741.1,393.5 744.4,395.1 747.7,396.6 751.0,398.1 754.3,399.5 757.6,400.8 760.9,402.1 764.2,403.3 767.5,404.4 770.8,405.5 774.1,406.6 777.4,407.6 780.8,408.6 784.1,409.5 787.4,410.3 790.7,411.2 794.0,412.0 797.3,412.8 800.6,413.5 803.9,414.2 807.2,414.9 810.5,415.6 813.8,416.3 817.1,416.9 820.4,417.6 823.7,418.2 827.0,418.8 830.3,419.4 833.6,420.0 836.9,420.6 840.3,421.2 843.6,421.8 846.9,422.4 850.2,423.0 853.5,423.6 856.8,424.3 860.1,424.9 863.4,425.5 866.7,426.2 870.0,426.8"/>
<text x="740" y="70" font-size="14" font-family="Arial" fill="#2f6fed">intra-class</text>
<text x="740" y="92" font-size="14" font-family="Arial" fill="#d64545">inter-class</text>
</svg>