<svg xmlns="http://www.w3.org/2000/svg" width="260" height="220" viewBox="0 0 260 220">
<rect width="100%" height="100%" fill="white"/>
<text x="130.0" y="28" text-anchor="middle" font-size="20" font-family="Arial">Distance Matrix: pixel_tree_swd_patch_3_25</text>
<rect x="70" y="50" width="12" height="12" fill="rgb(255,255,255)" stroke="none"/>
<rect x="82" y="50" width="12" height="12" fill="rgb(255,143,143)" stroke="none"/>
<rect x="94" y="50" width="12" height="12" fill="rgb(255,50,50)" stroke="none"/>
<rect x="106" y="50" width="12" height="12" fill="rgb(255,168,168)" stroke="none"/>
<rect x="118" y="50" width="12" height="12" fill="rgb(255,87,87)" stroke="none"/>
<rect x="130" y="50" width="12" height="12" fill="rgb(255,131,131)" stroke="none"/>
<rect x="142" y="50" width="12" height="12" fill="rgb(255,124,124)" stroke="none"/>
<rect x="154" y="50" width="12" height="12" fill="rgb(255,93,93)" stroke="none"/>
<rect x="166" y="50" width="12" height="12" fill="rgb(255,187,187)" stroke="none"/>
<rect x="178" y="50" width="12" height="12" fill="rgb(255,149,149)" stroke="none"/>
<rect x="70" y="62" width="12" height="12" fill="rgb(255,143,143)" stroke="none"/>
<rect x="82" y="62" width="12" height="12" fill="rgb(255,255,255)" stroke="none"/>
<rect x="94" y="62" width="12" height="12" fill="rgb(255,75,75)" stroke="none"/>
<rect x="106" y="62" width="12" height="12" fill="rgb(255,155,155)" stroke="none"/>
<rect x="118" y="62" width="12" height="12" fill="rgb(255,87,87)" stroke="none"/>
<rect x="130" y="62" width="12" height="12" fill="rgb(255,106,106)" stroke="none"/>
<rect x="142" y="62" width="12" height="12" fill="rgb(255,124,124)" stroke="none"/>
<rect x="154" y="62" width="12" height="12" fill="rgb(255,106,106)" stroke="none"/>
<rect x="166" y="62" width="12" height="12" fill="rgb(255,137,137)" stroke="none"/>
<rect x="178" y="62" width="12" height="12" fill="rgb(255,149,149)" stroke="none"/>
<rect x="70" y="74" width="12" height="12" fill="rgb(255,50,50)" stroke="none"/>
<rect x="82" y="74" width="12" height="12" fill="rgb(255,75,75)" stroke="none"/>
<rect x="94" y="74" width="12" height="12" fill="rgb(255,255,255)" stroke="none"/>
<rect x="106" y="74" width="12" height="12" fill="rgb(255,87,87)" stroke="none"/>
<rect x="118" y="74" width="12" height="12" fill="rgb(255,56,56)" stroke="none"/>
<rect x="130" y="74" width="12" height="12" fill="rgb(255,87,87)" stroke="none"/>
<rect x="142" y="74" width="12" height="12" fill="rgb(255,131,131)" stroke="none"/>
<rect x="154" y="74" width="12" height="12" fill="rgb(255,87,87)" stroke="none"/>
<rect x="166" y="74" width="12" height="12" fill="rgb(255,93,93)" stroke="none"/>
<rect x="178" y="74" width="12" height="12" fill="rgb(255,143,143)" stroke="none"/>
<rect x="70" y="86" width="12" height="12" fill="rgb(255,168,168)" stroke="none"/>
<rect x="82" y="86" width="12" height="12" fill="rgb(255,155,155)" stroke="none"/>
<rect x="94" y="86" width="12" height="12" fill="rgb(255,87,87)" stroke="none"/>
<rect x="106" y="86" width="12" height="12" fill="rgb(255,255,255)" stroke="none"/>
<rect x="118" y="86" width="12" height="12" fill="rgb(255,75,75)" stroke="none"/>
<rect x="130" y="86" width="12" height="12" fill="rgb(255,93,93)" stroke="none"/>
<rect x="142" y="86" width="12" height="12" fill="rgb(255,124,124)" stroke="none"/>
<rect x="154" y="86" width="12" height="12" fill="rgb(255,131,131)" stroke="none"/>
<rect x="166" y="86" width="12" height="12" fill="rgb(255,149,149)" stroke="none"/>
<rect x="178" y="86" width="12" height="12" fill="rgb(255,137,137)" stroke="none"/>
<rect x="70" y="98" width="12" height="12" fill="rgb(255,87,87)" stroke="none"/>
<rect x="82" y="98" width="12" height="12" fill="rgb(255,87,87)" stroke="none"/>
<rect x="94" y="98" width="12" height="12" fill="rgb(255,56,56)" stroke="none"/>
<rect x="106" y="98" width="12" height="12" fill="rgb(255,75,75)" stroke="none"/>
<rect x="118" y="98" width="12" height="12" fill="rgb(255,255,255)" stroke="none"/>
<rect x="130" y="98" width="12" height="12" fill="rgb(255,162,162)" stroke="none"/>
<rect x="142" y="98" width="12" height="12" fill="rgb(255,56,56)" stroke="none"/>
<rect x="154" y="98" width="12" height="12" fill="rgb(255,0,0)" stroke="none"/>
<rect x="166" y="98" width="12" height="12" fill="rgb(255,118,118)" stroke="none"/>
<rect x="178" y="98" width="12" height="12" fill="rgb(255,155,155)" stroke="none"/>
<rect x="70" y="110" width="12" height="12" fill="rgb(255,131,131)" stroke="none"/>
<rect x="82" y="110" width="12" height="12" fill="rgb(255,106,106)" stroke="none"/>
<rect x="94" y="110" width="12" height="12" fill="rgb(255,87,87)" stroke="none"/>
<rect x="106" y="110" width="12" height="12" fill="rgb(255,93,93)" stroke="none"/>
<rect x="118" y="110" width="12" height="12" fill="rgb(255,162,162)" stroke="none"/>
<rect x="130" y="110" width="12" height="12" fill="rgb(255,255,255)" stroke="none"/>
<rect x="142" y="110" width="12" height="12" fill="rgb(255,100,100)" stroke="none"/>
<rect x="154" y="110" width="12" height="12" fill="rgb(255,19,19)" stroke="none"/>
<rect x="166" y="110" width="12" height="12" fill="rgb(255,162,162)" stroke="none"/>
<rect x="178" y="110" width="12" height="12" fill="rgb(255,162,162)" stroke="none"/>
<rect x="70" y="122" width="12" height="12" fill="rgb(255,124,124)" stroke="none"/>
<rect x="82" y="122" width="12" height="12" fill="rgb(255,124,124)" stroke="none"/>
<rect x="94" y="122" width="12" height="12" fill="rgb(255,131,131)" stroke="none"/>
<rect x="106" y="122" width="12" height="12" fill="rgb(255,124,124)" stroke="none"/>
<rect x="118" y="122" width="12" height="12" fill="rgb(255,56,56)" stroke="none"/>
<rect x="130" y="122" width="12" height="12" fill="rgb(255,100,100)" stroke="none"/>
<rect x="142" y="122" width="12" height="12" fill="rgb(255,255,255)" stroke="none"/>
<rect x="154" y="122" width="12" height="12" fill="rgb(255,137,137)" stroke="none"/>
<rect x="166" y="122" width="12" height="12" fill="rgb(255,155,155)" stroke="none"/>
<rect x="178" y="122" width="12" height="12" fill="rgb(255,131,131)" stroke="none"/>
<rect x="70" y="134" width="12" height="12" fill="rgb(255,93,93)" stroke="none"/>
<rect x="82" y="134" width="12" height="12" fill="rgb(255,106,106)" stroke="none"/>
<rect x="94" y="134" width="12" height="12" fill="rgb(255,87,87)" stroke="none"/>
<rect x="106" y="134" width="12" height="12" fill="rgb(255,131,131)" stroke="none"/>
<rect x="118" y="134" width="12" height="12" fill="rgb(255,0,0)" stroke="none"/>
<rect x="130" y="134" width="12" height="12" fill="rgb(255,19,19)" stroke="none"/>
<rect x="142" y="134" width="12" height="12" fill="rgb(255,137,137)" stroke="none"/>
<rect x="154" y="134" width="12" height="12" fill="rgb(255,255,255)" stroke="none"/>
<rect x="166" y="134" width="12" height="12" fill="rgb(255,75,75)" stroke="none"/>
<rect x="178" y="134" width="12" height="12" fill="rgb(255,62,62)" stroke="none"/>
<rect x="70" y="146" width="12" height="12" fill="rgb(255,187,187)" stroke="none"/>
<rect x="82" y="146" width="12" height="12" fill="rgb(255,137,137)" stroke="none"/>
<rect x="94" y="146" width="12" height="12" fill="rgb(255,93,93)" stroke="none"/>
<rect x="106" y="146" width="12" height="12" fill="rgb(255,149,149)" stroke="none"/>
<rect x="118" y="146" width="12" height="12" fill="rgb(255,118,118)" stroke="none"/>
<rect x="130" y="146" width="12" height="12" fill="rgb(255,162,162)" stroke="none"/>
<rect x="142" y="146" width="12" height="12" fill="rgb(255,155,155)" stroke="none"/>
<rect x="154" y="146" width="12" height="12" fill="rgb(255,75,75)" stroke="none"/>
<rect x="166" y="146" width="12" height="12" fill="rgb(255,255,255)" stroke="none"/>
<rect x="178" y="146" width="12" height="12" fill="rgb(255,180,180)" stroke="none"/>
<rect x="70" y="158" width="12" height="12" fill="rgb(255,149,149)" stroke="none"/>
<rect x="82" y="158" width="12" height="12" fill="rgb(255,149,149)" stroke="none"/>
<rect x="94" y="158" width="12" height="12" fill="rgb(255,143,143)" stroke="none"/>
<rect x="106" y="158" width="12" height="12" fill="rgb(255,137,137)" stroke="none"/>
<rect x="118" y="158" width="12" height="12" fill="rgb(255,155,155)" stroke="none"/>
<rect x="130" y="158" width="12" height="12" fill="rgb(255,162,162)" stroke="none"/>
<rect x="142" y="158" width="12" height="12" fill="rgb(255,131,131)" stroke="none"/>
<rect x="154" y="158" width="12" height="12" fill="rgb(255,62,62)" stroke="none"/>
<rect x="166" y="158" width="12" height="12" fill="rgb(255,180,180)" stroke="none"/>
<rect x="178" y="158" width="12" height="12" fill="rgb(255,255,255)" stroke="none"/>
<rect x="70" y="50" width="120" height="120" fill="none" stroke="black"/>
</svg>