<svg xmlns="http://www.w3.org/2000/svg" width="900" height="520" viewBox="0 0 900 520">
<rect width="100%" height="100%" fill="white"/>
<text x="450.0" y="28" text-anchor="middle" font-size="22" font-family="Arial">Intra vs Inter KDE: pixel_swd_patch_3_25</text>
<rect x="80" y="50" width="790" height="410" fill="none" stroke="black"/>
<polyline fill="none" stroke="#2f6fed" stroke-width="2.5" points="80.0,225.0 83.3,223.8 86.6,222.7 89.9,221.6 93.2,220.6 96.5,219.6 99.8,218.7 103.1,217.8 106.4,216.9 109.7,216.1 113.1,215.4 116.4,214.7 119.7,214.0 123.0,213.4 126.3,212.9 129.6,212.3 132.9,211.8 136.2,211.4 139.5,211.0 142.8,210.6 146.1,210.3 149.4,210.0 152.7,209.8 156.0,209.5 159.3,209.3 162.6,209.2 165.9,209.1 169.2,208.9 172.6,208.9 175.9,208.8 179.2,208.8 182.5,208.8 185.8,208.8 189.1,208.8 192.4,208.8 195.7,208.9 199.0,208.9 202.3,209.0 205.6,209.1 208.9,209.2 212.2,209.3 215.5,209.4 218.8,209.5 222.1,209.6 225.4,209.8 228.7,209.9 232.1,210.0 235.4,210.1 238.7,210.2 242.0,210.3 245.3,210.4 248.6,210.5 251.9,210.6 255.2,210.7 258.5,210.7 261.8,210.8 265.1,210.8 268.4,210.8 271.7,210.8 275.0,210.8 278.3,210.8 281.6,210.8 284.9,210.7 288.2,210.7 291.5,210.6 294.9,210.5 298.2,210.4 301.5,210.3 304.8,210.1 308.1,210.0 311.4,209.8 314.7,209.6 318.0,209.4 321.3,209.1 324.6,208.9 327.9,208.6 331.2,208.3 334.5,208.0 337.8,207.7 341.1,207.4 344.4,207.1 347.7,206.7 351.0,206.4 354.4,206.0 357.7,205.6 361.0,205.2 364.3,204.8 367.6,204.4 370.9,204.0 374.2,203.6 377.5,203.1 380.8,202.7 384.1,202.3 387.4,201.9 390.7,201.4 394.0,201.0 397.3,200.6 400.6,200.1 403.9,199.7 407.2,199.3 410.5,198.9 413.8,198.5 417.2,198.1 420.5,197.8 423.8,197.4 427.1,197.1 430.4,196.7 433.7,196.4 437.0,196.1 440.3,195.9 443.6,195.6 446.9,195.4 450.2,195.2 453.5,195.0 456.8,194.8 460.1,194.7 463.4,194.6 466.7,194.5 470.0,194.5 473.3,194.5 476.7,194.5 480.0,194.6 483.3,194.7 486.6,194.8 489.9,195.0 493.2,195.2 496.5,195.5 499.8,195.8 503.1,196.1 506.4,196.5 509.7,196.9 513.0,197.4 516.3,197.9 519.6,198.4 522.9,199.0 526.2,199.7 529.5,200.4 532.8,201.1 536.2,201.9 539.5,202.7 542.8,203.6 546.1,204.5 549.4,205.5 552.7,206.6 556.0,207.6 559.3,208.8 562.6,209.9 565.9,211.2 569.2,212.4 572.5,213.7 575.8,215.1 579.1,216.5 582.4,218.0 585.7,219.5 589.0,221.1 592.3,222.7 595.6,224.3 599.0,226.0 602.3,227.8 605.6,229.5 608.9,231.4 612.2,233.2 615.5,235.1 618.8,237.1 622.1,239.1 625.4,241.1 628.7,243.2 632.0,245.3 635.3,247.4 638.6,249.6 641.9,251.8 645.2,254.0 648.5,256.3 651.8,258.6 655.1,260.9 658.5,263.3 661.8,265.6 665.1,268.0 668.4,270.5 671.7,272.9 675.0,275.4 678.3,277.9 681.6,280.4 684.9,282.9 688.2,285.4 691.5,288.0 694.8,290.5 698.1,293.1 701.4,295.7 704.7,298.3 708.0,300.9 711.3,303.5 714.6,306.1 717.9,308.7 721.3,311.3 724.6,313.9 727.9,316.5 731.2,319.1 734.5,321.7 737.8,324.3 741.1,326.8 744.4,329.4 747.7,332.0 751.0,334.5 754.3,337.1 757.6,339.6 760.9,342.1 764.2,344.6 767.5,347.1 770.8,349.5 774.1,351.9 777.4,354.4 780.8,356.8 784.1,359.1 787.4,361.5 790.7,363.8 794.0,366.1 797.3,368.4 800.6,370.6 803.9,372.9 807.2,375.0 810.5,377.2 813.8,379.4 817.1,381.5 820.4,383.5 823.7,385.6 827.0,387.6 830.3,389.6 833.6,391.5 836.9,393.5 840.3,395.3 843.6,397.2 846.9,399.0 850.2,400.8 853.5,402.6 856.8,404.3 860.1,406.0 863.4,407.6 866.7,409.3 870.0,410.8"/>
<polyline fill="none" stroke="#d64545" stroke-width="2.5" points="80.0,449.4 83.3,448.5 86.6,447.5 89.9,446.4 93.2,445.3 96.5,444.1 99.8,442.9 103.1,441.5 106.4,440.1 109.7,438.6 113.1,437.0 116.4,435.3 119.7,433.6 123.0,431.7 126.3,429.7 129.6,427.7 132.9,425.5 136.2,423.3 139.5,420.9 142.8,418.4 146.1,415.9 149.4,413.2 152.7,410.4 156.0,407.5 159.3,404.5 162.6,401.4 165.9,398.2 169.2,394.8 172.6,391.4 175.9,387.8 179.2,384.2 182.5,380.4 185.8,376.6 189.1,372.6 192.4,368.5 195.7,364.4 199.0,360.1 202.3,355.8 205.6,351.3 208.9,346.8 212.2,342.2 215.5,337.5 218.8,332.7 222.1,327.9 225.4,323.0 228.7,318.0 232.1,313.0 235.4,307.9 238.7,302.7 242.0,297.5 245.3,292.3 248.6,287.0 251.9,281.7 255.2,276.3 258.5,270.9 261.8,265.5 265.1,260.0 268.4,254.6 271.7,249.1 275.0,243.6 278.3,238.1 281.6,232.7 284.9,227.2 288.2,221.7 291.5,216.2 294.9,210.8 298.2,205.3 301.5,199.9 304.8,194.6 308.1,189.2 311.4,183.9 314.7,178.6 318.0,173.4 321.3,168.2 324.6,163.1 327.9,158.0 331.2,153.0 334.5,148.1 337.8,143.3 341.1,138.5 344.4,133.8 347.7,129.2 351.0,124.7 354.4,120.3 357.7,115.9 361.0,111.7 364.3,107.6 367.6,103.7 370.9,99.8 374.2,96.1 377.5,92.5 380.8,89.0 384.1,85.7 387.4,82.5 390.7,79.5 394.0,76.6 397.3,73.8 400.6,71.2 403.9,68.8 407.2,66.5 410.5,64.4 413.8,62.4 417.2,60.6 420.5,58.9 423.8,57.4 427.1,56.0 430.4,54.8 433.7,53.7 437.0,52.8 440.3,52.0 443.6,51.4 446.9,50.9 450.2,50.5 453.5,50.2 456.8,50.1 460.1,50.0 463.4,50.0 466.7,50.2 470.0,50.4 473.3,50.7 476.7,51.1 480.0,51.5 483.3,52.0 486.6,52.5 489.9,53.1 493.2,53.7 496.5,54.3 499.8,54.9 503.1,55.5 506.4,56.1 509.7,56.7 513.0,57.3 516.3,57.9 519.6,58.4 522.9,59.0 526.2,59.4 529.5,59.9 532.8,60.3 536.2,60.7 539.5,61.0 542.8,61.3 546.1,61.6 549.4,61.8 552.7,62.0 556.0,62.1 559.3,62.3 562.6,62.4 565.9,62.5 569.2,62.6 572.5,62.8 575.8,62.9 579.1,63.0 582.4,63.2 585.7,63.4 589.0,63.7 592.3,64.0 595.6,64.4 599.0,64.9 602.3,65.5 605.6,66.2 608.9,67.0 612.2,67.9 615.5,68.9 618.8,70.1 622.1,71.4 625.4,72.9 628.7,74.5 632.0,76.3 635.3,78.3 638.6,80.4 641.9,82.7 645.2,85.2 648.5,87.9 651.8,90.7 655.1,93.7 658.5,96.9 661.8,100.3 665.1,103.8 668.4,107.5 671.7,111.3 675.0,115.3 678.3,119.4 681.6,123.6 684.9,128.0 688.2,132.4 691.5,137.0 694.8,141.6 698.1,146.3 701.4,151.1 704.7,155.9 708.0,160.8 711.3,165.7 714.6,170.6 717.9,175.5 721.3,180.4 724.6,185.3 727.9,190.2 731.2,195.0 734.5,199.7 737.8,204.5 741.1,209.1 744.4,213.7 747.7,218.2 751.0,222.6 754.3,226.9 757.6,231.2 760.9,235.3 764.2,239.3 767.5,243.3 770.8,247.1 774.1,250.9 777.4,254.6 780.8,258.1 784.1,261.6 787.4,265.0 790.7,268.3 794.0,271.6 797.3,274.7 800.6,277.8 803.9,280.9 807.2,283.8 810.5,286.8 813.8,289.7 817.1,292.5 820.4,295.3 823.7,298.1 827.0,300.9 830.3,303.6 833.6,306.4 836.9,309.1 840.3,311.9 843.6,314.6 846.9,317.4 850.2,320.1 853.5,322.9 856.8,325.7 860.1,328.6 863.4,331.4 866.7,334.3 870.0,337.2"/>
<text x="740" y="70" font-size="14" font-family="Arial" fill="#2f6fed">intra-class</text>
<text x="740" y="92" font-size="14" font-family="Arial" fill="#d64545">inter-class</text>
</svg>