<svg xmlns="http://www.w3.org/2000/svg" width="900" height="520" viewBox="0 0 900 520">
<rect width="100%" height="100%" fill="white"/>
<text x="450.0" y="28" text-anchor="middle" font-size="22" font-family="Arial">Intra vs Inter KDE: pixel_gram</text>
<rect x="80" y="50" width="790" height="410" fill="none" stroke="black"/>
<polyline fill="none" stroke="#2f6fed" stroke-width="2.5" points="80.0,59.3 83.3,58.1 86.6,57.0 89.9,56.0 93.2,55.0 96.5,54.1 99.8,53.3 103.1,52.6 106.4,52.0 109.7,51.4 113.1,51.0 116.4,50.6 119.7,50.3 123.0,50.1 126.3,50.0 129.6,50.0 132.9,50.1 136.2,50.2 139.5,50.4 142.8,50.8 146.1,51.2 149.4,51.7 152.7,52.2 156.0,52.9 159.3,53.6 162.6,54.4 165.9,55.4 169.2,56.3 172.6,57.4 175.9,58.6 179.2,59.8 182.5,61.1 185.8,62.5 189.1,63.9 192.4,65.5 195.7,67.1 199.0,68.8 202.3,70.5 205.6,72.3 208.9,74.2 212.2,76.2 215.5,78.2 218.8,80.3 222.1,82.5 225.4,84.7 228.7,87.0 232.1,89.4 235.4,91.8 238.7,94.2 242.0,96.7 245.3,99.3 248.6,101.9 251.9,104.6 255.2,107.3 258.5,110.1 261.8,112.9 265.1,115.7 268.4,118.6 271.7,121.6 275.0,124.5 278.3,127.5 281.6,130.6 284.9,133.6 288.2,136.7 291.5,139.9 294.9,143.0 298.2,146.2 301.5,149.4 304.8,152.6 308.1,155.9 311.4,159.1 314.7,162.4 318.0,165.7 321.3,169.0 324.6,172.3 327.9,175.6 331.2,178.9 334.5,182.3 337.8,185.6 341.1,188.9 344.4,192.2 347.7,195.6 351.0,198.9 354.4,202.2 357.7,205.5 361.0,208.8 364.3,212.1 367.6,215.4 370.9,218.6 374.2,221.8 377.5,225.1 380.8,228.3 384.1,231.5 387.4,234.6 390.7,237.7 394.0,240.9 397.3,243.9 400.6,247.0 403.9,250.0 407.2,253.0 410.5,256.0 413.8,258.9 417.2,261.8 420.5,264.7 423.8,267.5 427.1,270.3 430.4,273.1 433.7,275.8 437.0,278.5 440.3,281.1 443.6,283.7 446.9,286.3 450.2,288.8 453.5,291.3 456.8,293.7 460.1,296.1 463.4,298.5 466.7,300.8 470.0,303.0 473.3,305.2 476.7,307.4 480.0,309.5 483.3,311.6 486.6,313.6 489.9,315.5 493.2,317.5 496.5,319.3 499.8,321.2 503.1,323.0 506.4,324.7 509.7,326.4 513.0,328.0 516.3,329.6 519.6,331.1 522.9,332.6 526.2,334.1 529.5,335.5 532.8,336.8 536.2,338.1 539.5,339.4 542.8,340.6 546.1,341.8 549.4,342.9 552.7,344.0 556.0,345.0 559.3,346.0 562.6,346.9 565.9,347.8 569.2,348.7 572.5,349.5 575.8,350.3 579.1,351.0 582.4,351.7 585.7,352.3 589.0,353.0 592.3,353.5 595.6,354.1 599.0,354.6 602.3,355.0 605.6,355.5 608.9,355.9 612.2,356.2 615.5,356.6 618.8,356.9 622.1,357.1 625.4,357.4 628.7,357.6 632.0,357.8 635.3,357.9 638.6,358.1 641.9,358.2 645.2,358.3 648.5,358.3 651.8,358.4 655.1,358.4 658.5,358.4 661.8,358.4 665.1,358.3 668.4,358.2 671.7,358.2 675.0,358.1 678.3,358.0 681.6,357.8 684.9,357.7 688.2,357.6 691.5,357.4 694.8,357.2 698.1,357.1 701.4,356.9 704.7,356.7 708.0,356.5 711.3,356.3 714.6,356.1 717.9,355.9 721.3,355.7 724.6,355.4 727.9,355.2 731.2,355.0 734.5,354.8 737.8,354.6 741.1,354.3 744.4,354.1 747.7,353.9 751.0,353.7 754.3,353.5 757.6,353.3 760.9,353.1 764.2,353.0 767.5,352.8 770.8,352.6 774.1,352.5 777.4,352.3 780.8,352.2 784.1,352.1 787.4,352.0 790.7,351.9 794.0,351.8 797.3,351.7 800.6,351.7 803.9,351.6 807.2,351.6 810.5,351.6 813.8,351.6 817.1,351.6 820.4,351.6 823.7,351.7 827.0,351.7 830.3,351.8 833.6,351.9 836.9,352.0 840.3,352.2 843.6,352.3 846.9,352.5 850.2,352.7 853.5,352.9 856.8,353.1 860.1,353.4 863.4,353.6 866.7,353.9 870.0,354.2"/>
<polyline fill="none" stroke="#d64545" stroke-width="2.5" points="80.0,282.0 83.3,278.1 86.6,274.3 89.9,270.4 93.2,266.6 96.5,262.8 99.8,258.9 103.1,255.1 106.4,251.3 109.7,247.5 113.1,243.8 116.4,240.0 119.7,236.3 123.0,232.6 126.3,229.0 129.6,225.3 132.9,221.8 136.2,218.2 139.5,214.7 142.8,211.3 146.1,207.9 149.4,204.5 152.7,201.2 156.0,198.0 159.3,194.8 162.6,191.7 165.9,188.6 169.2,185.6 172.6,182.7 175.9,179.8 179.2,177.1 182.5,174.4 185.8,171.7 189.1,169.2 192.4,166.7 195.7,164.4 199.0,162.1 202.3,159.9 205.6,157.8 208.9,155.8 212.2,153.9 215.5,152.0 218.8,150.3 222.1,148.7 225.4,147.1 228.7,145.7 232.1,144.4 235.4,143.1 238.7,142.0 242.0,141.0 245.3,140.1 248.6,139.3 251.9,138.6 255.2,138.0 258.5,137.5 261.8,137.1 265.1,136.8 268.4,136.6 271.7,136.6 275.0,136.6 278.3,136.7 281.6,137.0 284.9,137.3 288.2,137.8 291.5,138.3 294.9,139.0 298.2,139.7 301.5,140.5 304.8,141.5 308.1,142.5 311.4,143.6 314.7,144.8 318.0,146.0 321.3,147.4 324.6,148.8 327.9,150.3 331.2,151.9 334.5,153.5 337.8,155.2 341.1,157.0 344.4,158.8 347.7,160.7 351.0,162.6 354.4,164.5 357.7,166.5 361.0,168.6 364.3,170.6 367.6,172.7 370.9,174.8 374.2,176.9 377.5,179.1 380.8,181.2 384.1,183.3 387.4,185.4 390.7,187.6 394.0,189.7 397.3,191.7 400.6,193.8 403.9,195.8 407.2,197.8 410.5,199.7 413.8,201.6 417.2,203.5 420.5,205.3 423.8,207.0 427.1,208.6 430.4,210.2 433.7,211.7 437.0,213.2 440.3,214.5 443.6,215.8 446.9,216.9 450.2,218.0 453.5,219.0 456.8,219.8 460.1,220.6 463.4,221.2 466.7,221.8 470.0,222.2 473.3,222.5 476.7,222.7 480.0,222.7 483.3,222.7 486.6,222.5 489.9,222.2 493.2,221.8 496.5,221.2 499.8,220.5 503.1,219.7 506.4,218.8 509.7,217.7 513.0,216.5 516.3,215.2 519.6,213.8 522.9,212.3 526.2,210.6 529.5,208.8 532.8,206.9 536.2,205.0 539.5,202.8 542.8,200.6 546.1,198.3 549.4,195.9 552.7,193.4 556.0,190.8 559.3,188.2 562.6,185.4 565.9,182.6 569.2,179.7 572.5,176.7 575.8,173.7 579.1,170.6 582.4,167.5 585.7,164.3 589.0,161.0 592.3,157.8 595.6,154.5 599.0,151.2 602.3,147.8 605.6,144.5 608.9,141.1 612.2,137.8 615.5,134.4 618.8,131.1 622.1,127.7 625.4,124.4 628.7,121.1 632.0,117.9 635.3,114.6 638.6,111.5 641.9,108.3 645.2,105.2 648.5,102.2 651.8,99.2 655.1,96.4 658.5,93.5 661.8,90.8 665.1,88.1 668.4,85.5 671.7,83.1 675.0,80.7 678.3,78.4 681.6,76.2 684.9,74.1 688.2,72.1 691.5,70.2 694.8,68.5 698.1,66.9 701.4,65.4 704.7,64.0 708.0,62.8 711.3,61.6 714.6,60.7 717.9,59.8 721.3,59.1 724.6,58.6 727.9,58.1 731.2,57.9 734.5,57.7 737.8,57.7 741.1,57.9 744.4,58.2 747.7,58.7 751.0,59.3 754.3,60.0 757.6,60.9 760.9,62.0 764.2,63.2 767.5,64.6 770.8,66.1 774.1,67.7 777.4,69.5 780.8,71.5 784.1,73.6 787.4,75.8 790.7,78.2 794.0,80.7 797.3,83.3 800.6,86.1 803.9,89.0 807.2,92.1 810.5,95.2 813.8,98.5 817.1,102.0 820.4,105.5 823.7,109.2 827.0,112.9 830.3,116.8 833.6,120.8 836.9,124.9 840.3,129.1 843.6,133.3 846.9,137.7 850.2,142.2 853.5,146.7 856.8,151.3 860.1,156.0 863.4,160.7 866.7,165.5 870.0,170.4"/>
<text x="740" y="70" font-size="14" font-family="Arial" fill="#2f6fed">intra-class</text>
<text x="740" y="92" font-size="14" font-family="Arial" fill="#d64545">inter-class</text>
</svg>