<svg xmlns="http://www.w3.org/2000/svg" width="260" height="220" viewBox="0 0 260 220">
<rect width="100%" height="100%" fill="white"/>
<text x="130.0" y="28" text-anchor="middle" font-size="20" font-family="Arial">Distance Matrix: pixel_swd_patch_3_25</text>
<rect x="70" y="50" width="12" height="12" fill="rgb(255,255,255)" stroke="none"/>
<rect x="82" y="50" width="12" height="12" fill="rgb(255,65,65)" stroke="none"/>
<rect x="94" y="50" width="12" height="12" fill="rgb(255,53,53)" stroke="none"/>
<rect x="106" y="50" width="12" height="12" fill="rgb(255,25,25)" stroke="none"/>
<rect x="118" y="50" width="12" height="12" fill="rgb(255,59,59)" stroke="none"/>
<rect x="130" y="50" width="12" height="12" fill="rgb(255,70,70)" stroke="none"/>
<rect x="142" y="50" width="12" height="12" fill="rgb(255,65,65)" stroke="none"/>
<rect x="154" y="50" width="12" height="12" fill="rgb(255,49,49)" stroke="none"/>
<rect x="166" y="50" width="12" height="12" fill="rgb(255,0,0)" stroke="none"/>
<rect x="178" y="50" width="12" height="12" fill="rgb(255,4,4)" stroke="none"/>
<rect x="70" y="62" width="12" height="12" fill="rgb(255,65,65)" stroke="none"/>
<rect x="82" y="62" width="12" height="12" fill="rgb(255,255,255)" stroke="none"/>
<rect x="94" y="62" width="12" height="12" fill="rgb(255,113,113)" stroke="none"/>
<rect x="106" y="62" width="12" height="12" fill="rgb(255,101,101)" stroke="none"/>
<rect x="118" y="62" width="12" height="12" fill="rgb(255,155,155)" stroke="none"/>
<rect x="130" y="62" width="12" height="12" fill="rgb(255,117,117)" stroke="none"/>
<rect x="142" y="62" width="12" height="12" fill="rgb(255,108,108)" stroke="none"/>
<rect x="154" y="62" width="12" height="12" fill="rgb(255,106,106)" stroke="none"/>
<rect x="166" y="62" width="12" height="12" fill="rgb(255,75,75)" stroke="none"/>
<rect x="178" y="62" width="12" height="12" fill="rgb(255,74,74)" stroke="none"/>
<rect x="70" y="74" width="12" height="12" fill="rgb(255,53,53)" stroke="none"/>
<rect x="82" y="74" width="12" height="12" fill="rgb(255,113,113)" stroke="none"/>
<rect x="94" y="74" width="12" height="12" fill="rgb(255,255,255)" stroke="none"/>
<rect x="106" y="74" width="12" height="12" fill="rgb(255,94,94)" stroke="none"/>
<rect x="118" y="74" width="12" height="12" fill="rgb(255,130,130)" stroke="none"/>
<rect x="130" y="74" width="12" height="12" fill="rgb(255,45,45)" stroke="none"/>
<rect x="142" y="74" width="12" height="12" fill="rgb(255,164,164)" stroke="none"/>
<rect x="154" y="74" width="12" height="12" fill="rgb(255,170,170)" stroke="none"/>
<rect x="166" y="74" width="12" height="12" fill="rgb(255,151,151)" stroke="none"/>
<rect x="178" y="74" width="12" height="12" fill="rgb(255,150,150)" stroke="none"/>
<rect x="70" y="86" width="12" height="12" fill="rgb(255,25,25)" stroke="none"/>
<rect x="82" y="86" width="12" height="12" fill="rgb(255,101,101)" stroke="none"/>
<rect x="94" y="86" width="12" height="12" fill="rgb(255,94,94)" stroke="none"/>
<rect x="106" y="86" width="12" height="12" fill="rgb(255,255,255)" stroke="none"/>
<rect x="118" y="86" width="12" height="12" fill="rgb(255,116,116)" stroke="none"/>
<rect x="130" y="86" width="12" height="12" fill="rgb(255,62,62)" stroke="none"/>
<rect x="142" y="86" width="12" height="12" fill="rgb(255,57,57)" stroke="none"/>
<rect x="154" y="86" width="12" height="12" fill="rgb(255,66,66)" stroke="none"/>
<rect x="166" y="86" width="12" height="12" fill="rgb(255,93,93)" stroke="none"/>
<rect x="178" y="86" width="12" height="12" fill="rgb(255,99,99)" stroke="none"/>
<rect x="70" y="98" width="12" height="12" fill="rgb(255,59,59)" stroke="none"/>
<rect x="82" y="98" width="12" height="12" fill="rgb(255,155,155)" stroke="none"/>
<rect x="94" y="98" width="12" height="12" fill="rgb(255,130,130)" stroke="none"/>
<rect x="106" y="98" width="12" height="12" fill="rgb(255,116,116)" stroke="none"/>
<rect x="118" y="98" width="12" height="12" fill="rgb(255,255,255)" stroke="none"/>
<rect x="130" y="98" width="12" height="12" fill="rgb(255,136,136)" stroke="none"/>
<rect x="142" y="98" width="12" height="12" fill="rgb(255,123,123)" stroke="none"/>
<rect x="154" y="98" width="12" height="12" fill="rgb(255,132,132)" stroke="none"/>
<rect x="166" y="98" width="12" height="12" fill="rgb(255,92,92)" stroke="none"/>
<rect x="178" y="98" width="12" height="12" fill="rgb(255,94,94)" stroke="none"/>
<rect x="70" y="110" width="12" height="12" fill="rgb(255,70,70)" stroke="none"/>
<rect x="82" y="110" width="12" height="12" fill="rgb(255,117,117)" stroke="none"/>
<rect x="94" y="110" width="12" height="12" fill="rgb(255,45,45)" stroke="none"/>
<rect x="106" y="110" width="12" height="12" fill="rgb(255,62,62)" stroke="none"/>
<rect x="118" y="110" width="12" height="12" fill="rgb(255,136,136)" stroke="none"/>
<rect x="130" y="110" width="12" height="12" fill="rgb(255,255,255)" stroke="none"/>
<rect x="142" y="110" width="12" height="12" fill="rgb(255,60,60)" stroke="none"/>
<rect x="154" y="110" width="12" height="12" fill="rgb(255,56,56)" stroke="none"/>
<rect x="166" y="110" width="12" height="12" fill="rgb(255,16,16)" stroke="none"/>
<rect x="178" y="110" width="12" height="12" fill="rgb(255,9,9)" stroke="none"/>
<rect x="70" y="122" width="12" height="12" fill="rgb(255,65,65)" stroke="none"/>
<rect x="82" y="122" width="12" height="12" fill="rgb(255,108,108)" stroke="none"/>
<rect x="94" y="122" width="12" height="12" fill="rgb(255,164,164)" stroke="none"/>
<rect x="106" y="122" width="12" height="12" fill="rgb(255,57,57)" stroke="none"/>
<rect x="118" y="122" width="12" height="12" fill="rgb(255,123,123)" stroke="none"/>
<rect x="130" y="122" width="12" height="12" fill="rgb(255,60,60)" stroke="none"/>
<rect x="142" y="122" width="12" height="12" fill="rgb(255,255,255)" stroke="none"/>
<rect x="154" y="122" width="12" height="12" fill="rgb(255,212,212)" stroke="none"/>
<rect x="166" y="122" width="12" height="12" fill="rgb(255,130,130)" stroke="none"/>
<rect x="178" y="122" width="12" height="12" fill="rgb(255,119,119)" stroke="none"/>
<rect x="70" y="134" width="12" height="12" fill="rgb(255,49,49)" stroke="none"/>
<rect x="82" y="134" width="12" height="12" fill="rgb(255,106,106)" stroke="none"/>
<rect x="94" y="134" width="12" height="12" fill="rgb(255,170,170)" stroke="none"/>
<rect x="106" y="134" width="12" height="12" fill="rgb(255,66,66)" stroke="none"/>
<rect x="118" y="134" width="12" height="12" fill="rgb(255,132,132)" stroke="none"/>
<rect x="130" y="134" width="12" height="12" fill="rgb(255,56,56)" stroke="none"/>
<rect x="142" y="134" width="12" height="12" fill="rgb(255,212,212)" stroke="none"/>
<rect x="154" y="134" width="12" height="12" fill="rgb(255,255,255)" stroke="none"/>
<rect x="166" y="134" width="12" height="12" fill="rgb(255,141,141)" stroke="none"/>
<rect x="178" y="134" width="12" height="12" fill="rgb(255,132,132)" stroke="none"/>
<rect x="70" y="146" width="12" height="12" fill="rgb(255,0,0)" stroke="none"/>
<rect x="82" y="146" width="12" height="12" fill="rgb(255,75,75)" stroke="none"/>
<rect x="94" y="146" width="12" height="12" fill="rgb(255,151,151)" stroke="none"/>
<rect x="106" y="146" width="12" height="12" fill="rgb(255,93,93)" stroke="none"/>
<rect x="118" y="146" width="12" height="12" fill="rgb(255,92,92)" stroke="none"/>
<rect x="130" y="146" width="12" height="12" fill="rgb(255,16,16)" stroke="none"/>
<rect x="142" y="146" width="12" height="12" fill="rgb(255,130,130)" stroke="none"/>
<rect x="154" y="146" width="12" height="12" fill="rgb(255,141,141)" stroke="none"/>
<rect x="166" y="146" width="12" height="12" fill="rgb(255,255,255)" stroke="none"/>
<rect x="178" y="146" width="12" height="12" fill="rgb(255,208,208)" stroke="none"/>
<rect x="70" y="158" width="12" height="12" fill="rgb(255,4,4)" stroke="none"/>
<rect x="82" y="158" width="12" height="12" fill="rgb(255,74,74)" stroke="none"/>
<rect x="94" y="158" width="12" height="12" fill="rgb(255,150,150)" stroke="none"/>
<rect x="106" y="158" width="12" height="12" fill="rgb(255,99,99)" stroke="none"/>
<rect x="118" y="158" width="12" height="12" fill="rgb(255,94,94)" stroke="none"/>
<rect x="130" y="158" width="12" height="12" fill="rgb(255,9,9)" stroke="none"/>
<rect x="142" y="158" width="12" height="12" fill="rgb(255,119,119)" stroke="none"/>
<rect x="154" y="158" width="12" height="12" fill="rgb(255,132,132)" stroke="none"/>
<rect x="166" y="158" width="12" height="12" fill="rgb(255,208,208)" stroke="none"/>
<rect x="178" y="158" width="12" height="12" fill="rgb(255,255,255)" stroke="none"/>
<rect x="70" y="50" width="120" height="120" fill="none" stroke="black"/>
</svg>