<svg xmlns="http://www.w3.org/2000/svg" width="260" height="220" viewBox="0 0 260 220">
<rect width="100%" height="100%" fill="white"/>
<text x="130.0" y="28" text-anchor="middle" font-size="20" font-family="Arial">Distance Matrix: latent_gram</text>
<rect x="70" y="50" width="12" height="12" fill="rgb(255,255,255)" stroke="none"/>
<rect x="82" y="50" width="12" height="12" fill="rgb(255,80,80)" stroke="none"/>
<rect x="94" y="50" width="12" height="12" fill="rgb(255,0,0)" stroke="none"/>
<rect x="106" y="50" width="12" height="12" fill="rgb(255,144,144)" stroke="none"/>
<rect x="118" y="50" width="12" height="12" fill="rgb(255,70,70)" stroke="none"/>
<rect x="130" y="50" width="12" height="12" fill="rgb(255,61,61)" stroke="none"/>
<rect x="142" y="50" width="12" height="12" fill="rgb(255,48,48)" stroke="none"/>
<rect x="154" y="50" width="12" height="12" fill="rgb(255,46,46)" stroke="none"/>
<rect x="166" y="50" width="12" height="12" fill="rgb(255,42,42)" stroke="none"/>
<rect x="178" y="50" width="12" height="12" fill="rgb(255,39,39)" stroke="none"/>
<rect x="70" y="62" width="12" height="12" fill="rgb(255,80,80)" stroke="none"/>
<rect x="82" y="62" width="12" height="12" fill="rgb(255,255,255)" stroke="none"/>
<rect x="94" y="62" width="12" height="12" fill="rgb(255,95,95)" stroke="none"/>
<rect x="106" y="62" width="12" height="12" fill="rgb(255,125,125)" stroke="none"/>
<rect x="118" y="62" width="12" height="12" fill="rgb(255,168,168)" stroke="none"/>
<rect x="130" y="62" width="12" height="12" fill="rgb(255,183,183)" stroke="none"/>
<rect x="142" y="62" width="12" height="12" fill="rgb(255,137,137)" stroke="none"/>
<rect x="154" y="62" width="12" height="12" fill="rgb(255,142,142)" stroke="none"/>
<rect x="166" y="62" width="12" height="12" fill="rgb(255,132,132)" stroke="none"/>
<rect x="178" y="62" width="12" height="12" fill="rgb(255,129,129)" stroke="none"/>
<rect x="70" y="74" width="12" height="12" fill="rgb(255,0,0)" stroke="none"/>
<rect x="82" y="74" width="12" height="12" fill="rgb(255,95,95)" stroke="none"/>
<rect x="94" y="74" width="12" height="12" fill="rgb(255,255,255)" stroke="none"/>
<rect x="106" y="74" width="12" height="12" fill="rgb(255,14,14)" stroke="none"/>
<rect x="118" y="74" width="12" height="12" fill="rgb(255,179,179)" stroke="none"/>
<rect x="130" y="74" width="12" height="12" fill="rgb(255,162,162)" stroke="none"/>
<rect x="142" y="74" width="12" height="12" fill="rgb(255,178,178)" stroke="none"/>
<rect x="154" y="74" width="12" height="12" fill="rgb(255,187,187)" stroke="none"/>
<rect x="166" y="74" width="12" height="12" fill="rgb(255,198,198)" stroke="none"/>
<rect x="178" y="74" width="12" height="12" fill="rgb(255,198,198)" stroke="none"/>
<rect x="70" y="86" width="12" height="12" fill="rgb(255,144,144)" stroke="none"/>
<rect x="82" y="86" width="12" height="12" fill="rgb(255,125,125)" stroke="none"/>
<rect x="94" y="86" width="12" height="12" fill="rgb(255,14,14)" stroke="none"/>
<rect x="106" y="86" width="12" height="12" fill="rgb(255,255,255)" stroke="none"/>
<rect x="118" y="86" width="12" height="12" fill="rgb(255,70,70)" stroke="none"/>
<rect x="130" y="86" width="12" height="12" fill="rgb(255,80,80)" stroke="none"/>
<rect x="142" y="86" width="12" height="12" fill="rgb(255,48,48)" stroke="none"/>
<rect x="154" y="86" width="12" height="12" fill="rgb(255,48,48)" stroke="none"/>
<rect x="166" y="86" width="12" height="12" fill="rgb(255,39,39)" stroke="none"/>
<rect x="178" y="86" width="12" height="12" fill="rgb(255,36,36)" stroke="none"/>
<rect x="70" y="98" width="12" height="12" fill="rgb(255,70,70)" stroke="none"/>
<rect x="82" y="98" width="12" height="12" fill="rgb(255,168,168)" stroke="none"/>
<rect x="94" y="98" width="12" height="12" fill="rgb(255,179,179)" stroke="none"/>
<rect x="106" y="98" width="12" height="12" fill="rgb(255,70,70)" stroke="none"/>
<rect x="118" y="98" width="12" height="12" fill="rgb(255,255,255)" stroke="none"/>
<rect x="130" y="98" width="12" height="12" fill="rgb(255,216,216)" stroke="none"/>
<rect x="142" y="98" width="12" height="12" fill="rgb(255,213,213)" stroke="none"/>
<rect x="154" y="98" width="12" height="12" fill="rgb(255,219,219)" stroke="none"/>
<rect x="166" y="98" width="12" height="12" fill="rgb(255,207,207)" stroke="none"/>
<rect x="178" y="98" width="12" height="12" fill="rgb(255,204,204)" stroke="none"/>
<rect x="70" y="110" width="12" height="12" fill="rgb(255,61,61)" stroke="none"/>
<rect x="82" y="110" width="12" height="12" fill="rgb(255,183,183)" stroke="none"/>
<rect x="94" y="110" width="12" height="12" fill="rgb(255,162,162)" stroke="none"/>
<rect x="106" y="110" width="12" height="12" fill="rgb(255,80,80)" stroke="none"/>
<rect x="118" y="110" width="12" height="12" fill="rgb(255,216,216)" stroke="none"/>
<rect x="130" y="110" width="12" height="12" fill="rgb(255,255,255)" stroke="none"/>
<rect x="142" y="110" width="12" height="12" fill="rgb(255,180,180)" stroke="none"/>
<rect x="154" y="110" width="12" height="12" fill="rgb(255,188,188)" stroke="none"/>
<rect x="166" y="110" width="12" height="12" fill="rgb(255,189,189)" stroke="none"/>
<rect x="178" y="110" width="12" height="12" fill="rgb(255,185,185)" stroke="none"/>
<rect x="70" y="122" width="12" height="12" fill="rgb(255,48,48)" stroke="none"/>
<rect x="82" y="122" width="12" height="12" fill="rgb(255,137,137)" stroke="none"/>
<rect x="94" y="122" width="12" height="12" fill="rgb(255,178,178)" stroke="none"/>
<rect x="106" y="122" width="12" height="12" fill="rgb(255,48,48)" stroke="none"/>
<rect x="118" y="122" width="12" height="12" fill="rgb(255,213,213)" stroke="none"/>
<rect x="130" y="122" width="12" height="12" fill="rgb(255,180,180)" stroke="none"/>
<rect x="142" y="122" width="12" height="12" fill="rgb(255,255,255)" stroke="none"/>
<rect x="154" y="122" width="12" height="12" fill="rgb(255,241,241)" stroke="none"/>
<rect x="166" y="122" width="12" height="12" fill="rgb(255,189,189)" stroke="none"/>
<rect x="178" y="122" width="12" height="12" fill="rgb(255,187,187)" stroke="none"/>
<rect x="70" y="134" width="12" height="12" fill="rgb(255,46,46)" stroke="none"/>
<rect x="82" y="134" width="12" height="12" fill="rgb(255,142,142)" stroke="none"/>
<rect x="94" y="134" width="12" height="12" fill="rgb(255,187,187)" stroke="none"/>
<rect x="106" y="134" width="12" height="12" fill="rgb(255,48,48)" stroke="none"/>
<rect x="118" y="134" width="12" height="12" fill="rgb(255,219,219)" stroke="none"/>
<rect x="130" y="134" width="12" height="12" fill="rgb(255,188,188)" stroke="none"/>
<rect x="142" y="134" width="12" height="12" fill="rgb(255,241,241)" stroke="none"/>
<rect x="154" y="134" width="12" height="12" fill="rgb(255,255,255)" stroke="none"/>
<rect x="166" y="134" width="12" height="12" fill="rgb(255,199,199)" stroke="none"/>
<rect x="178" y="134" width="12" height="12" fill="rgb(255,196,196)" stroke="none"/>
<rect x="70" y="146" width="12" height="12" fill="rgb(255,42,42)" stroke="none"/>
<rect x="82" y="146" width="12" height="12" fill="rgb(255,132,132)" stroke="none"/>
<rect x="94" y="146" width="12" height="12" fill="rgb(255,198,198)" stroke="none"/>
<rect x="106" y="146" width="12" height="12" fill="rgb(255,39,39)" stroke="none"/>
<rect x="118" y="146" width="12" height="12" fill="rgb(255,207,207)" stroke="none"/>
<rect x="130" y="146" width="12" height="12" fill="rgb(255,189,189)" stroke="none"/>
<rect x="142" y="146" width="12" height="12" fill="rgb(255,189,189)" stroke="none"/>
<rect x="154" y="146" width="12" height="12" fill="rgb(255,199,199)" stroke="none"/>
<rect x="166" y="146" width="12" height="12" fill="rgb(255,255,255)" stroke="none"/>
<rect x="178" y="146" width="12" height="12" fill="rgb(255,250,250)" stroke="none"/>
<rect x="70" y="158" width="12" height="12" fill="rgb(255,39,39)" stroke="none"/>
<rect x="82" y="158" width="12" height="12" fill="rgb(255,129,129)" stroke="none"/>
<rect x="94" y="158" width="12" height="12" fill="rgb(255,198,198)" stroke="none"/>
<rect x="106" y="158" width="12" height="12" fill="rgb(255,36,36)" stroke="none"/>
<rect x="118" y="158" width="12" height="12" fill="rgb(255,204,204)" stroke="none"/>
<rect x="130" y="158" width="12" height="12" fill="rgb(255,185,185)" stroke="none"/>
<rect x="142" y="158" width="12" height="12" fill="rgb(255,187,187)" stroke="none"/>
<rect x="154" y="158" width="12" height="12" fill="rgb(255,196,196)" stroke="none"/>
<rect x="166" y="158" width="12" height="12" fill="rgb(255,250,250)" stroke="none"/>
<rect x="178" y="158" width="12" height="12" fill="rgb(255,255,255)" stroke="none"/>
<rect x="70" y="50" width="120" height="120" fill="none" stroke="black"/>
</svg>