<svg xmlns="http://www.w3.org/2000/svg" width="900" height="520" viewBox="0 0 900 520">
<rect width="100%" height="100%" fill="white"/>
<text x="450.0" y="28" text-anchor="middle" font-size="22" font-family="Arial">Intra vs Inter KDE: latent_tree_swd_patch_3_25</text>
<rect x="80" y="50" width="790" height="410" fill="none" stroke="black"/>
<polyline fill="none" stroke="#2f6fed" stroke-width="2.5" points="80.0,255.1 83.3,246.3 86.6,237.4 89.9,228.5 93.2,219.7 96.5,210.9 99.8,202.1 103.1,193.4 106.4,184.9 109.7,176.5 113.1,168.2 116.4,160.2 119.7,152.3 123.0,144.7 126.3,137.4 129.6,130.3 132.9,123.5 136.2,117.0 139.5,110.8 142.8,105.0 146.1,99.5 149.4,94.4 152.7,89.6 156.0,85.2 159.3,81.2 162.6,77.5 165.9,74.2 169.2,71.2 172.6,68.6 175.9,66.3 179.2,64.3 182.5,62.6 185.8,61.3 189.1,60.2 192.4,59.4 195.7,58.8 199.0,58.4 202.3,58.3 205.6,58.3 208.9,58.5 212.2,58.8 215.5,59.2 218.8,59.7 222.1,60.3 225.4,60.9 228.7,61.6 232.1,62.2 235.4,62.9 238.7,63.5 242.0,64.1 245.3,64.6 248.6,65.0 251.9,65.4 255.2,65.7 258.5,65.8 261.8,65.9 265.1,65.9 268.4,65.7 271.7,65.4 275.0,65.1 278.3,64.6 281.6,64.0 284.9,63.3 288.2,62.6 291.5,61.7 294.9,60.8 298.2,59.8 301.5,58.8 304.8,57.8 308.1,56.8 311.4,55.7 314.7,54.7 318.0,53.8 321.3,52.9 324.6,52.1 327.9,51.4 331.2,50.8 334.5,50.4 337.8,50.1 341.1,50.0 344.4,50.1 347.7,50.4 351.0,51.0 354.4,51.8 357.7,52.9 361.0,54.2 364.3,55.9 367.6,57.8 370.9,60.1 374.2,62.7 377.5,65.6 380.8,68.9 384.1,72.5 387.4,76.4 390.7,80.7 394.0,85.3 397.3,90.3 400.6,95.6 403.9,101.2 407.2,107.1 410.5,113.3 413.8,119.8 417.2,126.6 420.5,133.6 423.8,140.9 427.1,148.4 430.4,156.2 433.7,164.1 437.0,172.2 440.3,180.4 443.6,188.7 446.9,197.2 450.2,205.7 453.5,214.3 456.8,223.0 460.1,231.6 463.4,240.3 466.7,248.9 470.0,257.5 473.3,266.0 476.7,274.4 480.0,282.7 483.3,290.8 486.6,298.9 489.9,306.8 493.2,314.5 496.5,322.0 499.8,329.4 503.1,336.5 506.4,343.4 509.7,350.1 513.0,356.6 516.3,362.8 519.6,368.8 522.9,374.6 526.2,380.1 529.5,385.4 532.8,390.4 536.2,395.2 539.5,399.8 542.8,404.1 546.1,408.2 549.4,412.1 552.7,415.8 556.0,419.2 559.3,422.4 562.6,425.5 565.9,428.3 569.2,431.0 572.5,433.4 575.8,435.7 579.1,437.9 582.4,439.9 585.7,441.7 589.0,443.4 592.3,444.9 595.6,446.4 599.0,447.7 602.3,448.9 605.6,450.0 608.9,451.0 612.2,451.9 615.5,452.8 618.8,453.5 622.1,454.2 625.4,454.9 628.7,455.4 632.0,455.9 635.3,456.4 638.6,456.8 641.9,457.2 645.2,457.5 648.5,457.8 651.8,458.1 655.1,458.3 658.5,458.5 661.8,458.7 665.1,458.9 668.4,459.0 671.7,459.1 675.0,459.2 678.3,459.3 681.6,459.4 684.9,459.5 688.2,459.6 691.5,459.6 694.8,459.7 698.1,459.7 701.4,459.8 704.7,459.8 708.0,459.8 711.3,459.9 714.6,459.9 717.9,459.9 721.3,459.9 724.6,459.9 727.9,459.9 731.2,459.9 734.5,460.0 737.8,460.0 741.1,460.0 744.4,460.0 747.7,460.0 751.0,460.0 754.3,460.0 757.6,460.0 760.9,460.0 764.2,460.0 767.5,460.0 770.8,460.0 774.1,460.0 777.4,460.0 780.8,460.0 784.1,460.0 787.4,460.0 790.7,460.0 794.0,460.0 797.3,460.0 800.6,460.0 803.9,460.0 807.2,460.0 810.5,460.0 813.8,460.0 817.1,460.0 820.4,460.0 823.7,460.0 827.0,460.0 830.3,460.0 833.6,460.0 836.9,460.0 840.3,460.0 843.6,460.0 846.9,460.0 850.2,460.0 853.5,460.0 856.8,460.0 860.1,460.0 863.4,460.0 866.7,460.0 870.0,460.0"/>
<polyline fill="none" stroke="#d64545" stroke-width="2.5" points="80.0,407.5 83.3,405.7 86.6,403.9 89.9,402.1 93.2,400.1 96.5,398.1 99.8,396.1 103.1,393.9 106.4,391.7 109.7,389.4 113.1,387.0 116.4,384.6 119.7,382.0 123.0,379.3 126.3,376.5 129.6,373.6 132.9,370.6 136.2,367.4 139.5,364.2 142.8,360.7 146.1,357.2 149.4,353.5 152.7,349.7 156.0,345.7 159.3,341.6 162.6,337.3 165.9,332.9 169.2,328.3 172.6,323.6 175.9,318.7 179.2,313.7 182.5,308.6 185.8,303.3 189.1,297.9 192.4,292.3 195.7,286.7 199.0,280.9 202.3,275.0 205.6,269.0 208.9,263.0 212.2,256.9 215.5,250.7 218.8,244.5 222.1,238.2 225.4,231.9 228.7,225.6 232.1,219.3 235.4,213.0 238.7,206.7 242.0,200.5 245.3,194.4 248.6,188.3 251.9,182.3 255.2,176.4 258.5,170.7 261.8,165.0 265.1,159.5 268.4,154.2 271.7,149.0 275.0,144.1 278.3,139.3 281.6,134.7 284.9,130.3 288.2,126.2 291.5,122.3 294.9,118.6 298.2,115.1 301.5,111.9 304.8,109.0 308.1,106.3 311.4,103.8 314.7,101.6 318.0,99.6 321.3,97.9 324.6,96.5 327.9,95.3 331.2,94.3 334.5,93.6 337.8,93.0 341.1,92.7 344.4,92.7 347.7,92.8 351.0,93.1 354.4,93.6 357.7,94.2 361.0,95.1 364.3,96.1 367.6,97.2 370.9,98.5 374.2,99.8 377.5,101.3 380.8,102.9 384.1,104.6 387.4,106.4 390.7,108.2 394.0,110.1 397.3,112.0 400.6,114.0 403.9,116.0 407.2,118.1 410.5,120.1 413.8,122.2 417.2,124.3 420.5,126.4 423.8,128.4 427.1,130.5 430.4,132.5 433.7,134.6 437.0,136.6 440.3,138.6 443.6,140.6 446.9,142.5 450.2,144.5 453.5,146.4 456.8,148.3 460.1,150.2 463.4,152.1 466.7,153.9 470.0,155.8 473.3,157.6 476.7,159.5 480.0,161.3 483.3,163.2 486.6,165.0 489.9,166.9 493.2,168.7 496.5,170.6 499.8,172.5 503.1,174.4 506.4,176.4 509.7,178.3 513.0,180.3 516.3,182.4 519.6,184.5 522.9,186.6 526.2,188.7 529.5,191.0 532.8,193.2 536.2,195.5 539.5,197.9 542.8,200.3 546.1,202.7 549.4,205.2 552.7,207.8 556.0,210.4 559.3,213.1 562.6,215.8 565.9,218.6 569.2,221.5 572.5,224.4 575.8,227.4 579.1,230.4 582.4,233.5 585.7,236.6 589.0,239.8 592.3,243.0 595.6,246.3 599.0,249.6 602.3,253.0 605.6,256.4 608.9,259.9 612.2,263.4 615.5,267.0 618.8,270.6 622.1,274.2 625.4,277.9 628.7,281.6 632.0,285.3 635.3,289.0 638.6,292.7 641.9,296.5 645.2,300.3 648.5,304.1 651.8,307.9 655.1,311.7 658.5,315.4 661.8,319.2 665.1,323.0 668.4,326.7 671.7,330.5 675.0,334.2 678.3,337.8 681.6,341.5 684.9,345.1 688.2,348.7 691.5,352.2 694.8,355.7 698.1,359.1 701.4,362.4 704.7,365.7 708.0,369.0 711.3,372.2 714.6,375.3 717.9,378.3 721.3,381.2 724.6,384.1 727.9,386.9 731.2,389.6 734.5,392.2 737.8,394.8 741.1,397.2 744.4,399.6 747.7,401.8 751.0,404.0 754.3,406.1 757.6,408.1 760.9,410.0 764.2,411.8 767.5,413.5 770.8,415.2 774.1,416.7 777.4,418.2 780.8,419.5 784.1,420.8 787.4,422.0 790.7,423.2 794.0,424.3 797.3,425.3 800.6,426.2 803.9,427.1 807.2,427.9 810.5,428.6 813.8,429.3 817.1,430.0 820.4,430.6 823.7,431.1 827.0,431.7 830.3,432.1 833.6,432.6 836.9,433.0 840.3,433.5 843.6,433.8 846.9,434.2 850.2,434.6 853.5,434.9 856.8,435.3 860.1,435.6 863.4,436.0 866.7,436.3 870.0,436.6"/>
<text x="740" y="70" font-size="14" font-family="Arial" fill="#2f6fed">intra-class</text>
<text x="740" y="92" font-size="14" font-family="Arial" fill="#d64545">inter-class</text>
</svg>