<svg xmlns="http://www.w3.org/2000/svg" width="260" height="220" viewBox="0 0 260 220">
<rect width="100%" height="100%" fill="white"/>
<text x="130.0" y="28" text-anchor="middle" font-size="20" font-family="Arial">Distance Matrix: pixel_gram</text>
<rect x="70" y="50" width="12" height="12" fill="rgb(255,255,255)" stroke="none"/>
<rect x="82" y="50" width="12" height="12" fill="rgb(255,219,219)" stroke="none"/>
<rect x="94" y="50" width="12" height="12" fill="rgb(255,53,53)" stroke="none"/>
<rect x="106" y="50" width="12" height="12" fill="rgb(255,0,0)" stroke="none"/>
<rect x="118" y="50" width="12" height="12" fill="rgb(255,41,41)" stroke="none"/>
<rect x="130" y="50" width="12" height="12" fill="rgb(255,115,115)" stroke="none"/>
<rect x="142" y="50" width="12" height="12" fill="rgb(255,124,124)" stroke="none"/>
<rect x="154" y="50" width="12" height="12" fill="rgb(255,123,123)" stroke="none"/>
<rect x="166" y="50" width="12" height="12" fill="rgb(255,203,203)" stroke="none"/>
<rect x="178" y="50" width="12" height="12" fill="rgb(255,203,203)" stroke="none"/>
<rect x="70" y="62" width="12" height="12" fill="rgb(255,219,219)" stroke="none"/>
<rect x="82" y="62" width="12" height="12" fill="rgb(255,255,255)" stroke="none"/>
<rect x="94" y="62" width="12" height="12" fill="rgb(255,65,65)" stroke="none"/>
<rect x="106" y="62" width="12" height="12" fill="rgb(255,12,12)" stroke="none"/>
<rect x="118" y="62" width="12" height="12" fill="rgb(255,53,53)" stroke="none"/>
<rect x="130" y="62" width="12" height="12" fill="rgb(255,127,127)" stroke="none"/>
<rect x="142" y="62" width="12" height="12" fill="rgb(255,141,141)" stroke="none"/>
<rect x="154" y="62" width="12" height="12" fill="rgb(255,140,140)" stroke="none"/>
<rect x="166" y="62" width="12" height="12" fill="rgb(255,224,224)" stroke="none"/>
<rect x="178" y="62" width="12" height="12" fill="rgb(255,224,224)" stroke="none"/>
<rect x="70" y="74" width="12" height="12" fill="rgb(255,53,53)" stroke="none"/>
<rect x="82" y="74" width="12" height="12" fill="rgb(255,65,65)" stroke="none"/>
<rect x="94" y="74" width="12" height="12" fill="rgb(255,255,255)" stroke="none"/>
<rect x="106" y="74" width="12" height="12" fill="rgb(255,190,190)" stroke="none"/>
<rect x="118" y="74" width="12" height="12" fill="rgb(255,225,225)" stroke="none"/>
<rect x="130" y="74" width="12" height="12" fill="rgb(255,191,191)" stroke="none"/>
<rect x="142" y="74" width="12" height="12" fill="rgb(255,174,174)" stroke="none"/>
<rect x="154" y="74" width="12" height="12" fill="rgb(255,174,174)" stroke="none"/>
<rect x="166" y="74" width="12" height="12" fill="rgb(255,95,95)" stroke="none"/>
<rect x="178" y="74" width="12" height="12" fill="rgb(255,95,95)" stroke="none"/>
<rect x="70" y="86" width="12" height="12" fill="rgb(255,0,0)" stroke="none"/>
<rect x="82" y="86" width="12" height="12" fill="rgb(255,12,12)" stroke="none"/>
<rect x="94" y="86" width="12" height="12" fill="rgb(255,190,190)" stroke="none"/>
<rect x="106" y="86" width="12" height="12" fill="rgb(255,255,255)" stroke="none"/>
<rect x="118" y="86" width="12" height="12" fill="rgb(255,214,214)" stroke="none"/>
<rect x="130" y="86" width="12" height="12" fill="rgb(255,140,140)" stroke="none"/>
<rect x="142" y="86" width="12" height="12" fill="rgb(255,126,126)" stroke="none"/>
<rect x="154" y="86" width="12" height="12" fill="rgb(255,127,127)" stroke="none"/>
<rect x="166" y="86" width="12" height="12" fill="rgb(255,41,41)" stroke="none"/>
<rect x="178" y="86" width="12" height="12" fill="rgb(255,41,41)" stroke="none"/>
<rect x="70" y="98" width="12" height="12" fill="rgb(255,41,41)" stroke="none"/>
<rect x="82" y="98" width="12" height="12" fill="rgb(255,53,53)" stroke="none"/>
<rect x="94" y="98" width="12" height="12" fill="rgb(255,225,225)" stroke="none"/>
<rect x="106" y="98" width="12" height="12" fill="rgb(255,214,214)" stroke="none"/>
<rect x="118" y="98" width="12" height="12" fill="rgb(255,255,255)" stroke="none"/>
<rect x="130" y="98" width="12" height="12" fill="rgb(255,181,181)" stroke="none"/>
<rect x="142" y="98" width="12" height="12" fill="rgb(255,167,167)" stroke="none"/>
<rect x="154" y="98" width="12" height="12" fill="rgb(255,168,168)" stroke="none"/>
<rect x="166" y="98" width="12" height="12" fill="rgb(255,82,82)" stroke="none"/>
<rect x="178" y="98" width="12" height="12" fill="rgb(255,82,82)" stroke="none"/>
<rect x="70" y="110" width="12" height="12" fill="rgb(255,115,115)" stroke="none"/>
<rect x="82" y="110" width="12" height="12" fill="rgb(255,127,127)" stroke="none"/>
<rect x="94" y="110" width="12" height="12" fill="rgb(255,191,191)" stroke="none"/>
<rect x="106" y="110" width="12" height="12" fill="rgb(255,140,140)" stroke="none"/>
<rect x="118" y="110" width="12" height="12" fill="rgb(255,181,181)" stroke="none"/>
<rect x="130" y="110" width="12" height="12" fill="rgb(255,255,255)" stroke="none"/>
<rect x="142" y="110" width="12" height="12" fill="rgb(255,225,225)" stroke="none"/>
<rect x="154" y="110" width="12" height="12" fill="rgb(255,225,225)" stroke="none"/>
<rect x="166" y="110" width="12" height="12" fill="rgb(255,156,156)" stroke="none"/>
<rect x="178" y="110" width="12" height="12" fill="rgb(255,156,156)" stroke="none"/>
<rect x="70" y="122" width="12" height="12" fill="rgb(255,124,124)" stroke="none"/>
<rect x="82" y="122" width="12" height="12" fill="rgb(255,141,141)" stroke="none"/>
<rect x="94" y="122" width="12" height="12" fill="rgb(255,174,174)" stroke="none"/>
<rect x="106" y="122" width="12" height="12" fill="rgb(255,126,126)" stroke="none"/>
<rect x="118" y="122" width="12" height="12" fill="rgb(255,167,167)" stroke="none"/>
<rect x="130" y="122" width="12" height="12" fill="rgb(255,225,225)" stroke="none"/>
<rect x="142" y="122" width="12" height="12" fill="rgb(255,255,255)" stroke="none"/>
<rect x="154" y="122" width="12" height="12" fill="rgb(255,254,254)" stroke="none"/>
<rect x="166" y="122" width="12" height="12" fill="rgb(255,170,170)" stroke="none"/>
<rect x="178" y="122" width="12" height="12" fill="rgb(255,170,170)" stroke="none"/>
<rect x="70" y="134" width="12" height="12" fill="rgb(255,123,123)" stroke="none"/>
<rect x="82" y="134" width="12" height="12" fill="rgb(255,140,140)" stroke="none"/>
<rect x="94" y="134" width="12" height="12" fill="rgb(255,174,174)" stroke="none"/>
<rect x="106" y="134" width="12" height="12" fill="rgb(255,127,127)" stroke="none"/>
<rect x="118" y="134" width="12" height="12" fill="rgb(255,168,168)" stroke="none"/>
<rect x="130" y="134" width="12" height="12" fill="rgb(255,225,225)" stroke="none"/>
<rect x="142" y="134" width="12" height="12" fill="rgb(255,254,254)" stroke="none"/>
<rect x="154" y="134" width="12" height="12" fill="rgb(255,255,255)" stroke="none"/>
<rect x="166" y="134" width="12" height="12" fill="rgb(255,169,169)" stroke="none"/>
<rect x="178" y="134" width="12" height="12" fill="rgb(255,169,169)" stroke="none"/>
<rect x="70" y="146" width="12" height="12" fill="rgb(255,203,203)" stroke="none"/>
<rect x="82" y="146" width="12" height="12" fill="rgb(255,224,224)" stroke="none"/>
<rect x="94" y="146" width="12" height="12" fill="rgb(255,95,95)" stroke="none"/>
<rect x="106" y="146" width="12" height="12" fill="rgb(255,41,41)" stroke="none"/>
<rect x="118" y="146" width="12" height="12" fill="rgb(255,82,82)" stroke="none"/>
<rect x="130" y="146" width="12" height="12" fill="rgb(255,156,156)" stroke="none"/>
<rect x="142" y="146" width="12" height="12" fill="rgb(255,170,170)" stroke="none"/>
<rect x="154" y="146" width="12" height="12" fill="rgb(255,169,169)" stroke="none"/>
<rect x="166" y="146" width="12" height="12" fill="rgb(255,255,255)" stroke="none"/>
<rect x="178" y="146" width="12" height="12" fill="rgb(255,255,255)" stroke="none"/>
<rect x="70" y="158" width="12" height="12" fill="rgb(255,203,203)" stroke="none"/>
<rect x="82" y="158" width="12" height="12" fill="rgb(255,224,224)" stroke="none"/>
<rect x="94" y="158" width="12" height="12" fill="rgb(255,95,95)" stroke="none"/>
<rect x="106" y="158" width="12" height="12" fill="rgb(255,41,41)" stroke="none"/>
<rect x="118" y="158" width="12" height="12" fill="rgb(255,82,82)" stroke="none"/>
<rect x="130" y="158" width="12" height="12" fill="rgb(255,156,156)" stroke="none"/>
<rect x="142" y="158" width="12" height="12" fill="rgb(255,170,170)" stroke="none"/>
<rect x="154" y="158" width="12" height="12" fill="rgb(255,169,169)" stroke="none"/>
<rect x="166" y="158" width="12" height="12" fill="rgb(255,255,255)" stroke="none"/>
<rect x="178" y="158" width="12" height="12" fill="rgb(255,255,255)" stroke="none"/>
<rect x="70" y="50" width="120" height="120" fill="none" stroke="black"/>
</svg>