<svg xmlns="http://www.w3.org/2000/svg" width="260" height="220" viewBox="0 0 260 220">
<rect width="100%" height="100%" fill="white"/>
<text x="130.0" y="28" text-anchor="middle" font-size="20" font-family="Arial">Distance Matrix: latent_swd_patch_3_25</text>
<rect x="70" y="50" width="12" height="12" fill="rgb(255,255,255)" stroke="none"/>
<rect x="82" y="50" width="12" height="12" fill="rgb(255,62,62)" stroke="none"/>
<rect x="94" y="50" width="12" height="12" fill="rgb(255,9,9)" stroke="none"/>
<rect x="106" y="50" width="12" height="12" fill="rgb(255,74,74)" stroke="none"/>
<rect x="118" y="50" width="12" height="12" fill="rgb(255,12,12)" stroke="none"/>
<rect x="130" y="50" width="12" height="12" fill="rgb(255,0,0)" stroke="none"/>
<rect x="142" y="50" width="12" height="12" fill="rgb(255,9,9)" stroke="none"/>
<rect x="154" y="50" width="12" height="12" fill="rgb(255,4,4)" stroke="none"/>
<rect x="166" y="50" width="12" height="12" fill="rgb(255,56,56)" stroke="none"/>
<rect x="178" y="50" width="12" height="12" fill="rgb(255,56,56)" stroke="none"/>
<rect x="70" y="62" width="12" height="12" fill="rgb(255,62,62)" stroke="none"/>
<rect x="82" y="62" width="12" height="12" fill="rgb(255,255,255)" stroke="none"/>
<rect x="94" y="62" width="12" height="12" fill="rgb(255,31,31)" stroke="none"/>
<rect x="106" y="62" width="12" height="12" fill="rgb(255,66,66)" stroke="none"/>
<rect x="118" y="62" width="12" height="12" fill="rgb(255,104,104)" stroke="none"/>
<rect x="130" y="62" width="12" height="12" fill="rgb(255,146,146)" stroke="none"/>
<rect x="142" y="62" width="12" height="12" fill="rgb(255,120,120)" stroke="none"/>
<rect x="154" y="62" width="12" height="12" fill="rgb(255,122,122)" stroke="none"/>
<rect x="166" y="62" width="12" height="12" fill="rgb(255,149,149)" stroke="none"/>
<rect x="178" y="62" width="12" height="12" fill="rgb(255,144,144)" stroke="none"/>
<rect x="70" y="74" width="12" height="12" fill="rgb(255,9,9)" stroke="none"/>
<rect x="82" y="74" width="12" height="12" fill="rgb(255,31,31)" stroke="none"/>
<rect x="94" y="74" width="12" height="12" fill="rgb(255,255,255)" stroke="none"/>
<rect x="106" y="74" width="12" height="12" fill="rgb(255,110,110)" stroke="none"/>
<rect x="118" y="74" width="12" height="12" fill="rgb(255,119,119)" stroke="none"/>
<rect x="130" y="74" width="12" height="12" fill="rgb(255,101,101)" stroke="none"/>
<rect x="142" y="74" width="12" height="12" fill="rgb(255,114,114)" stroke="none"/>
<rect x="154" y="74" width="12" height="12" fill="rgb(255,112,112)" stroke="none"/>
<rect x="166" y="74" width="12" height="12" fill="rgb(255,83,83)" stroke="none"/>
<rect x="178" y="74" width="12" height="12" fill="rgb(255,81,81)" stroke="none"/>
<rect x="70" y="86" width="12" height="12" fill="rgb(255,74,74)" stroke="none"/>
<rect x="82" y="86" width="12" height="12" fill="rgb(255,66,66)" stroke="none"/>
<rect x="94" y="86" width="12" height="12" fill="rgb(255,110,110)" stroke="none"/>
<rect x="106" y="86" width="12" height="12" fill="rgb(255,255,255)" stroke="none"/>
<rect x="118" y="86" width="12" height="12" fill="rgb(255,79,79)" stroke="none"/>
<rect x="130" y="86" width="12" height="12" fill="rgb(255,88,88)" stroke="none"/>
<rect x="142" y="86" width="12" height="12" fill="rgb(255,70,70)" stroke="none"/>
<rect x="154" y="86" width="12" height="12" fill="rgb(255,65,65)" stroke="none"/>
<rect x="166" y="86" width="12" height="12" fill="rgb(255,110,110)" stroke="none"/>
<rect x="178" y="86" width="12" height="12" fill="rgb(255,112,112)" stroke="none"/>
<rect x="70" y="98" width="12" height="12" fill="rgb(255,12,12)" stroke="none"/>
<rect x="82" y="98" width="12" height="12" fill="rgb(255,104,104)" stroke="none"/>
<rect x="94" y="98" width="12" height="12" fill="rgb(255,119,119)" stroke="none"/>
<rect x="106" y="98" width="12" height="12" fill="rgb(255,79,79)" stroke="none"/>
<rect x="118" y="98" width="12" height="12" fill="rgb(255,255,255)" stroke="none"/>
<rect x="130" y="98" width="12" height="12" fill="rgb(255,178,178)" stroke="none"/>
<rect x="142" y="98" width="12" height="12" fill="rgb(255,214,214)" stroke="none"/>
<rect x="154" y="98" width="12" height="12" fill="rgb(255,216,216)" stroke="none"/>
<rect x="166" y="98" width="12" height="12" fill="rgb(255,135,135)" stroke="none"/>
<rect x="178" y="98" width="12" height="12" fill="rgb(255,132,132)" stroke="none"/>
<rect x="70" y="110" width="12" height="12" fill="rgb(255,0,0)" stroke="none"/>
<rect x="82" y="110" width="12" height="12" fill="rgb(255,146,146)" stroke="none"/>
<rect x="94" y="110" width="12" height="12" fill="rgb(255,101,101)" stroke="none"/>
<rect x="106" y="110" width="12" height="12" fill="rgb(255,88,88)" stroke="none"/>
<rect x="118" y="110" width="12" height="12" fill="rgb(255,178,178)" stroke="none"/>
<rect x="130" y="110" width="12" height="12" fill="rgb(255,255,255)" stroke="none"/>
<rect x="142" y="110" width="12" height="12" fill="rgb(255,177,177)" stroke="none"/>
<rect x="154" y="110" width="12" height="12" fill="rgb(255,177,177)" stroke="none"/>
<rect x="166" y="110" width="12" height="12" fill="rgb(255,163,163)" stroke="none"/>
<rect x="178" y="110" width="12" height="12" fill="rgb(255,160,160)" stroke="none"/>
<rect x="70" y="122" width="12" height="12" fill="rgb(255,9,9)" stroke="none"/>
<rect x="82" y="122" width="12" height="12" fill="rgb(255,120,120)" stroke="none"/>
<rect x="94" y="122" width="12" height="12" fill="rgb(255,114,114)" stroke="none"/>
<rect x="106" y="122" width="12" height="12" fill="rgb(255,70,70)" stroke="none"/>
<rect x="118" y="122" width="12" height="12" fill="rgb(255,214,214)" stroke="none"/>
<rect x="130" y="122" width="12" height="12" fill="rgb(255,177,177)" stroke="none"/>
<rect x="142" y="122" width="12" height="12" fill="rgb(255,255,255)" stroke="none"/>
<rect x="154" y="122" width="12" height="12" fill="rgb(255,234,234)" stroke="none"/>
<rect x="166" y="122" width="12" height="12" fill="rgb(255,161,161)" stroke="none"/>
<rect x="178" y="122" width="12" height="12" fill="rgb(255,156,156)" stroke="none"/>
<rect x="70" y="134" width="12" height="12" fill="rgb(255,4,4)" stroke="none"/>
<rect x="82" y="134" width="12" height="12" fill="rgb(255,122,122)" stroke="none"/>
<rect x="94" y="134" width="12" height="12" fill="rgb(255,112,112)" stroke="none"/>
<rect x="106" y="134" width="12" height="12" fill="rgb(255,65,65)" stroke="none"/>
<rect x="118" y="134" width="12" height="12" fill="rgb(255,216,216)" stroke="none"/>
<rect x="130" y="134" width="12" height="12" fill="rgb(255,177,177)" stroke="none"/>
<rect x="142" y="134" width="12" height="12" fill="rgb(255,234,234)" stroke="none"/>
<rect x="154" y="134" width="12" height="12" fill="rgb(255,255,255)" stroke="none"/>
<rect x="166" y="134" width="12" height="12" fill="rgb(255,158,158)" stroke="none"/>
<rect x="178" y="134" width="12" height="12" fill="rgb(255,154,154)" stroke="none"/>
<rect x="70" y="146" width="12" height="12" fill="rgb(255,56,56)" stroke="none"/>
<rect x="82" y="146" width="12" height="12" fill="rgb(255,149,149)" stroke="none"/>
<rect x="94" y="146" width="12" height="12" fill="rgb(255,83,83)" stroke="none"/>
<rect x="106" y="146" width="12" height="12" fill="rgb(255,110,110)" stroke="none"/>
<rect x="118" y="146" width="12" height="12" fill="rgb(255,135,135)" stroke="none"/>
<rect x="130" y="146" width="12" height="12" fill="rgb(255,163,163)" stroke="none"/>
<rect x="142" y="146" width="12" height="12" fill="rgb(255,161,161)" stroke="none"/>
<rect x="154" y="146" width="12" height="12" fill="rgb(255,158,158)" stroke="none"/>
<rect x="166" y="146" width="12" height="12" fill="rgb(255,255,255)" stroke="none"/>
<rect x="178" y="146" width="12" height="12" fill="rgb(255,239,239)" stroke="none"/>
<rect x="70" y="158" width="12" height="12" fill="rgb(255,56,56)" stroke="none"/>
<rect x="82" y="158" width="12" height="12" fill="rgb(255,144,144)" stroke="none"/>
<rect x="94" y="158" width="12" height="12" fill="rgb(255,81,81)" stroke="none"/>
<rect x="106" y="158" width="12" height="12" fill="rgb(255,112,112)" stroke="none"/>
<rect x="118" y="158" width="12" height="12" fill="rgb(255,132,132)" stroke="none"/>
<rect x="130" y="158" width="12" height="12" fill="rgb(255,160,160)" stroke="none"/>
<rect x="142" y="158" width="12" height="12" fill="rgb(255,156,156)" stroke="none"/>
<rect x="154" y="158" width="12" height="12" fill="rgb(255,154,154)" stroke="none"/>
<rect x="166" y="158" width="12" height="12" fill="rgb(255,239,239)" stroke="none"/>
<rect x="178" y="158" width="12" height="12" fill="rgb(255,255,255)" stroke="none"/>
<rect x="70" y="50" width="120" height="120" fill="none" stroke="black"/>
</svg>