<svg xmlns="http://www.w3.org/2000/svg" width="900" height="520" viewBox="0 0 900 520">
<rect width="100%" height="100%" fill="white"/>
<text x="450.0" y="28" text-anchor="middle" font-size="22" font-family="Arial">Intra vs Inter KDE: latent_gram</text>
<rect x="80" y="50" width="790" height="410" fill="none" stroke="black"/>
<polyline fill="none" stroke="#2f6fed" stroke-width="2.5" points="80.0,242.5 83.3,241.8 86.6,241.1 89.9,240.5 93.2,239.9 96.5,239.3 99.8,238.7 103.1,238.2 106.4,237.7 109.7,237.3 113.1,236.9 116.4,236.5 119.7,236.2 123.0,235.9 126.3,235.6 129.6,235.4 132.9,235.2 136.2,235.1 139.5,234.9 142.8,234.9 146.1,234.8 149.4,234.8 152.7,234.8 156.0,234.9 159.3,234.9 162.6,235.1 165.9,235.2 169.2,235.4 172.6,235.6 175.9,235.9 179.2,236.1 182.5,236.4 185.8,236.8 189.1,237.1 192.4,237.5 195.7,238.0 199.0,238.4 202.3,238.9 205.6,239.4 208.9,239.9 212.2,240.5 215.5,241.1 218.8,241.7 222.1,242.3 225.4,242.9 228.7,243.6 232.1,244.3 235.4,245.0 238.7,245.7 242.0,246.5 245.3,247.3 248.6,248.1 251.9,248.9 255.2,249.7 258.5,250.5 261.8,251.4 265.1,252.2 268.4,253.1 271.7,254.0 275.0,254.9 278.3,255.8 281.6,256.7 284.9,257.6 288.2,258.6 291.5,259.5 294.9,260.5 298.2,261.4 301.5,262.4 304.8,263.3 308.1,264.3 311.4,265.3 314.7,266.2 318.0,267.2 321.3,268.2 324.6,269.1 327.9,270.1 331.2,271.1 334.5,272.0 337.8,273.0 341.1,274.0 344.4,274.9 347.7,275.9 351.0,276.8 354.4,277.8 357.7,278.7 361.0,279.6 364.3,280.5 367.6,281.4 370.9,282.3 374.2,283.2 377.5,284.1 380.8,285.0 384.1,285.8 387.4,286.7 390.7,287.5 394.0,288.3 397.3,289.1 400.6,289.9 403.9,290.7 407.2,291.5 410.5,292.2 413.8,293.0 417.2,293.7 420.5,294.4 423.8,295.1 427.1,295.8 430.4,296.5 433.7,297.1 437.0,297.8 440.3,298.4 443.6,299.0 446.9,299.6 450.2,300.2 453.5,300.7 456.8,301.3 460.1,301.8 463.4,302.3 466.7,302.8 470.0,303.3 473.3,303.8 476.7,304.2 480.0,304.7 483.3,305.1 486.6,305.5 489.9,305.9 493.2,306.3 496.5,306.6 499.8,307.0 503.1,307.3 506.4,307.6 509.7,307.9 513.0,308.2 516.3,308.5 519.6,308.8 522.9,309.1 526.2,309.3 529.5,309.5 532.8,309.8 536.2,310.0 539.5,310.2 542.8,310.4 546.1,310.6 549.4,310.7 552.7,310.9 556.0,311.1 559.3,311.2 562.6,311.4 565.9,311.5 569.2,311.6 572.5,311.8 575.8,311.9 579.1,312.0 582.4,312.1 585.7,312.2 589.0,312.3 592.3,312.4 595.6,312.5 599.0,312.6 602.3,312.7 605.6,312.8 608.9,312.9 612.2,313.0 615.5,313.0 618.8,313.1 622.1,313.2 625.4,313.3 628.7,313.4 632.0,313.5 635.3,313.6 638.6,313.7 641.9,313.8 645.2,313.9 648.5,314.0 651.8,314.2 655.1,314.3 658.5,314.4 661.8,314.6 665.1,314.7 668.4,314.9 671.7,315.0 675.0,315.2 678.3,315.4 681.6,315.6 684.9,315.8 688.2,316.0 691.5,316.2 694.8,316.4 698.1,316.6 701.4,316.9 704.7,317.1 708.0,317.4 711.3,317.7 714.6,318.0 717.9,318.3 721.3,318.6 724.6,318.9 727.9,319.2 731.2,319.6 734.5,319.9 737.8,320.3 741.1,320.7 744.4,321.1 747.7,321.5 751.0,322.0 754.3,322.4 757.6,322.9 760.9,323.3 764.2,323.8 767.5,324.3 770.8,324.8 774.1,325.3 777.4,325.9 780.8,326.4 784.1,327.0 787.4,327.6 790.7,328.2 794.0,328.8 797.3,329.4 800.6,330.0 803.9,330.7 807.2,331.4 810.5,332.0 813.8,332.7 817.1,333.4 820.4,334.1 823.7,334.9 827.0,335.6 830.3,336.4 833.6,337.1 836.9,337.9 840.3,338.7 843.6,339.5 846.9,340.3 850.2,341.1 853.5,342.0 856.8,342.8 860.1,343.7 863.4,344.6 866.7,345.4 870.0,346.3"/>
<polyline fill="none" stroke="#d64545" stroke-width="2.5" points="80.0,363.8 83.3,359.1 86.6,354.2 89.9,349.2 93.2,344.1 96.5,338.8 99.8,333.5 103.1,327.9 106.4,322.3 109.7,316.5 113.1,310.6 116.4,304.6 119.7,298.5 123.0,292.3 126.3,286.0 129.6,279.6 132.9,273.1 136.2,266.5 139.5,259.9 142.8,253.2 146.1,246.4 149.4,239.7 152.7,232.8 156.0,226.0 159.3,219.1 162.6,212.3 165.9,205.4 169.2,198.6 172.6,191.8 175.9,185.1 179.2,178.4 182.5,171.7 185.8,165.2 189.1,158.7 192.4,152.3 195.7,146.0 199.0,139.9 202.3,133.9 205.6,128.0 208.9,122.3 212.2,116.7 215.5,111.3 218.8,106.1 222.1,101.1 225.4,96.2 228.7,91.6 232.1,87.2 235.4,83.1 238.7,79.1 242.0,75.4 245.3,71.9 248.6,68.7 251.9,65.7 255.2,63.0 258.5,60.5 261.8,58.3 265.1,56.3 268.4,54.7 271.7,53.2 275.0,52.1 278.3,51.2 281.6,50.5 284.9,50.1 288.2,50.0 291.5,50.1 294.9,50.5 298.2,51.1 301.5,51.9 304.8,53.0 308.1,54.3 311.4,55.8 314.7,57.6 318.0,59.5 321.3,61.6 324.6,64.0 327.9,66.5 331.2,69.2 334.5,72.0 337.8,75.0 341.1,78.2 344.4,81.5 347.7,84.9 351.0,88.4 354.4,92.1 357.7,95.8 361.0,99.7 364.3,103.6 367.6,107.6 370.9,111.7 374.2,115.8 377.5,120.0 380.8,124.2 384.1,128.5 387.4,132.7 390.7,137.0 394.0,141.3 397.3,145.6 400.6,149.9 403.9,154.2 407.2,158.5 410.5,162.7 413.8,166.9 417.2,171.1 420.5,175.2 423.8,179.3 427.1,183.4 430.4,187.3 433.7,191.2 437.0,195.1 440.3,198.8 443.6,202.5 446.9,206.1 450.2,209.7 453.5,213.1 456.8,216.4 460.1,219.7 463.4,222.8 466.7,225.9 470.0,228.8 473.3,231.6 476.7,234.4 480.0,237.0 483.3,239.5 486.6,241.9 489.9,244.1 493.2,246.3 496.5,248.3 499.8,250.2 503.1,252.0 506.4,253.6 509.7,255.1 513.0,256.5 516.3,257.8 519.6,258.9 522.9,259.9 526.2,260.8 529.5,261.5 532.8,262.2 536.2,262.6 539.5,263.0 542.8,263.3 546.1,263.4 549.4,263.4 552.7,263.2 556.0,263.0 559.3,262.6 562.6,262.2 565.9,261.6 569.2,260.9 572.5,260.1 575.8,259.3 579.1,258.3 582.4,257.2 585.7,256.1 589.0,254.9 592.3,253.6 595.6,252.2 599.0,250.8 602.3,249.3 605.6,247.8 608.9,246.3 612.2,244.7 615.5,243.0 618.8,241.4 622.1,239.8 625.4,238.1 628.7,236.4 632.0,234.8 635.3,233.2 638.6,231.6 641.9,230.0 645.2,228.5 648.5,227.0 651.8,225.6 655.1,224.2 658.5,222.9 661.8,221.7 665.1,220.5 668.4,219.5 671.7,218.5 675.0,217.7 678.3,216.9 681.6,216.3 684.9,215.8 688.2,215.4 691.5,215.1 694.8,215.0 698.1,215.0 701.4,215.1 704.7,215.4 708.0,215.8 711.3,216.3 714.6,217.0 717.9,217.9 721.3,218.9 724.6,220.0 727.9,221.3 731.2,222.7 734.5,224.3 737.8,226.0 741.1,227.9 744.4,229.9 747.7,232.0 751.0,234.3 754.3,236.7 757.6,239.2 760.9,241.9 764.2,244.6 767.5,247.5 770.8,250.5 774.1,253.5 777.4,256.7 780.8,260.0 784.1,263.3 787.4,266.7 790.7,270.2 794.0,273.8 797.3,277.4 800.6,281.1 803.9,284.8 807.2,288.5 810.5,292.3 813.8,296.2 817.1,300.0 820.4,303.9 823.7,307.7 827.0,311.6 830.3,315.5 833.6,319.3 836.9,323.2 840.3,327.0 843.6,330.8 846.9,334.6 850.2,338.4 853.5,342.1 856.8,345.8 860.1,349.4 863.4,353.0 866.7,356.5 870.0,360.0"/>
<text x="740" y="70" font-size="14" font-family="Arial" fill="#2f6fed">intra-class</text>
<text x="740" y="92" font-size="14" font-family="Arial" fill="#d64545">inter-class</text>
</svg>