<svg xmlns="http://www.w3.org/2000/svg" width="900" height="520" viewBox="0 0 900 520">
<rect width="100%" height="100%" fill="white"/>
<text x="450.0" y="28" text-anchor="middle" font-size="22" font-family="Arial">Intra vs Inter KDE: pixel_tree_swd_patch_3_25</text>
<rect x="80" y="50" width="790" height="410" fill="none" stroke="black"/>
<polyline fill="none" stroke="#2f6fed" stroke-width="2.5" points="80.0,141.2 83.3,136.9 86.6,132.6 89.9,128.5 93.2,124.4 96.5,120.3 99.8,116.4 103.1,112.5 106.4,108.7 109.7,105.0 113.1,101.4 116.4,97.9 119.7,94.5 123.0,91.3 126.3,88.1 129.6,85.0 132.9,82.0 136.2,79.2 139.5,76.5 142.8,73.9 146.1,71.4 149.4,69.0 152.7,66.8 156.0,64.7 159.3,62.7 162.6,60.9 165.9,59.2 169.2,57.7 172.6,56.3 175.9,55.0 179.2,53.9 182.5,52.9 185.8,52.0 189.1,51.3 192.4,50.8 195.7,50.4 199.0,50.1 202.3,50.0 205.6,50.0 208.9,50.2 212.2,50.5 215.5,51.0 218.8,51.6 222.1,52.3 225.4,53.2 228.7,54.2 232.1,55.4 235.4,56.7 238.7,58.1 242.0,59.7 245.3,61.4 248.6,63.2 251.9,65.1 255.2,67.2 258.5,69.4 261.8,71.7 265.1,74.1 268.4,76.7 271.7,79.3 275.0,82.1 278.3,84.9 281.6,87.9 284.9,90.9 288.2,94.1 291.5,97.3 294.9,100.6 298.2,104.0 301.5,107.5 304.8,111.0 308.1,114.7 311.4,118.3 314.7,122.1 318.0,125.9 321.3,129.7 324.6,133.6 327.9,137.5 331.2,141.5 334.5,145.5 337.8,149.6 341.1,153.6 344.4,157.7 347.7,161.8 351.0,166.0 354.4,170.1 357.7,174.2 361.0,178.4 364.3,182.5 367.6,186.6 370.9,190.7 374.2,194.8 377.5,198.9 380.8,203.0 384.1,207.0 387.4,211.0 390.7,215.0 394.0,218.9 397.3,222.8 400.6,226.6 403.9,230.4 407.2,234.2 410.5,237.9 413.8,241.5 417.2,245.1 420.5,248.6 423.8,252.1 427.1,255.5 430.4,258.8 433.7,262.0 437.0,265.2 440.3,268.4 443.6,271.4 446.9,274.4 450.2,277.2 453.5,280.1 456.8,282.8 460.1,285.4 463.4,288.0 466.7,290.5 470.0,292.9 473.3,295.2 476.7,297.5 480.0,299.7 483.3,301.7 486.6,303.7 489.9,305.7 493.2,307.5 496.5,309.3 499.8,311.0 503.1,312.6 506.4,314.1 509.7,315.5 513.0,316.9 516.3,318.2 519.6,319.5 522.9,320.6 526.2,321.7 529.5,322.8 532.8,323.7 536.2,324.6 539.5,325.5 542.8,326.3 546.1,327.0 549.4,327.7 552.7,328.3 556.0,328.9 559.3,329.4 562.6,329.9 565.9,330.4 569.2,330.8 572.5,331.1 575.8,331.5 579.1,331.8 582.4,332.1 585.7,332.3 589.0,332.5 592.3,332.7 595.6,332.9 599.0,333.1 602.3,333.3 605.6,333.4 608.9,333.5 612.2,333.7 615.5,333.8 618.8,333.9 622.1,334.1 625.4,334.2 628.7,334.3 632.0,334.5 635.3,334.6 638.6,334.8 641.9,335.0 645.2,335.2 648.5,335.4 651.8,335.6 655.1,335.9 658.5,336.2 661.8,336.5 665.1,336.8 668.4,337.2 671.7,337.5 675.0,338.0 678.3,338.4 681.6,338.9 684.9,339.4 688.2,339.9 691.5,340.5 694.8,341.1 698.1,341.7 701.4,342.4 704.7,343.1 708.0,343.8 711.3,344.6 714.6,345.4 717.9,346.2 721.3,347.1 724.6,348.0 727.9,348.9 731.2,349.9 734.5,350.9 737.8,351.9 741.1,353.0 744.4,354.1 747.7,355.2 751.0,356.4 754.3,357.6 757.6,358.8 760.9,360.0 764.2,361.3 767.5,362.6 770.8,363.9 774.1,365.2 777.4,366.6 780.8,367.9 784.1,369.3 787.4,370.7 790.7,372.1 794.0,373.6 797.3,375.0 800.6,376.5 803.9,378.0 807.2,379.5 810.5,380.9 813.8,382.4 817.1,383.9 820.4,385.5 823.7,387.0 827.0,388.5 830.3,390.0 833.6,391.5 836.9,393.0 840.3,394.5 843.6,396.0 846.9,397.5 850.2,399.0 853.5,400.4 856.8,401.9 860.1,403.4 863.4,404.8 866.7,406.2 870.0,407.6"/>
<polyline fill="none" stroke="#d64545" stroke-width="2.5" points="80.0,259.7 83.3,254.4 86.6,249.1 89.9,243.9 93.2,238.7 96.5,233.5 99.8,228.3 103.1,223.2 106.4,218.2 109.7,213.2 113.1,208.3 116.4,203.4 119.7,198.7 123.0,194.0 126.3,189.3 129.6,184.8 132.9,180.4 136.2,176.0 139.5,171.8 142.8,167.7 146.1,163.7 149.4,159.7 152.7,155.9 156.0,152.3 159.3,148.7 162.6,145.2 165.9,141.9 169.2,138.7 172.6,135.6 175.9,132.6 179.2,129.7 182.5,127.0 185.8,124.4 189.1,121.9 192.4,119.5 195.7,117.2 199.0,115.0 202.3,113.0 205.6,111.0 208.9,109.2 212.2,107.4 215.5,105.8 218.8,104.3 222.1,102.8 225.4,101.5 228.7,100.2 232.1,99.1 235.4,98.0 238.7,97.0 242.0,96.1 245.3,95.3 248.6,94.5 251.9,93.8 255.2,93.2 258.5,92.7 261.8,92.2 265.1,91.8 268.4,91.4 271.7,91.1 275.0,90.9 278.3,90.7 281.6,90.5 284.9,90.4 288.2,90.4 291.5,90.4 294.9,90.5 298.2,90.5 301.5,90.7 304.8,90.9 308.1,91.1 311.4,91.3 314.7,91.6 318.0,91.9 321.3,92.3 324.6,92.7 327.9,93.1 331.2,93.5 334.5,94.0 337.8,94.5 341.1,95.1 344.4,95.6 347.7,96.3 351.0,96.9 354.4,97.5 357.7,98.2 361.0,99.0 364.3,99.7 367.6,100.5 370.9,101.3 374.2,102.1 377.5,103.0 380.8,103.8 384.1,104.8 387.4,105.7 390.7,106.7 394.0,107.7 397.3,108.7 400.6,109.7 403.9,110.8 407.2,111.9 410.5,113.1 413.8,114.3 417.2,115.5 420.5,116.7 423.8,118.0 427.1,119.3 430.4,120.6 433.7,121.9 437.0,123.3 440.3,124.8 443.6,126.2 446.9,127.7 450.2,129.2 453.5,130.8 456.8,132.4 460.1,134.0 463.4,135.6 466.7,137.3 470.0,139.0 473.3,140.8 476.7,142.6 480.0,144.4 483.3,146.3 486.6,148.1 489.9,150.1 493.2,152.0 496.5,154.0 499.8,156.0 503.1,158.1 506.4,160.2 509.7,162.3 513.0,164.4 516.3,166.6 519.6,168.8 522.9,171.1 526.2,173.3 529.5,175.6 532.8,178.0 536.2,180.3 539.5,182.7 542.8,185.1 546.1,187.6 549.4,190.0 552.7,192.5 556.0,195.0 559.3,197.6 562.6,200.2 565.9,202.8 569.2,205.4 572.5,208.0 575.8,210.7 579.1,213.4 582.4,216.1 585.7,218.9 589.0,221.6 592.3,224.4 595.6,227.2 599.0,230.0 602.3,232.8 605.6,235.7 608.9,238.5 612.2,241.4 615.5,244.3 618.8,247.2 622.1,250.1 625.4,253.1 628.7,256.0 632.0,259.0 635.3,261.9 638.6,264.9 641.9,267.8 645.2,270.8 648.5,273.8 651.8,276.7 655.1,279.7 658.5,282.7 661.8,285.6 665.1,288.6 668.4,291.5 671.7,294.5 675.0,297.4 678.3,300.3 681.6,303.2 684.9,306.1 688.2,308.9 691.5,311.8 694.8,314.6 698.1,317.4 701.4,320.1 704.7,322.8 708.0,325.5 711.3,328.2 714.6,330.9 717.9,333.5 721.3,336.0 724.6,338.6 727.9,341.1 731.2,343.5 734.5,346.0 737.8,348.3 741.1,350.7 744.4,353.0 747.7,355.2 751.0,357.4 754.3,359.6 757.6,361.7 760.9,363.8 764.2,365.9 767.5,367.9 770.8,369.8 774.1,371.7 777.4,373.6 780.8,375.4 784.1,377.2 787.4,379.0 790.7,380.7 794.0,382.4 797.3,384.0 800.6,385.6 803.9,387.2 807.2,388.7 810.5,390.2 813.8,391.7 817.1,393.2 820.4,394.6 823.7,396.0 827.0,397.3 830.3,398.7 833.6,400.0 836.9,401.3 840.3,402.6 843.6,403.8 846.9,405.1 850.2,406.3 853.5,407.5 856.8,408.7 860.1,409.8 863.4,411.0 866.7,412.1 870.0,413.3"/>
<text x="740" y="70" font-size="14" font-family="Arial" fill="#2f6fed">intra-class</text>
<text x="740" y="92" font-size="14" font-family="Arial" fill="#d64545">inter-class</text>
</svg>