<svg xmlns="http://www.w3.org/2000/svg" width="900" height="520" viewBox="0 0 900 520">
<rect width="100%" height="100%" fill="white"/>
<text x="450.0" y="28" text-anchor="middle" font-size="22" font-family="Arial">Intra vs Inter KDE: pixel_swd_patch_3_25</text>
<rect x="80" y="50" width="790" height="410" fill="none" stroke="black"/>
<polyline fill="none" stroke="#2f6fed" stroke-width="2.5" points="80.0,201.0 83.3,199.4 86.6,198.0 89.9,196.7 93.2,195.4 96.5,194.2 99.8,193.2 103.1,192.2 106.4,191.3 109.7,190.4 113.1,189.7 116.4,189.0 119.7,188.4 123.0,187.8 126.3,187.3 129.6,186.9 132.9,186.5 136.2,186.2 139.5,185.9 142.8,185.6 146.1,185.4 149.4,185.2 152.7,185.0 156.0,184.8 159.3,184.7 162.6,184.6 165.9,184.4 169.2,184.3 172.6,184.2 175.9,184.1 179.2,183.9 182.5,183.7 185.8,183.6 189.1,183.4 192.4,183.1 195.7,182.9 199.0,182.6 202.3,182.3 205.6,181.9 208.9,181.5 212.2,181.1 215.5,180.6 218.8,180.1 222.1,179.5 225.4,178.9 228.7,178.3 232.1,177.6 235.4,176.9 238.7,176.2 242.0,175.4 245.3,174.5 248.6,173.7 251.9,172.7 255.2,171.8 258.5,170.8 261.8,169.8 265.1,168.8 268.4,167.8 271.7,166.7 275.0,165.7 278.3,164.6 281.6,163.5 284.9,162.4 288.2,161.3 291.5,160.2 294.9,159.1 298.2,158.1 301.5,157.0 304.8,156.0 308.1,155.0 311.4,154.0 314.7,153.1 318.0,152.2 321.3,151.4 324.6,150.6 327.9,149.8 331.2,149.1 334.5,148.5 337.8,147.9 341.1,147.4 344.4,147.0 347.7,146.7 351.0,146.4 354.4,146.2 357.7,146.1 361.0,146.1 364.3,146.1 367.6,146.3 370.9,146.5 374.2,146.9 377.5,147.3 380.8,147.9 384.1,148.5 387.4,149.2 390.7,150.1 394.0,151.0 397.3,152.1 400.6,153.2 403.9,154.5 407.2,155.9 410.5,157.3 413.8,158.9 417.2,160.5 420.5,162.3 423.8,164.2 427.1,166.1 430.4,168.2 433.7,170.4 437.0,172.6 440.3,174.9 443.6,177.4 446.9,179.9 450.2,182.5 453.5,185.2 456.8,188.0 460.1,190.8 463.4,193.7 466.7,196.7 470.0,199.8 473.3,202.9 476.7,206.1 480.0,209.4 483.3,212.7 486.6,216.1 489.9,219.5 493.2,223.0 496.5,226.5 499.8,230.0 503.1,233.6 506.4,237.3 509.7,240.9 513.0,244.6 516.3,248.4 519.6,252.1 522.9,255.9 526.2,259.7 529.5,263.5 532.8,267.3 536.2,271.1 539.5,274.9 542.8,278.8 546.1,282.6 549.4,286.4 552.7,290.2 556.0,294.0 559.3,297.8 562.6,301.6 565.9,305.4 569.2,309.1 572.5,312.8 575.8,316.5 579.1,320.2 582.4,323.8 585.7,327.5 589.0,331.0 592.3,334.6 595.6,338.1 599.0,341.5 602.3,344.9 605.6,348.3 608.9,351.6 612.2,354.9 615.5,358.1 618.8,361.3 622.1,364.5 625.4,367.5 628.7,370.6 632.0,373.5 635.3,376.4 638.6,379.3 641.9,382.1 645.2,384.9 648.5,387.5 651.8,390.2 655.1,392.7 658.5,395.2 661.8,397.7 665.1,400.1 668.4,402.4 671.7,404.7 675.0,406.9 678.3,409.0 681.6,411.1 684.9,413.2 688.2,415.1 691.5,417.1 694.8,418.9 698.1,420.7 701.4,422.4 704.7,424.1 708.0,425.8 711.3,427.3 714.6,428.8 717.9,430.3 721.3,431.7 724.6,433.1 727.9,434.4 731.2,435.7 734.5,436.9 737.8,438.0 741.1,439.2 744.4,440.2 747.7,441.3 751.0,442.3 754.3,443.2 757.6,444.1 760.9,445.0 764.2,445.8 767.5,446.6 770.8,447.4 774.1,448.1 777.4,448.8 780.8,449.4 784.1,450.0 787.4,450.6 790.7,451.2 794.0,451.7 797.3,452.2 800.6,452.7 803.9,453.2 807.2,453.6 810.5,454.0 813.8,454.4 817.1,454.7 820.4,455.1 823.7,455.4 827.0,455.7 830.3,456.0 833.6,456.3 836.9,456.5 840.3,456.8 843.6,457.0 846.9,457.2 850.2,457.4 853.5,457.6 856.8,457.8 860.1,457.9 863.4,458.1 866.7,458.2 870.0,458.3"/>
<polyline fill="none" stroke="#d64545" stroke-width="2.5" points="80.0,456.3 83.3,455.8 86.6,455.3 89.9,454.8 93.2,454.3 96.5,453.6 99.8,452.9 103.1,452.2 106.4,451.4 109.7,450.5 113.1,449.6 116.4,448.5 119.7,447.4 123.0,446.2 126.3,444.9 129.6,443.5 132.9,442.0 136.2,440.4 139.5,438.7 142.8,436.8 146.1,434.8 149.4,432.7 152.7,430.5 156.0,428.1 159.3,425.6 162.6,422.9 165.9,420.1 169.2,417.1 172.6,413.9 175.9,410.5 179.2,407.0 182.5,403.3 185.8,399.5 189.1,395.4 192.4,391.2 195.7,386.8 199.0,382.2 202.3,377.4 205.6,372.4 208.9,367.2 212.2,361.9 215.5,356.3 218.8,350.6 222.1,344.7 225.4,338.6 228.7,332.4 232.1,326.0 235.4,319.4 238.7,312.7 242.0,305.8 245.3,298.8 248.6,291.7 251.9,284.5 255.2,277.1 258.5,269.7 261.8,262.2 265.1,254.6 268.4,246.9 271.7,239.3 275.0,231.5 278.3,223.8 281.6,216.1 284.9,208.4 288.2,200.7 291.5,193.1 294.9,185.5 298.2,178.1 301.5,170.7 304.8,163.4 308.1,156.3 311.4,149.3 314.7,142.4 318.0,135.8 321.3,129.3 324.6,123.0 327.9,116.9 331.2,111.1 334.5,105.4 337.8,100.1 341.1,94.9 344.4,90.1 347.7,85.5 351.0,81.2 354.4,77.1 357.7,73.4 361.0,69.9 364.3,66.7 367.6,63.9 370.9,61.2 374.2,58.9 377.5,56.9 380.8,55.1 384.1,53.6 387.4,52.4 390.7,51.4 394.0,50.7 397.3,50.3 400.6,50.0 403.9,50.0 407.2,50.2 410.5,50.6 413.8,51.2 417.2,51.9 420.5,52.9 423.8,53.9 427.1,55.2 430.4,56.5 433.7,58.0 437.0,59.5 440.3,61.2 443.6,62.9 446.9,64.7 450.2,66.5 453.5,68.4 456.8,70.4 460.1,72.3 463.4,74.3 466.7,76.3 470.0,78.2 473.3,80.2 476.7,82.2 480.0,84.1 483.3,86.0 486.6,87.9 489.9,89.8 493.2,91.7 496.5,93.5 499.8,95.3 503.1,97.0 506.4,98.8 509.7,100.5 513.0,102.2 516.3,103.9 519.6,105.5 522.9,107.1 526.2,108.8 529.5,110.4 532.8,112.0 536.2,113.7 539.5,115.3 542.8,117.0 546.1,118.6 549.4,120.3 552.7,122.1 556.0,123.8 559.3,125.7 562.6,127.5 565.9,129.4 569.2,131.4 572.5,133.4 575.8,135.5 579.1,137.7 582.4,139.9 585.7,142.2 589.0,144.5 592.3,147.0 595.6,149.5 599.0,152.0 602.3,154.7 605.6,157.4 608.9,160.2 612.2,163.1 615.5,166.0 618.8,169.0 622.1,172.0 625.4,175.2 628.7,178.3 632.0,181.5 635.3,184.8 638.6,188.1 641.9,191.5 645.2,194.8 648.5,198.2 651.8,201.7 655.1,205.1 658.5,208.6 661.8,212.1 665.1,215.5 668.4,219.0 671.7,222.5 675.0,226.0 678.3,229.4 681.6,232.9 684.9,236.3 688.2,239.7 691.5,243.1 694.8,246.5 698.1,249.8 701.4,253.1 704.7,256.4 708.0,259.6 711.3,262.8 714.6,266.0 717.9,269.1 721.3,272.2 724.6,275.3 727.9,278.4 731.2,281.4 734.5,284.3 737.8,287.3 741.1,290.2 744.4,293.1 747.7,295.9 751.0,298.7 754.3,301.5 757.6,304.3 760.9,307.1 764.2,309.8 767.5,312.5 770.8,315.2 774.1,317.8 777.4,320.5 780.8,323.1 784.1,325.7 787.4,328.3 790.7,330.9 794.0,333.5 797.3,336.0 800.6,338.6 803.9,341.1 807.2,343.6 810.5,346.2 813.8,348.7 817.1,351.1 820.4,353.6 823.7,356.1 827.0,358.6 830.3,361.0 833.6,363.5 836.9,365.9 840.3,368.3 843.6,370.7 846.9,373.1 850.2,375.5 853.5,377.9 856.8,380.2 860.1,382.5 863.4,384.9 866.7,387.2 870.0,389.4"/>
<text x="740" y="70" font-size="14" font-family="Arial" fill="#2f6fed">intra-class</text>
<text x="740" y="92" font-size="14" font-family="Arial" fill="#d64545">inter-class</text>
</svg>