<svg xmlns="http://www.w3.org/2000/svg" width="260" height="220" viewBox="0 0 260 220">
<rect width="100%" height="100%" fill="white"/>
<text x="130.0" y="28" text-anchor="middle" font-size="20" font-family="Arial">Distance Matrix: pixel_tree_swd_patch_3_25</text>
<rect x="70" y="50" width="12" height="12" fill="rgb(255,255,255)" stroke="none"/>
<rect x="82" y="50" width="12" height="12" fill="rgb(255,59,59)" stroke="none"/>
<rect x="94" y="50" width="12" height="12" fill="rgb(255,196,196)" stroke="none"/>
<rect x="106" y="50" width="12" height="12" fill="rgb(255,222,222)" stroke="none"/>
<rect x="118" y="50" width="12" height="12" fill="rgb(255,118,118)" stroke="none"/>
<rect x="130" y="50" width="12" height="12" fill="rgb(255,124,124)" stroke="none"/>
<rect x="142" y="50" width="12" height="12" fill="rgb(255,137,137)" stroke="none"/>
<rect x="154" y="50" width="12" height="12" fill="rgb(255,163,163)" stroke="none"/>
<rect x="166" y="50" width="12" height="12" fill="rgb(255,183,183)" stroke="none"/>
<rect x="178" y="50" width="12" height="12" fill="rgb(255,222,222)" stroke="none"/>
<rect x="70" y="62" width="12" height="12" fill="rgb(255,59,59)" stroke="none"/>
<rect x="82" y="62" width="12" height="12" fill="rgb(255,255,255)" stroke="none"/>
<rect x="94" y="62" width="12" height="12" fill="rgb(255,0,0)" stroke="none"/>
<rect x="106" y="62" width="12" height="12" fill="rgb(255,65,65)" stroke="none"/>
<rect x="118" y="62" width="12" height="12" fill="rgb(255,196,196)" stroke="none"/>
<rect x="130" y="62" width="12" height="12" fill="rgb(255,177,177)" stroke="none"/>
<rect x="142" y="62" width="12" height="12" fill="rgb(255,177,177)" stroke="none"/>
<rect x="154" y="62" width="12" height="12" fill="rgb(255,150,150)" stroke="none"/>
<rect x="166" y="62" width="12" height="12" fill="rgb(255,105,105)" stroke="none"/>
<rect x="178" y="62" width="12" height="12" fill="rgb(255,26,26)" stroke="none"/>
<rect x="70" y="74" width="12" height="12" fill="rgb(255,196,196)" stroke="none"/>
<rect x="82" y="74" width="12" height="12" fill="rgb(255,0,0)" stroke="none"/>
<rect x="94" y="74" width="12" height="12" fill="rgb(255,255,255)" stroke="none"/>
<rect x="106" y="74" width="12" height="12" fill="rgb(255,190,190)" stroke="none"/>
<rect x="118" y="74" width="12" height="12" fill="rgb(255,59,59)" stroke="none"/>
<rect x="130" y="74" width="12" height="12" fill="rgb(255,65,65)" stroke="none"/>
<rect x="142" y="74" width="12" height="12" fill="rgb(255,78,78)" stroke="none"/>
<rect x="154" y="74" width="12" height="12" fill="rgb(255,105,105)" stroke="none"/>
<rect x="166" y="74" width="12" height="12" fill="rgb(255,150,150)" stroke="none"/>
<rect x="178" y="74" width="12" height="12" fill="rgb(255,229,229)" stroke="none"/>
<rect x="70" y="86" width="12" height="12" fill="rgb(255,222,222)" stroke="none"/>
<rect x="82" y="86" width="12" height="12" fill="rgb(255,65,65)" stroke="none"/>
<rect x="94" y="86" width="12" height="12" fill="rgb(255,190,190)" stroke="none"/>
<rect x="106" y="86" width="12" height="12" fill="rgb(255,255,255)" stroke="none"/>
<rect x="118" y="86" width="12" height="12" fill="rgb(255,124,124)" stroke="none"/>
<rect x="130" y="86" width="12" height="12" fill="rgb(255,131,131)" stroke="none"/>
<rect x="142" y="86" width="12" height="12" fill="rgb(255,144,144)" stroke="none"/>
<rect x="154" y="86" width="12" height="12" fill="rgb(255,170,170)" stroke="none"/>
<rect x="166" y="86" width="12" height="12" fill="rgb(255,216,216)" stroke="none"/>
<rect x="178" y="86" width="12" height="12" fill="rgb(255,216,216)" stroke="none"/>
<rect x="70" y="98" width="12" height="12" fill="rgb(255,118,118)" stroke="none"/>
<rect x="82" y="98" width="12" height="12" fill="rgb(255,196,196)" stroke="none"/>
<rect x="94" y="98" width="12" height="12" fill="rgb(255,59,59)" stroke="none"/>
<rect x="106" y="98" width="12" height="12" fill="rgb(255,124,124)" stroke="none"/>
<rect x="118" y="98" width="12" height="12" fill="rgb(255,255,255)" stroke="none"/>
<rect x="130" y="98" width="12" height="12" fill="rgb(255,222,222)" stroke="none"/>
<rect x="142" y="98" width="12" height="12" fill="rgb(255,235,235)" stroke="none"/>
<rect x="154" y="98" width="12" height="12" fill="rgb(255,209,209)" stroke="none"/>
<rect x="166" y="98" width="12" height="12" fill="rgb(255,163,163)" stroke="none"/>
<rect x="178" y="98" width="12" height="12" fill="rgb(255,85,85)" stroke="none"/>
<rect x="70" y="110" width="12" height="12" fill="rgb(255,124,124)" stroke="none"/>
<rect x="82" y="110" width="12" height="12" fill="rgb(255,177,177)" stroke="none"/>
<rect x="94" y="110" width="12" height="12" fill="rgb(255,65,65)" stroke="none"/>
<rect x="106" y="110" width="12" height="12" fill="rgb(255,131,131)" stroke="none"/>
<rect x="118" y="110" width="12" height="12" fill="rgb(255,222,222)" stroke="none"/>
<rect x="130" y="110" width="12" height="12" fill="rgb(255,255,255)" stroke="none"/>
<rect x="142" y="110" width="12" height="12" fill="rgb(255,242,242)" stroke="none"/>
<rect x="154" y="110" width="12" height="12" fill="rgb(255,216,216)" stroke="none"/>
<rect x="166" y="110" width="12" height="12" fill="rgb(255,170,170)" stroke="none"/>
<rect x="178" y="110" width="12" height="12" fill="rgb(255,92,92)" stroke="none"/>
<rect x="70" y="122" width="12" height="12" fill="rgb(255,137,137)" stroke="none"/>
<rect x="82" y="122" width="12" height="12" fill="rgb(255,177,177)" stroke="none"/>
<rect x="94" y="122" width="12" height="12" fill="rgb(255,78,78)" stroke="none"/>
<rect x="106" y="122" width="12" height="12" fill="rgb(255,144,144)" stroke="none"/>
<rect x="118" y="122" width="12" height="12" fill="rgb(255,235,235)" stroke="none"/>
<rect x="130" y="122" width="12" height="12" fill="rgb(255,242,242)" stroke="none"/>
<rect x="142" y="122" width="12" height="12" fill="rgb(255,255,255)" stroke="none"/>
<rect x="154" y="122" width="12" height="12" fill="rgb(255,229,229)" stroke="none"/>
<rect x="166" y="122" width="12" height="12" fill="rgb(255,183,183)" stroke="none"/>
<rect x="178" y="122" width="12" height="12" fill="rgb(255,105,105)" stroke="none"/>
<rect x="70" y="134" width="12" height="12" fill="rgb(255,163,163)" stroke="none"/>
<rect x="82" y="134" width="12" height="12" fill="rgb(255,150,150)" stroke="none"/>
<rect x="94" y="134" width="12" height="12" fill="rgb(255,105,105)" stroke="none"/>
<rect x="106" y="134" width="12" height="12" fill="rgb(255,170,170)" stroke="none"/>
<rect x="118" y="134" width="12" height="12" fill="rgb(255,209,209)" stroke="none"/>
<rect x="130" y="134" width="12" height="12" fill="rgb(255,216,216)" stroke="none"/>
<rect x="142" y="134" width="12" height="12" fill="rgb(255,229,229)" stroke="none"/>
<rect x="154" y="134" width="12" height="12" fill="rgb(255,255,255)" stroke="none"/>
<rect x="166" y="134" width="12" height="12" fill="rgb(255,209,209)" stroke="none"/>
<rect x="178" y="134" width="12" height="12" fill="rgb(255,131,131)" stroke="none"/>
<rect x="70" y="146" width="12" height="12" fill="rgb(255,183,183)" stroke="none"/>
<rect x="82" y="146" width="12" height="12" fill="rgb(255,105,105)" stroke="none"/>
<rect x="94" y="146" width="12" height="12" fill="rgb(255,150,150)" stroke="none"/>
<rect x="106" y="146" width="12" height="12" fill="rgb(255,216,216)" stroke="none"/>
<rect x="118" y="146" width="12" height="12" fill="rgb(255,163,163)" stroke="none"/>
<rect x="130" y="146" width="12" height="12" fill="rgb(255,170,170)" stroke="none"/>
<rect x="142" y="146" width="12" height="12" fill="rgb(255,183,183)" stroke="none"/>
<rect x="154" y="146" width="12" height="12" fill="rgb(255,209,209)" stroke="none"/>
<rect x="166" y="146" width="12" height="12" fill="rgb(255,255,255)" stroke="none"/>
<rect x="178" y="146" width="12" height="12" fill="rgb(255,177,177)" stroke="none"/>
<rect x="70" y="158" width="12" height="12" fill="rgb(255,222,222)" stroke="none"/>
<rect x="82" y="158" width="12" height="12" fill="rgb(255,26,26)" stroke="none"/>
<rect x="94" y="158" width="12" height="12" fill="rgb(255,229,229)" stroke="none"/>
<rect x="106" y="158" width="12" height="12" fill="rgb(255,216,216)" stroke="none"/>
<rect x="118" y="158" width="12" height="12" fill="rgb(255,85,85)" stroke="none"/>
<rect x="130" y="158" width="12" height="12" fill="rgb(255,92,92)" stroke="none"/>
<rect x="142" y="158" width="12" height="12" fill="rgb(255,105,105)" stroke="none"/>
<rect x="154" y="158" width="12" height="12" fill="rgb(255,131,131)" stroke="none"/>
<rect x="166" y="158" width="12" height="12" fill="rgb(255,177,177)" stroke="none"/>
<rect x="178" y="158" width="12" height="12" fill="rgb(255,255,255)" stroke="none"/>
<rect x="70" y="50" width="120" height="120" fill="none" stroke="black"/>
</svg>