<svg xmlns="http://www.w3.org/2000/svg" width="2160" height="1560" viewBox="0 0 2160 1560">
<defs>
<style>
.title { font: 700 34px Arial, Helvetica, sans-serif; fill: #0f172a; }
.subtitle { font: 15px Arial, Helvetica, sans-serif; fill: #475569; }
.panel { font: 700 18px Arial, Helvetica, sans-serif; fill: #334155; }
.label { font: 700 17px Arial, Helvetica, sans-serif; }
.body { font: 14px Arial, Helvetica, sans-serif; }
.small { font: 13px Arial, Helvetica, sans-serif; }
.tiny { font: 12px Arial, Helvetica, sans-serif; }
.caption { font: 12px Arial, Helvetica, sans-serif; fill: #64748b; }
</style>
<marker id="arrow-main" markerWidth="8" markerHeight="8" refX="7" refY="4" orient="auto" markerUnits="strokeWidth"><path d="M0,0 L8,4 L0,8 z" fill="#2563eb"/></marker>
<marker id="arrow-cond" markerWidth="8" markerHeight="8" refX="7" refY="4" orient="auto" markerUnits="strokeWidth"><path d="M0,0 L8,4 L0,8 z" fill="#d97706"/></marker>
<marker id="arrow-train" markerWidth="8" markerHeight="8" refX="7" refY="4" orient="auto" markerUnits="strokeWidth"><path d="M0,0 L8,4 L0,8 z" fill="#0f766e"/></marker>
<marker id="arrow-gray" markerWidth="8" markerHeight="8" refX="7" refY="4" orient="auto" markerUnits="strokeWidth"><path d="M0,0 L8,4 L0,8 z" fill="#6b7280"/></marker>
</defs>
<rect x="0" y="0" width="2160" height="1560" rx="0" fill="#f8fafc" stroke="none" stroke-width="0"/>
<rect x="22" y="22" width="2116" height="1516" rx="24" fill="#ffffff" stroke="#dbe3ef" stroke-width="1.5"/>
<text x="1080.0" y="62" text-anchor="middle" class="title" fill="#0f172a">
  <tspan x="1080.0" dy="0">Latent AdaCUT — cleaned code-aligned architecture</tspan>
</text>
<text x="1080.0" y="90" text-anchor="middle" class="subtitle" fill="#0f172a">
  <tspan x="1080.0" dy="0">Transformer-style organization: orthogonal routing, no arrow-text overlap, and the current mainline highlighted</tspan>
</text>
<rect x="60" y="120" width="620" height="1360" rx="26" fill="#fff8f1" stroke="#f4d6b6" stroke-width="1.5"/>
<rect x="720" y="120" width="720" height="1360" rx="26" fill="#f2f7ff" stroke="#cfe0ff" stroke-width="1.5"/>
<rect x="1480" y="120" width="620" height="1360" rx="26" fill="#f3fffb" stroke="#c7eee4" stroke-width="1.5"/>
<text x="84" y="154" text-anchor="start" class="panel" fill="#0f172a">
  <tspan x="84" dy="0">Conditioning interfaces</tspan>
</text>
<text x="744" y="154" text-anchor="start" class="panel" fill="#0f172a">
  <tspan x="744" dy="0">Main latent residual stylizer</tspan>
</text>
<text x="1504" y="154" text-anchor="start" class="panel" fill="#0f172a">
  <tspan x="1504" dy="0">Legend and training objectives</tspan>
</text>
<rect x="1520" y="182" width="170" height="38" rx="13" fill="#eaf2ff" stroke="#3b82f6" stroke-width="1.5"/>
<text x="1605.0" y="206" text-anchor="middle" class="small" fill="#0f172a" font-weight="700">
  <tspan x="1605.0" dy="0">main path</tspan>
</text>
<rect x="1710" y="182" width="170" height="38" rx="13" fill="#fff2e7" stroke="#d97706" stroke-width="1.5"/>
<text x="1795.0" y="206" text-anchor="middle" class="small" fill="#0f172a" font-weight="700">
  <tspan x="1795.0" dy="0">conditioning</tspan>
</text>
<rect x="1900" y="182" width="170" height="38" rx="13" fill="#f8fafc" stroke="#94a3b8" stroke-width="1.5"/>
<text x="1985.0" y="206" text-anchor="middle" class="small" fill="#0f172a" font-weight="700">
  <tspan x="1985.0" dy="0">optional / id-only</tspan>
</text>
<text x="1520" y="246" text-anchor="start" class="small" fill="#475569">
  <tspan x="1520" dy="0">Solid arrows: active mainline. Dashed arrows: fallback, ablation,</tspan>
  <tspan x="1520" dy="22">or currently gated-off paths.</tspan>
</text>
<text x="1520" y="286" text-anchor="start" class="small" fill="#475569">
  <tspan x="1520" dy="0">Paper-level takeaway: the bottleneck SemanticCrossAttn is the primary</tspan>
  <tspan x="1520" dy="22">style writer; the decoder adds texture; the color highway carries low-frequency appearance.</tspan>
</text>
<rect x="120" y="178" width="220" height="72" rx="18" fill="#fff2e7" stroke="#d97706" stroke-width="2"/>
<text x="230.0" y="206" text-anchor="middle" class="label" fill="#0f172a">
  <tspan x="230.0" dy="0">Style ID s_t</tspan>
</text>
<text x="230.0" y="232" text-anchor="middle" class="body" fill="#475569">
  <tspan x="230.0" dy="0">discrete target domain</tspan>
</text>
<rect x="120" y="298" width="360" height="96" rx="18" fill="#fff2e7" stroke="#d97706" stroke-width="2"/>
<text x="300.0" y="326" text-anchor="middle" class="label" fill="#0f172a">
  <tspan x="300.0" dy="0">style_emb  →  global style code w</tspan>
</text>
<text x="300.0" y="352" text-anchor="middle" class="body" fill="#475569">
  <tspan x="300.0" dy="0">feeds DecoderTextureBlock</tspan>
  <tspan x="300.0" dy="22">optional shallow / skip modulators exist in code</tspan>
</text>
<rect x="120" y="536" width="360" height="82" rx="18" fill="#fff2e7" stroke="#d97706" stroke-width="2"/>
<text x="300.0" y="564" text-anchor="middle" class="label" fill="#0f172a">
  <tspan x="300.0" dy="0">Reference style latent z_s</tspan>
</text>
<text x="300.0" y="590" text-anchor="middle" class="body" fill="#475569">
  <tspan x="300.0" dy="0">training and exemplar-style inference</tspan>
</text>
<rect x="120" y="652" width="360" height="92" rx="18" fill="#fff2e7" stroke="#d97706" stroke-width="2"/>
<text x="300.0" y="680" text-anchor="middle" class="label" fill="#0f172a">
  <tspan x="300.0" dy="0">Resize to 16×16  +  1×1 style_map_proj</tspan>
</text>
<text x="300.0" y="706" text-anchor="middle" class="body" fill="#475569">
  <tspan x="300.0" dy="0">projects reference latent into bottleneck channel space</tspan>
</text>
<rect x="120" y="814" width="360" height="82" rx="18" fill="#fff2e7" stroke="#d97706" stroke-width="2" stroke-dasharray="7 6"/>
<text x="300.0" y="842" text-anchor="middle" class="label" fill="#0f172a">
  <tspan x="300.0" dy="0">Learned style prior P(s_t)</tspan>
</text>
<text x="300.0" y="868" text-anchor="middle" class="body" fill="#475569">
  <tspan x="300.0" dy="0">style_spatial_id_16[s_t]</tspan>
  <tspan x="300.0" dy="22">used for style-ID-only inference</tspan>
</text>
<rect x="120" y="930" width="360" height="86" rx="18" fill="#fff2e7" stroke="#d97706" stroke-width="2"/>
<text x="300.0" y="958" text-anchor="middle" class="label" fill="#0f172a">
  <tspan x="300.0" dy="0">Spatial style map M_s</tspan>
</text>
<text x="300.0" y="984" text-anchor="middle" class="body" fill="#475569">
  <tspan x="300.0" dy="0">either Proj(z_s) or P(s_t)</tspan>
  <tspan x="300.0" dy="22">feeds the bottleneck painter</tspan>
</text>
<rect x="120" y="1084" width="360" height="94" rx="18" fill="#f8fafc" stroke="#94a3b8" stroke-width="2" stroke-dasharray="8 6"/>
<text x="300.0" y="1112" text-anchor="middle" class="label" fill="#0f172a">
  <tspan x="300.0" dy="0">Current forward-pass caveat</tspan>
</text>
<text x="300.0" y="1138" text-anchor="middle" class="body" fill="#475569">
  <tspan x="300.0" dy="0">shallow style blocks and skip routing remain implemented,</tspan>
  <tspan x="300.0" dy="22">but the main forward path passes gate = 0 on those routes</tspan>
</text>
<rect x="920" y="170" width="320" height="76" rx="18" fill="#eaf2ff" stroke="#3b82f6" stroke-width="2"/>
<text x="1080.0" y="198" text-anchor="middle" class="label" fill="#0f172a">
  <tspan x="1080.0" dy="0">Input latent z_c</tspan>
</text>
<text x="1080.0" y="224" text-anchor="middle" class="body" fill="#475569">
  <tspan x="1080.0" dy="0">4 × 32 × 32</tspan>
</text>
<rect x="920" y="282" width="320" height="84" rx="18" fill="#eaf2ff" stroke="#3b82f6" stroke-width="2"/>
<text x="1080.0" y="310" text-anchor="middle" class="label" fill="#0f172a">
  <tspan x="1080.0" dy="0">Lift stem</tspan>
</text>
<text x="1080.0" y="336" text-anchor="middle" class="body" fill="#475569">
  <tspan x="1080.0" dy="0">3×3 Conv + SiLU</tspan>
  <tspan x="1080.0" dy="22">4 → lift_channels</tspan>
</text>
<rect x="900" y="392" width="360" height="98" rx="18" fill="#eaf2ff" stroke="#3b82f6" stroke-width="1.4" opacity="0.58"/>
<rect x="900" y="402" width="360" height="98" rx="18" fill="#eaf2ff" stroke="#3b82f6" stroke-width="2"/>
<text x="1080.0" y="430" text-anchor="middle" class="label" fill="#0f172a">
  <tspan x="1080.0" dy="0">Hi-res content stem  ×  H</tspan>
</text>
<text x="1080.0" y="456" text-anchor="middle" class="body" fill="#475569">
  <tspan x="1080.0" dy="0">32×32 content features</tspan>
  <tspan x="1080.0" dy="22">CrossAttnAdaGN exists here but is not active in the current mainline</tspan>
</text>
<rect x="920" y="536" width="320" height="76" rx="18" fill="#eaf2ff" stroke="#3b82f6" stroke-width="2"/>
<text x="1080.0" y="564" text-anchor="middle" class="label" fill="#0f172a">
  <tspan x="1080.0" dy="0">Downsample</tspan>
</text>
<text x="1080.0" y="590" text-anchor="middle" class="body" fill="#475569">
  <tspan x="1080.0" dy="0">4×4 Conv, stride 2</tspan>
  <tspan x="1080.0" dy="22">to 16×16 body</tspan>
</text>
<rect x="900" y="628" width="360" height="118" rx="18" fill="#eaf2ff" stroke="#3b82f6" stroke-width="1.4" opacity="0.58"/>
<rect x="900" y="638" width="360" height="118" rx="18" fill="#eaf2ff" stroke="#3b82f6" stroke-width="1.4" opacity="0.58"/>
<rect x="900" y="648" width="360" height="118" rx="18" fill="#eaf2ff" stroke="#3b82f6" stroke-width="2"/>
<text x="1080.0" y="676" text-anchor="middle" class="label" fill="#0f172a">
  <tspan x="1080.0" dy="0">SemanticCrossAttn body  ×  N</tspan>
</text>
<text x="1080.0" y="702" text-anchor="middle" class="body" fill="#475569">
  <tspan x="1080.0" dy="0">primary style injection site</tspan>
  <tspan x="1080.0" dy="22">content query × spatial style map key/value</tspan>
</text>
<rect x="1286" y="662" width="110" height="84" rx="18" fill="#fff2e7" stroke="#d97706" stroke-width="2"/>
<text x="1341.0" y="690" text-anchor="middle" class="label" fill="#0f172a">
  <tspan x="1341.0" dy="0">Color highway</tspan>
</text>
<text x="1341.0" y="716" text-anchor="middle" class="body" fill="#475569">
  <tspan x="1341.0" dy="0">bilinear upsample</tspan>
  <tspan x="1341.0" dy="22">+ 1×1 conv</tspan>
</text>
<rect x="920" y="802" width="320" height="76" rx="18" fill="#eaf2ff" stroke="#3b82f6" stroke-width="2"/>
<text x="1080.0" y="830" text-anchor="middle" class="label" fill="#0f172a">
  <tspan x="1080.0" dy="0">Upsample + blur</tspan>
</text>
<text x="1080.0" y="856" text-anchor="middle" class="body" fill="#475569">
  <tspan x="1080.0" dy="0">16×16 → 32×32</tspan>
</text>
<rect x="920" y="914" width="320" height="88" rx="18" fill="#eaf2ff" stroke="#3b82f6" stroke-width="2"/>
<text x="1080.0" y="942" text-anchor="middle" class="label" fill="#0f172a">
  <tspan x="1080.0" dy="0">Skip fusion</tspan>
</text>
<text x="1080.0" y="968" text-anchor="middle" class="body" fill="#475569">
  <tspan x="1080.0" dy="0">skip_squeeze + spatial dropout</tspan>
  <tspan x="1080.0" dy="22">with gate = 0, this behaves like a light content skip</tspan>
</text>
<rect x="900" y="1028" width="360" height="104" rx="18" fill="#eaf2ff" stroke="#3b82f6" stroke-width="1.4" opacity="0.58"/>
<rect x="900" y="1038" width="360" height="104" rx="18" fill="#eaf2ff" stroke="#3b82f6" stroke-width="2"/>
<text x="1080.0" y="1066" text-anchor="middle" class="label" fill="#0f172a">
  <tspan x="1080.0" dy="0">DecoderTextureBlock  ×  M</tspan>
</text>
<text x="1080.0" y="1092" text-anchor="middle" class="body" fill="#475569">
  <tspan x="1080.0" dy="0">writes local texture residuals using w</tspan>
  <tspan x="1080.0" dy="22">main decoder-side style control</tspan>
</text>
<rect x="920" y="1178" width="320" height="72" rx="18" fill="#eaf2ff" stroke="#3b82f6" stroke-width="2"/>
<text x="1080.0" y="1206" text-anchor="middle" class="label" fill="#0f172a">
  <tspan x="1080.0" dy="0">dec_out</tspan>
</text>
<text x="1080.0" y="1232" text-anchor="middle" class="body" fill="#475569">
  <tspan x="1080.0" dy="0">predicts Δ_raw in latent space</tspan>
</text>
<rect x="920" y="1286" width="320" height="82" rx="18" fill="#fff2e7" stroke="#d97706" stroke-width="2"/>
<text x="1080.0" y="1314" text-anchor="middle" class="label" fill="#0f172a">
  <tspan x="1080.0" dy="0">Residual delta composer</tspan>
</text>
<text x="1080.0" y="1340" text-anchor="middle" class="body" fill="#475569">
  <tspan x="1080.0" dy="0">Δz = Δ_raw  +  γ · Δ_color</tspan>
  <tspan x="1080.0" dy="22">step_size and style_strength scale this update in integrate()</tspan>
</text>
<circle cx="1080" cy="1406" r="22" fill="#ffffff" stroke="#3b82f6" stroke-width="2"/>
<text x="1080" y="1412" text-anchor="middle" class="label" fill="#3b82f6">
  <tspan x="1080" dy="0">+</tspan>
</text>
<rect x="920" y="1434" width="320" height="76" rx="18" fill="#eaf2ff" stroke="#3b82f6" stroke-width="2"/>
<text x="1080.0" y="1462" text-anchor="middle" class="label" fill="#0f172a">
  <tspan x="1080.0" dy="0">Output latent z_out</tspan>
</text>
<text x="1080.0" y="1488" text-anchor="middle" class="body" fill="#475569">
  <tspan x="1080.0" dy="0">z_c  +  step · Δz</tspan>
</text>
<text x="1520" y="338" text-anchor="start" class="panel" fill="#0f172a">
  <tspan x="1520" dy="0">Training-only losses used by the current objective</tspan>
</text>
<text x="1520" y="366" text-anchor="start" class="small" fill="#475569">
  <tspan x="1520" dy="0">The boxes below summarize what the implementation actually optimizes;</tspan>
  <tspan x="1520" dy="22">they are separated from the forward path so the main trunk stays readable.</tspan>
</text>
<rect x="1540" y="462" width="500" height="118" rx="18" fill="#e8fbf6" stroke="#0f766e" stroke-width="2"/>
<text x="1790.0" y="490" text-anchor="middle" class="label" fill="#0f172a">
  <tspan x="1790.0" dy="0">Cross-domain SWD</tspan>
</text>
<text x="1790.0" y="516" text-anchor="middle" class="body" fill="#475569">
  <tspan x="1790.0" dy="0">unified SWD, or micro high-pass + macro low-pass SWD</tspan>
  <tspan x="1790.0" dy="22">computed on cross-style pairs</tspan>
</text>
<rect x="1540" y="616" width="500" height="118" rx="18" fill="#e8fbf6" stroke="#0f766e" stroke-width="2"/>
<text x="1790.0" y="644" text-anchor="middle" class="label" fill="#0f172a">
  <tspan x="1790.0" dy="0">Color statistics loss</tspan>
</text>
<text x="1790.0" y="670" text-anchor="middle" class="body" fill="#475569">
  <tspan x="1790.0" dy="0">pseudo-RGB → YUV statistics</tspan>
  <tspan x="1790.0" dy="22">brightness / contrast / tint / saturation</tspan>
</text>
<rect x="1540" y="770" width="500" height="134" rx="18" fill="#e8fbf6" stroke="#0f766e" stroke-width="2"/>
<text x="1790.0" y="798" text-anchor="middle" class="label" fill="#0f172a">
  <tspan x="1790.0" dy="0">Identity family</tspan>
</text>
<text x="1790.0" y="824" text-anchor="middle" class="body" fill="#475569">
  <tspan x="1790.0" dy="0">self-style anchor  ||z_out − z_c||_1</tspan>
  <tspan x="1790.0" dy="22">topology alignment across styles</tspan>
  <tspan x="1790.0" dy="22">cross-style repel when output stays too close</tspan>
</text>
<rect x="1540" y="940" width="500" height="112" rx="18" fill="#f8fafc" stroke="#94a3b8" stroke-width="2" stroke-dasharray="8 6"/>
<text x="1790.0" y="968" text-anchor="middle" class="label" fill="#0f172a">
  <tspan x="1790.0" dy="0">Optional regularizers and diagnostics</tspan>
</text>
<text x="1790.0" y="994" text-anchor="middle" class="body" fill="#475569">
  <tspan x="1790.0" dy="0">soft repulsive, auxiliary delta variance,</tspan>
  <tspan x="1790.0" dy="22">attention entropy / attention max</tspan>
</text>
<line x1="1080" y1="246" x2="1080" y2="282" stroke="#2563eb" stroke-width="1.7" fill="none" marker-end="url(#arrow-main)"/>
<line x1="1080" y1="366" x2="1080" y2="402" stroke="#2563eb" stroke-width="1.7" fill="none" marker-end="url(#arrow-main)"/>
<line x1="1080" y1="500" x2="1080" y2="536" stroke="#2563eb" stroke-width="1.7" fill="none" marker-end="url(#arrow-main)"/>
<line x1="1080" y1="612" x2="1080" y2="648" stroke="#2563eb" stroke-width="1.7" fill="none" marker-end="url(#arrow-main)"/>
<line x1="1080" y1="766" x2="1080" y2="802" stroke="#2563eb" stroke-width="1.7" fill="none" marker-end="url(#arrow-main)"/>
<line x1="1080" y1="878" x2="1080" y2="914" stroke="#2563eb" stroke-width="1.7" fill="none" marker-end="url(#arrow-main)"/>
<line x1="1080" y1="1002" x2="1080" y2="1038" stroke="#2563eb" stroke-width="1.7" fill="none" marker-end="url(#arrow-main)"/>
<line x1="1080" y1="1142" x2="1080" y2="1178" stroke="#2563eb" stroke-width="1.7" fill="none" marker-end="url(#arrow-main)"/>
<line x1="1080" y1="1250" x2="1080" y2="1286" stroke="#2563eb" stroke-width="1.7" fill="none" marker-end="url(#arrow-main)"/>
<line x1="1080" y1="1368" x2="1080" y2="1384" stroke="#2563eb" stroke-width="1.7" fill="none" marker-end="url(#arrow-main)"/>
<line x1="1080" y1="1428" x2="1080" y2="1434" stroke="#2563eb" stroke-width="1.7" fill="none" marker-end="url(#arrow-main)"/>
<polyline points="920,208 804,208 804,1406 1058,1406" fill="none" stroke="#2563eb" stroke-width="1.6" stroke-linecap="round" stroke-linejoin="round" marker-end="url(#arrow-main)"/>
<text x="818" y="1368" text-anchor="start" class="tiny" fill="#64748b">
  <tspan x="818" dy="0">residual anchor z_c</tspan>
</text>
<polyline points="920,451 860,451 860,958 920,958" fill="none" stroke="#2563eb" stroke-width="1.6" stroke-linecap="round" stroke-linejoin="round" marker-end="url(#arrow-main)"/>
<text x="750" y="724" text-anchor="start" class="tiny" fill="#64748b">
  <tspan x="750" dy="0">content skip path</tspan>
</text>
<polyline points="1260,707 1286,707" fill="none" stroke="#d97706" stroke-width="1.6" stroke-linecap="round" stroke-linejoin="round" marker-end="url(#arrow-cond)"/>
<polyline points="1341,746 1341,1327 1240,1327" fill="none" stroke="#d97706" stroke-width="1.6" stroke-linecap="round" stroke-linejoin="round" marker-end="url(#arrow-cond)"/>
<text x="1310" y="1246" text-anchor="start" class="tiny" fill="#64748b">
  <tspan x="1310" dy="0">low-frequency appearance</tspan>
</text>
<line x1="230" y1="250" x2="230" y2="298" stroke="#d97706" stroke-width="1.6" fill="none" marker-end="url(#arrow-cond)"/>
<line x1="300" y1="618" x2="300" y2="652" stroke="#d97706" stroke-width="1.6" fill="none" marker-end="url(#arrow-cond)"/>
<line x1="300" y1="744" x2="300" y2="930" stroke="#d97706" stroke-width="1.6" fill="none" marker-end="url(#arrow-cond)"/>
<polyline points="120,214 96,214 96,855 120,855" fill="none" stroke="#d97706" stroke-width="1.5" stroke-linecap="round" stroke-linejoin="round" marker-end="url(#arrow-cond)" stroke-dasharray="7 6"/>
<line x1="300" y1="896" x2="300" y2="930" stroke="#d97706" stroke-width="1.5" fill="none" marker-end="url(#arrow-cond)" stroke-dasharray="7 6"/>
<text x="106" y="780" text-anchor="start" class="tiny" fill="#64748b">
  <tspan x="106" dy="0">id-only fallback</tspan>
</text>
<polyline points="480,973 780,973 780,707 900,707" fill="none" stroke="#d97706" stroke-width="1.7" stroke-linecap="round" stroke-linejoin="round" marker-end="url(#arrow-cond)"/>
<text x="792" y="688" text-anchor="start" class="tiny" fill="#64748b">
  <tspan x="792" dy="0">main appearance carrier</tspan>
</text>
<polyline points="480,346 764,346 764,1090 900,1090" fill="none" stroke="#d97706" stroke-width="1.7" stroke-linecap="round" stroke-linejoin="round" marker-end="url(#arrow-cond)"/>
<text x="780" y="1068" text-anchor="start" class="tiny" fill="#64748b">
  <tspan x="780" dy="0">w → decoder texture control</tspan>
</text>
<polyline points="480,334 740,334 740,450 900,450" fill="none" stroke="#6b7280" stroke-width="1.4" stroke-linecap="round" stroke-linejoin="round" marker-end="url(#arrow-gray)" stroke-dasharray="7 6"/>
<polyline points="480,358 720,358 720,958 920,958" fill="none" stroke="#6b7280" stroke-width="1.4" stroke-linecap="round" stroke-linejoin="round" marker-end="url(#arrow-gray)" stroke-dasharray="7 6"/>
<text x="524" y="1104" text-anchor="start" class="tiny" fill="#64748b">
  <tspan x="524" dy="0">dashed: implemented but currently gated off in the main forward path</tspan>
</text>
<polyline points="1240,1472 1510,1472 1510,522 1540,522" fill="none" stroke="#0f766e" stroke-width="1.7" stroke-linecap="round" stroke-linejoin="round" marker-end="url(#arrow-train)"/>
<polyline points="1510,676 1540,676" fill="none" stroke="#0f766e" stroke-width="1.7" stroke-linecap="round" stroke-linejoin="round" marker-end="url(#arrow-train)"/>
<polyline points="1510,837 1540,837" fill="none" stroke="#0f766e" stroke-width="1.7" stroke-linecap="round" stroke-linejoin="round" marker-end="url(#arrow-train)"/>
<polyline points="1510,996 1540,996" fill="none" stroke="#0f766e" stroke-width="1.5" stroke-linecap="round" stroke-linejoin="round" marker-end="url(#arrow-train)" stroke-dasharray="7 6"/>
<text x="1522" y="1088" text-anchor="start" class="tiny" fill="#64748b">
  <tspan x="1522" dy="0">All loss boxes consume z_out; their comparison targets are z_s and/or z_c as listed inside each box.</tspan>
</text>
<rect x="90" y="1498" width="1980" height="40" rx="12" fill="#fff7ed" stroke="#f4c28a" stroke-width="1.2"/>
<text x="110" y="1517" text-anchor="start" class="small" fill="#475569">
  <tspan x="110" dy="0">Recommended paper narrative: explicit dual conditioning (reference latent or learned style prior),</tspan>
  <tspan x="110" dy="22">bottleneck semantic painter as the primary style writer, decoder-side texture refinement, color highway, and residual latent update.</tspan>
</text>
<text x="120" y="1216" text-anchor="start" class="small" fill="#475569">
  <tspan x="120" dy="0">Reference-style conditioning is the default during training;</tspan>
  <tspan x="120" dy="22">the learned prior is the fallback when no reference style latent is supplied.</tspan>
</text>
<text x="760" y="152" text-anchor="start" class="small" fill="#475569">
  <tspan x="760" dy="0">Main flow is centered and purely vertical;</tspan>
  <tspan x="760" dy="22">side routes use dedicated gutters so arrows never pass through labels.</tspan>
</text>
</svg>