<svg xmlns="http://www.w3.org/2000/svg" width="900" height="520" viewBox="0 0 900 520">
<rect width="100%" height="100%" fill="white"/>
<text x="450.0" y="28" text-anchor="middle" font-size="22" font-family="Arial">MDS Scatter: latent_swd_patch_3_25</text>
<rect x="70" y="50" width="650" height="420" fill="none" stroke="black"/>
<circle cx="141.9" cy="112.1" r="4.2" fill="#2f6fed" fill-opacity="0.75"/>
<circle cx="368.7" cy="238.4" r="4.2" fill="#2f6fed" fill-opacity="0.75"/>
<circle cx="545.7" cy="240.3" r="4.2" fill="#2f6fed" fill-opacity="0.75"/>
<circle cx="337.2" cy="315.4" r="4.2" fill="#2f6fed" fill-opacity="0.75"/>
<circle cx="431.9" cy="198.8" r="4.2" fill="#2f6fed" fill-opacity="0.75"/>
<circle cx="580.4" cy="227.8" r="4.2" fill="#2f6fed" fill-opacity="0.75"/>
<circle cx="621.8" cy="204.6" r="4.2" fill="#2f6fed" fill-opacity="0.75"/>
<circle cx="408.8" cy="208.8" r="4.2" fill="#2f6fed" fill-opacity="0.75"/>
<circle cx="260.1" cy="196.6" r="4.2" fill="#2f6fed" fill-opacity="0.75"/>
<circle cx="312.1" cy="173.3" r="4.2" fill="#2f6fed" fill-opacity="0.75"/>
<circle cx="474.8" cy="238.1" r="4.2" fill="#2f6fed" fill-opacity="0.75"/>
<circle cx="441.8" cy="214.2" r="4.2" fill="#2f6fed" fill-opacity="0.75"/>
<circle cx="444.4" cy="419.7" r="4.2" fill="#2f6fed" fill-opacity="0.75"/>
<circle cx="503.7" cy="205.8" r="4.2" fill="#2f6fed" fill-opacity="0.75"/>
<circle cx="249.0" cy="238.5" r="4.2" fill="#2f6fed" fill-opacity="0.75"/>
<circle cx="309.3" cy="352.7" r="4.2" fill="#2f6fed" fill-opacity="0.75"/>
<circle cx="472.5" cy="219.2" r="4.2" fill="#2f6fed" fill-opacity="0.75"/>
<circle cx="449.6" cy="248.7" r="4.2" fill="#2f6fed" fill-opacity="0.75"/>
<circle cx="656.2" cy="228.9" r="4.2" fill="#2f6fed" fill-opacity="0.75"/>
<circle cx="618.9" cy="241.5" r="4.2" fill="#2f6fed" fill-opacity="0.75"/>
<circle cx="320.6" cy="272.2" r="4.2" fill="#2f6fed" fill-opacity="0.75"/>
<circle cx="473.8" cy="191.8" r="4.2" fill="#2f6fed" fill-opacity="0.75"/>
<circle cx="474.6" cy="259.2" r="4.2" fill="#2f6fed" fill-opacity="0.75"/>
<circle cx="541.3" cy="206.5" r="4.2" fill="#2f6fed" fill-opacity="0.75"/>
<circle cx="436.0" cy="265.7" r="4.2" fill="#2f6fed" fill-opacity="0.75"/>
<circle cx="603.6" cy="218.5" r="4.2" fill="#2f6fed" fill-opacity="0.75"/>
<circle cx="619.4" cy="227.7" r="4.2" fill="#2f6fed" fill-opacity="0.75"/>
<circle cx="341.8" cy="197.9" r="4.2" fill="#2f6fed" fill-opacity="0.75"/>
<circle cx="391.5" cy="288.1" r="4.2" fill="#2f6fed" fill-opacity="0.75"/>
<circle cx="529.5" cy="197.0" r="4.2" fill="#2f6fed" fill-opacity="0.75"/>
<circle cx="317.3" cy="418.9" r="4.2" fill="#2f6fed" fill-opacity="0.75"/>
<circle cx="484.0" cy="274.6" r="4.2" fill="#2f6fed" fill-opacity="0.75"/>
<circle cx="541.6" cy="287.1" r="4.2" fill="#2f6fed" fill-opacity="0.75"/>
<circle cx="415.2" cy="240.0" r="4.2" fill="#2f6fed" fill-opacity="0.75"/>
<circle cx="635.4" cy="298.6" r="4.2" fill="#2f6fed" fill-opacity="0.75"/>
<circle cx="595.3" cy="259.8" r="4.2" fill="#2f6fed" fill-opacity="0.75"/>
<circle cx="266.1" cy="265.2" r="4.2" fill="#2f6fed" fill-opacity="0.75"/>
<circle cx="546.1" cy="197.7" r="4.2" fill="#2f6fed" fill-opacity="0.75"/>
<circle cx="343.0" cy="299.3" r="4.2" fill="#2f6fed" fill-opacity="0.75"/>
<circle cx="292.0" cy="207.0" r="4.2" fill="#2f6fed" fill-opacity="0.75"/>
<circle cx="570.6" cy="270.2" r="4.2" fill="#2f6fed" fill-opacity="0.75"/>
<circle cx="360.5" cy="250.9" r="4.2" fill="#2f6fed" fill-opacity="0.75"/>
<circle cx="442.2" cy="345.6" r="4.2" fill="#2f6fed" fill-opacity="0.75"/>
<circle cx="499.5" cy="278.0" r="4.2" fill="#2f6fed" fill-opacity="0.75"/>
<circle cx="389.9" cy="257.8" r="4.2" fill="#2f6fed" fill-opacity="0.75"/>
<circle cx="403.7" cy="343.4" r="4.2" fill="#2f6fed" fill-opacity="0.75"/>
<circle cx="363.7" cy="225.1" r="4.2" fill="#2f6fed" fill-opacity="0.75"/>
<circle cx="521.3" cy="220.7" r="4.2" fill="#2f6fed" fill-opacity="0.75"/>
<circle cx="210.8" cy="350.7" r="4.2" fill="#2f6fed" fill-opacity="0.75"/>
<circle cx="418.1" cy="262.4" r="4.2" fill="#2f6fed" fill-opacity="0.75"/>
<circle cx="615.0" cy="221.0" r="4.2" fill="#2f6fed" fill-opacity="0.75"/>
<circle cx="549.3" cy="223.2" r="4.2" fill="#2f6fed" fill-opacity="0.75"/>
<circle cx="511.8" cy="219.9" r="4.2" fill="#2f6fed" fill-opacity="0.75"/>
<circle cx="639.4" cy="225.1" r="4.2" fill="#2f6fed" fill-opacity="0.75"/>
<circle cx="594.5" cy="193.3" r="4.2" fill="#2f6fed" fill-opacity="0.75"/>
<circle cx="530.8" cy="216.4" r="4.2" fill="#2f6fed" fill-opacity="0.75"/>
<circle cx="497.3" cy="384.1" r="4.2" fill="#2f6fed" fill-opacity="0.75"/>
<circle cx="604.8" cy="244.3" r="4.2" fill="#2f6fed" fill-opacity="0.75"/>
<circle cx="456.4" cy="416.7" r="4.2" fill="#2f6fed" fill-opacity="0.75"/>
<circle cx="432.2" cy="364.9" r="4.2" fill="#2f6fed" fill-opacity="0.75"/>
<circle cx="237.5" cy="183.9" r="4.2" fill="#2f6fed" fill-opacity="0.75"/>
<circle cx="534.2" cy="246.6" r="4.2" fill="#2f6fed" fill-opacity="0.75"/>
<circle cx="388.9" cy="261.2" r="4.2" fill="#2f6fed" fill-opacity="0.75"/>
<circle cx="413.4" cy="323.7" r="4.2" fill="#2f6fed" fill-opacity="0.75"/>
<circle cx="317.8" cy="279.6" r="4.2" fill="#2f6fed" fill-opacity="0.75"/>
<circle cx="387.0" cy="281.2" r="4.2" fill="#2f6fed" fill-opacity="0.75"/>
<circle cx="526.1" cy="430.1" r="4.2" fill="#2f6fed" fill-opacity="0.75"/>
<circle cx="321.1" cy="210.9" r="4.2" fill="#2f6fed" fill-opacity="0.75"/>
<circle cx="675.4" cy="216.5" r="4.2" fill="#2f6fed" fill-opacity="0.75"/>
<circle cx="283.9" cy="261.9" r="4.2" fill="#2f6fed" fill-opacity="0.75"/>
<circle cx="479.1" cy="268.5" r="4.2" fill="#2f6fed" fill-opacity="0.75"/>
<circle cx="626.1" cy="246.2" r="4.2" fill="#2f6fed" fill-opacity="0.75"/>
<circle cx="214.0" cy="309.3" r="4.2" fill="#2f6fed" fill-opacity="0.75"/>
<circle cx="314.9" cy="435.3" r="4.2" fill="#2f6fed" fill-opacity="0.75"/>
<circle cx="505.7" cy="224.5" r="4.2" fill="#2f6fed" fill-opacity="0.75"/>
<circle cx="214.6" cy="339.8" r="4.2" fill="#2f6fed" fill-opacity="0.75"/>
<circle cx="393.1" cy="226.8" r="4.2" fill="#2f6fed" fill-opacity="0.75"/>
<circle cx="517.4" cy="305.2" r="4.2" fill="#2f6fed" fill-opacity="0.75"/>
<circle cx="197.1" cy="134.2" r="4.2" fill="#2f6fed" fill-opacity="0.75"/>
<circle cx="473.2" cy="208.4" r="4.2" fill="#2f6fed" fill-opacity="0.75"/>
<circle cx="196.8" cy="50.0" r="4.2" fill="#2f6fed" fill-opacity="0.75"/>
<circle cx="430.1" cy="301.3" r="4.2" fill="#2f6fed" fill-opacity="0.75"/>
<circle cx="350.1" cy="237.1" r="4.2" fill="#2f6fed" fill-opacity="0.75"/>
<circle cx="490.3" cy="329.3" r="4.2" fill="#2f6fed" fill-opacity="0.75"/>
<circle cx="136.2" cy="448.0" r="4.2" fill="#2f6fed" fill-opacity="0.75"/>
<circle cx="394.1" cy="168.3" r="4.2" fill="#2f6fed" fill-opacity="0.75"/>
<circle cx="566.7" cy="209.8" r="4.2" fill="#2f6fed" fill-opacity="0.75"/>
<circle cx="400.8" cy="249.3" r="4.2" fill="#2f6fed" fill-opacity="0.75"/>
<circle cx="417.1" cy="282.8" r="4.2" fill="#2f6fed" fill-opacity="0.75"/>
<circle cx="519.9" cy="247.1" r="4.2" fill="#2f6fed" fill-opacity="0.75"/>
<circle cx="586.0" cy="237.1" r="4.2" fill="#2f6fed" fill-opacity="0.75"/>
<circle cx="298.8" cy="269.1" r="4.2" fill="#2f6fed" fill-opacity="0.75"/>
<circle cx="624.6" cy="236.8" r="4.2" fill="#2f6fed" fill-opacity="0.75"/>
<circle cx="342.6" cy="236.4" r="4.2" fill="#2f6fed" fill-opacity="0.75"/>
<circle cx="379.7" cy="210.2" r="4.2" fill="#2f6fed" fill-opacity="0.75"/>
<circle cx="352.8" cy="395.8" r="4.2" fill="#2f6fed" fill-opacity="0.75"/>
<circle cx="330.3" cy="203.7" r="4.2" fill="#2f6fed" fill-opacity="0.75"/>
<circle cx="537.6" cy="243.2" r="4.2" fill="#2f6fed" fill-opacity="0.75"/>
<circle cx="478.8" cy="265.2" r="4.2" fill="#2f6fed" fill-opacity="0.75"/>
<circle cx="346.2" cy="283.2" r="4.2" fill="#2f6fed" fill-opacity="0.75"/>
<circle cx="540.4" cy="221.7" r="4.2" fill="#ff7a00" fill-opacity="0.75"/>
<circle cx="70.0" cy="270.6" r="4.2" fill="#ff7a00" fill-opacity="0.75"/>
<circle cx="199.5" cy="182.6" r="4.2" fill="#ff7a00" fill-opacity="0.75"/>
<circle cx="580.3" cy="222.9" r="4.2" fill="#ff7a00" fill-opacity="0.75"/>
<circle cx="299.9" cy="164.0" r="4.2" fill="#ff7a00" fill-opacity="0.75"/>
<circle cx="504.1" cy="351.2" r="4.2" fill="#ff7a00" fill-opacity="0.75"/>
<circle cx="236.8" cy="285.3" r="4.2" fill="#ff7a00" fill-opacity="0.75"/>
<circle cx="525.1" cy="234.5" r="4.2" fill="#ff7a00" fill-opacity="0.75"/>
<circle cx="349.0" cy="336.8" r="4.2" fill="#ff7a00" fill-opacity="0.75"/>
<circle cx="357.3" cy="277.3" r="4.2" fill="#ff7a00" fill-opacity="0.75"/>
<circle cx="596.1" cy="207.2" r="4.2" fill="#ff7a00" fill-opacity="0.75"/>
<circle cx="526.7" cy="314.2" r="4.2" fill="#ff7a00" fill-opacity="0.75"/>
<circle cx="502.6" cy="323.6" r="4.2" fill="#ff7a00" fill-opacity="0.75"/>
<circle cx="532.1" cy="304.0" r="4.2" fill="#ff7a00" fill-opacity="0.75"/>
<circle cx="478.4" cy="318.1" r="4.2" fill="#ff7a00" fill-opacity="0.75"/>
<circle cx="390.7" cy="310.1" r="4.2" fill="#ff7a00" fill-opacity="0.75"/>
<circle cx="321.8" cy="314.3" r="4.2" fill="#ff7a00" fill-opacity="0.75"/>
<circle cx="624.1" cy="241.3" r="4.2" fill="#ff7a00" fill-opacity="0.75"/>
<circle cx="383.5" cy="170.0" r="4.2" fill="#ff7a00" fill-opacity="0.75"/>
<circle cx="548.0" cy="248.0" r="4.2" fill="#ff7a00" fill-opacity="0.75"/>
<circle cx="315.2" cy="265.5" r="4.2" fill="#ff7a00" fill-opacity="0.75"/>
<circle cx="159.8" cy="164.8" r="4.2" fill="#ff7a00" fill-opacity="0.75"/>
<circle cx="648.2" cy="267.5" r="4.2" fill="#ff7a00" fill-opacity="0.75"/>
<circle cx="459.6" cy="235.1" r="4.2" fill="#ff7a00" fill-opacity="0.75"/>
<circle cx="591.2" cy="230.2" r="4.2" fill="#ff7a00" fill-opacity="0.75"/>
<circle cx="402.6" cy="261.2" r="4.2" fill="#ff7a00" fill-opacity="0.75"/>
<circle cx="567.2" cy="233.3" r="4.2" fill="#ff7a00" fill-opacity="0.75"/>
<circle cx="577.2" cy="227.1" r="4.2" fill="#ff7a00" fill-opacity="0.75"/>
<circle cx="522.7" cy="277.5" r="4.2" fill="#ff7a00" fill-opacity="0.75"/>
<circle cx="534.8" cy="238.1" r="4.2" fill="#ff7a00" fill-opacity="0.75"/>
<circle cx="225.2" cy="178.5" r="4.2" fill="#ff7a00" fill-opacity="0.75"/>
<circle cx="531.0" cy="270.1" r="4.2" fill="#ff7a00" fill-opacity="0.75"/>
<circle cx="234.2" cy="209.6" r="4.2" fill="#ff7a00" fill-opacity="0.75"/>
<circle cx="473.5" cy="208.3" r="4.2" fill="#ff7a00" fill-opacity="0.75"/>
<circle cx="631.3" cy="214.6" r="4.2" fill="#ff7a00" fill-opacity="0.75"/>
<circle cx="541.0" cy="279.9" r="4.2" fill="#ff7a00" fill-opacity="0.75"/>
<circle cx="585.8" cy="232.3" r="4.2" fill="#ff7a00" fill-opacity="0.75"/>
<circle cx="538.1" cy="328.6" r="4.2" fill="#ff7a00" fill-opacity="0.75"/>
<circle cx="592.8" cy="254.6" r="4.2" fill="#ff7a00" fill-opacity="0.75"/>
<circle cx="327.6" cy="297.2" r="4.2" fill="#ff7a00" fill-opacity="0.75"/>
<circle cx="494.8" cy="267.5" r="4.2" fill="#ff7a00" fill-opacity="0.75"/>
<circle cx="376.0" cy="324.8" r="4.2" fill="#ff7a00" fill-opacity="0.75"/>
<circle cx="509.6" cy="282.5" r="4.2" fill="#ff7a00" fill-opacity="0.75"/>
<circle cx="523.6" cy="298.0" r="4.2" fill="#ff7a00" fill-opacity="0.75"/>
<circle cx="356.5" cy="215.5" r="4.2" fill="#ff7a00" fill-opacity="0.75"/>
<circle cx="473.8" cy="223.2" r="4.2" fill="#ff7a00" fill-opacity="0.75"/>
<circle cx="608.5" cy="235.5" r="4.2" fill="#ff7a00" fill-opacity="0.75"/>
<circle cx="586.4" cy="246.5" r="4.2" fill="#ff7a00" fill-opacity="0.75"/>
<circle cx="487.0" cy="189.6" r="4.2" fill="#ff7a00" fill-opacity="0.75"/>
<circle cx="282.2" cy="142.5" r="4.2" fill="#ff7a00" fill-opacity="0.75"/>
<circle cx="594.2" cy="242.2" r="4.2" fill="#ff7a00" fill-opacity="0.75"/>
<circle cx="645.8" cy="240.0" r="4.2" fill="#ff7a00" fill-opacity="0.75"/>
<circle cx="574.1" cy="242.5" r="4.2" fill="#ff7a00" fill-opacity="0.75"/>
<circle cx="408.0" cy="248.9" r="4.2" fill="#ff7a00" fill-opacity="0.75"/>
<circle cx="534.2" cy="232.9" r="4.2" fill="#ff7a00" fill-opacity="0.75"/>
<circle cx="501.9" cy="231.4" r="4.2" fill="#ff7a00" fill-opacity="0.75"/>
<circle cx="474.1" cy="272.9" r="4.2" fill="#ff7a00" fill-opacity="0.75"/>
<circle cx="535.9" cy="422.8" r="4.2" fill="#ff7a00" fill-opacity="0.75"/>
<circle cx="621.0" cy="203.7" r="4.2" fill="#ff7a00" fill-opacity="0.75"/>
<circle cx="434.9" cy="174.5" r="4.2" fill="#ff7a00" fill-opacity="0.75"/>
<circle cx="545.8" cy="251.8" r="4.2" fill="#ff7a00" fill-opacity="0.75"/>
<circle cx="473.7" cy="215.7" r="4.2" fill="#ff7a00" fill-opacity="0.75"/>
<circle cx="519.6" cy="177.5" r="4.2" fill="#ff7a00" fill-opacity="0.75"/>
<circle cx="320.4" cy="220.4" r="4.2" fill="#ff7a00" fill-opacity="0.75"/>
<circle cx="581.4" cy="220.6" r="4.2" fill="#ff7a00" fill-opacity="0.75"/>
<circle cx="494.0" cy="231.8" r="4.2" fill="#ff7a00" fill-opacity="0.75"/>
<circle cx="613.2" cy="324.9" r="4.2" fill="#ff7a00" fill-opacity="0.75"/>
<circle cx="190.0" cy="158.5" r="4.2" fill="#ff7a00" fill-opacity="0.75"/>
<circle cx="614.3" cy="219.0" r="4.2" fill="#ff7a00" fill-opacity="0.75"/>
<circle cx="356.0" cy="292.8" r="4.2" fill="#ff7a00" fill-opacity="0.75"/>
<circle cx="412.7" cy="379.7" r="4.2" fill="#ff7a00" fill-opacity="0.75"/>
<circle cx="108.7" cy="136.2" r="4.2" fill="#ff7a00" fill-opacity="0.75"/>
<circle cx="542.8" cy="266.4" r="4.2" fill="#ff7a00" fill-opacity="0.75"/>
<circle cx="560.4" cy="354.0" r="4.2" fill="#ff7a00" fill-opacity="0.75"/>
<circle cx="444.3" cy="218.6" r="4.2" fill="#ff7a00" fill-opacity="0.75"/>
<circle cx="531.7" cy="275.5" r="4.2" fill="#ff7a00" fill-opacity="0.75"/>
<circle cx="566.4" cy="249.2" r="4.2" fill="#ff7a00" fill-opacity="0.75"/>
<circle cx="281.1" cy="140.9" r="4.2" fill="#ff7a00" fill-opacity="0.75"/>
<circle cx="579.5" cy="240.2" r="4.2" fill="#ff7a00" fill-opacity="0.75"/>
<circle cx="493.0" cy="267.0" r="4.2" fill="#ff7a00" fill-opacity="0.75"/>
<circle cx="674.6" cy="231.5" r="4.2" fill="#ff7a00" fill-opacity="0.75"/>
<circle cx="242.3" cy="249.8" r="4.2" fill="#ff7a00" fill-opacity="0.75"/>
<circle cx="125.2" cy="177.4" r="4.2" fill="#ff7a00" fill-opacity="0.75"/>
<circle cx="540.2" cy="261.2" r="4.2" fill="#ff7a00" fill-opacity="0.75"/>
<circle cx="395.4" cy="314.0" r="4.2" fill="#ff7a00" fill-opacity="0.75"/>
<circle cx="300.3" cy="190.2" r="4.2" fill="#ff7a00" fill-opacity="0.75"/>
<circle cx="536.3" cy="264.8" r="4.2" fill="#ff7a00" fill-opacity="0.75"/>
<circle cx="608.0" cy="258.7" r="4.2" fill="#ff7a00" fill-opacity="0.75"/>
<circle cx="233.1" cy="346.0" r="4.2" fill="#ff7a00" fill-opacity="0.75"/>
<circle cx="548.9" cy="332.1" r="4.2" fill="#ff7a00" fill-opacity="0.75"/>
<circle cx="583.6" cy="252.3" r="4.2" fill="#ff7a00" fill-opacity="0.75"/>
<circle cx="601.1" cy="216.9" r="4.2" fill="#ff7a00" fill-opacity="0.75"/>
<circle cx="131.2" cy="178.5" r="4.2" fill="#ff7a00" fill-opacity="0.75"/>
<circle cx="553.2" cy="209.8" r="4.2" fill="#ff7a00" fill-opacity="0.75"/>
<circle cx="380.6" cy="225.0" r="4.2" fill="#ff7a00" fill-opacity="0.75"/>
<circle cx="546.3" cy="217.1" r="4.2" fill="#ff7a00" fill-opacity="0.75"/>
<circle cx="651.6" cy="305.2" r="4.2" fill="#ff7a00" fill-opacity="0.75"/>
<circle cx="367.7" cy="280.6" r="4.2" fill="#ff7a00" fill-opacity="0.75"/>
<circle cx="379.6" cy="354.1" r="4.2" fill="#ff7a00" fill-opacity="0.75"/>
<circle cx="402.5" cy="387.7" r="4.2" fill="#ff7a00" fill-opacity="0.75"/>
<circle cx="544.2" cy="276.3" r="4.2" fill="#1fa971" fill-opacity="0.75"/>
<circle cx="471.2" cy="278.7" r="4.2" fill="#1fa971" fill-opacity="0.75"/>
<circle cx="377.7" cy="341.1" r="4.2" fill="#1fa971" fill-opacity="0.75"/>
<circle cx="541.4" cy="191.5" r="4.2" fill="#1fa971" fill-opacity="0.75"/>
<circle cx="581.8" cy="243.1" r="4.2" fill="#1fa971" fill-opacity="0.75"/>
<circle cx="678.4" cy="190.3" r="4.2" fill="#1fa971" fill-opacity="0.75"/>
<circle cx="656.3" cy="226.0" r="4.2" fill="#1fa971" fill-opacity="0.75"/>
<circle cx="604.9" cy="298.8" r="4.2" fill="#1fa971" fill-opacity="0.75"/>
<circle cx="601.0" cy="282.0" r="4.2" fill="#1fa971" fill-opacity="0.75"/>
<circle cx="626.6" cy="257.6" r="4.2" fill="#1fa971" fill-opacity="0.75"/>
<circle cx="625.8" cy="278.4" r="4.2" fill="#1fa971" fill-opacity="0.75"/>
<circle cx="601.4" cy="283.4" r="4.2" fill="#1fa971" fill-opacity="0.75"/>
<circle cx="620.7" cy="270.4" r="4.2" fill="#1fa971" fill-opacity="0.75"/>
<circle cx="591.8" cy="277.3" r="4.2" fill="#1fa971" fill-opacity="0.75"/>
<circle cx="630.3" cy="235.9" r="4.2" fill="#1fa971" fill-opacity="0.75"/>
<circle cx="709.2" cy="226.1" r="4.2" fill="#1fa971" fill-opacity="0.75"/>
<circle cx="662.9" cy="265.4" r="4.2" fill="#1fa971" fill-opacity="0.75"/>
<circle cx="534.2" cy="279.1" r="4.2" fill="#1fa971" fill-opacity="0.75"/>
<circle cx="659.2" cy="217.1" r="4.2" fill="#1fa971" fill-opacity="0.75"/>
<circle cx="424.2" cy="461.9" r="4.2" fill="#1fa971" fill-opacity="0.75"/>
<circle cx="511.8" cy="273.4" r="4.2" fill="#1fa971" fill-opacity="0.75"/>
<circle cx="311.0" cy="266.3" r="4.2" fill="#1fa971" fill-opacity="0.75"/>
<circle cx="330.2" cy="379.9" r="4.2" fill="#1fa971" fill-opacity="0.75"/>
<circle cx="613.5" cy="303.3" r="4.2" fill="#1fa971" fill-opacity="0.75"/>
<circle cx="594.9" cy="321.7" r="4.2" fill="#1fa971" fill-opacity="0.75"/>
<circle cx="412.3" cy="407.2" r="4.2" fill="#1fa971" fill-opacity="0.75"/>
<circle cx="592.9" cy="241.1" r="4.2" fill="#1fa971" fill-opacity="0.75"/>
<circle cx="452.0" cy="273.7" r="4.2" fill="#1fa971" fill-opacity="0.75"/>
<circle cx="492.4" cy="220.1" r="4.2" fill="#1fa971" fill-opacity="0.75"/>
<circle cx="467.4" cy="350.1" r="4.2" fill="#1fa971" fill-opacity="0.75"/>
<circle cx="570.3" cy="275.3" r="4.2" fill="#1fa971" fill-opacity="0.75"/>
<circle cx="524.0" cy="342.2" r="4.2" fill="#1fa971" fill-opacity="0.75"/>
<circle cx="652.2" cy="289.1" r="4.2" fill="#1fa971" fill-opacity="0.75"/>
<circle cx="476.5" cy="246.8" r="4.2" fill="#1fa971" fill-opacity="0.75"/>
<circle cx="491.4" cy="254.9" r="4.2" fill="#1fa971" fill-opacity="0.75"/>
<circle cx="470.5" cy="221.8" r="4.2" fill="#1fa971" fill-opacity="0.75"/>
<circle cx="608.7" cy="255.8" r="4.2" fill="#1fa971" fill-opacity="0.75"/>
<circle cx="601.1" cy="202.3" r="4.2" fill="#1fa971" fill-opacity="0.75"/>
<circle cx="410.3" cy="313.4" r="4.2" fill="#1fa971" fill-opacity="0.75"/>
<circle cx="574.8" cy="320.4" r="4.2" fill="#1fa971" fill-opacity="0.75"/>
<circle cx="638.4" cy="204.3" r="4.2" fill="#1fa971" fill-opacity="0.75"/>
<circle cx="546.2" cy="239.5" r="4.2" fill="#1fa971" fill-opacity="0.75"/>
<circle cx="562.6" cy="323.4" r="4.2" fill="#1fa971" fill-opacity="0.75"/>
<circle cx="569.0" cy="373.5" r="4.2" fill="#1fa971" fill-opacity="0.75"/>
<circle cx="511.8" cy="293.5" r="4.2" fill="#1fa971" fill-opacity="0.75"/>
<circle cx="529.6" cy="388.6" r="4.2" fill="#1fa971" fill-opacity="0.75"/>
<circle cx="586.3" cy="325.7" r="4.2" fill="#1fa971" fill-opacity="0.75"/>
<circle cx="574.0" cy="292.5" r="4.2" fill="#1fa971" fill-opacity="0.75"/>
<circle cx="656.2" cy="326.4" r="4.2" fill="#1fa971" fill-opacity="0.75"/>
<circle cx="596.4" cy="297.6" r="4.2" fill="#1fa971" fill-opacity="0.75"/>
<circle cx="582.8" cy="207.8" r="4.2" fill="#1fa971" fill-opacity="0.75"/>
<circle cx="614.7" cy="280.7" r="4.2" fill="#1fa971" fill-opacity="0.75"/>
<circle cx="557.7" cy="397.6" r="4.2" fill="#1fa971" fill-opacity="0.75"/>
<circle cx="683.2" cy="243.7" r="4.2" fill="#1fa971" fill-opacity="0.75"/>
<circle cx="444.3" cy="246.6" r="4.2" fill="#1fa971" fill-opacity="0.75"/>
<circle cx="603.8" cy="328.8" r="4.2" fill="#1fa971" fill-opacity="0.75"/>
<circle cx="552.4" cy="291.3" r="4.2" fill="#1fa971" fill-opacity="0.75"/>
<circle cx="522.1" cy="250.5" r="4.2" fill="#1fa971" fill-opacity="0.75"/>
<circle cx="611.8" cy="297.5" r="4.2" fill="#1fa971" fill-opacity="0.75"/>
<circle cx="591.7" cy="207.7" r="4.2" fill="#1fa971" fill-opacity="0.75"/>
<circle cx="464.3" cy="319.5" r="4.2" fill="#1fa971" fill-opacity="0.75"/>
<circle cx="622.3" cy="318.2" r="4.2" fill="#1fa971" fill-opacity="0.75"/>
<circle cx="537.0" cy="269.9" r="4.2" fill="#1fa971" fill-opacity="0.75"/>
<circle cx="500.9" cy="288.9" r="4.2" fill="#1fa971" fill-opacity="0.75"/>
<circle cx="610.5" cy="339.1" r="4.2" fill="#1fa971" fill-opacity="0.75"/>
<circle cx="557.5" cy="344.1" r="4.2" fill="#1fa971" fill-opacity="0.75"/>
<circle cx="584.9" cy="243.2" r="4.2" fill="#1fa971" fill-opacity="0.75"/>
<circle cx="634.2" cy="376.3" r="4.2" fill="#1fa971" fill-opacity="0.75"/>
<circle cx="639.1" cy="218.6" r="4.2" fill="#1fa971" fill-opacity="0.75"/>
<circle cx="623.7" cy="201.5" r="4.2" fill="#1fa971" fill-opacity="0.75"/>
<circle cx="619.6" cy="220.1" r="4.2" fill="#1fa971" fill-opacity="0.75"/>
<circle cx="585.3" cy="188.2" r="4.2" fill="#1fa971" fill-opacity="0.75"/>
<circle cx="550.4" cy="386.0" r="4.2" fill="#1fa971" fill-opacity="0.75"/>
<circle cx="546.5" cy="215.4" r="4.2" fill="#1fa971" fill-opacity="0.75"/>
<circle cx="561.0" cy="185.8" r="4.2" fill="#1fa971" fill-opacity="0.75"/>
<circle cx="598.6" cy="204.7" r="4.2" fill="#1fa971" fill-opacity="0.75"/>
<circle cx="619.0" cy="235.4" r="4.2" fill="#1fa971" fill-opacity="0.75"/>
<circle cx="590.6" cy="211.6" r="4.2" fill="#1fa971" fill-opacity="0.75"/>
<circle cx="594.5" cy="218.1" r="4.2" fill="#1fa971" fill-opacity="0.75"/>
<circle cx="609.5" cy="247.0" r="4.2" fill="#1fa971" fill-opacity="0.75"/>
<circle cx="609.3" cy="240.9" r="4.2" fill="#1fa971" fill-opacity="0.75"/>
<circle cx="573.2" cy="204.8" r="4.2" fill="#1fa971" fill-opacity="0.75"/>
<circle cx="587.6" cy="317.5" r="4.2" fill="#1fa971" fill-opacity="0.75"/>
<circle cx="586.1" cy="216.0" r="4.2" fill="#1fa971" fill-opacity="0.75"/>
<circle cx="597.7" cy="330.4" r="4.2" fill="#1fa971" fill-opacity="0.75"/>
<circle cx="589.7" cy="218.9" r="4.2" fill="#1fa971" fill-opacity="0.75"/>
<circle cx="593.3" cy="267.9" r="4.2" fill="#1fa971" fill-opacity="0.75"/>
<circle cx="266.9" cy="195.2" r="4.2" fill="#1fa971" fill-opacity="0.75"/>
<circle cx="530.8" cy="251.9" r="4.2" fill="#1fa971" fill-opacity="0.75"/>
<circle cx="610.8" cy="264.2" r="4.2" fill="#1fa971" fill-opacity="0.75"/>
<circle cx="469.1" cy="286.1" r="4.2" fill="#1fa971" fill-opacity="0.75"/>
<circle cx="592.0" cy="198.8" r="4.2" fill="#1fa971" fill-opacity="0.75"/>
<circle cx="622.1" cy="276.9" r="4.2" fill="#1fa971" fill-opacity="0.75"/>
<circle cx="606.9" cy="299.5" r="4.2" fill="#1fa971" fill-opacity="0.75"/>
<circle cx="492.6" cy="317.0" r="4.2" fill="#1fa971" fill-opacity="0.75"/>
<circle cx="589.3" cy="243.2" r="4.2" fill="#1fa971" fill-opacity="0.75"/>
<circle cx="519.6" cy="340.5" r="4.2" fill="#1fa971" fill-opacity="0.75"/>
<circle cx="520.2" cy="292.4" r="4.2" fill="#1fa971" fill-opacity="0.75"/>
<circle cx="505.5" cy="180.7" r="4.2" fill="#1fa971" fill-opacity="0.75"/>
<circle cx="592.0" cy="239.9" r="4.2" fill="#1fa971" fill-opacity="0.75"/>
<circle cx="653.8" cy="222.7" r="4.2" fill="#a046f2" fill-opacity="0.75"/>
<circle cx="655.2" cy="226.0" r="4.2" fill="#a046f2" fill-opacity="0.75"/>
<circle cx="552.2" cy="288.3" r="4.2" fill="#a046f2" fill-opacity="0.75"/>
<circle cx="551.6" cy="283.6" r="4.2" fill="#a046f2" fill-opacity="0.75"/>
<circle cx="612.3" cy="251.2" r="4.2" fill="#a046f2" fill-opacity="0.75"/>
<circle cx="606.2" cy="259.8" r="4.2" fill="#a046f2" fill-opacity="0.75"/>
<circle cx="619.4" cy="349.5" r="4.2" fill="#a046f2" fill-opacity="0.75"/>
<circle cx="610.4" cy="336.9" r="4.2" fill="#a046f2" fill-opacity="0.75"/>
<circle cx="687.8" cy="260.6" r="4.2" fill="#a046f2" fill-opacity="0.75"/>
<circle cx="683.6" cy="266.6" r="4.2" fill="#a046f2" fill-opacity="0.75"/>
<circle cx="621.5" cy="211.8" r="4.2" fill="#a046f2" fill-opacity="0.75"/>
<circle cx="615.7" cy="213.5" r="4.2" fill="#a046f2" fill-opacity="0.75"/>
<circle cx="529.3" cy="219.4" r="4.2" fill="#a046f2" fill-opacity="0.75"/>
<circle cx="529.7" cy="220.4" r="4.2" fill="#a046f2" fill-opacity="0.75"/>
<circle cx="642.6" cy="241.0" r="4.2" fill="#a046f2" fill-opacity="0.75"/>
<circle cx="644.2" cy="246.7" r="4.2" fill="#a046f2" fill-opacity="0.75"/>
<circle cx="664.6" cy="234.2" r="4.2" fill="#a046f2" fill-opacity="0.75"/>
<circle cx="664.9" cy="233.7" r="4.2" fill="#a046f2" fill-opacity="0.75"/>
<circle cx="710.6" cy="234.4" r="4.2" fill="#a046f2" fill-opacity="0.75"/>
<circle cx="720.0" cy="237.1" r="4.2" fill="#a046f2" fill-opacity="0.75"/>
<circle cx="678.0" cy="204.9" r="4.2" fill="#a046f2" fill-opacity="0.75"/>
<circle cx="694.5" cy="214.2" r="4.2" fill="#a046f2" fill-opacity="0.75"/>
<circle cx="501.4" cy="209.4" r="4.2" fill="#a046f2" fill-opacity="0.75"/>
<circle cx="515.6" cy="212.2" r="4.2" fill="#a046f2" fill-opacity="0.75"/>
<circle cx="695.3" cy="209.2" r="4.2" fill="#a046f2" fill-opacity="0.75"/>
<circle cx="665.9" cy="190.2" r="4.2" fill="#a046f2" fill-opacity="0.75"/>
<circle cx="483.0" cy="224.2" r="4.2" fill="#a046f2" fill-opacity="0.75"/>
<circle cx="491.3" cy="224.6" r="4.2" fill="#a046f2" fill-opacity="0.75"/>
<circle cx="522.3" cy="292.1" r="4.2" fill="#a046f2" fill-opacity="0.75"/>
<circle cx="540.5" cy="286.1" r="4.2" fill="#a046f2" fill-opacity="0.75"/>
<circle cx="559.8" cy="286.0" r="4.2" fill="#a046f2" fill-opacity="0.75"/>
<circle cx="574.2" cy="288.4" r="4.2" fill="#a046f2" fill-opacity="0.75"/>
<circle cx="643.6" cy="248.6" r="4.2" fill="#a046f2" fill-opacity="0.75"/>
<circle cx="632.8" cy="246.6" r="4.2" fill="#a046f2" fill-opacity="0.75"/>
<circle cx="405.8" cy="320.2" r="4.2" fill="#a046f2" fill-opacity="0.75"/>
<circle cx="413.4" cy="319.6" r="4.2" fill="#a046f2" fill-opacity="0.75"/>
<circle cx="663.2" cy="231.7" r="4.2" fill="#a046f2" fill-opacity="0.75"/>
<circle cx="659.2" cy="228.2" r="4.2" fill="#a046f2" fill-opacity="0.75"/>
<circle cx="571.1" cy="331.1" r="4.2" fill="#a046f2" fill-opacity="0.75"/>
<circle cx="575.8" cy="328.8" r="4.2" fill="#a046f2" fill-opacity="0.75"/>
<circle cx="533.1" cy="147.1" r="4.2" fill="#a046f2" fill-opacity="0.75"/>
<circle cx="536.8" cy="152.3" r="4.2" fill="#a046f2" fill-opacity="0.75"/>
<circle cx="590.6" cy="201.5" r="4.2" fill="#a046f2" fill-opacity="0.75"/>
<circle cx="581.5" cy="210.3" r="4.2" fill="#a046f2" fill-opacity="0.75"/>
<circle cx="639.4" cy="233.2" r="4.2" fill="#a046f2" fill-opacity="0.75"/>
<circle cx="637.2" cy="236.8" r="4.2" fill="#a046f2" fill-opacity="0.75"/>
<circle cx="619.8" cy="247.3" r="4.2" fill="#a046f2" fill-opacity="0.75"/>
<circle cx="609.9" cy="260.3" r="4.2" fill="#a046f2" fill-opacity="0.75"/>
<circle cx="569.8" cy="213.6" r="4.2" fill="#a046f2" fill-opacity="0.75"/>
<circle cx="577.2" cy="213.5" r="4.2" fill="#a046f2" fill-opacity="0.75"/>
<circle cx="612.4" cy="234.7" r="4.2" fill="#a046f2" fill-opacity="0.75"/>
<circle cx="623.2" cy="234.0" r="4.2" fill="#a046f2" fill-opacity="0.75"/>
<circle cx="541.0" cy="196.6" r="4.2" fill="#a046f2" fill-opacity="0.75"/>
<circle cx="556.0" cy="200.0" r="4.2" fill="#a046f2" fill-opacity="0.75"/>
<circle cx="652.1" cy="237.4" r="4.2" fill="#a046f2" fill-opacity="0.75"/>
<circle cx="670.2" cy="242.2" r="4.2" fill="#a046f2" fill-opacity="0.75"/>
<circle cx="641.7" cy="283.9" r="4.2" fill="#a046f2" fill-opacity="0.75"/>
<circle cx="642.8" cy="283.6" r="4.2" fill="#a046f2" fill-opacity="0.75"/>
<circle cx="562.3" cy="210.3" r="4.2" fill="#a046f2" fill-opacity="0.75"/>
<circle cx="558.8" cy="207.9" r="4.2" fill="#a046f2" fill-opacity="0.75"/>
<circle cx="646.4" cy="237.4" r="4.2" fill="#a046f2" fill-opacity="0.75"/>
<circle cx="646.9" cy="243.6" r="4.2" fill="#a046f2" fill-opacity="0.75"/>
<circle cx="681.2" cy="246.2" r="4.2" fill="#a046f2" fill-opacity="0.75"/>
<circle cx="680.1" cy="247.8" r="4.2" fill="#a046f2" fill-opacity="0.75"/>
<circle cx="460.0" cy="279.3" r="4.2" fill="#a046f2" fill-opacity="0.75"/>
<circle cx="474.2" cy="281.7" r="4.2" fill="#a046f2" fill-opacity="0.75"/>
<circle cx="681.1" cy="268.2" r="4.2" fill="#a046f2" fill-opacity="0.75"/>
<circle cx="682.5" cy="270.1" r="4.2" fill="#a046f2" fill-opacity="0.75"/>
<circle cx="494.7" cy="247.5" r="4.2" fill="#a046f2" fill-opacity="0.75"/>
<circle cx="493.7" cy="246.8" r="4.2" fill="#a046f2" fill-opacity="0.75"/>
<circle cx="623.9" cy="220.9" r="4.2" fill="#a046f2" fill-opacity="0.75"/>
<circle cx="617.5" cy="227.1" r="4.2" fill="#a046f2" fill-opacity="0.75"/>
<circle cx="652.9" cy="242.2" r="4.2" fill="#a046f2" fill-opacity="0.75"/>
<circle cx="658.9" cy="254.6" r="4.2" fill="#a046f2" fill-opacity="0.75"/>
<circle cx="665.0" cy="312.6" r="4.2" fill="#a046f2" fill-opacity="0.75"/>
<circle cx="666.3" cy="305.8" r="4.2" fill="#a046f2" fill-opacity="0.75"/>
<circle cx="641.1" cy="242.4" r="4.2" fill="#a046f2" fill-opacity="0.75"/>
<circle cx="628.0" cy="243.5" r="4.2" fill="#a046f2" fill-opacity="0.75"/>
<circle cx="621.6" cy="251.0" r="4.2" fill="#a046f2" fill-opacity="0.75"/>
<circle cx="615.0" cy="250.0" r="4.2" fill="#a046f2" fill-opacity="0.75"/>
<circle cx="608.0" cy="233.9" r="4.2" fill="#a046f2" fill-opacity="0.75"/>
<circle cx="597.9" cy="235.7" r="4.2" fill="#a046f2" fill-opacity="0.75"/>
<circle cx="550.4" cy="258.9" r="4.2" fill="#a046f2" fill-opacity="0.75"/>
<circle cx="546.5" cy="262.5" r="4.2" fill="#a046f2" fill-opacity="0.75"/>
<circle cx="649.9" cy="292.9" r="4.2" fill="#a046f2" fill-opacity="0.75"/>
<circle cx="625.7" cy="296.9" r="4.2" fill="#a046f2" fill-opacity="0.75"/>
<circle cx="659.6" cy="254.0" r="4.2" fill="#a046f2" fill-opacity="0.75"/>
<circle cx="671.0" cy="254.5" r="4.2" fill="#a046f2" fill-opacity="0.75"/>
<circle cx="546.9" cy="238.1" r="4.2" fill="#a046f2" fill-opacity="0.75"/>
<circle cx="553.9" cy="248.5" r="4.2" fill="#a046f2" fill-opacity="0.75"/>
<circle cx="682.8" cy="210.3" r="4.2" fill="#a046f2" fill-opacity="0.75"/>
<circle cx="692.9" cy="214.4" r="4.2" fill="#a046f2" fill-opacity="0.75"/>
<circle cx="681.0" cy="225.6" r="4.2" fill="#a046f2" fill-opacity="0.75"/>
<circle cx="680.1" cy="227.2" r="4.2" fill="#a046f2" fill-opacity="0.75"/>
<circle cx="646.6" cy="235.0" r="4.2" fill="#a046f2" fill-opacity="0.75"/>
<circle cx="639.7" cy="233.1" r="4.2" fill="#a046f2" fill-opacity="0.75"/>
<circle cx="663.5" cy="232.3" r="4.2" fill="#a046f2" fill-opacity="0.75"/>
<circle cx="667.2" cy="237.2" r="4.2" fill="#a046f2" fill-opacity="0.75"/>
<circle cx="627.4" cy="196.9" r="4.2" fill="#a046f2" fill-opacity="0.75"/>
<circle cx="606.4" cy="198.3" r="4.2" fill="#a046f2" fill-opacity="0.75"/>
<circle cx="666.0" cy="241.4" r="4.2" fill="#d64545" fill-opacity="0.75"/>
<circle cx="670.5" cy="240.9" r="4.2" fill="#d64545" fill-opacity="0.75"/>
<circle cx="455.3" cy="155.4" r="4.2" fill="#d64545" fill-opacity="0.75"/>
<circle cx="452.1" cy="153.7" r="4.2" fill="#d64545" fill-opacity="0.75"/>
<circle cx="525.4" cy="245.0" r="4.2" fill="#d64545" fill-opacity="0.75"/>
<circle cx="528.9" cy="245.3" r="4.2" fill="#d64545" fill-opacity="0.75"/>
<circle cx="635.0" cy="255.1" r="4.2" fill="#d64545" fill-opacity="0.75"/>
<circle cx="629.7" cy="257.2" r="4.2" fill="#d64545" fill-opacity="0.75"/>
<circle cx="592.5" cy="260.6" r="4.2" fill="#d64545" fill-opacity="0.75"/>
<circle cx="582.6" cy="255.9" r="4.2" fill="#d64545" fill-opacity="0.75"/>
<circle cx="583.3" cy="220.2" r="4.2" fill="#d64545" fill-opacity="0.75"/>
<circle cx="577.5" cy="219.3" r="4.2" fill="#d64545" fill-opacity="0.75"/>
<circle cx="514.8" cy="337.0" r="4.2" fill="#d64545" fill-opacity="0.75"/>
<circle cx="492.9" cy="347.3" r="4.2" fill="#d64545" fill-opacity="0.75"/>
<circle cx="559.1" cy="470.0" r="4.2" fill="#d64545" fill-opacity="0.75"/>
<circle cx="553.9" cy="468.4" r="4.2" fill="#d64545" fill-opacity="0.75"/>
<circle cx="548.4" cy="206.1" r="4.2" fill="#d64545" fill-opacity="0.75"/>
<circle cx="537.2" cy="206.2" r="4.2" fill="#d64545" fill-opacity="0.75"/>
<circle cx="611.1" cy="375.1" r="4.2" fill="#d64545" fill-opacity="0.75"/>
<circle cx="646.5" cy="347.6" r="4.2" fill="#d64545" fill-opacity="0.75"/>
<circle cx="440.7" cy="178.8" r="4.2" fill="#d64545" fill-opacity="0.75"/>
<circle cx="463.7" cy="190.5" r="4.2" fill="#d64545" fill-opacity="0.75"/>
<circle cx="554.9" cy="275.9" r="4.2" fill="#d64545" fill-opacity="0.75"/>
<circle cx="566.7" cy="276.3" r="4.2" fill="#d64545" fill-opacity="0.75"/>
<circle cx="608.9" cy="276.8" r="4.2" fill="#d64545" fill-opacity="0.75"/>
<circle cx="595.9" cy="276.2" r="4.2" fill="#d64545" fill-opacity="0.75"/>
<circle cx="594.4" cy="284.2" r="4.2" fill="#d64545" fill-opacity="0.75"/>
<circle cx="587.7" cy="285.4" r="4.2" fill="#d64545" fill-opacity="0.75"/>
<circle cx="574.8" cy="246.7" r="4.2" fill="#d64545" fill-opacity="0.75"/>
<circle cx="583.0" cy="248.9" r="4.2" fill="#d64545" fill-opacity="0.75"/>
<circle cx="572.3" cy="343.1" r="4.2" fill="#d64545" fill-opacity="0.75"/>
<circle cx="578.9" cy="342.7" r="4.2" fill="#d64545" fill-opacity="0.75"/>
<circle cx="470.5" cy="223.2" r="4.2" fill="#d64545" fill-opacity="0.75"/>
<circle cx="469.8" cy="223.6" r="4.2" fill="#d64545" fill-opacity="0.75"/>
<circle cx="484.8" cy="217.5" r="4.2" fill="#d64545" fill-opacity="0.75"/>
<circle cx="491.3" cy="224.7" r="4.2" fill="#d64545" fill-opacity="0.75"/>
<circle cx="581.5" cy="220.0" r="4.2" fill="#d64545" fill-opacity="0.75"/>
<circle cx="586.7" cy="231.6" r="4.2" fill="#d64545" fill-opacity="0.75"/>
<circle cx="496.3" cy="177.2" r="4.2" fill="#d64545" fill-opacity="0.75"/>
<circle cx="493.0" cy="175.5" r="4.2" fill="#d64545" fill-opacity="0.75"/>
<circle cx="612.0" cy="298.1" r="4.2" fill="#d64545" fill-opacity="0.75"/>
<circle cx="612.2" cy="296.5" r="4.2" fill="#d64545" fill-opacity="0.75"/>
<circle cx="598.8" cy="229.5" r="4.2" fill="#d64545" fill-opacity="0.75"/>
<circle cx="615.4" cy="239.5" r="4.2" fill="#d64545" fill-opacity="0.75"/>
<circle cx="521.0" cy="272.4" r="4.2" fill="#d64545" fill-opacity="0.75"/>
<circle cx="538.1" cy="273.2" r="4.2" fill="#d64545" fill-opacity="0.75"/>
<circle cx="520.9" cy="261.1" r="4.2" fill="#d64545" fill-opacity="0.75"/>
<circle cx="527.7" cy="273.0" r="4.2" fill="#d64545" fill-opacity="0.75"/>
<circle cx="450.1" cy="197.0" r="4.2" fill="#d64545" fill-opacity="0.75"/>
<circle cx="453.8" cy="205.7" r="4.2" fill="#d64545" fill-opacity="0.75"/>
<circle cx="581.9" cy="215.4" r="4.2" fill="#d64545" fill-opacity="0.75"/>
<circle cx="569.4" cy="213.0" r="4.2" fill="#d64545" fill-opacity="0.75"/>
<circle cx="540.7" cy="204.4" r="4.2" fill="#d64545" fill-opacity="0.75"/>
<circle cx="539.7" cy="200.4" r="4.2" fill="#d64545" fill-opacity="0.75"/>
<circle cx="565.8" cy="241.4" r="4.2" fill="#d64545" fill-opacity="0.75"/>
<circle cx="566.3" cy="241.0" r="4.2" fill="#d64545" fill-opacity="0.75"/>
<circle cx="684.3" cy="239.2" r="4.2" fill="#d64545" fill-opacity="0.75"/>
<circle cx="685.6" cy="239.6" r="4.2" fill="#d64545" fill-opacity="0.75"/>
<circle cx="523.2" cy="237.6" r="4.2" fill="#d64545" fill-opacity="0.75"/>
<circle cx="525.7" cy="246.8" r="4.2" fill="#d64545" fill-opacity="0.75"/>
<circle cx="552.8" cy="166.3" r="4.2" fill="#d64545" fill-opacity="0.75"/>
<circle cx="552.5" cy="168.2" r="4.2" fill="#d64545" fill-opacity="0.75"/>
<circle cx="597.2" cy="238.0" r="4.2" fill="#d64545" fill-opacity="0.75"/>
<circle cx="594.2" cy="247.2" r="4.2" fill="#d64545" fill-opacity="0.75"/>
<circle cx="629.0" cy="228.1" r="4.2" fill="#d64545" fill-opacity="0.75"/>
<circle cx="623.2" cy="222.0" r="4.2" fill="#d64545" fill-opacity="0.75"/>
<circle cx="526.0" cy="265.5" r="4.2" fill="#d64545" fill-opacity="0.75"/>
<circle cx="526.0" cy="266.0" r="4.2" fill="#d64545" fill-opacity="0.75"/>
<circle cx="555.7" cy="233.1" r="4.2" fill="#d64545" fill-opacity="0.75"/>
<circle cx="562.5" cy="237.1" r="4.2" fill="#d64545" fill-opacity="0.75"/>
<circle cx="515.0" cy="173.7" r="4.2" fill="#d64545" fill-opacity="0.75"/>
<circle cx="503.1" cy="175.5" r="4.2" fill="#d64545" fill-opacity="0.75"/>
<circle cx="509.4" cy="198.6" r="4.2" fill="#d64545" fill-opacity="0.75"/>
<circle cx="501.9" cy="198.7" r="4.2" fill="#d64545" fill-opacity="0.75"/>
<circle cx="616.1" cy="224.9" r="4.2" fill="#d64545" fill-opacity="0.75"/>
<circle cx="624.2" cy="231.2" r="4.2" fill="#d64545" fill-opacity="0.75"/>
<circle cx="590.6" cy="263.0" r="4.2" fill="#d64545" fill-opacity="0.75"/>
<circle cx="586.9" cy="257.0" r="4.2" fill="#d64545" fill-opacity="0.75"/>
<circle cx="611.5" cy="204.4" r="4.2" fill="#d64545" fill-opacity="0.75"/>
<circle cx="597.7" cy="201.6" r="4.2" fill="#d64545" fill-opacity="0.75"/>
<circle cx="503.1" cy="241.8" r="4.2" fill="#d64545" fill-opacity="0.75"/>
<circle cx="533.5" cy="251.1" r="4.2" fill="#d64545" fill-opacity="0.75"/>
<circle cx="554.5" cy="226.3" r="4.2" fill="#d64545" fill-opacity="0.75"/>
<circle cx="556.8" cy="231.8" r="4.2" fill="#d64545" fill-opacity="0.75"/>
<circle cx="498.1" cy="231.1" r="4.2" fill="#d64545" fill-opacity="0.75"/>
<circle cx="502.7" cy="230.0" r="4.2" fill="#d64545" fill-opacity="0.75"/>
<circle cx="633.4" cy="214.0" r="4.2" fill="#d64545" fill-opacity="0.75"/>
<circle cx="622.3" cy="209.4" r="4.2" fill="#d64545" fill-opacity="0.75"/>
<circle cx="533.3" cy="186.8" r="4.2" fill="#d64545" fill-opacity="0.75"/>
<circle cx="543.8" cy="197.2" r="4.2" fill="#d64545" fill-opacity="0.75"/>
<circle cx="634.5" cy="245.3" r="4.2" fill="#d64545" fill-opacity="0.75"/>
<circle cx="633.5" cy="250.9" r="4.2" fill="#d64545" fill-opacity="0.75"/>
<circle cx="365.3" cy="116.7" r="4.2" fill="#d64545" fill-opacity="0.75"/>
<circle cx="354.3" cy="112.4" r="4.2" fill="#d64545" fill-opacity="0.75"/>
<circle cx="530.0" cy="192.6" r="4.2" fill="#d64545" fill-opacity="0.75"/>
<circle cx="517.4" cy="199.3" r="4.2" fill="#d64545" fill-opacity="0.75"/>
<circle cx="560.0" cy="251.7" r="4.2" fill="#d64545" fill-opacity="0.75"/>
<circle cx="560.1" cy="250.8" r="4.2" fill="#d64545" fill-opacity="0.75"/>
<circle cx="585.2" cy="236.8" r="4.2" fill="#d64545" fill-opacity="0.75"/>
<circle cx="584.2" cy="233.3" r="4.2" fill="#d64545" fill-opacity="0.75"/>
<rect x="750" y="60" width="14" height="14" fill="#2f6fed"/>
<text x="770" y="72" font-size="14" font-family="Arial">photo</text>
<rect x="750" y="84" width="14" height="14" fill="#ff7a00"/>
<text x="770" y="96" font-size="14" font-family="Arial">Hayao</text>
<rect x="750" y="108" width="14" height="14" fill="#1fa971"/>
<text x="770" y="120" font-size="14" font-family="Arial">monet</text>
<rect x="750" y="132" width="14" height="14" fill="#a046f2"/>
<text x="770" y="144" font-size="14" font-family="Arial">vangogh</text>
<rect x="750" y="156" width="14" height="14" fill="#d64545"/>
<text x="770" y="168" font-size="14" font-family="Arial">cezanne</text>
</svg>