<svg xmlns="http://www.w3.org/2000/svg" width="900" height="520" viewBox="0 0 900 520">
<rect width="100%" height="100%" fill="white"/>
<text x="450.0" y="28" text-anchor="middle" font-size="22" font-family="Arial">MDS Scatter: latent_raw_mse</text>
<rect x="70" y="50" width="650" height="420" fill="none" stroke="black"/>
<circle cx="332.3" cy="206.1" r="4.2" fill="#2f6fed" fill-opacity="0.75"/>
<circle cx="604.2" cy="143.3" r="4.2" fill="#2f6fed" fill-opacity="0.75"/>
<circle cx="372.5" cy="317.3" r="4.2" fill="#2f6fed" fill-opacity="0.75"/>
<circle cx="389.9" cy="236.1" r="4.2" fill="#2f6fed" fill-opacity="0.75"/>
<circle cx="574.7" cy="221.5" r="4.2" fill="#2f6fed" fill-opacity="0.75"/>
<circle cx="451.0" cy="295.9" r="4.2" fill="#2f6fed" fill-opacity="0.75"/>
<circle cx="484.3" cy="294.7" r="4.2" fill="#2f6fed" fill-opacity="0.75"/>
<circle cx="292.6" cy="216.6" r="4.2" fill="#2f6fed" fill-opacity="0.75"/>
<circle cx="254.0" cy="255.7" r="4.2" fill="#2f6fed" fill-opacity="0.75"/>
<circle cx="354.3" cy="104.5" r="4.2" fill="#2f6fed" fill-opacity="0.75"/>
<circle cx="398.0" cy="208.7" r="4.2" fill="#2f6fed" fill-opacity="0.75"/>
<circle cx="313.4" cy="147.9" r="4.2" fill="#2f6fed" fill-opacity="0.75"/>
<circle cx="498.6" cy="102.0" r="4.2" fill="#2f6fed" fill-opacity="0.75"/>
<circle cx="435.2" cy="173.9" r="4.2" fill="#2f6fed" fill-opacity="0.75"/>
<circle cx="482.4" cy="173.3" r="4.2" fill="#2f6fed" fill-opacity="0.75"/>
<circle cx="632.1" cy="119.5" r="4.2" fill="#2f6fed" fill-opacity="0.75"/>
<circle cx="577.3" cy="253.8" r="4.2" fill="#2f6fed" fill-opacity="0.75"/>
<circle cx="424.5" cy="269.1" r="4.2" fill="#2f6fed" fill-opacity="0.75"/>
<circle cx="440.4" cy="213.7" r="4.2" fill="#2f6fed" fill-opacity="0.75"/>
<circle cx="429.6" cy="199.6" r="4.2" fill="#2f6fed" fill-opacity="0.75"/>
<circle cx="498.1" cy="65.0" r="4.2" fill="#2f6fed" fill-opacity="0.75"/>
<circle cx="329.1" cy="263.1" r="4.2" fill="#2f6fed" fill-opacity="0.75"/>
<circle cx="599.1" cy="271.6" r="4.2" fill="#2f6fed" fill-opacity="0.75"/>
<circle cx="388.2" cy="393.5" r="4.2" fill="#2f6fed" fill-opacity="0.75"/>
<circle cx="436.6" cy="172.5" r="4.2" fill="#2f6fed" fill-opacity="0.75"/>
<circle cx="449.1" cy="183.3" r="4.2" fill="#2f6fed" fill-opacity="0.75"/>
<circle cx="381.6" cy="262.0" r="4.2" fill="#2f6fed" fill-opacity="0.75"/>
<circle cx="435.0" cy="347.5" r="4.2" fill="#2f6fed" fill-opacity="0.75"/>
<circle cx="535.6" cy="327.8" r="4.2" fill="#2f6fed" fill-opacity="0.75"/>
<circle cx="307.7" cy="120.8" r="4.2" fill="#2f6fed" fill-opacity="0.75"/>
<circle cx="644.2" cy="163.0" r="4.2" fill="#2f6fed" fill-opacity="0.75"/>
<circle cx="413.3" cy="118.0" r="4.2" fill="#2f6fed" fill-opacity="0.75"/>
<circle cx="498.7" cy="154.4" r="4.2" fill="#2f6fed" fill-opacity="0.75"/>
<circle cx="518.8" cy="282.5" r="4.2" fill="#2f6fed" fill-opacity="0.75"/>
<circle cx="513.8" cy="160.8" r="4.2" fill="#2f6fed" fill-opacity="0.75"/>
<circle cx="512.6" cy="280.9" r="4.2" fill="#2f6fed" fill-opacity="0.75"/>
<circle cx="562.9" cy="345.5" r="4.2" fill="#2f6fed" fill-opacity="0.75"/>
<circle cx="544.4" cy="274.2" r="4.2" fill="#2f6fed" fill-opacity="0.75"/>
<circle cx="466.4" cy="267.1" r="4.2" fill="#2f6fed" fill-opacity="0.75"/>
<circle cx="356.4" cy="96.8" r="4.2" fill="#2f6fed" fill-opacity="0.75"/>
<circle cx="559.5" cy="247.4" r="4.2" fill="#2f6fed" fill-opacity="0.75"/>
<circle cx="382.4" cy="155.3" r="4.2" fill="#2f6fed" fill-opacity="0.75"/>
<circle cx="342.0" cy="211.9" r="4.2" fill="#2f6fed" fill-opacity="0.75"/>
<circle cx="500.2" cy="183.6" r="4.2" fill="#2f6fed" fill-opacity="0.75"/>
<circle cx="455.9" cy="289.0" r="4.2" fill="#2f6fed" fill-opacity="0.75"/>
<circle cx="574.3" cy="168.4" r="4.2" fill="#2f6fed" fill-opacity="0.75"/>
<circle cx="592.6" cy="139.0" r="4.2" fill="#2f6fed" fill-opacity="0.75"/>
<circle cx="339.3" cy="142.6" r="4.2" fill="#2f6fed" fill-opacity="0.75"/>
<circle cx="648.8" cy="97.7" r="4.2" fill="#2f6fed" fill-opacity="0.75"/>
<circle cx="498.3" cy="97.8" r="4.2" fill="#2f6fed" fill-opacity="0.75"/>
<circle cx="412.1" cy="265.0" r="4.2" fill="#2f6fed" fill-opacity="0.75"/>
<circle cx="508.9" cy="306.4" r="4.2" fill="#2f6fed" fill-opacity="0.75"/>
<circle cx="523.1" cy="292.4" r="4.2" fill="#2f6fed" fill-opacity="0.75"/>
<circle cx="401.1" cy="397.1" r="4.2" fill="#2f6fed" fill-opacity="0.75"/>
<circle cx="332.3" cy="280.2" r="4.2" fill="#2f6fed" fill-opacity="0.75"/>
<circle cx="448.1" cy="197.4" r="4.2" fill="#2f6fed" fill-opacity="0.75"/>
<circle cx="330.7" cy="247.2" r="4.2" fill="#2f6fed" fill-opacity="0.75"/>
<circle cx="395.4" cy="180.1" r="4.2" fill="#2f6fed" fill-opacity="0.75"/>
<circle cx="511.4" cy="194.2" r="4.2" fill="#2f6fed" fill-opacity="0.75"/>
<circle cx="469.8" cy="92.7" r="4.2" fill="#2f6fed" fill-opacity="0.75"/>
<circle cx="594.8" cy="157.4" r="4.2" fill="#2f6fed" fill-opacity="0.75"/>
<circle cx="439.3" cy="170.5" r="4.2" fill="#2f6fed" fill-opacity="0.75"/>
<circle cx="583.4" cy="184.3" r="4.2" fill="#2f6fed" fill-opacity="0.75"/>
<circle cx="595.6" cy="154.9" r="4.2" fill="#2f6fed" fill-opacity="0.75"/>
<circle cx="317.7" cy="202.1" r="4.2" fill="#2f6fed" fill-opacity="0.75"/>
<circle cx="546.4" cy="132.7" r="4.2" fill="#2f6fed" fill-opacity="0.75"/>
<circle cx="536.1" cy="245.1" r="4.2" fill="#2f6fed" fill-opacity="0.75"/>
<circle cx="445.2" cy="72.7" r="4.2" fill="#2f6fed" fill-opacity="0.75"/>
<circle cx="476.4" cy="291.9" r="4.2" fill="#2f6fed" fill-opacity="0.75"/>
<circle cx="624.6" cy="203.0" r="4.2" fill="#2f6fed" fill-opacity="0.75"/>
<circle cx="428.8" cy="183.1" r="4.2" fill="#2f6fed" fill-opacity="0.75"/>
<circle cx="428.5" cy="324.8" r="4.2" fill="#2f6fed" fill-opacity="0.75"/>
<circle cx="618.3" cy="414.2" r="4.2" fill="#2f6fed" fill-opacity="0.75"/>
<circle cx="429.2" cy="116.1" r="4.2" fill="#2f6fed" fill-opacity="0.75"/>
<circle cx="493.8" cy="196.5" r="4.2" fill="#2f6fed" fill-opacity="0.75"/>
<circle cx="629.7" cy="145.6" r="4.2" fill="#2f6fed" fill-opacity="0.75"/>
<circle cx="327.8" cy="145.3" r="4.2" fill="#2f6fed" fill-opacity="0.75"/>
<circle cx="385.1" cy="270.8" r="4.2" fill="#2f6fed" fill-opacity="0.75"/>
<circle cx="673.3" cy="239.5" r="4.2" fill="#2f6fed" fill-opacity="0.75"/>
<circle cx="465.6" cy="378.4" r="4.2" fill="#2f6fed" fill-opacity="0.75"/>
<circle cx="525.5" cy="167.1" r="4.2" fill="#2f6fed" fill-opacity="0.75"/>
<circle cx="345.7" cy="224.3" r="4.2" fill="#2f6fed" fill-opacity="0.75"/>
<circle cx="432.3" cy="127.6" r="4.2" fill="#2f6fed" fill-opacity="0.75"/>
<circle cx="523.4" cy="199.6" r="4.2" fill="#2f6fed" fill-opacity="0.75"/>
<circle cx="70.0" cy="262.6" r="4.2" fill="#2f6fed" fill-opacity="0.75"/>
<circle cx="374.5" cy="273.8" r="4.2" fill="#2f6fed" fill-opacity="0.75"/>
<circle cx="385.1" cy="197.2" r="4.2" fill="#2f6fed" fill-opacity="0.75"/>
<circle cx="436.2" cy="50.0" r="4.2" fill="#2f6fed" fill-opacity="0.75"/>
<circle cx="482.7" cy="202.8" r="4.2" fill="#2f6fed" fill-opacity="0.75"/>
<circle cx="513.1" cy="294.5" r="4.2" fill="#2f6fed" fill-opacity="0.75"/>
<circle cx="325.4" cy="164.7" r="4.2" fill="#2f6fed" fill-opacity="0.75"/>
<circle cx="650.1" cy="220.2" r="4.2" fill="#2f6fed" fill-opacity="0.75"/>
<circle cx="485.1" cy="349.5" r="4.2" fill="#2f6fed" fill-opacity="0.75"/>
<circle cx="420.0" cy="111.7" r="4.2" fill="#2f6fed" fill-opacity="0.75"/>
<circle cx="594.6" cy="124.0" r="4.2" fill="#2f6fed" fill-opacity="0.75"/>
<circle cx="544.9" cy="214.3" r="4.2" fill="#2f6fed" fill-opacity="0.75"/>
<circle cx="144.7" cy="256.8" r="4.2" fill="#2f6fed" fill-opacity="0.75"/>
<circle cx="445.9" cy="173.7" r="4.2" fill="#2f6fed" fill-opacity="0.75"/>
<circle cx="445.8" cy="195.5" r="4.2" fill="#2f6fed" fill-opacity="0.75"/>
<circle cx="414.7" cy="469.1" r="4.2" fill="#2f6fed" fill-opacity="0.75"/>
<circle cx="480.9" cy="291.6" r="4.2" fill="#ff7a00" fill-opacity="0.75"/>
<circle cx="343.6" cy="409.9" r="4.2" fill="#ff7a00" fill-opacity="0.75"/>
<circle cx="331.1" cy="195.9" r="4.2" fill="#ff7a00" fill-opacity="0.75"/>
<circle cx="394.0" cy="242.6" r="4.2" fill="#ff7a00" fill-opacity="0.75"/>
<circle cx="346.4" cy="315.7" r="4.2" fill="#ff7a00" fill-opacity="0.75"/>
<circle cx="476.4" cy="285.9" r="4.2" fill="#ff7a00" fill-opacity="0.75"/>
<circle cx="210.2" cy="292.2" r="4.2" fill="#ff7a00" fill-opacity="0.75"/>
<circle cx="417.6" cy="231.7" r="4.2" fill="#ff7a00" fill-opacity="0.75"/>
<circle cx="512.6" cy="306.4" r="4.2" fill="#ff7a00" fill-opacity="0.75"/>
<circle cx="404.2" cy="280.7" r="4.2" fill="#ff7a00" fill-opacity="0.75"/>
<circle cx="454.3" cy="247.1" r="4.2" fill="#ff7a00" fill-opacity="0.75"/>
<circle cx="301.2" cy="359.5" r="4.2" fill="#ff7a00" fill-opacity="0.75"/>
<circle cx="270.1" cy="348.1" r="4.2" fill="#ff7a00" fill-opacity="0.75"/>
<circle cx="442.5" cy="357.1" r="4.2" fill="#ff7a00" fill-opacity="0.75"/>
<circle cx="243.5" cy="369.4" r="4.2" fill="#ff7a00" fill-opacity="0.75"/>
<circle cx="497.9" cy="334.1" r="4.2" fill="#ff7a00" fill-opacity="0.75"/>
<circle cx="165.6" cy="226.9" r="4.2" fill="#ff7a00" fill-opacity="0.75"/>
<circle cx="416.5" cy="262.0" r="4.2" fill="#ff7a00" fill-opacity="0.75"/>
<circle cx="346.7" cy="372.3" r="4.2" fill="#ff7a00" fill-opacity="0.75"/>
<circle cx="421.6" cy="265.4" r="4.2" fill="#ff7a00" fill-opacity="0.75"/>
<circle cx="355.2" cy="322.3" r="4.2" fill="#ff7a00" fill-opacity="0.75"/>
<circle cx="252.5" cy="193.4" r="4.2" fill="#ff7a00" fill-opacity="0.75"/>
<circle cx="409.5" cy="318.8" r="4.2" fill="#ff7a00" fill-opacity="0.75"/>
<circle cx="539.5" cy="288.0" r="4.2" fill="#ff7a00" fill-opacity="0.75"/>
<circle cx="439.3" cy="264.1" r="4.2" fill="#ff7a00" fill-opacity="0.75"/>
<circle cx="516.6" cy="371.7" r="4.2" fill="#ff7a00" fill-opacity="0.75"/>
<circle cx="437.1" cy="242.8" r="4.2" fill="#ff7a00" fill-opacity="0.75"/>
<circle cx="421.8" cy="296.0" r="4.2" fill="#ff7a00" fill-opacity="0.75"/>
<circle cx="349.6" cy="214.6" r="4.2" fill="#ff7a00" fill-opacity="0.75"/>
<circle cx="478.2" cy="296.7" r="4.2" fill="#ff7a00" fill-opacity="0.75"/>
<circle cx="229.1" cy="306.7" r="4.2" fill="#ff7a00" fill-opacity="0.75"/>
<circle cx="401.1" cy="331.9" r="4.2" fill="#ff7a00" fill-opacity="0.75"/>
<circle cx="282.9" cy="255.0" r="4.2" fill="#ff7a00" fill-opacity="0.75"/>
<circle cx="366.0" cy="268.4" r="4.2" fill="#ff7a00" fill-opacity="0.75"/>
<circle cx="466.6" cy="322.4" r="4.2" fill="#ff7a00" fill-opacity="0.75"/>
<circle cx="315.2" cy="319.2" r="4.2" fill="#ff7a00" fill-opacity="0.75"/>
<circle cx="428.0" cy="288.4" r="4.2" fill="#ff7a00" fill-opacity="0.75"/>
<circle cx="337.6" cy="237.0" r="4.2" fill="#ff7a00" fill-opacity="0.75"/>
<circle cx="483.5" cy="345.7" r="4.2" fill="#ff7a00" fill-opacity="0.75"/>
<circle cx="602.6" cy="408.5" r="4.2" fill="#ff7a00" fill-opacity="0.75"/>
<circle cx="499.5" cy="272.5" r="4.2" fill="#ff7a00" fill-opacity="0.75"/>
<circle cx="315.0" cy="401.8" r="4.2" fill="#ff7a00" fill-opacity="0.75"/>
<circle cx="433.1" cy="255.8" r="4.2" fill="#ff7a00" fill-opacity="0.75"/>
<circle cx="366.8" cy="276.6" r="4.2" fill="#ff7a00" fill-opacity="0.75"/>
<circle cx="345.4" cy="291.6" r="4.2" fill="#ff7a00" fill-opacity="0.75"/>
<circle cx="424.4" cy="247.3" r="4.2" fill="#ff7a00" fill-opacity="0.75"/>
<circle cx="421.9" cy="293.8" r="4.2" fill="#ff7a00" fill-opacity="0.75"/>
<circle cx="409.8" cy="298.2" r="4.2" fill="#ff7a00" fill-opacity="0.75"/>
<circle cx="420.8" cy="347.9" r="4.2" fill="#ff7a00" fill-opacity="0.75"/>
<circle cx="587.0" cy="236.7" r="4.2" fill="#ff7a00" fill-opacity="0.75"/>
<circle cx="464.8" cy="278.4" r="4.2" fill="#ff7a00" fill-opacity="0.75"/>
<circle cx="400.8" cy="279.6" r="4.2" fill="#ff7a00" fill-opacity="0.75"/>
<circle cx="545.1" cy="287.2" r="4.2" fill="#ff7a00" fill-opacity="0.75"/>
<circle cx="462.5" cy="269.3" r="4.2" fill="#ff7a00" fill-opacity="0.75"/>
<circle cx="413.5" cy="235.3" r="4.2" fill="#ff7a00" fill-opacity="0.75"/>
<circle cx="437.9" cy="298.7" r="4.2" fill="#ff7a00" fill-opacity="0.75"/>
<circle cx="449.0" cy="272.3" r="4.2" fill="#ff7a00" fill-opacity="0.75"/>
<circle cx="281.2" cy="332.8" r="4.2" fill="#ff7a00" fill-opacity="0.75"/>
<circle cx="467.5" cy="313.2" r="4.2" fill="#ff7a00" fill-opacity="0.75"/>
<circle cx="318.4" cy="241.3" r="4.2" fill="#ff7a00" fill-opacity="0.75"/>
<circle cx="445.4" cy="214.3" r="4.2" fill="#ff7a00" fill-opacity="0.75"/>
<circle cx="431.4" cy="223.6" r="4.2" fill="#ff7a00" fill-opacity="0.75"/>
<circle cx="403.5" cy="372.9" r="4.2" fill="#ff7a00" fill-opacity="0.75"/>
<circle cx="282.2" cy="172.8" r="4.2" fill="#ff7a00" fill-opacity="0.75"/>
<circle cx="277.4" cy="345.5" r="4.2" fill="#ff7a00" fill-opacity="0.75"/>
<circle cx="417.5" cy="271.3" r="4.2" fill="#ff7a00" fill-opacity="0.75"/>
<circle cx="445.2" cy="278.1" r="4.2" fill="#ff7a00" fill-opacity="0.75"/>
<circle cx="403.1" cy="293.0" r="4.2" fill="#ff7a00" fill-opacity="0.75"/>
<circle cx="300.1" cy="304.6" r="4.2" fill="#ff7a00" fill-opacity="0.75"/>
<circle cx="335.0" cy="141.2" r="4.2" fill="#ff7a00" fill-opacity="0.75"/>
<circle cx="341.5" cy="243.5" r="4.2" fill="#ff7a00" fill-opacity="0.75"/>
<circle cx="472.6" cy="303.3" r="4.2" fill="#ff7a00" fill-opacity="0.75"/>
<circle cx="420.7" cy="266.3" r="4.2" fill="#ff7a00" fill-opacity="0.75"/>
<circle cx="413.7" cy="236.7" r="4.2" fill="#ff7a00" fill-opacity="0.75"/>
<circle cx="439.7" cy="317.3" r="4.2" fill="#ff7a00" fill-opacity="0.75"/>
<circle cx="297.5" cy="291.7" r="4.2" fill="#ff7a00" fill-opacity="0.75"/>
<circle cx="366.8" cy="365.2" r="4.2" fill="#ff7a00" fill-opacity="0.75"/>
<circle cx="357.0" cy="327.3" r="4.2" fill="#ff7a00" fill-opacity="0.75"/>
<circle cx="374.1" cy="332.4" r="4.2" fill="#ff7a00" fill-opacity="0.75"/>
<circle cx="466.5" cy="320.0" r="4.2" fill="#ff7a00" fill-opacity="0.75"/>
<circle cx="488.2" cy="295.3" r="4.2" fill="#ff7a00" fill-opacity="0.75"/>
<circle cx="382.8" cy="446.7" r="4.2" fill="#ff7a00" fill-opacity="0.75"/>
<circle cx="383.3" cy="248.3" r="4.2" fill="#ff7a00" fill-opacity="0.75"/>
<circle cx="385.3" cy="325.5" r="4.2" fill="#ff7a00" fill-opacity="0.75"/>
<circle cx="277.8" cy="242.9" r="4.2" fill="#ff7a00" fill-opacity="0.75"/>
<circle cx="507.6" cy="336.4" r="4.2" fill="#ff7a00" fill-opacity="0.75"/>
<circle cx="372.1" cy="241.0" r="4.2" fill="#ff7a00" fill-opacity="0.75"/>
<circle cx="501.7" cy="318.0" r="4.2" fill="#ff7a00" fill-opacity="0.75"/>
<circle cx="117.2" cy="328.8" r="4.2" fill="#ff7a00" fill-opacity="0.75"/>
<circle cx="459.5" cy="283.4" r="4.2" fill="#ff7a00" fill-opacity="0.75"/>
<circle cx="418.7" cy="321.7" r="4.2" fill="#ff7a00" fill-opacity="0.75"/>
<circle cx="379.2" cy="283.9" r="4.2" fill="#ff7a00" fill-opacity="0.75"/>
<circle cx="332.0" cy="216.6" r="4.2" fill="#ff7a00" fill-opacity="0.75"/>
<circle cx="395.3" cy="256.1" r="4.2" fill="#ff7a00" fill-opacity="0.75"/>
<circle cx="382.2" cy="379.3" r="4.2" fill="#ff7a00" fill-opacity="0.75"/>
<circle cx="309.6" cy="293.9" r="4.2" fill="#ff7a00" fill-opacity="0.75"/>
<circle cx="370.7" cy="305.0" r="4.2" fill="#ff7a00" fill-opacity="0.75"/>
<circle cx="426.0" cy="390.6" r="4.2" fill="#ff7a00" fill-opacity="0.75"/>
<circle cx="411.8" cy="218.2" r="4.2" fill="#ff7a00" fill-opacity="0.75"/>
<circle cx="263.0" cy="216.7" r="4.2" fill="#ff7a00" fill-opacity="0.75"/>
<circle cx="568.6" cy="230.8" r="4.2" fill="#1fa971" fill-opacity="0.75"/>
<circle cx="587.9" cy="221.7" r="4.2" fill="#1fa971" fill-opacity="0.75"/>
<circle cx="605.7" cy="290.4" r="4.2" fill="#1fa971" fill-opacity="0.75"/>
<circle cx="392.7" cy="208.9" r="4.2" fill="#1fa971" fill-opacity="0.75"/>
<circle cx="521.3" cy="285.5" r="4.2" fill="#1fa971" fill-opacity="0.75"/>
<circle cx="404.4" cy="371.6" r="4.2" fill="#1fa971" fill-opacity="0.75"/>
<circle cx="336.4" cy="289.8" r="4.2" fill="#1fa971" fill-opacity="0.75"/>
<circle cx="481.6" cy="321.7" r="4.2" fill="#1fa971" fill-opacity="0.75"/>
<circle cx="589.0" cy="246.9" r="4.2" fill="#1fa971" fill-opacity="0.75"/>
<circle cx="499.3" cy="282.4" r="4.2" fill="#1fa971" fill-opacity="0.75"/>
<circle cx="401.3" cy="200.1" r="4.2" fill="#1fa971" fill-opacity="0.75"/>
<circle cx="469.8" cy="181.8" r="4.2" fill="#1fa971" fill-opacity="0.75"/>
<circle cx="479.1" cy="225.4" r="4.2" fill="#1fa971" fill-opacity="0.75"/>
<circle cx="482.9" cy="232.0" r="4.2" fill="#1fa971" fill-opacity="0.75"/>
<circle cx="451.3" cy="178.6" r="4.2" fill="#1fa971" fill-opacity="0.75"/>
<circle cx="456.2" cy="329.6" r="4.2" fill="#1fa971" fill-opacity="0.75"/>
<circle cx="542.8" cy="307.8" r="4.2" fill="#1fa971" fill-opacity="0.75"/>
<circle cx="575.7" cy="312.5" r="4.2" fill="#1fa971" fill-opacity="0.75"/>
<circle cx="357.6" cy="235.4" r="4.2" fill="#1fa971" fill-opacity="0.75"/>
<circle cx="402.1" cy="120.7" r="4.2" fill="#1fa971" fill-opacity="0.75"/>
<circle cx="487.1" cy="160.4" r="4.2" fill="#1fa971" fill-opacity="0.75"/>
<circle cx="720.0" cy="250.9" r="4.2" fill="#1fa971" fill-opacity="0.75"/>
<circle cx="467.9" cy="89.1" r="4.2" fill="#1fa971" fill-opacity="0.75"/>
<circle cx="465.6" cy="178.5" r="4.2" fill="#1fa971" fill-opacity="0.75"/>
<circle cx="488.5" cy="163.6" r="4.2" fill="#1fa971" fill-opacity="0.75"/>
<circle cx="596.6" cy="293.7" r="4.2" fill="#1fa971" fill-opacity="0.75"/>
<circle cx="398.4" cy="201.8" r="4.2" fill="#1fa971" fill-opacity="0.75"/>
<circle cx="596.5" cy="323.4" r="4.2" fill="#1fa971" fill-opacity="0.75"/>
<circle cx="505.0" cy="326.0" r="4.2" fill="#1fa971" fill-opacity="0.75"/>
<circle cx="562.2" cy="152.7" r="4.2" fill="#1fa971" fill-opacity="0.75"/>
<circle cx="434.6" cy="198.3" r="4.2" fill="#1fa971" fill-opacity="0.75"/>
<circle cx="643.6" cy="261.2" r="4.2" fill="#1fa971" fill-opacity="0.75"/>
<circle cx="550.6" cy="255.9" r="4.2" fill="#1fa971" fill-opacity="0.75"/>
<circle cx="467.6" cy="187.6" r="4.2" fill="#1fa971" fill-opacity="0.75"/>
<circle cx="549.6" cy="238.5" r="4.2" fill="#1fa971" fill-opacity="0.75"/>
<circle cx="444.1" cy="346.7" r="4.2" fill="#1fa971" fill-opacity="0.75"/>
<circle cx="447.9" cy="185.0" r="4.2" fill="#1fa971" fill-opacity="0.75"/>
<circle cx="485.2" cy="336.5" r="4.2" fill="#1fa971" fill-opacity="0.75"/>
<circle cx="262.7" cy="322.0" r="4.2" fill="#1fa971" fill-opacity="0.75"/>
<circle cx="456.6" cy="275.1" r="4.2" fill="#1fa971" fill-opacity="0.75"/>
<circle cx="474.6" cy="185.9" r="4.2" fill="#1fa971" fill-opacity="0.75"/>
<circle cx="596.6" cy="242.6" r="4.2" fill="#1fa971" fill-opacity="0.75"/>
<circle cx="569.0" cy="232.3" r="4.2" fill="#1fa971" fill-opacity="0.75"/>
<circle cx="513.3" cy="287.7" r="4.2" fill="#1fa971" fill-opacity="0.75"/>
<circle cx="573.3" cy="341.8" r="4.2" fill="#1fa971" fill-opacity="0.75"/>
<circle cx="617.8" cy="227.7" r="4.2" fill="#1fa971" fill-opacity="0.75"/>
<circle cx="547.1" cy="321.3" r="4.2" fill="#1fa971" fill-opacity="0.75"/>
<circle cx="568.5" cy="244.7" r="4.2" fill="#1fa971" fill-opacity="0.75"/>
<circle cx="583.8" cy="322.4" r="4.2" fill="#1fa971" fill-opacity="0.75"/>
<circle cx="431.5" cy="213.9" r="4.2" fill="#1fa971" fill-opacity="0.75"/>
<circle cx="389.9" cy="313.2" r="4.2" fill="#1fa971" fill-opacity="0.75"/>
<circle cx="497.0" cy="300.4" r="4.2" fill="#1fa971" fill-opacity="0.75"/>
<circle cx="559.9" cy="240.0" r="4.2" fill="#1fa971" fill-opacity="0.75"/>
<circle cx="439.2" cy="256.6" r="4.2" fill="#1fa971" fill-opacity="0.75"/>
<circle cx="513.4" cy="244.9" r="4.2" fill="#1fa971" fill-opacity="0.75"/>
<circle cx="469.9" cy="244.5" r="4.2" fill="#1fa971" fill-opacity="0.75"/>
<circle cx="507.5" cy="341.4" r="4.2" fill="#1fa971" fill-opacity="0.75"/>
<circle cx="633.9" cy="255.0" r="4.2" fill="#1fa971" fill-opacity="0.75"/>
<circle cx="473.2" cy="279.2" r="4.2" fill="#1fa971" fill-opacity="0.75"/>
<circle cx="329.8" cy="312.0" r="4.2" fill="#1fa971" fill-opacity="0.75"/>
<circle cx="496.8" cy="168.5" r="4.2" fill="#1fa971" fill-opacity="0.75"/>
<circle cx="394.9" cy="226.2" r="4.2" fill="#1fa971" fill-opacity="0.75"/>
<circle cx="321.7" cy="298.4" r="4.2" fill="#1fa971" fill-opacity="0.75"/>
<circle cx="625.5" cy="304.9" r="4.2" fill="#1fa971" fill-opacity="0.75"/>
<circle cx="485.6" cy="210.7" r="4.2" fill="#1fa971" fill-opacity="0.75"/>
<circle cx="481.0" cy="221.3" r="4.2" fill="#1fa971" fill-opacity="0.75"/>
<circle cx="499.8" cy="238.2" r="4.2" fill="#1fa971" fill-opacity="0.75"/>
<circle cx="474.0" cy="315.7" r="4.2" fill="#1fa971" fill-opacity="0.75"/>
<circle cx="488.2" cy="289.9" r="4.2" fill="#1fa971" fill-opacity="0.75"/>
<circle cx="495.1" cy="317.8" r="4.2" fill="#1fa971" fill-opacity="0.75"/>
<circle cx="561.7" cy="366.5" r="4.2" fill="#1fa971" fill-opacity="0.75"/>
<circle cx="431.3" cy="331.5" r="4.2" fill="#1fa971" fill-opacity="0.75"/>
<circle cx="515.8" cy="399.2" r="4.2" fill="#1fa971" fill-opacity="0.75"/>
<circle cx="524.8" cy="228.5" r="4.2" fill="#1fa971" fill-opacity="0.75"/>
<circle cx="547.0" cy="414.0" r="4.2" fill="#1fa971" fill-opacity="0.75"/>
<circle cx="475.7" cy="333.8" r="4.2" fill="#1fa971" fill-opacity="0.75"/>
<circle cx="421.0" cy="298.2" r="4.2" fill="#1fa971" fill-opacity="0.75"/>
<circle cx="439.9" cy="384.0" r="4.2" fill="#1fa971" fill-opacity="0.75"/>
<circle cx="511.1" cy="309.9" r="4.2" fill="#1fa971" fill-opacity="0.75"/>
<circle cx="496.1" cy="238.6" r="4.2" fill="#1fa971" fill-opacity="0.75"/>
<circle cx="481.7" cy="239.2" r="4.2" fill="#1fa971" fill-opacity="0.75"/>
<circle cx="493.1" cy="355.2" r="4.2" fill="#1fa971" fill-opacity="0.75"/>
<circle cx="556.3" cy="273.0" r="4.2" fill="#1fa971" fill-opacity="0.75"/>
<circle cx="393.9" cy="199.7" r="4.2" fill="#1fa971" fill-opacity="0.75"/>
<circle cx="498.2" cy="248.2" r="4.2" fill="#1fa971" fill-opacity="0.75"/>
<circle cx="419.6" cy="240.4" r="4.2" fill="#1fa971" fill-opacity="0.75"/>
<circle cx="587.5" cy="290.7" r="4.2" fill="#1fa971" fill-opacity="0.75"/>
<circle cx="568.6" cy="470.0" r="4.2" fill="#1fa971" fill-opacity="0.75"/>
<circle cx="385.1" cy="377.4" r="4.2" fill="#1fa971" fill-opacity="0.75"/>
<circle cx="493.2" cy="303.6" r="4.2" fill="#1fa971" fill-opacity="0.75"/>
<circle cx="562.6" cy="250.6" r="4.2" fill="#1fa971" fill-opacity="0.75"/>
<circle cx="380.2" cy="230.0" r="4.2" fill="#1fa971" fill-opacity="0.75"/>
<circle cx="444.2" cy="211.6" r="4.2" fill="#1fa971" fill-opacity="0.75"/>
<circle cx="424.1" cy="270.9" r="4.2" fill="#1fa971" fill-opacity="0.75"/>
<circle cx="631.5" cy="256.7" r="4.2" fill="#1fa971" fill-opacity="0.75"/>
<circle cx="470.4" cy="326.3" r="4.2" fill="#1fa971" fill-opacity="0.75"/>
<circle cx="595.9" cy="186.7" r="4.2" fill="#1fa971" fill-opacity="0.75"/>
<circle cx="598.4" cy="270.3" r="4.2" fill="#1fa971" fill-opacity="0.75"/>
<circle cx="280.1" cy="316.7" r="4.2" fill="#1fa971" fill-opacity="0.75"/>
<circle cx="435.7" cy="223.7" r="4.2" fill="#1fa971" fill-opacity="0.75"/>
<circle cx="487.4" cy="289.5" r="4.2" fill="#a046f2" fill-opacity="0.75"/>
<circle cx="490.6" cy="266.8" r="4.2" fill="#a046f2" fill-opacity="0.75"/>
<circle cx="564.4" cy="368.8" r="4.2" fill="#a046f2" fill-opacity="0.75"/>
<circle cx="546.0" cy="441.2" r="4.2" fill="#a046f2" fill-opacity="0.75"/>
<circle cx="352.5" cy="343.8" r="4.2" fill="#a046f2" fill-opacity="0.75"/>
<circle cx="355.1" cy="330.9" r="4.2" fill="#a046f2" fill-opacity="0.75"/>
<circle cx="512.5" cy="374.5" r="4.2" fill="#a046f2" fill-opacity="0.75"/>
<circle cx="509.1" cy="379.0" r="4.2" fill="#a046f2" fill-opacity="0.75"/>
<circle cx="346.2" cy="286.4" r="4.2" fill="#a046f2" fill-opacity="0.75"/>
<circle cx="356.9" cy="287.6" r="4.2" fill="#a046f2" fill-opacity="0.75"/>
<circle cx="371.1" cy="297.0" r="4.2" fill="#a046f2" fill-opacity="0.75"/>
<circle cx="362.3" cy="313.8" r="4.2" fill="#a046f2" fill-opacity="0.75"/>
<circle cx="569.4" cy="342.4" r="4.2" fill="#a046f2" fill-opacity="0.75"/>
<circle cx="571.9" cy="320.9" r="4.2" fill="#a046f2" fill-opacity="0.75"/>
<circle cx="446.8" cy="303.5" r="4.2" fill="#a046f2" fill-opacity="0.75"/>
<circle cx="446.1" cy="313.7" r="4.2" fill="#a046f2" fill-opacity="0.75"/>
<circle cx="507.0" cy="339.3" r="4.2" fill="#a046f2" fill-opacity="0.75"/>
<circle cx="505.4" cy="351.8" r="4.2" fill="#a046f2" fill-opacity="0.75"/>
<circle cx="431.7" cy="266.3" r="4.2" fill="#a046f2" fill-opacity="0.75"/>
<circle cx="439.3" cy="255.2" r="4.2" fill="#a046f2" fill-opacity="0.75"/>
<circle cx="389.2" cy="294.9" r="4.2" fill="#a046f2" fill-opacity="0.75"/>
<circle cx="383.8" cy="317.3" r="4.2" fill="#a046f2" fill-opacity="0.75"/>
<circle cx="212.2" cy="313.2" r="4.2" fill="#a046f2" fill-opacity="0.75"/>
<circle cx="217.1" cy="310.7" r="4.2" fill="#a046f2" fill-opacity="0.75"/>
<circle cx="468.8" cy="314.7" r="4.2" fill="#a046f2" fill-opacity="0.75"/>
<circle cx="476.1" cy="272.2" r="4.2" fill="#a046f2" fill-opacity="0.75"/>
<circle cx="661.6" cy="306.8" r="4.2" fill="#a046f2" fill-opacity="0.75"/>
<circle cx="668.2" cy="285.5" r="4.2" fill="#a046f2" fill-opacity="0.75"/>
<circle cx="272.6" cy="303.8" r="4.2" fill="#a046f2" fill-opacity="0.75"/>
<circle cx="268.1" cy="318.6" r="4.2" fill="#a046f2" fill-opacity="0.75"/>
<circle cx="328.2" cy="166.9" r="4.2" fill="#a046f2" fill-opacity="0.75"/>
<circle cx="300.2" cy="221.7" r="4.2" fill="#a046f2" fill-opacity="0.75"/>
<circle cx="381.8" cy="284.8" r="4.2" fill="#a046f2" fill-opacity="0.75"/>
<circle cx="395.9" cy="266.9" r="4.2" fill="#a046f2" fill-opacity="0.75"/>
<circle cx="621.7" cy="170.1" r="4.2" fill="#a046f2" fill-opacity="0.75"/>
<circle cx="611.3" cy="206.8" r="4.2" fill="#a046f2" fill-opacity="0.75"/>
<circle cx="428.8" cy="301.9" r="4.2" fill="#a046f2" fill-opacity="0.75"/>
<circle cx="432.0" cy="301.4" r="4.2" fill="#a046f2" fill-opacity="0.75"/>
<circle cx="560.9" cy="233.5" r="4.2" fill="#a046f2" fill-opacity="0.75"/>
<circle cx="556.4" cy="231.7" r="4.2" fill="#a046f2" fill-opacity="0.75"/>
<circle cx="279.8" cy="185.9" r="4.2" fill="#a046f2" fill-opacity="0.75"/>
<circle cx="268.9" cy="220.8" r="4.2" fill="#a046f2" fill-opacity="0.75"/>
<circle cx="469.4" cy="218.6" r="4.2" fill="#a046f2" fill-opacity="0.75"/>
<circle cx="462.9" cy="268.4" r="4.2" fill="#a046f2" fill-opacity="0.75"/>
<circle cx="376.9" cy="338.8" r="4.2" fill="#a046f2" fill-opacity="0.75"/>
<circle cx="393.7" cy="300.6" r="4.2" fill="#a046f2" fill-opacity="0.75"/>
<circle cx="307.6" cy="256.8" r="4.2" fill="#a046f2" fill-opacity="0.75"/>
<circle cx="308.8" cy="253.0" r="4.2" fill="#a046f2" fill-opacity="0.75"/>
<circle cx="360.5" cy="302.4" r="4.2" fill="#a046f2" fill-opacity="0.75"/>
<circle cx="363.9" cy="303.0" r="4.2" fill="#a046f2" fill-opacity="0.75"/>
<circle cx="449.2" cy="236.0" r="4.2" fill="#a046f2" fill-opacity="0.75"/>
<circle cx="455.9" cy="225.3" r="4.2" fill="#a046f2" fill-opacity="0.75"/>
<circle cx="193.0" cy="208.1" r="4.2" fill="#a046f2" fill-opacity="0.75"/>
<circle cx="192.1" cy="215.9" r="4.2" fill="#a046f2" fill-opacity="0.75"/>
<circle cx="408.7" cy="206.4" r="4.2" fill="#a046f2" fill-opacity="0.75"/>
<circle cx="403.6" cy="235.6" r="4.2" fill="#a046f2" fill-opacity="0.75"/>
<circle cx="471.0" cy="278.0" r="4.2" fill="#a046f2" fill-opacity="0.75"/>
<circle cx="469.3" cy="276.6" r="4.2" fill="#a046f2" fill-opacity="0.75"/>
<circle cx="417.7" cy="365.2" r="4.2" fill="#a046f2" fill-opacity="0.75"/>
<circle cx="436.0" cy="298.4" r="4.2" fill="#a046f2" fill-opacity="0.75"/>
<circle cx="466.6" cy="254.7" r="4.2" fill="#a046f2" fill-opacity="0.75"/>
<circle cx="475.2" cy="260.1" r="4.2" fill="#a046f2" fill-opacity="0.75"/>
<circle cx="483.8" cy="230.3" r="4.2" fill="#a046f2" fill-opacity="0.75"/>
<circle cx="476.1" cy="223.4" r="4.2" fill="#a046f2" fill-opacity="0.75"/>
<circle cx="631.7" cy="385.9" r="4.2" fill="#a046f2" fill-opacity="0.75"/>
<circle cx="625.8" cy="399.4" r="4.2" fill="#a046f2" fill-opacity="0.75"/>
<circle cx="548.2" cy="311.5" r="4.2" fill="#a046f2" fill-opacity="0.75"/>
<circle cx="546.8" cy="299.2" r="4.2" fill="#a046f2" fill-opacity="0.75"/>
<circle cx="625.0" cy="313.8" r="4.2" fill="#a046f2" fill-opacity="0.75"/>
<circle cx="619.1" cy="353.6" r="4.2" fill="#a046f2" fill-opacity="0.75"/>
<circle cx="573.9" cy="316.0" r="4.2" fill="#a046f2" fill-opacity="0.75"/>
<circle cx="573.9" cy="306.3" r="4.2" fill="#a046f2" fill-opacity="0.75"/>
<circle cx="504.5" cy="292.0" r="4.2" fill="#a046f2" fill-opacity="0.75"/>
<circle cx="510.1" cy="270.7" r="4.2" fill="#a046f2" fill-opacity="0.75"/>
<circle cx="380.2" cy="396.2" r="4.2" fill="#a046f2" fill-opacity="0.75"/>
<circle cx="383.5" cy="381.8" r="4.2" fill="#a046f2" fill-opacity="0.75"/>
<circle cx="389.6" cy="231.4" r="4.2" fill="#a046f2" fill-opacity="0.75"/>
<circle cx="380.2" cy="263.8" r="4.2" fill="#a046f2" fill-opacity="0.75"/>
<circle cx="378.5" cy="271.1" r="4.2" fill="#a046f2" fill-opacity="0.75"/>
<circle cx="367.1" cy="264.1" r="4.2" fill="#a046f2" fill-opacity="0.75"/>
<circle cx="570.0" cy="265.0" r="4.2" fill="#a046f2" fill-opacity="0.75"/>
<circle cx="560.7" cy="306.7" r="4.2" fill="#a046f2" fill-opacity="0.75"/>
<circle cx="621.6" cy="288.9" r="4.2" fill="#a046f2" fill-opacity="0.75"/>
<circle cx="620.2" cy="291.4" r="4.2" fill="#a046f2" fill-opacity="0.75"/>
<circle cx="504.0" cy="294.6" r="4.2" fill="#a046f2" fill-opacity="0.75"/>
<circle cx="505.3" cy="324.3" r="4.2" fill="#a046f2" fill-opacity="0.75"/>
<circle cx="414.4" cy="191.9" r="4.2" fill="#a046f2" fill-opacity="0.75"/>
<circle cx="414.1" cy="192.5" r="4.2" fill="#a046f2" fill-opacity="0.75"/>
<circle cx="597.3" cy="363.4" r="4.2" fill="#a046f2" fill-opacity="0.75"/>
<circle cx="600.9" cy="341.2" r="4.2" fill="#a046f2" fill-opacity="0.75"/>
<circle cx="444.6" cy="238.4" r="4.2" fill="#a046f2" fill-opacity="0.75"/>
<circle cx="443.0" cy="256.0" r="4.2" fill="#a046f2" fill-opacity="0.75"/>
<circle cx="422.5" cy="252.0" r="4.2" fill="#a046f2" fill-opacity="0.75"/>
<circle cx="432.8" cy="227.2" r="4.2" fill="#a046f2" fill-opacity="0.75"/>
<circle cx="376.0" cy="223.0" r="4.2" fill="#a046f2" fill-opacity="0.75"/>
<circle cx="365.4" cy="246.6" r="4.2" fill="#a046f2" fill-opacity="0.75"/>
<circle cx="403.9" cy="209.6" r="4.2" fill="#a046f2" fill-opacity="0.75"/>
<circle cx="405.2" cy="216.7" r="4.2" fill="#a046f2" fill-opacity="0.75"/>
<circle cx="605.5" cy="330.8" r="4.2" fill="#a046f2" fill-opacity="0.75"/>
<circle cx="602.8" cy="361.9" r="4.2" fill="#a046f2" fill-opacity="0.75"/>
<circle cx="297.1" cy="345.0" r="4.2" fill="#d64545" fill-opacity="0.75"/>
<circle cx="301.0" cy="325.5" r="4.2" fill="#d64545" fill-opacity="0.75"/>
<circle cx="388.5" cy="436.0" r="4.2" fill="#d64545" fill-opacity="0.75"/>
<circle cx="389.5" cy="410.5" r="4.2" fill="#d64545" fill-opacity="0.75"/>
<circle cx="450.8" cy="211.8" r="4.2" fill="#d64545" fill-opacity="0.75"/>
<circle cx="440.8" cy="244.5" r="4.2" fill="#d64545" fill-opacity="0.75"/>
<circle cx="450.7" cy="257.5" r="4.2" fill="#d64545" fill-opacity="0.75"/>
<circle cx="435.8" cy="294.7" r="4.2" fill="#d64545" fill-opacity="0.75"/>
<circle cx="366.2" cy="351.6" r="4.2" fill="#d64545" fill-opacity="0.75"/>
<circle cx="383.9" cy="285.0" r="4.2" fill="#d64545" fill-opacity="0.75"/>
<circle cx="435.3" cy="332.2" r="4.2" fill="#d64545" fill-opacity="0.75"/>
<circle cx="442.4" cy="323.1" r="4.2" fill="#d64545" fill-opacity="0.75"/>
<circle cx="521.7" cy="334.9" r="4.2" fill="#d64545" fill-opacity="0.75"/>
<circle cx="526.7" cy="340.5" r="4.2" fill="#d64545" fill-opacity="0.75"/>
<circle cx="444.1" cy="368.0" r="4.2" fill="#d64545" fill-opacity="0.75"/>
<circle cx="435.0" cy="368.7" r="4.2" fill="#d64545" fill-opacity="0.75"/>
<circle cx="489.4" cy="248.9" r="4.2" fill="#d64545" fill-opacity="0.75"/>
<circle cx="488.4" cy="257.5" r="4.2" fill="#d64545" fill-opacity="0.75"/>
<circle cx="395.9" cy="338.3" r="4.2" fill="#d64545" fill-opacity="0.75"/>
<circle cx="403.4" cy="335.4" r="4.2" fill="#d64545" fill-opacity="0.75"/>
<circle cx="447.9" cy="359.9" r="4.2" fill="#d64545" fill-opacity="0.75"/>
<circle cx="453.8" cy="321.7" r="4.2" fill="#d64545" fill-opacity="0.75"/>
<circle cx="388.9" cy="221.9" r="4.2" fill="#d64545" fill-opacity="0.75"/>
<circle cx="381.0" cy="270.6" r="4.2" fill="#d64545" fill-opacity="0.75"/>
<circle cx="465.4" cy="294.1" r="4.2" fill="#d64545" fill-opacity="0.75"/>
<circle cx="474.8" cy="296.8" r="4.2" fill="#d64545" fill-opacity="0.75"/>
<circle cx="386.5" cy="250.7" r="4.2" fill="#d64545" fill-opacity="0.75"/>
<circle cx="378.2" cy="268.5" r="4.2" fill="#d64545" fill-opacity="0.75"/>
<circle cx="401.2" cy="251.7" r="4.2" fill="#d64545" fill-opacity="0.75"/>
<circle cx="411.9" cy="218.1" r="4.2" fill="#d64545" fill-opacity="0.75"/>
<circle cx="394.7" cy="354.6" r="4.2" fill="#d64545" fill-opacity="0.75"/>
<circle cx="401.6" cy="322.4" r="4.2" fill="#d64545" fill-opacity="0.75"/>
<circle cx="399.5" cy="247.6" r="4.2" fill="#d64545" fill-opacity="0.75"/>
<circle cx="403.7" cy="218.1" r="4.2" fill="#d64545" fill-opacity="0.75"/>
<circle cx="545.9" cy="188.2" r="4.2" fill="#d64545" fill-opacity="0.75"/>
<circle cx="542.5" cy="222.9" r="4.2" fill="#d64545" fill-opacity="0.75"/>
<circle cx="437.7" cy="275.5" r="4.2" fill="#d64545" fill-opacity="0.75"/>
<circle cx="438.2" cy="259.8" r="4.2" fill="#d64545" fill-opacity="0.75"/>
<circle cx="480.2" cy="385.4" r="4.2" fill="#d64545" fill-opacity="0.75"/>
<circle cx="488.7" cy="331.1" r="4.2" fill="#d64545" fill-opacity="0.75"/>
<circle cx="380.3" cy="330.1" r="4.2" fill="#d64545" fill-opacity="0.75"/>
<circle cx="377.9" cy="305.3" r="4.2" fill="#d64545" fill-opacity="0.75"/>
<circle cx="493.1" cy="275.7" r="4.2" fill="#d64545" fill-opacity="0.75"/>
<circle cx="503.8" cy="268.7" r="4.2" fill="#d64545" fill-opacity="0.75"/>
<circle cx="454.0" cy="280.4" r="4.2" fill="#d64545" fill-opacity="0.75"/>
<circle cx="479.7" cy="216.0" r="4.2" fill="#d64545" fill-opacity="0.75"/>
<circle cx="561.1" cy="251.7" r="4.2" fill="#d64545" fill-opacity="0.75"/>
<circle cx="556.3" cy="249.2" r="4.2" fill="#d64545" fill-opacity="0.75"/>
<circle cx="316.5" cy="190.3" r="4.2" fill="#d64545" fill-opacity="0.75"/>
<circle cx="311.0" cy="188.8" r="4.2" fill="#d64545" fill-opacity="0.75"/>
<circle cx="389.8" cy="289.0" r="4.2" fill="#d64545" fill-opacity="0.75"/>
<circle cx="395.5" cy="286.0" r="4.2" fill="#d64545" fill-opacity="0.75"/>
<circle cx="434.6" cy="234.3" r="4.2" fill="#d64545" fill-opacity="0.75"/>
<circle cx="426.9" cy="268.2" r="4.2" fill="#d64545" fill-opacity="0.75"/>
<circle cx="393.7" cy="270.3" r="4.2" fill="#d64545" fill-opacity="0.75"/>
<circle cx="400.3" cy="275.3" r="4.2" fill="#d64545" fill-opacity="0.75"/>
<circle cx="403.0" cy="286.3" r="4.2" fill="#d64545" fill-opacity="0.75"/>
<circle cx="391.6" cy="309.2" r="4.2" fill="#d64545" fill-opacity="0.75"/>
<circle cx="417.3" cy="242.9" r="4.2" fill="#d64545" fill-opacity="0.75"/>
<circle cx="427.0" cy="227.9" r="4.2" fill="#d64545" fill-opacity="0.75"/>
<circle cx="460.8" cy="410.0" r="4.2" fill="#d64545" fill-opacity="0.75"/>
<circle cx="468.6" cy="412.3" r="4.2" fill="#d64545" fill-opacity="0.75"/>
<circle cx="427.6" cy="196.6" r="4.2" fill="#d64545" fill-opacity="0.75"/>
<circle cx="434.4" cy="166.9" r="4.2" fill="#d64545" fill-opacity="0.75"/>
<circle cx="400.3" cy="262.7" r="4.2" fill="#d64545" fill-opacity="0.75"/>
<circle cx="407.2" cy="245.6" r="4.2" fill="#d64545" fill-opacity="0.75"/>
<circle cx="463.7" cy="185.8" r="4.2" fill="#d64545" fill-opacity="0.75"/>
<circle cx="466.5" cy="181.8" r="4.2" fill="#d64545" fill-opacity="0.75"/>
<circle cx="474.0" cy="164.8" r="4.2" fill="#d64545" fill-opacity="0.75"/>
<circle cx="466.1" cy="171.7" r="4.2" fill="#d64545" fill-opacity="0.75"/>
<circle cx="508.9" cy="372.3" r="4.2" fill="#d64545" fill-opacity="0.75"/>
<circle cx="507.2" cy="365.2" r="4.2" fill="#d64545" fill-opacity="0.75"/>
<circle cx="471.2" cy="390.5" r="4.2" fill="#d64545" fill-opacity="0.75"/>
<circle cx="474.0" cy="401.0" r="4.2" fill="#d64545" fill-opacity="0.75"/>
<circle cx="372.9" cy="197.5" r="4.2" fill="#d64545" fill-opacity="0.75"/>
<circle cx="360.4" cy="222.5" r="4.2" fill="#d64545" fill-opacity="0.75"/>
<circle cx="424.8" cy="336.9" r="4.2" fill="#d64545" fill-opacity="0.75"/>
<circle cx="415.5" cy="357.8" r="4.2" fill="#d64545" fill-opacity="0.75"/>
<circle cx="424.0" cy="247.0" r="4.2" fill="#d64545" fill-opacity="0.75"/>
<circle cx="415.6" cy="279.5" r="4.2" fill="#d64545" fill-opacity="0.75"/>
<circle cx="557.9" cy="374.0" r="4.2" fill="#d64545" fill-opacity="0.75"/>
<circle cx="556.2" cy="325.5" r="4.2" fill="#d64545" fill-opacity="0.75"/>
<circle cx="457.7" cy="247.3" r="4.2" fill="#d64545" fill-opacity="0.75"/>
<circle cx="479.4" cy="210.6" r="4.2" fill="#d64545" fill-opacity="0.75"/>
<circle cx="401.5" cy="300.1" r="4.2" fill="#d64545" fill-opacity="0.75"/>
<circle cx="413.2" cy="249.1" r="4.2" fill="#d64545" fill-opacity="0.75"/>
<circle cx="400.1" cy="202.3" r="4.2" fill="#d64545" fill-opacity="0.75"/>
<circle cx="383.6" cy="218.6" r="4.2" fill="#d64545" fill-opacity="0.75"/>
<circle cx="440.8" cy="268.8" r="4.2" fill="#d64545" fill-opacity="0.75"/>
<circle cx="458.6" cy="246.7" r="4.2" fill="#d64545" fill-opacity="0.75"/>
<circle cx="423.8" cy="365.2" r="4.2" fill="#d64545" fill-opacity="0.75"/>
<circle cx="421.7" cy="357.5" r="4.2" fill="#d64545" fill-opacity="0.75"/>
<circle cx="352.9" cy="413.2" r="4.2" fill="#d64545" fill-opacity="0.75"/>
<circle cx="353.4" cy="438.1" r="4.2" fill="#d64545" fill-opacity="0.75"/>
<circle cx="250.2" cy="181.2" r="4.2" fill="#d64545" fill-opacity="0.75"/>
<circle cx="246.4" cy="157.7" r="4.2" fill="#d64545" fill-opacity="0.75"/>
<circle cx="528.9" cy="246.2" r="4.2" fill="#d64545" fill-opacity="0.75"/>
<circle cx="528.1" cy="230.7" r="4.2" fill="#d64545" fill-opacity="0.75"/>
<circle cx="413.4" cy="346.0" r="4.2" fill="#d64545" fill-opacity="0.75"/>
<circle cx="427.2" cy="297.8" r="4.2" fill="#d64545" fill-opacity="0.75"/>
<rect x="750" y="60" width="14" height="14" fill="#2f6fed"/>
<text x="770" y="72" font-size="14" font-family="Arial">photo</text>
<rect x="750" y="84" width="14" height="14" fill="#ff7a00"/>
<text x="770" y="96" font-size="14" font-family="Arial">Hayao</text>
<rect x="750" y="108" width="14" height="14" fill="#1fa971"/>
<text x="770" y="120" font-size="14" font-family="Arial">monet</text>
<rect x="750" y="132" width="14" height="14" fill="#a046f2"/>
<text x="770" y="144" font-size="14" font-family="Arial">vangogh</text>
<rect x="750" y="156" width="14" height="14" fill="#d64545"/>
<text x="770" y="168" font-size="14" font-family="Arial">cezanne</text>
</svg>