<svg xmlns="http://www.w3.org/2000/svg" width="900" height="520" viewBox="0 0 900 520">
<rect width="100%" height="100%" fill="white"/>
<text x="450.0" y="28" text-anchor="middle" font-size="22" font-family="Arial">MDS Scatter: latent_swd</text>
<rect x="70" y="50" width="650" height="420" fill="none" stroke="black"/>
<circle cx="208.7" cy="337.4" r="4.2" fill="#2f6fed" fill-opacity="0.75"/>
<circle cx="308.9" cy="320.9" r="4.2" fill="#2f6fed" fill-opacity="0.75"/>
<circle cx="394.6" cy="328.4" r="4.2" fill="#2f6fed" fill-opacity="0.75"/>
<circle cx="427.5" cy="226.0" r="4.2" fill="#2f6fed" fill-opacity="0.75"/>
<circle cx="340.7" cy="390.1" r="4.2" fill="#2f6fed" fill-opacity="0.75"/>
<circle cx="378.7" cy="397.8" r="4.2" fill="#2f6fed" fill-opacity="0.75"/>
<circle cx="407.7" cy="179.4" r="4.2" fill="#2f6fed" fill-opacity="0.75"/>
<circle cx="240.1" cy="373.0" r="4.2" fill="#2f6fed" fill-opacity="0.75"/>
<circle cx="326.2" cy="307.1" r="4.2" fill="#2f6fed" fill-opacity="0.75"/>
<circle cx="381.5" cy="293.2" r="4.2" fill="#2f6fed" fill-opacity="0.75"/>
<circle cx="411.7" cy="294.2" r="4.2" fill="#2f6fed" fill-opacity="0.75"/>
<circle cx="346.1" cy="333.3" r="4.2" fill="#2f6fed" fill-opacity="0.75"/>
<circle cx="436.3" cy="313.9" r="4.2" fill="#2f6fed" fill-opacity="0.75"/>
<circle cx="284.5" cy="320.9" r="4.2" fill="#2f6fed" fill-opacity="0.75"/>
<circle cx="313.0" cy="313.0" r="4.2" fill="#2f6fed" fill-opacity="0.75"/>
<circle cx="544.5" cy="149.1" r="4.2" fill="#2f6fed" fill-opacity="0.75"/>
<circle cx="183.1" cy="403.8" r="4.2" fill="#2f6fed" fill-opacity="0.75"/>
<circle cx="267.9" cy="390.0" r="4.2" fill="#2f6fed" fill-opacity="0.75"/>
<circle cx="418.0" cy="252.1" r="4.2" fill="#2f6fed" fill-opacity="0.75"/>
<circle cx="70.0" cy="257.4" r="4.2" fill="#2f6fed" fill-opacity="0.75"/>
<circle cx="430.7" cy="321.5" r="4.2" fill="#2f6fed" fill-opacity="0.75"/>
<circle cx="444.8" cy="205.3" r="4.2" fill="#2f6fed" fill-opacity="0.75"/>
<circle cx="439.4" cy="470.0" r="4.2" fill="#2f6fed" fill-opacity="0.75"/>
<circle cx="305.2" cy="362.6" r="4.2" fill="#2f6fed" fill-opacity="0.75"/>
<circle cx="466.6" cy="320.1" r="4.2" fill="#2f6fed" fill-opacity="0.75"/>
<circle cx="445.5" cy="413.4" r="4.2" fill="#2f6fed" fill-opacity="0.75"/>
<circle cx="342.8" cy="347.7" r="4.2" fill="#2f6fed" fill-opacity="0.75"/>
<circle cx="327.5" cy="244.0" r="4.2" fill="#2f6fed" fill-opacity="0.75"/>
<circle cx="434.5" cy="201.3" r="4.2" fill="#2f6fed" fill-opacity="0.75"/>
<circle cx="389.2" cy="344.5" r="4.2" fill="#2f6fed" fill-opacity="0.75"/>
<circle cx="361.6" cy="259.3" r="4.2" fill="#2f6fed" fill-opacity="0.75"/>
<circle cx="280.9" cy="313.5" r="4.2" fill="#2f6fed" fill-opacity="0.75"/>
<circle cx="440.4" cy="304.4" r="4.2" fill="#2f6fed" fill-opacity="0.75"/>
<circle cx="347.4" cy="330.0" r="4.2" fill="#2f6fed" fill-opacity="0.75"/>
<circle cx="234.4" cy="216.5" r="4.2" fill="#2f6fed" fill-opacity="0.75"/>
<circle cx="460.9" cy="287.0" r="4.2" fill="#2f6fed" fill-opacity="0.75"/>
<circle cx="345.3" cy="295.5" r="4.2" fill="#2f6fed" fill-opacity="0.75"/>
<circle cx="315.3" cy="274.9" r="4.2" fill="#2f6fed" fill-opacity="0.75"/>
<circle cx="346.6" cy="344.1" r="4.2" fill="#2f6fed" fill-opacity="0.75"/>
<circle cx="311.3" cy="295.5" r="4.2" fill="#2f6fed" fill-opacity="0.75"/>
<circle cx="393.7" cy="372.7" r="4.2" fill="#2f6fed" fill-opacity="0.75"/>
<circle cx="352.5" cy="353.3" r="4.2" fill="#2f6fed" fill-opacity="0.75"/>
<circle cx="345.9" cy="328.1" r="4.2" fill="#2f6fed" fill-opacity="0.75"/>
<circle cx="328.1" cy="324.1" r="4.2" fill="#2f6fed" fill-opacity="0.75"/>
<circle cx="429.8" cy="309.7" r="4.2" fill="#2f6fed" fill-opacity="0.75"/>
<circle cx="409.0" cy="319.7" r="4.2" fill="#2f6fed" fill-opacity="0.75"/>
<circle cx="452.6" cy="312.2" r="4.2" fill="#2f6fed" fill-opacity="0.75"/>
<circle cx="392.7" cy="397.2" r="4.2" fill="#2f6fed" fill-opacity="0.75"/>
<circle cx="336.4" cy="310.1" r="4.2" fill="#2f6fed" fill-opacity="0.75"/>
<circle cx="209.2" cy="286.2" r="4.2" fill="#2f6fed" fill-opacity="0.75"/>
<circle cx="412.9" cy="322.8" r="4.2" fill="#2f6fed" fill-opacity="0.75"/>
<circle cx="317.9" cy="291.1" r="4.2" fill="#2f6fed" fill-opacity="0.75"/>
<circle cx="331.4" cy="365.1" r="4.2" fill="#2f6fed" fill-opacity="0.75"/>
<circle cx="453.7" cy="311.3" r="4.2" fill="#2f6fed" fill-opacity="0.75"/>
<circle cx="414.2" cy="240.9" r="4.2" fill="#2f6fed" fill-opacity="0.75"/>
<circle cx="385.9" cy="271.7" r="4.2" fill="#2f6fed" fill-opacity="0.75"/>
<circle cx="499.5" cy="264.6" r="4.2" fill="#2f6fed" fill-opacity="0.75"/>
<circle cx="359.6" cy="313.2" r="4.2" fill="#2f6fed" fill-opacity="0.75"/>
<circle cx="486.1" cy="250.5" r="4.2" fill="#2f6fed" fill-opacity="0.75"/>
<circle cx="228.9" cy="223.1" r="4.2" fill="#2f6fed" fill-opacity="0.75"/>
<circle cx="415.7" cy="214.1" r="4.2" fill="#2f6fed" fill-opacity="0.75"/>
<circle cx="450.3" cy="343.9" r="4.2" fill="#2f6fed" fill-opacity="0.75"/>
<circle cx="371.6" cy="319.4" r="4.2" fill="#2f6fed" fill-opacity="0.75"/>
<circle cx="400.0" cy="354.8" r="4.2" fill="#2f6fed" fill-opacity="0.75"/>
<circle cx="374.7" cy="273.8" r="4.2" fill="#2f6fed" fill-opacity="0.75"/>
<circle cx="422.1" cy="311.9" r="4.2" fill="#2f6fed" fill-opacity="0.75"/>
<circle cx="609.4" cy="310.1" r="4.2" fill="#2f6fed" fill-opacity="0.75"/>
<circle cx="203.5" cy="308.8" r="4.2" fill="#2f6fed" fill-opacity="0.75"/>
<circle cx="520.0" cy="298.1" r="4.2" fill="#2f6fed" fill-opacity="0.75"/>
<circle cx="298.5" cy="314.3" r="4.2" fill="#2f6fed" fill-opacity="0.75"/>
<circle cx="477.5" cy="309.2" r="4.2" fill="#2f6fed" fill-opacity="0.75"/>
<circle cx="371.6" cy="320.0" r="4.2" fill="#2f6fed" fill-opacity="0.75"/>
<circle cx="453.7" cy="249.9" r="4.2" fill="#2f6fed" fill-opacity="0.75"/>
<circle cx="508.0" cy="307.8" r="4.2" fill="#2f6fed" fill-opacity="0.75"/>
<circle cx="400.3" cy="271.7" r="4.2" fill="#2f6fed" fill-opacity="0.75"/>
<circle cx="574.3" cy="264.5" r="4.2" fill="#2f6fed" fill-opacity="0.75"/>
<circle cx="391.3" cy="284.3" r="4.2" fill="#2f6fed" fill-opacity="0.75"/>
<circle cx="379.5" cy="333.9" r="4.2" fill="#2f6fed" fill-opacity="0.75"/>
<circle cx="378.4" cy="263.3" r="4.2" fill="#2f6fed" fill-opacity="0.75"/>
<circle cx="470.7" cy="354.6" r="4.2" fill="#2f6fed" fill-opacity="0.75"/>
<circle cx="351.8" cy="179.6" r="4.2" fill="#2f6fed" fill-opacity="0.75"/>
<circle cx="439.8" cy="304.0" r="4.2" fill="#2f6fed" fill-opacity="0.75"/>
<circle cx="261.8" cy="262.4" r="4.2" fill="#2f6fed" fill-opacity="0.75"/>
<circle cx="302.3" cy="331.8" r="4.2" fill="#2f6fed" fill-opacity="0.75"/>
<circle cx="513.4" cy="249.7" r="4.2" fill="#2f6fed" fill-opacity="0.75"/>
<circle cx="333.7" cy="248.6" r="4.2" fill="#2f6fed" fill-opacity="0.75"/>
<circle cx="415.1" cy="315.6" r="4.2" fill="#2f6fed" fill-opacity="0.75"/>
<circle cx="465.6" cy="305.2" r="4.2" fill="#2f6fed" fill-opacity="0.75"/>
<circle cx="516.5" cy="326.5" r="4.2" fill="#2f6fed" fill-opacity="0.75"/>
<circle cx="436.6" cy="294.7" r="4.2" fill="#2f6fed" fill-opacity="0.75"/>
<circle cx="449.8" cy="297.4" r="4.2" fill="#2f6fed" fill-opacity="0.75"/>
<circle cx="420.2" cy="305.9" r="4.2" fill="#2f6fed" fill-opacity="0.75"/>
<circle cx="415.7" cy="332.5" r="4.2" fill="#2f6fed" fill-opacity="0.75"/>
<circle cx="261.6" cy="312.2" r="4.2" fill="#2f6fed" fill-opacity="0.75"/>
<circle cx="390.7" cy="316.7" r="4.2" fill="#2f6fed" fill-opacity="0.75"/>
<circle cx="257.0" cy="288.2" r="4.2" fill="#2f6fed" fill-opacity="0.75"/>
<circle cx="406.9" cy="289.2" r="4.2" fill="#2f6fed" fill-opacity="0.75"/>
<circle cx="300.4" cy="248.9" r="4.2" fill="#2f6fed" fill-opacity="0.75"/>
<circle cx="450.5" cy="284.3" r="4.2" fill="#2f6fed" fill-opacity="0.75"/>
<circle cx="396.3" cy="338.4" r="4.2" fill="#2f6fed" fill-opacity="0.75"/>
<circle cx="418.3" cy="134.6" r="4.2" fill="#ff7a00" fill-opacity="0.75"/>
<circle cx="372.5" cy="149.2" r="4.2" fill="#ff7a00" fill-opacity="0.75"/>
<circle cx="324.7" cy="183.8" r="4.2" fill="#ff7a00" fill-opacity="0.75"/>
<circle cx="417.1" cy="153.7" r="4.2" fill="#ff7a00" fill-opacity="0.75"/>
<circle cx="202.1" cy="200.5" r="4.2" fill="#ff7a00" fill-opacity="0.75"/>
<circle cx="411.5" cy="136.4" r="4.2" fill="#ff7a00" fill-opacity="0.75"/>
<circle cx="367.9" cy="167.8" r="4.2" fill="#ff7a00" fill-opacity="0.75"/>
<circle cx="337.1" cy="218.3" r="4.2" fill="#ff7a00" fill-opacity="0.75"/>
<circle cx="372.3" cy="151.6" r="4.2" fill="#ff7a00" fill-opacity="0.75"/>
<circle cx="353.8" cy="182.8" r="4.2" fill="#ff7a00" fill-opacity="0.75"/>
<circle cx="427.4" cy="132.3" r="4.2" fill="#ff7a00" fill-opacity="0.75"/>
<circle cx="411.2" cy="189.0" r="4.2" fill="#ff7a00" fill-opacity="0.75"/>
<circle cx="404.5" cy="182.8" r="4.2" fill="#ff7a00" fill-opacity="0.75"/>
<circle cx="401.2" cy="182.4" r="4.2" fill="#ff7a00" fill-opacity="0.75"/>
<circle cx="401.7" cy="188.8" r="4.2" fill="#ff7a00" fill-opacity="0.75"/>
<circle cx="362.2" cy="161.6" r="4.2" fill="#ff7a00" fill-opacity="0.75"/>
<circle cx="397.7" cy="173.4" r="4.2" fill="#ff7a00" fill-opacity="0.75"/>
<circle cx="456.7" cy="83.5" r="4.2" fill="#ff7a00" fill-opacity="0.75"/>
<circle cx="225.6" cy="148.7" r="4.2" fill="#ff7a00" fill-opacity="0.75"/>
<circle cx="368.6" cy="216.3" r="4.2" fill="#ff7a00" fill-opacity="0.75"/>
<circle cx="308.2" cy="178.5" r="4.2" fill="#ff7a00" fill-opacity="0.75"/>
<circle cx="233.2" cy="178.1" r="4.2" fill="#ff7a00" fill-opacity="0.75"/>
<circle cx="559.9" cy="105.2" r="4.2" fill="#ff7a00" fill-opacity="0.75"/>
<circle cx="431.1" cy="212.4" r="4.2" fill="#ff7a00" fill-opacity="0.75"/>
<circle cx="429.2" cy="50.0" r="4.2" fill="#ff7a00" fill-opacity="0.75"/>
<circle cx="400.2" cy="195.6" r="4.2" fill="#ff7a00" fill-opacity="0.75"/>
<circle cx="324.4" cy="230.9" r="4.2" fill="#ff7a00" fill-opacity="0.75"/>
<circle cx="390.1" cy="228.9" r="4.2" fill="#ff7a00" fill-opacity="0.75"/>
<circle cx="453.3" cy="165.5" r="4.2" fill="#ff7a00" fill-opacity="0.75"/>
<circle cx="462.2" cy="71.0" r="4.2" fill="#ff7a00" fill-opacity="0.75"/>
<circle cx="328.1" cy="163.6" r="4.2" fill="#ff7a00" fill-opacity="0.75"/>
<circle cx="318.6" cy="202.0" r="4.2" fill="#ff7a00" fill-opacity="0.75"/>
<circle cx="277.7" cy="179.8" r="4.2" fill="#ff7a00" fill-opacity="0.75"/>
<circle cx="281.3" cy="202.0" r="4.2" fill="#ff7a00" fill-opacity="0.75"/>
<circle cx="236.7" cy="234.2" r="4.2" fill="#ff7a00" fill-opacity="0.75"/>
<circle cx="439.6" cy="146.0" r="4.2" fill="#ff7a00" fill-opacity="0.75"/>
<circle cx="419.4" cy="260.1" r="4.2" fill="#ff7a00" fill-opacity="0.75"/>
<circle cx="412.2" cy="147.7" r="4.2" fill="#ff7a00" fill-opacity="0.75"/>
<circle cx="403.3" cy="189.7" r="4.2" fill="#ff7a00" fill-opacity="0.75"/>
<circle cx="267.5" cy="215.1" r="4.2" fill="#ff7a00" fill-opacity="0.75"/>
<circle cx="447.7" cy="165.2" r="4.2" fill="#ff7a00" fill-opacity="0.75"/>
<circle cx="385.7" cy="122.2" r="4.2" fill="#ff7a00" fill-opacity="0.75"/>
<circle cx="358.6" cy="148.6" r="4.2" fill="#ff7a00" fill-opacity="0.75"/>
<circle cx="441.9" cy="180.8" r="4.2" fill="#ff7a00" fill-opacity="0.75"/>
<circle cx="217.3" cy="142.0" r="4.2" fill="#ff7a00" fill-opacity="0.75"/>
<circle cx="472.4" cy="281.1" r="4.2" fill="#ff7a00" fill-opacity="0.75"/>
<circle cx="403.8" cy="210.2" r="4.2" fill="#ff7a00" fill-opacity="0.75"/>
<circle cx="395.4" cy="201.7" r="4.2" fill="#ff7a00" fill-opacity="0.75"/>
<circle cx="281.2" cy="214.2" r="4.2" fill="#ff7a00" fill-opacity="0.75"/>
<circle cx="340.6" cy="167.8" r="4.2" fill="#ff7a00" fill-opacity="0.75"/>
<circle cx="372.6" cy="165.8" r="4.2" fill="#ff7a00" fill-opacity="0.75"/>
<circle cx="441.5" cy="219.8" r="4.2" fill="#ff7a00" fill-opacity="0.75"/>
<circle cx="232.4" cy="264.7" r="4.2" fill="#ff7a00" fill-opacity="0.75"/>
<circle cx="364.3" cy="143.2" r="4.2" fill="#ff7a00" fill-opacity="0.75"/>
<circle cx="192.2" cy="284.7" r="4.2" fill="#ff7a00" fill-opacity="0.75"/>
<circle cx="419.0" cy="175.3" r="4.2" fill="#ff7a00" fill-opacity="0.75"/>
<circle cx="204.1" cy="280.5" r="4.2" fill="#ff7a00" fill-opacity="0.75"/>
<circle cx="299.3" cy="205.8" r="4.2" fill="#ff7a00" fill-opacity="0.75"/>
<circle cx="339.5" cy="172.9" r="4.2" fill="#ff7a00" fill-opacity="0.75"/>
<circle cx="405.2" cy="131.3" r="4.2" fill="#ff7a00" fill-opacity="0.75"/>
<circle cx="290.5" cy="181.4" r="4.2" fill="#ff7a00" fill-opacity="0.75"/>
<circle cx="230.4" cy="234.6" r="4.2" fill="#ff7a00" fill-opacity="0.75"/>
<circle cx="342.1" cy="223.4" r="4.2" fill="#ff7a00" fill-opacity="0.75"/>
<circle cx="256.4" cy="191.0" r="4.2" fill="#ff7a00" fill-opacity="0.75"/>
<circle cx="375.9" cy="217.3" r="4.2" fill="#ff7a00" fill-opacity="0.75"/>
<circle cx="223.5" cy="244.8" r="4.2" fill="#ff7a00" fill-opacity="0.75"/>
<circle cx="577.8" cy="143.9" r="4.2" fill="#ff7a00" fill-opacity="0.75"/>
<circle cx="222.1" cy="166.4" r="4.2" fill="#ff7a00" fill-opacity="0.75"/>
<circle cx="406.7" cy="213.3" r="4.2" fill="#ff7a00" fill-opacity="0.75"/>
<circle cx="536.6" cy="132.4" r="4.2" fill="#ff7a00" fill-opacity="0.75"/>
<circle cx="335.6" cy="176.8" r="4.2" fill="#ff7a00" fill-opacity="0.75"/>
<circle cx="216.4" cy="163.4" r="4.2" fill="#ff7a00" fill-opacity="0.75"/>
<circle cx="417.4" cy="181.1" r="4.2" fill="#ff7a00" fill-opacity="0.75"/>
<circle cx="376.7" cy="131.7" r="4.2" fill="#ff7a00" fill-opacity="0.75"/>
<circle cx="242.4" cy="200.6" r="4.2" fill="#ff7a00" fill-opacity="0.75"/>
<circle cx="284.0" cy="133.3" r="4.2" fill="#ff7a00" fill-opacity="0.75"/>
<circle cx="387.9" cy="188.8" r="4.2" fill="#ff7a00" fill-opacity="0.75"/>
<circle cx="200.4" cy="194.4" r="4.2" fill="#ff7a00" fill-opacity="0.75"/>
<circle cx="389.2" cy="184.3" r="4.2" fill="#ff7a00" fill-opacity="0.75"/>
<circle cx="488.0" cy="115.0" r="4.2" fill="#ff7a00" fill-opacity="0.75"/>
<circle cx="351.4" cy="180.7" r="4.2" fill="#ff7a00" fill-opacity="0.75"/>
<circle cx="442.5" cy="127.5" r="4.2" fill="#ff7a00" fill-opacity="0.75"/>
<circle cx="245.3" cy="171.6" r="4.2" fill="#ff7a00" fill-opacity="0.75"/>
<circle cx="499.2" cy="115.0" r="4.2" fill="#ff7a00" fill-opacity="0.75"/>
<circle cx="370.8" cy="178.6" r="4.2" fill="#ff7a00" fill-opacity="0.75"/>
<circle cx="192.0" cy="206.8" r="4.2" fill="#ff7a00" fill-opacity="0.75"/>
<circle cx="329.6" cy="162.8" r="4.2" fill="#ff7a00" fill-opacity="0.75"/>
<circle cx="406.4" cy="129.8" r="4.2" fill="#ff7a00" fill-opacity="0.75"/>
<circle cx="418.0" cy="165.5" r="4.2" fill="#ff7a00" fill-opacity="0.75"/>
<circle cx="449.8" cy="160.7" r="4.2" fill="#ff7a00" fill-opacity="0.75"/>
<circle cx="388.9" cy="239.2" r="4.2" fill="#ff7a00" fill-opacity="0.75"/>
<circle cx="334.5" cy="210.4" r="4.2" fill="#ff7a00" fill-opacity="0.75"/>
<circle cx="160.0" cy="228.7" r="4.2" fill="#ff7a00" fill-opacity="0.75"/>
<circle cx="208.8" cy="200.9" r="4.2" fill="#ff7a00" fill-opacity="0.75"/>
<circle cx="424.6" cy="171.0" r="4.2" fill="#ff7a00" fill-opacity="0.75"/>
<circle cx="376.2" cy="155.0" r="4.2" fill="#ff7a00" fill-opacity="0.75"/>
<circle cx="525.5" cy="175.1" r="4.2" fill="#ff7a00" fill-opacity="0.75"/>
<circle cx="186.3" cy="193.6" r="4.2" fill="#ff7a00" fill-opacity="0.75"/>
<circle cx="333.1" cy="139.6" r="4.2" fill="#ff7a00" fill-opacity="0.75"/>
<circle cx="397.5" cy="114.4" r="4.2" fill="#ff7a00" fill-opacity="0.75"/>
<circle cx="461.8" cy="339.9" r="4.2" fill="#1fa971" fill-opacity="0.75"/>
<circle cx="413.8" cy="239.8" r="4.2" fill="#1fa971" fill-opacity="0.75"/>
<circle cx="433.7" cy="234.6" r="4.2" fill="#1fa971" fill-opacity="0.75"/>
<circle cx="379.7" cy="279.9" r="4.2" fill="#1fa971" fill-opacity="0.75"/>
<circle cx="460.7" cy="263.9" r="4.2" fill="#1fa971" fill-opacity="0.75"/>
<circle cx="422.1" cy="234.9" r="4.2" fill="#1fa971" fill-opacity="0.75"/>
<circle cx="416.0" cy="356.4" r="4.2" fill="#1fa971" fill-opacity="0.75"/>
<circle cx="476.4" cy="317.0" r="4.2" fill="#1fa971" fill-opacity="0.75"/>
<circle cx="430.6" cy="332.4" r="4.2" fill="#1fa971" fill-opacity="0.75"/>
<circle cx="417.3" cy="207.5" r="4.2" fill="#1fa971" fill-opacity="0.75"/>
<circle cx="467.0" cy="309.8" r="4.2" fill="#1fa971" fill-opacity="0.75"/>
<circle cx="441.6" cy="359.7" r="4.2" fill="#1fa971" fill-opacity="0.75"/>
<circle cx="483.8" cy="384.7" r="4.2" fill="#1fa971" fill-opacity="0.75"/>
<circle cx="508.2" cy="338.2" r="4.2" fill="#1fa971" fill-opacity="0.75"/>
<circle cx="521.2" cy="300.3" r="4.2" fill="#1fa971" fill-opacity="0.75"/>
<circle cx="427.5" cy="300.4" r="4.2" fill="#1fa971" fill-opacity="0.75"/>
<circle cx="394.6" cy="377.4" r="4.2" fill="#1fa971" fill-opacity="0.75"/>
<circle cx="389.7" cy="351.6" r="4.2" fill="#1fa971" fill-opacity="0.75"/>
<circle cx="392.5" cy="370.9" r="4.2" fill="#1fa971" fill-opacity="0.75"/>
<circle cx="394.4" cy="366.7" r="4.2" fill="#1fa971" fill-opacity="0.75"/>
<circle cx="353.7" cy="350.2" r="4.2" fill="#1fa971" fill-opacity="0.75"/>
<circle cx="418.8" cy="269.0" r="4.2" fill="#1fa971" fill-opacity="0.75"/>
<circle cx="596.6" cy="247.8" r="4.2" fill="#1fa971" fill-opacity="0.75"/>
<circle cx="462.5" cy="237.3" r="4.2" fill="#1fa971" fill-opacity="0.75"/>
<circle cx="544.4" cy="247.2" r="4.2" fill="#1fa971" fill-opacity="0.75"/>
<circle cx="449.4" cy="312.1" r="4.2" fill="#1fa971" fill-opacity="0.75"/>
<circle cx="474.6" cy="292.8" r="4.2" fill="#1fa971" fill-opacity="0.75"/>
<circle cx="409.5" cy="340.1" r="4.2" fill="#1fa971" fill-opacity="0.75"/>
<circle cx="492.5" cy="278.2" r="4.2" fill="#1fa971" fill-opacity="0.75"/>
<circle cx="474.1" cy="294.4" r="4.2" fill="#1fa971" fill-opacity="0.75"/>
<circle cx="449.9" cy="302.4" r="4.2" fill="#1fa971" fill-opacity="0.75"/>
<circle cx="580.3" cy="264.3" r="4.2" fill="#1fa971" fill-opacity="0.75"/>
<circle cx="522.4" cy="226.6" r="4.2" fill="#1fa971" fill-opacity="0.75"/>
<circle cx="471.0" cy="300.7" r="4.2" fill="#1fa971" fill-opacity="0.75"/>
<circle cx="526.8" cy="256.4" r="4.2" fill="#1fa971" fill-opacity="0.75"/>
<circle cx="510.2" cy="362.0" r="4.2" fill="#1fa971" fill-opacity="0.75"/>
<circle cx="516.0" cy="251.1" r="4.2" fill="#1fa971" fill-opacity="0.75"/>
<circle cx="365.0" cy="279.8" r="4.2" fill="#1fa971" fill-opacity="0.75"/>
<circle cx="426.2" cy="361.0" r="4.2" fill="#1fa971" fill-opacity="0.75"/>
<circle cx="349.3" cy="395.7" r="4.2" fill="#1fa971" fill-opacity="0.75"/>
<circle cx="440.0" cy="329.5" r="4.2" fill="#1fa971" fill-opacity="0.75"/>
<circle cx="390.4" cy="318.6" r="4.2" fill="#1fa971" fill-opacity="0.75"/>
<circle cx="434.4" cy="314.6" r="4.2" fill="#1fa971" fill-opacity="0.75"/>
<circle cx="460.6" cy="334.2" r="4.2" fill="#1fa971" fill-opacity="0.75"/>
<circle cx="479.2" cy="202.9" r="4.2" fill="#1fa971" fill-opacity="0.75"/>
<circle cx="474.8" cy="303.4" r="4.2" fill="#1fa971" fill-opacity="0.75"/>
<circle cx="462.7" cy="319.2" r="4.2" fill="#1fa971" fill-opacity="0.75"/>
<circle cx="465.9" cy="306.4" r="4.2" fill="#1fa971" fill-opacity="0.75"/>
<circle cx="440.1" cy="295.9" r="4.2" fill="#1fa971" fill-opacity="0.75"/>
<circle cx="420.6" cy="280.9" r="4.2" fill="#1fa971" fill-opacity="0.75"/>
<circle cx="401.1" cy="258.1" r="4.2" fill="#1fa971" fill-opacity="0.75"/>
<circle cx="478.3" cy="241.1" r="4.2" fill="#1fa971" fill-opacity="0.75"/>
<circle cx="546.0" cy="252.8" r="4.2" fill="#1fa971" fill-opacity="0.75"/>
<circle cx="400.3" cy="295.7" r="4.2" fill="#1fa971" fill-opacity="0.75"/>
<circle cx="396.4" cy="343.4" r="4.2" fill="#1fa971" fill-opacity="0.75"/>
<circle cx="546.2" cy="283.7" r="4.2" fill="#1fa971" fill-opacity="0.75"/>
<circle cx="495.2" cy="312.4" r="4.2" fill="#1fa971" fill-opacity="0.75"/>
<circle cx="480.2" cy="287.8" r="4.2" fill="#1fa971" fill-opacity="0.75"/>
<circle cx="500.0" cy="290.1" r="4.2" fill="#1fa971" fill-opacity="0.75"/>
<circle cx="500.9" cy="289.0" r="4.2" fill="#1fa971" fill-opacity="0.75"/>
<circle cx="505.8" cy="318.8" r="4.2" fill="#1fa971" fill-opacity="0.75"/>
<circle cx="480.3" cy="217.4" r="4.2" fill="#1fa971" fill-opacity="0.75"/>
<circle cx="442.8" cy="318.5" r="4.2" fill="#1fa971" fill-opacity="0.75"/>
<circle cx="429.5" cy="357.1" r="4.2" fill="#1fa971" fill-opacity="0.75"/>
<circle cx="442.6" cy="313.0" r="4.2" fill="#1fa971" fill-opacity="0.75"/>
<circle cx="447.2" cy="336.4" r="4.2" fill="#1fa971" fill-opacity="0.75"/>
<circle cx="515.8" cy="211.3" r="4.2" fill="#1fa971" fill-opacity="0.75"/>
<circle cx="529.4" cy="273.1" r="4.2" fill="#1fa971" fill-opacity="0.75"/>
<circle cx="535.1" cy="243.3" r="4.2" fill="#1fa971" fill-opacity="0.75"/>
<circle cx="534.8" cy="264.7" r="4.2" fill="#1fa971" fill-opacity="0.75"/>
<circle cx="574.5" cy="265.5" r="4.2" fill="#1fa971" fill-opacity="0.75"/>
<circle cx="447.4" cy="306.0" r="4.2" fill="#1fa971" fill-opacity="0.75"/>
<circle cx="537.4" cy="223.4" r="4.2" fill="#1fa971" fill-opacity="0.75"/>
<circle cx="538.7" cy="254.5" r="4.2" fill="#1fa971" fill-opacity="0.75"/>
<circle cx="482.1" cy="341.2" r="4.2" fill="#1fa971" fill-opacity="0.75"/>
<circle cx="511.7" cy="256.8" r="4.2" fill="#1fa971" fill-opacity="0.75"/>
<circle cx="504.5" cy="262.8" r="4.2" fill="#1fa971" fill-opacity="0.75"/>
<circle cx="335.1" cy="325.5" r="4.2" fill="#1fa971" fill-opacity="0.75"/>
<circle cx="258.1" cy="298.7" r="4.2" fill="#1fa971" fill-opacity="0.75"/>
<circle cx="591.8" cy="249.3" r="4.2" fill="#1fa971" fill-opacity="0.75"/>
<circle cx="396.9" cy="358.3" r="4.2" fill="#1fa971" fill-opacity="0.75"/>
<circle cx="415.7" cy="358.8" r="4.2" fill="#1fa971" fill-opacity="0.75"/>
<circle cx="388.8" cy="331.6" r="4.2" fill="#1fa971" fill-opacity="0.75"/>
<circle cx="476.4" cy="314.9" r="4.2" fill="#1fa971" fill-opacity="0.75"/>
<circle cx="454.1" cy="321.4" r="4.2" fill="#1fa971" fill-opacity="0.75"/>
<circle cx="460.5" cy="274.3" r="4.2" fill="#1fa971" fill-opacity="0.75"/>
<circle cx="486.6" cy="311.0" r="4.2" fill="#1fa971" fill-opacity="0.75"/>
<circle cx="580.9" cy="243.7" r="4.2" fill="#1fa971" fill-opacity="0.75"/>
<circle cx="391.2" cy="300.9" r="4.2" fill="#1fa971" fill-opacity="0.75"/>
<circle cx="350.4" cy="333.4" r="4.2" fill="#1fa971" fill-opacity="0.75"/>
<circle cx="561.1" cy="325.8" r="4.2" fill="#1fa971" fill-opacity="0.75"/>
<circle cx="474.2" cy="230.3" r="4.2" fill="#1fa971" fill-opacity="0.75"/>
<circle cx="569.4" cy="218.8" r="4.2" fill="#1fa971" fill-opacity="0.75"/>
<circle cx="414.7" cy="208.2" r="4.2" fill="#1fa971" fill-opacity="0.75"/>
<circle cx="562.8" cy="305.9" r="4.2" fill="#1fa971" fill-opacity="0.75"/>
<circle cx="460.8" cy="276.1" r="4.2" fill="#1fa971" fill-opacity="0.75"/>
<circle cx="548.8" cy="286.1" r="4.2" fill="#1fa971" fill-opacity="0.75"/>
<circle cx="581.3" cy="346.5" r="4.2" fill="#1fa971" fill-opacity="0.75"/>
<circle cx="375.6" cy="374.2" r="4.2" fill="#1fa971" fill-opacity="0.75"/>
<circle cx="495.3" cy="285.3" r="4.2" fill="#1fa971" fill-opacity="0.75"/>
<circle cx="444.5" cy="297.7" r="4.2" fill="#a046f2" fill-opacity="0.75"/>
<circle cx="446.6" cy="313.8" r="4.2" fill="#a046f2" fill-opacity="0.75"/>
<circle cx="494.8" cy="213.7" r="4.2" fill="#a046f2" fill-opacity="0.75"/>
<circle cx="493.7" cy="212.5" r="4.2" fill="#a046f2" fill-opacity="0.75"/>
<circle cx="408.2" cy="209.3" r="4.2" fill="#a046f2" fill-opacity="0.75"/>
<circle cx="406.8" cy="204.4" r="4.2" fill="#a046f2" fill-opacity="0.75"/>
<circle cx="515.1" cy="244.3" r="4.2" fill="#a046f2" fill-opacity="0.75"/>
<circle cx="513.6" cy="221.6" r="4.2" fill="#a046f2" fill-opacity="0.75"/>
<circle cx="440.4" cy="280.8" r="4.2" fill="#a046f2" fill-opacity="0.75"/>
<circle cx="439.3" cy="269.4" r="4.2" fill="#a046f2" fill-opacity="0.75"/>
<circle cx="431.6" cy="200.4" r="4.2" fill="#a046f2" fill-opacity="0.75"/>
<circle cx="431.6" cy="201.6" r="4.2" fill="#a046f2" fill-opacity="0.75"/>
<circle cx="433.2" cy="274.3" r="4.2" fill="#a046f2" fill-opacity="0.75"/>
<circle cx="433.8" cy="273.8" r="4.2" fill="#a046f2" fill-opacity="0.75"/>
<circle cx="489.8" cy="322.0" r="4.2" fill="#a046f2" fill-opacity="0.75"/>
<circle cx="492.3" cy="339.5" r="4.2" fill="#a046f2" fill-opacity="0.75"/>
<circle cx="554.0" cy="241.5" r="4.2" fill="#a046f2" fill-opacity="0.75"/>
<circle cx="556.5" cy="239.4" r="4.2" fill="#a046f2" fill-opacity="0.75"/>
<circle cx="510.9" cy="232.3" r="4.2" fill="#a046f2" fill-opacity="0.75"/>
<circle cx="511.2" cy="234.9" r="4.2" fill="#a046f2" fill-opacity="0.75"/>
<circle cx="563.8" cy="269.9" r="4.2" fill="#a046f2" fill-opacity="0.75"/>
<circle cx="561.2" cy="246.6" r="4.2" fill="#a046f2" fill-opacity="0.75"/>
<circle cx="537.9" cy="276.0" r="4.2" fill="#a046f2" fill-opacity="0.75"/>
<circle cx="536.6" cy="263.0" r="4.2" fill="#a046f2" fill-opacity="0.75"/>
<circle cx="399.4" cy="276.6" r="4.2" fill="#a046f2" fill-opacity="0.75"/>
<circle cx="396.5" cy="267.8" r="4.2" fill="#a046f2" fill-opacity="0.75"/>
<circle cx="417.9" cy="231.2" r="4.2" fill="#a046f2" fill-opacity="0.75"/>
<circle cx="412.0" cy="215.9" r="4.2" fill="#a046f2" fill-opacity="0.75"/>
<circle cx="471.5" cy="233.7" r="4.2" fill="#a046f2" fill-opacity="0.75"/>
<circle cx="468.7" cy="226.6" r="4.2" fill="#a046f2" fill-opacity="0.75"/>
<circle cx="442.9" cy="245.5" r="4.2" fill="#a046f2" fill-opacity="0.75"/>
<circle cx="444.8" cy="246.9" r="4.2" fill="#a046f2" fill-opacity="0.75"/>
<circle cx="538.4" cy="257.7" r="4.2" fill="#a046f2" fill-opacity="0.75"/>
<circle cx="538.3" cy="231.9" r="4.2" fill="#a046f2" fill-opacity="0.75"/>
<circle cx="493.4" cy="270.4" r="4.2" fill="#a046f2" fill-opacity="0.75"/>
<circle cx="490.9" cy="244.7" r="4.2" fill="#a046f2" fill-opacity="0.75"/>
<circle cx="422.1" cy="265.9" r="4.2" fill="#a046f2" fill-opacity="0.75"/>
<circle cx="421.5" cy="264.8" r="4.2" fill="#a046f2" fill-opacity="0.75"/>
<circle cx="557.0" cy="255.2" r="4.2" fill="#a046f2" fill-opacity="0.75"/>
<circle cx="556.0" cy="252.7" r="4.2" fill="#a046f2" fill-opacity="0.75"/>
<circle cx="445.6" cy="280.9" r="4.2" fill="#a046f2" fill-opacity="0.75"/>
<circle cx="444.1" cy="265.4" r="4.2" fill="#a046f2" fill-opacity="0.75"/>
<circle cx="444.8" cy="280.6" r="4.2" fill="#a046f2" fill-opacity="0.75"/>
<circle cx="442.3" cy="265.5" r="4.2" fill="#a046f2" fill-opacity="0.75"/>
<circle cx="478.7" cy="270.6" r="4.2" fill="#a046f2" fill-opacity="0.75"/>
<circle cx="477.9" cy="252.6" r="4.2" fill="#a046f2" fill-opacity="0.75"/>
<circle cx="469.4" cy="201.1" r="4.2" fill="#a046f2" fill-opacity="0.75"/>
<circle cx="471.9" cy="189.2" r="4.2" fill="#a046f2" fill-opacity="0.75"/>
<circle cx="484.2" cy="271.4" r="4.2" fill="#a046f2" fill-opacity="0.75"/>
<circle cx="484.1" cy="260.5" r="4.2" fill="#a046f2" fill-opacity="0.75"/>
<circle cx="510.0" cy="257.6" r="4.2" fill="#a046f2" fill-opacity="0.75"/>
<circle cx="510.9" cy="255.4" r="4.2" fill="#a046f2" fill-opacity="0.75"/>
<circle cx="533.7" cy="241.1" r="4.2" fill="#a046f2" fill-opacity="0.75"/>
<circle cx="534.5" cy="233.0" r="4.2" fill="#a046f2" fill-opacity="0.75"/>
<circle cx="553.6" cy="241.0" r="4.2" fill="#a046f2" fill-opacity="0.75"/>
<circle cx="559.1" cy="242.6" r="4.2" fill="#a046f2" fill-opacity="0.75"/>
<circle cx="405.0" cy="274.6" r="4.2" fill="#a046f2" fill-opacity="0.75"/>
<circle cx="400.8" cy="256.2" r="4.2" fill="#a046f2" fill-opacity="0.75"/>
<circle cx="366.1" cy="312.6" r="4.2" fill="#a046f2" fill-opacity="0.75"/>
<circle cx="362.6" cy="309.3" r="4.2" fill="#a046f2" fill-opacity="0.75"/>
<circle cx="483.0" cy="230.0" r="4.2" fill="#a046f2" fill-opacity="0.75"/>
<circle cx="483.2" cy="216.0" r="4.2" fill="#a046f2" fill-opacity="0.75"/>
<circle cx="429.8" cy="408.2" r="4.2" fill="#a046f2" fill-opacity="0.75"/>
<circle cx="424.6" cy="389.2" r="4.2" fill="#a046f2" fill-opacity="0.75"/>
<circle cx="432.8" cy="189.7" r="4.2" fill="#a046f2" fill-opacity="0.75"/>
<circle cx="428.0" cy="156.0" r="4.2" fill="#a046f2" fill-opacity="0.75"/>
<circle cx="489.2" cy="260.5" r="4.2" fill="#a046f2" fill-opacity="0.75"/>
<circle cx="491.7" cy="258.8" r="4.2" fill="#a046f2" fill-opacity="0.75"/>
<circle cx="482.4" cy="132.4" r="4.2" fill="#a046f2" fill-opacity="0.75"/>
<circle cx="483.7" cy="136.5" r="4.2" fill="#a046f2" fill-opacity="0.75"/>
<circle cx="509.8" cy="277.1" r="4.2" fill="#a046f2" fill-opacity="0.75"/>
<circle cx="514.6" cy="281.0" r="4.2" fill="#a046f2" fill-opacity="0.75"/>
<circle cx="445.7" cy="319.1" r="4.2" fill="#a046f2" fill-opacity="0.75"/>
<circle cx="445.2" cy="317.0" r="4.2" fill="#a046f2" fill-opacity="0.75"/>
<circle cx="444.7" cy="212.1" r="4.2" fill="#a046f2" fill-opacity="0.75"/>
<circle cx="441.6" cy="199.9" r="4.2" fill="#a046f2" fill-opacity="0.75"/>
<circle cx="492.6" cy="284.7" r="4.2" fill="#a046f2" fill-opacity="0.75"/>
<circle cx="496.8" cy="303.6" r="4.2" fill="#a046f2" fill-opacity="0.75"/>
<circle cx="463.2" cy="279.3" r="4.2" fill="#a046f2" fill-opacity="0.75"/>
<circle cx="461.7" cy="258.9" r="4.2" fill="#a046f2" fill-opacity="0.75"/>
<circle cx="468.5" cy="291.9" r="4.2" fill="#a046f2" fill-opacity="0.75"/>
<circle cx="468.8" cy="279.7" r="4.2" fill="#a046f2" fill-opacity="0.75"/>
<circle cx="495.3" cy="309.6" r="4.2" fill="#a046f2" fill-opacity="0.75"/>
<circle cx="498.4" cy="307.0" r="4.2" fill="#a046f2" fill-opacity="0.75"/>
<circle cx="550.0" cy="356.4" r="4.2" fill="#a046f2" fill-opacity="0.75"/>
<circle cx="555.7" cy="348.7" r="4.2" fill="#a046f2" fill-opacity="0.75"/>
<circle cx="414.2" cy="268.2" r="4.2" fill="#a046f2" fill-opacity="0.75"/>
<circle cx="411.3" cy="258.5" r="4.2" fill="#a046f2" fill-opacity="0.75"/>
<circle cx="431.6" cy="196.0" r="4.2" fill="#a046f2" fill-opacity="0.75"/>
<circle cx="431.9" cy="196.7" r="4.2" fill="#a046f2" fill-opacity="0.75"/>
<circle cx="328.6" cy="252.2" r="4.2" fill="#a046f2" fill-opacity="0.75"/>
<circle cx="319.6" cy="234.6" r="4.2" fill="#a046f2" fill-opacity="0.75"/>
<circle cx="442.9" cy="390.6" r="4.2" fill="#a046f2" fill-opacity="0.75"/>
<circle cx="440.2" cy="381.9" r="4.2" fill="#a046f2" fill-opacity="0.75"/>
<circle cx="501.8" cy="340.5" r="4.2" fill="#a046f2" fill-opacity="0.75"/>
<circle cx="503.0" cy="345.2" r="4.2" fill="#a046f2" fill-opacity="0.75"/>
<circle cx="491.9" cy="254.3" r="4.2" fill="#a046f2" fill-opacity="0.75"/>
<circle cx="496.5" cy="260.5" r="4.2" fill="#a046f2" fill-opacity="0.75"/>
<circle cx="465.7" cy="242.2" r="4.2" fill="#a046f2" fill-opacity="0.75"/>
<circle cx="474.8" cy="255.6" r="4.2" fill="#a046f2" fill-opacity="0.75"/>
<circle cx="369.9" cy="280.4" r="4.2" fill="#d64545" fill-opacity="0.75"/>
<circle cx="369.0" cy="279.3" r="4.2" fill="#d64545" fill-opacity="0.75"/>
<circle cx="398.5" cy="226.3" r="4.2" fill="#d64545" fill-opacity="0.75"/>
<circle cx="396.9" cy="224.3" r="4.2" fill="#d64545" fill-opacity="0.75"/>
<circle cx="309.2" cy="311.3" r="4.2" fill="#d64545" fill-opacity="0.75"/>
<circle cx="309.3" cy="310.0" r="4.2" fill="#d64545" fill-opacity="0.75"/>
<circle cx="479.7" cy="265.4" r="4.2" fill="#d64545" fill-opacity="0.75"/>
<circle cx="477.2" cy="252.0" r="4.2" fill="#d64545" fill-opacity="0.75"/>
<circle cx="405.9" cy="214.2" r="4.2" fill="#d64545" fill-opacity="0.75"/>
<circle cx="399.3" cy="199.4" r="4.2" fill="#d64545" fill-opacity="0.75"/>
<circle cx="483.9" cy="233.8" r="4.2" fill="#d64545" fill-opacity="0.75"/>
<circle cx="483.5" cy="229.3" r="4.2" fill="#d64545" fill-opacity="0.75"/>
<circle cx="580.1" cy="199.7" r="4.2" fill="#d64545" fill-opacity="0.75"/>
<circle cx="580.4" cy="192.1" r="4.2" fill="#d64545" fill-opacity="0.75"/>
<circle cx="620.9" cy="191.9" r="4.2" fill="#d64545" fill-opacity="0.75"/>
<circle cx="621.2" cy="192.0" r="4.2" fill="#d64545" fill-opacity="0.75"/>
<circle cx="225.2" cy="333.4" r="4.2" fill="#d64545" fill-opacity="0.75"/>
<circle cx="222.1" cy="327.9" r="4.2" fill="#d64545" fill-opacity="0.75"/>
<circle cx="720.0" cy="246.1" r="4.2" fill="#d64545" fill-opacity="0.75"/>
<circle cx="716.2" cy="187.7" r="4.2" fill="#d64545" fill-opacity="0.75"/>
<circle cx="261.8" cy="247.7" r="4.2" fill="#d64545" fill-opacity="0.75"/>
<circle cx="256.3" cy="236.6" r="4.2" fill="#d64545" fill-opacity="0.75"/>
<circle cx="447.6" cy="182.7" r="4.2" fill="#d64545" fill-opacity="0.75"/>
<circle cx="448.5" cy="183.6" r="4.2" fill="#d64545" fill-opacity="0.75"/>
<circle cx="513.8" cy="178.2" r="4.2" fill="#d64545" fill-opacity="0.75"/>
<circle cx="510.3" cy="161.1" r="4.2" fill="#d64545" fill-opacity="0.75"/>
<circle cx="429.0" cy="295.9" r="4.2" fill="#d64545" fill-opacity="0.75"/>
<circle cx="427.5" cy="291.6" r="4.2" fill="#d64545" fill-opacity="0.75"/>
<circle cx="339.8" cy="262.8" r="4.2" fill="#d64545" fill-opacity="0.75"/>
<circle cx="334.0" cy="253.0" r="4.2" fill="#d64545" fill-opacity="0.75"/>
<circle cx="534.2" cy="254.3" r="4.2" fill="#d64545" fill-opacity="0.75"/>
<circle cx="533.0" cy="242.2" r="4.2" fill="#d64545" fill-opacity="0.75"/>
<circle cx="409.1" cy="144.8" r="4.2" fill="#d64545" fill-opacity="0.75"/>
<circle cx="408.5" cy="144.2" r="4.2" fill="#d64545" fill-opacity="0.75"/>
<circle cx="306.2" cy="269.4" r="4.2" fill="#d64545" fill-opacity="0.75"/>
<circle cx="305.9" cy="267.1" r="4.2" fill="#d64545" fill-opacity="0.75"/>
<circle cx="448.9" cy="267.5" r="4.2" fill="#d64545" fill-opacity="0.75"/>
<circle cx="444.6" cy="253.7" r="4.2" fill="#d64545" fill-opacity="0.75"/>
<circle cx="432.5" cy="249.8" r="4.2" fill="#d64545" fill-opacity="0.75"/>
<circle cx="430.3" cy="250.6" r="4.2" fill="#d64545" fill-opacity="0.75"/>
<circle cx="471.8" cy="212.2" r="4.2" fill="#d64545" fill-opacity="0.75"/>
<circle cx="469.9" cy="199.9" r="4.2" fill="#d64545" fill-opacity="0.75"/>
<circle cx="391.8" cy="235.7" r="4.2" fill="#d64545" fill-opacity="0.75"/>
<circle cx="388.9" cy="229.4" r="4.2" fill="#d64545" fill-opacity="0.75"/>
<circle cx="426.3" cy="228.9" r="4.2" fill="#d64545" fill-opacity="0.75"/>
<circle cx="420.8" cy="217.7" r="4.2" fill="#d64545" fill-opacity="0.75"/>
<circle cx="442.4" cy="246.8" r="4.2" fill="#d64545" fill-opacity="0.75"/>
<circle cx="444.1" cy="250.3" r="4.2" fill="#d64545" fill-opacity="0.75"/>
<circle cx="293.4" cy="269.8" r="4.2" fill="#d64545" fill-opacity="0.75"/>
<circle cx="294.3" cy="273.5" r="4.2" fill="#d64545" fill-opacity="0.75"/>
<circle cx="418.8" cy="249.6" r="4.2" fill="#d64545" fill-opacity="0.75"/>
<circle cx="414.0" cy="233.2" r="4.2" fill="#d64545" fill-opacity="0.75"/>
<circle cx="403.5" cy="234.9" r="4.2" fill="#d64545" fill-opacity="0.75"/>
<circle cx="396.7" cy="211.6" r="4.2" fill="#d64545" fill-opacity="0.75"/>
<circle cx="425.7" cy="247.3" r="4.2" fill="#d64545" fill-opacity="0.75"/>
<circle cx="422.2" cy="233.5" r="4.2" fill="#d64545" fill-opacity="0.75"/>
<circle cx="493.3" cy="218.1" r="4.2" fill="#d64545" fill-opacity="0.75"/>
<circle cx="490.4" cy="214.1" r="4.2" fill="#d64545" fill-opacity="0.75"/>
<circle cx="480.7" cy="221.7" r="4.2" fill="#d64545" fill-opacity="0.75"/>
<circle cx="481.0" cy="224.8" r="4.2" fill="#d64545" fill-opacity="0.75"/>
<circle cx="477.2" cy="275.5" r="4.2" fill="#d64545" fill-opacity="0.75"/>
<circle cx="476.9" cy="272.4" r="4.2" fill="#d64545" fill-opacity="0.75"/>
<circle cx="397.4" cy="216.5" r="4.2" fill="#d64545" fill-opacity="0.75"/>
<circle cx="394.6" cy="205.6" r="4.2" fill="#d64545" fill-opacity="0.75"/>
<circle cx="456.7" cy="299.7" r="4.2" fill="#d64545" fill-opacity="0.75"/>
<circle cx="454.6" cy="289.9" r="4.2" fill="#d64545" fill-opacity="0.75"/>
<circle cx="382.6" cy="308.1" r="4.2" fill="#d64545" fill-opacity="0.75"/>
<circle cx="383.3" cy="310.6" r="4.2" fill="#d64545" fill-opacity="0.75"/>
<circle cx="369.2" cy="269.4" r="4.2" fill="#d64545" fill-opacity="0.75"/>
<circle cx="369.5" cy="267.2" r="4.2" fill="#d64545" fill-opacity="0.75"/>
<circle cx="409.7" cy="225.4" r="4.2" fill="#d64545" fill-opacity="0.75"/>
<circle cx="410.6" cy="226.5" r="4.2" fill="#d64545" fill-opacity="0.75"/>
<circle cx="502.9" cy="195.0" r="4.2" fill="#d64545" fill-opacity="0.75"/>
<circle cx="504.7" cy="197.5" r="4.2" fill="#d64545" fill-opacity="0.75"/>
<circle cx="463.5" cy="310.8" r="4.2" fill="#d64545" fill-opacity="0.75"/>
<circle cx="462.9" cy="308.8" r="4.2" fill="#d64545" fill-opacity="0.75"/>
<circle cx="474.8" cy="304.3" r="4.2" fill="#d64545" fill-opacity="0.75"/>
<circle cx="474.1" cy="301.1" r="4.2" fill="#d64545" fill-opacity="0.75"/>
<circle cx="390.3" cy="240.9" r="4.2" fill="#d64545" fill-opacity="0.75"/>
<circle cx="393.5" cy="250.1" r="4.2" fill="#d64545" fill-opacity="0.75"/>
<circle cx="371.9" cy="345.9" r="4.2" fill="#d64545" fill-opacity="0.75"/>
<circle cx="368.2" cy="338.8" r="4.2" fill="#d64545" fill-opacity="0.75"/>
<circle cx="317.9" cy="278.5" r="4.2" fill="#d64545" fill-opacity="0.75"/>
<circle cx="314.8" cy="277.2" r="4.2" fill="#d64545" fill-opacity="0.75"/>
<circle cx="458.1" cy="207.4" r="4.2" fill="#d64545" fill-opacity="0.75"/>
<circle cx="454.7" cy="192.2" r="4.2" fill="#d64545" fill-opacity="0.75"/>
<circle cx="382.7" cy="258.4" r="4.2" fill="#d64545" fill-opacity="0.75"/>
<circle cx="380.0" cy="254.0" r="4.2" fill="#d64545" fill-opacity="0.75"/>
<circle cx="451.0" cy="273.6" r="4.2" fill="#d64545" fill-opacity="0.75"/>
<circle cx="448.7" cy="275.6" r="4.2" fill="#d64545" fill-opacity="0.75"/>
<circle cx="505.5" cy="250.7" r="4.2" fill="#d64545" fill-opacity="0.75"/>
<circle cx="510.4" cy="252.8" r="4.2" fill="#d64545" fill-opacity="0.75"/>
<circle cx="366.3" cy="239.2" r="4.2" fill="#d64545" fill-opacity="0.75"/>
<circle cx="366.4" cy="243.3" r="4.2" fill="#d64545" fill-opacity="0.75"/>
<circle cx="432.4" cy="293.7" r="4.2" fill="#d64545" fill-opacity="0.75"/>
<circle cx="431.2" cy="292.3" r="4.2" fill="#d64545" fill-opacity="0.75"/>
<circle cx="363.8" cy="293.3" r="4.2" fill="#d64545" fill-opacity="0.75"/>
<circle cx="363.1" cy="291.6" r="4.2" fill="#d64545" fill-opacity="0.75"/>
<circle cx="362.0" cy="260.1" r="4.2" fill="#d64545" fill-opacity="0.75"/>
<circle cx="358.6" cy="253.4" r="4.2" fill="#d64545" fill-opacity="0.75"/>
<rect x="750" y="60" width="14" height="14" fill="#2f6fed"/>
<text x="770" y="72" font-size="14" font-family="Arial">photo</text>
<rect x="750" y="84" width="14" height="14" fill="#ff7a00"/>
<text x="770" y="96" font-size="14" font-family="Arial">Hayao</text>
<rect x="750" y="108" width="14" height="14" fill="#1fa971"/>
<text x="770" y="120" font-size="14" font-family="Arial">monet</text>
<rect x="750" y="132" width="14" height="14" fill="#a046f2"/>
<text x="770" y="144" font-size="14" font-family="Arial">vangogh</text>
<rect x="750" y="156" width="14" height="14" fill="#d64545"/>
<text x="770" y="168" font-size="14" font-family="Arial">cezanne</text>
</svg>