<svg xmlns="http://www.w3.org/2000/svg" width="900" height="520" viewBox="0 0 900 520">
<rect width="100%" height="100%" fill="white"/>
<text x="450.0" y="28" text-anchor="middle" font-size="22" font-family="Arial">MDS Scatter: latent_tree_swd_patch_3_25</text>
<rect x="70" y="50" width="650" height="420" fill="none" stroke="black"/>
<circle cx="465.1" cy="291.8" r="4.2" fill="#2f6fed" fill-opacity="0.75"/>
<circle cx="358.4" cy="180.2" r="4.2" fill="#2f6fed" fill-opacity="0.75"/>
<circle cx="238.1" cy="208.2" r="4.2" fill="#2f6fed" fill-opacity="0.75"/>
<circle cx="417.7" cy="172.7" r="4.2" fill="#2f6fed" fill-opacity="0.75"/>
<circle cx="282.7" cy="196.5" r="4.2" fill="#2f6fed" fill-opacity="0.75"/>
<circle cx="177.6" cy="253.3" r="4.2" fill="#2f6fed" fill-opacity="0.75"/>
<circle cx="159.0" cy="206.6" r="4.2" fill="#2f6fed" fill-opacity="0.75"/>
<circle cx="265.3" cy="151.3" r="4.2" fill="#2f6fed" fill-opacity="0.75"/>
<circle cx="451.6" cy="266.1" r="4.2" fill="#2f6fed" fill-opacity="0.75"/>
<circle cx="375.6" cy="331.5" r="4.2" fill="#2f6fed" fill-opacity="0.75"/>
<circle cx="258.6" cy="216.0" r="4.2" fill="#2f6fed" fill-opacity="0.75"/>
<circle cx="328.9" cy="229.3" r="4.2" fill="#2f6fed" fill-opacity="0.75"/>
<circle cx="395.4" cy="82.7" r="4.2" fill="#2f6fed" fill-opacity="0.75"/>
<circle cx="243.4" cy="207.4" r="4.2" fill="#2f6fed" fill-opacity="0.75"/>
<circle cx="490.9" cy="215.0" r="4.2" fill="#2f6fed" fill-opacity="0.75"/>
<circle cx="483.6" cy="207.8" r="4.2" fill="#2f6fed" fill-opacity="0.75"/>
<circle cx="286.4" cy="206.6" r="4.2" fill="#2f6fed" fill-opacity="0.75"/>
<circle cx="325.8" cy="185.4" r="4.2" fill="#2f6fed" fill-opacity="0.75"/>
<circle cx="137.5" cy="211.9" r="4.2" fill="#2f6fed" fill-opacity="0.75"/>
<circle cx="137.7" cy="169.1" r="4.2" fill="#2f6fed" fill-opacity="0.75"/>
<circle cx="464.5" cy="129.7" r="4.2" fill="#2f6fed" fill-opacity="0.75"/>
<circle cx="274.2" cy="264.9" r="4.2" fill="#2f6fed" fill-opacity="0.75"/>
<circle cx="295.0" cy="196.0" r="4.2" fill="#2f6fed" fill-opacity="0.75"/>
<circle cx="212.3" cy="198.0" r="4.2" fill="#2f6fed" fill-opacity="0.75"/>
<circle cx="340.6" cy="114.7" r="4.2" fill="#2f6fed" fill-opacity="0.75"/>
<circle cx="163.6" cy="121.5" r="4.2" fill="#2f6fed" fill-opacity="0.75"/>
<circle cx="188.8" cy="252.1" r="4.2" fill="#2f6fed" fill-opacity="0.75"/>
<circle cx="362.8" cy="190.0" r="4.2" fill="#2f6fed" fill-opacity="0.75"/>
<circle cx="393.4" cy="121.1" r="4.2" fill="#2f6fed" fill-opacity="0.75"/>
<circle cx="223.4" cy="220.6" r="4.2" fill="#2f6fed" fill-opacity="0.75"/>
<circle cx="541.4" cy="69.3" r="4.2" fill="#2f6fed" fill-opacity="0.75"/>
<circle cx="253.2" cy="92.0" r="4.2" fill="#2f6fed" fill-opacity="0.75"/>
<circle cx="255.6" cy="154.2" r="4.2" fill="#2f6fed" fill-opacity="0.75"/>
<circle cx="345.5" cy="190.1" r="4.2" fill="#2f6fed" fill-opacity="0.75"/>
<circle cx="176.1" cy="233.5" r="4.2" fill="#2f6fed" fill-opacity="0.75"/>
<circle cx="216.2" cy="167.2" r="4.2" fill="#2f6fed" fill-opacity="0.75"/>
<circle cx="474.4" cy="124.6" r="4.2" fill="#2f6fed" fill-opacity="0.75"/>
<circle cx="220.5" cy="270.3" r="4.2" fill="#2f6fed" fill-opacity="0.75"/>
<circle cx="385.6" cy="228.2" r="4.2" fill="#2f6fed" fill-opacity="0.75"/>
<circle cx="433.5" cy="237.1" r="4.2" fill="#2f6fed" fill-opacity="0.75"/>
<circle cx="214.9" cy="177.6" r="4.2" fill="#2f6fed" fill-opacity="0.75"/>
<circle cx="360.8" cy="257.3" r="4.2" fill="#2f6fed" fill-opacity="0.75"/>
<circle cx="377.9" cy="105.3" r="4.2" fill="#2f6fed" fill-opacity="0.75"/>
<circle cx="293.5" cy="145.8" r="4.2" fill="#2f6fed" fill-opacity="0.75"/>
<circle cx="345.3" cy="88.2" r="4.2" fill="#2f6fed" fill-opacity="0.75"/>
<circle cx="413.2" cy="81.5" r="4.2" fill="#2f6fed" fill-opacity="0.75"/>
<circle cx="373.2" cy="197.0" r="4.2" fill="#2f6fed" fill-opacity="0.75"/>
<circle cx="220.0" cy="185.8" r="4.2" fill="#2f6fed" fill-opacity="0.75"/>
<circle cx="592.5" cy="99.5" r="4.2" fill="#2f6fed" fill-opacity="0.75"/>
<circle cx="343.2" cy="179.9" r="4.2" fill="#2f6fed" fill-opacity="0.75"/>
<circle cx="167.0" cy="215.1" r="4.2" fill="#2f6fed" fill-opacity="0.75"/>
<circle cx="227.3" cy="229.8" r="4.2" fill="#2f6fed" fill-opacity="0.75"/>
<circle cx="247.3" cy="216.7" r="4.2" fill="#2f6fed" fill-opacity="0.75"/>
<circle cx="152.1" cy="216.9" r="4.2" fill="#2f6fed" fill-opacity="0.75"/>
<circle cx="166.8" cy="263.1" r="4.2" fill="#2f6fed" fill-opacity="0.75"/>
<circle cx="201.4" cy="209.2" r="4.2" fill="#2f6fed" fill-opacity="0.75"/>
<circle cx="335.0" cy="138.6" r="4.2" fill="#2f6fed" fill-opacity="0.75"/>
<circle cx="170.1" cy="161.8" r="4.2" fill="#2f6fed" fill-opacity="0.75"/>
<circle cx="412.4" cy="94.6" r="4.2" fill="#2f6fed" fill-opacity="0.75"/>
<circle cx="338.9" cy="135.8" r="4.2" fill="#2f6fed" fill-opacity="0.75"/>
<circle cx="431.4" cy="230.8" r="4.2" fill="#2f6fed" fill-opacity="0.75"/>
<circle cx="257.9" cy="155.4" r="4.2" fill="#2f6fed" fill-opacity="0.75"/>
<circle cx="377.9" cy="192.3" r="4.2" fill="#2f6fed" fill-opacity="0.75"/>
<circle cx="375.1" cy="71.7" r="4.2" fill="#2f6fed" fill-opacity="0.75"/>
<circle cx="454.0" cy="171.1" r="4.2" fill="#2f6fed" fill-opacity="0.75"/>
<circle cx="387.6" cy="196.4" r="4.2" fill="#2f6fed" fill-opacity="0.75"/>
<circle cx="331.0" cy="62.6" r="4.2" fill="#2f6fed" fill-opacity="0.75"/>
<circle cx="388.6" cy="199.0" r="4.2" fill="#2f6fed" fill-opacity="0.75"/>
<circle cx="104.7" cy="221.6" r="4.2" fill="#2f6fed" fill-opacity="0.75"/>
<circle cx="477.6" cy="256.3" r="4.2" fill="#2f6fed" fill-opacity="0.75"/>
<circle cx="326.6" cy="214.3" r="4.2" fill="#2f6fed" fill-opacity="0.75"/>
<circle cx="166.9" cy="218.0" r="4.2" fill="#2f6fed" fill-opacity="0.75"/>
<circle cx="573.2" cy="121.1" r="4.2" fill="#2f6fed" fill-opacity="0.75"/>
<circle cx="520.3" cy="141.2" r="4.2" fill="#2f6fed" fill-opacity="0.75"/>
<circle cx="242.3" cy="156.2" r="4.2" fill="#2f6fed" fill-opacity="0.75"/>
<circle cx="480.9" cy="134.3" r="4.2" fill="#2f6fed" fill-opacity="0.75"/>
<circle cx="356.2" cy="332.5" r="4.2" fill="#2f6fed" fill-opacity="0.75"/>
<circle cx="275.3" cy="140.9" r="4.2" fill="#2f6fed" fill-opacity="0.75"/>
<circle cx="476.4" cy="382.4" r="4.2" fill="#2f6fed" fill-opacity="0.75"/>
<circle cx="308.5" cy="282.4" r="4.2" fill="#2f6fed" fill-opacity="0.75"/>
<circle cx="389.3" cy="463.5" r="4.2" fill="#2f6fed" fill-opacity="0.75"/>
<circle cx="331.8" cy="159.2" r="4.2" fill="#2f6fed" fill-opacity="0.75"/>
<circle cx="363.9" cy="146.9" r="4.2" fill="#2f6fed" fill-opacity="0.75"/>
<circle cx="306.0" cy="100.6" r="4.2" fill="#2f6fed" fill-opacity="0.75"/>
<circle cx="720.0" cy="210.8" r="4.2" fill="#2f6fed" fill-opacity="0.75"/>
<circle cx="328.5" cy="228.5" r="4.2" fill="#2f6fed" fill-opacity="0.75"/>
<circle cx="210.9" cy="238.5" r="4.2" fill="#2f6fed" fill-opacity="0.75"/>
<circle cx="385.5" cy="235.0" r="4.2" fill="#2f6fed" fill-opacity="0.75"/>
<circle cx="367.3" cy="181.2" r="4.2" fill="#2f6fed" fill-opacity="0.75"/>
<circle cx="279.3" cy="150.4" r="4.2" fill="#2f6fed" fill-opacity="0.75"/>
<circle cx="188.0" cy="202.5" r="4.2" fill="#2f6fed" fill-opacity="0.75"/>
<circle cx="425.2" cy="256.6" r="4.2" fill="#2f6fed" fill-opacity="0.75"/>
<circle cx="154.8" cy="227.1" r="4.2" fill="#2f6fed" fill-opacity="0.75"/>
<circle cx="352.4" cy="172.1" r="4.2" fill="#2f6fed" fill-opacity="0.75"/>
<circle cx="339.3" cy="256.6" r="4.2" fill="#2f6fed" fill-opacity="0.75"/>
<circle cx="378.6" cy="83.6" r="4.2" fill="#2f6fed" fill-opacity="0.75"/>
<circle cx="454.7" cy="470.0" r="4.2" fill="#2f6fed" fill-opacity="0.75"/>
<circle cx="171.5" cy="160.1" r="4.2" fill="#2f6fed" fill-opacity="0.75"/>
<circle cx="307.0" cy="248.2" r="4.2" fill="#2f6fed" fill-opacity="0.75"/>
<circle cx="467.0" cy="400.5" r="4.2" fill="#2f6fed" fill-opacity="0.75"/>
<circle cx="207.1" cy="188.8" r="4.2" fill="#ff7a00" fill-opacity="0.75"/>
<circle cx="717.7" cy="291.1" r="4.2" fill="#ff7a00" fill-opacity="0.75"/>
<circle cx="520.2" cy="256.4" r="4.2" fill="#ff7a00" fill-opacity="0.75"/>
<circle cx="198.7" cy="240.7" r="4.2" fill="#ff7a00" fill-opacity="0.75"/>
<circle cx="370.3" cy="293.7" r="4.2" fill="#ff7a00" fill-opacity="0.75"/>
<circle cx="243.2" cy="130.3" r="4.2" fill="#ff7a00" fill-opacity="0.75"/>
<circle cx="604.5" cy="265.2" r="4.2" fill="#ff7a00" fill-opacity="0.75"/>
<circle cx="251.0" cy="211.6" r="4.2" fill="#ff7a00" fill-opacity="0.75"/>
<circle cx="481.2" cy="204.7" r="4.2" fill="#ff7a00" fill-opacity="0.75"/>
<circle cx="463.4" cy="264.4" r="4.2" fill="#ff7a00" fill-opacity="0.75"/>
<circle cx="159.8" cy="237.8" r="4.2" fill="#ff7a00" fill-opacity="0.75"/>
<circle cx="287.4" cy="191.3" r="4.2" fill="#ff7a00" fill-opacity="0.75"/>
<circle cx="305.4" cy="187.5" r="4.2" fill="#ff7a00" fill-opacity="0.75"/>
<circle cx="301.5" cy="176.8" r="4.2" fill="#ff7a00" fill-opacity="0.75"/>
<circle cx="335.9" cy="189.0" r="4.2" fill="#ff7a00" fill-opacity="0.75"/>
<circle cx="438.0" cy="222.3" r="4.2" fill="#ff7a00" fill-opacity="0.75"/>
<circle cx="508.9" cy="289.3" r="4.2" fill="#ff7a00" fill-opacity="0.75"/>
<circle cx="157.7" cy="252.8" r="4.2" fill="#ff7a00" fill-opacity="0.75"/>
<circle cx="323.4" cy="370.5" r="4.2" fill="#ff7a00" fill-opacity="0.75"/>
<circle cx="222.8" cy="225.3" r="4.2" fill="#ff7a00" fill-opacity="0.75"/>
<circle cx="489.1" cy="217.1" r="4.2" fill="#ff7a00" fill-opacity="0.75"/>
<circle cx="554.7" cy="327.0" r="4.2" fill="#ff7a00" fill-opacity="0.75"/>
<circle cx="104.9" cy="165.4" r="4.2" fill="#ff7a00" fill-opacity="0.75"/>
<circle cx="266.7" cy="231.1" r="4.2" fill="#ff7a00" fill-opacity="0.75"/>
<circle cx="114.8" cy="220.8" r="4.2" fill="#ff7a00" fill-opacity="0.75"/>
<circle cx="385.1" cy="225.8" r="4.2" fill="#ff7a00" fill-opacity="0.75"/>
<circle cx="184.0" cy="211.8" r="4.2" fill="#ff7a00" fill-opacity="0.75"/>
<circle cx="183.8" cy="236.2" r="4.2" fill="#ff7a00" fill-opacity="0.75"/>
<circle cx="260.7" cy="207.4" r="4.2" fill="#ff7a00" fill-opacity="0.75"/>
<circle cx="167.3" cy="238.8" r="4.2" fill="#ff7a00" fill-opacity="0.75"/>
<circle cx="485.1" cy="236.8" r="4.2" fill="#ff7a00" fill-opacity="0.75"/>
<circle cx="282.8" cy="176.0" r="4.2" fill="#ff7a00" fill-opacity="0.75"/>
<circle cx="548.8" cy="249.9" r="4.2" fill="#ff7a00" fill-opacity="0.75"/>
<circle cx="277.9" cy="235.9" r="4.2" fill="#ff7a00" fill-opacity="0.75"/>
<circle cx="142.0" cy="220.7" r="4.2" fill="#ff7a00" fill-opacity="0.75"/>
<circle cx="264.8" cy="223.6" r="4.2" fill="#ff7a00" fill-opacity="0.75"/>
<circle cx="186.4" cy="208.0" r="4.2" fill="#ff7a00" fill-opacity="0.75"/>
<circle cx="224.6" cy="220.0" r="4.2" fill="#ff7a00" fill-opacity="0.75"/>
<circle cx="196.0" cy="198.2" r="4.2" fill="#ff7a00" fill-opacity="0.75"/>
<circle cx="529.8" cy="278.2" r="4.2" fill="#ff7a00" fill-opacity="0.75"/>
<circle cx="264.7" cy="192.2" r="4.2" fill="#ff7a00" fill-opacity="0.75"/>
<circle cx="487.6" cy="325.3" r="4.2" fill="#ff7a00" fill-opacity="0.75"/>
<circle cx="274.8" cy="219.1" r="4.2" fill="#ff7a00" fill-opacity="0.75"/>
<circle cx="286.6" cy="188.6" r="4.2" fill="#ff7a00" fill-opacity="0.75"/>
<circle cx="381.6" cy="216.3" r="4.2" fill="#ff7a00" fill-opacity="0.75"/>
<circle cx="277.5" cy="264.5" r="4.2" fill="#ff7a00" fill-opacity="0.75"/>
<circle cx="182.4" cy="210.6" r="4.2" fill="#ff7a00" fill-opacity="0.75"/>
<circle cx="203.8" cy="198.3" r="4.2" fill="#ff7a00" fill-opacity="0.75"/>
<circle cx="242.3" cy="231.4" r="4.2" fill="#ff7a00" fill-opacity="0.75"/>
<circle cx="397.1" cy="333.6" r="4.2" fill="#ff7a00" fill-opacity="0.75"/>
<circle cx="170.0" cy="250.8" r="4.2" fill="#ff7a00" fill-opacity="0.75"/>
<circle cx="153.5" cy="187.8" r="4.2" fill="#ff7a00" fill-opacity="0.75"/>
<circle cx="186.6" cy="199.7" r="4.2" fill="#ff7a00" fill-opacity="0.75"/>
<circle cx="362.2" cy="272.6" r="4.2" fill="#ff7a00" fill-opacity="0.75"/>
<circle cx="239.8" cy="156.5" r="4.2" fill="#ff7a00" fill-opacity="0.75"/>
<circle cx="250.7" cy="259.6" r="4.2" fill="#ff7a00" fill-opacity="0.75"/>
<circle cx="315.9" cy="152.0" r="4.2" fill="#ff7a00" fill-opacity="0.75"/>
<circle cx="328.7" cy="201.8" r="4.2" fill="#ff7a00" fill-opacity="0.75"/>
<circle cx="144.6" cy="241.5" r="4.2" fill="#ff7a00" fill-opacity="0.75"/>
<circle cx="271.7" cy="309.0" r="4.2" fill="#ff7a00" fill-opacity="0.75"/>
<circle cx="238.6" cy="258.0" r="4.2" fill="#ff7a00" fill-opacity="0.75"/>
<circle cx="275.4" cy="236.6" r="4.2" fill="#ff7a00" fill-opacity="0.75"/>
<circle cx="226.5" cy="269.0" r="4.2" fill="#ff7a00" fill-opacity="0.75"/>
<circle cx="460.8" cy="311.3" r="4.2" fill="#ff7a00" fill-opacity="0.75"/>
<circle cx="194.8" cy="259.4" r="4.2" fill="#ff7a00" fill-opacity="0.75"/>
<circle cx="269.7" cy="223.1" r="4.2" fill="#ff7a00" fill-opacity="0.75"/>
<circle cx="174.0" cy="170.4" r="4.2" fill="#ff7a00" fill-opacity="0.75"/>
<circle cx="422.0" cy="236.2" r="4.2" fill="#ff7a00" fill-opacity="0.75"/>
<circle cx="159.8" cy="225.6" r="4.2" fill="#ff7a00" fill-opacity="0.75"/>
<circle cx="417.6" cy="290.9" r="4.2" fill="#ff7a00" fill-opacity="0.75"/>
<circle cx="468.3" cy="276.6" r="4.2" fill="#ff7a00" fill-opacity="0.75"/>
<circle cx="508.4" cy="248.5" r="4.2" fill="#ff7a00" fill-opacity="0.75"/>
<circle cx="264.2" cy="215.3" r="4.2" fill="#ff7a00" fill-opacity="0.75"/>
<circle cx="254.4" cy="300.5" r="4.2" fill="#ff7a00" fill-opacity="0.75"/>
<circle cx="297.7" cy="214.6" r="4.2" fill="#ff7a00" fill-opacity="0.75"/>
<circle cx="178.0" cy="224.0" r="4.2" fill="#ff7a00" fill-opacity="0.75"/>
<circle cx="215.4" cy="220.2" r="4.2" fill="#ff7a00" fill-opacity="0.75"/>
<circle cx="409.2" cy="263.6" r="4.2" fill="#ff7a00" fill-opacity="0.75"/>
<circle cx="199.0" cy="223.6" r="4.2" fill="#ff7a00" fill-opacity="0.75"/>
<circle cx="165.5" cy="174.2" r="4.2" fill="#ff7a00" fill-opacity="0.75"/>
<circle cx="114.1" cy="180.7" r="4.2" fill="#ff7a00" fill-opacity="0.75"/>
<circle cx="431.3" cy="288.3" r="4.2" fill="#ff7a00" fill-opacity="0.75"/>
<circle cx="608.1" cy="277.6" r="4.2" fill="#ff7a00" fill-opacity="0.75"/>
<circle cx="239.6" cy="231.5" r="4.2" fill="#ff7a00" fill-opacity="0.75"/>
<circle cx="443.4" cy="213.7" r="4.2" fill="#ff7a00" fill-opacity="0.75"/>
<circle cx="403.6" cy="258.8" r="4.2" fill="#ff7a00" fill-opacity="0.75"/>
<circle cx="206.9" cy="217.0" r="4.2" fill="#ff7a00" fill-opacity="0.75"/>
<circle cx="160.8" cy="294.5" r="4.2" fill="#ff7a00" fill-opacity="0.75"/>
<circle cx="625.8" cy="196.7" r="4.2" fill="#ff7a00" fill-opacity="0.75"/>
<circle cx="270.6" cy="136.0" r="4.2" fill="#ff7a00" fill-opacity="0.75"/>
<circle cx="205.1" cy="201.9" r="4.2" fill="#ff7a00" fill-opacity="0.75"/>
<circle cx="161.6" cy="223.3" r="4.2" fill="#ff7a00" fill-opacity="0.75"/>
<circle cx="541.7" cy="246.8" r="4.2" fill="#ff7a00" fill-opacity="0.75"/>
<circle cx="155.1" cy="203.7" r="4.2" fill="#ff7a00" fill-opacity="0.75"/>
<circle cx="413.6" cy="342.4" r="4.2" fill="#ff7a00" fill-opacity="0.75"/>
<circle cx="212.5" cy="239.9" r="4.2" fill="#ff7a00" fill-opacity="0.75"/>
<circle cx="137.3" cy="191.2" r="4.2" fill="#ff7a00" fill-opacity="0.75"/>
<circle cx="394.5" cy="228.3" r="4.2" fill="#ff7a00" fill-opacity="0.75"/>
<circle cx="462.2" cy="241.1" r="4.2" fill="#ff7a00" fill-opacity="0.75"/>
<circle cx="444.7" cy="229.6" r="4.2" fill="#ff7a00" fill-opacity="0.75"/>
<circle cx="261.9" cy="176.2" r="4.2" fill="#1fa971" fill-opacity="0.75"/>
<circle cx="336.2" cy="140.1" r="4.2" fill="#1fa971" fill-opacity="0.75"/>
<circle cx="412.1" cy="195.0" r="4.2" fill="#1fa971" fill-opacity="0.75"/>
<circle cx="196.6" cy="258.2" r="4.2" fill="#1fa971" fill-opacity="0.75"/>
<circle cx="183.9" cy="206.7" r="4.2" fill="#1fa971" fill-opacity="0.75"/>
<circle cx="70.0" cy="240.2" r="4.2" fill="#1fa971" fill-opacity="0.75"/>
<circle cx="127.8" cy="240.4" r="4.2" fill="#1fa971" fill-opacity="0.75"/>
<circle cx="169.5" cy="212.6" r="4.2" fill="#1fa971" fill-opacity="0.75"/>
<circle cx="226.1" cy="227.8" r="4.2" fill="#1fa971" fill-opacity="0.75"/>
<circle cx="154.8" cy="265.8" r="4.2" fill="#1fa971" fill-opacity="0.75"/>
<circle cx="149.8" cy="178.4" r="4.2" fill="#1fa971" fill-opacity="0.75"/>
<circle cx="195.5" cy="149.8" r="4.2" fill="#1fa971" fill-opacity="0.75"/>
<circle cx="187.0" cy="237.0" r="4.2" fill="#1fa971" fill-opacity="0.75"/>
<circle cx="204.2" cy="189.4" r="4.2" fill="#1fa971" fill-opacity="0.75"/>
<circle cx="167.7" cy="166.6" r="4.2" fill="#1fa971" fill-opacity="0.75"/>
<circle cx="101.9" cy="228.5" r="4.2" fill="#1fa971" fill-opacity="0.75"/>
<circle cx="147.1" cy="238.9" r="4.2" fill="#1fa971" fill-opacity="0.75"/>
<circle cx="290.2" cy="129.3" r="4.2" fill="#1fa971" fill-opacity="0.75"/>
<circle cx="128.7" cy="210.6" r="4.2" fill="#1fa971" fill-opacity="0.75"/>
<circle cx="431.4" cy="56.6" r="4.2" fill="#1fa971" fill-opacity="0.75"/>
<circle cx="254.8" cy="177.9" r="4.2" fill="#1fa971" fill-opacity="0.75"/>
<circle cx="496.4" cy="311.0" r="4.2" fill="#1fa971" fill-opacity="0.75"/>
<circle cx="507.4" cy="281.3" r="4.2" fill="#1fa971" fill-opacity="0.75"/>
<circle cx="168.7" cy="143.8" r="4.2" fill="#1fa971" fill-opacity="0.75"/>
<circle cx="218.5" cy="89.7" r="4.2" fill="#1fa971" fill-opacity="0.75"/>
<circle cx="442.6" cy="63.1" r="4.2" fill="#1fa971" fill-opacity="0.75"/>
<circle cx="160.4" cy="210.3" r="4.2" fill="#1fa971" fill-opacity="0.75"/>
<circle cx="357.7" cy="212.3" r="4.2" fill="#1fa971" fill-opacity="0.75"/>
<circle cx="283.2" cy="239.6" r="4.2" fill="#1fa971" fill-opacity="0.75"/>
<circle cx="325.6" cy="149.8" r="4.2" fill="#1fa971" fill-opacity="0.75"/>
<circle cx="217.0" cy="123.6" r="4.2" fill="#1fa971" fill-opacity="0.75"/>
<circle cx="313.5" cy="199.6" r="4.2" fill="#1fa971" fill-opacity="0.75"/>
<circle cx="135.8" cy="199.8" r="4.2" fill="#1fa971" fill-opacity="0.75"/>
<circle cx="293.5" cy="159.5" r="4.2" fill="#1fa971" fill-opacity="0.75"/>
<circle cx="293.4" cy="205.6" r="4.2" fill="#1fa971" fill-opacity="0.75"/>
<circle cx="312.6" cy="232.9" r="4.2" fill="#1fa971" fill-opacity="0.75"/>
<circle cx="181.7" cy="191.0" r="4.2" fill="#1fa971" fill-opacity="0.75"/>
<circle cx="150.7" cy="217.5" r="4.2" fill="#1fa971" fill-opacity="0.75"/>
<circle cx="418.4" cy="147.5" r="4.2" fill="#1fa971" fill-opacity="0.75"/>
<circle cx="224.1" cy="138.7" r="4.2" fill="#1fa971" fill-opacity="0.75"/>
<circle cx="132.9" cy="261.6" r="4.2" fill="#1fa971" fill-opacity="0.75"/>
<circle cx="245.3" cy="199.7" r="4.2" fill="#1fa971" fill-opacity="0.75"/>
<circle cx="266.3" cy="152.3" r="4.2" fill="#1fa971" fill-opacity="0.75"/>
<circle cx="266.7" cy="117.3" r="4.2" fill="#1fa971" fill-opacity="0.75"/>
<circle cx="289.4" cy="177.7" r="4.2" fill="#1fa971" fill-opacity="0.75"/>
<circle cx="345.8" cy="156.3" r="4.2" fill="#1fa971" fill-opacity="0.75"/>
<circle cx="249.8" cy="200.5" r="4.2" fill="#1fa971" fill-opacity="0.75"/>
<circle cx="240.9" cy="182.3" r="4.2" fill="#1fa971" fill-opacity="0.75"/>
<circle cx="180.8" cy="230.8" r="4.2" fill="#1fa971" fill-opacity="0.75"/>
<circle cx="177.2" cy="166.8" r="4.2" fill="#1fa971" fill-opacity="0.75"/>
<circle cx="126.7" cy="243.3" r="4.2" fill="#1fa971" fill-opacity="0.75"/>
<circle cx="198.9" cy="190.7" r="4.2" fill="#1fa971" fill-opacity="0.75"/>
<circle cx="298.7" cy="101.8" r="4.2" fill="#1fa971" fill-opacity="0.75"/>
<circle cx="122.1" cy="224.4" r="4.2" fill="#1fa971" fill-opacity="0.75"/>
<circle cx="348.9" cy="196.1" r="4.2" fill="#1fa971" fill-opacity="0.75"/>
<circle cx="221.3" cy="165.2" r="4.2" fill="#1fa971" fill-opacity="0.75"/>
<circle cx="262.1" cy="153.5" r="4.2" fill="#1fa971" fill-opacity="0.75"/>
<circle cx="265.5" cy="291.5" r="4.2" fill="#1fa971" fill-opacity="0.75"/>
<circle cx="161.2" cy="156.0" r="4.2" fill="#1fa971" fill-opacity="0.75"/>
<circle cx="164.9" cy="323.9" r="4.2" fill="#1fa971" fill-opacity="0.75"/>
<circle cx="362.2" cy="50.0" r="4.2" fill="#1fa971" fill-opacity="0.75"/>
<circle cx="151.1" cy="124.8" r="4.2" fill="#1fa971" fill-opacity="0.75"/>
<circle cx="246.1" cy="222.2" r="4.2" fill="#1fa971" fill-opacity="0.75"/>
<circle cx="332.4" cy="201.0" r="4.2" fill="#1fa971" fill-opacity="0.75"/>
<circle cx="237.7" cy="166.3" r="4.2" fill="#1fa971" fill-opacity="0.75"/>
<circle cx="294.9" cy="144.4" r="4.2" fill="#1fa971" fill-opacity="0.75"/>
<circle cx="189.9" cy="203.5" r="4.2" fill="#1fa971" fill-opacity="0.75"/>
<circle cx="163.2" cy="158.6" r="4.2" fill="#1fa971" fill-opacity="0.75"/>
<circle cx="98.1" cy="256.5" r="4.2" fill="#1fa971" fill-opacity="0.75"/>
<circle cx="135.2" cy="294.9" r="4.2" fill="#1fa971" fill-opacity="0.75"/>
<circle cx="149.5" cy="325.2" r="4.2" fill="#1fa971" fill-opacity="0.75"/>
<circle cx="124.0" cy="272.4" r="4.2" fill="#1fa971" fill-opacity="0.75"/>
<circle cx="272.0" cy="278.4" r="4.2" fill="#1fa971" fill-opacity="0.75"/>
<circle cx="208.0" cy="317.5" r="4.2" fill="#1fa971" fill-opacity="0.75"/>
<circle cx="156.1" cy="281.0" r="4.2" fill="#1fa971" fill-opacity="0.75"/>
<circle cx="166.5" cy="255.2" r="4.2" fill="#1fa971" fill-opacity="0.75"/>
<circle cx="155.8" cy="194.5" r="4.2" fill="#1fa971" fill-opacity="0.75"/>
<circle cx="143.7" cy="260.2" r="4.2" fill="#1fa971" fill-opacity="0.75"/>
<circle cx="123.1" cy="240.5" r="4.2" fill="#1fa971" fill-opacity="0.75"/>
<circle cx="164.6" cy="246.4" r="4.2" fill="#1fa971" fill-opacity="0.75"/>
<circle cx="163.4" cy="189.1" r="4.2" fill="#1fa971" fill-opacity="0.75"/>
<circle cx="131.5" cy="247.5" r="4.2" fill="#1fa971" fill-opacity="0.75"/>
<circle cx="230.1" cy="186.0" r="4.2" fill="#1fa971" fill-opacity="0.75"/>
<circle cx="192.3" cy="218.6" r="4.2" fill="#1fa971" fill-opacity="0.75"/>
<circle cx="230.9" cy="94.2" r="4.2" fill="#1fa971" fill-opacity="0.75"/>
<circle cx="170.8" cy="178.2" r="4.2" fill="#1fa971" fill-opacity="0.75"/>
<circle cx="206.7" cy="244.6" r="4.2" fill="#1fa971" fill-opacity="0.75"/>
<circle cx="480.1" cy="262.0" r="4.2" fill="#1fa971" fill-opacity="0.75"/>
<circle cx="215.9" cy="162.4" r="4.2" fill="#1fa971" fill-opacity="0.75"/>
<circle cx="146.2" cy="241.1" r="4.2" fill="#1fa971" fill-opacity="0.75"/>
<circle cx="328.4" cy="233.3" r="4.2" fill="#1fa971" fill-opacity="0.75"/>
<circle cx="135.4" cy="259.7" r="4.2" fill="#1fa971" fill-opacity="0.75"/>
<circle cx="137.9" cy="182.7" r="4.2" fill="#1fa971" fill-opacity="0.75"/>
<circle cx="164.2" cy="124.9" r="4.2" fill="#1fa971" fill-opacity="0.75"/>
<circle cx="321.0" cy="146.5" r="4.2" fill="#1fa971" fill-opacity="0.75"/>
<circle cx="185.6" cy="242.7" r="4.2" fill="#1fa971" fill-opacity="0.75"/>
<circle cx="290.2" cy="161.2" r="4.2" fill="#1fa971" fill-opacity="0.75"/>
<circle cx="252.9" cy="185.6" r="4.2" fill="#1fa971" fill-opacity="0.75"/>
<circle cx="209.7" cy="301.0" r="4.2" fill="#1fa971" fill-opacity="0.75"/>
<circle cx="195.5" cy="165.7" r="4.2" fill="#1fa971" fill-opacity="0.75"/>
<circle cx="128.2" cy="265.0" r="4.2" fill="#a046f2" fill-opacity="0.75"/>
<circle cx="130.5" cy="270.2" r="4.2" fill="#a046f2" fill-opacity="0.75"/>
<circle cx="294.9" cy="338.8" r="4.2" fill="#a046f2" fill-opacity="0.75"/>
<circle cx="298.3" cy="334.5" r="4.2" fill="#a046f2" fill-opacity="0.75"/>
<circle cx="185.1" cy="277.8" r="4.2" fill="#a046f2" fill-opacity="0.75"/>
<circle cx="196.5" cy="269.1" r="4.2" fill="#a046f2" fill-opacity="0.75"/>
<circle cx="226.8" cy="239.8" r="4.2" fill="#a046f2" fill-opacity="0.75"/>
<circle cx="229.0" cy="242.5" r="4.2" fill="#a046f2" fill-opacity="0.75"/>
<circle cx="111.3" cy="200.7" r="4.2" fill="#a046f2" fill-opacity="0.75"/>
<circle cx="119.3" cy="198.7" r="4.2" fill="#a046f2" fill-opacity="0.75"/>
<circle cx="171.2" cy="278.1" r="4.2" fill="#a046f2" fill-opacity="0.75"/>
<circle cx="165.4" cy="281.3" r="4.2" fill="#a046f2" fill-opacity="0.75"/>
<circle cx="255.4" cy="348.1" r="4.2" fill="#a046f2" fill-opacity="0.75"/>
<circle cx="253.3" cy="351.5" r="4.2" fill="#a046f2" fill-opacity="0.75"/>
<circle cx="132.7" cy="219.7" r="4.2" fill="#a046f2" fill-opacity="0.75"/>
<circle cx="148.3" cy="222.2" r="4.2" fill="#a046f2" fill-opacity="0.75"/>
<circle cx="115.8" cy="243.2" r="4.2" fill="#a046f2" fill-opacity="0.75"/>
<circle cx="122.0" cy="252.6" r="4.2" fill="#a046f2" fill-opacity="0.75"/>
<circle cx="85.7" cy="230.3" r="4.2" fill="#a046f2" fill-opacity="0.75"/>
<circle cx="79.0" cy="226.9" r="4.2" fill="#a046f2" fill-opacity="0.75"/>
<circle cx="109.1" cy="247.7" r="4.2" fill="#a046f2" fill-opacity="0.75"/>
<circle cx="99.3" cy="246.5" r="4.2" fill="#a046f2" fill-opacity="0.75"/>
<circle cx="315.5" cy="358.7" r="4.2" fill="#a046f2" fill-opacity="0.75"/>
<circle cx="303.8" cy="361.7" r="4.2" fill="#a046f2" fill-opacity="0.75"/>
<circle cx="101.7" cy="290.3" r="4.2" fill="#a046f2" fill-opacity="0.75"/>
<circle cx="101.5" cy="301.0" r="4.2" fill="#a046f2" fill-opacity="0.75"/>
<circle cx="319.9" cy="378.2" r="4.2" fill="#a046f2" fill-opacity="0.75"/>
<circle cx="310.7" cy="383.2" r="4.2" fill="#a046f2" fill-opacity="0.75"/>
<circle cx="293.5" cy="244.8" r="4.2" fill="#a046f2" fill-opacity="0.75"/>
<circle cx="273.6" cy="253.6" r="4.2" fill="#a046f2" fill-opacity="0.75"/>
<circle cx="229.9" cy="201.3" r="4.2" fill="#a046f2" fill-opacity="0.75"/>
<circle cx="228.4" cy="194.7" r="4.2" fill="#a046f2" fill-opacity="0.75"/>
<circle cx="134.4" cy="216.7" r="4.2" fill="#a046f2" fill-opacity="0.75"/>
<circle cx="139.8" cy="221.5" r="4.2" fill="#a046f2" fill-opacity="0.75"/>
<circle cx="412.4" cy="102.1" r="4.2" fill="#a046f2" fill-opacity="0.75"/>
<circle cx="412.7" cy="97.4" r="4.2" fill="#a046f2" fill-opacity="0.75"/>
<circle cx="121.5" cy="241.2" r="4.2" fill="#a046f2" fill-opacity="0.75"/>
<circle cx="122.6" cy="239.1" r="4.2" fill="#a046f2" fill-opacity="0.75"/>
<circle cx="255.0" cy="139.9" r="4.2" fill="#a046f2" fill-opacity="0.75"/>
<circle cx="245.2" cy="135.2" r="4.2" fill="#a046f2" fill-opacity="0.75"/>
<circle cx="195.3" cy="377.0" r="4.2" fill="#a046f2" fill-opacity="0.75"/>
<circle cx="194.7" cy="376.9" r="4.2" fill="#a046f2" fill-opacity="0.75"/>
<circle cx="175.3" cy="219.5" r="4.2" fill="#a046f2" fill-opacity="0.75"/>
<circle cx="177.6" cy="227.7" r="4.2" fill="#a046f2" fill-opacity="0.75"/>
<circle cx="152.0" cy="251.3" r="4.2" fill="#a046f2" fill-opacity="0.75"/>
<circle cx="158.1" cy="261.1" r="4.2" fill="#a046f2" fill-opacity="0.75"/>
<circle cx="171.8" cy="295.1" r="4.2" fill="#a046f2" fill-opacity="0.75"/>
<circle cx="196.1" cy="294.8" r="4.2" fill="#a046f2" fill-opacity="0.75"/>
<circle cx="200.3" cy="311.2" r="4.2" fill="#a046f2" fill-opacity="0.75"/>
<circle cx="188.7" cy="304.5" r="4.2" fill="#a046f2" fill-opacity="0.75"/>
<circle cx="160.0" cy="212.4" r="4.2" fill="#a046f2" fill-opacity="0.75"/>
<circle cx="155.9" cy="213.4" r="4.2" fill="#a046f2" fill-opacity="0.75"/>
<circle cx="245.0" cy="383.7" r="4.2" fill="#a046f2" fill-opacity="0.75"/>
<circle cx="240.8" cy="371.5" r="4.2" fill="#a046f2" fill-opacity="0.75"/>
<circle cx="134.6" cy="241.9" r="4.2" fill="#a046f2" fill-opacity="0.75"/>
<circle cx="128.8" cy="243.8" r="4.2" fill="#a046f2" fill-opacity="0.75"/>
<circle cx="174.1" cy="203.2" r="4.2" fill="#a046f2" fill-opacity="0.75"/>
<circle cx="166.6" cy="207.5" r="4.2" fill="#a046f2" fill-opacity="0.75"/>
<circle cx="216.3" cy="311.6" r="4.2" fill="#a046f2" fill-opacity="0.75"/>
<circle cx="217.0" cy="303.7" r="4.2" fill="#a046f2" fill-opacity="0.75"/>
<circle cx="141.7" cy="213.7" r="4.2" fill="#a046f2" fill-opacity="0.75"/>
<circle cx="143.3" cy="218.3" r="4.2" fill="#a046f2" fill-opacity="0.75"/>
<circle cx="114.2" cy="191.2" r="4.2" fill="#a046f2" fill-opacity="0.75"/>
<circle cx="112.8" cy="192.5" r="4.2" fill="#a046f2" fill-opacity="0.75"/>
<circle cx="391.0" cy="422.8" r="4.2" fill="#a046f2" fill-opacity="0.75"/>
<circle cx="374.7" cy="413.8" r="4.2" fill="#a046f2" fill-opacity="0.75"/>
<circle cx="138.3" cy="245.6" r="4.2" fill="#a046f2" fill-opacity="0.75"/>
<circle cx="135.6" cy="245.2" r="4.2" fill="#a046f2" fill-opacity="0.75"/>
<circle cx="298.7" cy="344.6" r="4.2" fill="#a046f2" fill-opacity="0.75"/>
<circle cx="296.2" cy="348.6" r="4.2" fill="#a046f2" fill-opacity="0.75"/>
<circle cx="166.1" cy="212.5" r="4.2" fill="#a046f2" fill-opacity="0.75"/>
<circle cx="171.1" cy="212.3" r="4.2" fill="#a046f2" fill-opacity="0.75"/>
<circle cx="135.2" cy="163.3" r="4.2" fill="#a046f2" fill-opacity="0.75"/>
<circle cx="139.9" cy="167.3" r="4.2" fill="#a046f2" fill-opacity="0.75"/>
<circle cx="171.1" cy="216.6" r="4.2" fill="#a046f2" fill-opacity="0.75"/>
<circle cx="159.5" cy="222.4" r="4.2" fill="#a046f2" fill-opacity="0.75"/>
<circle cx="155.3" cy="194.4" r="4.2" fill="#a046f2" fill-opacity="0.75"/>
<circle cx="164.5" cy="202.7" r="4.2" fill="#a046f2" fill-opacity="0.75"/>
<circle cx="162.5" cy="172.6" r="4.2" fill="#a046f2" fill-opacity="0.75"/>
<circle cx="174.7" cy="175.8" r="4.2" fill="#a046f2" fill-opacity="0.75"/>
<circle cx="190.1" cy="231.7" r="4.2" fill="#a046f2" fill-opacity="0.75"/>
<circle cx="193.6" cy="228.6" r="4.2" fill="#a046f2" fill-opacity="0.75"/>
<circle cx="257.7" cy="196.4" r="4.2" fill="#a046f2" fill-opacity="0.75"/>
<circle cx="261.8" cy="190.6" r="4.2" fill="#a046f2" fill-opacity="0.75"/>
<circle cx="171.4" cy="164.2" r="4.2" fill="#a046f2" fill-opacity="0.75"/>
<circle cx="192.2" cy="160.3" r="4.2" fill="#a046f2" fill-opacity="0.75"/>
<circle cx="125.7" cy="165.5" r="4.2" fill="#a046f2" fill-opacity="0.75"/>
<circle cx="122.9" cy="167.6" r="4.2" fill="#a046f2" fill-opacity="0.75"/>
<circle cx="266.6" cy="318.3" r="4.2" fill="#a046f2" fill-opacity="0.75"/>
<circle cx="266.6" cy="312.5" r="4.2" fill="#a046f2" fill-opacity="0.75"/>
<circle cx="78.1" cy="229.9" r="4.2" fill="#a046f2" fill-opacity="0.75"/>
<circle cx="77.5" cy="227.7" r="4.2" fill="#a046f2" fill-opacity="0.75"/>
<circle cx="108.4" cy="219.7" r="4.2" fill="#a046f2" fill-opacity="0.75"/>
<circle cx="104.4" cy="208.2" r="4.2" fill="#a046f2" fill-opacity="0.75"/>
<circle cx="144.9" cy="231.0" r="4.2" fill="#a046f2" fill-opacity="0.75"/>
<circle cx="154.0" cy="230.2" r="4.2" fill="#a046f2" fill-opacity="0.75"/>
<circle cx="120.0" cy="204.9" r="4.2" fill="#a046f2" fill-opacity="0.75"/>
<circle cx="121.8" cy="205.7" r="4.2" fill="#a046f2" fill-opacity="0.75"/>
<circle cx="155.5" cy="302.0" r="4.2" fill="#a046f2" fill-opacity="0.75"/>
<circle cx="174.9" cy="316.9" r="4.2" fill="#a046f2" fill-opacity="0.75"/>
<circle cx="138.4" cy="236.3" r="4.2" fill="#d64545" fill-opacity="0.75"/>
<circle cx="133.6" cy="235.5" r="4.2" fill="#d64545" fill-opacity="0.75"/>
<circle cx="215.9" cy="218.9" r="4.2" fill="#d64545" fill-opacity="0.75"/>
<circle cx="214.7" cy="221.0" r="4.2" fill="#d64545" fill-opacity="0.75"/>
<circle cx="247.4" cy="194.6" r="4.2" fill="#d64545" fill-opacity="0.75"/>
<circle cx="248.9" cy="193.7" r="4.2" fill="#d64545" fill-opacity="0.75"/>
<circle cx="147.4" cy="215.6" r="4.2" fill="#d64545" fill-opacity="0.75"/>
<circle cx="150.2" cy="217.3" r="4.2" fill="#d64545" fill-opacity="0.75"/>
<circle cx="208.1" cy="285.0" r="4.2" fill="#d64545" fill-opacity="0.75"/>
<circle cx="208.6" cy="290.6" r="4.2" fill="#d64545" fill-opacity="0.75"/>
<circle cx="196.6" cy="247.8" r="4.2" fill="#d64545" fill-opacity="0.75"/>
<circle cx="199.5" cy="243.8" r="4.2" fill="#d64545" fill-opacity="0.75"/>
<circle cx="305.8" cy="148.8" r="4.2" fill="#d64545" fill-opacity="0.75"/>
<circle cx="332.1" cy="143.8" r="4.2" fill="#d64545" fill-opacity="0.75"/>
<circle cx="273.5" cy="100.6" r="4.2" fill="#d64545" fill-opacity="0.75"/>
<circle cx="276.0" cy="103.9" r="4.2" fill="#d64545" fill-opacity="0.75"/>
<circle cx="211.4" cy="214.1" r="4.2" fill="#d64545" fill-opacity="0.75"/>
<circle cx="218.4" cy="217.9" r="4.2" fill="#d64545" fill-opacity="0.75"/>
<circle cx="148.6" cy="159.3" r="4.2" fill="#d64545" fill-opacity="0.75"/>
<circle cx="121.7" cy="161.0" r="4.2" fill="#d64545" fill-opacity="0.75"/>
<circle cx="283.8" cy="255.3" r="4.2" fill="#d64545" fill-opacity="0.75"/>
<circle cx="264.4" cy="241.3" r="4.2" fill="#d64545" fill-opacity="0.75"/>
<circle cx="235.6" cy="261.9" r="4.2" fill="#d64545" fill-opacity="0.75"/>
<circle cx="225.0" cy="250.7" r="4.2" fill="#d64545" fill-opacity="0.75"/>
<circle cx="172.7" cy="154.6" r="4.2" fill="#d64545" fill-opacity="0.75"/>
<circle cx="169.7" cy="152.5" r="4.2" fill="#d64545" fill-opacity="0.75"/>
<circle cx="213.5" cy="189.1" r="4.2" fill="#d64545" fill-opacity="0.75"/>
<circle cx="227.0" cy="190.8" r="4.2" fill="#d64545" fill-opacity="0.75"/>
<circle cx="179.4" cy="182.6" r="4.2" fill="#d64545" fill-opacity="0.75"/>
<circle cx="176.8" cy="189.1" r="4.2" fill="#d64545" fill-opacity="0.75"/>
<circle cx="263.7" cy="164.9" r="4.2" fill="#d64545" fill-opacity="0.75"/>
<circle cx="260.4" cy="162.7" r="4.2" fill="#d64545" fill-opacity="0.75"/>
<circle cx="263.8" cy="262.2" r="4.2" fill="#d64545" fill-opacity="0.75"/>
<circle cx="261.1" cy="257.2" r="4.2" fill="#d64545" fill-opacity="0.75"/>
<circle cx="267.7" cy="229.9" r="4.2" fill="#d64545" fill-opacity="0.75"/>
<circle cx="268.8" cy="226.0" r="4.2" fill="#d64545" fill-opacity="0.75"/>
<circle cx="166.2" cy="190.5" r="4.2" fill="#d64545" fill-opacity="0.75"/>
<circle cx="167.5" cy="176.9" r="4.2" fill="#d64545" fill-opacity="0.75"/>
<circle cx="217.3" cy="226.9" r="4.2" fill="#d64545" fill-opacity="0.75"/>
<circle cx="210.6" cy="235.2" r="4.2" fill="#d64545" fill-opacity="0.75"/>
<circle cx="192.4" cy="147.1" r="4.2" fill="#d64545" fill-opacity="0.75"/>
<circle cx="190.7" cy="145.3" r="4.2" fill="#d64545" fill-opacity="0.75"/>
<circle cx="163.2" cy="263.7" r="4.2" fill="#d64545" fill-opacity="0.75"/>
<circle cx="165.6" cy="255.4" r="4.2" fill="#d64545" fill-opacity="0.75"/>
<circle cx="276.6" cy="264.4" r="4.2" fill="#d64545" fill-opacity="0.75"/>
<circle cx="259.3" cy="264.7" r="4.2" fill="#d64545" fill-opacity="0.75"/>
<circle cx="259.6" cy="224.8" r="4.2" fill="#d64545" fill-opacity="0.75"/>
<circle cx="260.1" cy="207.2" r="4.2" fill="#d64545" fill-opacity="0.75"/>
<circle cx="295.6" cy="263.0" r="4.2" fill="#d64545" fill-opacity="0.75"/>
<circle cx="303.0" cy="262.9" r="4.2" fill="#d64545" fill-opacity="0.75"/>
<circle cx="201.6" cy="216.0" r="4.2" fill="#d64545" fill-opacity="0.75"/>
<circle cx="198.5" cy="221.3" r="4.2" fill="#d64545" fill-opacity="0.75"/>
<circle cx="205.1" cy="255.6" r="4.2" fill="#d64545" fill-opacity="0.75"/>
<circle cx="208.2" cy="258.7" r="4.2" fill="#d64545" fill-opacity="0.75"/>
<circle cx="211.5" cy="256.9" r="4.2" fill="#d64545" fill-opacity="0.75"/>
<circle cx="216.1" cy="255.0" r="4.2" fill="#d64545" fill-opacity="0.75"/>
<circle cx="116.2" cy="212.8" r="4.2" fill="#d64545" fill-opacity="0.75"/>
<circle cx="109.9" cy="214.3" r="4.2" fill="#d64545" fill-opacity="0.75"/>
<circle cx="255.5" cy="235.0" r="4.2" fill="#d64545" fill-opacity="0.75"/>
<circle cx="258.7" cy="239.9" r="4.2" fill="#d64545" fill-opacity="0.75"/>
<circle cx="152.5" cy="248.1" r="4.2" fill="#d64545" fill-opacity="0.75"/>
<circle cx="147.6" cy="238.8" r="4.2" fill="#d64545" fill-opacity="0.75"/>
<circle cx="186.4" cy="213.0" r="4.2" fill="#d64545" fill-opacity="0.75"/>
<circle cx="194.0" cy="199.6" r="4.2" fill="#d64545" fill-opacity="0.75"/>
<circle cx="138.9" cy="212.8" r="4.2" fill="#d64545" fill-opacity="0.75"/>
<circle cx="142.0" cy="217.1" r="4.2" fill="#d64545" fill-opacity="0.75"/>
<circle cx="263.3" cy="214.9" r="4.2" fill="#d64545" fill-opacity="0.75"/>
<circle cx="259.6" cy="214.6" r="4.2" fill="#d64545" fill-opacity="0.75"/>
<circle cx="224.7" cy="252.3" r="4.2" fill="#d64545" fill-opacity="0.75"/>
<circle cx="224.6" cy="245.8" r="4.2" fill="#d64545" fill-opacity="0.75"/>
<circle cx="192.9" cy="248.7" r="4.2" fill="#d64545" fill-opacity="0.75"/>
<circle cx="199.6" cy="251.6" r="4.2" fill="#d64545" fill-opacity="0.75"/>
<circle cx="218.9" cy="212.7" r="4.2" fill="#d64545" fill-opacity="0.75"/>
<circle cx="209.9" cy="211.3" r="4.2" fill="#d64545" fill-opacity="0.75"/>
<circle cx="165.3" cy="265.2" r="4.2" fill="#d64545" fill-opacity="0.75"/>
<circle cx="165.7" cy="265.1" r="4.2" fill="#d64545" fill-opacity="0.75"/>
<circle cx="219.6" cy="227.8" r="4.2" fill="#d64545" fill-opacity="0.75"/>
<circle cx="213.0" cy="227.0" r="4.2" fill="#d64545" fill-opacity="0.75"/>
<circle cx="157.0" cy="272.6" r="4.2" fill="#d64545" fill-opacity="0.75"/>
<circle cx="165.8" cy="273.6" r="4.2" fill="#d64545" fill-opacity="0.75"/>
<circle cx="310.5" cy="213.5" r="4.2" fill="#d64545" fill-opacity="0.75"/>
<circle cx="287.5" cy="200.1" r="4.2" fill="#d64545" fill-opacity="0.75"/>
<circle cx="214.7" cy="191.9" r="4.2" fill="#d64545" fill-opacity="0.75"/>
<circle cx="219.4" cy="192.0" r="4.2" fill="#d64545" fill-opacity="0.75"/>
<circle cx="261.2" cy="253.4" r="4.2" fill="#d64545" fill-opacity="0.75"/>
<circle cx="255.9" cy="245.6" r="4.2" fill="#d64545" fill-opacity="0.75"/>
<circle cx="145.5" cy="226.1" r="4.2" fill="#d64545" fill-opacity="0.75"/>
<circle cx="141.3" cy="231.5" r="4.2" fill="#d64545" fill-opacity="0.75"/>
<circle cx="214.7" cy="266.7" r="4.2" fill="#d64545" fill-opacity="0.75"/>
<circle cx="219.6" cy="252.3" r="4.2" fill="#d64545" fill-opacity="0.75"/>
<circle cx="189.1" cy="242.0" r="4.2" fill="#d64545" fill-opacity="0.75"/>
<circle cx="182.8" cy="239.0" r="4.2" fill="#d64545" fill-opacity="0.75"/>
<circle cx="270.5" cy="271.1" r="4.2" fill="#d64545" fill-opacity="0.75"/>
<circle cx="268.8" cy="278.0" r="4.2" fill="#d64545" fill-opacity="0.75"/>
<circle cx="236.2" cy="315.3" r="4.2" fill="#d64545" fill-opacity="0.75"/>
<circle cx="256.8" cy="311.7" r="4.2" fill="#d64545" fill-opacity="0.75"/>
<circle cx="229.6" cy="253.0" r="4.2" fill="#d64545" fill-opacity="0.75"/>
<circle cx="228.7" cy="250.7" r="4.2" fill="#d64545" fill-opacity="0.75"/>
<circle cx="194.0" cy="227.7" r="4.2" fill="#d64545" fill-opacity="0.75"/>
<circle cx="182.5" cy="232.7" r="4.2" fill="#d64545" fill-opacity="0.75"/>
<rect x="750" y="60" width="14" height="14" fill="#2f6fed"/>
<text x="770" y="72" font-size="14" font-family="Arial">photo</text>
<rect x="750" y="84" width="14" height="14" fill="#ff7a00"/>
<text x="770" y="96" font-size="14" font-family="Arial">Hayao</text>
<rect x="750" y="108" width="14" height="14" fill="#1fa971"/>
<text x="770" y="120" font-size="14" font-family="Arial">monet</text>
<rect x="750" y="132" width="14" height="14" fill="#a046f2"/>
<text x="770" y="144" font-size="14" font-family="Arial">vangogh</text>
<rect x="750" y="156" width="14" height="14" fill="#d64545"/>
<text x="770" y="168" font-size="14" font-family="Arial">cezanne</text>
</svg>