<svg xmlns="http://www.w3.org/2000/svg" width="900" height="520" viewBox="0 0 900 520">
<rect width="100%" height="100%" fill="white"/>
<text x="450.0" y="28" text-anchor="middle" font-size="22" font-family="Arial">MDS Scatter: pixel_tree_swd_patch_3_25</text>
<rect x="70" y="50" width="650" height="420" fill="none" stroke="black"/>
<circle cx="290.7" cy="431.9" r="4.2" fill="#2f6fed" fill-opacity="0.75"/>
<circle cx="243.9" cy="350.1" r="4.2" fill="#2f6fed" fill-opacity="0.75"/>
<circle cx="435.3" cy="308.3" r="4.2" fill="#2f6fed" fill-opacity="0.75"/>
<circle cx="392.0" cy="171.3" r="4.2" fill="#2f6fed" fill-opacity="0.75"/>
<circle cx="337.1" cy="327.9" r="4.2" fill="#2f6fed" fill-opacity="0.75"/>
<circle cx="432.1" cy="283.2" r="4.2" fill="#2f6fed" fill-opacity="0.75"/>
<circle cx="468.4" cy="372.3" r="4.2" fill="#2f6fed" fill-opacity="0.75"/>
<circle cx="626.1" cy="227.1" r="4.2" fill="#2f6fed" fill-opacity="0.75"/>
<circle cx="381.9" cy="332.3" r="4.2" fill="#2f6fed" fill-opacity="0.75"/>
<circle cx="486.7" cy="309.3" r="4.2" fill="#2f6fed" fill-opacity="0.75"/>
<circle cx="320.7" cy="308.9" r="4.2" fill="#2f6fed" fill-opacity="0.75"/>
<circle cx="515.3" cy="261.7" r="4.2" fill="#2f6fed" fill-opacity="0.75"/>
<circle cx="168.3" cy="254.2" r="4.2" fill="#2f6fed" fill-opacity="0.75"/>
<circle cx="505.1" cy="334.8" r="4.2" fill="#2f6fed" fill-opacity="0.75"/>
<circle cx="180.0" cy="346.4" r="4.2" fill="#2f6fed" fill-opacity="0.75"/>
<circle cx="346.2" cy="232.6" r="4.2" fill="#2f6fed" fill-opacity="0.75"/>
<circle cx="286.9" cy="347.0" r="4.2" fill="#2f6fed" fill-opacity="0.75"/>
<circle cx="201.5" cy="379.3" r="4.2" fill="#2f6fed" fill-opacity="0.75"/>
<circle cx="524.6" cy="309.5" r="4.2" fill="#2f6fed" fill-opacity="0.75"/>
<circle cx="447.5" cy="352.7" r="4.2" fill="#2f6fed" fill-opacity="0.75"/>
<circle cx="331.1" cy="282.5" r="4.2" fill="#2f6fed" fill-opacity="0.75"/>
<circle cx="503.6" cy="351.2" r="4.2" fill="#2f6fed" fill-opacity="0.75"/>
<circle cx="300.8" cy="310.2" r="4.2" fill="#2f6fed" fill-opacity="0.75"/>
<circle cx="344.5" cy="411.5" r="4.2" fill="#2f6fed" fill-opacity="0.75"/>
<circle cx="342.0" cy="243.2" r="4.2" fill="#2f6fed" fill-opacity="0.75"/>
<circle cx="483.3" cy="284.7" r="4.2" fill="#2f6fed" fill-opacity="0.75"/>
<circle cx="462.6" cy="332.2" r="4.2" fill="#2f6fed" fill-opacity="0.75"/>
<circle cx="437.3" cy="236.4" r="4.2" fill="#2f6fed" fill-opacity="0.75"/>
<circle cx="359.4" cy="295.5" r="4.2" fill="#2f6fed" fill-opacity="0.75"/>
<circle cx="572.2" cy="246.3" r="4.2" fill="#2f6fed" fill-opacity="0.75"/>
<circle cx="104.8" cy="280.1" r="4.2" fill="#2f6fed" fill-opacity="0.75"/>
<circle cx="365.2" cy="260.7" r="4.2" fill="#2f6fed" fill-opacity="0.75"/>
<circle cx="425.9" cy="212.9" r="4.2" fill="#2f6fed" fill-opacity="0.75"/>
<circle cx="418.7" cy="287.2" r="4.2" fill="#2f6fed" fill-opacity="0.75"/>
<circle cx="420.0" cy="313.2" r="4.2" fill="#2f6fed" fill-opacity="0.75"/>
<circle cx="362.5" cy="251.8" r="4.2" fill="#2f6fed" fill-opacity="0.75"/>
<circle cx="216.2" cy="347.5" r="4.2" fill="#2f6fed" fill-opacity="0.75"/>
<circle cx="411.1" cy="399.1" r="4.2" fill="#2f6fed" fill-opacity="0.75"/>
<circle cx="392.2" cy="215.8" r="4.2" fill="#2f6fed" fill-opacity="0.75"/>
<circle cx="449.7" cy="240.4" r="4.2" fill="#2f6fed" fill-opacity="0.75"/>
<circle cx="327.0" cy="324.4" r="4.2" fill="#2f6fed" fill-opacity="0.75"/>
<circle cx="476.0" cy="287.6" r="4.2" fill="#2f6fed" fill-opacity="0.75"/>
<circle cx="256.3" cy="345.0" r="4.2" fill="#2f6fed" fill-opacity="0.75"/>
<circle cx="315.0" cy="379.7" r="4.2" fill="#2f6fed" fill-opacity="0.75"/>
<circle cx="345.5" cy="264.9" r="4.2" fill="#2f6fed" fill-opacity="0.75"/>
<circle cx="243.3" cy="310.0" r="4.2" fill="#2f6fed" fill-opacity="0.75"/>
<circle cx="283.3" cy="306.7" r="4.2" fill="#2f6fed" fill-opacity="0.75"/>
<circle cx="487.5" cy="213.8" r="4.2" fill="#2f6fed" fill-opacity="0.75"/>
<circle cx="171.8" cy="236.4" r="4.2" fill="#2f6fed" fill-opacity="0.75"/>
<circle cx="322.0" cy="303.1" r="4.2" fill="#2f6fed" fill-opacity="0.75"/>
<circle cx="433.1" cy="363.0" r="4.2" fill="#2f6fed" fill-opacity="0.75"/>
<circle cx="395.7" cy="358.9" r="4.2" fill="#2f6fed" fill-opacity="0.75"/>
<circle cx="407.5" cy="344.7" r="4.2" fill="#2f6fed" fill-opacity="0.75"/>
<circle cx="534.9" cy="301.9" r="4.2" fill="#2f6fed" fill-opacity="0.75"/>
<circle cx="602.8" cy="318.9" r="4.2" fill="#2f6fed" fill-opacity="0.75"/>
<circle cx="495.8" cy="238.9" r="4.2" fill="#2f6fed" fill-opacity="0.75"/>
<circle cx="273.6" cy="151.9" r="4.2" fill="#2f6fed" fill-opacity="0.75"/>
<circle cx="388.7" cy="272.3" r="4.2" fill="#2f6fed" fill-opacity="0.75"/>
<circle cx="260.0" cy="227.5" r="4.2" fill="#2f6fed" fill-opacity="0.75"/>
<circle cx="208.6" cy="195.3" r="4.2" fill="#2f6fed" fill-opacity="0.75"/>
<circle cx="295.0" cy="309.4" r="4.2" fill="#2f6fed" fill-opacity="0.75"/>
<circle cx="423.2" cy="303.7" r="4.2" fill="#2f6fed" fill-opacity="0.75"/>
<circle cx="246.9" cy="325.2" r="4.2" fill="#2f6fed" fill-opacity="0.75"/>
<circle cx="239.3" cy="274.9" r="4.2" fill="#2f6fed" fill-opacity="0.75"/>
<circle cx="342.2" cy="289.5" r="4.2" fill="#2f6fed" fill-opacity="0.75"/>
<circle cx="335.7" cy="268.2" r="4.2" fill="#2f6fed" fill-opacity="0.75"/>
<circle cx="233.7" cy="174.2" r="4.2" fill="#2f6fed" fill-opacity="0.75"/>
<circle cx="429.2" cy="311.9" r="4.2" fill="#2f6fed" fill-opacity="0.75"/>
<circle cx="557.9" cy="302.7" r="4.2" fill="#2f6fed" fill-opacity="0.75"/>
<circle cx="365.3" cy="296.2" r="4.2" fill="#2f6fed" fill-opacity="0.75"/>
<circle cx="411.7" cy="238.4" r="4.2" fill="#2f6fed" fill-opacity="0.75"/>
<circle cx="498.0" cy="312.7" r="4.2" fill="#2f6fed" fill-opacity="0.75"/>
<circle cx="115.5" cy="294.3" r="4.2" fill="#2f6fed" fill-opacity="0.75"/>
<circle cx="223.9" cy="241.7" r="4.2" fill="#2f6fed" fill-opacity="0.75"/>
<circle cx="392.7" cy="261.9" r="4.2" fill="#2f6fed" fill-opacity="0.75"/>
<circle cx="238.2" cy="168.7" r="4.2" fill="#2f6fed" fill-opacity="0.75"/>
<circle cx="408.6" cy="254.5" r="4.2" fill="#2f6fed" fill-opacity="0.75"/>
<circle cx="303.7" cy="207.3" r="4.2" fill="#2f6fed" fill-opacity="0.75"/>
<circle cx="296.5" cy="342.4" r="4.2" fill="#2f6fed" fill-opacity="0.75"/>
<circle cx="399.9" cy="317.2" r="4.2" fill="#2f6fed" fill-opacity="0.75"/>
<circle cx="484.1" cy="403.0" r="4.2" fill="#2f6fed" fill-opacity="0.75"/>
<circle cx="272.1" cy="244.4" r="4.2" fill="#2f6fed" fill-opacity="0.75"/>
<circle cx="367.4" cy="262.9" r="4.2" fill="#2f6fed" fill-opacity="0.75"/>
<circle cx="314.1" cy="244.4" r="4.2" fill="#2f6fed" fill-opacity="0.75"/>
<circle cx="70.0" cy="203.0" r="4.2" fill="#2f6fed" fill-opacity="0.75"/>
<circle cx="440.8" cy="333.9" r="4.2" fill="#2f6fed" fill-opacity="0.75"/>
<circle cx="518.9" cy="328.0" r="4.2" fill="#2f6fed" fill-opacity="0.75"/>
<circle cx="361.6" cy="219.5" r="4.2" fill="#2f6fed" fill-opacity="0.75"/>
<circle cx="276.6" cy="291.1" r="4.2" fill="#2f6fed" fill-opacity="0.75"/>
<circle cx="347.6" cy="335.2" r="4.2" fill="#2f6fed" fill-opacity="0.75"/>
<circle cx="500.5" cy="200.0" r="4.2" fill="#2f6fed" fill-opacity="0.75"/>
<circle cx="277.8" cy="249.1" r="4.2" fill="#2f6fed" fill-opacity="0.75"/>
<circle cx="464.3" cy="303.9" r="4.2" fill="#2f6fed" fill-opacity="0.75"/>
<circle cx="320.2" cy="335.7" r="4.2" fill="#2f6fed" fill-opacity="0.75"/>
<circle cx="272.5" cy="313.5" r="4.2" fill="#2f6fed" fill-opacity="0.75"/>
<circle cx="209.8" cy="204.4" r="4.2" fill="#2f6fed" fill-opacity="0.75"/>
<circle cx="420.2" cy="258.5" r="4.2" fill="#2f6fed" fill-opacity="0.75"/>
<circle cx="447.6" cy="294.1" r="4.2" fill="#2f6fed" fill-opacity="0.75"/>
<circle cx="344.2" cy="243.9" r="4.2" fill="#2f6fed" fill-opacity="0.75"/>
<circle cx="309.5" cy="194.0" r="4.2" fill="#2f6fed" fill-opacity="0.75"/>
<circle cx="451.8" cy="258.2" r="4.2" fill="#ff7a00" fill-opacity="0.75"/>
<circle cx="177.6" cy="307.9" r="4.2" fill="#ff7a00" fill-opacity="0.75"/>
<circle cx="281.0" cy="383.1" r="4.2" fill="#ff7a00" fill-opacity="0.75"/>
<circle cx="572.7" cy="260.9" r="4.2" fill="#ff7a00" fill-opacity="0.75"/>
<circle cx="242.9" cy="422.7" r="4.2" fill="#ff7a00" fill-opacity="0.75"/>
<circle cx="261.3" cy="118.7" r="4.2" fill="#ff7a00" fill-opacity="0.75"/>
<circle cx="175.5" cy="270.5" r="4.2" fill="#ff7a00" fill-opacity="0.75"/>
<circle cx="363.3" cy="349.1" r="4.2" fill="#ff7a00" fill-opacity="0.75"/>
<circle cx="292.8" cy="269.0" r="4.2" fill="#ff7a00" fill-opacity="0.75"/>
<circle cx="300.2" cy="301.2" r="4.2" fill="#ff7a00" fill-opacity="0.75"/>
<circle cx="560.5" cy="314.8" r="4.2" fill="#ff7a00" fill-opacity="0.75"/>
<circle cx="385.5" cy="251.0" r="4.2" fill="#ff7a00" fill-opacity="0.75"/>
<circle cx="341.4" cy="247.8" r="4.2" fill="#ff7a00" fill-opacity="0.75"/>
<circle cx="329.7" cy="280.6" r="4.2" fill="#ff7a00" fill-opacity="0.75"/>
<circle cx="325.3" cy="255.4" r="4.2" fill="#ff7a00" fill-opacity="0.75"/>
<circle cx="313.7" cy="231.7" r="4.2" fill="#ff7a00" fill-opacity="0.75"/>
<circle cx="209.9" cy="172.7" r="4.2" fill="#ff7a00" fill-opacity="0.75"/>
<circle cx="573.6" cy="317.1" r="4.2" fill="#ff7a00" fill-opacity="0.75"/>
<circle cx="401.6" cy="362.5" r="4.2" fill="#ff7a00" fill-opacity="0.75"/>
<circle cx="392.0" cy="342.4" r="4.2" fill="#ff7a00" fill-opacity="0.75"/>
<circle cx="233.1" cy="336.7" r="4.2" fill="#ff7a00" fill-opacity="0.75"/>
<circle cx="144.6" cy="412.6" r="4.2" fill="#ff7a00" fill-opacity="0.75"/>
<circle cx="432.4" cy="203.5" r="4.2" fill="#ff7a00" fill-opacity="0.75"/>
<circle cx="271.1" cy="291.7" r="4.2" fill="#ff7a00" fill-opacity="0.75"/>
<circle cx="569.8" cy="345.4" r="4.2" fill="#ff7a00" fill-opacity="0.75"/>
<circle cx="323.9" cy="311.0" r="4.2" fill="#ff7a00" fill-opacity="0.75"/>
<circle cx="439.3" cy="310.3" r="4.2" fill="#ff7a00" fill-opacity="0.75"/>
<circle cx="380.2" cy="312.6" r="4.2" fill="#ff7a00" fill-opacity="0.75"/>
<circle cx="420.8" cy="298.8" r="4.2" fill="#ff7a00" fill-opacity="0.75"/>
<circle cx="484.3" cy="365.3" r="4.2" fill="#ff7a00" fill-opacity="0.75"/>
<circle cx="280.6" cy="401.7" r="4.2" fill="#ff7a00" fill-opacity="0.75"/>
<circle cx="229.6" cy="317.1" r="4.2" fill="#ff7a00" fill-opacity="0.75"/>
<circle cx="194.9" cy="382.8" r="4.2" fill="#ff7a00" fill-opacity="0.75"/>
<circle cx="294.2" cy="394.6" r="4.2" fill="#ff7a00" fill-opacity="0.75"/>
<circle cx="467.2" cy="358.1" r="4.2" fill="#ff7a00" fill-opacity="0.75"/>
<circle cx="466.0" cy="300.6" r="4.2" fill="#ff7a00" fill-opacity="0.75"/>
<circle cx="400.8" cy="324.9" r="4.2" fill="#ff7a00" fill-opacity="0.75"/>
<circle cx="391.9" cy="274.9" r="4.2" fill="#ff7a00" fill-opacity="0.75"/>
<circle cx="360.0" cy="326.2" r="4.2" fill="#ff7a00" fill-opacity="0.75"/>
<circle cx="146.6" cy="338.4" r="4.2" fill="#ff7a00" fill-opacity="0.75"/>
<circle cx="408.0" cy="179.4" r="4.2" fill="#ff7a00" fill-opacity="0.75"/>
<circle cx="245.0" cy="268.2" r="4.2" fill="#ff7a00" fill-opacity="0.75"/>
<circle cx="412.8" cy="296.3" r="4.2" fill="#ff7a00" fill-opacity="0.75"/>
<circle cx="410.6" cy="257.1" r="4.2" fill="#ff7a00" fill-opacity="0.75"/>
<circle cx="218.8" cy="378.5" r="4.2" fill="#ff7a00" fill-opacity="0.75"/>
<circle cx="429.1" cy="253.3" r="4.2" fill="#ff7a00" fill-opacity="0.75"/>
<circle cx="384.6" cy="309.0" r="4.2" fill="#ff7a00" fill-opacity="0.75"/>
<circle cx="354.3" cy="310.8" r="4.2" fill="#ff7a00" fill-opacity="0.75"/>
<circle cx="419.6" cy="371.8" r="4.2" fill="#ff7a00" fill-opacity="0.75"/>
<circle cx="256.6" cy="435.1" r="4.2" fill="#ff7a00" fill-opacity="0.75"/>
<circle cx="479.7" cy="280.9" r="4.2" fill="#ff7a00" fill-opacity="0.75"/>
<circle cx="314.4" cy="213.0" r="4.2" fill="#ff7a00" fill-opacity="0.75"/>
<circle cx="381.1" cy="366.8" r="4.2" fill="#ff7a00" fill-opacity="0.75"/>
<circle cx="354.1" cy="335.6" r="4.2" fill="#ff7a00" fill-opacity="0.75"/>
<circle cx="238.8" cy="459.7" r="4.2" fill="#ff7a00" fill-opacity="0.75"/>
<circle cx="434.7" cy="298.8" r="4.2" fill="#ff7a00" fill-opacity="0.75"/>
<circle cx="271.0" cy="368.2" r="4.2" fill="#ff7a00" fill-opacity="0.75"/>
<circle cx="237.6" cy="248.1" r="4.2" fill="#ff7a00" fill-opacity="0.75"/>
<circle cx="506.6" cy="332.0" r="4.2" fill="#ff7a00" fill-opacity="0.75"/>
<circle cx="648.2" cy="224.5" r="4.2" fill="#ff7a00" fill-opacity="0.75"/>
<circle cx="469.2" cy="295.7" r="4.2" fill="#ff7a00" fill-opacity="0.75"/>
<circle cx="357.9" cy="337.0" r="4.2" fill="#ff7a00" fill-opacity="0.75"/>
<circle cx="400.6" cy="387.8" r="4.2" fill="#ff7a00" fill-opacity="0.75"/>
<circle cx="268.1" cy="349.0" r="4.2" fill="#ff7a00" fill-opacity="0.75"/>
<circle cx="410.9" cy="316.9" r="4.2" fill="#ff7a00" fill-opacity="0.75"/>
<circle cx="376.2" cy="354.6" r="4.2" fill="#ff7a00" fill-opacity="0.75"/>
<circle cx="325.1" cy="106.8" r="4.2" fill="#ff7a00" fill-opacity="0.75"/>
<circle cx="218.6" cy="431.0" r="4.2" fill="#ff7a00" fill-opacity="0.75"/>
<circle cx="460.4" cy="337.1" r="4.2" fill="#ff7a00" fill-opacity="0.75"/>
<circle cx="445.2" cy="205.3" r="4.2" fill="#ff7a00" fill-opacity="0.75"/>
<circle cx="209.8" cy="244.2" r="4.2" fill="#ff7a00" fill-opacity="0.75"/>
<circle cx="196.8" cy="433.1" r="4.2" fill="#ff7a00" fill-opacity="0.75"/>
<circle cx="417.6" cy="301.6" r="4.2" fill="#ff7a00" fill-opacity="0.75"/>
<circle cx="310.4" cy="245.9" r="4.2" fill="#ff7a00" fill-opacity="0.75"/>
<circle cx="318.5" cy="377.7" r="4.2" fill="#ff7a00" fill-opacity="0.75"/>
<circle cx="429.0" cy="366.6" r="4.2" fill="#ff7a00" fill-opacity="0.75"/>
<circle cx="468.9" cy="293.5" r="4.2" fill="#ff7a00" fill-opacity="0.75"/>
<circle cx="235.7" cy="470.0" r="4.2" fill="#ff7a00" fill-opacity="0.75"/>
<circle cx="493.6" cy="291.2" r="4.2" fill="#ff7a00" fill-opacity="0.75"/>
<circle cx="359.5" cy="126.1" r="4.2" fill="#ff7a00" fill-opacity="0.75"/>
<circle cx="583.2" cy="290.8" r="4.2" fill="#ff7a00" fill-opacity="0.75"/>
<circle cx="443.3" cy="185.8" r="4.2" fill="#ff7a00" fill-opacity="0.75"/>
<circle cx="180.0" cy="377.5" r="4.2" fill="#ff7a00" fill-opacity="0.75"/>
<circle cx="468.4" cy="261.0" r="4.2" fill="#ff7a00" fill-opacity="0.75"/>
<circle cx="228.6" cy="300.6" r="4.2" fill="#ff7a00" fill-opacity="0.75"/>
<circle cx="295.7" cy="402.1" r="4.2" fill="#ff7a00" fill-opacity="0.75"/>
<circle cx="381.8" cy="378.9" r="4.2" fill="#ff7a00" fill-opacity="0.75"/>
<circle cx="493.0" cy="322.9" r="4.2" fill="#ff7a00" fill-opacity="0.75"/>
<circle cx="171.0" cy="238.7" r="4.2" fill="#ff7a00" fill-opacity="0.75"/>
<circle cx="337.6" cy="225.7" r="4.2" fill="#ff7a00" fill-opacity="0.75"/>
<circle cx="396.8" cy="279.0" r="4.2" fill="#ff7a00" fill-opacity="0.75"/>
<circle cx="544.2" cy="323.8" r="4.2" fill="#ff7a00" fill-opacity="0.75"/>
<circle cx="238.9" cy="357.2" r="4.2" fill="#ff7a00" fill-opacity="0.75"/>
<circle cx="556.9" cy="319.8" r="4.2" fill="#ff7a00" fill-opacity="0.75"/>
<circle cx="259.0" cy="287.1" r="4.2" fill="#ff7a00" fill-opacity="0.75"/>
<circle cx="464.3" cy="338.2" r="4.2" fill="#ff7a00" fill-opacity="0.75"/>
<circle cx="395.8" cy="170.1" r="4.2" fill="#ff7a00" fill-opacity="0.75"/>
<circle cx="261.3" cy="338.3" r="4.2" fill="#ff7a00" fill-opacity="0.75"/>
<circle cx="302.7" cy="263.8" r="4.2" fill="#ff7a00" fill-opacity="0.75"/>
<circle cx="279.9" cy="185.4" r="4.2" fill="#ff7a00" fill-opacity="0.75"/>
<circle cx="359.2" cy="299.4" r="4.2" fill="#1fa971" fill-opacity="0.75"/>
<circle cx="278.9" cy="365.6" r="4.2" fill="#1fa971" fill-opacity="0.75"/>
<circle cx="218.0" cy="231.9" r="4.2" fill="#1fa971" fill-opacity="0.75"/>
<circle cx="410.8" cy="415.5" r="4.2" fill="#1fa971" fill-opacity="0.75"/>
<circle cx="493.2" cy="256.8" r="4.2" fill="#1fa971" fill-opacity="0.75"/>
<circle cx="664.1" cy="315.7" r="4.2" fill="#1fa971" fill-opacity="0.75"/>
<circle cx="509.7" cy="337.0" r="4.2" fill="#1fa971" fill-opacity="0.75"/>
<circle cx="399.4" cy="220.6" r="4.2" fill="#1fa971" fill-opacity="0.75"/>
<circle cx="330.6" cy="215.9" r="4.2" fill="#1fa971" fill-opacity="0.75"/>
<circle cx="589.3" cy="277.4" r="4.2" fill="#1fa971" fill-opacity="0.75"/>
<circle cx="492.3" cy="185.4" r="4.2" fill="#1fa971" fill-opacity="0.75"/>
<circle cx="454.8" cy="186.0" r="4.2" fill="#1fa971" fill-opacity="0.75"/>
<circle cx="490.6" cy="200.0" r="4.2" fill="#1fa971" fill-opacity="0.75"/>
<circle cx="452.2" cy="209.4" r="4.2" fill="#1fa971" fill-opacity="0.75"/>
<circle cx="416.6" cy="229.5" r="4.2" fill="#1fa971" fill-opacity="0.75"/>
<circle cx="536.3" cy="300.2" r="4.2" fill="#1fa971" fill-opacity="0.75"/>
<circle cx="435.5" cy="301.8" r="4.2" fill="#1fa971" fill-opacity="0.75"/>
<circle cx="273.5" cy="371.9" r="4.2" fill="#1fa971" fill-opacity="0.75"/>
<circle cx="548.7" cy="291.8" r="4.2" fill="#1fa971" fill-opacity="0.75"/>
<circle cx="170.2" cy="209.9" r="4.2" fill="#1fa971" fill-opacity="0.75"/>
<circle cx="346.8" cy="239.1" r="4.2" fill="#1fa971" fill-opacity="0.75"/>
<circle cx="181.5" cy="324.0" r="4.2" fill="#1fa971" fill-opacity="0.75"/>
<circle cx="241.6" cy="146.8" r="4.2" fill="#1fa971" fill-opacity="0.75"/>
<circle cx="417.8" cy="197.8" r="4.2" fill="#1fa971" fill-opacity="0.75"/>
<circle cx="350.5" cy="166.3" r="4.2" fill="#1fa971" fill-opacity="0.75"/>
<circle cx="221.1" cy="201.7" r="4.2" fill="#1fa971" fill-opacity="0.75"/>
<circle cx="457.9" cy="159.8" r="4.2" fill="#1fa971" fill-opacity="0.75"/>
<circle cx="226.7" cy="254.4" r="4.2" fill="#1fa971" fill-opacity="0.75"/>
<circle cx="382.5" cy="280.8" r="4.2" fill="#1fa971" fill-opacity="0.75"/>
<circle cx="279.5" cy="122.8" r="4.2" fill="#1fa971" fill-opacity="0.75"/>
<circle cx="386.7" cy="274.1" r="4.2" fill="#1fa971" fill-opacity="0.75"/>
<circle cx="347.3" cy="171.2" r="4.2" fill="#1fa971" fill-opacity="0.75"/>
<circle cx="361.4" cy="191.3" r="4.2" fill="#1fa971" fill-opacity="0.75"/>
<circle cx="383.2" cy="263.7" r="4.2" fill="#1fa971" fill-opacity="0.75"/>
<circle cx="350.5" cy="179.4" r="4.2" fill="#1fa971" fill-opacity="0.75"/>
<circle cx="478.3" cy="271.1" r="4.2" fill="#1fa971" fill-opacity="0.75"/>
<circle cx="484.4" cy="202.4" r="4.2" fill="#1fa971" fill-opacity="0.75"/>
<circle cx="482.1" cy="351.2" r="4.2" fill="#1fa971" fill-opacity="0.75"/>
<circle cx="273.4" cy="309.4" r="4.2" fill="#1fa971" fill-opacity="0.75"/>
<circle cx="374.2" cy="227.4" r="4.2" fill="#1fa971" fill-opacity="0.75"/>
<circle cx="589.0" cy="283.2" r="4.2" fill="#1fa971" fill-opacity="0.75"/>
<circle cx="305.5" cy="299.9" r="4.2" fill="#1fa971" fill-opacity="0.75"/>
<circle cx="285.6" cy="200.7" r="4.2" fill="#1fa971" fill-opacity="0.75"/>
<circle cx="280.4" cy="174.2" r="4.2" fill="#1fa971" fill-opacity="0.75"/>
<circle cx="331.1" cy="227.6" r="4.2" fill="#1fa971" fill-opacity="0.75"/>
<circle cx="237.0" cy="200.1" r="4.2" fill="#1fa971" fill-opacity="0.75"/>
<circle cx="315.9" cy="203.9" r="4.2" fill="#1fa971" fill-opacity="0.75"/>
<circle cx="278.5" cy="227.7" r="4.2" fill="#1fa971" fill-opacity="0.75"/>
<circle cx="369.5" cy="188.5" r="4.2" fill="#1fa971" fill-opacity="0.75"/>
<circle cx="418.1" cy="158.1" r="4.2" fill="#1fa971" fill-opacity="0.75"/>
<circle cx="503.2" cy="223.7" r="4.2" fill="#1fa971" fill-opacity="0.75"/>
<circle cx="381.4" cy="198.0" r="4.2" fill="#1fa971" fill-opacity="0.75"/>
<circle cx="282.9" cy="114.5" r="4.2" fill="#1fa971" fill-opacity="0.75"/>
<circle cx="543.4" cy="288.2" r="4.2" fill="#1fa971" fill-opacity="0.75"/>
<circle cx="277.0" cy="327.3" r="4.2" fill="#1fa971" fill-opacity="0.75"/>
<circle cx="298.9" cy="208.0" r="4.2" fill="#1fa971" fill-opacity="0.75"/>
<circle cx="341.2" cy="278.7" r="4.2" fill="#1fa971" fill-opacity="0.75"/>
<circle cx="426.9" cy="273.5" r="4.2" fill="#1fa971" fill-opacity="0.75"/>
<circle cx="306.2" cy="169.6" r="4.2" fill="#1fa971" fill-opacity="0.75"/>
<circle cx="635.0" cy="241.0" r="4.2" fill="#1fa971" fill-opacity="0.75"/>
<circle cx="174.9" cy="223.9" r="4.2" fill="#1fa971" fill-opacity="0.75"/>
<circle cx="319.6" cy="115.5" r="4.2" fill="#1fa971" fill-opacity="0.75"/>
<circle cx="353.7" cy="268.2" r="4.2" fill="#1fa971" fill-opacity="0.75"/>
<circle cx="289.9" cy="286.3" r="4.2" fill="#1fa971" fill-opacity="0.75"/>
<circle cx="287.9" cy="266.7" r="4.2" fill="#1fa971" fill-opacity="0.75"/>
<circle cx="249.5" cy="255.3" r="4.2" fill="#1fa971" fill-opacity="0.75"/>
<circle cx="469.1" cy="234.4" r="4.2" fill="#1fa971" fill-opacity="0.75"/>
<circle cx="315.1" cy="87.0" r="4.2" fill="#1fa971" fill-opacity="0.75"/>
<circle cx="540.7" cy="241.2" r="4.2" fill="#1fa971" fill-opacity="0.75"/>
<circle cx="612.7" cy="231.1" r="4.2" fill="#1fa971" fill-opacity="0.75"/>
<circle cx="635.5" cy="230.8" r="4.2" fill="#1fa971" fill-opacity="0.75"/>
<circle cx="612.5" cy="270.4" r="4.2" fill="#1fa971" fill-opacity="0.75"/>
<circle cx="296.4" cy="81.5" r="4.2" fill="#1fa971" fill-opacity="0.75"/>
<circle cx="477.3" cy="218.6" r="4.2" fill="#1fa971" fill-opacity="0.75"/>
<circle cx="499.7" cy="301.5" r="4.2" fill="#1fa971" fill-opacity="0.75"/>
<circle cx="491.7" cy="290.9" r="4.2" fill="#1fa971" fill-opacity="0.75"/>
<circle cx="455.5" cy="240.5" r="4.2" fill="#1fa971" fill-opacity="0.75"/>
<circle cx="509.6" cy="297.6" r="4.2" fill="#1fa971" fill-opacity="0.75"/>
<circle cx="412.0" cy="234.2" r="4.2" fill="#1fa971" fill-opacity="0.75"/>
<circle cx="465.0" cy="179.5" r="4.2" fill="#1fa971" fill-opacity="0.75"/>
<circle cx="378.4" cy="225.3" r="4.2" fill="#1fa971" fill-opacity="0.75"/>
<circle cx="585.6" cy="230.8" r="4.2" fill="#1fa971" fill-opacity="0.75"/>
<circle cx="332.6" cy="219.3" r="4.2" fill="#1fa971" fill-opacity="0.75"/>
<circle cx="518.6" cy="266.4" r="4.2" fill="#1fa971" fill-opacity="0.75"/>
<circle cx="334.7" cy="215.1" r="4.2" fill="#1fa971" fill-opacity="0.75"/>
<circle cx="495.9" cy="180.1" r="4.2" fill="#1fa971" fill-opacity="0.75"/>
<circle cx="433.6" cy="133.7" r="4.2" fill="#1fa971" fill-opacity="0.75"/>
<circle cx="272.6" cy="325.8" r="4.2" fill="#1fa971" fill-opacity="0.75"/>
<circle cx="331.3" cy="301.7" r="4.2" fill="#1fa971" fill-opacity="0.75"/>
<circle cx="400.7" cy="225.9" r="4.2" fill="#1fa971" fill-opacity="0.75"/>
<circle cx="372.7" cy="183.0" r="4.2" fill="#1fa971" fill-opacity="0.75"/>
<circle cx="460.1" cy="266.7" r="4.2" fill="#1fa971" fill-opacity="0.75"/>
<circle cx="431.6" cy="140.8" r="4.2" fill="#1fa971" fill-opacity="0.75"/>
<circle cx="327.9" cy="149.4" r="4.2" fill="#1fa971" fill-opacity="0.75"/>
<circle cx="251.8" cy="203.6" r="4.2" fill="#1fa971" fill-opacity="0.75"/>
<circle cx="496.6" cy="204.3" r="4.2" fill="#1fa971" fill-opacity="0.75"/>
<circle cx="278.4" cy="168.2" r="4.2" fill="#1fa971" fill-opacity="0.75"/>
<circle cx="205.6" cy="164.3" r="4.2" fill="#1fa971" fill-opacity="0.75"/>
<circle cx="542.9" cy="280.6" r="4.2" fill="#1fa971" fill-opacity="0.75"/>
<circle cx="455.3" cy="165.5" r="4.2" fill="#1fa971" fill-opacity="0.75"/>
<circle cx="585.3" cy="309.9" r="4.2" fill="#a046f2" fill-opacity="0.75"/>
<circle cx="579.6" cy="308.8" r="4.2" fill="#a046f2" fill-opacity="0.75"/>
<circle cx="456.2" cy="263.7" r="4.2" fill="#a046f2" fill-opacity="0.75"/>
<circle cx="459.1" cy="267.5" r="4.2" fill="#a046f2" fill-opacity="0.75"/>
<circle cx="560.3" cy="236.2" r="4.2" fill="#a046f2" fill-opacity="0.75"/>
<circle cx="559.5" cy="236.3" r="4.2" fill="#a046f2" fill-opacity="0.75"/>
<circle cx="389.3" cy="205.7" r="4.2" fill="#a046f2" fill-opacity="0.75"/>
<circle cx="391.6" cy="206.7" r="4.2" fill="#a046f2" fill-opacity="0.75"/>
<circle cx="447.9" cy="235.3" r="4.2" fill="#a046f2" fill-opacity="0.75"/>
<circle cx="446.0" cy="235.8" r="4.2" fill="#a046f2" fill-opacity="0.75"/>
<circle cx="594.2" cy="317.4" r="4.2" fill="#a046f2" fill-opacity="0.75"/>
<circle cx="595.6" cy="316.3" r="4.2" fill="#a046f2" fill-opacity="0.75"/>
<circle cx="468.6" cy="255.3" r="4.2" fill="#a046f2" fill-opacity="0.75"/>
<circle cx="466.2" cy="255.5" r="4.2" fill="#a046f2" fill-opacity="0.75"/>
<circle cx="475.1" cy="285.1" r="4.2" fill="#a046f2" fill-opacity="0.75"/>
<circle cx="475.6" cy="283.7" r="4.2" fill="#a046f2" fill-opacity="0.75"/>
<circle cx="578.3" cy="284.3" r="4.2" fill="#a046f2" fill-opacity="0.75"/>
<circle cx="581.8" cy="281.2" r="4.2" fill="#a046f2" fill-opacity="0.75"/>
<circle cx="632.9" cy="274.3" r="4.2" fill="#a046f2" fill-opacity="0.75"/>
<circle cx="629.4" cy="271.9" r="4.2" fill="#a046f2" fill-opacity="0.75"/>
<circle cx="580.2" cy="262.5" r="4.2" fill="#a046f2" fill-opacity="0.75"/>
<circle cx="576.5" cy="261.7" r="4.2" fill="#a046f2" fill-opacity="0.75"/>
<circle cx="422.9" cy="297.2" r="4.2" fill="#a046f2" fill-opacity="0.75"/>
<circle cx="421.7" cy="297.3" r="4.2" fill="#a046f2" fill-opacity="0.75"/>
<circle cx="637.3" cy="299.9" r="4.2" fill="#a046f2" fill-opacity="0.75"/>
<circle cx="627.7" cy="301.5" r="4.2" fill="#a046f2" fill-opacity="0.75"/>
<circle cx="397.3" cy="320.6" r="4.2" fill="#a046f2" fill-opacity="0.75"/>
<circle cx="418.8" cy="320.6" r="4.2" fill="#a046f2" fill-opacity="0.75"/>
<circle cx="466.7" cy="245.9" r="4.2" fill="#a046f2" fill-opacity="0.75"/>
<circle cx="467.4" cy="248.4" r="4.2" fill="#a046f2" fill-opacity="0.75"/>
<circle cx="441.7" cy="265.1" r="4.2" fill="#a046f2" fill-opacity="0.75"/>
<circle cx="446.9" cy="267.6" r="4.2" fill="#a046f2" fill-opacity="0.75"/>
<circle cx="581.0" cy="244.3" r="4.2" fill="#a046f2" fill-opacity="0.75"/>
<circle cx="579.3" cy="245.1" r="4.2" fill="#a046f2" fill-opacity="0.75"/>
<circle cx="188.3" cy="275.5" r="4.2" fill="#a046f2" fill-opacity="0.75"/>
<circle cx="185.1" cy="275.3" r="4.2" fill="#a046f2" fill-opacity="0.75"/>
<circle cx="544.3" cy="307.2" r="4.2" fill="#a046f2" fill-opacity="0.75"/>
<circle cx="540.7" cy="307.6" r="4.2" fill="#a046f2" fill-opacity="0.75"/>
<circle cx="288.7" cy="182.5" r="4.2" fill="#a046f2" fill-opacity="0.75"/>
<circle cx="287.3" cy="183.4" r="4.2" fill="#a046f2" fill-opacity="0.75"/>
<circle cx="720.0" cy="231.1" r="4.2" fill="#a046f2" fill-opacity="0.75"/>
<circle cx="718.0" cy="230.3" r="4.2" fill="#a046f2" fill-opacity="0.75"/>
<circle cx="485.7" cy="335.1" r="4.2" fill="#a046f2" fill-opacity="0.75"/>
<circle cx="480.9" cy="334.5" r="4.2" fill="#a046f2" fill-opacity="0.75"/>
<circle cx="493.3" cy="276.7" r="4.2" fill="#a046f2" fill-opacity="0.75"/>
<circle cx="495.2" cy="277.9" r="4.2" fill="#a046f2" fill-opacity="0.75"/>
<circle cx="546.7" cy="299.9" r="4.2" fill="#a046f2" fill-opacity="0.75"/>
<circle cx="542.5" cy="297.9" r="4.2" fill="#a046f2" fill-opacity="0.75"/>
<circle cx="566.3" cy="250.6" r="4.2" fill="#a046f2" fill-opacity="0.75"/>
<circle cx="565.4" cy="250.4" r="4.2" fill="#a046f2" fill-opacity="0.75"/>
<circle cx="577.8" cy="251.5" r="4.2" fill="#a046f2" fill-opacity="0.75"/>
<circle cx="578.6" cy="251.3" r="4.2" fill="#a046f2" fill-opacity="0.75"/>
<circle cx="636.7" cy="204.6" r="4.2" fill="#a046f2" fill-opacity="0.75"/>
<circle cx="635.9" cy="206.4" r="4.2" fill="#a046f2" fill-opacity="0.75"/>
<circle cx="638.0" cy="255.9" r="4.2" fill="#a046f2" fill-opacity="0.75"/>
<circle cx="638.9" cy="255.3" r="4.2" fill="#a046f2" fill-opacity="0.75"/>
<circle cx="431.7" cy="304.8" r="4.2" fill="#a046f2" fill-opacity="0.75"/>
<circle cx="438.2" cy="303.2" r="4.2" fill="#a046f2" fill-opacity="0.75"/>
<circle cx="544.1" cy="331.1" r="4.2" fill="#a046f2" fill-opacity="0.75"/>
<circle cx="539.6" cy="331.9" r="4.2" fill="#a046f2" fill-opacity="0.75"/>
<circle cx="499.0" cy="302.7" r="4.2" fill="#a046f2" fill-opacity="0.75"/>
<circle cx="499.1" cy="302.4" r="4.2" fill="#a046f2" fill-opacity="0.75"/>
<circle cx="405.9" cy="270.4" r="4.2" fill="#a046f2" fill-opacity="0.75"/>
<circle cx="402.4" cy="274.9" r="4.2" fill="#a046f2" fill-opacity="0.75"/>
<circle cx="451.5" cy="302.1" r="4.2" fill="#a046f2" fill-opacity="0.75"/>
<circle cx="451.7" cy="302.7" r="4.2" fill="#a046f2" fill-opacity="0.75"/>
<circle cx="581.5" cy="263.7" r="4.2" fill="#a046f2" fill-opacity="0.75"/>
<circle cx="580.7" cy="264.0" r="4.2" fill="#a046f2" fill-opacity="0.75"/>
<circle cx="505.7" cy="309.3" r="4.2" fill="#a046f2" fill-opacity="0.75"/>
<circle cx="509.5" cy="308.1" r="4.2" fill="#a046f2" fill-opacity="0.75"/>
<circle cx="434.3" cy="318.7" r="4.2" fill="#a046f2" fill-opacity="0.75"/>
<circle cx="431.6" cy="317.4" r="4.2" fill="#a046f2" fill-opacity="0.75"/>
<circle cx="366.3" cy="235.0" r="4.2" fill="#a046f2" fill-opacity="0.75"/>
<circle cx="367.2" cy="234.8" r="4.2" fill="#a046f2" fill-opacity="0.75"/>
<circle cx="453.6" cy="254.2" r="4.2" fill="#a046f2" fill-opacity="0.75"/>
<circle cx="456.6" cy="256.0" r="4.2" fill="#a046f2" fill-opacity="0.75"/>
<circle cx="501.6" cy="252.5" r="4.2" fill="#a046f2" fill-opacity="0.75"/>
<circle cx="501.4" cy="252.7" r="4.2" fill="#a046f2" fill-opacity="0.75"/>
<circle cx="529.7" cy="236.5" r="4.2" fill="#a046f2" fill-opacity="0.75"/>
<circle cx="530.4" cy="236.5" r="4.2" fill="#a046f2" fill-opacity="0.75"/>
<circle cx="400.5" cy="269.6" r="4.2" fill="#a046f2" fill-opacity="0.75"/>
<circle cx="397.0" cy="270.7" r="4.2" fill="#a046f2" fill-opacity="0.75"/>
<circle cx="334.4" cy="291.1" r="4.2" fill="#a046f2" fill-opacity="0.75"/>
<circle cx="329.1" cy="292.3" r="4.2" fill="#a046f2" fill-opacity="0.75"/>
<circle cx="416.3" cy="195.9" r="4.2" fill="#a046f2" fill-opacity="0.75"/>
<circle cx="415.9" cy="197.1" r="4.2" fill="#a046f2" fill-opacity="0.75"/>
<circle cx="488.9" cy="238.4" r="4.2" fill="#a046f2" fill-opacity="0.75"/>
<circle cx="484.2" cy="240.5" r="4.2" fill="#a046f2" fill-opacity="0.75"/>
<circle cx="310.3" cy="282.2" r="4.2" fill="#a046f2" fill-opacity="0.75"/>
<circle cx="311.3" cy="282.5" r="4.2" fill="#a046f2" fill-opacity="0.75"/>
<circle cx="588.0" cy="294.2" r="4.2" fill="#a046f2" fill-opacity="0.75"/>
<circle cx="587.8" cy="295.5" r="4.2" fill="#a046f2" fill-opacity="0.75"/>
<circle cx="554.2" cy="271.8" r="4.2" fill="#a046f2" fill-opacity="0.75"/>
<circle cx="550.9" cy="273.1" r="4.2" fill="#a046f2" fill-opacity="0.75"/>
<circle cx="567.7" cy="241.9" r="4.2" fill="#a046f2" fill-opacity="0.75"/>
<circle cx="567.7" cy="243.0" r="4.2" fill="#a046f2" fill-opacity="0.75"/>
<circle cx="516.9" cy="210.3" r="4.2" fill="#a046f2" fill-opacity="0.75"/>
<circle cx="517.7" cy="211.4" r="4.2" fill="#a046f2" fill-opacity="0.75"/>
<circle cx="592.8" cy="289.9" r="4.2" fill="#a046f2" fill-opacity="0.75"/>
<circle cx="589.8" cy="287.9" r="4.2" fill="#a046f2" fill-opacity="0.75"/>
<circle cx="426.9" cy="305.4" r="4.2" fill="#d64545" fill-opacity="0.75"/>
<circle cx="425.2" cy="305.9" r="4.2" fill="#d64545" fill-opacity="0.75"/>
<circle cx="437.9" cy="396.5" r="4.2" fill="#d64545" fill-opacity="0.75"/>
<circle cx="437.9" cy="396.7" r="4.2" fill="#d64545" fill-opacity="0.75"/>
<circle cx="367.3" cy="359.8" r="4.2" fill="#d64545" fill-opacity="0.75"/>
<circle cx="370.7" cy="358.9" r="4.2" fill="#d64545" fill-opacity="0.75"/>
<circle cx="511.9" cy="255.1" r="4.2" fill="#d64545" fill-opacity="0.75"/>
<circle cx="512.7" cy="255.3" r="4.2" fill="#d64545" fill-opacity="0.75"/>
<circle cx="539.9" cy="279.1" r="4.2" fill="#d64545" fill-opacity="0.75"/>
<circle cx="538.9" cy="280.0" r="4.2" fill="#d64545" fill-opacity="0.75"/>
<circle cx="463.6" cy="335.2" r="4.2" fill="#d64545" fill-opacity="0.75"/>
<circle cx="460.8" cy="334.6" r="4.2" fill="#d64545" fill-opacity="0.75"/>
<circle cx="348.2" cy="199.9" r="4.2" fill="#d64545" fill-opacity="0.75"/>
<circle cx="348.7" cy="200.2" r="4.2" fill="#d64545" fill-opacity="0.75"/>
<circle cx="231.4" cy="66.0" r="4.2" fill="#d64545" fill-opacity="0.75"/>
<circle cx="230.0" cy="64.5" r="4.2" fill="#d64545" fill-opacity="0.75"/>
<circle cx="390.3" cy="411.6" r="4.2" fill="#d64545" fill-opacity="0.75"/>
<circle cx="386.4" cy="410.6" r="4.2" fill="#d64545" fill-opacity="0.75"/>
<circle cx="376.9" cy="50.0" r="4.2" fill="#d64545" fill-opacity="0.75"/>
<circle cx="378.3" cy="54.0" r="4.2" fill="#d64545" fill-opacity="0.75"/>
<circle cx="382.9" cy="384.8" r="4.2" fill="#d64545" fill-opacity="0.75"/>
<circle cx="381.3" cy="382.3" r="4.2" fill="#d64545" fill-opacity="0.75"/>
<circle cx="475.1" cy="277.5" r="4.2" fill="#d64545" fill-opacity="0.75"/>
<circle cx="473.5" cy="275.9" r="4.2" fill="#d64545" fill-opacity="0.75"/>
<circle cx="461.6" cy="220.1" r="4.2" fill="#d64545" fill-opacity="0.75"/>
<circle cx="456.6" cy="219.5" r="4.2" fill="#d64545" fill-opacity="0.75"/>
<circle cx="400.6" cy="277.4" r="4.2" fill="#d64545" fill-opacity="0.75"/>
<circle cx="396.5" cy="278.7" r="4.2" fill="#d64545" fill-opacity="0.75"/>
<circle cx="471.2" cy="243.2" r="4.2" fill="#d64545" fill-opacity="0.75"/>
<circle cx="469.8" cy="244.5" r="4.2" fill="#d64545" fill-opacity="0.75"/>
<circle cx="375.2" cy="205.1" r="4.2" fill="#d64545" fill-opacity="0.75"/>
<circle cx="368.9" cy="206.2" r="4.2" fill="#d64545" fill-opacity="0.75"/>
<circle cx="537.3" cy="246.9" r="4.2" fill="#d64545" fill-opacity="0.75"/>
<circle cx="533.9" cy="248.7" r="4.2" fill="#d64545" fill-opacity="0.75"/>
<circle cx="360.6" cy="421.4" r="4.2" fill="#d64545" fill-opacity="0.75"/>
<circle cx="362.2" cy="419.9" r="4.2" fill="#d64545" fill-opacity="0.75"/>
<circle cx="410.5" cy="196.0" r="4.2" fill="#d64545" fill-opacity="0.75"/>
<circle cx="406.3" cy="196.4" r="4.2" fill="#d64545" fill-opacity="0.75"/>
<circle cx="404.8" cy="376.8" r="4.2" fill="#d64545" fill-opacity="0.75"/>
<circle cx="402.9" cy="379.2" r="4.2" fill="#d64545" fill-opacity="0.75"/>
<circle cx="453.1" cy="196.2" r="4.2" fill="#d64545" fill-opacity="0.75"/>
<circle cx="451.8" cy="195.9" r="4.2" fill="#d64545" fill-opacity="0.75"/>
<circle cx="531.3" cy="309.9" r="4.2" fill="#d64545" fill-opacity="0.75"/>
<circle cx="533.9" cy="309.4" r="4.2" fill="#d64545" fill-opacity="0.75"/>
<circle cx="486.5" cy="339.4" r="4.2" fill="#d64545" fill-opacity="0.75"/>
<circle cx="481.9" cy="342.7" r="4.2" fill="#d64545" fill-opacity="0.75"/>
<circle cx="360.8" cy="204.4" r="4.2" fill="#d64545" fill-opacity="0.75"/>
<circle cx="356.3" cy="204.7" r="4.2" fill="#d64545" fill-opacity="0.75"/>
<circle cx="376.1" cy="447.4" r="4.2" fill="#d64545" fill-opacity="0.75"/>
<circle cx="376.4" cy="447.4" r="4.2" fill="#d64545" fill-opacity="0.75"/>
<circle cx="494.1" cy="312.8" r="4.2" fill="#d64545" fill-opacity="0.75"/>
<circle cx="492.2" cy="311.8" r="4.2" fill="#d64545" fill-opacity="0.75"/>
<circle cx="460.9" cy="368.1" r="4.2" fill="#d64545" fill-opacity="0.75"/>
<circle cx="461.5" cy="370.4" r="4.2" fill="#d64545" fill-opacity="0.75"/>
<circle cx="454.1" cy="311.0" r="4.2" fill="#d64545" fill-opacity="0.75"/>
<circle cx="452.0" cy="309.4" r="4.2" fill="#d64545" fill-opacity="0.75"/>
<circle cx="496.3" cy="287.2" r="4.2" fill="#d64545" fill-opacity="0.75"/>
<circle cx="495.8" cy="286.8" r="4.2" fill="#d64545" fill-opacity="0.75"/>
<circle cx="462.4" cy="307.2" r="4.2" fill="#d64545" fill-opacity="0.75"/>
<circle cx="460.6" cy="305.2" r="4.2" fill="#d64545" fill-opacity="0.75"/>
<circle cx="528.6" cy="342.3" r="4.2" fill="#d64545" fill-opacity="0.75"/>
<circle cx="524.7" cy="342.0" r="4.2" fill="#d64545" fill-opacity="0.75"/>
<circle cx="517.0" cy="268.3" r="4.2" fill="#d64545" fill-opacity="0.75"/>
<circle cx="514.7" cy="267.3" r="4.2" fill="#d64545" fill-opacity="0.75"/>
<circle cx="475.1" cy="273.2" r="4.2" fill="#d64545" fill-opacity="0.75"/>
<circle cx="471.8" cy="274.5" r="4.2" fill="#d64545" fill-opacity="0.75"/>
<circle cx="426.8" cy="254.1" r="4.2" fill="#d64545" fill-opacity="0.75"/>
<circle cx="425.3" cy="254.0" r="4.2" fill="#d64545" fill-opacity="0.75"/>
<circle cx="439.7" cy="299.1" r="4.2" fill="#d64545" fill-opacity="0.75"/>
<circle cx="441.2" cy="298.6" r="4.2" fill="#d64545" fill-opacity="0.75"/>
<circle cx="477.6" cy="389.4" r="4.2" fill="#d64545" fill-opacity="0.75"/>
<circle cx="475.9" cy="389.7" r="4.2" fill="#d64545" fill-opacity="0.75"/>
<circle cx="475.1" cy="333.5" r="4.2" fill="#d64545" fill-opacity="0.75"/>
<circle cx="474.4" cy="333.2" r="4.2" fill="#d64545" fill-opacity="0.75"/>
<circle cx="517.1" cy="274.6" r="4.2" fill="#d64545" fill-opacity="0.75"/>
<circle cx="517.9" cy="274.3" r="4.2" fill="#d64545" fill-opacity="0.75"/>
<circle cx="462.6" cy="264.6" r="4.2" fill="#d64545" fill-opacity="0.75"/>
<circle cx="461.4" cy="264.4" r="4.2" fill="#d64545" fill-opacity="0.75"/>
<circle cx="598.4" cy="302.8" r="4.2" fill="#d64545" fill-opacity="0.75"/>
<circle cx="596.9" cy="301.8" r="4.2" fill="#d64545" fill-opacity="0.75"/>
<circle cx="216.5" cy="388.2" r="4.2" fill="#d64545" fill-opacity="0.75"/>
<circle cx="218.7" cy="389.5" r="4.2" fill="#d64545" fill-opacity="0.75"/>
<circle cx="430.5" cy="317.6" r="4.2" fill="#d64545" fill-opacity="0.75"/>
<circle cx="428.6" cy="317.7" r="4.2" fill="#d64545" fill-opacity="0.75"/>
<circle cx="550.5" cy="285.6" r="4.2" fill="#d64545" fill-opacity="0.75"/>
<circle cx="551.9" cy="284.6" r="4.2" fill="#d64545" fill-opacity="0.75"/>
<circle cx="537.9" cy="296.2" r="4.2" fill="#d64545" fill-opacity="0.75"/>
<circle cx="536.2" cy="295.3" r="4.2" fill="#d64545" fill-opacity="0.75"/>
<circle cx="575.3" cy="298.9" r="4.2" fill="#d64545" fill-opacity="0.75"/>
<circle cx="578.3" cy="298.3" r="4.2" fill="#d64545" fill-opacity="0.75"/>
<circle cx="477.5" cy="271.1" r="4.2" fill="#d64545" fill-opacity="0.75"/>
<circle cx="477.9" cy="271.9" r="4.2" fill="#d64545" fill-opacity="0.75"/>
<circle cx="374.6" cy="442.3" r="4.2" fill="#d64545" fill-opacity="0.75"/>
<circle cx="367.7" cy="444.9" r="4.2" fill="#d64545" fill-opacity="0.75"/>
<circle cx="578.9" cy="266.8" r="4.2" fill="#d64545" fill-opacity="0.75"/>
<circle cx="577.1" cy="265.7" r="4.2" fill="#d64545" fill-opacity="0.75"/>
<circle cx="463.4" cy="292.8" r="4.2" fill="#d64545" fill-opacity="0.75"/>
<circle cx="461.4" cy="292.3" r="4.2" fill="#d64545" fill-opacity="0.75"/>
<circle cx="498.6" cy="331.8" r="4.2" fill="#d64545" fill-opacity="0.75"/>
<circle cx="499.9" cy="332.4" r="4.2" fill="#d64545" fill-opacity="0.75"/>
<rect x="750" y="60" width="14" height="14" fill="#2f6fed"/>
<text x="770" y="72" font-size="14" font-family="Arial">photo</text>
<rect x="750" y="84" width="14" height="14" fill="#ff7a00"/>
<text x="770" y="96" font-size="14" font-family="Arial">Hayao</text>
<rect x="750" y="108" width="14" height="14" fill="#1fa971"/>
<text x="770" y="120" font-size="14" font-family="Arial">monet</text>
<rect x="750" y="132" width="14" height="14" fill="#a046f2"/>
<text x="770" y="144" font-size="14" font-family="Arial">vangogh</text>
<rect x="750" y="156" width="14" height="14" fill="#d64545"/>
<text x="770" y="168" font-size="14" font-family="Arial">cezanne</text>
</svg>