<svg xmlns="http://www.w3.org/2000/svg" width="900" height="520" viewBox="0 0 900 520">
<rect width="100%" height="100%" fill="white"/>
<text x="450.0" y="28" text-anchor="middle" font-size="22" font-family="Arial">MDS Scatter: pixel_gram</text>
<rect x="70" y="50" width="650" height="420" fill="none" stroke="black"/>
<circle cx="120.5" cy="265.0" r="4.2" fill="#2f6fed" fill-opacity="0.75"/>
<circle cx="107.3" cy="264.3" r="4.2" fill="#2f6fed" fill-opacity="0.75"/>
<circle cx="233.6" cy="284.7" r="4.2" fill="#2f6fed" fill-opacity="0.75"/>
<circle cx="261.1" cy="302.5" r="4.2" fill="#2f6fed" fill-opacity="0.75"/>
<circle cx="222.4" cy="286.6" r="4.2" fill="#2f6fed" fill-opacity="0.75"/>
<circle cx="169.3" cy="261.6" r="4.2" fill="#2f6fed" fill-opacity="0.75"/>
<circle cx="150.1" cy="251.0" r="4.2" fill="#2f6fed" fill-opacity="0.75"/>
<circle cx="404.4" cy="296.8" r="4.2" fill="#2f6fed" fill-opacity="0.75"/>
<circle cx="186.9" cy="270.4" r="4.2" fill="#2f6fed" fill-opacity="0.75"/>
<circle cx="343.6" cy="247.0" r="4.2" fill="#2f6fed" fill-opacity="0.75"/>
<circle cx="118.1" cy="262.2" r="4.2" fill="#2f6fed" fill-opacity="0.75"/>
<circle cx="351.0" cy="355.6" r="4.2" fill="#2f6fed" fill-opacity="0.75"/>
<circle cx="84.8" cy="266.6" r="4.2" fill="#2f6fed" fill-opacity="0.75"/>
<circle cx="393.3" cy="328.6" r="4.2" fill="#2f6fed" fill-opacity="0.75"/>
<circle cx="82.9" cy="265.8" r="4.2" fill="#2f6fed" fill-opacity="0.75"/>
<circle cx="146.1" cy="268.5" r="4.2" fill="#2f6fed" fill-opacity="0.75"/>
<circle cx="190.0" cy="281.9" r="4.2" fill="#2f6fed" fill-opacity="0.75"/>
<circle cx="76.8" cy="266.3" r="4.2" fill="#2f6fed" fill-opacity="0.75"/>
<circle cx="284.2" cy="258.2" r="4.2" fill="#2f6fed" fill-opacity="0.75"/>
<circle cx="347.4" cy="429.2" r="4.2" fill="#2f6fed" fill-opacity="0.75"/>
<circle cx="197.5" cy="278.9" r="4.2" fill="#2f6fed" fill-opacity="0.75"/>
<circle cx="267.1" cy="233.5" r="4.2" fill="#2f6fed" fill-opacity="0.75"/>
<circle cx="96.6" cy="268.4" r="4.2" fill="#2f6fed" fill-opacity="0.75"/>
<circle cx="91.9" cy="266.9" r="4.2" fill="#2f6fed" fill-opacity="0.75"/>
<circle cx="136.6" cy="269.3" r="4.2" fill="#2f6fed" fill-opacity="0.75"/>
<circle cx="265.2" cy="334.5" r="4.2" fill="#2f6fed" fill-opacity="0.75"/>
<circle cx="250.3" cy="279.4" r="4.2" fill="#2f6fed" fill-opacity="0.75"/>
<circle cx="223.5" cy="285.0" r="4.2" fill="#2f6fed" fill-opacity="0.75"/>
<circle cx="158.1" cy="309.2" r="4.2" fill="#2f6fed" fill-opacity="0.75"/>
<circle cx="370.6" cy="283.5" r="4.2" fill="#2f6fed" fill-opacity="0.75"/>
<circle cx="87.2" cy="266.5" r="4.2" fill="#2f6fed" fill-opacity="0.75"/>
<circle cx="211.0" cy="291.2" r="4.2" fill="#2f6fed" fill-opacity="0.75"/>
<circle cx="227.6" cy="289.1" r="4.2" fill="#2f6fed" fill-opacity="0.75"/>
<circle cx="194.7" cy="307.1" r="4.2" fill="#2f6fed" fill-opacity="0.75"/>
<circle cx="532.3" cy="263.3" r="4.2" fill="#2f6fed" fill-opacity="0.75"/>
<circle cx="83.5" cy="266.6" r="4.2" fill="#2f6fed" fill-opacity="0.75"/>
<circle cx="88.0" cy="266.6" r="4.2" fill="#2f6fed" fill-opacity="0.75"/>
<circle cx="201.3" cy="247.8" r="4.2" fill="#2f6fed" fill-opacity="0.75"/>
<circle cx="181.6" cy="279.7" r="4.2" fill="#2f6fed" fill-opacity="0.75"/>
<circle cx="330.7" cy="264.2" r="4.2" fill="#2f6fed" fill-opacity="0.75"/>
<circle cx="103.5" cy="267.1" r="4.2" fill="#2f6fed" fill-opacity="0.75"/>
<circle cx="223.1" cy="267.2" r="4.2" fill="#2f6fed" fill-opacity="0.75"/>
<circle cx="90.3" cy="266.8" r="4.2" fill="#2f6fed" fill-opacity="0.75"/>
<circle cx="98.9" cy="267.1" r="4.2" fill="#2f6fed" fill-opacity="0.75"/>
<circle cx="144.8" cy="273.1" r="4.2" fill="#2f6fed" fill-opacity="0.75"/>
<circle cx="91.8" cy="266.8" r="4.2" fill="#2f6fed" fill-opacity="0.75"/>
<circle cx="129.0" cy="267.7" r="4.2" fill="#2f6fed" fill-opacity="0.75"/>
<circle cx="269.6" cy="277.3" r="4.2" fill="#2f6fed" fill-opacity="0.75"/>
<circle cx="107.2" cy="267.7" r="4.2" fill="#2f6fed" fill-opacity="0.75"/>
<circle cx="287.6" cy="330.3" r="4.2" fill="#2f6fed" fill-opacity="0.75"/>
<circle cx="148.9" cy="274.7" r="4.2" fill="#2f6fed" fill-opacity="0.75"/>
<circle cx="162.4" cy="262.5" r="4.2" fill="#2f6fed" fill-opacity="0.75"/>
<circle cx="217.5" cy="279.9" r="4.2" fill="#2f6fed" fill-opacity="0.75"/>
<circle cx="262.3" cy="267.3" r="4.2" fill="#2f6fed" fill-opacity="0.75"/>
<circle cx="271.9" cy="240.3" r="4.2" fill="#2f6fed" fill-opacity="0.75"/>
<circle cx="281.3" cy="309.7" r="4.2" fill="#2f6fed" fill-opacity="0.75"/>
<circle cx="92.4" cy="267.1" r="4.2" fill="#2f6fed" fill-opacity="0.75"/>
<circle cx="190.8" cy="273.3" r="4.2" fill="#2f6fed" fill-opacity="0.75"/>
<circle cx="90.4" cy="266.8" r="4.2" fill="#2f6fed" fill-opacity="0.75"/>
<circle cx="202.3" cy="289.0" r="4.2" fill="#2f6fed" fill-opacity="0.75"/>
<circle cx="138.9" cy="268.9" r="4.2" fill="#2f6fed" fill-opacity="0.75"/>
<circle cx="165.4" cy="278.5" r="4.2" fill="#2f6fed" fill-opacity="0.75"/>
<circle cx="108.9" cy="266.9" r="4.2" fill="#2f6fed" fill-opacity="0.75"/>
<circle cx="87.1" cy="266.6" r="4.2" fill="#2f6fed" fill-opacity="0.75"/>
<circle cx="125.8" cy="268.4" r="4.2" fill="#2f6fed" fill-opacity="0.75"/>
<circle cx="130.7" cy="269.1" r="4.2" fill="#2f6fed" fill-opacity="0.75"/>
<circle cx="80.8" cy="266.7" r="4.2" fill="#2f6fed" fill-opacity="0.75"/>
<circle cx="391.0" cy="335.8" r="4.2" fill="#2f6fed" fill-opacity="0.75"/>
<circle cx="253.0" cy="258.9" r="4.2" fill="#2f6fed" fill-opacity="0.75"/>
<circle cx="186.6" cy="283.4" r="4.2" fill="#2f6fed" fill-opacity="0.75"/>
<circle cx="197.0" cy="271.7" r="4.2" fill="#2f6fed" fill-opacity="0.75"/>
<circle cx="189.5" cy="258.8" r="4.2" fill="#2f6fed" fill-opacity="0.75"/>
<circle cx="70.0" cy="265.8" r="4.2" fill="#2f6fed" fill-opacity="0.75"/>
<circle cx="74.2" cy="266.0" r="4.2" fill="#2f6fed" fill-opacity="0.75"/>
<circle cx="173.2" cy="269.6" r="4.2" fill="#2f6fed" fill-opacity="0.75"/>
<circle cx="93.8" cy="267.5" r="4.2" fill="#2f6fed" fill-opacity="0.75"/>
<circle cx="237.7" cy="256.0" r="4.2" fill="#2f6fed" fill-opacity="0.75"/>
<circle cx="110.8" cy="268.3" r="4.2" fill="#2f6fed" fill-opacity="0.75"/>
<circle cx="187.0" cy="263.9" r="4.2" fill="#2f6fed" fill-opacity="0.75"/>
<circle cx="145.3" cy="266.4" r="4.2" fill="#2f6fed" fill-opacity="0.75"/>
<circle cx="494.2" cy="50.0" r="4.2" fill="#2f6fed" fill-opacity="0.75"/>
<circle cx="90.4" cy="266.0" r="4.2" fill="#2f6fed" fill-opacity="0.75"/>
<circle cx="215.9" cy="295.4" r="4.2" fill="#2f6fed" fill-opacity="0.75"/>
<circle cx="140.3" cy="271.4" r="4.2" fill="#2f6fed" fill-opacity="0.75"/>
<circle cx="74.2" cy="265.9" r="4.2" fill="#2f6fed" fill-opacity="0.75"/>
<circle cx="238.7" cy="218.0" r="4.2" fill="#2f6fed" fill-opacity="0.75"/>
<circle cx="275.3" cy="256.0" r="4.2" fill="#2f6fed" fill-opacity="0.75"/>
<circle cx="241.6" cy="270.1" r="4.2" fill="#2f6fed" fill-opacity="0.75"/>
<circle cx="79.6" cy="266.4" r="4.2" fill="#2f6fed" fill-opacity="0.75"/>
<circle cx="123.0" cy="266.4" r="4.2" fill="#2f6fed" fill-opacity="0.75"/>
<circle cx="373.5" cy="341.2" r="4.2" fill="#2f6fed" fill-opacity="0.75"/>
<circle cx="157.3" cy="268.0" r="4.2" fill="#2f6fed" fill-opacity="0.75"/>
<circle cx="122.8" cy="262.0" r="4.2" fill="#2f6fed" fill-opacity="0.75"/>
<circle cx="172.4" cy="278.3" r="4.2" fill="#2f6fed" fill-opacity="0.75"/>
<circle cx="159.5" cy="265.1" r="4.2" fill="#2f6fed" fill-opacity="0.75"/>
<circle cx="142.6" cy="282.8" r="4.2" fill="#2f6fed" fill-opacity="0.75"/>
<circle cx="276.2" cy="227.6" r="4.2" fill="#2f6fed" fill-opacity="0.75"/>
<circle cx="255.4" cy="257.0" r="4.2" fill="#2f6fed" fill-opacity="0.75"/>
<circle cx="142.4" cy="268.5" r="4.2" fill="#2f6fed" fill-opacity="0.75"/>
<circle cx="195.0" cy="259.7" r="4.2" fill="#2f6fed" fill-opacity="0.75"/>
<circle cx="262.2" cy="332.8" r="4.2" fill="#ff7a00" fill-opacity="0.75"/>
<circle cx="98.1" cy="266.8" r="4.2" fill="#ff7a00" fill-opacity="0.75"/>
<circle cx="143.8" cy="270.0" r="4.2" fill="#ff7a00" fill-opacity="0.75"/>
<circle cx="403.3" cy="357.7" r="4.2" fill="#ff7a00" fill-opacity="0.75"/>
<circle cx="124.7" cy="262.4" r="4.2" fill="#ff7a00" fill-opacity="0.75"/>
<circle cx="106.9" cy="265.7" r="4.2" fill="#ff7a00" fill-opacity="0.75"/>
<circle cx="91.9" cy="266.1" r="4.2" fill="#ff7a00" fill-opacity="0.75"/>
<circle cx="109.1" cy="268.6" r="4.2" fill="#ff7a00" fill-opacity="0.75"/>
<circle cx="99.6" cy="266.6" r="4.2" fill="#ff7a00" fill-opacity="0.75"/>
<circle cx="118.6" cy="265.6" r="4.2" fill="#ff7a00" fill-opacity="0.75"/>
<circle cx="388.2" cy="321.2" r="4.2" fill="#ff7a00" fill-opacity="0.75"/>
<circle cx="105.5" cy="267.0" r="4.2" fill="#ff7a00" fill-opacity="0.75"/>
<circle cx="100.2" cy="266.6" r="4.2" fill="#ff7a00" fill-opacity="0.75"/>
<circle cx="148.7" cy="287.8" r="4.2" fill="#ff7a00" fill-opacity="0.75"/>
<circle cx="96.1" cy="266.6" r="4.2" fill="#ff7a00" fill-opacity="0.75"/>
<circle cx="115.5" cy="267.2" r="4.2" fill="#ff7a00" fill-opacity="0.75"/>
<circle cx="94.9" cy="266.0" r="4.2" fill="#ff7a00" fill-opacity="0.75"/>
<circle cx="365.4" cy="258.5" r="4.2" fill="#ff7a00" fill-opacity="0.75"/>
<circle cx="221.8" cy="234.1" r="4.2" fill="#ff7a00" fill-opacity="0.75"/>
<circle cx="118.6" cy="265.5" r="4.2" fill="#ff7a00" fill-opacity="0.75"/>
<circle cx="100.6" cy="266.9" r="4.2" fill="#ff7a00" fill-opacity="0.75"/>
<circle cx="100.0" cy="261.4" r="4.2" fill="#ff7a00" fill-opacity="0.75"/>
<circle cx="280.4" cy="329.1" r="4.2" fill="#ff7a00" fill-opacity="0.75"/>
<circle cx="139.5" cy="274.8" r="4.2" fill="#ff7a00" fill-opacity="0.75"/>
<circle cx="250.8" cy="273.9" r="4.2" fill="#ff7a00" fill-opacity="0.75"/>
<circle cx="148.6" cy="269.8" r="4.2" fill="#ff7a00" fill-opacity="0.75"/>
<circle cx="207.1" cy="283.7" r="4.2" fill="#ff7a00" fill-opacity="0.75"/>
<circle cx="138.1" cy="263.1" r="4.2" fill="#ff7a00" fill-opacity="0.75"/>
<circle cx="130.7" cy="268.1" r="4.2" fill="#ff7a00" fill-opacity="0.75"/>
<circle cx="257.0" cy="244.5" r="4.2" fill="#ff7a00" fill-opacity="0.75"/>
<circle cx="132.6" cy="275.8" r="4.2" fill="#ff7a00" fill-opacity="0.75"/>
<circle cx="91.4" cy="266.6" r="4.2" fill="#ff7a00" fill-opacity="0.75"/>
<circle cx="94.7" cy="264.4" r="4.2" fill="#ff7a00" fill-opacity="0.75"/>
<circle cx="122.3" cy="266.8" r="4.2" fill="#ff7a00" fill-opacity="0.75"/>
<circle cx="171.8" cy="276.1" r="4.2" fill="#ff7a00" fill-opacity="0.75"/>
<circle cx="209.8" cy="264.1" r="4.2" fill="#ff7a00" fill-opacity="0.75"/>
<circle cx="130.8" cy="267.0" r="4.2" fill="#ff7a00" fill-opacity="0.75"/>
<circle cx="174.2" cy="273.5" r="4.2" fill="#ff7a00" fill-opacity="0.75"/>
<circle cx="118.2" cy="266.0" r="4.2" fill="#ff7a00" fill-opacity="0.75"/>
<circle cx="84.0" cy="265.3" r="4.2" fill="#ff7a00" fill-opacity="0.75"/>
<circle cx="284.0" cy="435.2" r="4.2" fill="#ff7a00" fill-opacity="0.75"/>
<circle cx="123.2" cy="262.2" r="4.2" fill="#ff7a00" fill-opacity="0.75"/>
<circle cx="235.0" cy="319.4" r="4.2" fill="#ff7a00" fill-opacity="0.75"/>
<circle cx="209.2" cy="314.4" r="4.2" fill="#ff7a00" fill-opacity="0.75"/>
<circle cx="128.2" cy="265.2" r="4.2" fill="#ff7a00" fill-opacity="0.75"/>
<circle cx="227.3" cy="320.3" r="4.2" fill="#ff7a00" fill-opacity="0.75"/>
<circle cx="123.9" cy="270.5" r="4.2" fill="#ff7a00" fill-opacity="0.75"/>
<circle cx="112.0" cy="268.7" r="4.2" fill="#ff7a00" fill-opacity="0.75"/>
<circle cx="136.1" cy="268.4" r="4.2" fill="#ff7a00" fill-opacity="0.75"/>
<circle cx="118.8" cy="260.9" r="4.2" fill="#ff7a00" fill-opacity="0.75"/>
<circle cx="216.1" cy="233.7" r="4.2" fill="#ff7a00" fill-opacity="0.75"/>
<circle cx="144.6" cy="274.0" r="4.2" fill="#ff7a00" fill-opacity="0.75"/>
<circle cx="173.8" cy="282.5" r="4.2" fill="#ff7a00" fill-opacity="0.75"/>
<circle cx="144.1" cy="273.3" r="4.2" fill="#ff7a00" fill-opacity="0.75"/>
<circle cx="102.8" cy="268.2" r="4.2" fill="#ff7a00" fill-opacity="0.75"/>
<circle cx="145.2" cy="268.0" r="4.2" fill="#ff7a00" fill-opacity="0.75"/>
<circle cx="115.1" cy="268.7" r="4.2" fill="#ff7a00" fill-opacity="0.75"/>
<circle cx="117.6" cy="266.6" r="4.2" fill="#ff7a00" fill-opacity="0.75"/>
<circle cx="278.7" cy="260.0" r="4.2" fill="#ff7a00" fill-opacity="0.75"/>
<circle cx="515.9" cy="335.4" r="4.2" fill="#ff7a00" fill-opacity="0.75"/>
<circle cx="232.8" cy="286.9" r="4.2" fill="#ff7a00" fill-opacity="0.75"/>
<circle cx="153.5" cy="265.8" r="4.2" fill="#ff7a00" fill-opacity="0.75"/>
<circle cx="131.0" cy="268.7" r="4.2" fill="#ff7a00" fill-opacity="0.75"/>
<circle cx="149.5" cy="262.8" r="4.2" fill="#ff7a00" fill-opacity="0.75"/>
<circle cx="153.8" cy="275.1" r="4.2" fill="#ff7a00" fill-opacity="0.75"/>
<circle cx="167.7" cy="281.7" r="4.2" fill="#ff7a00" fill-opacity="0.75"/>
<circle cx="133.5" cy="262.7" r="4.2" fill="#ff7a00" fill-opacity="0.75"/>
<circle cx="118.5" cy="265.5" r="4.2" fill="#ff7a00" fill-opacity="0.75"/>
<circle cx="157.6" cy="283.1" r="4.2" fill="#ff7a00" fill-opacity="0.75"/>
<circle cx="339.0" cy="259.7" r="4.2" fill="#ff7a00" fill-opacity="0.75"/>
<circle cx="104.2" cy="262.7" r="4.2" fill="#ff7a00" fill-opacity="0.75"/>
<circle cx="117.8" cy="265.9" r="4.2" fill="#ff7a00" fill-opacity="0.75"/>
<circle cx="213.4" cy="304.0" r="4.2" fill="#ff7a00" fill-opacity="0.75"/>
<circle cx="185.9" cy="258.4" r="4.2" fill="#ff7a00" fill-opacity="0.75"/>
<circle cx="140.2" cy="269.5" r="4.2" fill="#ff7a00" fill-opacity="0.75"/>
<circle cx="195.4" cy="267.2" r="4.2" fill="#ff7a00" fill-opacity="0.75"/>
<circle cx="264.9" cy="340.8" r="4.2" fill="#ff7a00" fill-opacity="0.75"/>
<circle cx="106.7" cy="262.4" r="4.2" fill="#ff7a00" fill-opacity="0.75"/>
<circle cx="303.6" cy="367.4" r="4.2" fill="#ff7a00" fill-opacity="0.75"/>
<circle cx="124.5" cy="263.6" r="4.2" fill="#ff7a00" fill-opacity="0.75"/>
<circle cx="525.5" cy="470.0" r="4.2" fill="#ff7a00" fill-opacity="0.75"/>
<circle cx="208.2" cy="261.7" r="4.2" fill="#ff7a00" fill-opacity="0.75"/>
<circle cx="108.7" cy="265.2" r="4.2" fill="#ff7a00" fill-opacity="0.75"/>
<circle cx="204.7" cy="247.4" r="4.2" fill="#ff7a00" fill-opacity="0.75"/>
<circle cx="92.7" cy="266.8" r="4.2" fill="#ff7a00" fill-opacity="0.75"/>
<circle cx="143.3" cy="258.8" r="4.2" fill="#ff7a00" fill-opacity="0.75"/>
<circle cx="113.7" cy="265.4" r="4.2" fill="#ff7a00" fill-opacity="0.75"/>
<circle cx="222.7" cy="203.0" r="4.2" fill="#ff7a00" fill-opacity="0.75"/>
<circle cx="87.3" cy="266.5" r="4.2" fill="#ff7a00" fill-opacity="0.75"/>
<circle cx="133.1" cy="282.5" r="4.2" fill="#ff7a00" fill-opacity="0.75"/>
<circle cx="211.3" cy="326.8" r="4.2" fill="#ff7a00" fill-opacity="0.75"/>
<circle cx="324.2" cy="355.6" r="4.2" fill="#ff7a00" fill-opacity="0.75"/>
<circle cx="105.1" cy="267.0" r="4.2" fill="#ff7a00" fill-opacity="0.75"/>
<circle cx="226.6" cy="350.1" r="4.2" fill="#ff7a00" fill-opacity="0.75"/>
<circle cx="143.1" cy="258.9" r="4.2" fill="#ff7a00" fill-opacity="0.75"/>
<circle cx="224.2" cy="308.8" r="4.2" fill="#ff7a00" fill-opacity="0.75"/>
<circle cx="155.7" cy="270.1" r="4.2" fill="#ff7a00" fill-opacity="0.75"/>
<circle cx="103.2" cy="262.1" r="4.2" fill="#ff7a00" fill-opacity="0.75"/>
<circle cx="177.9" cy="318.6" r="4.2" fill="#ff7a00" fill-opacity="0.75"/>
<circle cx="137.8" cy="268.6" r="4.2" fill="#ff7a00" fill-opacity="0.75"/>
<circle cx="155.8" cy="271.5" r="4.2" fill="#1fa971" fill-opacity="0.75"/>
<circle cx="111.6" cy="269.4" r="4.2" fill="#1fa971" fill-opacity="0.75"/>
<circle cx="92.0" cy="266.5" r="4.2" fill="#1fa971" fill-opacity="0.75"/>
<circle cx="148.1" cy="262.7" r="4.2" fill="#1fa971" fill-opacity="0.75"/>
<circle cx="175.9" cy="263.1" r="4.2" fill="#1fa971" fill-opacity="0.75"/>
<circle cx="382.9" cy="255.2" r="4.2" fill="#1fa971" fill-opacity="0.75"/>
<circle cx="212.3" cy="250.5" r="4.2" fill="#1fa971" fill-opacity="0.75"/>
<circle cx="115.8" cy="265.6" r="4.2" fill="#1fa971" fill-opacity="0.75"/>
<circle cx="152.8" cy="268.4" r="4.2" fill="#1fa971" fill-opacity="0.75"/>
<circle cx="398.5" cy="188.2" r="4.2" fill="#1fa971" fill-opacity="0.75"/>
<circle cx="274.2" cy="266.3" r="4.2" fill="#1fa971" fill-opacity="0.75"/>
<circle cx="304.0" cy="293.1" r="4.2" fill="#1fa971" fill-opacity="0.75"/>
<circle cx="311.0" cy="254.5" r="4.2" fill="#1fa971" fill-opacity="0.75"/>
<circle cx="226.7" cy="312.8" r="4.2" fill="#1fa971" fill-opacity="0.75"/>
<circle cx="180.8" cy="265.3" r="4.2" fill="#1fa971" fill-opacity="0.75"/>
<circle cx="236.6" cy="234.6" r="4.2" fill="#1fa971" fill-opacity="0.75"/>
<circle cx="152.4" cy="257.5" r="4.2" fill="#1fa971" fill-opacity="0.75"/>
<circle cx="93.6" cy="267.1" r="4.2" fill="#1fa971" fill-opacity="0.75"/>
<circle cx="297.1" cy="294.5" r="4.2" fill="#1fa971" fill-opacity="0.75"/>
<circle cx="100.4" cy="267.5" r="4.2" fill="#1fa971" fill-opacity="0.75"/>
<circle cx="204.1" cy="281.4" r="4.2" fill="#1fa971" fill-opacity="0.75"/>
<circle cx="91.6" cy="265.4" r="4.2" fill="#1fa971" fill-opacity="0.75"/>
<circle cx="123.7" cy="267.7" r="4.2" fill="#1fa971" fill-opacity="0.75"/>
<circle cx="214.1" cy="294.3" r="4.2" fill="#1fa971" fill-opacity="0.75"/>
<circle cx="212.3" cy="311.5" r="4.2" fill="#1fa971" fill-opacity="0.75"/>
<circle cx="106.4" cy="267.7" r="4.2" fill="#1fa971" fill-opacity="0.75"/>
<circle cx="275.5" cy="295.0" r="4.2" fill="#1fa971" fill-opacity="0.75"/>
<circle cx="98.6" cy="267.1" r="4.2" fill="#1fa971" fill-opacity="0.75"/>
<circle cx="169.3" cy="276.1" r="4.2" fill="#1fa971" fill-opacity="0.75"/>
<circle cx="177.3" cy="271.5" r="4.2" fill="#1fa971" fill-opacity="0.75"/>
<circle cx="218.5" cy="283.1" r="4.2" fill="#1fa971" fill-opacity="0.75"/>
<circle cx="201.3" cy="289.4" r="4.2" fill="#1fa971" fill-opacity="0.75"/>
<circle cx="254.6" cy="281.9" r="4.2" fill="#1fa971" fill-opacity="0.75"/>
<circle cx="225.5" cy="332.5" r="4.2" fill="#1fa971" fill-opacity="0.75"/>
<circle cx="222.5" cy="280.0" r="4.2" fill="#1fa971" fill-opacity="0.75"/>
<circle cx="254.8" cy="301.4" r="4.2" fill="#1fa971" fill-opacity="0.75"/>
<circle cx="262.6" cy="270.9" r="4.2" fill="#1fa971" fill-opacity="0.75"/>
<circle cx="178.0" cy="273.5" r="4.2" fill="#1fa971" fill-opacity="0.75"/>
<circle cx="94.5" cy="266.9" r="4.2" fill="#1fa971" fill-opacity="0.75"/>
<circle cx="111.5" cy="269.7" r="4.2" fill="#1fa971" fill-opacity="0.75"/>
<circle cx="362.1" cy="224.4" r="4.2" fill="#1fa971" fill-opacity="0.75"/>
<circle cx="124.2" cy="273.2" r="4.2" fill="#1fa971" fill-opacity="0.75"/>
<circle cx="107.3" cy="267.9" r="4.2" fill="#1fa971" fill-opacity="0.75"/>
<circle cx="91.9" cy="267.0" r="4.2" fill="#1fa971" fill-opacity="0.75"/>
<circle cx="159.0" cy="275.7" r="4.2" fill="#1fa971" fill-opacity="0.75"/>
<circle cx="86.0" cy="266.6" r="4.2" fill="#1fa971" fill-opacity="0.75"/>
<circle cx="127.3" cy="267.2" r="4.2" fill="#1fa971" fill-opacity="0.75"/>
<circle cx="103.1" cy="267.3" r="4.2" fill="#1fa971" fill-opacity="0.75"/>
<circle cx="143.9" cy="265.0" r="4.2" fill="#1fa971" fill-opacity="0.75"/>
<circle cx="167.7" cy="280.7" r="4.2" fill="#1fa971" fill-opacity="0.75"/>
<circle cx="455.5" cy="313.7" r="4.2" fill="#1fa971" fill-opacity="0.75"/>
<circle cx="123.4" cy="267.1" r="4.2" fill="#1fa971" fill-opacity="0.75"/>
<circle cx="112.8" cy="269.1" r="4.2" fill="#1fa971" fill-opacity="0.75"/>
<circle cx="261.4" cy="240.7" r="4.2" fill="#1fa971" fill-opacity="0.75"/>
<circle cx="105.2" cy="267.5" r="4.2" fill="#1fa971" fill-opacity="0.75"/>
<circle cx="105.6" cy="267.6" r="4.2" fill="#1fa971" fill-opacity="0.75"/>
<circle cx="117.1" cy="268.0" r="4.2" fill="#1fa971" fill-opacity="0.75"/>
<circle cx="202.0" cy="262.5" r="4.2" fill="#1fa971" fill-opacity="0.75"/>
<circle cx="137.1" cy="270.6" r="4.2" fill="#1fa971" fill-opacity="0.75"/>
<circle cx="559.4" cy="205.0" r="4.2" fill="#1fa971" fill-opacity="0.75"/>
<circle cx="105.2" cy="267.2" r="4.2" fill="#1fa971" fill-opacity="0.75"/>
<circle cx="149.8" cy="280.7" r="4.2" fill="#1fa971" fill-opacity="0.75"/>
<circle cx="98.5" cy="266.4" r="4.2" fill="#1fa971" fill-opacity="0.75"/>
<circle cx="107.4" cy="267.2" r="4.2" fill="#1fa971" fill-opacity="0.75"/>
<circle cx="119.2" cy="268.1" r="4.2" fill="#1fa971" fill-opacity="0.75"/>
<circle cx="102.3" cy="268.9" r="4.2" fill="#1fa971" fill-opacity="0.75"/>
<circle cx="211.3" cy="257.9" r="4.2" fill="#1fa971" fill-opacity="0.75"/>
<circle cx="110.3" cy="267.8" r="4.2" fill="#1fa971" fill-opacity="0.75"/>
<circle cx="549.5" cy="257.0" r="4.2" fill="#1fa971" fill-opacity="0.75"/>
<circle cx="544.3" cy="224.6" r="4.2" fill="#1fa971" fill-opacity="0.75"/>
<circle cx="611.1" cy="142.6" r="4.2" fill="#1fa971" fill-opacity="0.75"/>
<circle cx="501.4" cy="223.8" r="4.2" fill="#1fa971" fill-opacity="0.75"/>
<circle cx="120.6" cy="258.3" r="4.2" fill="#1fa971" fill-opacity="0.75"/>
<circle cx="287.0" cy="227.2" r="4.2" fill="#1fa971" fill-opacity="0.75"/>
<circle cx="408.2" cy="201.5" r="4.2" fill="#1fa971" fill-opacity="0.75"/>
<circle cx="285.6" cy="220.2" r="4.2" fill="#1fa971" fill-opacity="0.75"/>
<circle cx="229.3" cy="303.3" r="4.2" fill="#1fa971" fill-opacity="0.75"/>
<circle cx="230.1" cy="255.7" r="4.2" fill="#1fa971" fill-opacity="0.75"/>
<circle cx="335.4" cy="282.3" r="4.2" fill="#1fa971" fill-opacity="0.75"/>
<circle cx="281.0" cy="243.7" r="4.2" fill="#1fa971" fill-opacity="0.75"/>
<circle cx="200.3" cy="264.4" r="4.2" fill="#1fa971" fill-opacity="0.75"/>
<circle cx="600.6" cy="292.9" r="4.2" fill="#1fa971" fill-opacity="0.75"/>
<circle cx="134.4" cy="266.8" r="4.2" fill="#1fa971" fill-opacity="0.75"/>
<circle cx="333.3" cy="319.6" r="4.2" fill="#1fa971" fill-opacity="0.75"/>
<circle cx="155.3" cy="279.9" r="4.2" fill="#1fa971" fill-opacity="0.75"/>
<circle cx="334.0" cy="333.2" r="4.2" fill="#1fa971" fill-opacity="0.75"/>
<circle cx="357.5" cy="300.7" r="4.2" fill="#1fa971" fill-opacity="0.75"/>
<circle cx="140.9" cy="270.0" r="4.2" fill="#1fa971" fill-opacity="0.75"/>
<circle cx="149.2" cy="277.9" r="4.2" fill="#1fa971" fill-opacity="0.75"/>
<circle cx="206.2" cy="291.7" r="4.2" fill="#1fa971" fill-opacity="0.75"/>
<circle cx="182.3" cy="262.1" r="4.2" fill="#1fa971" fill-opacity="0.75"/>
<circle cx="280.5" cy="261.1" r="4.2" fill="#1fa971" fill-opacity="0.75"/>
<circle cx="336.0" cy="364.5" r="4.2" fill="#1fa971" fill-opacity="0.75"/>
<circle cx="186.8" cy="279.6" r="4.2" fill="#1fa971" fill-opacity="0.75"/>
<circle cx="140.9" cy="275.6" r="4.2" fill="#1fa971" fill-opacity="0.75"/>
<circle cx="377.4" cy="302.0" r="4.2" fill="#1fa971" fill-opacity="0.75"/>
<circle cx="164.1" cy="280.0" r="4.2" fill="#1fa971" fill-opacity="0.75"/>
<circle cx="149.9" cy="272.5" r="4.2" fill="#1fa971" fill-opacity="0.75"/>
<circle cx="323.0" cy="233.1" r="4.2" fill="#1fa971" fill-opacity="0.75"/>
<circle cx="314.7" cy="337.9" r="4.2" fill="#1fa971" fill-opacity="0.75"/>
<circle cx="338.8" cy="220.7" r="4.2" fill="#a046f2" fill-opacity="0.75"/>
<circle cx="322.6" cy="226.1" r="4.2" fill="#a046f2" fill-opacity="0.75"/>
<circle cx="231.2" cy="242.5" r="4.2" fill="#a046f2" fill-opacity="0.75"/>
<circle cx="233.7" cy="241.1" r="4.2" fill="#a046f2" fill-opacity="0.75"/>
<circle cx="413.9" cy="329.3" r="4.2" fill="#a046f2" fill-opacity="0.75"/>
<circle cx="406.3" cy="330.7" r="4.2" fill="#a046f2" fill-opacity="0.75"/>
<circle cx="138.6" cy="262.4" r="4.2" fill="#a046f2" fill-opacity="0.75"/>
<circle cx="138.9" cy="262.2" r="4.2" fill="#a046f2" fill-opacity="0.75"/>
<circle cx="219.9" cy="258.8" r="4.2" fill="#a046f2" fill-opacity="0.75"/>
<circle cx="215.0" cy="257.7" r="4.2" fill="#a046f2" fill-opacity="0.75"/>
<circle cx="355.3" cy="213.5" r="4.2" fill="#a046f2" fill-opacity="0.75"/>
<circle cx="348.9" cy="216.3" r="4.2" fill="#a046f2" fill-opacity="0.75"/>
<circle cx="260.5" cy="243.4" r="4.2" fill="#a046f2" fill-opacity="0.75"/>
<circle cx="257.8" cy="243.8" r="4.2" fill="#a046f2" fill-opacity="0.75"/>
<circle cx="192.7" cy="272.7" r="4.2" fill="#a046f2" fill-opacity="0.75"/>
<circle cx="192.9" cy="272.8" r="4.2" fill="#a046f2" fill-opacity="0.75"/>
<circle cx="379.3" cy="264.4" r="4.2" fill="#a046f2" fill-opacity="0.75"/>
<circle cx="377.7" cy="263.7" r="4.2" fill="#a046f2" fill-opacity="0.75"/>
<circle cx="432.2" cy="258.9" r="4.2" fill="#a046f2" fill-opacity="0.75"/>
<circle cx="427.3" cy="260.7" r="4.2" fill="#a046f2" fill-opacity="0.75"/>
<circle cx="360.2" cy="277.9" r="4.2" fill="#a046f2" fill-opacity="0.75"/>
<circle cx="354.7" cy="274.8" r="4.2" fill="#a046f2" fill-opacity="0.75"/>
<circle cx="195.1" cy="258.7" r="4.2" fill="#a046f2" fill-opacity="0.75"/>
<circle cx="193.6" cy="258.9" r="4.2" fill="#a046f2" fill-opacity="0.75"/>
<circle cx="484.8" cy="127.1" r="4.2" fill="#a046f2" fill-opacity="0.75"/>
<circle cx="480.9" cy="127.4" r="4.2" fill="#a046f2" fill-opacity="0.75"/>
<circle cx="327.1" cy="182.9" r="4.2" fill="#a046f2" fill-opacity="0.75"/>
<circle cx="322.1" cy="184.5" r="4.2" fill="#a046f2" fill-opacity="0.75"/>
<circle cx="336.1" cy="315.2" r="4.2" fill="#a046f2" fill-opacity="0.75"/>
<circle cx="333.9" cy="314.9" r="4.2" fill="#a046f2" fill-opacity="0.75"/>
<circle cx="245.1" cy="274.3" r="4.2" fill="#a046f2" fill-opacity="0.75"/>
<circle cx="244.9" cy="274.2" r="4.2" fill="#a046f2" fill-opacity="0.75"/>
<circle cx="330.0" cy="329.8" r="4.2" fill="#a046f2" fill-opacity="0.75"/>
<circle cx="325.7" cy="330.3" r="4.2" fill="#a046f2" fill-opacity="0.75"/>
<circle cx="129.8" cy="277.6" r="4.2" fill="#a046f2" fill-opacity="0.75"/>
<circle cx="128.1" cy="277.0" r="4.2" fill="#a046f2" fill-opacity="0.75"/>
<circle cx="242.2" cy="235.7" r="4.2" fill="#a046f2" fill-opacity="0.75"/>
<circle cx="239.5" cy="236.8" r="4.2" fill="#a046f2" fill-opacity="0.75"/>
<circle cx="117.6" cy="268.4" r="4.2" fill="#a046f2" fill-opacity="0.75"/>
<circle cx="116.9" cy="268.4" r="4.2" fill="#a046f2" fill-opacity="0.75"/>
<circle cx="720.0" cy="294.5" r="4.2" fill="#a046f2" fill-opacity="0.75"/>
<circle cx="717.1" cy="294.6" r="4.2" fill="#a046f2" fill-opacity="0.75"/>
<circle cx="263.1" cy="286.3" r="4.2" fill="#a046f2" fill-opacity="0.75"/>
<circle cx="253.4" cy="285.7" r="4.2" fill="#a046f2" fill-opacity="0.75"/>
<circle cx="291.2" cy="285.2" r="4.2" fill="#a046f2" fill-opacity="0.75"/>
<circle cx="286.2" cy="284.8" r="4.2" fill="#a046f2" fill-opacity="0.75"/>
<circle cx="295.2" cy="220.0" r="4.2" fill="#a046f2" fill-opacity="0.75"/>
<circle cx="289.8" cy="221.6" r="4.2" fill="#a046f2" fill-opacity="0.75"/>
<circle cx="330.7" cy="251.3" r="4.2" fill="#a046f2" fill-opacity="0.75"/>
<circle cx="327.3" cy="251.8" r="4.2" fill="#a046f2" fill-opacity="0.75"/>
<circle cx="391.2" cy="307.7" r="4.2" fill="#a046f2" fill-opacity="0.75"/>
<circle cx="389.1" cy="307.5" r="4.2" fill="#a046f2" fill-opacity="0.75"/>
<circle cx="558.1" cy="165.5" r="4.2" fill="#a046f2" fill-opacity="0.75"/>
<circle cx="553.7" cy="165.5" r="4.2" fill="#a046f2" fill-opacity="0.75"/>
<circle cx="451.1" cy="322.2" r="4.2" fill="#a046f2" fill-opacity="0.75"/>
<circle cx="448.9" cy="322.2" r="4.2" fill="#a046f2" fill-opacity="0.75"/>
<circle cx="112.8" cy="260.8" r="4.2" fill="#a046f2" fill-opacity="0.75"/>
<circle cx="113.7" cy="261.0" r="4.2" fill="#a046f2" fill-opacity="0.75"/>
<circle cx="354.2" cy="271.7" r="4.2" fill="#a046f2" fill-opacity="0.75"/>
<circle cx="346.8" cy="272.4" r="4.2" fill="#a046f2" fill-opacity="0.75"/>
<circle cx="250.0" cy="249.1" r="4.2" fill="#a046f2" fill-opacity="0.75"/>
<circle cx="245.8" cy="249.7" r="4.2" fill="#a046f2" fill-opacity="0.75"/>
<circle cx="177.0" cy="301.9" r="4.2" fill="#a046f2" fill-opacity="0.75"/>
<circle cx="172.3" cy="300.5" r="4.2" fill="#a046f2" fill-opacity="0.75"/>
<circle cx="311.9" cy="201.1" r="4.2" fill="#a046f2" fill-opacity="0.75"/>
<circle cx="308.0" cy="202.9" r="4.2" fill="#a046f2" fill-opacity="0.75"/>
<circle cx="326.7" cy="274.3" r="4.2" fill="#a046f2" fill-opacity="0.75"/>
<circle cx="321.6" cy="274.3" r="4.2" fill="#a046f2" fill-opacity="0.75"/>
<circle cx="334.0" cy="227.9" r="4.2" fill="#a046f2" fill-opacity="0.75"/>
<circle cx="332.1" cy="228.7" r="4.2" fill="#a046f2" fill-opacity="0.75"/>
<circle cx="158.3" cy="285.8" r="4.2" fill="#a046f2" fill-opacity="0.75"/>
<circle cx="155.3" cy="284.0" r="4.2" fill="#a046f2" fill-opacity="0.75"/>
<circle cx="159.0" cy="288.3" r="4.2" fill="#a046f2" fill-opacity="0.75"/>
<circle cx="158.7" cy="288.2" r="4.2" fill="#a046f2" fill-opacity="0.75"/>
<circle cx="161.2" cy="252.4" r="4.2" fill="#a046f2" fill-opacity="0.75"/>
<circle cx="161.4" cy="252.1" r="4.2" fill="#a046f2" fill-opacity="0.75"/>
<circle cx="255.8" cy="285.2" r="4.2" fill="#a046f2" fill-opacity="0.75"/>
<circle cx="250.8" cy="284.6" r="4.2" fill="#a046f2" fill-opacity="0.75"/>
<circle cx="303.6" cy="326.2" r="4.2" fill="#a046f2" fill-opacity="0.75"/>
<circle cx="300.4" cy="325.8" r="4.2" fill="#a046f2" fill-opacity="0.75"/>
<circle cx="189.2" cy="272.1" r="4.2" fill="#a046f2" fill-opacity="0.75"/>
<circle cx="183.0" cy="271.5" r="4.2" fill="#a046f2" fill-opacity="0.75"/>
<circle cx="119.9" cy="268.1" r="4.2" fill="#a046f2" fill-opacity="0.75"/>
<circle cx="116.6" cy="268.0" r="4.2" fill="#a046f2" fill-opacity="0.75"/>
<circle cx="166.4" cy="281.8" r="4.2" fill="#a046f2" fill-opacity="0.75"/>
<circle cx="161.6" cy="280.6" r="4.2" fill="#a046f2" fill-opacity="0.75"/>
<circle cx="352.7" cy="399.1" r="4.2" fill="#a046f2" fill-opacity="0.75"/>
<circle cx="349.7" cy="397.5" r="4.2" fill="#a046f2" fill-opacity="0.75"/>
<circle cx="195.1" cy="272.5" r="4.2" fill="#a046f2" fill-opacity="0.75"/>
<circle cx="192.9" cy="272.4" r="4.2" fill="#a046f2" fill-opacity="0.75"/>
<circle cx="466.0" cy="342.6" r="4.2" fill="#a046f2" fill-opacity="0.75"/>
<circle cx="453.5" cy="343.9" r="4.2" fill="#a046f2" fill-opacity="0.75"/>
<circle cx="310.9" cy="332.7" r="4.2" fill="#a046f2" fill-opacity="0.75"/>
<circle cx="304.2" cy="331.1" r="4.2" fill="#a046f2" fill-opacity="0.75"/>
<circle cx="310.0" cy="294.1" r="4.2" fill="#a046f2" fill-opacity="0.75"/>
<circle cx="308.3" cy="293.9" r="4.2" fill="#a046f2" fill-opacity="0.75"/>
<circle cx="257.4" cy="287.5" r="4.2" fill="#a046f2" fill-opacity="0.75"/>
<circle cx="254.0" cy="287.9" r="4.2" fill="#a046f2" fill-opacity="0.75"/>
<circle cx="477.5" cy="182.1" r="4.2" fill="#a046f2" fill-opacity="0.75"/>
<circle cx="467.5" cy="184.6" r="4.2" fill="#a046f2" fill-opacity="0.75"/>
<circle cx="167.5" cy="261.5" r="4.2" fill="#d64545" fill-opacity="0.75"/>
<circle cx="167.3" cy="261.4" r="4.2" fill="#d64545" fill-opacity="0.75"/>
<circle cx="113.2" cy="267.5" r="4.2" fill="#d64545" fill-opacity="0.75"/>
<circle cx="111.6" cy="267.4" r="4.2" fill="#d64545" fill-opacity="0.75"/>
<circle cx="129.4" cy="275.1" r="4.2" fill="#d64545" fill-opacity="0.75"/>
<circle cx="129.0" cy="275.0" r="4.2" fill="#d64545" fill-opacity="0.75"/>
<circle cx="220.7" cy="330.5" r="4.2" fill="#d64545" fill-opacity="0.75"/>
<circle cx="216.7" cy="328.4" r="4.2" fill="#d64545" fill-opacity="0.75"/>
<circle cx="272.3" cy="247.4" r="4.2" fill="#d64545" fill-opacity="0.75"/>
<circle cx="268.4" cy="247.6" r="4.2" fill="#d64545" fill-opacity="0.75"/>
<circle cx="152.0" cy="266.3" r="4.2" fill="#d64545" fill-opacity="0.75"/>
<circle cx="148.6" cy="266.1" r="4.2" fill="#d64545" fill-opacity="0.75"/>
<circle cx="109.3" cy="267.0" r="4.2" fill="#d64545" fill-opacity="0.75"/>
<circle cx="107.3" cy="267.0" r="4.2" fill="#d64545" fill-opacity="0.75"/>
<circle cx="87.3" cy="266.4" r="4.2" fill="#d64545" fill-opacity="0.75"/>
<circle cx="87.3" cy="266.4" r="4.2" fill="#d64545" fill-opacity="0.75"/>
<circle cx="150.2" cy="273.5" r="4.2" fill="#d64545" fill-opacity="0.75"/>
<circle cx="145.9" cy="272.6" r="4.2" fill="#d64545" fill-opacity="0.75"/>
<circle cx="266.2" cy="273.6" r="4.2" fill="#d64545" fill-opacity="0.75"/>
<circle cx="251.7" cy="273.4" r="4.2" fill="#d64545" fill-opacity="0.75"/>
<circle cx="134.5" cy="262.5" r="4.2" fill="#d64545" fill-opacity="0.75"/>
<circle cx="133.8" cy="262.6" r="4.2" fill="#d64545" fill-opacity="0.75"/>
<circle cx="221.2" cy="260.6" r="4.2" fill="#d64545" fill-opacity="0.75"/>
<circle cx="221.0" cy="260.6" r="4.2" fill="#d64545" fill-opacity="0.75"/>
<circle cx="294.7" cy="341.0" r="4.2" fill="#d64545" fill-opacity="0.75"/>
<circle cx="290.3" cy="340.4" r="4.2" fill="#d64545" fill-opacity="0.75"/>
<circle cx="158.4" cy="287.4" r="4.2" fill="#d64545" fill-opacity="0.75"/>
<circle cx="155.2" cy="286.0" r="4.2" fill="#d64545" fill-opacity="0.75"/>
<circle cx="251.5" cy="287.2" r="4.2" fill="#d64545" fill-opacity="0.75"/>
<circle cx="247.9" cy="287.1" r="4.2" fill="#d64545" fill-opacity="0.75"/>
<circle cx="160.2" cy="278.8" r="4.2" fill="#d64545" fill-opacity="0.75"/>
<circle cx="156.9" cy="278.4" r="4.2" fill="#d64545" fill-opacity="0.75"/>
<circle cx="341.1" cy="255.1" r="4.2" fill="#d64545" fill-opacity="0.75"/>
<circle cx="337.9" cy="256.0" r="4.2" fill="#d64545" fill-opacity="0.75"/>
<circle cx="118.7" cy="265.5" r="4.2" fill="#d64545" fill-opacity="0.75"/>
<circle cx="118.6" cy="265.5" r="4.2" fill="#d64545" fill-opacity="0.75"/>
<circle cx="231.5" cy="293.7" r="4.2" fill="#d64545" fill-opacity="0.75"/>
<circle cx="226.3" cy="292.4" r="4.2" fill="#d64545" fill-opacity="0.75"/>
<circle cx="130.5" cy="273.0" r="4.2" fill="#d64545" fill-opacity="0.75"/>
<circle cx="127.8" cy="272.3" r="4.2" fill="#d64545" fill-opacity="0.75"/>
<circle cx="226.0" cy="289.8" r="4.2" fill="#d64545" fill-opacity="0.75"/>
<circle cx="220.4" cy="289.2" r="4.2" fill="#d64545" fill-opacity="0.75"/>
<circle cx="220.5" cy="242.5" r="4.2" fill="#d64545" fill-opacity="0.75"/>
<circle cx="219.7" cy="242.8" r="4.2" fill="#d64545" fill-opacity="0.75"/>
<circle cx="168.3" cy="253.4" r="4.2" fill="#d64545" fill-opacity="0.75"/>
<circle cx="167.4" cy="253.7" r="4.2" fill="#d64545" fill-opacity="0.75"/>
<circle cx="190.0" cy="265.5" r="4.2" fill="#d64545" fill-opacity="0.75"/>
<circle cx="189.5" cy="265.6" r="4.2" fill="#d64545" fill-opacity="0.75"/>
<circle cx="169.1" cy="273.0" r="4.2" fill="#d64545" fill-opacity="0.75"/>
<circle cx="168.7" cy="273.0" r="4.2" fill="#d64545" fill-opacity="0.75"/>
<circle cx="204.1" cy="258.7" r="4.2" fill="#d64545" fill-opacity="0.75"/>
<circle cx="199.0" cy="259.3" r="4.2" fill="#d64545" fill-opacity="0.75"/>
<circle cx="125.7" cy="264.2" r="4.2" fill="#d64545" fill-opacity="0.75"/>
<circle cx="122.7" cy="264.2" r="4.2" fill="#d64545" fill-opacity="0.75"/>
<circle cx="140.1" cy="264.9" r="4.2" fill="#d64545" fill-opacity="0.75"/>
<circle cx="137.0" cy="265.0" r="4.2" fill="#d64545" fill-opacity="0.75"/>
<circle cx="168.7" cy="257.8" r="4.2" fill="#d64545" fill-opacity="0.75"/>
<circle cx="168.4" cy="257.8" r="4.2" fill="#d64545" fill-opacity="0.75"/>
<circle cx="179.2" cy="261.5" r="4.2" fill="#d64545" fill-opacity="0.75"/>
<circle cx="177.2" cy="261.9" r="4.2" fill="#d64545" fill-opacity="0.75"/>
<circle cx="141.8" cy="266.2" r="4.2" fill="#d64545" fill-opacity="0.75"/>
<circle cx="138.8" cy="266.1" r="4.2" fill="#d64545" fill-opacity="0.75"/>
<circle cx="285.7" cy="281.9" r="4.2" fill="#d64545" fill-opacity="0.75"/>
<circle cx="277.8" cy="282.0" r="4.2" fill="#d64545" fill-opacity="0.75"/>
<circle cx="144.9" cy="266.9" r="4.2" fill="#d64545" fill-opacity="0.75"/>
<circle cx="141.3" cy="266.7" r="4.2" fill="#d64545" fill-opacity="0.75"/>
<circle cx="204.4" cy="274.0" r="4.2" fill="#d64545" fill-opacity="0.75"/>
<circle cx="203.6" cy="274.0" r="4.2" fill="#d64545" fill-opacity="0.75"/>
<circle cx="225.5" cy="248.8" r="4.2" fill="#d64545" fill-opacity="0.75"/>
<circle cx="224.5" cy="249.1" r="4.2" fill="#d64545" fill-opacity="0.75"/>
<circle cx="139.2" cy="268.6" r="4.2" fill="#d64545" fill-opacity="0.75"/>
<circle cx="136.7" cy="268.4" r="4.2" fill="#d64545" fill-opacity="0.75"/>
<circle cx="149.4" cy="270.2" r="4.2" fill="#d64545" fill-opacity="0.75"/>
<circle cx="146.3" cy="270.0" r="4.2" fill="#d64545" fill-opacity="0.75"/>
<circle cx="246.9" cy="236.8" r="4.2" fill="#d64545" fill-opacity="0.75"/>
<circle cx="243.4" cy="238.4" r="4.2" fill="#d64545" fill-opacity="0.75"/>
<circle cx="161.4" cy="264.3" r="4.2" fill="#d64545" fill-opacity="0.75"/>
<circle cx="161.1" cy="264.3" r="4.2" fill="#d64545" fill-opacity="0.75"/>
<circle cx="406.1" cy="211.3" r="4.2" fill="#d64545" fill-opacity="0.75"/>
<circle cx="403.6" cy="212.6" r="4.2" fill="#d64545" fill-opacity="0.75"/>
<circle cx="84.9" cy="266.2" r="4.2" fill="#d64545" fill-opacity="0.75"/>
<circle cx="84.4" cy="266.2" r="4.2" fill="#d64545" fill-opacity="0.75"/>
<circle cx="210.2" cy="278.3" r="4.2" fill="#d64545" fill-opacity="0.75"/>
<circle cx="206.6" cy="278.1" r="4.2" fill="#d64545" fill-opacity="0.75"/>
<circle cx="314.7" cy="298.3" r="4.2" fill="#d64545" fill-opacity="0.75"/>
<circle cx="311.9" cy="297.8" r="4.2" fill="#d64545" fill-opacity="0.75"/>
<circle cx="337.6" cy="255.4" r="4.2" fill="#d64545" fill-opacity="0.75"/>
<circle cx="331.1" cy="255.4" r="4.2" fill="#d64545" fill-opacity="0.75"/>
<circle cx="366.4" cy="281.6" r="4.2" fill="#d64545" fill-opacity="0.75"/>
<circle cx="364.6" cy="281.8" r="4.2" fill="#d64545" fill-opacity="0.75"/>
<circle cx="151.5" cy="270.2" r="4.2" fill="#d64545" fill-opacity="0.75"/>
<circle cx="147.9" cy="270.0" r="4.2" fill="#d64545" fill-opacity="0.75"/>
<circle cx="141.9" cy="266.3" r="4.2" fill="#d64545" fill-opacity="0.75"/>
<circle cx="139.3" cy="266.4" r="4.2" fill="#d64545" fill-opacity="0.75"/>
<circle cx="371.1" cy="182.5" r="4.2" fill="#d64545" fill-opacity="0.75"/>
<circle cx="366.9" cy="185.4" r="4.2" fill="#d64545" fill-opacity="0.75"/>
<circle cx="248.7" cy="307.1" r="4.2" fill="#d64545" fill-opacity="0.75"/>
<circle cx="246.8" cy="306.5" r="4.2" fill="#d64545" fill-opacity="0.75"/>
<circle cx="182.9" cy="275.0" r="4.2" fill="#d64545" fill-opacity="0.75"/>
<circle cx="182.4" cy="275.0" r="4.2" fill="#d64545" fill-opacity="0.75"/>
<rect x="750" y="60" width="14" height="14" fill="#2f6fed"/>
<text x="770" y="72" font-size="14" font-family="Arial">photo</text>
<rect x="750" y="84" width="14" height="14" fill="#ff7a00"/>
<text x="770" y="96" font-size="14" font-family="Arial">Hayao</text>
<rect x="750" y="108" width="14" height="14" fill="#1fa971"/>
<text x="770" y="120" font-size="14" font-family="Arial">monet</text>
<rect x="750" y="132" width="14" height="14" fill="#a046f2"/>
<text x="770" y="144" font-size="14" font-family="Arial">vangogh</text>
<rect x="750" y="156" width="14" height="14" fill="#d64545"/>
<text x="770" y="168" font-size="14" font-family="Arial">cezanne</text>
</svg>