<svg xmlns="http://www.w3.org/2000/svg" width="900" height="520" viewBox="0 0 900 520">
<rect width="100%" height="100%" fill="white"/>
<text x="450.0" y="28" text-anchor="middle" font-size="22" font-family="Arial">MDS Scatter: pixel_raw_mse</text>
<rect x="70" y="50" width="650" height="420" fill="none" stroke="black"/>
<circle cx="363.1" cy="359.6" r="4.2" fill="#2f6fed" fill-opacity="0.75"/>
<circle cx="120.9" cy="336.2" r="4.2" fill="#2f6fed" fill-opacity="0.75"/>
<circle cx="339.1" cy="136.9" r="4.2" fill="#2f6fed" fill-opacity="0.75"/>
<circle cx="225.0" cy="261.6" r="4.2" fill="#2f6fed" fill-opacity="0.75"/>
<circle cx="123.8" cy="249.6" r="4.2" fill="#2f6fed" fill-opacity="0.75"/>
<circle cx="291.6" cy="240.5" r="4.2" fill="#2f6fed" fill-opacity="0.75"/>
<circle cx="243.1" cy="211.6" r="4.2" fill="#2f6fed" fill-opacity="0.75"/>
<circle cx="346.4" cy="244.3" r="4.2" fill="#2f6fed" fill-opacity="0.75"/>
<circle cx="498.8" cy="379.4" r="4.2" fill="#2f6fed" fill-opacity="0.75"/>
<circle cx="304.9" cy="393.5" r="4.2" fill="#2f6fed" fill-opacity="0.75"/>
<circle cx="297.4" cy="364.0" r="4.2" fill="#2f6fed" fill-opacity="0.75"/>
<circle cx="310.7" cy="389.7" r="4.2" fill="#2f6fed" fill-opacity="0.75"/>
<circle cx="181.0" cy="429.4" r="4.2" fill="#2f6fed" fill-opacity="0.75"/>
<circle cx="238.4" cy="292.8" r="4.2" fill="#2f6fed" fill-opacity="0.75"/>
<circle cx="235.5" cy="327.4" r="4.2" fill="#2f6fed" fill-opacity="0.75"/>
<circle cx="121.3" cy="382.6" r="4.2" fill="#2f6fed" fill-opacity="0.75"/>
<circle cx="117.0" cy="261.7" r="4.2" fill="#2f6fed" fill-opacity="0.75"/>
<circle cx="288.2" cy="219.6" r="4.2" fill="#2f6fed" fill-opacity="0.75"/>
<circle cx="249.6" cy="348.8" r="4.2" fill="#2f6fed" fill-opacity="0.75"/>
<circle cx="277.4" cy="318.5" r="4.2" fill="#2f6fed" fill-opacity="0.75"/>
<circle cx="146.4" cy="357.7" r="4.2" fill="#2f6fed" fill-opacity="0.75"/>
<circle cx="476.0" cy="320.2" r="4.2" fill="#2f6fed" fill-opacity="0.75"/>
<circle cx="162.6" cy="274.3" r="4.2" fill="#2f6fed" fill-opacity="0.75"/>
<circle cx="437.6" cy="145.2" r="4.2" fill="#2f6fed" fill-opacity="0.75"/>
<circle cx="189.7" cy="361.9" r="4.2" fill="#2f6fed" fill-opacity="0.75"/>
<circle cx="171.2" cy="254.5" r="4.2" fill="#2f6fed" fill-opacity="0.75"/>
<circle cx="378.8" cy="301.3" r="4.2" fill="#2f6fed" fill-opacity="0.75"/>
<circle cx="272.5" cy="161.0" r="4.2" fill="#2f6fed" fill-opacity="0.75"/>
<circle cx="203.7" cy="218.1" r="4.2" fill="#2f6fed" fill-opacity="0.75"/>
<circle cx="275.0" cy="366.0" r="4.2" fill="#2f6fed" fill-opacity="0.75"/>
<circle cx="74.7" cy="284.7" r="4.2" fill="#2f6fed" fill-opacity="0.75"/>
<circle cx="191.7" cy="381.4" r="4.2" fill="#2f6fed" fill-opacity="0.75"/>
<circle cx="133.7" cy="290.0" r="4.2" fill="#2f6fed" fill-opacity="0.75"/>
<circle cx="264.3" cy="217.5" r="4.2" fill="#2f6fed" fill-opacity="0.75"/>
<circle cx="164.1" cy="381.5" r="4.2" fill="#2f6fed" fill-opacity="0.75"/>
<circle cx="207.3" cy="278.6" r="4.2" fill="#2f6fed" fill-opacity="0.75"/>
<circle cx="202.7" cy="143.0" r="4.2" fill="#2f6fed" fill-opacity="0.75"/>
<circle cx="217.2" cy="328.9" r="4.2" fill="#2f6fed" fill-opacity="0.75"/>
<circle cx="367.4" cy="286.1" r="4.2" fill="#2f6fed" fill-opacity="0.75"/>
<circle cx="244.9" cy="385.6" r="4.2" fill="#2f6fed" fill-opacity="0.75"/>
<circle cx="143.3" cy="223.9" r="4.2" fill="#2f6fed" fill-opacity="0.75"/>
<circle cx="256.9" cy="324.8" r="4.2" fill="#2f6fed" fill-opacity="0.75"/>
<circle cx="421.5" cy="383.5" r="4.2" fill="#2f6fed" fill-opacity="0.75"/>
<circle cx="183.4" cy="287.9" r="4.2" fill="#2f6fed" fill-opacity="0.75"/>
<circle cx="237.7" cy="183.2" r="4.2" fill="#2f6fed" fill-opacity="0.75"/>
<circle cx="129.2" cy="285.4" r="4.2" fill="#2f6fed" fill-opacity="0.75"/>
<circle cx="92.2" cy="276.8" r="4.2" fill="#2f6fed" fill-opacity="0.75"/>
<circle cx="272.5" cy="401.9" r="4.2" fill="#2f6fed" fill-opacity="0.75"/>
<circle cx="77.1" cy="324.5" r="4.2" fill="#2f6fed" fill-opacity="0.75"/>
<circle cx="159.2" cy="329.2" r="4.2" fill="#2f6fed" fill-opacity="0.75"/>
<circle cx="369.5" cy="287.6" r="4.2" fill="#2f6fed" fill-opacity="0.75"/>
<circle cx="265.5" cy="281.5" r="4.2" fill="#2f6fed" fill-opacity="0.75"/>
<circle cx="144.6" cy="154.3" r="4.2" fill="#2f6fed" fill-opacity="0.75"/>
<circle cx="514.7" cy="198.4" r="4.2" fill="#2f6fed" fill-opacity="0.75"/>
<circle cx="336.7" cy="218.5" r="4.2" fill="#2f6fed" fill-opacity="0.75"/>
<circle cx="209.0" cy="359.7" r="4.2" fill="#2f6fed" fill-opacity="0.75"/>
<circle cx="455.0" cy="419.8" r="4.2" fill="#2f6fed" fill-opacity="0.75"/>
<circle cx="207.2" cy="357.4" r="4.2" fill="#2f6fed" fill-opacity="0.75"/>
<circle cx="213.9" cy="332.0" r="4.2" fill="#2f6fed" fill-opacity="0.75"/>
<circle cx="119.6" cy="383.3" r="4.2" fill="#2f6fed" fill-opacity="0.75"/>
<circle cx="130.2" cy="341.2" r="4.2" fill="#2f6fed" fill-opacity="0.75"/>
<circle cx="202.1" cy="321.7" r="4.2" fill="#2f6fed" fill-opacity="0.75"/>
<circle cx="130.8" cy="305.9" r="4.2" fill="#2f6fed" fill-opacity="0.75"/>
<circle cx="74.8" cy="270.2" r="4.2" fill="#2f6fed" fill-opacity="0.75"/>
<circle cx="331.5" cy="248.6" r="4.2" fill="#2f6fed" fill-opacity="0.75"/>
<circle cx="173.6" cy="345.7" r="4.2" fill="#2f6fed" fill-opacity="0.75"/>
<circle cx="181.3" cy="243.6" r="4.2" fill="#2f6fed" fill-opacity="0.75"/>
<circle cx="193.8" cy="400.3" r="4.2" fill="#2f6fed" fill-opacity="0.75"/>
<circle cx="345.9" cy="356.9" r="4.2" fill="#2f6fed" fill-opacity="0.75"/>
<circle cx="154.9" cy="294.7" r="4.2" fill="#2f6fed" fill-opacity="0.75"/>
<circle cx="236.9" cy="352.5" r="4.2" fill="#2f6fed" fill-opacity="0.75"/>
<circle cx="394.6" cy="245.9" r="4.2" fill="#2f6fed" fill-opacity="0.75"/>
<circle cx="154.0" cy="125.4" r="4.2" fill="#2f6fed" fill-opacity="0.75"/>
<circle cx="319.3" cy="446.9" r="4.2" fill="#2f6fed" fill-opacity="0.75"/>
<circle cx="128.3" cy="299.2" r="4.2" fill="#2f6fed" fill-opacity="0.75"/>
<circle cx="144.7" cy="418.9" r="4.2" fill="#2f6fed" fill-opacity="0.75"/>
<circle cx="398.7" cy="275.7" r="4.2" fill="#2f6fed" fill-opacity="0.75"/>
<circle cx="349.9" cy="166.8" r="4.2" fill="#2f6fed" fill-opacity="0.75"/>
<circle cx="171.4" cy="370.9" r="4.2" fill="#2f6fed" fill-opacity="0.75"/>
<circle cx="270.8" cy="73.0" r="4.2" fill="#2f6fed" fill-opacity="0.75"/>
<circle cx="231.4" cy="367.9" r="4.2" fill="#2f6fed" fill-opacity="0.75"/>
<circle cx="401.4" cy="257.4" r="4.2" fill="#2f6fed" fill-opacity="0.75"/>
<circle cx="219.6" cy="388.6" r="4.2" fill="#2f6fed" fill-opacity="0.75"/>
<circle cx="137.0" cy="306.4" r="4.2" fill="#2f6fed" fill-opacity="0.75"/>
<circle cx="720.0" cy="331.0" r="4.2" fill="#2f6fed" fill-opacity="0.75"/>
<circle cx="250.0" cy="284.0" r="4.2" fill="#2f6fed" fill-opacity="0.75"/>
<circle cx="320.3" cy="338.9" r="4.2" fill="#2f6fed" fill-opacity="0.75"/>
<circle cx="199.1" cy="429.5" r="4.2" fill="#2f6fed" fill-opacity="0.75"/>
<circle cx="294.0" cy="377.3" r="4.2" fill="#2f6fed" fill-opacity="0.75"/>
<circle cx="176.3" cy="106.8" r="4.2" fill="#2f6fed" fill-opacity="0.75"/>
<circle cx="245.8" cy="401.2" r="4.2" fill="#2f6fed" fill-opacity="0.75"/>
<circle cx="113.6" cy="268.4" r="4.2" fill="#2f6fed" fill-opacity="0.75"/>
<circle cx="256.8" cy="183.3" r="4.2" fill="#2f6fed" fill-opacity="0.75"/>
<circle cx="292.3" cy="470.0" r="4.2" fill="#2f6fed" fill-opacity="0.75"/>
<circle cx="112.4" cy="355.2" r="4.2" fill="#2f6fed" fill-opacity="0.75"/>
<circle cx="139.4" cy="323.9" r="4.2" fill="#2f6fed" fill-opacity="0.75"/>
<circle cx="584.1" cy="292.6" r="4.2" fill="#2f6fed" fill-opacity="0.75"/>
<circle cx="222.0" cy="247.0" r="4.2" fill="#2f6fed" fill-opacity="0.75"/>
<circle cx="263.8" cy="411.6" r="4.2" fill="#2f6fed" fill-opacity="0.75"/>
<circle cx="400.6" cy="106.0" r="4.2" fill="#2f6fed" fill-opacity="0.75"/>
<circle cx="191.0" cy="244.6" r="4.2" fill="#ff7a00" fill-opacity="0.75"/>
<circle cx="401.1" cy="74.5" r="4.2" fill="#ff7a00" fill-opacity="0.75"/>
<circle cx="488.0" cy="373.3" r="4.2" fill="#ff7a00" fill-opacity="0.75"/>
<circle cx="357.5" cy="256.9" r="4.2" fill="#ff7a00" fill-opacity="0.75"/>
<circle cx="421.6" cy="264.8" r="4.2" fill="#ff7a00" fill-opacity="0.75"/>
<circle cx="279.9" cy="356.4" r="4.2" fill="#ff7a00" fill-opacity="0.75"/>
<circle cx="602.2" cy="286.3" r="4.2" fill="#ff7a00" fill-opacity="0.75"/>
<circle cx="329.6" cy="349.5" r="4.2" fill="#ff7a00" fill-opacity="0.75"/>
<circle cx="252.9" cy="233.2" r="4.2" fill="#ff7a00" fill-opacity="0.75"/>
<circle cx="414.9" cy="289.4" r="4.2" fill="#ff7a00" fill-opacity="0.75"/>
<circle cx="298.5" cy="292.8" r="4.2" fill="#ff7a00" fill-opacity="0.75"/>
<circle cx="549.0" cy="227.4" r="4.2" fill="#ff7a00" fill-opacity="0.75"/>
<circle cx="583.7" cy="236.5" r="4.2" fill="#ff7a00" fill-opacity="0.75"/>
<circle cx="287.3" cy="50.0" r="4.2" fill="#ff7a00" fill-opacity="0.75"/>
<circle cx="609.4" cy="204.1" r="4.2" fill="#ff7a00" fill-opacity="0.75"/>
<circle cx="256.3" cy="183.4" r="4.2" fill="#ff7a00" fill-opacity="0.75"/>
<circle cx="631.2" cy="358.3" r="4.2" fill="#ff7a00" fill-opacity="0.75"/>
<circle cx="306.4" cy="280.0" r="4.2" fill="#ff7a00" fill-opacity="0.75"/>
<circle cx="345.7" cy="161.6" r="4.2" fill="#ff7a00" fill-opacity="0.75"/>
<circle cx="387.4" cy="302.4" r="4.2" fill="#ff7a00" fill-opacity="0.75"/>
<circle cx="419.6" cy="191.2" r="4.2" fill="#ff7a00" fill-opacity="0.75"/>
<circle cx="531.1" cy="360.8" r="4.2" fill="#ff7a00" fill-opacity="0.75"/>
<circle cx="532.0" cy="265.5" r="4.2" fill="#ff7a00" fill-opacity="0.75"/>
<circle cx="169.5" cy="319.0" r="4.2" fill="#ff7a00" fill-opacity="0.75"/>
<circle cx="328.6" cy="341.5" r="4.2" fill="#ff7a00" fill-opacity="0.75"/>
<circle cx="256.9" cy="75.3" r="4.2" fill="#ff7a00" fill-opacity="0.75"/>
<circle cx="200.8" cy="256.8" r="4.2" fill="#ff7a00" fill-opacity="0.75"/>
<circle cx="334.7" cy="187.8" r="4.2" fill="#ff7a00" fill-opacity="0.75"/>
<circle cx="405.1" cy="397.8" r="4.2" fill="#ff7a00" fill-opacity="0.75"/>
<circle cx="299.9" cy="236.1" r="4.2" fill="#ff7a00" fill-opacity="0.75"/>
<circle cx="559.9" cy="291.5" r="4.2" fill="#ff7a00" fill-opacity="0.75"/>
<circle cx="384.5" cy="174.1" r="4.2" fill="#ff7a00" fill-opacity="0.75"/>
<circle cx="490.7" cy="340.3" r="4.2" fill="#ff7a00" fill-opacity="0.75"/>
<circle cx="439.3" cy="254.7" r="4.2" fill="#ff7a00" fill-opacity="0.75"/>
<circle cx="217.8" cy="204.7" r="4.2" fill="#ff7a00" fill-opacity="0.75"/>
<circle cx="481.5" cy="186.4" r="4.2" fill="#ff7a00" fill-opacity="0.75"/>
<circle cx="334.8" cy="292.4" r="4.2" fill="#ff7a00" fill-opacity="0.75"/>
<circle cx="463.9" cy="374.2" r="4.2" fill="#ff7a00" fill-opacity="0.75"/>
<circle cx="266.7" cy="161.2" r="4.2" fill="#ff7a00" fill-opacity="0.75"/>
<circle cx="160.6" cy="98.6" r="4.2" fill="#ff7a00" fill-opacity="0.75"/>
<circle cx="235.1" cy="183.7" r="4.2" fill="#ff7a00" fill-opacity="0.75"/>
<circle cx="464.4" cy="185.7" r="4.2" fill="#ff7a00" fill-opacity="0.75"/>
<circle cx="353.4" cy="292.3" r="4.2" fill="#ff7a00" fill-opacity="0.75"/>
<circle cx="429.3" cy="362.7" r="4.2" fill="#ff7a00" fill-opacity="0.75"/>
<circle cx="474.6" cy="266.3" r="4.2" fill="#ff7a00" fill-opacity="0.75"/>
<circle cx="261.0" cy="264.5" r="4.2" fill="#ff7a00" fill-opacity="0.75"/>
<circle cx="326.2" cy="271.3" r="4.2" fill="#ff7a00" fill-opacity="0.75"/>
<circle cx="348.2" cy="246.3" r="4.2" fill="#ff7a00" fill-opacity="0.75"/>
<circle cx="423.9" cy="213.8" r="4.2" fill="#ff7a00" fill-opacity="0.75"/>
<circle cx="211.9" cy="364.7" r="4.2" fill="#ff7a00" fill-opacity="0.75"/>
<circle cx="284.5" cy="228.6" r="4.2" fill="#ff7a00" fill-opacity="0.75"/>
<circle cx="407.2" cy="394.8" r="4.2" fill="#ff7a00" fill-opacity="0.75"/>
<circle cx="150.5" cy="172.1" r="4.2" fill="#ff7a00" fill-opacity="0.75"/>
<circle cx="337.7" cy="321.0" r="4.2" fill="#ff7a00" fill-opacity="0.75"/>
<circle cx="349.6" cy="399.8" r="4.2" fill="#ff7a00" fill-opacity="0.75"/>
<circle cx="367.7" cy="355.4" r="4.2" fill="#ff7a00" fill-opacity="0.75"/>
<circle cx="273.4" cy="216.5" r="4.2" fill="#ff7a00" fill-opacity="0.75"/>
<circle cx="492.4" cy="105.9" r="4.2" fill="#ff7a00" fill-opacity="0.75"/>
<circle cx="304.3" cy="246.7" r="4.2" fill="#ff7a00" fill-opacity="0.75"/>
<circle cx="383.8" cy="264.4" r="4.2" fill="#ff7a00" fill-opacity="0.75"/>
<circle cx="279.3" cy="291.5" r="4.2" fill="#ff7a00" fill-opacity="0.75"/>
<circle cx="381.5" cy="355.4" r="4.2" fill="#ff7a00" fill-opacity="0.75"/>
<circle cx="437.4" cy="217.7" r="4.2" fill="#ff7a00" fill-opacity="0.75"/>
<circle cx="547.8" cy="398.6" r="4.2" fill="#ff7a00" fill-opacity="0.75"/>
<circle cx="596.2" cy="207.1" r="4.2" fill="#ff7a00" fill-opacity="0.75"/>
<circle cx="317.2" cy="243.5" r="4.2" fill="#ff7a00" fill-opacity="0.75"/>
<circle cx="296.7" cy="324.5" r="4.2" fill="#ff7a00" fill-opacity="0.75"/>
<circle cx="388.1" cy="275.5" r="4.2" fill="#ff7a00" fill-opacity="0.75"/>
<circle cx="551.5" cy="251.1" r="4.2" fill="#ff7a00" fill-opacity="0.75"/>
<circle cx="342.2" cy="350.4" r="4.2" fill="#ff7a00" fill-opacity="0.75"/>
<circle cx="442.2" cy="356.7" r="4.2" fill="#ff7a00" fill-opacity="0.75"/>
<circle cx="327.4" cy="283.0" r="4.2" fill="#ff7a00" fill-opacity="0.75"/>
<circle cx="328.2" cy="379.9" r="4.2" fill="#ff7a00" fill-opacity="0.75"/>
<circle cx="349.9" cy="285.1" r="4.2" fill="#ff7a00" fill-opacity="0.75"/>
<circle cx="370.3" cy="215.1" r="4.2" fill="#ff7a00" fill-opacity="0.75"/>
<circle cx="543.5" cy="273.5" r="4.2" fill="#ff7a00" fill-opacity="0.75"/>
<circle cx="428.7" cy="295.3" r="4.2" fill="#ff7a00" fill-opacity="0.75"/>
<circle cx="443.2" cy="227.3" r="4.2" fill="#ff7a00" fill-opacity="0.75"/>
<circle cx="399.5" cy="335.1" r="4.2" fill="#ff7a00" fill-opacity="0.75"/>
<circle cx="347.6" cy="283.5" r="4.2" fill="#ff7a00" fill-opacity="0.75"/>
<circle cx="231.9" cy="155.4" r="4.2" fill="#ff7a00" fill-opacity="0.75"/>
<circle cx="394.6" cy="129.0" r="4.2" fill="#ff7a00" fill-opacity="0.75"/>
<circle cx="405.3" cy="355.6" r="4.2" fill="#ff7a00" fill-opacity="0.75"/>
<circle cx="411.4" cy="258.5" r="4.2" fill="#ff7a00" fill-opacity="0.75"/>
<circle cx="523.6" cy="324.3" r="4.2" fill="#ff7a00" fill-opacity="0.75"/>
<circle cx="287.5" cy="273.1" r="4.2" fill="#ff7a00" fill-opacity="0.75"/>
<circle cx="449.8" cy="364.3" r="4.2" fill="#ff7a00" fill-opacity="0.75"/>
<circle cx="288.2" cy="236.4" r="4.2" fill="#ff7a00" fill-opacity="0.75"/>
<circle cx="693.6" cy="254.4" r="4.2" fill="#ff7a00" fill-opacity="0.75"/>
<circle cx="288.9" cy="311.3" r="4.2" fill="#ff7a00" fill-opacity="0.75"/>
<circle cx="341.5" cy="142.6" r="4.2" fill="#ff7a00" fill-opacity="0.75"/>
<circle cx="306.8" cy="247.6" r="4.2" fill="#ff7a00" fill-opacity="0.75"/>
<circle cx="421.5" cy="362.5" r="4.2" fill="#ff7a00" fill-opacity="0.75"/>
<circle cx="270.2" cy="223.1" r="4.2" fill="#ff7a00" fill-opacity="0.75"/>
<circle cx="416.0" cy="220.3" r="4.2" fill="#ff7a00" fill-opacity="0.75"/>
<circle cx="478.2" cy="208.9" r="4.2" fill="#ff7a00" fill-opacity="0.75"/>
<circle cx="423.1" cy="304.9" r="4.2" fill="#ff7a00" fill-opacity="0.75"/>
<circle cx="395.6" cy="115.1" r="4.2" fill="#ff7a00" fill-opacity="0.75"/>
<circle cx="395.4" cy="327.7" r="4.2" fill="#ff7a00" fill-opacity="0.75"/>
<circle cx="565.7" cy="382.4" r="4.2" fill="#ff7a00" fill-opacity="0.75"/>
<circle cx="120.4" cy="202.7" r="4.2" fill="#1fa971" fill-opacity="0.75"/>
<circle cx="122.8" cy="214.5" r="4.2" fill="#1fa971" fill-opacity="0.75"/>
<circle cx="130.3" cy="275.3" r="4.2" fill="#1fa971" fill-opacity="0.75"/>
<circle cx="385.4" cy="395.0" r="4.2" fill="#1fa971" fill-opacity="0.75"/>
<circle cx="158.6" cy="237.4" r="4.2" fill="#1fa971" fill-opacity="0.75"/>
<circle cx="327.9" cy="185.4" r="4.2" fill="#1fa971" fill-opacity="0.75"/>
<circle cx="481.8" cy="246.0" r="4.2" fill="#1fa971" fill-opacity="0.75"/>
<circle cx="274.7" cy="209.4" r="4.2" fill="#1fa971" fill-opacity="0.75"/>
<circle cx="93.6" cy="340.8" r="4.2" fill="#1fa971" fill-opacity="0.75"/>
<circle cx="309.4" cy="296.1" r="4.2" fill="#1fa971" fill-opacity="0.75"/>
<circle cx="200.3" cy="298.3" r="4.2" fill="#1fa971" fill-opacity="0.75"/>
<circle cx="130.2" cy="230.7" r="4.2" fill="#1fa971" fill-opacity="0.75"/>
<circle cx="204.4" cy="331.7" r="4.2" fill="#1fa971" fill-opacity="0.75"/>
<circle cx="237.8" cy="342.6" r="4.2" fill="#1fa971" fill-opacity="0.75"/>
<circle cx="132.4" cy="241.2" r="4.2" fill="#1fa971" fill-opacity="0.75"/>
<circle cx="203.2" cy="275.6" r="4.2" fill="#1fa971" fill-opacity="0.75"/>
<circle cx="143.6" cy="255.5" r="4.2" fill="#1fa971" fill-opacity="0.75"/>
<circle cx="128.1" cy="117.7" r="4.2" fill="#1fa971" fill-opacity="0.75"/>
<circle cx="276.8" cy="181.7" r="4.2" fill="#1fa971" fill-opacity="0.75"/>
<circle cx="248.2" cy="400.5" r="4.2" fill="#1fa971" fill-opacity="0.75"/>
<circle cx="162.1" cy="334.3" r="4.2" fill="#1fa971" fill-opacity="0.75"/>
<circle cx="70.0" cy="265.5" r="4.2" fill="#1fa971" fill-opacity="0.75"/>
<circle cx="236.0" cy="334.9" r="4.2" fill="#1fa971" fill-opacity="0.75"/>
<circle cx="177.9" cy="311.5" r="4.2" fill="#1fa971" fill-opacity="0.75"/>
<circle cx="135.4" cy="337.9" r="4.2" fill="#1fa971" fill-opacity="0.75"/>
<circle cx="105.3" cy="183.7" r="4.2" fill="#1fa971" fill-opacity="0.75"/>
<circle cx="244.2" cy="338.9" r="4.2" fill="#1fa971" fill-opacity="0.75"/>
<circle cx="158.0" cy="148.3" r="4.2" fill="#1fa971" fill-opacity="0.75"/>
<circle cx="229.3" cy="223.7" r="4.2" fill="#1fa971" fill-opacity="0.75"/>
<circle cx="108.5" cy="359.2" r="4.2" fill="#1fa971" fill-opacity="0.75"/>
<circle cx="155.5" cy="215.7" r="4.2" fill="#1fa971" fill-opacity="0.75"/>
<circle cx="90.7" cy="240.4" r="4.2" fill="#1fa971" fill-opacity="0.75"/>
<circle cx="93.9" cy="287.0" r="4.2" fill="#1fa971" fill-opacity="0.75"/>
<circle cx="297.4" cy="327.9" r="4.2" fill="#1fa971" fill-opacity="0.75"/>
<circle cx="225.2" cy="275.4" r="4.2" fill="#1fa971" fill-opacity="0.75"/>
<circle cx="315.0" cy="230.1" r="4.2" fill="#1fa971" fill-opacity="0.75"/>
<circle cx="218.9" cy="309.1" r="4.2" fill="#1fa971" fill-opacity="0.75"/>
<circle cx="316.7" cy="267.6" r="4.2" fill="#1fa971" fill-opacity="0.75"/>
<circle cx="518.1" cy="210.6" r="4.2" fill="#1fa971" fill-opacity="0.75"/>
<circle cx="233.7" cy="164.4" r="4.2" fill="#1fa971" fill-opacity="0.75"/>
<circle cx="222.8" cy="342.3" r="4.2" fill="#1fa971" fill-opacity="0.75"/>
<circle cx="89.1" cy="307.8" r="4.2" fill="#1fa971" fill-opacity="0.75"/>
<circle cx="107.0" cy="280.0" r="4.2" fill="#1fa971" fill-opacity="0.75"/>
<circle cx="194.3" cy="156.5" r="4.2" fill="#1fa971" fill-opacity="0.75"/>
<circle cx="150.3" cy="130.5" r="4.2" fill="#1fa971" fill-opacity="0.75"/>
<circle cx="121.3" cy="306.5" r="4.2" fill="#1fa971" fill-opacity="0.75"/>
<circle cx="152.2" cy="174.8" r="4.2" fill="#1fa971" fill-opacity="0.75"/>
<circle cx="118.5" cy="309.7" r="4.2" fill="#1fa971" fill-opacity="0.75"/>
<circle cx="156.5" cy="206.2" r="4.2" fill="#1fa971" fill-opacity="0.75"/>
<circle cx="209.7" cy="357.0" r="4.2" fill="#1fa971" fill-opacity="0.75"/>
<circle cx="402.9" cy="397.0" r="4.2" fill="#1fa971" fill-opacity="0.75"/>
<circle cx="261.8" cy="235.4" r="4.2" fill="#1fa971" fill-opacity="0.75"/>
<circle cx="156.8" cy="267.7" r="4.2" fill="#1fa971" fill-opacity="0.75"/>
<circle cx="260.2" cy="346.0" r="4.2" fill="#1fa971" fill-opacity="0.75"/>
<circle cx="210.6" cy="366.8" r="4.2" fill="#1fa971" fill-opacity="0.75"/>
<circle cx="229.1" cy="306.4" r="4.2" fill="#1fa971" fill-opacity="0.75"/>
<circle cx="212.8" cy="93.2" r="4.2" fill="#1fa971" fill-opacity="0.75"/>
<circle cx="103.3" cy="228.6" r="4.2" fill="#1fa971" fill-opacity="0.75"/>
<circle cx="190.5" cy="218.6" r="4.2" fill="#1fa971" fill-opacity="0.75"/>
<circle cx="456.1" cy="185.9" r="4.2" fill="#1fa971" fill-opacity="0.75"/>
<circle cx="107.1" cy="284.2" r="4.2" fill="#1fa971" fill-opacity="0.75"/>
<circle cx="326.3" cy="305.6" r="4.2" fill="#1fa971" fill-opacity="0.75"/>
<circle cx="486.2" cy="328.6" r="4.2" fill="#1fa971" fill-opacity="0.75"/>
<circle cx="114.0" cy="192.4" r="4.2" fill="#1fa971" fill-opacity="0.75"/>
<circle cx="230.2" cy="275.9" r="4.2" fill="#1fa971" fill-opacity="0.75"/>
<circle cx="266.5" cy="318.5" r="4.2" fill="#1fa971" fill-opacity="0.75"/>
<circle cx="200.6" cy="202.7" r="4.2" fill="#1fa971" fill-opacity="0.75"/>
<circle cx="308.7" cy="192.1" r="4.2" fill="#1fa971" fill-opacity="0.75"/>
<circle cx="181.3" cy="292.3" r="4.2" fill="#1fa971" fill-opacity="0.75"/>
<circle cx="340.4" cy="365.5" r="4.2" fill="#1fa971" fill-opacity="0.75"/>
<circle cx="284.1" cy="253.3" r="4.2" fill="#1fa971" fill-opacity="0.75"/>
<circle cx="353.1" cy="334.4" r="4.2" fill="#1fa971" fill-opacity="0.75"/>
<circle cx="237.2" cy="85.2" r="4.2" fill="#1fa971" fill-opacity="0.75"/>
<circle cx="220.1" cy="391.4" r="4.2" fill="#1fa971" fill-opacity="0.75"/>
<circle cx="172.0" cy="199.2" r="4.2" fill="#1fa971" fill-opacity="0.75"/>
<circle cx="226.5" cy="219.8" r="4.2" fill="#1fa971" fill-opacity="0.75"/>
<circle cx="404.6" cy="308.3" r="4.2" fill="#1fa971" fill-opacity="0.75"/>
<circle cx="289.8" cy="95.6" r="4.2" fill="#1fa971" fill-opacity="0.75"/>
<circle cx="260.1" cy="392.1" r="4.2" fill="#1fa971" fill-opacity="0.75"/>
<circle cx="199.0" cy="341.1" r="4.2" fill="#1fa971" fill-opacity="0.75"/>
<circle cx="126.0" cy="257.8" r="4.2" fill="#1fa971" fill-opacity="0.75"/>
<circle cx="227.0" cy="200.4" r="4.2" fill="#1fa971" fill-opacity="0.75"/>
<circle cx="125.3" cy="270.6" r="4.2" fill="#1fa971" fill-opacity="0.75"/>
<circle cx="290.6" cy="201.2" r="4.2" fill="#1fa971" fill-opacity="0.75"/>
<circle cx="201.0" cy="197.2" r="4.2" fill="#1fa971" fill-opacity="0.75"/>
<circle cx="147.3" cy="236.8" r="4.2" fill="#1fa971" fill-opacity="0.75"/>
<circle cx="133.2" cy="290.7" r="4.2" fill="#1fa971" fill-opacity="0.75"/>
<circle cx="230.4" cy="149.2" r="4.2" fill="#1fa971" fill-opacity="0.75"/>
<circle cx="412.1" cy="157.6" r="4.2" fill="#1fa971" fill-opacity="0.75"/>
<circle cx="297.6" cy="214.1" r="4.2" fill="#1fa971" fill-opacity="0.75"/>
<circle cx="177.1" cy="302.8" r="4.2" fill="#1fa971" fill-opacity="0.75"/>
<circle cx="361.4" cy="306.8" r="4.2" fill="#1fa971" fill-opacity="0.75"/>
<circle cx="228.6" cy="284.2" r="4.2" fill="#1fa971" fill-opacity="0.75"/>
<circle cx="240.1" cy="248.7" r="4.2" fill="#1fa971" fill-opacity="0.75"/>
<circle cx="72.1" cy="298.8" r="4.2" fill="#1fa971" fill-opacity="0.75"/>
<circle cx="154.8" cy="193.2" r="4.2" fill="#1fa971" fill-opacity="0.75"/>
<circle cx="91.8" cy="322.0" r="4.2" fill="#1fa971" fill-opacity="0.75"/>
<circle cx="121.3" cy="259.8" r="4.2" fill="#1fa971" fill-opacity="0.75"/>
<circle cx="550.1" cy="290.5" r="4.2" fill="#1fa971" fill-opacity="0.75"/>
<circle cx="147.7" cy="260.6" r="4.2" fill="#1fa971" fill-opacity="0.75"/>
<circle cx="260.5" cy="274.4" r="4.2" fill="#a046f2" fill-opacity="0.75"/>
<circle cx="258.9" cy="279.6" r="4.2" fill="#a046f2" fill-opacity="0.75"/>
<circle cx="214.7" cy="158.9" r="4.2" fill="#a046f2" fill-opacity="0.75"/>
<circle cx="226.3" cy="135.0" r="4.2" fill="#a046f2" fill-opacity="0.75"/>
<circle cx="375.0" cy="121.4" r="4.2" fill="#a046f2" fill-opacity="0.75"/>
<circle cx="370.1" cy="138.2" r="4.2" fill="#a046f2" fill-opacity="0.75"/>
<circle cx="241.7" cy="146.2" r="4.2" fill="#a046f2" fill-opacity="0.75"/>
<circle cx="239.9" cy="141.7" r="4.2" fill="#a046f2" fill-opacity="0.75"/>
<circle cx="495.4" cy="207.9" r="4.2" fill="#a046f2" fill-opacity="0.75"/>
<circle cx="498.1" cy="212.7" r="4.2" fill="#a046f2" fill-opacity="0.75"/>
<circle cx="380.7" cy="244.4" r="4.2" fill="#a046f2" fill-opacity="0.75"/>
<circle cx="385.4" cy="238.4" r="4.2" fill="#a046f2" fill-opacity="0.75"/>
<circle cx="247.3" cy="255.5" r="4.2" fill="#a046f2" fill-opacity="0.75"/>
<circle cx="245.7" cy="260.0" r="4.2" fill="#a046f2" fill-opacity="0.75"/>
<circle cx="246.8" cy="237.4" r="4.2" fill="#a046f2" fill-opacity="0.75"/>
<circle cx="246.2" cy="242.7" r="4.2" fill="#a046f2" fill-opacity="0.75"/>
<circle cx="256.5" cy="169.5" r="4.2" fill="#a046f2" fill-opacity="0.75"/>
<circle cx="256.4" cy="172.3" r="4.2" fill="#a046f2" fill-opacity="0.75"/>
<circle cx="247.4" cy="220.4" r="4.2" fill="#a046f2" fill-opacity="0.75"/>
<circle cx="248.7" cy="225.2" r="4.2" fill="#a046f2" fill-opacity="0.75"/>
<circle cx="317.5" cy="220.3" r="4.2" fill="#a046f2" fill-opacity="0.75"/>
<circle cx="322.8" cy="198.0" r="4.2" fill="#a046f2" fill-opacity="0.75"/>
<circle cx="598.2" cy="222.5" r="4.2" fill="#a046f2" fill-opacity="0.75"/>
<circle cx="594.3" cy="221.6" r="4.2" fill="#a046f2" fill-opacity="0.75"/>
<circle cx="310.1" cy="259.5" r="4.2" fill="#a046f2" fill-opacity="0.75"/>
<circle cx="308.1" cy="277.2" r="4.2" fill="#a046f2" fill-opacity="0.75"/>
<circle cx="150.7" cy="263.1" r="4.2" fill="#a046f2" fill-opacity="0.75"/>
<circle cx="147.5" cy="268.7" r="4.2" fill="#a046f2" fill-opacity="0.75"/>
<circle cx="413.3" cy="110.1" r="4.2" fill="#a046f2" fill-opacity="0.75"/>
<circle cx="422.9" cy="91.5" r="4.2" fill="#a046f2" fill-opacity="0.75"/>
<circle cx="340.4" cy="366.4" r="4.2" fill="#a046f2" fill-opacity="0.75"/>
<circle cx="362.1" cy="334.9" r="4.2" fill="#a046f2" fill-opacity="0.75"/>
<circle cx="265.1" cy="180.7" r="4.2" fill="#a046f2" fill-opacity="0.75"/>
<circle cx="259.3" cy="186.3" r="4.2" fill="#a046f2" fill-opacity="0.75"/>
<circle cx="85.1" cy="285.3" r="4.2" fill="#a046f2" fill-opacity="0.75"/>
<circle cx="94.9" cy="278.0" r="4.2" fill="#a046f2" fill-opacity="0.75"/>
<circle cx="254.7" cy="161.7" r="4.2" fill="#a046f2" fill-opacity="0.75"/>
<circle cx="250.6" cy="174.0" r="4.2" fill="#a046f2" fill-opacity="0.75"/>
<circle cx="114.7" cy="266.3" r="4.2" fill="#a046f2" fill-opacity="0.75"/>
<circle cx="115.2" cy="280.6" r="4.2" fill="#a046f2" fill-opacity="0.75"/>
<circle cx="327.8" cy="259.0" r="4.2" fill="#a046f2" fill-opacity="0.75"/>
<circle cx="328.6" cy="267.2" r="4.2" fill="#a046f2" fill-opacity="0.75"/>
<circle cx="226.1" cy="291.9" r="4.2" fill="#a046f2" fill-opacity="0.75"/>
<circle cx="242.8" cy="272.6" r="4.2" fill="#a046f2" fill-opacity="0.75"/>
<circle cx="321.9" cy="130.2" r="4.2" fill="#a046f2" fill-opacity="0.75"/>
<circle cx="309.9" cy="145.8" r="4.2" fill="#a046f2" fill-opacity="0.75"/>
<circle cx="440.0" cy="245.5" r="4.2" fill="#a046f2" fill-opacity="0.75"/>
<circle cx="436.1" cy="249.8" r="4.2" fill="#a046f2" fill-opacity="0.75"/>
<circle cx="479.2" cy="210.4" r="4.2" fill="#a046f2" fill-opacity="0.75"/>
<circle cx="478.1" cy="213.3" r="4.2" fill="#a046f2" fill-opacity="0.75"/>
<circle cx="205.2" cy="164.2" r="4.2" fill="#a046f2" fill-opacity="0.75"/>
<circle cx="204.0" cy="166.5" r="4.2" fill="#a046f2" fill-opacity="0.75"/>
<circle cx="476.3" cy="183.6" r="4.2" fill="#a046f2" fill-opacity="0.75"/>
<circle cx="477.0" cy="188.8" r="4.2" fill="#a046f2" fill-opacity="0.75"/>
<circle cx="253.9" cy="197.6" r="4.2" fill="#a046f2" fill-opacity="0.75"/>
<circle cx="253.3" cy="195.4" r="4.2" fill="#a046f2" fill-opacity="0.75"/>
<circle cx="296.3" cy="257.0" r="4.2" fill="#a046f2" fill-opacity="0.75"/>
<circle cx="294.7" cy="252.9" r="4.2" fill="#a046f2" fill-opacity="0.75"/>
<circle cx="334.5" cy="212.7" r="4.2" fill="#a046f2" fill-opacity="0.75"/>
<circle cx="322.5" cy="236.1" r="4.2" fill="#a046f2" fill-opacity="0.75"/>
<circle cx="220.4" cy="294.5" r="4.2" fill="#a046f2" fill-opacity="0.75"/>
<circle cx="218.2" cy="297.8" r="4.2" fill="#a046f2" fill-opacity="0.75"/>
<circle cx="195.0" cy="274.3" r="4.2" fill="#a046f2" fill-opacity="0.75"/>
<circle cx="189.3" cy="280.8" r="4.2" fill="#a046f2" fill-opacity="0.75"/>
<circle cx="233.3" cy="236.7" r="4.2" fill="#a046f2" fill-opacity="0.75"/>
<circle cx="228.2" cy="231.4" r="4.2" fill="#a046f2" fill-opacity="0.75"/>
<circle cx="200.2" cy="212.0" r="4.2" fill="#a046f2" fill-opacity="0.75"/>
<circle cx="194.2" cy="225.0" r="4.2" fill="#a046f2" fill-opacity="0.75"/>
<circle cx="241.4" cy="323.9" r="4.2" fill="#a046f2" fill-opacity="0.75"/>
<circle cx="244.4" cy="308.7" r="4.2" fill="#a046f2" fill-opacity="0.75"/>
<circle cx="134.6" cy="218.8" r="4.2" fill="#a046f2" fill-opacity="0.75"/>
<circle cx="133.9" cy="222.4" r="4.2" fill="#a046f2" fill-opacity="0.75"/>
<circle cx="102.3" cy="218.7" r="4.2" fill="#a046f2" fill-opacity="0.75"/>
<circle cx="96.4" cy="225.3" r="4.2" fill="#a046f2" fill-opacity="0.75"/>
<circle cx="385.5" cy="79.8" r="4.2" fill="#a046f2" fill-opacity="0.75"/>
<circle cx="379.8" cy="90.1" r="4.2" fill="#a046f2" fill-opacity="0.75"/>
<circle cx="291.2" cy="241.2" r="4.2" fill="#a046f2" fill-opacity="0.75"/>
<circle cx="307.2" cy="210.2" r="4.2" fill="#a046f2" fill-opacity="0.75"/>
<circle cx="274.3" cy="177.1" r="4.2" fill="#a046f2" fill-opacity="0.75"/>
<circle cx="287.4" cy="161.8" r="4.2" fill="#a046f2" fill-opacity="0.75"/>
<circle cx="107.0" cy="275.7" r="4.2" fill="#a046f2" fill-opacity="0.75"/>
<circle cx="113.1" cy="258.3" r="4.2" fill="#a046f2" fill-opacity="0.75"/>
<circle cx="79.8" cy="232.2" r="4.2" fill="#a046f2" fill-opacity="0.75"/>
<circle cx="83.0" cy="230.4" r="4.2" fill="#a046f2" fill-opacity="0.75"/>
<circle cx="184.3" cy="162.9" r="4.2" fill="#a046f2" fill-opacity="0.75"/>
<circle cx="197.2" cy="158.9" r="4.2" fill="#a046f2" fill-opacity="0.75"/>
<circle cx="153.0" cy="234.2" r="4.2" fill="#a046f2" fill-opacity="0.75"/>
<circle cx="151.3" cy="233.8" r="4.2" fill="#a046f2" fill-opacity="0.75"/>
<circle cx="170.3" cy="187.1" r="4.2" fill="#a046f2" fill-opacity="0.75"/>
<circle cx="167.9" cy="187.3" r="4.2" fill="#a046f2" fill-opacity="0.75"/>
<circle cx="287.3" cy="334.1" r="4.2" fill="#a046f2" fill-opacity="0.75"/>
<circle cx="291.9" cy="321.2" r="4.2" fill="#a046f2" fill-opacity="0.75"/>
<circle cx="241.7" cy="234.8" r="4.2" fill="#a046f2" fill-opacity="0.75"/>
<circle cx="233.9" cy="242.1" r="4.2" fill="#a046f2" fill-opacity="0.75"/>
<circle cx="281.6" cy="204.4" r="4.2" fill="#a046f2" fill-opacity="0.75"/>
<circle cx="286.8" cy="184.5" r="4.2" fill="#a046f2" fill-opacity="0.75"/>
<circle cx="225.4" cy="318.8" r="4.2" fill="#a046f2" fill-opacity="0.75"/>
<circle cx="225.0" cy="314.2" r="4.2" fill="#a046f2" fill-opacity="0.75"/>
<circle cx="160.3" cy="271.1" r="4.2" fill="#a046f2" fill-opacity="0.75"/>
<circle cx="164.6" cy="262.8" r="4.2" fill="#a046f2" fill-opacity="0.75"/>
<circle cx="575.9" cy="223.0" r="4.2" fill="#d64545" fill-opacity="0.75"/>
<circle cx="570.9" cy="240.0" r="4.2" fill="#d64545" fill-opacity="0.75"/>
<circle cx="405.7" cy="154.4" r="4.2" fill="#d64545" fill-opacity="0.75"/>
<circle cx="402.1" cy="160.0" r="4.2" fill="#d64545" fill-opacity="0.75"/>
<circle cx="309.8" cy="358.7" r="4.2" fill="#d64545" fill-opacity="0.75"/>
<circle cx="307.0" cy="352.6" r="4.2" fill="#d64545" fill-opacity="0.75"/>
<circle cx="291.9" cy="323.2" r="4.2" fill="#d64545" fill-opacity="0.75"/>
<circle cx="297.3" cy="310.3" r="4.2" fill="#d64545" fill-opacity="0.75"/>
<circle cx="352.4" cy="178.7" r="4.2" fill="#d64545" fill-opacity="0.75"/>
<circle cx="337.5" cy="205.4" r="4.2" fill="#d64545" fill-opacity="0.75"/>
<circle cx="313.7" cy="224.4" r="4.2" fill="#d64545" fill-opacity="0.75"/>
<circle cx="311.1" cy="233.8" r="4.2" fill="#d64545" fill-opacity="0.75"/>
<circle cx="240.5" cy="157.9" r="4.2" fill="#d64545" fill-opacity="0.75"/>
<circle cx="235.0" cy="138.9" r="4.2" fill="#d64545" fill-opacity="0.75"/>
<circle cx="341.7" cy="179.8" r="4.2" fill="#d64545" fill-opacity="0.75"/>
<circle cx="344.7" cy="180.0" r="4.2" fill="#d64545" fill-opacity="0.75"/>
<circle cx="270.8" cy="319.2" r="4.2" fill="#d64545" fill-opacity="0.75"/>
<circle cx="269.9" cy="315.7" r="4.2" fill="#d64545" fill-opacity="0.75"/>
<circle cx="357.7" cy="183.6" r="4.2" fill="#d64545" fill-opacity="0.75"/>
<circle cx="350.9" cy="191.1" r="4.2" fill="#d64545" fill-opacity="0.75"/>
<circle cx="354.0" cy="206.2" r="4.2" fill="#d64545" fill-opacity="0.75"/>
<circle cx="349.2" cy="217.4" r="4.2" fill="#d64545" fill-opacity="0.75"/>
<circle cx="385.1" cy="262.1" r="4.2" fill="#d64545" fill-opacity="0.75"/>
<circle cx="387.5" cy="241.7" r="4.2" fill="#d64545" fill-opacity="0.75"/>
<circle cx="206.4" cy="113.8" r="4.2" fill="#d64545" fill-opacity="0.75"/>
<circle cx="202.9" cy="113.9" r="4.2" fill="#d64545" fill-opacity="0.75"/>
<circle cx="452.5" cy="338.9" r="4.2" fill="#d64545" fill-opacity="0.75"/>
<circle cx="457.0" cy="329.5" r="4.2" fill="#d64545" fill-opacity="0.75"/>
<circle cx="220.0" cy="271.5" r="4.2" fill="#d64545" fill-opacity="0.75"/>
<circle cx="207.0" cy="286.5" r="4.2" fill="#d64545" fill-opacity="0.75"/>
<circle cx="430.6" cy="238.6" r="4.2" fill="#d64545" fill-opacity="0.75"/>
<circle cx="416.6" cy="251.8" r="4.2" fill="#d64545" fill-opacity="0.75"/>
<circle cx="258.9" cy="227.5" r="4.2" fill="#d64545" fill-opacity="0.75"/>
<circle cx="255.3" cy="238.1" r="4.2" fill="#d64545" fill-opacity="0.75"/>
<circle cx="167.1" cy="312.3" r="4.2" fill="#d64545" fill-opacity="0.75"/>
<circle cx="172.0" cy="308.0" r="4.2" fill="#d64545" fill-opacity="0.75"/>
<circle cx="193.5" cy="219.7" r="4.2" fill="#d64545" fill-opacity="0.75"/>
<circle cx="192.7" cy="215.0" r="4.2" fill="#d64545" fill-opacity="0.75"/>
<circle cx="295.0" cy="258.6" r="4.2" fill="#d64545" fill-opacity="0.75"/>
<circle cx="283.1" cy="285.4" r="4.2" fill="#d64545" fill-opacity="0.75"/>
<circle cx="383.6" cy="138.1" r="4.2" fill="#d64545" fill-opacity="0.75"/>
<circle cx="372.2" cy="161.1" r="4.2" fill="#d64545" fill-opacity="0.75"/>
<circle cx="243.9" cy="292.2" r="4.2" fill="#d64545" fill-opacity="0.75"/>
<circle cx="243.6" cy="289.9" r="4.2" fill="#d64545" fill-opacity="0.75"/>
<circle cx="308.1" cy="345.3" r="4.2" fill="#d64545" fill-opacity="0.75"/>
<circle cx="296.9" cy="359.9" r="4.2" fill="#d64545" fill-opacity="0.75"/>
<circle cx="147.5" cy="286.9" r="4.2" fill="#d64545" fill-opacity="0.75"/>
<circle cx="145.1" cy="294.7" r="4.2" fill="#d64545" fill-opacity="0.75"/>
<circle cx="398.6" cy="366.2" r="4.2" fill="#d64545" fill-opacity="0.75"/>
<circle cx="401.6" cy="366.4" r="4.2" fill="#d64545" fill-opacity="0.75"/>
<circle cx="361.1" cy="304.8" r="4.2" fill="#d64545" fill-opacity="0.75"/>
<circle cx="359.1" cy="304.3" r="4.2" fill="#d64545" fill-opacity="0.75"/>
<circle cx="342.0" cy="340.6" r="4.2" fill="#d64545" fill-opacity="0.75"/>
<circle cx="344.1" cy="326.6" r="4.2" fill="#d64545" fill-opacity="0.75"/>
<circle cx="353.4" cy="292.5" r="4.2" fill="#d64545" fill-opacity="0.75"/>
<circle cx="349.1" cy="293.9" r="4.2" fill="#d64545" fill-opacity="0.75"/>
<circle cx="438.2" cy="351.1" r="4.2" fill="#d64545" fill-opacity="0.75"/>
<circle cx="438.5" cy="346.0" r="4.2" fill="#d64545" fill-opacity="0.75"/>
<circle cx="300.6" cy="313.3" r="4.2" fill="#d64545" fill-opacity="0.75"/>
<circle cx="294.3" cy="316.2" r="4.2" fill="#d64545" fill-opacity="0.75"/>
<circle cx="327.3" cy="193.7" r="4.2" fill="#d64545" fill-opacity="0.75"/>
<circle cx="325.5" cy="195.9" r="4.2" fill="#d64545" fill-opacity="0.75"/>
<circle cx="192.6" cy="310.7" r="4.2" fill="#d64545" fill-opacity="0.75"/>
<circle cx="190.0" cy="316.7" r="4.2" fill="#d64545" fill-opacity="0.75"/>
<circle cx="303.7" cy="338.4" r="4.2" fill="#d64545" fill-opacity="0.75"/>
<circle cx="299.3" cy="353.0" r="4.2" fill="#d64545" fill-opacity="0.75"/>
<circle cx="237.8" cy="381.6" r="4.2" fill="#d64545" fill-opacity="0.75"/>
<circle cx="229.2" cy="394.6" r="4.2" fill="#d64545" fill-opacity="0.75"/>
<circle cx="189.6" cy="326.3" r="4.2" fill="#d64545" fill-opacity="0.75"/>
<circle cx="197.0" cy="316.9" r="4.2" fill="#d64545" fill-opacity="0.75"/>
<circle cx="258.4" cy="229.8" r="4.2" fill="#d64545" fill-opacity="0.75"/>
<circle cx="259.1" cy="232.2" r="4.2" fill="#d64545" fill-opacity="0.75"/>
<circle cx="267.4" cy="182.2" r="4.2" fill="#d64545" fill-opacity="0.75"/>
<circle cx="267.7" cy="182.0" r="4.2" fill="#d64545" fill-opacity="0.75"/>
<circle cx="385.9" cy="417.0" r="4.2" fill="#d64545" fill-opacity="0.75"/>
<circle cx="389.1" cy="411.7" r="4.2" fill="#d64545" fill-opacity="0.75"/>
<circle cx="354.0" cy="217.0" r="4.2" fill="#d64545" fill-opacity="0.75"/>
<circle cx="349.8" cy="211.0" r="4.2" fill="#d64545" fill-opacity="0.75"/>
<circle cx="236.3" cy="201.4" r="4.2" fill="#d64545" fill-opacity="0.75"/>
<circle cx="243.0" cy="204.0" r="4.2" fill="#d64545" fill-opacity="0.75"/>
<circle cx="199.0" cy="108.9" r="4.2" fill="#d64545" fill-opacity="0.75"/>
<circle cx="186.4" cy="127.7" r="4.2" fill="#d64545" fill-opacity="0.75"/>
<circle cx="171.8" cy="192.1" r="4.2" fill="#d64545" fill-opacity="0.75"/>
<circle cx="165.4" cy="204.2" r="4.2" fill="#d64545" fill-opacity="0.75"/>
<circle cx="247.4" cy="177.6" r="4.2" fill="#d64545" fill-opacity="0.75"/>
<circle cx="245.5" cy="186.5" r="4.2" fill="#d64545" fill-opacity="0.75"/>
<circle cx="198.9" cy="222.2" r="4.2" fill="#d64545" fill-opacity="0.75"/>
<circle cx="206.5" cy="205.8" r="4.2" fill="#d64545" fill-opacity="0.75"/>
<circle cx="236.6" cy="244.9" r="4.2" fill="#d64545" fill-opacity="0.75"/>
<circle cx="240.5" cy="237.6" r="4.2" fill="#d64545" fill-opacity="0.75"/>
<circle cx="377.5" cy="196.0" r="4.2" fill="#d64545" fill-opacity="0.75"/>
<circle cx="378.3" cy="207.3" r="4.2" fill="#d64545" fill-opacity="0.75"/>
<circle cx="398.5" cy="97.2" r="4.2" fill="#d64545" fill-opacity="0.75"/>
<circle cx="396.0" cy="83.9" r="4.2" fill="#d64545" fill-opacity="0.75"/>
<circle cx="414.7" cy="260.9" r="4.2" fill="#d64545" fill-opacity="0.75"/>
<circle cx="407.8" cy="278.2" r="4.2" fill="#d64545" fill-opacity="0.75"/>
<circle cx="170.1" cy="277.6" r="4.2" fill="#d64545" fill-opacity="0.75"/>
<circle cx="169.5" cy="284.8" r="4.2" fill="#d64545" fill-opacity="0.75"/>
<circle cx="312.2" cy="179.6" r="4.2" fill="#d64545" fill-opacity="0.75"/>
<circle cx="306.0" cy="191.8" r="4.2" fill="#d64545" fill-opacity="0.75"/>
<rect x="750" y="60" width="14" height="14" fill="#2f6fed"/>
<text x="770" y="72" font-size="14" font-family="Arial">photo</text>
<rect x="750" y="84" width="14" height="14" fill="#ff7a00"/>
<text x="770" y="96" font-size="14" font-family="Arial">Hayao</text>
<rect x="750" y="108" width="14" height="14" fill="#1fa971"/>
<text x="770" y="120" font-size="14" font-family="Arial">monet</text>
<rect x="750" y="132" width="14" height="14" fill="#a046f2"/>
<text x="770" y="144" font-size="14" font-family="Arial">vangogh</text>
<rect x="750" y="156" width="14" height="14" fill="#d64545"/>
<text x="770" y="168" font-size="14" font-family="Arial">cezanne</text>
</svg>