<svg xmlns="http://www.w3.org/2000/svg" width="900" height="520" viewBox="0 0 900 520">
<rect width="100%" height="100%" fill="white"/>
<text x="450.0" y="28" text-anchor="middle" font-size="22" font-family="Arial">MDS Scatter: pixel_swd_patch_3_25</text>
<rect x="70" y="50" width="650" height="420" fill="none" stroke="black"/>
<circle cx="150.5" cy="254.5" r="4.2" fill="#2f6fed" fill-opacity="0.75"/>
<circle cx="262.6" cy="181.9" r="4.2" fill="#2f6fed" fill-opacity="0.75"/>
<circle cx="329.0" cy="277.4" r="4.2" fill="#2f6fed" fill-opacity="0.75"/>
<circle cx="492.2" cy="260.8" r="4.2" fill="#2f6fed" fill-opacity="0.75"/>
<circle cx="328.5" cy="229.3" r="4.2" fill="#2f6fed" fill-opacity="0.75"/>
<circle cx="447.3" cy="269.2" r="4.2" fill="#2f6fed" fill-opacity="0.75"/>
<circle cx="266.3" cy="303.0" r="4.2" fill="#2f6fed" fill-opacity="0.75"/>
<circle cx="378.8" cy="417.0" r="4.2" fill="#2f6fed" fill-opacity="0.75"/>
<circle cx="310.3" cy="233.4" r="4.2" fill="#2f6fed" fill-opacity="0.75"/>
<circle cx="348.6" cy="324.9" r="4.2" fill="#2f6fed" fill-opacity="0.75"/>
<circle cx="368.7" cy="245.0" r="4.2" fill="#2f6fed" fill-opacity="0.75"/>
<circle cx="359.9" cy="325.5" r="4.2" fill="#2f6fed" fill-opacity="0.75"/>
<circle cx="437.1" cy="91.0" r="4.2" fill="#2f6fed" fill-opacity="0.75"/>
<circle cx="296.4" cy="356.2" r="4.2" fill="#2f6fed" fill-opacity="0.75"/>
<circle cx="245.3" cy="163.3" r="4.2" fill="#2f6fed" fill-opacity="0.75"/>
<circle cx="466.4" cy="195.7" r="4.2" fill="#2f6fed" fill-opacity="0.75"/>
<circle cx="224.7" cy="194.5" r="4.2" fill="#2f6fed" fill-opacity="0.75"/>
<circle cx="225.7" cy="189.8" r="4.2" fill="#2f6fed" fill-opacity="0.75"/>
<circle cx="348.7" cy="319.7" r="4.2" fill="#2f6fed" fill-opacity="0.75"/>
<circle cx="250.5" cy="361.0" r="4.2" fill="#2f6fed" fill-opacity="0.75"/>
<circle cx="303.8" cy="191.5" r="4.2" fill="#2f6fed" fill-opacity="0.75"/>
<circle cx="296.3" cy="309.8" r="4.2" fill="#2f6fed" fill-opacity="0.75"/>
<circle cx="362.7" cy="220.7" r="4.2" fill="#2f6fed" fill-opacity="0.75"/>
<circle cx="208.9" cy="256.7" r="4.2" fill="#2f6fed" fill-opacity="0.75"/>
<circle cx="429.5" cy="189.1" r="4.2" fill="#2f6fed" fill-opacity="0.75"/>
<circle cx="330.7" cy="315.5" r="4.2" fill="#2f6fed" fill-opacity="0.75"/>
<circle cx="344.5" cy="295.6" r="4.2" fill="#2f6fed" fill-opacity="0.75"/>
<circle cx="363.7" cy="292.2" r="4.2" fill="#2f6fed" fill-opacity="0.75"/>
<circle cx="311.0" cy="220.9" r="4.2" fill="#2f6fed" fill-opacity="0.75"/>
<circle cx="385.7" cy="350.8" r="4.2" fill="#2f6fed" fill-opacity="0.75"/>
<circle cx="362.2" cy="50.0" r="4.2" fill="#2f6fed" fill-opacity="0.75"/>
<circle cx="399.7" cy="225.7" r="4.2" fill="#2f6fed" fill-opacity="0.75"/>
<circle cx="453.2" cy="252.2" r="4.2" fill="#2f6fed" fill-opacity="0.75"/>
<circle cx="353.8" cy="261.6" r="4.2" fill="#2f6fed" fill-opacity="0.75"/>
<circle cx="384.1" cy="263.4" r="4.2" fill="#2f6fed" fill-opacity="0.75"/>
<circle cx="481.9" cy="247.7" r="4.2" fill="#2f6fed" fill-opacity="0.75"/>
<circle cx="296.1" cy="152.8" r="4.2" fill="#2f6fed" fill-opacity="0.75"/>
<circle cx="246.9" cy="279.7" r="4.2" fill="#2f6fed" fill-opacity="0.75"/>
<circle cx="460.1" cy="253.8" r="4.2" fill="#2f6fed" fill-opacity="0.75"/>
<circle cx="372.5" cy="270.4" r="4.2" fill="#2f6fed" fill-opacity="0.75"/>
<circle cx="304.4" cy="221.2" r="4.2" fill="#2f6fed" fill-opacity="0.75"/>
<circle cx="394.9" cy="298.4" r="4.2" fill="#2f6fed" fill-opacity="0.75"/>
<circle cx="258.3" cy="157.7" r="4.2" fill="#2f6fed" fill-opacity="0.75"/>
<circle cx="201.8" cy="228.2" r="4.2" fill="#2f6fed" fill-opacity="0.75"/>
<circle cx="359.3" cy="213.5" r="4.2" fill="#2f6fed" fill-opacity="0.75"/>
<circle cx="307.7" cy="146.0" r="4.2" fill="#2f6fed" fill-opacity="0.75"/>
<circle cx="346.4" cy="180.2" r="4.2" fill="#2f6fed" fill-opacity="0.75"/>
<circle cx="472.8" cy="301.4" r="4.2" fill="#2f6fed" fill-opacity="0.75"/>
<circle cx="353.8" cy="98.6" r="4.2" fill="#2f6fed" fill-opacity="0.75"/>
<circle cx="267.4" cy="215.8" r="4.2" fill="#2f6fed" fill-opacity="0.75"/>
<circle cx="271.9" cy="283.4" r="4.2" fill="#2f6fed" fill-opacity="0.75"/>
<circle cx="311.3" cy="250.1" r="4.2" fill="#2f6fed" fill-opacity="0.75"/>
<circle cx="265.7" cy="263.4" r="4.2" fill="#2f6fed" fill-opacity="0.75"/>
<circle cx="312.1" cy="335.0" r="4.2" fill="#2f6fed" fill-opacity="0.75"/>
<circle cx="324.2" cy="390.5" r="4.2" fill="#2f6fed" fill-opacity="0.75"/>
<circle cx="411.7" cy="326.6" r="4.2" fill="#2f6fed" fill-opacity="0.75"/>
<circle cx="605.8" cy="204.2" r="4.2" fill="#2f6fed" fill-opacity="0.75"/>
<circle cx="403.9" cy="230.1" r="4.2" fill="#2f6fed" fill-opacity="0.75"/>
<circle cx="518.2" cy="164.2" r="4.2" fill="#2f6fed" fill-opacity="0.75"/>
<circle cx="478.7" cy="134.8" r="4.2" fill="#2f6fed" fill-opacity="0.75"/>
<circle cx="327.3" cy="214.4" r="4.2" fill="#2f6fed" fill-opacity="0.75"/>
<circle cx="279.2" cy="271.0" r="4.2" fill="#2f6fed" fill-opacity="0.75"/>
<circle cx="331.5" cy="169.4" r="4.2" fill="#2f6fed" fill-opacity="0.75"/>
<circle cx="367.7" cy="152.4" r="4.2" fill="#2f6fed" fill-opacity="0.75"/>
<circle cx="341.6" cy="194.1" r="4.2" fill="#2f6fed" fill-opacity="0.75"/>
<circle cx="439.3" cy="199.2" r="4.2" fill="#2f6fed" fill-opacity="0.75"/>
<circle cx="632.6" cy="162.4" r="4.2" fill="#2f6fed" fill-opacity="0.75"/>
<circle cx="283.3" cy="298.7" r="4.2" fill="#2f6fed" fill-opacity="0.75"/>
<circle cx="376.0" cy="350.6" r="4.2" fill="#2f6fed" fill-opacity="0.75"/>
<circle cx="309.8" cy="240.0" r="4.2" fill="#2f6fed" fill-opacity="0.75"/>
<circle cx="434.6" cy="254.4" r="4.2" fill="#2f6fed" fill-opacity="0.75"/>
<circle cx="383.9" cy="317.5" r="4.2" fill="#2f6fed" fill-opacity="0.75"/>
<circle cx="365.0" cy="99.1" r="4.2" fill="#2f6fed" fill-opacity="0.75"/>
<circle cx="498.2" cy="129.7" r="4.2" fill="#2f6fed" fill-opacity="0.75"/>
<circle cx="344.0" cy="233.9" r="4.2" fill="#2f6fed" fill-opacity="0.75"/>
<circle cx="540.5" cy="182.9" r="4.2" fill="#2f6fed" fill-opacity="0.75"/>
<circle cx="431.9" cy="263.3" r="4.2" fill="#2f6fed" fill-opacity="0.75"/>
<circle cx="500.7" cy="212.8" r="4.2" fill="#2f6fed" fill-opacity="0.75"/>
<circle cx="265.7" cy="182.5" r="4.2" fill="#2f6fed" fill-opacity="0.75"/>
<circle cx="308.1" cy="243.7" r="4.2" fill="#2f6fed" fill-opacity="0.75"/>
<circle cx="208.1" cy="312.2" r="4.2" fill="#2f6fed" fill-opacity="0.75"/>
<circle cx="461.7" cy="232.6" r="4.2" fill="#2f6fed" fill-opacity="0.75"/>
<circle cx="303.5" cy="231.7" r="4.2" fill="#2f6fed" fill-opacity="0.75"/>
<circle cx="386.0" cy="195.2" r="4.2" fill="#2f6fed" fill-opacity="0.75"/>
<circle cx="611.6" cy="93.0" r="4.2" fill="#2f6fed" fill-opacity="0.75"/>
<circle cx="285.8" cy="283.1" r="4.2" fill="#2f6fed" fill-opacity="0.75"/>
<circle cx="328.3" cy="329.7" r="4.2" fill="#2f6fed" fill-opacity="0.75"/>
<circle cx="458.9" cy="211.1" r="4.2" fill="#2f6fed" fill-opacity="0.75"/>
<circle cx="392.3" cy="193.2" r="4.2" fill="#2f6fed" fill-opacity="0.75"/>
<circle cx="289.3" cy="218.2" r="4.2" fill="#2f6fed" fill-opacity="0.75"/>
<circle cx="403.6" cy="308.4" r="4.2" fill="#2f6fed" fill-opacity="0.75"/>
<circle cx="465.6" cy="186.9" r="4.2" fill="#2f6fed" fill-opacity="0.75"/>
<circle cx="397.3" cy="297.7" r="4.2" fill="#2f6fed" fill-opacity="0.75"/>
<circle cx="278.5" cy="260.1" r="4.2" fill="#2f6fed" fill-opacity="0.75"/>
<circle cx="360.6" cy="190.2" r="4.2" fill="#2f6fed" fill-opacity="0.75"/>
<circle cx="523.1" cy="171.7" r="4.2" fill="#2f6fed" fill-opacity="0.75"/>
<circle cx="510.4" cy="264.7" r="4.2" fill="#2f6fed" fill-opacity="0.75"/>
<circle cx="354.4" cy="320.7" r="4.2" fill="#2f6fed" fill-opacity="0.75"/>
<circle cx="420.2" cy="216.3" r="4.2" fill="#2f6fed" fill-opacity="0.75"/>
<circle cx="535.1" cy="212.3" r="4.2" fill="#2f6fed" fill-opacity="0.75"/>
<circle cx="421.3" cy="285.5" r="4.2" fill="#ff7a00" fill-opacity="0.75"/>
<circle cx="309.7" cy="97.1" r="4.2" fill="#ff7a00" fill-opacity="0.75"/>
<circle cx="263.8" cy="177.5" r="4.2" fill="#ff7a00" fill-opacity="0.75"/>
<circle cx="390.3" cy="381.5" r="4.2" fill="#ff7a00" fill-opacity="0.75"/>
<circle cx="145.0" cy="211.5" r="4.2" fill="#ff7a00" fill-opacity="0.75"/>
<circle cx="638.1" cy="258.2" r="4.2" fill="#ff7a00" fill-opacity="0.75"/>
<circle cx="423.6" cy="97.0" r="4.2" fill="#ff7a00" fill-opacity="0.75"/>
<circle cx="286.1" cy="231.7" r="4.2" fill="#ff7a00" fill-opacity="0.75"/>
<circle cx="447.9" cy="176.2" r="4.2" fill="#ff7a00" fill-opacity="0.75"/>
<circle cx="404.5" cy="178.6" r="4.2" fill="#ff7a00" fill-opacity="0.75"/>
<circle cx="355.8" cy="376.4" r="4.2" fill="#ff7a00" fill-opacity="0.75"/>
<circle cx="476.8" cy="230.3" r="4.2" fill="#ff7a00" fill-opacity="0.75"/>
<circle cx="467.8" cy="196.2" r="4.2" fill="#ff7a00" fill-opacity="0.75"/>
<circle cx="379.3" cy="194.7" r="4.2" fill="#ff7a00" fill-opacity="0.75"/>
<circle cx="463.7" cy="176.4" r="4.2" fill="#ff7a00" fill-opacity="0.75"/>
<circle cx="464.8" cy="199.2" r="4.2" fill="#ff7a00" fill-opacity="0.75"/>
<circle cx="580.0" cy="146.6" r="4.2" fill="#ff7a00" fill-opacity="0.75"/>
<circle cx="388.3" cy="376.1" r="4.2" fill="#ff7a00" fill-opacity="0.75"/>
<circle cx="276.5" cy="263.7" r="4.2" fill="#ff7a00" fill-opacity="0.75"/>
<circle cx="327.7" cy="267.0" r="4.2" fill="#ff7a00" fill-opacity="0.75"/>
<circle cx="327.0" cy="148.2" r="4.2" fill="#ff7a00" fill-opacity="0.75"/>
<circle cx="167.1" cy="116.5" r="4.2" fill="#ff7a00" fill-opacity="0.75"/>
<circle cx="524.7" cy="292.9" r="4.2" fill="#ff7a00" fill-opacity="0.75"/>
<circle cx="388.3" cy="177.0" r="4.2" fill="#ff7a00" fill-opacity="0.75"/>
<circle cx="300.4" cy="384.0" r="4.2" fill="#ff7a00" fill-opacity="0.75"/>
<circle cx="328.1" cy="192.5" r="4.2" fill="#ff7a00" fill-opacity="0.75"/>
<circle cx="339.6" cy="280.4" r="4.2" fill="#ff7a00" fill-opacity="0.75"/>
<circle cx="387.3" cy="259.7" r="4.2" fill="#ff7a00" fill-opacity="0.75"/>
<circle cx="342.7" cy="262.9" r="4.2" fill="#ff7a00" fill-opacity="0.75"/>
<circle cx="277.1" cy="321.1" r="4.2" fill="#ff7a00" fill-opacity="0.75"/>
<circle cx="215.1" cy="204.7" r="4.2" fill="#ff7a00" fill-opacity="0.75"/>
<circle cx="365.8" cy="135.2" r="4.2" fill="#ff7a00" fill-opacity="0.75"/>
<circle cx="249.2" cy="136.6" r="4.2" fill="#ff7a00" fill-opacity="0.75"/>
<circle cx="213.1" cy="195.3" r="4.2" fill="#ff7a00" fill-opacity="0.75"/>
<circle cx="241.5" cy="325.0" r="4.2" fill="#ff7a00" fill-opacity="0.75"/>
<circle cx="414.3" cy="281.1" r="4.2" fill="#ff7a00" fill-opacity="0.75"/>
<circle cx="352.5" cy="301.4" r="4.2" fill="#ff7a00" fill-opacity="0.75"/>
<circle cx="484.6" cy="309.7" r="4.2" fill="#ff7a00" fill-opacity="0.75"/>
<circle cx="352.7" cy="239.7" r="4.2" fill="#ff7a00" fill-opacity="0.75"/>
<circle cx="257.1" cy="91.1" r="4.2" fill="#ff7a00" fill-opacity="0.75"/>
<circle cx="442.3" cy="256.4" r="4.2" fill="#ff7a00" fill-opacity="0.75"/>
<circle cx="447.6" cy="132.7" r="4.2" fill="#ff7a00" fill-opacity="0.75"/>
<circle cx="405.5" cy="268.0" r="4.2" fill="#ff7a00" fill-opacity="0.75"/>
<circle cx="390.4" cy="262.2" r="4.2" fill="#ff7a00" fill-opacity="0.75"/>
<circle cx="194.0" cy="191.6" r="4.2" fill="#ff7a00" fill-opacity="0.75"/>
<circle cx="455.8" cy="296.1" r="4.2" fill="#ff7a00" fill-opacity="0.75"/>
<circle cx="348.2" cy="231.2" r="4.2" fill="#ff7a00" fill-opacity="0.75"/>
<circle cx="347.0" cy="212.9" r="4.2" fill="#ff7a00" fill-opacity="0.75"/>
<circle cx="254.5" cy="287.5" r="4.2" fill="#ff7a00" fill-opacity="0.75"/>
<circle cx="205.1" cy="237.8" r="4.2" fill="#ff7a00" fill-opacity="0.75"/>
<circle cx="415.6" cy="324.0" r="4.2" fill="#ff7a00" fill-opacity="0.75"/>
<circle cx="498.1" cy="204.3" r="4.2" fill="#ff7a00" fill-opacity="0.75"/>
<circle cx="240.5" cy="278.3" r="4.2" fill="#ff7a00" fill-opacity="0.75"/>
<circle cx="381.0" cy="214.1" r="4.2" fill="#ff7a00" fill-opacity="0.75"/>
<circle cx="116.0" cy="205.9" r="4.2" fill="#ff7a00" fill-opacity="0.75"/>
<circle cx="335.1" cy="263.6" r="4.2" fill="#ff7a00" fill-opacity="0.75"/>
<circle cx="255.5" cy="177.8" r="4.2" fill="#ff7a00" fill-opacity="0.75"/>
<circle cx="511.7" cy="137.0" r="4.2" fill="#ff7a00" fill-opacity="0.75"/>
<circle cx="367.9" cy="311.6" r="4.2" fill="#ff7a00" fill-opacity="0.75"/>
<circle cx="416.7" cy="435.1" r="4.2" fill="#ff7a00" fill-opacity="0.75"/>
<circle cx="353.1" cy="311.1" r="4.2" fill="#ff7a00" fill-opacity="0.75"/>
<circle cx="308.8" cy="250.5" r="4.2" fill="#ff7a00" fill-opacity="0.75"/>
<circle cx="219.8" cy="277.0" r="4.2" fill="#ff7a00" fill-opacity="0.75"/>
<circle cx="316.9" cy="167.3" r="4.2" fill="#ff7a00" fill-opacity="0.75"/>
<circle cx="357.5" cy="253.1" r="4.2" fill="#ff7a00" fill-opacity="0.75"/>
<circle cx="280.4" cy="251.6" r="4.2" fill="#ff7a00" fill-opacity="0.75"/>
<circle cx="640.8" cy="309.4" r="4.2" fill="#ff7a00" fill-opacity="0.75"/>
<circle cx="124.6" cy="217.0" r="4.2" fill="#ff7a00" fill-opacity="0.75"/>
<circle cx="300.2" cy="294.7" r="4.2" fill="#ff7a00" fill-opacity="0.75"/>
<circle cx="509.3" cy="301.4" r="4.2" fill="#ff7a00" fill-opacity="0.75"/>
<circle cx="510.7" cy="117.1" r="4.2" fill="#ff7a00" fill-opacity="0.75"/>
<circle cx="100.1" cy="198.8" r="4.2" fill="#ff7a00" fill-opacity="0.75"/>
<circle cx="330.1" cy="262.9" r="4.2" fill="#ff7a00" fill-opacity="0.75"/>
<circle cx="489.7" cy="213.6" r="4.2" fill="#ff7a00" fill-opacity="0.75"/>
<circle cx="262.4" cy="212.5" r="4.2" fill="#ff7a00" fill-opacity="0.75"/>
<circle cx="285.8" cy="312.3" r="4.2" fill="#ff7a00" fill-opacity="0.75"/>
<circle cx="342.9" cy="303.8" r="4.2" fill="#ff7a00" fill-opacity="0.75"/>
<circle cx="70.0" cy="216.8" r="4.2" fill="#ff7a00" fill-opacity="0.75"/>
<circle cx="336.5" cy="319.6" r="4.2" fill="#ff7a00" fill-opacity="0.75"/>
<circle cx="429.3" cy="363.2" r="4.2" fill="#ff7a00" fill-opacity="0.75"/>
<circle cx="326.8" cy="397.3" r="4.2" fill="#ff7a00" fill-opacity="0.75"/>
<circle cx="512.2" cy="301.4" r="4.2" fill="#ff7a00" fill-opacity="0.75"/>
<circle cx="210.0" cy="118.1" r="4.2" fill="#ff7a00" fill-opacity="0.75"/>
<circle cx="427.1" cy="275.3" r="4.2" fill="#ff7a00" fill-opacity="0.75"/>
<circle cx="352.0" cy="118.9" r="4.2" fill="#ff7a00" fill-opacity="0.75"/>
<circle cx="242.2" cy="224.4" r="4.2" fill="#ff7a00" fill-opacity="0.75"/>
<circle cx="273.0" cy="254.9" r="4.2" fill="#ff7a00" fill-opacity="0.75"/>
<circle cx="419.8" cy="312.5" r="4.2" fill="#ff7a00" fill-opacity="0.75"/>
<circle cx="474.1" cy="91.8" r="4.2" fill="#ff7a00" fill-opacity="0.75"/>
<circle cx="523.2" cy="229.7" r="4.2" fill="#ff7a00" fill-opacity="0.75"/>
<circle cx="404.7" cy="252.4" r="4.2" fill="#ff7a00" fill-opacity="0.75"/>
<circle cx="301.8" cy="356.5" r="4.2" fill="#ff7a00" fill-opacity="0.75"/>
<circle cx="211.8" cy="182.5" r="4.2" fill="#ff7a00" fill-opacity="0.75"/>
<circle cx="287.9" cy="380.6" r="4.2" fill="#ff7a00" fill-opacity="0.75"/>
<circle cx="403.7" cy="149.5" r="4.2" fill="#ff7a00" fill-opacity="0.75"/>
<circle cx="358.1" cy="277.3" r="4.2" fill="#ff7a00" fill-opacity="0.75"/>
<circle cx="587.9" cy="296.6" r="4.2" fill="#ff7a00" fill-opacity="0.75"/>
<circle cx="280.1" cy="200.8" r="4.2" fill="#ff7a00" fill-opacity="0.75"/>
<circle cx="435.4" cy="217.1" r="4.2" fill="#ff7a00" fill-opacity="0.75"/>
<circle cx="619.1" cy="208.6" r="4.2" fill="#ff7a00" fill-opacity="0.75"/>
<circle cx="320.8" cy="214.6" r="4.2" fill="#1fa971" fill-opacity="0.75"/>
<circle cx="172.1" cy="172.8" r="4.2" fill="#1fa971" fill-opacity="0.75"/>
<circle cx="436.3" cy="162.8" r="4.2" fill="#1fa971" fill-opacity="0.75"/>
<circle cx="205.8" cy="289.9" r="4.2" fill="#1fa971" fill-opacity="0.75"/>
<circle cx="440.3" cy="306.3" r="4.2" fill="#1fa971" fill-opacity="0.75"/>
<circle cx="347.1" cy="422.2" r="4.2" fill="#1fa971" fill-opacity="0.75"/>
<circle cx="300.1" cy="315.3" r="4.2" fill="#1fa971" fill-opacity="0.75"/>
<circle cx="501.5" cy="296.5" r="4.2" fill="#1fa971" fill-opacity="0.75"/>
<circle cx="532.1" cy="197.2" r="4.2" fill="#1fa971" fill-opacity="0.75"/>
<circle cx="422.7" cy="373.8" r="4.2" fill="#1fa971" fill-opacity="0.75"/>
<circle cx="521.2" cy="312.8" r="4.2" fill="#1fa971" fill-opacity="0.75"/>
<circle cx="433.8" cy="276.8" r="4.2" fill="#1fa971" fill-opacity="0.75"/>
<circle cx="491.9" cy="295.7" r="4.2" fill="#1fa971" fill-opacity="0.75"/>
<circle cx="463.7" cy="274.6" r="4.2" fill="#1fa971" fill-opacity="0.75"/>
<circle cx="455.0" cy="243.9" r="4.2" fill="#1fa971" fill-opacity="0.75"/>
<circle cx="440.6" cy="322.3" r="4.2" fill="#1fa971" fill-opacity="0.75"/>
<circle cx="415.6" cy="276.5" r="4.2" fill="#1fa971" fill-opacity="0.75"/>
<circle cx="196.9" cy="169.6" r="4.2" fill="#1fa971" fill-opacity="0.75"/>
<circle cx="340.5" cy="339.1" r="4.2" fill="#1fa971" fill-opacity="0.75"/>
<circle cx="513.3" cy="108.4" r="4.2" fill="#1fa971" fill-opacity="0.75"/>
<circle cx="420.0" cy="212.1" r="4.2" fill="#1fa971" fill-opacity="0.75"/>
<circle cx="298.8" cy="89.1" r="4.2" fill="#1fa971" fill-opacity="0.75"/>
<circle cx="629.7" cy="167.4" r="4.2" fill="#1fa971" fill-opacity="0.75"/>
<circle cx="493.3" cy="260.0" r="4.2" fill="#1fa971" fill-opacity="0.75"/>
<circle cx="481.0" cy="217.2" r="4.2" fill="#1fa971" fill-opacity="0.75"/>
<circle cx="485.7" cy="109.2" r="4.2" fill="#1fa971" fill-opacity="0.75"/>
<circle cx="562.4" cy="320.4" r="4.2" fill="#1fa971" fill-opacity="0.75"/>
<circle cx="469.4" cy="119.3" r="4.2" fill="#1fa971" fill-opacity="0.75"/>
<circle cx="374.6" cy="226.6" r="4.2" fill="#1fa971" fill-opacity="0.75"/>
<circle cx="538.1" cy="168.9" r="4.2" fill="#1fa971" fill-opacity="0.75"/>
<circle cx="350.5" cy="224.9" r="4.2" fill="#1fa971" fill-opacity="0.75"/>
<circle cx="513.4" cy="190.6" r="4.2" fill="#1fa971" fill-opacity="0.75"/>
<circle cx="512.4" cy="203.2" r="4.2" fill="#1fa971" fill-opacity="0.75"/>
<circle cx="316.2" cy="246.1" r="4.2" fill="#1fa971" fill-opacity="0.75"/>
<circle cx="432.5" cy="198.6" r="4.2" fill="#1fa971" fill-opacity="0.75"/>
<circle cx="328.4" cy="277.7" r="4.2" fill="#1fa971" fill-opacity="0.75"/>
<circle cx="480.3" cy="293.7" r="4.2" fill="#1fa971" fill-opacity="0.75"/>
<circle cx="288.3" cy="327.6" r="4.2" fill="#1fa971" fill-opacity="0.75"/>
<circle cx="339.7" cy="146.8" r="4.2" fill="#1fa971" fill-opacity="0.75"/>
<circle cx="529.4" cy="235.0" r="4.2" fill="#1fa971" fill-opacity="0.75"/>
<circle cx="380.4" cy="379.2" r="4.2" fill="#1fa971" fill-opacity="0.75"/>
<circle cx="364.1" cy="181.9" r="4.2" fill="#1fa971" fill-opacity="0.75"/>
<circle cx="540.4" cy="184.7" r="4.2" fill="#1fa971" fill-opacity="0.75"/>
<circle cx="579.5" cy="182.4" r="4.2" fill="#1fa971" fill-opacity="0.75"/>
<circle cx="405.5" cy="192.5" r="4.2" fill="#1fa971" fill-opacity="0.75"/>
<circle cx="570.1" cy="146.2" r="4.2" fill="#1fa971" fill-opacity="0.75"/>
<circle cx="521.5" cy="189.7" r="4.2" fill="#1fa971" fill-opacity="0.75"/>
<circle cx="478.1" cy="173.0" r="4.2" fill="#1fa971" fill-opacity="0.75"/>
<circle cx="567.8" cy="235.7" r="4.2" fill="#1fa971" fill-opacity="0.75"/>
<circle cx="569.2" cy="284.9" r="4.2" fill="#1fa971" fill-opacity="0.75"/>
<circle cx="426.5" cy="314.5" r="4.2" fill="#1fa971" fill-opacity="0.75"/>
<circle cx="565.7" cy="255.8" r="4.2" fill="#1fa971" fill-opacity="0.75"/>
<circle cx="612.9" cy="195.9" r="4.2" fill="#1fa971" fill-opacity="0.75"/>
<circle cx="404.9" cy="336.5" r="4.2" fill="#1fa971" fill-opacity="0.75"/>
<circle cx="309.1" cy="154.3" r="4.2" fill="#1fa971" fill-opacity="0.75"/>
<circle cx="542.7" cy="195.7" r="4.2" fill="#1fa971" fill-opacity="0.75"/>
<circle cx="388.7" cy="197.7" r="4.2" fill="#1fa971" fill-opacity="0.75"/>
<circle cx="369.0" cy="267.3" r="4.2" fill="#1fa971" fill-opacity="0.75"/>
<circle cx="597.1" cy="200.2" r="4.2" fill="#1fa971" fill-opacity="0.75"/>
<circle cx="485.6" cy="426.0" r="4.2" fill="#1fa971" fill-opacity="0.75"/>
<circle cx="457.3" cy="95.1" r="4.2" fill="#1fa971" fill-opacity="0.75"/>
<circle cx="625.5" cy="228.3" r="4.2" fill="#1fa971" fill-opacity="0.75"/>
<circle cx="464.8" cy="232.4" r="4.2" fill="#1fa971" fill-opacity="0.75"/>
<circle cx="362.1" cy="155.0" r="4.2" fill="#1fa971" fill-opacity="0.75"/>
<circle cx="387.7" cy="150.9" r="4.2" fill="#1fa971" fill-opacity="0.75"/>
<circle cx="410.0" cy="132.0" r="4.2" fill="#1fa971" fill-opacity="0.75"/>
<circle cx="455.9" cy="297.8" r="4.2" fill="#1fa971" fill-opacity="0.75"/>
<circle cx="656.4" cy="293.4" r="4.2" fill="#1fa971" fill-opacity="0.75"/>
<circle cx="479.9" cy="343.1" r="4.2" fill="#1fa971" fill-opacity="0.75"/>
<circle cx="510.8" cy="404.2" r="4.2" fill="#1fa971" fill-opacity="0.75"/>
<circle cx="521.9" cy="433.6" r="4.2" fill="#1fa971" fill-opacity="0.75"/>
<circle cx="413.3" cy="407.0" r="4.2" fill="#1fa971" fill-opacity="0.75"/>
<circle cx="666.7" cy="206.5" r="4.2" fill="#1fa971" fill-opacity="0.75"/>
<circle cx="520.0" cy="299.5" r="4.2" fill="#1fa971" fill-opacity="0.75"/>
<circle cx="348.8" cy="309.1" r="4.2" fill="#1fa971" fill-opacity="0.75"/>
<circle cx="389.2" cy="284.9" r="4.2" fill="#1fa971" fill-opacity="0.75"/>
<circle cx="461.9" cy="292.2" r="4.2" fill="#1fa971" fill-opacity="0.75"/>
<circle cx="366.0" cy="335.1" r="4.2" fill="#1fa971" fill-opacity="0.75"/>
<circle cx="462.0" cy="262.6" r="4.2" fill="#1fa971" fill-opacity="0.75"/>
<circle cx="544.6" cy="310.7" r="4.2" fill="#1fa971" fill-opacity="0.75"/>
<circle cx="472.1" cy="227.7" r="4.2" fill="#1fa971" fill-opacity="0.75"/>
<circle cx="446.9" cy="390.2" r="4.2" fill="#1fa971" fill-opacity="0.75"/>
<circle cx="513.3" cy="190.4" r="4.2" fill="#1fa971" fill-opacity="0.75"/>
<circle cx="383.2" cy="326.7" r="4.2" fill="#1fa971" fill-opacity="0.75"/>
<circle cx="452.8" cy="196.2" r="4.2" fill="#1fa971" fill-opacity="0.75"/>
<circle cx="444.3" cy="310.8" r="4.2" fill="#1fa971" fill-opacity="0.75"/>
<circle cx="527.8" cy="276.2" r="4.2" fill="#1fa971" fill-opacity="0.75"/>
<circle cx="260.3" cy="159.7" r="4.2" fill="#1fa971" fill-opacity="0.75"/>
<circle cx="290.9" cy="215.2" r="4.2" fill="#1fa971" fill-opacity="0.75"/>
<circle cx="494.3" cy="289.0" r="4.2" fill="#1fa971" fill-opacity="0.75"/>
<circle cx="522.2" cy="227.1" r="4.2" fill="#1fa971" fill-opacity="0.75"/>
<circle cx="460.9" cy="292.3" r="4.2" fill="#1fa971" fill-opacity="0.75"/>
<circle cx="534.7" cy="286.9" r="4.2" fill="#1fa971" fill-opacity="0.75"/>
<circle cx="545.5" cy="222.2" r="4.2" fill="#1fa971" fill-opacity="0.75"/>
<circle cx="503.7" cy="135.9" r="4.2" fill="#1fa971" fill-opacity="0.75"/>
<circle cx="387.8" cy="303.2" r="4.2" fill="#1fa971" fill-opacity="0.75"/>
<circle cx="553.1" cy="156.5" r="4.2" fill="#1fa971" fill-opacity="0.75"/>
<circle cx="526.6" cy="138.6" r="4.2" fill="#1fa971" fill-opacity="0.75"/>
<circle cx="378.8" cy="353.5" r="4.2" fill="#1fa971" fill-opacity="0.75"/>
<circle cx="462.7" cy="282.4" r="4.2" fill="#1fa971" fill-opacity="0.75"/>
<circle cx="375.8" cy="369.4" r="4.2" fill="#a046f2" fill-opacity="0.75"/>
<circle cx="378.0" cy="366.0" r="4.2" fill="#a046f2" fill-opacity="0.75"/>
<circle cx="427.0" cy="273.7" r="4.2" fill="#a046f2" fill-opacity="0.75"/>
<circle cx="426.8" cy="276.4" r="4.2" fill="#a046f2" fill-opacity="0.75"/>
<circle cx="451.5" cy="361.7" r="4.2" fill="#a046f2" fill-opacity="0.75"/>
<circle cx="450.4" cy="358.2" r="4.2" fill="#a046f2" fill-opacity="0.75"/>
<circle cx="531.9" cy="250.7" r="4.2" fill="#a046f2" fill-opacity="0.75"/>
<circle cx="533.8" cy="252.2" r="4.2" fill="#a046f2" fill-opacity="0.75"/>
<circle cx="480.9" cy="275.0" r="4.2" fill="#a046f2" fill-opacity="0.75"/>
<circle cx="481.6" cy="273.4" r="4.2" fill="#a046f2" fill-opacity="0.75"/>
<circle cx="372.6" cy="377.0" r="4.2" fill="#a046f2" fill-opacity="0.75"/>
<circle cx="374.3" cy="375.5" r="4.2" fill="#a046f2" fill-opacity="0.75"/>
<circle cx="448.4" cy="297.9" r="4.2" fill="#a046f2" fill-opacity="0.75"/>
<circle cx="448.4" cy="296.3" r="4.2" fill="#a046f2" fill-opacity="0.75"/>
<circle cx="430.3" cy="302.1" r="4.2" fill="#a046f2" fill-opacity="0.75"/>
<circle cx="431.7" cy="302.1" r="4.2" fill="#a046f2" fill-opacity="0.75"/>
<circle cx="357.8" cy="380.6" r="4.2" fill="#a046f2" fill-opacity="0.75"/>
<circle cx="359.6" cy="380.6" r="4.2" fill="#a046f2" fill-opacity="0.75"/>
<circle cx="437.2" cy="408.7" r="4.2" fill="#a046f2" fill-opacity="0.75"/>
<circle cx="437.8" cy="408.5" r="4.2" fill="#a046f2" fill-opacity="0.75"/>
<circle cx="470.7" cy="369.1" r="4.2" fill="#a046f2" fill-opacity="0.75"/>
<circle cx="470.3" cy="368.4" r="4.2" fill="#a046f2" fill-opacity="0.75"/>
<circle cx="442.6" cy="241.3" r="4.2" fill="#a046f2" fill-opacity="0.75"/>
<circle cx="443.3" cy="242.1" r="4.2" fill="#a046f2" fill-opacity="0.75"/>
<circle cx="403.8" cy="408.2" r="4.2" fill="#a046f2" fill-opacity="0.75"/>
<circle cx="406.6" cy="407.6" r="4.2" fill="#a046f2" fill-opacity="0.75"/>
<circle cx="410.9" cy="240.0" r="4.2" fill="#a046f2" fill-opacity="0.75"/>
<circle cx="413.9" cy="249.7" r="4.2" fill="#a046f2" fill-opacity="0.75"/>
<circle cx="447.7" cy="289.9" r="4.2" fill="#a046f2" fill-opacity="0.75"/>
<circle cx="447.9" cy="289.7" r="4.2" fill="#a046f2" fill-opacity="0.75"/>
<circle cx="391.9" cy="272.4" r="4.2" fill="#a046f2" fill-opacity="0.75"/>
<circle cx="392.4" cy="272.8" r="4.2" fill="#a046f2" fill-opacity="0.75"/>
<circle cx="406.8" cy="387.5" r="4.2" fill="#a046f2" fill-opacity="0.75"/>
<circle cx="408.0" cy="386.1" r="4.2" fill="#a046f2" fill-opacity="0.75"/>
<circle cx="337.8" cy="104.9" r="4.2" fill="#a046f2" fill-opacity="0.75"/>
<circle cx="338.7" cy="104.2" r="4.2" fill="#a046f2" fill-opacity="0.75"/>
<circle cx="365.4" cy="334.6" r="4.2" fill="#a046f2" fill-opacity="0.75"/>
<circle cx="365.6" cy="334.9" r="4.2" fill="#a046f2" fill-opacity="0.75"/>
<circle cx="555.4" cy="178.2" r="4.2" fill="#a046f2" fill-opacity="0.75"/>
<circle cx="555.3" cy="177.3" r="4.2" fill="#a046f2" fill-opacity="0.75"/>
<circle cx="436.7" cy="470.0" r="4.2" fill="#a046f2" fill-opacity="0.75"/>
<circle cx="438.1" cy="469.6" r="4.2" fill="#a046f2" fill-opacity="0.75"/>
<circle cx="263.1" cy="318.0" r="4.2" fill="#a046f2" fill-opacity="0.75"/>
<circle cx="263.9" cy="315.9" r="4.2" fill="#a046f2" fill-opacity="0.75"/>
<circle cx="384.9" cy="303.3" r="4.2" fill="#a046f2" fill-opacity="0.75"/>
<circle cx="386.8" cy="303.9" r="4.2" fill="#a046f2" fill-opacity="0.75"/>
<circle cx="411.7" cy="355.7" r="4.2" fill="#a046f2" fill-opacity="0.75"/>
<circle cx="414.7" cy="354.8" r="4.2" fill="#a046f2" fill-opacity="0.75"/>
<circle cx="432.8" cy="348.1" r="4.2" fill="#a046f2" fill-opacity="0.75"/>
<circle cx="433.5" cy="348.2" r="4.2" fill="#a046f2" fill-opacity="0.75"/>
<circle cx="402.6" cy="380.3" r="4.2" fill="#a046f2" fill-opacity="0.75"/>
<circle cx="403.2" cy="379.6" r="4.2" fill="#a046f2" fill-opacity="0.75"/>
<circle cx="460.5" cy="397.8" r="4.2" fill="#a046f2" fill-opacity="0.75"/>
<circle cx="460.8" cy="397.6" r="4.2" fill="#a046f2" fill-opacity="0.75"/>
<circle cx="389.6" cy="420.8" r="4.2" fill="#a046f2" fill-opacity="0.75"/>
<circle cx="390.5" cy="420.5" r="4.2" fill="#a046f2" fill-opacity="0.75"/>
<circle cx="413.4" cy="295.5" r="4.2" fill="#a046f2" fill-opacity="0.75"/>
<circle cx="413.1" cy="295.9" r="4.2" fill="#a046f2" fill-opacity="0.75"/>
<circle cx="311.5" cy="352.7" r="4.2" fill="#a046f2" fill-opacity="0.75"/>
<circle cx="310.8" cy="351.1" r="4.2" fill="#a046f2" fill-opacity="0.75"/>
<circle cx="366.0" cy="314.4" r="4.2" fill="#a046f2" fill-opacity="0.75"/>
<circle cx="365.6" cy="313.1" r="4.2" fill="#a046f2" fill-opacity="0.75"/>
<circle cx="432.3" cy="251.1" r="4.2" fill="#a046f2" fill-opacity="0.75"/>
<circle cx="431.6" cy="251.9" r="4.2" fill="#a046f2" fill-opacity="0.75"/>
<circle cx="451.7" cy="298.1" r="4.2" fill="#a046f2" fill-opacity="0.75"/>
<circle cx="453.1" cy="296.8" r="4.2" fill="#a046f2" fill-opacity="0.75"/>
<circle cx="409.3" cy="373.4" r="4.2" fill="#a046f2" fill-opacity="0.75"/>
<circle cx="410.2" cy="371.7" r="4.2" fill="#a046f2" fill-opacity="0.75"/>
<circle cx="372.6" cy="341.4" r="4.2" fill="#a046f2" fill-opacity="0.75"/>
<circle cx="372.3" cy="341.1" r="4.2" fill="#a046f2" fill-opacity="0.75"/>
<circle cx="335.6" cy="270.7" r="4.2" fill="#a046f2" fill-opacity="0.75"/>
<circle cx="336.5" cy="268.6" r="4.2" fill="#a046f2" fill-opacity="0.75"/>
<circle cx="398.1" cy="219.8" r="4.2" fill="#a046f2" fill-opacity="0.75"/>
<circle cx="397.7" cy="219.5" r="4.2" fill="#a046f2" fill-opacity="0.75"/>
<circle cx="491.7" cy="280.5" r="4.2" fill="#a046f2" fill-opacity="0.75"/>
<circle cx="491.0" cy="281.9" r="4.2" fill="#a046f2" fill-opacity="0.75"/>
<circle cx="443.7" cy="318.9" r="4.2" fill="#a046f2" fill-opacity="0.75"/>
<circle cx="443.5" cy="316.1" r="4.2" fill="#a046f2" fill-opacity="0.75"/>
<circle cx="438.3" cy="345.7" r="4.2" fill="#a046f2" fill-opacity="0.75"/>
<circle cx="438.6" cy="344.3" r="4.2" fill="#a046f2" fill-opacity="0.75"/>
<circle cx="413.0" cy="233.8" r="4.2" fill="#a046f2" fill-opacity="0.75"/>
<circle cx="411.9" cy="232.2" r="4.2" fill="#a046f2" fill-opacity="0.75"/>
<circle cx="371.5" cy="199.2" r="4.2" fill="#a046f2" fill-opacity="0.75"/>
<circle cx="371.8" cy="197.8" r="4.2" fill="#a046f2" fill-opacity="0.75"/>
<circle cx="486.5" cy="255.0" r="4.2" fill="#a046f2" fill-opacity="0.75"/>
<circle cx="484.8" cy="253.2" r="4.2" fill="#a046f2" fill-opacity="0.75"/>
<circle cx="373.1" cy="306.7" r="4.2" fill="#a046f2" fill-opacity="0.75"/>
<circle cx="371.0" cy="306.2" r="4.2" fill="#a046f2" fill-opacity="0.75"/>
<circle cx="349.8" cy="178.0" r="4.2" fill="#a046f2" fill-opacity="0.75"/>
<circle cx="350.0" cy="178.2" r="4.2" fill="#a046f2" fill-opacity="0.75"/>
<circle cx="337.8" cy="396.0" r="4.2" fill="#a046f2" fill-opacity="0.75"/>
<circle cx="337.8" cy="395.7" r="4.2" fill="#a046f2" fill-opacity="0.75"/>
<circle cx="382.9" cy="352.7" r="4.2" fill="#a046f2" fill-opacity="0.75"/>
<circle cx="381.8" cy="351.1" r="4.2" fill="#a046f2" fill-opacity="0.75"/>
<circle cx="487.5" cy="361.4" r="4.2" fill="#a046f2" fill-opacity="0.75"/>
<circle cx="487.3" cy="360.3" r="4.2" fill="#a046f2" fill-opacity="0.75"/>
<circle cx="492.4" cy="330.0" r="4.2" fill="#a046f2" fill-opacity="0.75"/>
<circle cx="491.4" cy="329.1" r="4.2" fill="#a046f2" fill-opacity="0.75"/>
<circle cx="345.1" cy="380.8" r="4.2" fill="#a046f2" fill-opacity="0.75"/>
<circle cx="346.7" cy="378.2" r="4.2" fill="#a046f2" fill-opacity="0.75"/>
<circle cx="411.6" cy="265.9" r="4.2" fill="#d64545" fill-opacity="0.75"/>
<circle cx="411.3" cy="265.5" r="4.2" fill="#d64545" fill-opacity="0.75"/>
<circle cx="204.6" cy="300.9" r="4.2" fill="#d64545" fill-opacity="0.75"/>
<circle cx="205.5" cy="300.2" r="4.2" fill="#d64545" fill-opacity="0.75"/>
<circle cx="251.6" cy="248.7" r="4.2" fill="#d64545" fill-opacity="0.75"/>
<circle cx="252.3" cy="249.0" r="4.2" fill="#d64545" fill-opacity="0.75"/>
<circle cx="432.6" cy="339.3" r="4.2" fill="#d64545" fill-opacity="0.75"/>
<circle cx="433.4" cy="337.9" r="4.2" fill="#d64545" fill-opacity="0.75"/>
<circle cx="417.8" cy="341.6" r="4.2" fill="#d64545" fill-opacity="0.75"/>
<circle cx="418.8" cy="342.3" r="4.2" fill="#d64545" fill-opacity="0.75"/>
<circle cx="335.4" cy="291.7" r="4.2" fill="#d64545" fill-opacity="0.75"/>
<circle cx="336.1" cy="290.5" r="4.2" fill="#d64545" fill-opacity="0.75"/>
<circle cx="539.9" cy="217.9" r="4.2" fill="#d64545" fill-opacity="0.75"/>
<circle cx="539.8" cy="215.9" r="4.2" fill="#d64545" fill-opacity="0.75"/>
<circle cx="720.0" cy="226.6" r="4.2" fill="#d64545" fill-opacity="0.75"/>
<circle cx="720.0" cy="227.3" r="4.2" fill="#d64545" fill-opacity="0.75"/>
<circle cx="206.0" cy="288.7" r="4.2" fill="#d64545" fill-opacity="0.75"/>
<circle cx="206.2" cy="286.2" r="4.2" fill="#d64545" fill-opacity="0.75"/>
<circle cx="644.8" cy="349.7" r="4.2" fill="#d64545" fill-opacity="0.75"/>
<circle cx="645.6" cy="347.2" r="4.2" fill="#d64545" fill-opacity="0.75"/>
<circle cx="252.1" cy="280.0" r="4.2" fill="#d64545" fill-opacity="0.75"/>
<circle cx="252.4" cy="279.2" r="4.2" fill="#d64545" fill-opacity="0.75"/>
<circle cx="415.0" cy="299.7" r="4.2" fill="#d64545" fill-opacity="0.75"/>
<circle cx="415.8" cy="299.7" r="4.2" fill="#d64545" fill-opacity="0.75"/>
<circle cx="432.4" cy="293.8" r="4.2" fill="#d64545" fill-opacity="0.75"/>
<circle cx="432.8" cy="292.1" r="4.2" fill="#d64545" fill-opacity="0.75"/>
<circle cx="395.3" cy="237.6" r="4.2" fill="#d64545" fill-opacity="0.75"/>
<circle cx="394.4" cy="236.7" r="4.2" fill="#d64545" fill-opacity="0.75"/>
<circle cx="383.7" cy="301.8" r="4.2" fill="#d64545" fill-opacity="0.75"/>
<circle cx="383.5" cy="301.6" r="4.2" fill="#d64545" fill-opacity="0.75"/>
<circle cx="523.1" cy="225.2" r="4.2" fill="#d64545" fill-opacity="0.75"/>
<circle cx="525.0" cy="226.7" r="4.2" fill="#d64545" fill-opacity="0.75"/>
<circle cx="420.4" cy="347.4" r="4.2" fill="#d64545" fill-opacity="0.75"/>
<circle cx="420.2" cy="346.6" r="4.2" fill="#d64545" fill-opacity="0.75"/>
<circle cx="185.3" cy="255.6" r="4.2" fill="#d64545" fill-opacity="0.75"/>
<circle cx="185.3" cy="255.6" r="4.2" fill="#d64545" fill-opacity="0.75"/>
<circle cx="504.8" cy="268.8" r="4.2" fill="#d64545" fill-opacity="0.75"/>
<circle cx="506.3" cy="267.0" r="4.2" fill="#d64545" fill-opacity="0.75"/>
<circle cx="251.8" cy="262.1" r="4.2" fill="#d64545" fill-opacity="0.75"/>
<circle cx="252.6" cy="261.0" r="4.2" fill="#d64545" fill-opacity="0.75"/>
<circle cx="487.0" cy="284.8" r="4.2" fill="#d64545" fill-opacity="0.75"/>
<circle cx="487.2" cy="283.0" r="4.2" fill="#d64545" fill-opacity="0.75"/>
<circle cx="384.7" cy="332.4" r="4.2" fill="#d64545" fill-opacity="0.75"/>
<circle cx="385.8" cy="331.6" r="4.2" fill="#d64545" fill-opacity="0.75"/>
<circle cx="341.1" cy="301.7" r="4.2" fill="#d64545" fill-opacity="0.75"/>
<circle cx="341.4" cy="305.0" r="4.2" fill="#d64545" fill-opacity="0.75"/>
<circle cx="479.1" cy="240.6" r="4.2" fill="#d64545" fill-opacity="0.75"/>
<circle cx="480.8" cy="239.1" r="4.2" fill="#d64545" fill-opacity="0.75"/>
<circle cx="159.2" cy="276.7" r="4.2" fill="#d64545" fill-opacity="0.75"/>
<circle cx="159.6" cy="275.9" r="4.2" fill="#d64545" fill-opacity="0.75"/>
<circle cx="375.3" cy="296.4" r="4.2" fill="#d64545" fill-opacity="0.75"/>
<circle cx="374.7" cy="295.3" r="4.2" fill="#d64545" fill-opacity="0.75"/>
<circle cx="295.7" cy="309.7" r="4.2" fill="#d64545" fill-opacity="0.75"/>
<circle cx="296.5" cy="309.9" r="4.2" fill="#d64545" fill-opacity="0.75"/>
<circle cx="415.9" cy="273.7" r="4.2" fill="#d64545" fill-opacity="0.75"/>
<circle cx="416.0" cy="272.8" r="4.2" fill="#d64545" fill-opacity="0.75"/>
<circle cx="460.9" cy="316.7" r="4.2" fill="#d64545" fill-opacity="0.75"/>
<circle cx="460.3" cy="317.0" r="4.2" fill="#d64545" fill-opacity="0.75"/>
<circle cx="410.7" cy="275.8" r="4.2" fill="#d64545" fill-opacity="0.75"/>
<circle cx="410.7" cy="275.5" r="4.2" fill="#d64545" fill-opacity="0.75"/>
<circle cx="332.3" cy="335.2" r="4.2" fill="#d64545" fill-opacity="0.75"/>
<circle cx="332.6" cy="333.9" r="4.2" fill="#d64545" fill-opacity="0.75"/>
<circle cx="415.3" cy="313.0" r="4.2" fill="#d64545" fill-opacity="0.75"/>
<circle cx="415.3" cy="310.5" r="4.2" fill="#d64545" fill-opacity="0.75"/>
<circle cx="460.3" cy="313.1" r="4.2" fill="#d64545" fill-opacity="0.75"/>
<circle cx="460.5" cy="313.2" r="4.2" fill="#d64545" fill-opacity="0.75"/>
<circle cx="437.2" cy="259.9" r="4.2" fill="#d64545" fill-opacity="0.75"/>
<circle cx="437.3" cy="260.0" r="4.2" fill="#d64545" fill-opacity="0.75"/>
<circle cx="404.1" cy="267.6" r="4.2" fill="#d64545" fill-opacity="0.75"/>
<circle cx="403.7" cy="267.1" r="4.2" fill="#d64545" fill-opacity="0.75"/>
<circle cx="240.2" cy="311.1" r="4.2" fill="#d64545" fill-opacity="0.75"/>
<circle cx="240.7" cy="309.1" r="4.2" fill="#d64545" fill-opacity="0.75"/>
<circle cx="319.2" cy="291.7" r="4.2" fill="#d64545" fill-opacity="0.75"/>
<circle cx="319.7" cy="290.2" r="4.2" fill="#d64545" fill-opacity="0.75"/>
<circle cx="450.4" cy="316.5" r="4.2" fill="#d64545" fill-opacity="0.75"/>
<circle cx="450.3" cy="315.0" r="4.2" fill="#d64545" fill-opacity="0.75"/>
<circle cx="474.5" cy="284.6" r="4.2" fill="#d64545" fill-opacity="0.75"/>
<circle cx="474.8" cy="284.8" r="4.2" fill="#d64545" fill-opacity="0.75"/>
<circle cx="373.4" cy="381.4" r="4.2" fill="#d64545" fill-opacity="0.75"/>
<circle cx="374.0" cy="380.5" r="4.2" fill="#d64545" fill-opacity="0.75"/>
<circle cx="171.8" cy="159.2" r="4.2" fill="#d64545" fill-opacity="0.75"/>
<circle cx="172.4" cy="158.4" r="4.2" fill="#d64545" fill-opacity="0.75"/>
<circle cx="342.8" cy="260.5" r="4.2" fill="#d64545" fill-opacity="0.75"/>
<circle cx="343.3" cy="259.7" r="4.2" fill="#d64545" fill-opacity="0.75"/>
<circle cx="330.3" cy="358.1" r="4.2" fill="#d64545" fill-opacity="0.75"/>
<circle cx="330.0" cy="357.1" r="4.2" fill="#d64545" fill-opacity="0.75"/>
<circle cx="377.1" cy="320.1" r="4.2" fill="#d64545" fill-opacity="0.75"/>
<circle cx="378.4" cy="319.0" r="4.2" fill="#d64545" fill-opacity="0.75"/>
<circle cx="374.2" cy="366.4" r="4.2" fill="#d64545" fill-opacity="0.75"/>
<circle cx="374.4" cy="366.6" r="4.2" fill="#d64545" fill-opacity="0.75"/>
<circle cx="466.4" cy="303.1" r="4.2" fill="#d64545" fill-opacity="0.75"/>
<circle cx="465.8" cy="302.2" r="4.2" fill="#d64545" fill-opacity="0.75"/>
<circle cx="157.9" cy="271.9" r="4.2" fill="#d64545" fill-opacity="0.75"/>
<circle cx="158.0" cy="270.2" r="4.2" fill="#d64545" fill-opacity="0.75"/>
<circle cx="428.7" cy="352.4" r="4.2" fill="#d64545" fill-opacity="0.75"/>
<circle cx="427.5" cy="352.1" r="4.2" fill="#d64545" fill-opacity="0.75"/>
<circle cx="380.6" cy="289.1" r="4.2" fill="#d64545" fill-opacity="0.75"/>
<circle cx="380.3" cy="288.5" r="4.2" fill="#d64545" fill-opacity="0.75"/>
<circle cx="313.5" cy="324.7" r="4.2" fill="#d64545" fill-opacity="0.75"/>
<circle cx="313.9" cy="326.2" r="4.2" fill="#d64545" fill-opacity="0.75"/>
<rect x="750" y="60" width="14" height="14" fill="#2f6fed"/>
<text x="770" y="72" font-size="14" font-family="Arial">photo</text>
<rect x="750" y="84" width="14" height="14" fill="#ff7a00"/>
<text x="770" y="96" font-size="14" font-family="Arial">Hayao</text>
<rect x="750" y="108" width="14" height="14" fill="#1fa971"/>
<text x="770" y="120" font-size="14" font-family="Arial">monet</text>
<rect x="750" y="132" width="14" height="14" fill="#a046f2"/>
<text x="770" y="144" font-size="14" font-family="Arial">vangogh</text>
<rect x="750" y="156" width="14" height="14" fill="#d64545"/>
<text x="770" y="168" font-size="14" font-family="Arial">cezanne</text>
</svg>