<svg xmlns="http://www.w3.org/2000/svg" width="900" height="520" viewBox="0 0 900 520">
<rect width="100%" height="100%" fill="white"/>
<text x="450.0" y="28" text-anchor="middle" font-size="22" font-family="Arial">MDS Scatter: pixel_mse</text>
<rect x="70" y="50" width="650" height="420" fill="none" stroke="black"/>
<circle cx="519.2" cy="214.0" r="4.2" fill="#2f6fed" fill-opacity="0.75"/>
<circle cx="514.2" cy="119.7" r="4.2" fill="#2f6fed" fill-opacity="0.75"/>
<circle cx="449.7" cy="211.2" r="4.2" fill="#2f6fed" fill-opacity="0.75"/>
<circle cx="399.9" cy="176.2" r="4.2" fill="#2f6fed" fill-opacity="0.75"/>
<circle cx="459.0" cy="139.8" r="4.2" fill="#2f6fed" fill-opacity="0.75"/>
<circle cx="460.8" cy="202.3" r="4.2" fill="#2f6fed" fill-opacity="0.75"/>
<circle cx="444.3" cy="173.7" r="4.2" fill="#2f6fed" fill-opacity="0.75"/>
<circle cx="474.5" cy="198.8" r="4.2" fill="#2f6fed" fill-opacity="0.75"/>
<circle cx="466.2" cy="299.7" r="4.2" fill="#2f6fed" fill-opacity="0.75"/>
<circle cx="453.7" cy="209.9" r="4.2" fill="#2f6fed" fill-opacity="0.75"/>
<circle cx="427.2" cy="207.1" r="4.2" fill="#2f6fed" fill-opacity="0.75"/>
<circle cx="460.2" cy="204.8" r="4.2" fill="#2f6fed" fill-opacity="0.75"/>
<circle cx="408.1" cy="146.5" r="4.2" fill="#2f6fed" fill-opacity="0.75"/>
<circle cx="518.9" cy="161.9" r="4.2" fill="#2f6fed" fill-opacity="0.75"/>
<circle cx="484.4" cy="170.1" r="4.2" fill="#2f6fed" fill-opacity="0.75"/>
<circle cx="372.0" cy="115.8" r="4.2" fill="#2f6fed" fill-opacity="0.75"/>
<circle cx="590.7" cy="137.5" r="4.2" fill="#2f6fed" fill-opacity="0.75"/>
<circle cx="510.0" cy="185.9" r="4.2" fill="#2f6fed" fill-opacity="0.75"/>
<circle cx="470.6" cy="185.7" r="4.2" fill="#2f6fed" fill-opacity="0.75"/>
<circle cx="720.0" cy="186.6" r="4.2" fill="#2f6fed" fill-opacity="0.75"/>
<circle cx="423.1" cy="115.8" r="4.2" fill="#2f6fed" fill-opacity="0.75"/>
<circle cx="442.6" cy="272.2" r="4.2" fill="#2f6fed" fill-opacity="0.75"/>
<circle cx="425.8" cy="160.4" r="4.2" fill="#2f6fed" fill-opacity="0.75"/>
<circle cx="524.7" cy="245.6" r="4.2" fill="#2f6fed" fill-opacity="0.75"/>
<circle cx="392.6" cy="148.5" r="4.2" fill="#2f6fed" fill-opacity="0.75"/>
<circle cx="416.8" cy="170.5" r="4.2" fill="#2f6fed" fill-opacity="0.75"/>
<circle cx="525.8" cy="218.6" r="4.2" fill="#2f6fed" fill-opacity="0.75"/>
<circle cx="431.6" cy="176.5" r="4.2" fill="#2f6fed" fill-opacity="0.75"/>
<circle cx="416.5" cy="146.3" r="4.2" fill="#2f6fed" fill-opacity="0.75"/>
<circle cx="443.0" cy="195.9" r="4.2" fill="#2f6fed" fill-opacity="0.75"/>
<circle cx="463.1" cy="52.1" r="4.2" fill="#2f6fed" fill-opacity="0.75"/>
<circle cx="495.4" cy="158.4" r="4.2" fill="#2f6fed" fill-opacity="0.75"/>
<circle cx="394.5" cy="139.0" r="4.2" fill="#2f6fed" fill-opacity="0.75"/>
<circle cx="437.5" cy="173.5" r="4.2" fill="#2f6fed" fill-opacity="0.75"/>
<circle cx="628.4" cy="174.1" r="4.2" fill="#2f6fed" fill-opacity="0.75"/>
<circle cx="389.0" cy="167.2" r="4.2" fill="#2f6fed" fill-opacity="0.75"/>
<circle cx="421.1" cy="94.0" r="4.2" fill="#2f6fed" fill-opacity="0.75"/>
<circle cx="523.1" cy="164.1" r="4.2" fill="#2f6fed" fill-opacity="0.75"/>
<circle cx="429.0" cy="223.1" r="4.2" fill="#2f6fed" fill-opacity="0.75"/>
<circle cx="438.3" cy="161.8" r="4.2" fill="#2f6fed" fill-opacity="0.75"/>
<circle cx="444.6" cy="154.7" r="4.2" fill="#2f6fed" fill-opacity="0.75"/>
<circle cx="464.0" cy="184.7" r="4.2" fill="#2f6fed" fill-opacity="0.75"/>
<circle cx="491.1" cy="260.4" r="4.2" fill="#2f6fed" fill-opacity="0.75"/>
<circle cx="504.7" cy="144.0" r="4.2" fill="#2f6fed" fill-opacity="0.75"/>
<circle cx="392.6" cy="134.4" r="4.2" fill="#2f6fed" fill-opacity="0.75"/>
<circle cx="431.5" cy="72.0" r="4.2" fill="#2f6fed" fill-opacity="0.75"/>
<circle cx="421.3" cy="130.6" r="4.2" fill="#2f6fed" fill-opacity="0.75"/>
<circle cx="398.8" cy="189.3" r="4.2" fill="#2f6fed" fill-opacity="0.75"/>
<circle cx="472.2" cy="51.7" r="4.2" fill="#2f6fed" fill-opacity="0.75"/>
<circle cx="526.5" cy="125.1" r="4.2" fill="#2f6fed" fill-opacity="0.75"/>
<circle cx="473.0" cy="214.8" r="4.2" fill="#2f6fed" fill-opacity="0.75"/>
<circle cx="518.7" cy="184.7" r="4.2" fill="#2f6fed" fill-opacity="0.75"/>
<circle cx="482.6" cy="129.9" r="4.2" fill="#2f6fed" fill-opacity="0.75"/>
<circle cx="465.4" cy="259.8" r="4.2" fill="#2f6fed" fill-opacity="0.75"/>
<circle cx="478.7" cy="211.4" r="4.2" fill="#2f6fed" fill-opacity="0.75"/>
<circle cx="423.0" cy="184.1" r="4.2" fill="#2f6fed" fill-opacity="0.75"/>
<circle cx="349.1" cy="303.5" r="4.2" fill="#2f6fed" fill-opacity="0.75"/>
<circle cx="455.3" cy="180.6" r="4.2" fill="#2f6fed" fill-opacity="0.75"/>
<circle cx="330.1" cy="151.0" r="4.2" fill="#2f6fed" fill-opacity="0.75"/>
<circle cx="483.3" cy="160.5" r="4.2" fill="#2f6fed" fill-opacity="0.75"/>
<circle cx="413.5" cy="169.6" r="4.2" fill="#2f6fed" fill-opacity="0.75"/>
<circle cx="439.1" cy="145.5" r="4.2" fill="#2f6fed" fill-opacity="0.75"/>
<circle cx="449.5" cy="150.3" r="4.2" fill="#2f6fed" fill-opacity="0.75"/>
<circle cx="428.4" cy="78.7" r="4.2" fill="#2f6fed" fill-opacity="0.75"/>
<circle cx="442.9" cy="204.4" r="4.2" fill="#2f6fed" fill-opacity="0.75"/>
<circle cx="387.9" cy="160.1" r="4.2" fill="#2f6fed" fill-opacity="0.75"/>
<circle cx="260.4" cy="139.1" r="4.2" fill="#2f6fed" fill-opacity="0.75"/>
<circle cx="549.5" cy="146.6" r="4.2" fill="#2f6fed" fill-opacity="0.75"/>
<circle cx="420.6" cy="220.9" r="4.2" fill="#2f6fed" fill-opacity="0.75"/>
<circle cx="460.5" cy="97.4" r="4.2" fill="#2f6fed" fill-opacity="0.75"/>
<circle cx="386.5" cy="180.2" r="4.2" fill="#2f6fed" fill-opacity="0.75"/>
<circle cx="481.1" cy="227.5" r="4.2" fill="#2f6fed" fill-opacity="0.75"/>
<circle cx="388.0" cy="54.9" r="4.2" fill="#2f6fed" fill-opacity="0.75"/>
<circle cx="379.9" cy="210.3" r="4.2" fill="#2f6fed" fill-opacity="0.75"/>
<circle cx="422.4" cy="151.9" r="4.2" fill="#2f6fed" fill-opacity="0.75"/>
<circle cx="314.1" cy="126.9" r="4.2" fill="#2f6fed" fill-opacity="0.75"/>
<circle cx="458.5" cy="232.0" r="4.2" fill="#2f6fed" fill-opacity="0.75"/>
<circle cx="399.9" cy="213.4" r="4.2" fill="#2f6fed" fill-opacity="0.75"/>
<circle cx="407.5" cy="159.2" r="4.2" fill="#2f6fed" fill-opacity="0.75"/>
<circle cx="407.7" cy="194.2" r="4.2" fill="#2f6fed" fill-opacity="0.75"/>
<circle cx="478.4" cy="179.6" r="4.2" fill="#2f6fed" fill-opacity="0.75"/>
<circle cx="380.4" cy="233.9" r="4.2" fill="#2f6fed" fill-opacity="0.75"/>
<circle cx="444.9" cy="183.7" r="4.2" fill="#2f6fed" fill-opacity="0.75"/>
<circle cx="491.7" cy="115.4" r="4.2" fill="#2f6fed" fill-opacity="0.75"/>
<circle cx="335.1" cy="470.0" r="4.2" fill="#2f6fed" fill-opacity="0.75"/>
<circle cx="460.8" cy="184.4" r="4.2" fill="#2f6fed" fill-opacity="0.75"/>
<circle cx="474.4" cy="207.9" r="4.2" fill="#2f6fed" fill-opacity="0.75"/>
<circle cx="408.0" cy="149.7" r="4.2" fill="#2f6fed" fill-opacity="0.75"/>
<circle cx="384.2" cy="200.4" r="4.2" fill="#2f6fed" fill-opacity="0.75"/>
<circle cx="433.0" cy="153.3" r="4.2" fill="#2f6fed" fill-opacity="0.75"/>
<circle cx="434.2" cy="194.2" r="4.2" fill="#2f6fed" fill-opacity="0.75"/>
<circle cx="419.5" cy="159.2" r="4.2" fill="#2f6fed" fill-opacity="0.75"/>
<circle cx="456.4" cy="192.4" r="4.2" fill="#2f6fed" fill-opacity="0.75"/>
<circle cx="517.1" cy="191.9" r="4.2" fill="#2f6fed" fill-opacity="0.75"/>
<circle cx="465.2" cy="127.7" r="4.2" fill="#2f6fed" fill-opacity="0.75"/>
<circle cx="425.1" cy="165.6" r="4.2" fill="#2f6fed" fill-opacity="0.75"/>
<circle cx="352.6" cy="352.8" r="4.2" fill="#2f6fed" fill-opacity="0.75"/>
<circle cx="536.9" cy="174.5" r="4.2" fill="#2f6fed" fill-opacity="0.75"/>
<circle cx="403.3" cy="199.9" r="4.2" fill="#2f6fed" fill-opacity="0.75"/>
<circle cx="439.0" cy="237.8" r="4.2" fill="#2f6fed" fill-opacity="0.75"/>
<circle cx="421.1" cy="182.6" r="4.2" fill="#ff7a00" fill-opacity="0.75"/>
<circle cx="426.5" cy="250.3" r="4.2" fill="#ff7a00" fill-opacity="0.75"/>
<circle cx="489.4" cy="267.8" r="4.2" fill="#ff7a00" fill-opacity="0.75"/>
<circle cx="413.8" cy="220.4" r="4.2" fill="#ff7a00" fill-opacity="0.75"/>
<circle cx="557.5" cy="235.7" r="4.2" fill="#ff7a00" fill-opacity="0.75"/>
<circle cx="415.9" cy="206.1" r="4.2" fill="#ff7a00" fill-opacity="0.75"/>
<circle cx="462.6" cy="327.0" r="4.2" fill="#ff7a00" fill-opacity="0.75"/>
<circle cx="474.0" cy="206.7" r="4.2" fill="#ff7a00" fill-opacity="0.75"/>
<circle cx="440.2" cy="180.5" r="4.2" fill="#ff7a00" fill-opacity="0.75"/>
<circle cx="457.3" cy="235.7" r="4.2" fill="#ff7a00" fill-opacity="0.75"/>
<circle cx="417.8" cy="206.8" r="4.2" fill="#ff7a00" fill-opacity="0.75"/>
<circle cx="430.4" cy="279.5" r="4.2" fill="#ff7a00" fill-opacity="0.75"/>
<circle cx="437.0" cy="295.7" r="4.2" fill="#ff7a00" fill-opacity="0.75"/>
<circle cx="420.6" cy="198.5" r="4.2" fill="#ff7a00" fill-opacity="0.75"/>
<circle cx="438.0" cy="309.8" r="4.2" fill="#ff7a00" fill-opacity="0.75"/>
<circle cx="444.3" cy="188.8" r="4.2" fill="#ff7a00" fill-opacity="0.75"/>
<circle cx="439.8" cy="324.6" r="4.2" fill="#ff7a00" fill-opacity="0.75"/>
<circle cx="413.0" cy="212.6" r="4.2" fill="#ff7a00" fill-opacity="0.75"/>
<circle cx="515.0" cy="214.5" r="4.2" fill="#ff7a00" fill-opacity="0.75"/>
<circle cx="466.5" cy="225.4" r="4.2" fill="#ff7a00" fill-opacity="0.75"/>
<circle cx="483.3" cy="240.5" r="4.2" fill="#ff7a00" fill-opacity="0.75"/>
<circle cx="535.4" cy="269.9" r="4.2" fill="#ff7a00" fill-opacity="0.75"/>
<circle cx="339.3" cy="239.5" r="4.2" fill="#ff7a00" fill-opacity="0.75"/>
<circle cx="404.5" cy="181.6" r="4.2" fill="#ff7a00" fill-opacity="0.75"/>
<circle cx="428.0" cy="216.9" r="4.2" fill="#ff7a00" fill-opacity="0.75"/>
<circle cx="432.8" cy="190.5" r="4.2" fill="#ff7a00" fill-opacity="0.75"/>
<circle cx="485.1" cy="186.6" r="4.2" fill="#ff7a00" fill-opacity="0.75"/>
<circle cx="450.1" cy="209.6" r="4.2" fill="#ff7a00" fill-opacity="0.75"/>
<circle cx="412.4" cy="232.9" r="4.2" fill="#ff7a00" fill-opacity="0.75"/>
<circle cx="416.3" cy="211.2" r="4.2" fill="#ff7a00" fill-opacity="0.75"/>
<circle cx="486.9" cy="285.5" r="4.2" fill="#ff7a00" fill-opacity="0.75"/>
<circle cx="477.0" cy="226.0" r="4.2" fill="#ff7a00" fill-opacity="0.75"/>
<circle cx="518.2" cy="262.8" r="4.2" fill="#ff7a00" fill-opacity="0.75"/>
<circle cx="505.9" cy="239.2" r="4.2" fill="#ff7a00" fill-opacity="0.75"/>
<circle cx="546.2" cy="178.1" r="4.2" fill="#ff7a00" fill-opacity="0.75"/>
<circle cx="417.8" cy="260.6" r="4.2" fill="#ff7a00" fill-opacity="0.75"/>
<circle cx="406.2" cy="215.3" r="4.2" fill="#ff7a00" fill-opacity="0.75"/>
<circle cx="438.0" cy="237.9" r="4.2" fill="#ff7a00" fill-opacity="0.75"/>
<circle cx="437.6" cy="198.3" r="4.2" fill="#ff7a00" fill-opacity="0.75"/>
<circle cx="491.4" cy="128.4" r="4.2" fill="#ff7a00" fill-opacity="0.75"/>
<circle cx="400.3" cy="191.5" r="4.2" fill="#ff7a00" fill-opacity="0.75"/>
<circle cx="444.7" cy="257.9" r="4.2" fill="#ff7a00" fill-opacity="0.75"/>
<circle cx="438.4" cy="217.8" r="4.2" fill="#ff7a00" fill-opacity="0.75"/>
<circle cx="403.6" cy="249.5" r="4.2" fill="#ff7a00" fill-opacity="0.75"/>
<circle cx="526.8" cy="242.9" r="4.2" fill="#ff7a00" fill-opacity="0.75"/>
<circle cx="356.4" cy="198.3" r="4.2" fill="#ff7a00" fill-opacity="0.75"/>
<circle cx="435.8" cy="209.2" r="4.2" fill="#ff7a00" fill-opacity="0.75"/>
<circle cx="437.5" cy="217.6" r="4.2" fill="#ff7a00" fill-opacity="0.75"/>
<circle cx="503.5" cy="232.1" r="4.2" fill="#ff7a00" fill-opacity="0.75"/>
<circle cx="460.5" cy="175.5" r="4.2" fill="#ff7a00" fill-opacity="0.75"/>
<circle cx="446.3" cy="203.4" r="4.2" fill="#ff7a00" fill-opacity="0.75"/>
<circle cx="417.3" cy="228.8" r="4.2" fill="#ff7a00" fill-opacity="0.75"/>
<circle cx="516.6" cy="163.4" r="4.2" fill="#ff7a00" fill-opacity="0.75"/>
<circle cx="446.9" cy="209.8" r="4.2" fill="#ff7a00" fill-opacity="0.75"/>
<circle cx="562.2" cy="206.8" r="4.2" fill="#ff7a00" fill-opacity="0.75"/>
<circle cx="423.2" cy="223.8" r="4.2" fill="#ff7a00" fill-opacity="0.75"/>
<circle cx="510.9" cy="182.6" r="4.2" fill="#ff7a00" fill-opacity="0.75"/>
<circle cx="452.1" cy="252.3" r="4.2" fill="#ff7a00" fill-opacity="0.75"/>
<circle cx="485.6" cy="205.7" r="4.2" fill="#ff7a00" fill-opacity="0.75"/>
<circle cx="410.5" cy="227.7" r="4.2" fill="#ff7a00" fill-opacity="0.75"/>
<circle cx="487.1" cy="198.4" r="4.2" fill="#ff7a00" fill-opacity="0.75"/>
<circle cx="541.4" cy="211.6" r="4.2" fill="#ff7a00" fill-opacity="0.75"/>
<circle cx="463.7" cy="239.3" r="4.2" fill="#ff7a00" fill-opacity="0.75"/>
<circle cx="516.1" cy="259.2" r="4.2" fill="#ff7a00" fill-opacity="0.75"/>
<circle cx="448.8" cy="273.2" r="4.2" fill="#ff7a00" fill-opacity="0.75"/>
<circle cx="540.8" cy="198.5" r="4.2" fill="#ff7a00" fill-opacity="0.75"/>
<circle cx="329.3" cy="220.7" r="4.2" fill="#ff7a00" fill-opacity="0.75"/>
<circle cx="543.7" cy="225.8" r="4.2" fill="#ff7a00" fill-opacity="0.75"/>
<circle cx="435.4" cy="263.0" r="4.2" fill="#ff7a00" fill-opacity="0.75"/>
<circle cx="318.7" cy="235.5" r="4.2" fill="#ff7a00" fill-opacity="0.75"/>
<circle cx="467.8" cy="241.3" r="4.2" fill="#ff7a00" fill-opacity="0.75"/>
<circle cx="540.4" cy="203.7" r="4.2" fill="#ff7a00" fill-opacity="0.75"/>
<circle cx="420.2" cy="210.7" r="4.2" fill="#ff7a00" fill-opacity="0.75"/>
<circle cx="451.7" cy="213.5" r="4.2" fill="#ff7a00" fill-opacity="0.75"/>
<circle cx="539.2" cy="212.5" r="4.2" fill="#ff7a00" fill-opacity="0.75"/>
<circle cx="505.7" cy="247.1" r="4.2" fill="#ff7a00" fill-opacity="0.75"/>
<circle cx="431.7" cy="243.4" r="4.2" fill="#ff7a00" fill-opacity="0.75"/>
<circle cx="569.5" cy="246.3" r="4.2" fill="#ff7a00" fill-opacity="0.75"/>
<circle cx="427.6" cy="233.5" r="4.2" fill="#ff7a00" fill-opacity="0.75"/>
<circle cx="384.6" cy="220.0" r="4.2" fill="#ff7a00" fill-opacity="0.75"/>
<circle cx="477.0" cy="158.5" r="4.2" fill="#ff7a00" fill-opacity="0.75"/>
<circle cx="381.4" cy="240.9" r="4.2" fill="#ff7a00" fill-opacity="0.75"/>
<circle cx="531.0" cy="234.2" r="4.2" fill="#ff7a00" fill-opacity="0.75"/>
<circle cx="397.0" cy="239.2" r="4.2" fill="#ff7a00" fill-opacity="0.75"/>
<circle cx="459.2" cy="295.6" r="4.2" fill="#ff7a00" fill-opacity="0.75"/>
<circle cx="544.3" cy="187.5" r="4.2" fill="#ff7a00" fill-opacity="0.75"/>
<circle cx="483.5" cy="240.8" r="4.2" fill="#ff7a00" fill-opacity="0.75"/>
<circle cx="434.4" cy="198.3" r="4.2" fill="#ff7a00" fill-opacity="0.75"/>
<circle cx="425.6" cy="405.8" r="4.2" fill="#ff7a00" fill-opacity="0.75"/>
<circle cx="388.0" cy="201.2" r="4.2" fill="#ff7a00" fill-opacity="0.75"/>
<circle cx="438.2" cy="211.2" r="4.2" fill="#ff7a00" fill-opacity="0.75"/>
<circle cx="468.1" cy="203.6" r="4.2" fill="#ff7a00" fill-opacity="0.75"/>
<circle cx="562.5" cy="238.3" r="4.2" fill="#ff7a00" fill-opacity="0.75"/>
<circle cx="536.7" cy="189.3" r="4.2" fill="#ff7a00" fill-opacity="0.75"/>
<circle cx="418.6" cy="247.7" r="4.2" fill="#ff7a00" fill-opacity="0.75"/>
<circle cx="446.7" cy="246.6" r="4.2" fill="#ff7a00" fill-opacity="0.75"/>
<circle cx="359.4" cy="243.3" r="4.2" fill="#ff7a00" fill-opacity="0.75"/>
<circle cx="551.0" cy="221.8" r="4.2" fill="#ff7a00" fill-opacity="0.75"/>
<circle cx="469.1" cy="222.8" r="4.2" fill="#ff7a00" fill-opacity="0.75"/>
<circle cx="430.6" cy="256.4" r="4.2" fill="#ff7a00" fill-opacity="0.75"/>
<circle cx="423.3" cy="143.0" r="4.2" fill="#1fa971" fill-opacity="0.75"/>
<circle cx="457.4" cy="114.3" r="4.2" fill="#1fa971" fill-opacity="0.75"/>
<circle cx="424.2" cy="130.9" r="4.2" fill="#1fa971" fill-opacity="0.75"/>
<circle cx="479.2" cy="222.0" r="4.2" fill="#1fa971" fill-opacity="0.75"/>
<circle cx="395.7" cy="152.1" r="4.2" fill="#1fa971" fill-opacity="0.75"/>
<circle cx="438.4" cy="209.4" r="4.2" fill="#1fa971" fill-opacity="0.75"/>
<circle cx="468.0" cy="238.8" r="4.2" fill="#1fa971" fill-opacity="0.75"/>
<circle cx="404.5" cy="200.5" r="4.2" fill="#1fa971" fill-opacity="0.75"/>
<circle cx="411.1" cy="155.1" r="4.2" fill="#1fa971" fill-opacity="0.75"/>
<circle cx="463.1" cy="203.2" r="4.2" fill="#1fa971" fill-opacity="0.75"/>
<circle cx="414.7" cy="186.5" r="4.2" fill="#1fa971" fill-opacity="0.75"/>
<circle cx="409.3" cy="156.5" r="4.2" fill="#1fa971" fill-opacity="0.75"/>
<circle cx="394.8" cy="183.4" r="4.2" fill="#1fa971" fill-opacity="0.75"/>
<circle cx="389.9" cy="198.4" r="4.2" fill="#1fa971" fill-opacity="0.75"/>
<circle cx="373.6" cy="150.9" r="4.2" fill="#1fa971" fill-opacity="0.75"/>
<circle cx="450.7" cy="189.1" r="4.2" fill="#1fa971" fill-opacity="0.75"/>
<circle cx="486.1" cy="174.0" r="4.2" fill="#1fa971" fill-opacity="0.75"/>
<circle cx="467.0" cy="122.3" r="4.2" fill="#1fa971" fill-opacity="0.75"/>
<circle cx="456.4" cy="194.3" r="4.2" fill="#1fa971" fill-opacity="0.75"/>
<circle cx="429.2" cy="161.7" r="4.2" fill="#1fa971" fill-opacity="0.75"/>
<circle cx="443.4" cy="153.7" r="4.2" fill="#1fa971" fill-opacity="0.75"/>
<circle cx="444.6" cy="83.3" r="4.2" fill="#1fa971" fill-opacity="0.75"/>
<circle cx="312.3" cy="157.8" r="4.2" fill="#1fa971" fill-opacity="0.75"/>
<circle cx="409.7" cy="179.5" r="4.2" fill="#1fa971" fill-opacity="0.75"/>
<circle cx="336.9" cy="140.1" r="4.2" fill="#1fa971" fill-opacity="0.75"/>
<circle cx="369.8" cy="72.7" r="4.2" fill="#1fa971" fill-opacity="0.75"/>
<circle cx="364.7" cy="196.3" r="4.2" fill="#1fa971" fill-opacity="0.75"/>
<circle cx="406.8" cy="144.1" r="4.2" fill="#1fa971" fill-opacity="0.75"/>
<circle cx="398.3" cy="190.2" r="4.2" fill="#1fa971" fill-opacity="0.75"/>
<circle cx="395.2" cy="133.8" r="4.2" fill="#1fa971" fill-opacity="0.75"/>
<circle cx="434.8" cy="159.3" r="4.2" fill="#1fa971" fill-opacity="0.75"/>
<circle cx="347.6" cy="145.8" r="4.2" fill="#1fa971" fill-opacity="0.75"/>
<circle cx="389.9" cy="188.6" r="4.2" fill="#1fa971" fill-opacity="0.75"/>
<circle cx="432.1" cy="199.5" r="4.2" fill="#1fa971" fill-opacity="0.75"/>
<circle cx="387.8" cy="186.1" r="4.2" fill="#1fa971" fill-opacity="0.75"/>
<circle cx="378.6" cy="205.6" r="4.2" fill="#1fa971" fill-opacity="0.75"/>
<circle cx="384.3" cy="183.2" r="4.2" fill="#1fa971" fill-opacity="0.75"/>
<circle cx="459.2" cy="206.4" r="4.2" fill="#1fa971" fill-opacity="0.75"/>
<circle cx="444.1" cy="329.7" r="4.2" fill="#1fa971" fill-opacity="0.75"/>
<circle cx="439.1" cy="179.9" r="4.2" fill="#1fa971" fill-opacity="0.75"/>
<circle cx="442.9" cy="192.9" r="4.2" fill="#1fa971" fill-opacity="0.75"/>
<circle cx="439.1" cy="146.5" r="4.2" fill="#1fa971" fill-opacity="0.75"/>
<circle cx="391.1" cy="142.0" r="4.2" fill="#1fa971" fill-opacity="0.75"/>
<circle cx="375.7" cy="155.1" r="4.2" fill="#1fa971" fill-opacity="0.75"/>
<circle cx="405.7" cy="153.5" r="4.2" fill="#1fa971" fill-opacity="0.75"/>
<circle cx="384.4" cy="119.8" r="4.2" fill="#1fa971" fill-opacity="0.75"/>
<circle cx="391.8" cy="175.9" r="4.2" fill="#1fa971" fill-opacity="0.75"/>
<circle cx="389.8" cy="155.4" r="4.2" fill="#1fa971" fill-opacity="0.75"/>
<circle cx="413.2" cy="176.5" r="4.2" fill="#1fa971" fill-opacity="0.75"/>
<circle cx="414.0" cy="189.7" r="4.2" fill="#1fa971" fill-opacity="0.75"/>
<circle cx="406.5" cy="219.3" r="4.2" fill="#1fa971" fill-opacity="0.75"/>
<circle cx="352.9" cy="192.8" r="4.2" fill="#1fa971" fill-opacity="0.75"/>
<circle cx="331.2" cy="136.2" r="4.2" fill="#1fa971" fill-opacity="0.75"/>
<circle cx="450.4" cy="194.4" r="4.2" fill="#1fa971" fill-opacity="0.75"/>
<circle cx="441.5" cy="168.6" r="4.2" fill="#1fa971" fill-opacity="0.75"/>
<circle cx="349.5" cy="181.9" r="4.2" fill="#1fa971" fill-opacity="0.75"/>
<circle cx="385.1" cy="174.9" r="4.2" fill="#1fa971" fill-opacity="0.75"/>
<circle cx="415.5" cy="165.9" r="4.2" fill="#1fa971" fill-opacity="0.75"/>
<circle cx="380.8" cy="193.8" r="4.2" fill="#1fa971" fill-opacity="0.75"/>
<circle cx="390.2" cy="239.2" r="4.2" fill="#1fa971" fill-opacity="0.75"/>
<circle cx="360.1" cy="50.0" r="4.2" fill="#1fa971" fill-opacity="0.75"/>
<circle cx="405.6" cy="214.1" r="4.2" fill="#1fa971" fill-opacity="0.75"/>
<circle cx="414.2" cy="257.2" r="4.2" fill="#1fa971" fill-opacity="0.75"/>
<circle cx="409.8" cy="133.0" r="4.2" fill="#1fa971" fill-opacity="0.75"/>
<circle cx="440.0" cy="172.1" r="4.2" fill="#1fa971" fill-opacity="0.75"/>
<circle cx="425.1" cy="173.6" r="4.2" fill="#1fa971" fill-opacity="0.75"/>
<circle cx="375.2" cy="191.3" r="4.2" fill="#1fa971" fill-opacity="0.75"/>
<circle cx="301.8" cy="209.0" r="4.2" fill="#1fa971" fill-opacity="0.75"/>
<circle cx="330.3" cy="210.5" r="4.2" fill="#1fa971" fill-opacity="0.75"/>
<circle cx="341.7" cy="223.9" r="4.2" fill="#1fa971" fill-opacity="0.75"/>
<circle cx="310.2" cy="211.4" r="4.2" fill="#1fa971" fill-opacity="0.75"/>
<circle cx="401.4" cy="216.3" r="4.2" fill="#1fa971" fill-opacity="0.75"/>
<circle cx="317.2" cy="193.4" r="4.2" fill="#1fa971" fill-opacity="0.75"/>
<circle cx="325.1" cy="193.6" r="4.2" fill="#1fa971" fill-opacity="0.75"/>
<circle cx="341.4" cy="203.4" r="4.2" fill="#1fa971" fill-opacity="0.75"/>
<circle cx="378.9" cy="195.1" r="4.2" fill="#1fa971" fill-opacity="0.75"/>
<circle cx="408.4" cy="227.0" r="4.2" fill="#1fa971" fill-opacity="0.75"/>
<circle cx="448.8" cy="202.7" r="4.2" fill="#1fa971" fill-opacity="0.75"/>
<circle cx="443.7" cy="205.1" r="4.2" fill="#1fa971" fill-opacity="0.75"/>
<circle cx="238.2" cy="197.7" r="4.2" fill="#1fa971" fill-opacity="0.75"/>
<circle cx="418.6" cy="178.1" r="4.2" fill="#1fa971" fill-opacity="0.75"/>
<circle cx="402.8" cy="207.0" r="4.2" fill="#1fa971" fill-opacity="0.75"/>
<circle cx="438.5" cy="170.3" r="4.2" fill="#1fa971" fill-opacity="0.75"/>
<circle cx="389.8" cy="201.1" r="4.2" fill="#1fa971" fill-opacity="0.75"/>
<circle cx="405.4" cy="171.2" r="4.2" fill="#1fa971" fill-opacity="0.75"/>
<circle cx="403.6" cy="178.6" r="4.2" fill="#1fa971" fill-opacity="0.75"/>
<circle cx="370.4" cy="168.4" r="4.2" fill="#1fa971" fill-opacity="0.75"/>
<circle cx="335.2" cy="194.3" r="4.2" fill="#1fa971" fill-opacity="0.75"/>
<circle cx="433.4" cy="226.0" r="4.2" fill="#1fa971" fill-opacity="0.75"/>
<circle cx="435.0" cy="206.7" r="4.2" fill="#1fa971" fill-opacity="0.75"/>
<circle cx="324.6" cy="173.0" r="4.2" fill="#1fa971" fill-opacity="0.75"/>
<circle cx="379.2" cy="220.3" r="4.2" fill="#1fa971" fill-opacity="0.75"/>
<circle cx="367.3" cy="204.2" r="4.2" fill="#1fa971" fill-opacity="0.75"/>
<circle cx="436.9" cy="193.6" r="4.2" fill="#1fa971" fill-opacity="0.75"/>
<circle cx="349.0" cy="141.0" r="4.2" fill="#1fa971" fill-opacity="0.75"/>
<circle cx="415.6" cy="192.0" r="4.2" fill="#1fa971" fill-opacity="0.75"/>
<circle cx="354.0" cy="152.5" r="4.2" fill="#1fa971" fill-opacity="0.75"/>
<circle cx="305.8" cy="172.3" r="4.2" fill="#1fa971" fill-opacity="0.75"/>
<circle cx="439.9" cy="251.0" r="4.2" fill="#1fa971" fill-opacity="0.75"/>
<circle cx="362.0" cy="167.0" r="4.2" fill="#1fa971" fill-opacity="0.75"/>
<circle cx="441.7" cy="195.8" r="4.2" fill="#a046f2" fill-opacity="0.75"/>
<circle cx="441.7" cy="195.3" r="4.2" fill="#a046f2" fill-opacity="0.75"/>
<circle cx="415.8" cy="166.8" r="4.2" fill="#a046f2" fill-opacity="0.75"/>
<circle cx="416.4" cy="175.4" r="4.2" fill="#a046f2" fill-opacity="0.75"/>
<circle cx="462.3" cy="228.7" r="4.2" fill="#a046f2" fill-opacity="0.75"/>
<circle cx="461.7" cy="227.1" r="4.2" fill="#a046f2" fill-opacity="0.75"/>
<circle cx="408.0" cy="194.5" r="4.2" fill="#a046f2" fill-opacity="0.75"/>
<circle cx="407.8" cy="192.7" r="4.2" fill="#a046f2" fill-opacity="0.75"/>
<circle cx="443.9" cy="237.3" r="4.2" fill="#a046f2" fill-opacity="0.75"/>
<circle cx="443.7" cy="237.3" r="4.2" fill="#a046f2" fill-opacity="0.75"/>
<circle cx="444.0" cy="226.0" r="4.2" fill="#a046f2" fill-opacity="0.75"/>
<circle cx="443.8" cy="226.9" r="4.2" fill="#a046f2" fill-opacity="0.75"/>
<circle cx="419.6" cy="177.0" r="4.2" fill="#a046f2" fill-opacity="0.75"/>
<circle cx="419.0" cy="176.0" r="4.2" fill="#a046f2" fill-opacity="0.75"/>
<circle cx="422.1" cy="200.0" r="4.2" fill="#a046f2" fill-opacity="0.75"/>
<circle cx="421.9" cy="199.1" r="4.2" fill="#a046f2" fill-opacity="0.75"/>
<circle cx="419.1" cy="210.0" r="4.2" fill="#a046f2" fill-opacity="0.75"/>
<circle cx="418.9" cy="209.9" r="4.2" fill="#a046f2" fill-opacity="0.75"/>
<circle cx="409.6" cy="201.3" r="4.2" fill="#a046f2" fill-opacity="0.75"/>
<circle cx="409.2" cy="201.5" r="4.2" fill="#a046f2" fill-opacity="0.75"/>
<circle cx="356.7" cy="217.1" r="4.2" fill="#a046f2" fill-opacity="0.75"/>
<circle cx="356.9" cy="219.0" r="4.2" fill="#a046f2" fill-opacity="0.75"/>
<circle cx="347.5" cy="322.1" r="4.2" fill="#a046f2" fill-opacity="0.75"/>
<circle cx="348.3" cy="319.2" r="4.2" fill="#a046f2" fill-opacity="0.75"/>
<circle cx="449.5" cy="206.0" r="4.2" fill="#a046f2" fill-opacity="0.75"/>
<circle cx="448.6" cy="204.9" r="4.2" fill="#a046f2" fill-opacity="0.75"/>
<circle cx="484.7" cy="130.4" r="4.2" fill="#a046f2" fill-opacity="0.75"/>
<circle cx="484.3" cy="128.5" r="4.2" fill="#a046f2" fill-opacity="0.75"/>
<circle cx="424.4" cy="240.6" r="4.2" fill="#a046f2" fill-opacity="0.75"/>
<circle cx="424.5" cy="244.1" r="4.2" fill="#a046f2" fill-opacity="0.75"/>
<circle cx="434.1" cy="211.6" r="4.2" fill="#a046f2" fill-opacity="0.75"/>
<circle cx="434.0" cy="218.5" r="4.2" fill="#a046f2" fill-opacity="0.75"/>
<circle cx="390.4" cy="201.9" r="4.2" fill="#a046f2" fill-opacity="0.75"/>
<circle cx="390.4" cy="199.3" r="4.2" fill="#a046f2" fill-opacity="0.75"/>
<circle cx="394.2" cy="89.2" r="4.2" fill="#a046f2" fill-opacity="0.75"/>
<circle cx="394.1" cy="95.1" r="4.2" fill="#a046f2" fill-opacity="0.75"/>
<circle cx="425.0" cy="199.4" r="4.2" fill="#a046f2" fill-opacity="0.75"/>
<circle cx="424.9" cy="198.5" r="4.2" fill="#a046f2" fill-opacity="0.75"/>
<circle cx="314.0" cy="128.3" r="4.2" fill="#a046f2" fill-opacity="0.75"/>
<circle cx="312.8" cy="126.7" r="4.2" fill="#a046f2" fill-opacity="0.75"/>
<circle cx="412.5" cy="213.5" r="4.2" fill="#a046f2" fill-opacity="0.75"/>
<circle cx="412.3" cy="214.3" r="4.2" fill="#a046f2" fill-opacity="0.75"/>
<circle cx="466.3" cy="181.4" r="4.2" fill="#a046f2" fill-opacity="0.75"/>
<circle cx="465.6" cy="187.4" r="4.2" fill="#a046f2" fill-opacity="0.75"/>
<circle cx="431.3" cy="216.1" r="4.2" fill="#a046f2" fill-opacity="0.75"/>
<circle cx="430.9" cy="212.8" r="4.2" fill="#a046f2" fill-opacity="0.75"/>
<circle cx="443.5" cy="244.2" r="4.2" fill="#a046f2" fill-opacity="0.75"/>
<circle cx="443.7" cy="243.4" r="4.2" fill="#a046f2" fill-opacity="0.75"/>
<circle cx="411.8" cy="249.9" r="4.2" fill="#a046f2" fill-opacity="0.75"/>
<circle cx="411.4" cy="249.5" r="4.2" fill="#a046f2" fill-opacity="0.75"/>
<circle cx="413.0" cy="177.9" r="4.2" fill="#a046f2" fill-opacity="0.75"/>
<circle cx="412.6" cy="177.7" r="4.2" fill="#a046f2" fill-opacity="0.75"/>
<circle cx="394.0" cy="259.1" r="4.2" fill="#a046f2" fill-opacity="0.75"/>
<circle cx="393.9" cy="258.9" r="4.2" fill="#a046f2" fill-opacity="0.75"/>
<circle cx="401.5" cy="191.3" r="4.2" fill="#a046f2" fill-opacity="0.75"/>
<circle cx="401.9" cy="191.3" r="4.2" fill="#a046f2" fill-opacity="0.75"/>
<circle cx="473.9" cy="199.0" r="4.2" fill="#a046f2" fill-opacity="0.75"/>
<circle cx="474.1" cy="199.0" r="4.2" fill="#a046f2" fill-opacity="0.75"/>
<circle cx="489.6" cy="210.7" r="4.2" fill="#a046f2" fill-opacity="0.75"/>
<circle cx="488.1" cy="204.3" r="4.2" fill="#a046f2" fill-opacity="0.75"/>
<circle cx="432.3" cy="190.4" r="4.2" fill="#a046f2" fill-opacity="0.75"/>
<circle cx="431.9" cy="189.5" r="4.2" fill="#a046f2" fill-opacity="0.75"/>
<circle cx="420.5" cy="179.4" r="4.2" fill="#a046f2" fill-opacity="0.75"/>
<circle cx="420.2" cy="178.3" r="4.2" fill="#a046f2" fill-opacity="0.75"/>
<circle cx="440.8" cy="156.0" r="4.2" fill="#a046f2" fill-opacity="0.75"/>
<circle cx="442.4" cy="155.9" r="4.2" fill="#a046f2" fill-opacity="0.75"/>
<circle cx="408.8" cy="183.1" r="4.2" fill="#a046f2" fill-opacity="0.75"/>
<circle cx="408.6" cy="181.2" r="4.2" fill="#a046f2" fill-opacity="0.75"/>
<circle cx="418.0" cy="182.4" r="4.2" fill="#a046f2" fill-opacity="0.75"/>
<circle cx="419.2" cy="185.0" r="4.2" fill="#a046f2" fill-opacity="0.75"/>
<circle cx="402.1" cy="165.6" r="4.2" fill="#a046f2" fill-opacity="0.75"/>
<circle cx="402.2" cy="165.9" r="4.2" fill="#a046f2" fill-opacity="0.75"/>
<circle cx="427.6" cy="163.6" r="4.2" fill="#a046f2" fill-opacity="0.75"/>
<circle cx="427.7" cy="162.4" r="4.2" fill="#a046f2" fill-opacity="0.75"/>
<circle cx="441.5" cy="223.2" r="4.2" fill="#a046f2" fill-opacity="0.75"/>
<circle cx="441.1" cy="222.0" r="4.2" fill="#a046f2" fill-opacity="0.75"/>
<circle cx="392.5" cy="199.8" r="4.2" fill="#a046f2" fill-opacity="0.75"/>
<circle cx="392.7" cy="205.1" r="4.2" fill="#a046f2" fill-opacity="0.75"/>
<circle cx="401.5" cy="195.4" r="4.2" fill="#a046f2" fill-opacity="0.75"/>
<circle cx="401.5" cy="199.3" r="4.2" fill="#a046f2" fill-opacity="0.75"/>
<circle cx="414.1" cy="169.1" r="4.2" fill="#a046f2" fill-opacity="0.75"/>
<circle cx="414.3" cy="170.8" r="4.2" fill="#a046f2" fill-opacity="0.75"/>
<circle cx="390.9" cy="133.9" r="4.2" fill="#a046f2" fill-opacity="0.75"/>
<circle cx="390.7" cy="135.4" r="4.2" fill="#a046f2" fill-opacity="0.75"/>
<circle cx="330.1" cy="166.3" r="4.2" fill="#a046f2" fill-opacity="0.75"/>
<circle cx="330.3" cy="171.9" r="4.2" fill="#a046f2" fill-opacity="0.75"/>
<circle cx="447.8" cy="155.7" r="4.2" fill="#a046f2" fill-opacity="0.75"/>
<circle cx="447.8" cy="155.6" r="4.2" fill="#a046f2" fill-opacity="0.75"/>
<circle cx="444.8" cy="169.5" r="4.2" fill="#a046f2" fill-opacity="0.75"/>
<circle cx="445.2" cy="168.6" r="4.2" fill="#a046f2" fill-opacity="0.75"/>
<circle cx="518.1" cy="199.6" r="4.2" fill="#a046f2" fill-opacity="0.75"/>
<circle cx="518.3" cy="200.7" r="4.2" fill="#a046f2" fill-opacity="0.75"/>
<circle cx="416.1" cy="199.4" r="4.2" fill="#a046f2" fill-opacity="0.75"/>
<circle cx="416.3" cy="198.4" r="4.2" fill="#a046f2" fill-opacity="0.75"/>
<circle cx="372.0" cy="200.7" r="4.2" fill="#a046f2" fill-opacity="0.75"/>
<circle cx="372.5" cy="202.6" r="4.2" fill="#a046f2" fill-opacity="0.75"/>
<circle cx="383.0" cy="194.9" r="4.2" fill="#a046f2" fill-opacity="0.75"/>
<circle cx="382.9" cy="194.8" r="4.2" fill="#a046f2" fill-opacity="0.75"/>
<circle cx="433.9" cy="169.8" r="4.2" fill="#a046f2" fill-opacity="0.75"/>
<circle cx="433.9" cy="171.7" r="4.2" fill="#a046f2" fill-opacity="0.75"/>
<circle cx="470.5" cy="244.9" r="4.2" fill="#d64545" fill-opacity="0.75"/>
<circle cx="470.3" cy="244.2" r="4.2" fill="#d64545" fill-opacity="0.75"/>
<circle cx="429.4" cy="230.7" r="4.2" fill="#d64545" fill-opacity="0.75"/>
<circle cx="429.4" cy="229.0" r="4.2" fill="#d64545" fill-opacity="0.75"/>
<circle cx="508.0" cy="195.8" r="4.2" fill="#d64545" fill-opacity="0.75"/>
<circle cx="509.2" cy="194.7" r="4.2" fill="#d64545" fill-opacity="0.75"/>
<circle cx="409.3" cy="208.7" r="4.2" fill="#d64545" fill-opacity="0.75"/>
<circle cx="409.8" cy="210.1" r="4.2" fill="#d64545" fill-opacity="0.75"/>
<circle cx="442.5" cy="219.9" r="4.2" fill="#d64545" fill-opacity="0.75"/>
<circle cx="442.1" cy="215.4" r="4.2" fill="#d64545" fill-opacity="0.75"/>
<circle cx="410.8" cy="212.6" r="4.2" fill="#d64545" fill-opacity="0.75"/>
<circle cx="410.9" cy="212.6" r="4.2" fill="#d64545" fill-opacity="0.75"/>
<circle cx="331.0" cy="183.5" r="4.2" fill="#d64545" fill-opacity="0.75"/>
<circle cx="332.5" cy="182.2" r="4.2" fill="#d64545" fill-opacity="0.75"/>
<circle cx="255.0" cy="237.1" r="4.2" fill="#d64545" fill-opacity="0.75"/>
<circle cx="255.1" cy="240.3" r="4.2" fill="#d64545" fill-opacity="0.75"/>
<circle cx="579.3" cy="171.9" r="4.2" fill="#d64545" fill-opacity="0.75"/>
<circle cx="579.0" cy="172.3" r="4.2" fill="#d64545" fill-opacity="0.75"/>
<circle cx="70.0" cy="250.0" r="4.2" fill="#d64545" fill-opacity="0.75"/>
<circle cx="70.2" cy="246.4" r="4.2" fill="#d64545" fill-opacity="0.75"/>
<circle cx="532.1" cy="207.9" r="4.2" fill="#d64545" fill-opacity="0.75"/>
<circle cx="532.7" cy="207.0" r="4.2" fill="#d64545" fill-opacity="0.75"/>
<circle cx="457.9" cy="224.7" r="4.2" fill="#d64545" fill-opacity="0.75"/>
<circle cx="458.4" cy="226.3" r="4.2" fill="#d64545" fill-opacity="0.75"/>
<circle cx="389.7" cy="177.5" r="4.2" fill="#d64545" fill-opacity="0.75"/>
<circle cx="389.9" cy="176.4" r="4.2" fill="#d64545" fill-opacity="0.75"/>
<circle cx="434.4" cy="265.0" r="4.2" fill="#d64545" fill-opacity="0.75"/>
<circle cx="435.0" cy="265.9" r="4.2" fill="#d64545" fill-opacity="0.75"/>
<circle cx="475.3" cy="184.2" r="4.2" fill="#d64545" fill-opacity="0.75"/>
<circle cx="475.4" cy="181.2" r="4.2" fill="#d64545" fill-opacity="0.75"/>
<circle cx="387.4" cy="256.1" r="4.2" fill="#d64545" fill-opacity="0.75"/>
<circle cx="388.2" cy="249.6" r="4.2" fill="#d64545" fill-opacity="0.75"/>
<circle cx="447.1" cy="194.1" r="4.2" fill="#d64545" fill-opacity="0.75"/>
<circle cx="447.1" cy="193.1" r="4.2" fill="#d64545" fill-opacity="0.75"/>
<circle cx="503.8" cy="149.5" r="4.2" fill="#d64545" fill-opacity="0.75"/>
<circle cx="503.6" cy="152.0" r="4.2" fill="#d64545" fill-opacity="0.75"/>
<circle cx="397.2" cy="190.7" r="4.2" fill="#d64545" fill-opacity="0.75"/>
<circle cx="397.5" cy="191.0" r="4.2" fill="#d64545" fill-opacity="0.75"/>
<circle cx="417.3" cy="203.8" r="4.2" fill="#d64545" fill-opacity="0.75"/>
<circle cx="417.0" cy="199.4" r="4.2" fill="#d64545" fill-opacity="0.75"/>
<circle cx="409.3" cy="228.9" r="4.2" fill="#d64545" fill-opacity="0.75"/>
<circle cx="409.0" cy="224.7" r="4.2" fill="#d64545" fill-opacity="0.75"/>
<circle cx="458.0" cy="191.0" r="4.2" fill="#d64545" fill-opacity="0.75"/>
<circle cx="457.8" cy="190.8" r="4.2" fill="#d64545" fill-opacity="0.75"/>
<circle cx="460.8" cy="199.8" r="4.2" fill="#d64545" fill-opacity="0.75"/>
<circle cx="461.2" cy="194.2" r="4.2" fill="#d64545" fill-opacity="0.75"/>
<circle cx="413.2" cy="176.0" r="4.2" fill="#d64545" fill-opacity="0.75"/>
<circle cx="413.2" cy="175.2" r="4.2" fill="#d64545" fill-opacity="0.75"/>
<circle cx="557.1" cy="230.4" r="4.2" fill="#d64545" fill-opacity="0.75"/>
<circle cx="556.0" cy="231.3" r="4.2" fill="#d64545" fill-opacity="0.75"/>
<circle cx="427.2" cy="219.1" r="4.2" fill="#d64545" fill-opacity="0.75"/>
<circle cx="427.5" cy="218.0" r="4.2" fill="#d64545" fill-opacity="0.75"/>
<circle cx="464.7" cy="214.0" r="4.2" fill="#d64545" fill-opacity="0.75"/>
<circle cx="465.3" cy="215.0" r="4.2" fill="#d64545" fill-opacity="0.75"/>
<circle cx="438.8" cy="219.8" r="4.2" fill="#d64545" fill-opacity="0.75"/>
<circle cx="439.2" cy="218.5" r="4.2" fill="#d64545" fill-opacity="0.75"/>
<circle cx="440.1" cy="230.6" r="4.2" fill="#d64545" fill-opacity="0.75"/>
<circle cx="440.2" cy="230.7" r="4.2" fill="#d64545" fill-opacity="0.75"/>
<circle cx="428.4" cy="205.1" r="4.2" fill="#d64545" fill-opacity="0.75"/>
<circle cx="428.6" cy="203.7" r="4.2" fill="#d64545" fill-opacity="0.75"/>
<circle cx="387.8" cy="213.6" r="4.2" fill="#d64545" fill-opacity="0.75"/>
<circle cx="388.0" cy="213.1" r="4.2" fill="#d64545" fill-opacity="0.75"/>
<circle cx="453.5" cy="176.0" r="4.2" fill="#d64545" fill-opacity="0.75"/>
<circle cx="453.0" cy="175.1" r="4.2" fill="#d64545" fill-opacity="0.75"/>
<circle cx="396.7" cy="211.7" r="4.2" fill="#d64545" fill-opacity="0.75"/>
<circle cx="396.5" cy="210.5" r="4.2" fill="#d64545" fill-opacity="0.75"/>
<circle cx="452.2" cy="182.7" r="4.2" fill="#d64545" fill-opacity="0.75"/>
<circle cx="452.6" cy="180.7" r="4.2" fill="#d64545" fill-opacity="0.75"/>
<circle cx="462.6" cy="176.0" r="4.2" fill="#d64545" fill-opacity="0.75"/>
<circle cx="462.9" cy="177.7" r="4.2" fill="#d64545" fill-opacity="0.75"/>
<circle cx="436.7" cy="189.9" r="4.2" fill="#d64545" fill-opacity="0.75"/>
<circle cx="436.6" cy="190.7" r="4.2" fill="#d64545" fill-opacity="0.75"/>
<circle cx="378.4" cy="191.9" r="4.2" fill="#d64545" fill-opacity="0.75"/>
<circle cx="378.5" cy="192.3" r="4.2" fill="#d64545" fill-opacity="0.75"/>
<circle cx="413.6" cy="226.1" r="4.2" fill="#d64545" fill-opacity="0.75"/>
<circle cx="413.7" cy="226.9" r="4.2" fill="#d64545" fill-opacity="0.75"/>
<circle cx="384.7" cy="223.7" r="4.2" fill="#d64545" fill-opacity="0.75"/>
<circle cx="385.4" cy="222.3" r="4.2" fill="#d64545" fill-opacity="0.75"/>
<circle cx="455.5" cy="191.5" r="4.2" fill="#d64545" fill-opacity="0.75"/>
<circle cx="455.0" cy="192.5" r="4.2" fill="#d64545" fill-opacity="0.75"/>
<circle cx="478.5" cy="144.1" r="4.2" fill="#d64545" fill-opacity="0.75"/>
<circle cx="478.6" cy="138.2" r="4.2" fill="#d64545" fill-opacity="0.75"/>
<circle cx="473.7" cy="159.1" r="4.2" fill="#d64545" fill-opacity="0.75"/>
<circle cx="473.0" cy="157.0" r="4.2" fill="#d64545" fill-opacity="0.75"/>
<circle cx="443.9" cy="183.4" r="4.2" fill="#d64545" fill-opacity="0.75"/>
<circle cx="442.1" cy="181.2" r="4.2" fill="#d64545" fill-opacity="0.75"/>
<circle cx="459.9" cy="178.1" r="4.2" fill="#d64545" fill-opacity="0.75"/>
<circle cx="460.2" cy="180.2" r="4.2" fill="#d64545" fill-opacity="0.75"/>
<circle cx="437.7" cy="177.4" r="4.2" fill="#d64545" fill-opacity="0.75"/>
<circle cx="437.6" cy="178.4" r="4.2" fill="#d64545" fill-opacity="0.75"/>
<circle cx="369.3" cy="231.5" r="4.2" fill="#d64545" fill-opacity="0.75"/>
<circle cx="368.5" cy="231.6" r="4.2" fill="#d64545" fill-opacity="0.75"/>
<circle cx="441.9" cy="225.7" r="4.2" fill="#d64545" fill-opacity="0.75"/>
<circle cx="442.6" cy="225.1" r="4.2" fill="#d64545" fill-opacity="0.75"/>
<circle cx="443.2" cy="237.6" r="4.2" fill="#d64545" fill-opacity="0.75"/>
<circle cx="442.6" cy="235.3" r="4.2" fill="#d64545" fill-opacity="0.75"/>
<circle cx="484.9" cy="169.7" r="4.2" fill="#d64545" fill-opacity="0.75"/>
<circle cx="484.6" cy="169.5" r="4.2" fill="#d64545" fill-opacity="0.75"/>
<circle cx="468.0" cy="203.9" r="4.2" fill="#d64545" fill-opacity="0.75"/>
<circle cx="467.6" cy="202.2" r="4.2" fill="#d64545" fill-opacity="0.75"/>
<rect x="750" y="60" width="14" height="14" fill="#2f6fed"/>
<text x="770" y="72" font-size="14" font-family="Arial">photo</text>
<rect x="750" y="84" width="14" height="14" fill="#ff7a00"/>
<text x="770" y="96" font-size="14" font-family="Arial">Hayao</text>
<rect x="750" y="108" width="14" height="14" fill="#1fa971"/>
<text x="770" y="120" font-size="14" font-family="Arial">monet</text>
<rect x="750" y="132" width="14" height="14" fill="#a046f2"/>
<text x="770" y="144" font-size="14" font-family="Arial">vangogh</text>
<rect x="750" y="156" width="14" height="14" fill="#d64545"/>
<text x="770" y="168" font-size="14" font-family="Arial">cezanne</text>
</svg>