<svg xmlns="http://www.w3.org/2000/svg" width="900" height="520" viewBox="0 0 900 520">
<rect width="100%" height="100%" fill="white"/>
<text x="450.0" y="28" text-anchor="middle" font-size="22" font-family="Arial">MDS Scatter: raw_mse</text>
<rect x="70" y="50" width="650" height="420" fill="none" stroke="black"/>
<circle cx="429.3" cy="317.3" r="4.2" fill="#2f6fed" fill-opacity="0.75"/>
<circle cx="230.0" cy="360.9" r="4.2" fill="#2f6fed" fill-opacity="0.75"/>
<circle cx="388.4" cy="241.0" r="4.2" fill="#2f6fed" fill-opacity="0.75"/>
<circle cx="388.8" cy="283.4" r="4.2" fill="#2f6fed" fill-opacity="0.75"/>
<circle cx="246.3" cy="321.3" r="4.2" fill="#2f6fed" fill-opacity="0.75"/>
<circle cx="343.9" cy="263.0" r="4.2" fill="#2f6fed" fill-opacity="0.75"/>
<circle cx="319.4" cy="266.0" r="4.2" fill="#2f6fed" fill-opacity="0.75"/>
<circle cx="485.2" cy="283.8" r="4.2" fill="#2f6fed" fill-opacity="0.75"/>
<circle cx="529.2" cy="334.0" r="4.2" fill="#2f6fed" fill-opacity="0.75"/>
<circle cx="424.3" cy="415.1" r="4.2" fill="#2f6fed" fill-opacity="0.75"/>
<circle cx="362.5" cy="310.4" r="4.2" fill="#2f6fed" fill-opacity="0.75"/>
<circle cx="462.2" cy="371.2" r="4.2" fill="#2f6fed" fill-opacity="0.75"/>
<circle cx="297.1" cy="385.7" r="4.2" fill="#2f6fed" fill-opacity="0.75"/>
<circle cx="344.0" cy="354.6" r="4.2" fill="#2f6fed" fill-opacity="0.75"/>
<circle cx="309.0" cy="332.9" r="4.2" fill="#2f6fed" fill-opacity="0.75"/>
<circle cx="128.4" cy="465.3" r="4.2" fill="#2f6fed" fill-opacity="0.75"/>
<circle cx="288.7" cy="277.0" r="4.2" fill="#2f6fed" fill-opacity="0.75"/>
<circle cx="339.7" cy="262.6" r="4.2" fill="#2f6fed" fill-opacity="0.75"/>
<circle cx="342.1" cy="310.8" r="4.2" fill="#2f6fed" fill-opacity="0.75"/>
<circle cx="348.3" cy="311.5" r="4.2" fill="#2f6fed" fill-opacity="0.75"/>
<circle cx="295.0" cy="414.4" r="4.2" fill="#2f6fed" fill-opacity="0.75"/>
<circle cx="426.4" cy="287.1" r="4.2" fill="#2f6fed" fill-opacity="0.75"/>
<circle cx="258.4" cy="274.6" r="4.2" fill="#2f6fed" fill-opacity="0.75"/>
<circle cx="379.0" cy="208.7" r="4.2" fill="#2f6fed" fill-opacity="0.75"/>
<circle cx="345.9" cy="334.5" r="4.2" fill="#2f6fed" fill-opacity="0.75"/>
<circle cx="348.0" cy="303.1" r="4.2" fill="#2f6fed" fill-opacity="0.75"/>
<circle cx="375.3" cy="279.0" r="4.2" fill="#2f6fed" fill-opacity="0.75"/>
<circle cx="352.8" cy="199.7" r="4.2" fill="#2f6fed" fill-opacity="0.75"/>
<circle cx="271.9" cy="229.2" r="4.2" fill="#2f6fed" fill-opacity="0.75"/>
<circle cx="450.5" cy="361.0" r="4.2" fill="#2f6fed" fill-opacity="0.75"/>
<circle cx="138.0" cy="345.9" r="4.2" fill="#2f6fed" fill-opacity="0.75"/>
<circle cx="364.0" cy="347.7" r="4.2" fill="#2f6fed" fill-opacity="0.75"/>
<circle cx="295.7" cy="345.8" r="4.2" fill="#2f6fed" fill-opacity="0.75"/>
<circle cx="293.9" cy="272.2" r="4.2" fill="#2f6fed" fill-opacity="0.75"/>
<circle cx="304.2" cy="327.7" r="4.2" fill="#2f6fed" fill-opacity="0.75"/>
<circle cx="307.0" cy="273.4" r="4.2" fill="#2f6fed" fill-opacity="0.75"/>
<circle cx="207.4" cy="152.0" r="4.2" fill="#2f6fed" fill-opacity="0.75"/>
<circle cx="263.5" cy="290.9" r="4.2" fill="#2f6fed" fill-opacity="0.75"/>
<circle cx="313.7" cy="317.6" r="4.2" fill="#2f6fed" fill-opacity="0.75"/>
<circle cx="447.9" cy="424.0" r="4.2" fill="#2f6fed" fill-opacity="0.75"/>
<circle cx="279.0" cy="283.0" r="4.2" fill="#2f6fed" fill-opacity="0.75"/>
<circle cx="399.9" cy="345.1" r="4.2" fill="#2f6fed" fill-opacity="0.75"/>
<circle cx="419.9" cy="345.2" r="4.2" fill="#2f6fed" fill-opacity="0.75"/>
<circle cx="310.8" cy="310.8" r="4.2" fill="#2f6fed" fill-opacity="0.75"/>
<circle cx="332.7" cy="209.5" r="4.2" fill="#2f6fed" fill-opacity="0.75"/>
<circle cx="235.6" cy="335.9" r="4.2" fill="#2f6fed" fill-opacity="0.75"/>
<circle cx="249.3" cy="345.2" r="4.2" fill="#2f6fed" fill-opacity="0.75"/>
<circle cx="417.0" cy="345.6" r="4.2" fill="#2f6fed" fill-opacity="0.75"/>
<circle cx="135.7" cy="413.5" r="4.2" fill="#2f6fed" fill-opacity="0.75"/>
<circle cx="297.7" cy="404.2" r="4.2" fill="#2f6fed" fill-opacity="0.75"/>
<circle cx="359.4" cy="283.4" r="4.2" fill="#2f6fed" fill-opacity="0.75"/>
<circle cx="293.1" cy="268.2" r="4.2" fill="#2f6fed" fill-opacity="0.75"/>
<circle cx="277.7" cy="242.5" r="4.2" fill="#2f6fed" fill-opacity="0.75"/>
<circle cx="369.3" cy="223.7" r="4.2" fill="#2f6fed" fill-opacity="0.75"/>
<circle cx="399.9" cy="261.6" r="4.2" fill="#2f6fed" fill-opacity="0.75"/>
<circle cx="348.4" cy="308.3" r="4.2" fill="#2f6fed" fill-opacity="0.75"/>
<circle cx="413.9" cy="317.0" r="4.2" fill="#2f6fed" fill-opacity="0.75"/>
<circle cx="374.0" cy="309.7" r="4.2" fill="#2f6fed" fill-opacity="0.75"/>
<circle cx="294.4" cy="325.0" r="4.2" fill="#2f6fed" fill-opacity="0.75"/>
<circle cx="328.5" cy="356.4" r="4.2" fill="#2f6fed" fill-opacity="0.75"/>
<circle cx="228.7" cy="351.7" r="4.2" fill="#2f6fed" fill-opacity="0.75"/>
<circle cx="343.6" cy="325.7" r="4.2" fill="#2f6fed" fill-opacity="0.75"/>
<circle cx="252.1" cy="326.9" r="4.2" fill="#2f6fed" fill-opacity="0.75"/>
<circle cx="196.0" cy="334.0" r="4.2" fill="#2f6fed" fill-opacity="0.75"/>
<circle cx="452.7" cy="306.5" r="4.2" fill="#2f6fed" fill-opacity="0.75"/>
<circle cx="273.0" cy="367.9" r="4.2" fill="#2f6fed" fill-opacity="0.75"/>
<circle cx="273.3" cy="284.4" r="4.2" fill="#2f6fed" fill-opacity="0.75"/>
<circle cx="342.5" cy="432.5" r="4.2" fill="#2f6fed" fill-opacity="0.75"/>
<circle cx="327.8" cy="278.5" r="4.2" fill="#2f6fed" fill-opacity="0.75"/>
<circle cx="161.3" cy="387.3" r="4.2" fill="#2f6fed" fill-opacity="0.75"/>
<circle cx="354.8" cy="334.3" r="4.2" fill="#2f6fed" fill-opacity="0.75"/>
<circle cx="354.3" cy="254.7" r="4.2" fill="#2f6fed" fill-opacity="0.75"/>
<circle cx="177.9" cy="124.2" r="4.2" fill="#2f6fed" fill-opacity="0.75"/>
<circle cx="335.5" cy="470.0" r="4.2" fill="#2f6fed" fill-opacity="0.75"/>
<circle cx="314.0" cy="299.7" r="4.2" fill="#2f6fed" fill-opacity="0.75"/>
<circle cx="162.8" cy="419.9" r="4.2" fill="#2f6fed" fill-opacity="0.75"/>
<circle cx="430.8" cy="370.0" r="4.2" fill="#2f6fed" fill-opacity="0.75"/>
<circle cx="369.5" cy="277.0" r="4.2" fill="#2f6fed" fill-opacity="0.75"/>
<circle cx="84.4" cy="362.2" r="4.2" fill="#2f6fed" fill-opacity="0.75"/>
<circle cx="332.3" cy="164.4" r="4.2" fill="#2f6fed" fill-opacity="0.75"/>
<circle cx="224.4" cy="444.3" r="4.2" fill="#2f6fed" fill-opacity="0.75"/>
<circle cx="394.0" cy="304.3" r="4.2" fill="#2f6fed" fill-opacity="0.75"/>
<circle cx="355.8" cy="340.1" r="4.2" fill="#2f6fed" fill-opacity="0.75"/>
<circle cx="286.0" cy="303.1" r="4.2" fill="#2f6fed" fill-opacity="0.75"/>
<circle cx="695.3" cy="321.5" r="4.2" fill="#2f6fed" fill-opacity="0.75"/>
<circle cx="421.5" cy="241.7" r="4.2" fill="#2f6fed" fill-opacity="0.75"/>
<circle cx="376.8" cy="320.2" r="4.2" fill="#2f6fed" fill-opacity="0.75"/>
<circle cx="346.5" cy="456.1" r="4.2" fill="#2f6fed" fill-opacity="0.75"/>
<circle cx="303.4" cy="342.5" r="4.2" fill="#2f6fed" fill-opacity="0.75"/>
<circle cx="303.9" cy="247.5" r="4.2" fill="#2f6fed" fill-opacity="0.75"/>
<circle cx="413.1" cy="332.2" r="4.2" fill="#2f6fed" fill-opacity="0.75"/>
<circle cx="208.4" cy="311.6" r="4.2" fill="#2f6fed" fill-opacity="0.75"/>
<circle cx="316.4" cy="232.1" r="4.2" fill="#2f6fed" fill-opacity="0.75"/>
<circle cx="359.9" cy="361.2" r="4.2" fill="#2f6fed" fill-opacity="0.75"/>
<circle cx="199.9" cy="400.7" r="4.2" fill="#2f6fed" fill-opacity="0.75"/>
<circle cx="300.0" cy="293.8" r="4.2" fill="#2f6fed" fill-opacity="0.75"/>
<circle cx="720.0" cy="277.0" r="4.2" fill="#2f6fed" fill-opacity="0.75"/>
<circle cx="341.3" cy="334.6" r="4.2" fill="#2f6fed" fill-opacity="0.75"/>
<circle cx="336.5" cy="333.9" r="4.2" fill="#2f6fed" fill-opacity="0.75"/>
<circle cx="363.3" cy="50.0" r="4.2" fill="#2f6fed" fill-opacity="0.75"/>
<circle cx="323.5" cy="263.3" r="4.2" fill="#ff7a00" fill-opacity="0.75"/>
<circle cx="450.1" cy="98.7" r="4.2" fill="#ff7a00" fill-opacity="0.75"/>
<circle cx="424.2" cy="373.9" r="4.2" fill="#ff7a00" fill-opacity="0.75"/>
<circle cx="374.2" cy="303.3" r="4.2" fill="#ff7a00" fill-opacity="0.75"/>
<circle cx="396.6" cy="265.5" r="4.2" fill="#ff7a00" fill-opacity="0.75"/>
<circle cx="326.4" cy="275.9" r="4.2" fill="#ff7a00" fill-opacity="0.75"/>
<circle cx="536.8" cy="290.7" r="4.2" fill="#ff7a00" fill-opacity="0.75"/>
<circle cx="356.7" cy="302.3" r="4.2" fill="#ff7a00" fill-opacity="0.75"/>
<circle cx="292.4" cy="253.9" r="4.2" fill="#ff7a00" fill-opacity="0.75"/>
<circle cx="361.7" cy="295.5" r="4.2" fill="#ff7a00" fill-opacity="0.75"/>
<circle cx="336.9" cy="301.1" r="4.2" fill="#ff7a00" fill-opacity="0.75"/>
<circle cx="421.7" cy="242.7" r="4.2" fill="#ff7a00" fill-opacity="0.75"/>
<circle cx="445.2" cy="246.8" r="4.2" fill="#ff7a00" fill-opacity="0.75"/>
<circle cx="349.1" cy="200.9" r="4.2" fill="#ff7a00" fill-opacity="0.75"/>
<circle cx="463.4" cy="233.2" r="4.2" fill="#ff7a00" fill-opacity="0.75"/>
<circle cx="303.3" cy="235.8" r="4.2" fill="#ff7a00" fill-opacity="0.75"/>
<circle cx="576.1" cy="344.3" r="4.2" fill="#ff7a00" fill-opacity="0.75"/>
<circle cx="359.0" cy="288.5" r="4.2" fill="#ff7a00" fill-opacity="0.75"/>
<circle cx="405.5" cy="204.5" r="4.2" fill="#ff7a00" fill-opacity="0.75"/>
<circle cx="349.8" cy="292.5" r="4.2" fill="#ff7a00" fill-opacity="0.75"/>
<circle cx="399.2" cy="249.5" r="4.2" fill="#ff7a00" fill-opacity="0.75"/>
<circle cx="469.8" cy="336.4" r="4.2" fill="#ff7a00" fill-opacity="0.75"/>
<circle cx="355.2" cy="263.3" r="4.2" fill="#ff7a00" fill-opacity="0.75"/>
<circle cx="253.2" cy="276.5" r="4.2" fill="#ff7a00" fill-opacity="0.75"/>
<circle cx="345.4" cy="283.3" r="4.2" fill="#ff7a00" fill-opacity="0.75"/>
<circle cx="299.5" cy="208.5" r="4.2" fill="#ff7a00" fill-opacity="0.75"/>
<circle cx="346.3" cy="284.7" r="4.2" fill="#ff7a00" fill-opacity="0.75"/>
<circle cx="356.5" cy="258.4" r="4.2" fill="#ff7a00" fill-opacity="0.75"/>
<circle cx="397.4" cy="318.9" r="4.2" fill="#ff7a00" fill-opacity="0.75"/>
<circle cx="328.2" cy="265.2" r="4.2" fill="#ff7a00" fill-opacity="0.75"/>
<circle cx="469.3" cy="279.6" r="4.2" fill="#ff7a00" fill-opacity="0.75"/>
<circle cx="368.6" cy="234.1" r="4.2" fill="#ff7a00" fill-opacity="0.75"/>
<circle cx="441.1" cy="303.4" r="4.2" fill="#ff7a00" fill-opacity="0.75"/>
<circle cx="389.7" cy="282.4" r="4.2" fill="#ff7a00" fill-opacity="0.75"/>
<circle cx="334.4" cy="247.2" r="4.2" fill="#ff7a00" fill-opacity="0.75"/>
<circle cx="435.6" cy="240.7" r="4.2" fill="#ff7a00" fill-opacity="0.75"/>
<circle cx="350.1" cy="271.4" r="4.2" fill="#ff7a00" fill-opacity="0.75"/>
<circle cx="401.8" cy="304.5" r="4.2" fill="#ff7a00" fill-opacity="0.75"/>
<circle cx="321.8" cy="236.5" r="4.2" fill="#ff7a00" fill-opacity="0.75"/>
<circle cx="209.5" cy="147.3" r="4.2" fill="#ff7a00" fill-opacity="0.75"/>
<circle cx="306.9" cy="277.2" r="4.2" fill="#ff7a00" fill-opacity="0.75"/>
<circle cx="437.0" cy="191.6" r="4.2" fill="#ff7a00" fill-opacity="0.75"/>
<circle cx="343.8" cy="298.8" r="4.2" fill="#ff7a00" fill-opacity="0.75"/>
<circle cx="396.8" cy="288.8" r="4.2" fill="#ff7a00" fill-opacity="0.75"/>
<circle cx="386.3" cy="279.8" r="4.2" fill="#ff7a00" fill-opacity="0.75"/>
<circle cx="358.2" cy="282.6" r="4.2" fill="#ff7a00" fill-opacity="0.75"/>
<circle cx="352.4" cy="264.9" r="4.2" fill="#ff7a00" fill-opacity="0.75"/>
<circle cx="359.7" cy="261.2" r="4.2" fill="#ff7a00" fill-opacity="0.75"/>
<circle cx="353.5" cy="239.1" r="4.2" fill="#ff7a00" fill-opacity="0.75"/>
<circle cx="242.7" cy="318.3" r="4.2" fill="#ff7a00" fill-opacity="0.75"/>
<circle cx="328.2" cy="271.8" r="4.2" fill="#ff7a00" fill-opacity="0.75"/>
<circle cx="360.4" cy="279.9" r="4.2" fill="#ff7a00" fill-opacity="0.75"/>
<circle cx="291.6" cy="269.1" r="4.2" fill="#ff7a00" fill-opacity="0.75"/>
<circle cx="322.5" cy="303.5" r="4.2" fill="#ff7a00" fill-opacity="0.75"/>
<circle cx="357.9" cy="297.7" r="4.2" fill="#ff7a00" fill-opacity="0.75"/>
<circle cx="343.6" cy="282.5" r="4.2" fill="#ff7a00" fill-opacity="0.75"/>
<circle cx="345.1" cy="263.5" r="4.2" fill="#ff7a00" fill-opacity="0.75"/>
<circle cx="469.9" cy="221.4" r="4.2" fill="#ff7a00" fill-opacity="0.75"/>
<circle cx="331.1" cy="265.4" r="4.2" fill="#ff7a00" fill-opacity="0.75"/>
<circle cx="421.2" cy="291.6" r="4.2" fill="#ff7a00" fill-opacity="0.75"/>
<circle cx="345.1" cy="301.6" r="4.2" fill="#ff7a00" fill-opacity="0.75"/>
<circle cx="346.0" cy="317.1" r="4.2" fill="#ff7a00" fill-opacity="0.75"/>
<circle cx="359.6" cy="224.9" r="4.2" fill="#ff7a00" fill-opacity="0.75"/>
<circle cx="444.0" cy="367.3" r="4.2" fill="#ff7a00" fill-opacity="0.75"/>
<circle cx="447.6" cy="238.7" r="4.2" fill="#ff7a00" fill-opacity="0.75"/>
<circle cx="357.0" cy="279.9" r="4.2" fill="#ff7a00" fill-opacity="0.75"/>
<circle cx="342.1" cy="276.9" r="4.2" fill="#ff7a00" fill-opacity="0.75"/>
<circle cx="364.1" cy="273.4" r="4.2" fill="#ff7a00" fill-opacity="0.75"/>
<circle cx="422.3" cy="267.2" r="4.2" fill="#ff7a00" fill-opacity="0.75"/>
<circle cx="420.1" cy="370.5" r="4.2" fill="#ff7a00" fill-opacity="0.75"/>
<circle cx="419.0" cy="325.7" r="4.2" fill="#ff7a00" fill-opacity="0.75"/>
<circle cx="317.3" cy="275.6" r="4.2" fill="#ff7a00" fill-opacity="0.75"/>
<circle cx="360.0" cy="288.2" r="4.2" fill="#ff7a00" fill-opacity="0.75"/>
<circle cx="355.2" cy="298.3" r="4.2" fill="#ff7a00" fill-opacity="0.75"/>
<circle cx="340.2" cy="255.3" r="4.2" fill="#ff7a00" fill-opacity="0.75"/>
<circle cx="411.7" cy="275.4" r="4.2" fill="#ff7a00" fill-opacity="0.75"/>
<circle cx="394.7" cy="225.5" r="4.2" fill="#ff7a00" fill-opacity="0.75"/>
<circle cx="391.4" cy="254.0" r="4.2" fill="#ff7a00" fill-opacity="0.75"/>
<circle cx="388.0" cy="243.2" r="4.2" fill="#ff7a00" fill-opacity="0.75"/>
<circle cx="331.4" cy="260.5" r="4.2" fill="#ff7a00" fill-opacity="0.75"/>
<circle cx="309.5" cy="247.8" r="4.2" fill="#ff7a00" fill-opacity="0.75"/>
<circle cx="387.6" cy="144.0" r="4.2" fill="#ff7a00" fill-opacity="0.75"/>
<circle cx="390.7" cy="326.9" r="4.2" fill="#ff7a00" fill-opacity="0.75"/>
<circle cx="368.4" cy="261.2" r="4.2" fill="#ff7a00" fill-opacity="0.75"/>
<circle cx="472.1" cy="327.9" r="4.2" fill="#ff7a00" fill-opacity="0.75"/>
<circle cx="300.9" cy="258.3" r="4.2" fill="#ff7a00" fill-opacity="0.75"/>
<circle cx="380.9" cy="306.9" r="4.2" fill="#ff7a00" fill-opacity="0.75"/>
<circle cx="276.0" cy="263.0" r="4.2" fill="#ff7a00" fill-opacity="0.75"/>
<circle cx="604.1" cy="265.2" r="4.2" fill="#ff7a00" fill-opacity="0.75"/>
<circle cx="325.9" cy="279.1" r="4.2" fill="#ff7a00" fill-opacity="0.75"/>
<circle cx="363.3" cy="243.0" r="4.2" fill="#ff7a00" fill-opacity="0.75"/>
<circle cx="383.3" cy="257.4" r="4.2" fill="#ff7a00" fill-opacity="0.75"/>
<circle cx="433.3" cy="349.2" r="4.2" fill="#ff7a00" fill-opacity="0.75"/>
<circle cx="369.5" cy="273.5" r="4.2" fill="#ff7a00" fill-opacity="0.75"/>
<circle cx="387.6" cy="209.7" r="4.2" fill="#ff7a00" fill-opacity="0.75"/>
<circle cx="426.1" cy="270.4" r="4.2" fill="#ff7a00" fill-opacity="0.75"/>
<circle cx="388.5" cy="265.9" r="4.2" fill="#ff7a00" fill-opacity="0.75"/>
<circle cx="352.1" cy="192.7" r="4.2" fill="#ff7a00" fill-opacity="0.75"/>
<circle cx="368.9" cy="318.1" r="4.2" fill="#ff7a00" fill-opacity="0.75"/>
<circle cx="435.3" cy="325.2" r="4.2" fill="#ff7a00" fill-opacity="0.75"/>
<circle cx="266.9" cy="283.2" r="4.2" fill="#1fa971" fill-opacity="0.75"/>
<circle cx="245.3" cy="286.0" r="4.2" fill="#1fa971" fill-opacity="0.75"/>
<circle cx="238.4" cy="256.9" r="4.2" fill="#1fa971" fill-opacity="0.75"/>
<circle cx="375.1" cy="338.7" r="4.2" fill="#1fa971" fill-opacity="0.75"/>
<circle cx="284.4" cy="259.6" r="4.2" fill="#1fa971" fill-opacity="0.75"/>
<circle cx="368.2" cy="224.5" r="4.2" fill="#1fa971" fill-opacity="0.75"/>
<circle cx="407.8" cy="267.5" r="4.2" fill="#1fa971" fill-opacity="0.75"/>
<circle cx="316.6" cy="247.4" r="4.2" fill="#1fa971" fill-opacity="0.75"/>
<circle cx="258.5" cy="293.2" r="4.2" fill="#1fa971" fill-opacity="0.75"/>
<circle cx="310.2" cy="282.9" r="4.2" fill="#1fa971" fill-opacity="0.75"/>
<circle cx="366.5" cy="299.7" r="4.2" fill="#1fa971" fill-opacity="0.75"/>
<circle cx="334.0" cy="305.9" r="4.2" fill="#1fa971" fill-opacity="0.75"/>
<circle cx="321.0" cy="305.0" r="4.2" fill="#1fa971" fill-opacity="0.75"/>
<circle cx="321.7" cy="295.8" r="4.2" fill="#1fa971" fill-opacity="0.75"/>
<circle cx="343.3" cy="309.7" r="4.2" fill="#1fa971" fill-opacity="0.75"/>
<circle cx="339.9" cy="250.3" r="4.2" fill="#1fa971" fill-opacity="0.75"/>
<circle cx="291.7" cy="259.5" r="4.2" fill="#1fa971" fill-opacity="0.75"/>
<circle cx="262.8" cy="229.2" r="4.2" fill="#1fa971" fill-opacity="0.75"/>
<circle cx="389.0" cy="283.1" r="4.2" fill="#1fa971" fill-opacity="0.75"/>
<circle cx="371.7" cy="380.0" r="4.2" fill="#1fa971" fill-opacity="0.75"/>
<circle cx="312.1" cy="339.3" r="4.2" fill="#1fa971" fill-opacity="0.75"/>
<circle cx="70.0" cy="300.4" r="4.2" fill="#1fa971" fill-opacity="0.75"/>
<circle cx="314.9" cy="444.5" r="4.2" fill="#1fa971" fill-opacity="0.75"/>
<circle cx="334.5" cy="313.7" r="4.2" fill="#1fa971" fill-opacity="0.75"/>
<circle cx="318.9" cy="323.3" r="4.2" fill="#1fa971" fill-opacity="0.75"/>
<circle cx="209.4" cy="219.4" r="4.2" fill="#1fa971" fill-opacity="0.75"/>
<circle cx="369.7" cy="307.7" r="4.2" fill="#1fa971" fill-opacity="0.75"/>
<circle cx="251.7" cy="241.6" r="4.2" fill="#1fa971" fill-opacity="0.75"/>
<circle cx="309.0" cy="241.4" r="4.2" fill="#1fa971" fill-opacity="0.75"/>
<circle cx="242.5" cy="359.1" r="4.2" fill="#1fa971" fill-opacity="0.75"/>
<circle cx="346.8" cy="292.6" r="4.2" fill="#1fa971" fill-opacity="0.75"/>
<circle cx="223.8" cy="268.6" r="4.2" fill="#1fa971" fill-opacity="0.75"/>
<circle cx="291.0" cy="277.2" r="4.2" fill="#1fa971" fill-opacity="0.75"/>
<circle cx="329.0" cy="325.9" r="4.2" fill="#1fa971" fill-opacity="0.75"/>
<circle cx="282.5" cy="292.6" r="4.2" fill="#1fa971" fill-opacity="0.75"/>
<circle cx="351.7" cy="216.1" r="4.2" fill="#1fa971" fill-opacity="0.75"/>
<circle cx="332.9" cy="322.4" r="4.2" fill="#1fa971" fill-opacity="0.75"/>
<circle cx="307.2" cy="251.8" r="4.2" fill="#1fa971" fill-opacity="0.75"/>
<circle cx="491.2" cy="238.3" r="4.2" fill="#1fa971" fill-opacity="0.75"/>
<circle cx="338.7" cy="256.9" r="4.2" fill="#1fa971" fill-opacity="0.75"/>
<circle cx="329.1" cy="319.7" r="4.2" fill="#1fa971" fill-opacity="0.75"/>
<circle cx="261.4" cy="291.3" r="4.2" fill="#1fa971" fill-opacity="0.75"/>
<circle cx="267.5" cy="288.7" r="4.2" fill="#1fa971" fill-opacity="0.75"/>
<circle cx="300.3" cy="251.1" r="4.2" fill="#1fa971" fill-opacity="0.75"/>
<circle cx="256.1" cy="208.2" r="4.2" fill="#1fa971" fill-opacity="0.75"/>
<circle cx="218.5" cy="300.3" r="4.2" fill="#1fa971" fill-opacity="0.75"/>
<circle cx="289.8" cy="243.0" r="4.2" fill="#1fa971" fill-opacity="0.75"/>
<circle cx="269.8" cy="289.7" r="4.2" fill="#1fa971" fill-opacity="0.75"/>
<circle cx="248.9" cy="247.1" r="4.2" fill="#1fa971" fill-opacity="0.75"/>
<circle cx="349.5" cy="306.0" r="4.2" fill="#1fa971" fill-opacity="0.75"/>
<circle cx="367.4" cy="261.1" r="4.2" fill="#1fa971" fill-opacity="0.75"/>
<circle cx="302.0" cy="263.0" r="4.2" fill="#1fa971" fill-opacity="0.75"/>
<circle cx="272.1" cy="279.1" r="4.2" fill="#1fa971" fill-opacity="0.75"/>
<circle cx="347.7" cy="283.5" r="4.2" fill="#1fa971" fill-opacity="0.75"/>
<circle cx="301.8" cy="297.7" r="4.2" fill="#1fa971" fill-opacity="0.75"/>
<circle cx="322.8" cy="281.6" r="4.2" fill="#1fa971" fill-opacity="0.75"/>
<circle cx="308.8" cy="213.7" r="4.2" fill="#1fa971" fill-opacity="0.75"/>
<circle cx="241.6" cy="285.9" r="4.2" fill="#1fa971" fill-opacity="0.75"/>
<circle cx="331.6" cy="262.5" r="4.2" fill="#1fa971" fill-opacity="0.75"/>
<circle cx="422.8" cy="243.0" r="4.2" fill="#1fa971" fill-opacity="0.75"/>
<circle cx="293.3" cy="332.9" r="4.2" fill="#1fa971" fill-opacity="0.75"/>
<circle cx="369.1" cy="297.9" r="4.2" fill="#1fa971" fill-opacity="0.75"/>
<circle cx="420.2" cy="273.1" r="4.2" fill="#1fa971" fill-opacity="0.75"/>
<circle cx="217.0" cy="244.7" r="4.2" fill="#1fa971" fill-opacity="0.75"/>
<circle cx="295.4" cy="313.9" r="4.2" fill="#1fa971" fill-opacity="0.75"/>
<circle cx="295.2" cy="329.7" r="4.2" fill="#1fa971" fill-opacity="0.75"/>
<circle cx="317.1" cy="288.2" r="4.2" fill="#1fa971" fill-opacity="0.75"/>
<circle cx="320.1" cy="252.4" r="4.2" fill="#1fa971" fill-opacity="0.75"/>
<circle cx="323.5" cy="267.7" r="4.2" fill="#1fa971" fill-opacity="0.75"/>
<circle cx="314.3" cy="262.9" r="4.2" fill="#1fa971" fill-opacity="0.75"/>
<circle cx="271.7" cy="231.8" r="4.2" fill="#1fa971" fill-opacity="0.75"/>
<circle cx="348.7" cy="250.7" r="4.2" fill="#1fa971" fill-opacity="0.75"/>
<circle cx="301.4" cy="180.2" r="4.2" fill="#1fa971" fill-opacity="0.75"/>
<circle cx="278.1" cy="329.1" r="4.2" fill="#1fa971" fill-opacity="0.75"/>
<circle cx="288.8" cy="216.0" r="4.2" fill="#1fa971" fill-opacity="0.75"/>
<circle cx="324.7" cy="230.2" r="4.2" fill="#1fa971" fill-opacity="0.75"/>
<circle cx="356.4" cy="269.4" r="4.2" fill="#1fa971" fill-opacity="0.75"/>
<circle cx="352.4" cy="196.6" r="4.2" fill="#1fa971" fill-opacity="0.75"/>
<circle cx="314.4" cy="268.4" r="4.2" fill="#1fa971" fill-opacity="0.75"/>
<circle cx="311.8" cy="292.3" r="4.2" fill="#1fa971" fill-opacity="0.75"/>
<circle cx="324.1" cy="283.6" r="4.2" fill="#1fa971" fill-opacity="0.75"/>
<circle cx="323.7" cy="244.6" r="4.2" fill="#1fa971" fill-opacity="0.75"/>
<circle cx="283.3" cy="268.1" r="4.2" fill="#1fa971" fill-opacity="0.75"/>
<circle cx="373.2" cy="311.2" r="4.2" fill="#1fa971" fill-opacity="0.75"/>
<circle cx="313.6" cy="284.3" r="4.2" fill="#1fa971" fill-opacity="0.75"/>
<circle cx="362.6" cy="273.0" r="4.2" fill="#1fa971" fill-opacity="0.75"/>
<circle cx="235.2" cy="277.7" r="4.2" fill="#1fa971" fill-opacity="0.75"/>
<circle cx="251.0" cy="152.9" r="4.2" fill="#1fa971" fill-opacity="0.75"/>
<circle cx="376.2" cy="223.0" r="4.2" fill="#1fa971" fill-opacity="0.75"/>
<circle cx="319.4" cy="265.4" r="4.2" fill="#1fa971" fill-opacity="0.75"/>
<circle cx="273.7" cy="292.2" r="4.2" fill="#1fa971" fill-opacity="0.75"/>
<circle cx="377.5" cy="297.7" r="4.2" fill="#1fa971" fill-opacity="0.75"/>
<circle cx="347.2" cy="298.7" r="4.2" fill="#1fa971" fill-opacity="0.75"/>
<circle cx="354.7" cy="263.1" r="4.2" fill="#1fa971" fill-opacity="0.75"/>
<circle cx="235.8" cy="275.6" r="4.2" fill="#1fa971" fill-opacity="0.75"/>
<circle cx="335.3" cy="230.4" r="4.2" fill="#1fa971" fill-opacity="0.75"/>
<circle cx="255.6" cy="314.4" r="4.2" fill="#1fa971" fill-opacity="0.75"/>
<circle cx="269.6" cy="269.3" r="4.2" fill="#1fa971" fill-opacity="0.75"/>
<circle cx="469.0" cy="255.3" r="4.2" fill="#1fa971" fill-opacity="0.75"/>
<circle cx="355.9" cy="283.5" r="4.2" fill="#1fa971" fill-opacity="0.75"/>
<circle cx="313.0" cy="275.4" r="4.2" fill="#a046f2" fill-opacity="0.75"/>
<circle cx="311.6" cy="284.1" r="4.2" fill="#a046f2" fill-opacity="0.75"/>
<circle cx="235.0" cy="187.6" r="4.2" fill="#a046f2" fill-opacity="0.75"/>
<circle cx="255.4" cy="133.9" r="4.2" fill="#a046f2" fill-opacity="0.75"/>
<circle cx="405.8" cy="227.4" r="4.2" fill="#a046f2" fill-opacity="0.75"/>
<circle cx="403.2" cy="235.1" r="4.2" fill="#a046f2" fill-opacity="0.75"/>
<circle cx="296.8" cy="213.4" r="4.2" fill="#a046f2" fill-opacity="0.75"/>
<circle cx="293.0" cy="203.3" r="4.2" fill="#a046f2" fill-opacity="0.75"/>
<circle cx="389.2" cy="281.0" r="4.2" fill="#a046f2" fill-opacity="0.75"/>
<circle cx="386.2" cy="281.7" r="4.2" fill="#a046f2" fill-opacity="0.75"/>
<circle cx="387.7" cy="263.4" r="4.2" fill="#a046f2" fill-opacity="0.75"/>
<circle cx="391.9" cy="256.3" r="4.2" fill="#a046f2" fill-opacity="0.75"/>
<circle cx="196.9" cy="253.3" r="4.2" fill="#a046f2" fill-opacity="0.75"/>
<circle cx="196.2" cy="273.4" r="4.2" fill="#a046f2" fill-opacity="0.75"/>
<circle cx="341.4" cy="252.8" r="4.2" fill="#a046f2" fill-opacity="0.75"/>
<circle cx="342.3" cy="250.5" r="4.2" fill="#a046f2" fill-opacity="0.75"/>
<circle cx="314.5" cy="242.7" r="4.2" fill="#a046f2" fill-opacity="0.75"/>
<circle cx="315.5" cy="241.2" r="4.2" fill="#a046f2" fill-opacity="0.75"/>
<circle cx="347.5" cy="276.4" r="4.2" fill="#a046f2" fill-opacity="0.75"/>
<circle cx="345.1" cy="281.5" r="4.2" fill="#a046f2" fill-opacity="0.75"/>
<circle cx="380.9" cy="257.6" r="4.2" fill="#a046f2" fill-opacity="0.75"/>
<circle cx="387.4" cy="244.6" r="4.2" fill="#a046f2" fill-opacity="0.75"/>
<circle cx="566.7" cy="222.0" r="4.2" fill="#a046f2" fill-opacity="0.75"/>
<circle cx="574.8" cy="219.6" r="4.2" fill="#a046f2" fill-opacity="0.75"/>
<circle cx="316.9" cy="256.0" r="4.2" fill="#a046f2" fill-opacity="0.75"/>
<circle cx="311.5" cy="283.5" r="4.2" fill="#a046f2" fill-opacity="0.75"/>
<circle cx="140.4" cy="269.0" r="4.2" fill="#a046f2" fill-opacity="0.75"/>
<circle cx="112.0" cy="284.3" r="4.2" fill="#a046f2" fill-opacity="0.75"/>
<circle cx="456.0" cy="243.2" r="4.2" fill="#a046f2" fill-opacity="0.75"/>
<circle cx="463.7" cy="235.1" r="4.2" fill="#a046f2" fill-opacity="0.75"/>
<circle cx="419.9" cy="332.2" r="4.2" fill="#a046f2" fill-opacity="0.75"/>
<circle cx="435.5" cy="301.5" r="4.2" fill="#a046f2" fill-opacity="0.75"/>
<circle cx="383.1" cy="253.8" r="4.2" fill="#a046f2" fill-opacity="0.75"/>
<circle cx="379.0" cy="259.3" r="4.2" fill="#a046f2" fill-opacity="0.75"/>
<circle cx="220.9" cy="328.5" r="4.2" fill="#a046f2" fill-opacity="0.75"/>
<circle cx="215.9" cy="313.1" r="4.2" fill="#a046f2" fill-opacity="0.75"/>
<circle cx="357.9" cy="246.5" r="4.2" fill="#a046f2" fill-opacity="0.75"/>
<circle cx="355.2" cy="249.0" r="4.2" fill="#a046f2" fill-opacity="0.75"/>
<circle cx="265.5" cy="291.6" r="4.2" fill="#a046f2" fill-opacity="0.75"/>
<circle cx="267.6" cy="295.4" r="4.2" fill="#a046f2" fill-opacity="0.75"/>
<circle cx="482.2" cy="326.4" r="4.2" fill="#a046f2" fill-opacity="0.75"/>
<circle cx="499.2" cy="304.0" r="4.2" fill="#a046f2" fill-opacity="0.75"/>
<circle cx="330.0" cy="296.8" r="4.2" fill="#a046f2" fill-opacity="0.75"/>
<circle cx="330.7" cy="279.4" r="4.2" fill="#a046f2" fill-opacity="0.75"/>
<circle cx="382.9" cy="226.3" r="4.2" fill="#a046f2" fill-opacity="0.75"/>
<circle cx="375.9" cy="243.3" r="4.2" fill="#a046f2" fill-opacity="0.75"/>
<circle cx="427.1" cy="277.1" r="4.2" fill="#a046f2" fill-opacity="0.75"/>
<circle cx="433.1" cy="282.5" r="4.2" fill="#a046f2" fill-opacity="0.75"/>
<circle cx="404.5" cy="275.0" r="4.2" fill="#a046f2" fill-opacity="0.75"/>
<circle cx="406.8" cy="275.8" r="4.2" fill="#a046f2" fill-opacity="0.75"/>
<circle cx="343.7" cy="286.5" r="4.2" fill="#a046f2" fill-opacity="0.75"/>
<circle cx="338.9" cy="293.4" r="4.2" fill="#a046f2" fill-opacity="0.75"/>
<circle cx="507.6" cy="304.9" r="4.2" fill="#a046f2" fill-opacity="0.75"/>
<circle cx="515.0" cy="305.6" r="4.2" fill="#a046f2" fill-opacity="0.75"/>
<circle cx="362.6" cy="301.5" r="4.2" fill="#a046f2" fill-opacity="0.75"/>
<circle cx="365.6" cy="290.4" r="4.2" fill="#a046f2" fill-opacity="0.75"/>
<circle cx="320.3" cy="276.7" r="4.2" fill="#a046f2" fill-opacity="0.75"/>
<circle cx="319.7" cy="278.2" r="4.2" fill="#a046f2" fill-opacity="0.75"/>
<circle cx="364.5" cy="208.1" r="4.2" fill="#a046f2" fill-opacity="0.75"/>
<circle cx="349.1" cy="253.6" r="4.2" fill="#a046f2" fill-opacity="0.75"/>
<circle cx="336.3" cy="279.4" r="4.2" fill="#a046f2" fill-opacity="0.75"/>
<circle cx="331.0" cy="278.0" r="4.2" fill="#a046f2" fill-opacity="0.75"/>
<circle cx="314.1" cy="292.8" r="4.2" fill="#a046f2" fill-opacity="0.75"/>
<circle cx="315.7" cy="296.1" r="4.2" fill="#a046f2" fill-opacity="0.75"/>
<circle cx="132.8" cy="194.3" r="4.2" fill="#a046f2" fill-opacity="0.75"/>
<circle cx="115.3" cy="167.2" r="4.2" fill="#a046f2" fill-opacity="0.75"/>
<circle cx="283.1" cy="255.4" r="4.2" fill="#a046f2" fill-opacity="0.75"/>
<circle cx="278.8" cy="261.6" r="4.2" fill="#a046f2" fill-opacity="0.75"/>
<circle cx="193.9" cy="269.2" r="4.2" fill="#a046f2" fill-opacity="0.75"/>
<circle cx="200.9" cy="242.5" r="4.2" fill="#a046f2" fill-opacity="0.75"/>
<circle cx="265.9" cy="249.9" r="4.2" fill="#a046f2" fill-opacity="0.75"/>
<circle cx="267.2" cy="254.4" r="4.2" fill="#a046f2" fill-opacity="0.75"/>
<circle cx="317.7" cy="254.5" r="4.2" fill="#a046f2" fill-opacity="0.75"/>
<circle cx="317.3" cy="262.4" r="4.2" fill="#a046f2" fill-opacity="0.75"/>
<circle cx="379.7" cy="212.1" r="4.2" fill="#a046f2" fill-opacity="0.75"/>
<circle cx="380.2" cy="215.5" r="4.2" fill="#a046f2" fill-opacity="0.75"/>
<circle cx="372.1" cy="291.3" r="4.2" fill="#a046f2" fill-opacity="0.75"/>
<circle cx="377.9" cy="274.7" r="4.2" fill="#a046f2" fill-opacity="0.75"/>
<circle cx="383.4" cy="259.0" r="4.2" fill="#a046f2" fill-opacity="0.75"/>
<circle cx="395.1" cy="260.2" r="4.2" fill="#a046f2" fill-opacity="0.75"/>
<circle cx="282.2" cy="277.3" r="4.2" fill="#a046f2" fill-opacity="0.75"/>
<circle cx="283.3" cy="259.7" r="4.2" fill="#a046f2" fill-opacity="0.75"/>
<circle cx="247.8" cy="262.5" r="4.2" fill="#a046f2" fill-opacity="0.75"/>
<circle cx="241.7" cy="260.2" r="4.2" fill="#a046f2" fill-opacity="0.75"/>
<circle cx="316.7" cy="252.7" r="4.2" fill="#a046f2" fill-opacity="0.75"/>
<circle cx="315.3" cy="240.5" r="4.2" fill="#a046f2" fill-opacity="0.75"/>
<circle cx="364.8" cy="302.7" r="4.2" fill="#a046f2" fill-opacity="0.75"/>
<circle cx="365.3" cy="304.7" r="4.2" fill="#a046f2" fill-opacity="0.75"/>
<circle cx="199.2" cy="205.9" r="4.2" fill="#a046f2" fill-opacity="0.75"/>
<circle cx="199.8" cy="221.2" r="4.2" fill="#a046f2" fill-opacity="0.75"/>
<circle cx="340.8" cy="298.2" r="4.2" fill="#a046f2" fill-opacity="0.75"/>
<circle cx="342.0" cy="292.0" r="4.2" fill="#a046f2" fill-opacity="0.75"/>
<circle cx="353.4" cy="285.9" r="4.2" fill="#a046f2" fill-opacity="0.75"/>
<circle cx="348.4" cy="297.1" r="4.2" fill="#a046f2" fill-opacity="0.75"/>
<circle cx="386.7" cy="294.2" r="4.2" fill="#a046f2" fill-opacity="0.75"/>
<circle cx="392.6" cy="279.3" r="4.2" fill="#a046f2" fill-opacity="0.75"/>
<circle cx="364.7" cy="299.4" r="4.2" fill="#a046f2" fill-opacity="0.75"/>
<circle cx="365.3" cy="297.7" r="4.2" fill="#a046f2" fill-opacity="0.75"/>
<circle cx="243.5" cy="245.6" r="4.2" fill="#a046f2" fill-opacity="0.75"/>
<circle cx="238.9" cy="224.9" r="4.2" fill="#a046f2" fill-opacity="0.75"/>
<circle cx="422.4" cy="241.8" r="4.2" fill="#d64545" fill-opacity="0.75"/>
<circle cx="420.0" cy="251.2" r="4.2" fill="#d64545" fill-opacity="0.75"/>
<circle cx="384.0" cy="151.0" r="4.2" fill="#d64545" fill-opacity="0.75"/>
<circle cx="382.6" cy="167.9" r="4.2" fill="#d64545" fill-opacity="0.75"/>
<circle cx="333.3" cy="328.4" r="4.2" fill="#d64545" fill-opacity="0.75"/>
<circle cx="340.7" cy="306.0" r="4.2" fill="#d64545" fill-opacity="0.75"/>
<circle cx="339.0" cy="286.2" r="4.2" fill="#d64545" fill-opacity="0.75"/>
<circle cx="346.4" cy="265.0" r="4.2" fill="#d64545" fill-opacity="0.75"/>
<circle cx="403.4" cy="210.3" r="4.2" fill="#d64545" fill-opacity="0.75"/>
<circle cx="391.9" cy="248.1" r="4.2" fill="#d64545" fill-opacity="0.75"/>
<circle cx="346.5" cy="237.8" r="4.2" fill="#d64545" fill-opacity="0.75"/>
<circle cx="342.7" cy="241.8" r="4.2" fill="#d64545" fill-opacity="0.75"/>
<circle cx="294.5" cy="233.1" r="4.2" fill="#d64545" fill-opacity="0.75"/>
<circle cx="292.2" cy="225.2" r="4.2" fill="#d64545" fill-opacity="0.75"/>
<circle cx="338.5" cy="235.2" r="4.2" fill="#d64545" fill-opacity="0.75"/>
<circle cx="343.1" cy="233.6" r="4.2" fill="#d64545" fill-opacity="0.75"/>
<circle cx="310.2" cy="301.3" r="4.2" fill="#d64545" fill-opacity="0.75"/>
<circle cx="309.0" cy="300.5" r="4.2" fill="#d64545" fill-opacity="0.75"/>
<circle cx="364.7" cy="246.1" r="4.2" fill="#d64545" fill-opacity="0.75"/>
<circle cx="363.9" cy="239.6" r="4.2" fill="#d64545" fill-opacity="0.75"/>
<circle cx="339.4" cy="237.4" r="4.2" fill="#d64545" fill-opacity="0.75"/>
<circle cx="333.5" cy="252.9" r="4.2" fill="#d64545" fill-opacity="0.75"/>
<circle cx="376.4" cy="308.6" r="4.2" fill="#d64545" fill-opacity="0.75"/>
<circle cx="381.9" cy="284.9" r="4.2" fill="#d64545" fill-opacity="0.75"/>
<circle cx="332.9" cy="246.8" r="4.2" fill="#d64545" fill-opacity="0.75"/>
<circle cx="325.1" cy="243.4" r="4.2" fill="#d64545" fill-opacity="0.75"/>
<circle cx="390.3" cy="327.2" r="4.2" fill="#d64545" fill-opacity="0.75"/>
<circle cx="396.2" cy="316.1" r="4.2" fill="#d64545" fill-opacity="0.75"/>
<circle cx="370.2" cy="271.4" r="4.2" fill="#d64545" fill-opacity="0.75"/>
<circle cx="364.5" cy="286.6" r="4.2" fill="#d64545" fill-opacity="0.75"/>
<circle cx="377.6" cy="240.1" r="4.2" fill="#d64545" fill-opacity="0.75"/>
<circle cx="372.7" cy="254.3" r="4.2" fill="#d64545" fill-opacity="0.75"/>
<circle cx="369.7" cy="296.3" r="4.2" fill="#d64545" fill-opacity="0.75"/>
<circle cx="368.9" cy="310.1" r="4.2" fill="#d64545" fill-opacity="0.75"/>
<circle cx="284.8" cy="325.4" r="4.2" fill="#d64545" fill-opacity="0.75"/>
<circle cx="287.6" cy="309.0" r="4.2" fill="#d64545" fill-opacity="0.75"/>
<circle cx="351.4" cy="262.4" r="4.2" fill="#d64545" fill-opacity="0.75"/>
<circle cx="352.0" cy="271.5" r="4.2" fill="#d64545" fill-opacity="0.75"/>
<circle cx="309.2" cy="200.3" r="4.2" fill="#d64545" fill-opacity="0.75"/>
<circle cx="299.1" cy="235.5" r="4.2" fill="#d64545" fill-opacity="0.75"/>
<circle cx="384.6" cy="236.7" r="4.2" fill="#d64545" fill-opacity="0.75"/>
<circle cx="386.7" cy="246.9" r="4.2" fill="#d64545" fill-opacity="0.75"/>
<circle cx="313.4" cy="281.2" r="4.2" fill="#d64545" fill-opacity="0.75"/>
<circle cx="307.5" cy="284.6" r="4.2" fill="#d64545" fill-opacity="0.75"/>
<circle cx="331.6" cy="289.2" r="4.2" fill="#d64545" fill-opacity="0.75"/>
<circle cx="311.3" cy="334.4" r="4.2" fill="#d64545" fill-opacity="0.75"/>
<circle cx="271.9" cy="293.1" r="4.2" fill="#d64545" fill-opacity="0.75"/>
<circle cx="275.7" cy="293.4" r="4.2" fill="#d64545" fill-opacity="0.75"/>
<circle cx="427.6" cy="341.0" r="4.2" fill="#d64545" fill-opacity="0.75"/>
<circle cx="430.9" cy="340.6" r="4.2" fill="#d64545" fill-opacity="0.75"/>
<circle cx="375.4" cy="267.3" r="4.2" fill="#d64545" fill-opacity="0.75"/>
<circle cx="374.6" cy="267.8" r="4.2" fill="#d64545" fill-opacity="0.75"/>
<circle cx="346.0" cy="309.6" r="4.2" fill="#d64545" fill-opacity="0.75"/>
<circle cx="348.6" cy="294.8" r="4.2" fill="#d64545" fill-opacity="0.75"/>
<circle cx="376.0" cy="279.2" r="4.2" fill="#d64545" fill-opacity="0.75"/>
<circle cx="371.5" cy="278.6" r="4.2" fill="#d64545" fill-opacity="0.75"/>
<circle cx="359.7" cy="275.7" r="4.2" fill="#d64545" fill-opacity="0.75"/>
<circle cx="364.4" cy="267.9" r="4.2" fill="#d64545" fill-opacity="0.75"/>
<circle cx="360.8" cy="299.1" r="4.2" fill="#d64545" fill-opacity="0.75"/>
<circle cx="356.4" cy="305.5" r="4.2" fill="#d64545" fill-opacity="0.75"/>
<circle cx="326.2" cy="186.9" r="4.2" fill="#d64545" fill-opacity="0.75"/>
<circle cx="320.3" cy="188.5" r="4.2" fill="#d64545" fill-opacity="0.75"/>
<circle cx="355.8" cy="311.1" r="4.2" fill="#d64545" fill-opacity="0.75"/>
<circle cx="352.5" cy="327.2" r="4.2" fill="#d64545" fill-opacity="0.75"/>
<circle cx="365.5" cy="278.5" r="4.2" fill="#d64545" fill-opacity="0.75"/>
<circle cx="362.8" cy="287.6" r="4.2" fill="#d64545" fill-opacity="0.75"/>
<circle cx="325.3" cy="335.8" r="4.2" fill="#d64545" fill-opacity="0.75"/>
<circle cx="322.6" cy="334.4" r="4.2" fill="#d64545" fill-opacity="0.75"/>
<circle cx="324.0" cy="348.5" r="4.2" fill="#d64545" fill-opacity="0.75"/>
<circle cx="329.9" cy="341.7" r="4.2" fill="#d64545" fill-opacity="0.75"/>
<circle cx="278.7" cy="205.1" r="4.2" fill="#d64545" fill-opacity="0.75"/>
<circle cx="277.7" cy="210.3" r="4.2" fill="#d64545" fill-opacity="0.75"/>
<circle cx="325.3" cy="185.6" r="4.2" fill="#d64545" fill-opacity="0.75"/>
<circle cx="322.0" cy="179.9" r="4.2" fill="#d64545" fill-opacity="0.75"/>
<circle cx="382.6" cy="325.5" r="4.2" fill="#d64545" fill-opacity="0.75"/>
<circle cx="389.1" cy="311.6" r="4.2" fill="#d64545" fill-opacity="0.75"/>
<circle cx="351.0" cy="235.3" r="4.2" fill="#d64545" fill-opacity="0.75"/>
<circle cx="357.6" cy="219.3" r="4.2" fill="#d64545" fill-opacity="0.75"/>
<circle cx="358.7" cy="281.0" r="4.2" fill="#d64545" fill-opacity="0.75"/>
<circle cx="361.8" cy="265.7" r="4.2" fill="#d64545" fill-opacity="0.75"/>
<circle cx="249.4" cy="184.3" r="4.2" fill="#d64545" fill-opacity="0.75"/>
<circle cx="242.5" cy="208.7" r="4.2" fill="#d64545" fill-opacity="0.75"/>
<circle cx="339.3" cy="279.4" r="4.2" fill="#d64545" fill-opacity="0.75"/>
<circle cx="327.0" cy="298.0" r="4.2" fill="#d64545" fill-opacity="0.75"/>
<circle cx="377.0" cy="246.4" r="4.2" fill="#d64545" fill-opacity="0.75"/>
<circle cx="368.9" cy="277.5" r="4.2" fill="#d64545" fill-opacity="0.75"/>
<circle cx="371.2" cy="306.4" r="4.2" fill="#d64545" fill-opacity="0.75"/>
<circle cx="382.0" cy="298.8" r="4.2" fill="#d64545" fill-opacity="0.75"/>
<circle cx="345.0" cy="270.7" r="4.2" fill="#d64545" fill-opacity="0.75"/>
<circle cx="334.9" cy="284.2" r="4.2" fill="#d64545" fill-opacity="0.75"/>
<circle cx="350.3" cy="226.1" r="4.2" fill="#d64545" fill-opacity="0.75"/>
<circle cx="348.7" cy="228.3" r="4.2" fill="#d64545" fill-opacity="0.75"/>
<circle cx="438.9" cy="136.8" r="4.2" fill="#d64545" fill-opacity="0.75"/>
<circle cx="440.4" cy="115.3" r="4.2" fill="#d64545" fill-opacity="0.75"/>
<circle cx="492.0" cy="335.4" r="4.2" fill="#d64545" fill-opacity="0.75"/>
<circle cx="499.7" cy="353.6" r="4.2" fill="#d64545" fill-opacity="0.75"/>
<circle cx="287.5" cy="296.3" r="4.2" fill="#d64545" fill-opacity="0.75"/>
<circle cx="288.4" cy="304.7" r="4.2" fill="#d64545" fill-opacity="0.75"/>
<circle cx="362.2" cy="227.8" r="4.2" fill="#d64545" fill-opacity="0.75"/>
<circle cx="352.8" cy="250.5" r="4.2" fill="#d64545" fill-opacity="0.75"/>
<rect x="750" y="60" width="14" height="14" fill="#2f6fed"/>
<text x="770" y="72" font-size="14" font-family="Arial">photo</text>
<rect x="750" y="84" width="14" height="14" fill="#ff7a00"/>
<text x="770" y="96" font-size="14" font-family="Arial">Hayao</text>
<rect x="750" y="108" width="14" height="14" fill="#1fa971"/>
<text x="770" y="120" font-size="14" font-family="Arial">monet</text>
<rect x="750" y="132" width="14" height="14" fill="#a046f2"/>
<text x="770" y="144" font-size="14" font-family="Arial">vangogh</text>
<rect x="750" y="156" width="14" height="14" fill="#d64545"/>
<text x="770" y="168" font-size="14" font-family="Arial">cezanne</text>
</svg>