<svg xmlns="http://www.w3.org/2000/svg" width="900" height="520" viewBox="0 0 900 520">
<rect width="100%" height="100%" fill="white"/>
<text x="450.0" y="28" text-anchor="middle" font-size="22" font-family="Arial">Intra vs Inter KDE: latent_swd_patch_3_25</text>
<rect x="80" y="50" width="790" height="410" fill="none" stroke="black"/>
<polyline fill="none" stroke="#2f6fed" stroke-width="2.5" points="80.0,176.6 83.3,174.2 86.6,171.9 89.9,169.7 93.2,167.5 96.5,165.5 99.8,163.5 103.1,161.6 106.4,159.8 109.7,158.0 113.1,156.4 116.4,154.8 119.7,153.2 123.0,151.8 126.3,150.4 129.6,149.1 132.9,147.9 136.2,146.7 139.5,145.6 142.8,144.6 146.1,143.6 149.4,142.7 152.7,141.8 156.0,141.0 159.3,140.2 162.6,139.5 165.9,138.8 169.2,138.2 172.6,137.6 175.9,137.1 179.2,136.6 182.5,136.1 185.8,135.7 189.1,135.3 192.4,134.9 195.7,134.6 199.0,134.3 202.3,134.0 205.6,133.8 208.9,133.6 212.2,133.4 215.5,133.3 218.8,133.2 222.1,133.1 225.4,133.0 228.7,133.0 232.1,133.0 235.4,133.1 238.7,133.2 242.0,133.3 245.3,133.4 248.6,133.6 251.9,133.8 255.2,134.0 258.5,134.3 261.8,134.6 265.1,135.0 268.4,135.4 271.7,135.8 275.0,136.3 278.3,136.8 281.6,137.4 284.9,138.0 288.2,138.7 291.5,139.4 294.9,140.1 298.2,140.9 301.5,141.8 304.8,142.7 308.1,143.6 311.4,144.6 314.7,145.7 318.0,146.8 321.3,148.0 324.6,149.2 327.9,150.4 331.2,151.7 334.5,153.1 337.8,154.5 341.1,156.0 344.4,157.5 347.7,159.0 351.0,160.6 354.4,162.3 357.7,164.0 361.0,165.8 364.3,167.5 367.6,169.4 370.9,171.2 374.2,173.2 377.5,175.1 380.8,177.1 384.1,179.1 387.4,181.2 390.7,183.2 394.0,185.4 397.3,187.5 400.6,189.7 403.9,191.9 407.2,194.1 410.5,196.3 413.8,198.6 417.2,200.9 420.5,203.2 423.8,205.5 427.1,207.8 430.4,210.1 433.7,212.5 437.0,214.9 440.3,217.2 443.6,219.6 446.9,222.0 450.2,224.4 453.5,226.8 456.8,229.2 460.1,231.6 463.4,234.0 466.7,236.5 470.0,238.9 473.3,241.3 476.7,243.7 480.0,246.2 483.3,248.6 486.6,251.0 489.9,253.5 493.2,255.9 496.5,258.4 499.8,260.8 503.1,263.3 506.4,265.7 509.7,268.2 513.0,270.6 516.3,273.1 519.6,275.6 522.9,278.0 526.2,280.5 529.5,283.0 532.8,285.5 536.2,288.0 539.5,290.4 542.8,292.9 546.1,295.4 549.4,298.0 552.7,300.5 556.0,303.0 559.3,305.5 562.6,308.0 565.9,310.6 569.2,313.1 572.5,315.6 575.8,318.2 579.1,320.7 582.4,323.3 585.7,325.8 589.0,328.3 592.3,330.9 595.6,333.4 599.0,336.0 602.3,338.5 605.6,341.0 608.9,343.6 612.2,346.1 615.5,348.6 618.8,351.1 622.1,353.6 625.4,356.1 628.7,358.6 632.0,361.1 635.3,363.5 638.6,365.9 641.9,368.3 645.2,370.7 648.5,373.1 651.8,375.5 655.1,377.8 658.5,380.1 661.8,382.4 665.1,384.7 668.4,386.9 671.7,389.1 675.0,391.3 678.3,393.4 681.6,395.5 684.9,397.6 688.2,399.7 691.5,401.7 694.8,403.6 698.1,405.6 701.4,407.5 704.7,409.3 708.0,411.2 711.3,413.0 714.6,414.7 717.9,416.4 721.3,418.1 724.6,419.7 727.9,421.3 731.2,422.9 734.5,424.4 737.8,425.8 741.1,427.3 744.4,428.6 747.7,430.0 751.0,431.3 754.3,432.6 757.6,433.8 760.9,435.0 764.2,436.1 767.5,437.2 770.8,438.3 774.1,439.3 777.4,440.3 780.8,441.3 784.1,442.2 787.4,443.1 790.7,444.0 794.0,444.8 797.3,445.6 800.6,446.3 803.9,447.0 807.2,447.7 810.5,448.4 813.8,449.0 817.1,449.7 820.4,450.2 823.7,450.8 827.0,451.3 830.3,451.8 833.6,452.3 836.9,452.7 840.3,453.2 843.6,453.6 846.9,454.0 850.2,454.4 853.5,454.7 856.8,455.0 860.1,455.3 863.4,455.6 866.7,455.9 870.0,456.2"/>
<polyline fill="none" stroke="#d64545" stroke-width="2.5" points="80.0,375.6 83.3,371.1 86.6,366.5 89.9,361.7 93.2,356.7 96.5,351.7 99.8,346.4 103.1,341.1 106.4,335.6 109.7,330.0 113.1,324.2 116.4,318.4 119.7,312.4 123.0,306.3 126.3,300.1 129.6,293.8 132.9,287.5 136.2,281.0 139.5,274.5 142.8,267.9 146.1,261.3 149.4,254.6 152.7,247.9 156.0,241.2 159.3,234.4 162.6,227.7 165.9,220.9 169.2,214.2 172.6,207.5 175.9,200.8 179.2,194.2 182.5,187.6 185.8,181.1 189.1,174.7 192.4,168.4 195.7,162.1 199.0,156.0 202.3,150.0 205.6,144.2 208.9,138.4 212.2,132.8 215.5,127.4 218.8,122.1 222.1,117.0 225.4,112.0 228.7,107.2 232.1,102.6 235.4,98.2 238.7,94.0 242.0,90.0 245.3,86.2 248.6,82.5 251.9,79.1 255.2,75.8 258.5,72.8 261.8,70.0 265.1,67.3 268.4,64.9 271.7,62.6 275.0,60.6 278.3,58.7 281.6,57.1 284.9,55.6 288.2,54.3 291.5,53.2 294.9,52.2 298.2,51.4 301.5,50.8 304.8,50.4 308.1,50.1 311.4,50.0 314.7,50.0 318.0,50.2 321.3,50.5 324.6,51.0 327.9,51.6 331.2,52.3 334.5,53.1 337.8,54.1 341.1,55.2 344.4,56.4 347.7,57.7 351.0,59.2 354.4,60.7 357.7,62.4 361.0,64.1 364.3,66.0 367.6,67.9 370.9,70.0 374.2,72.1 377.5,74.4 380.8,76.7 384.1,79.1 387.4,81.6 390.7,84.2 394.0,86.8 397.3,89.6 400.6,92.4 403.9,95.3 407.2,98.3 410.5,101.3 413.8,104.5 417.2,107.6 420.5,110.9 423.8,114.2 427.1,117.6 430.4,121.0 433.7,124.5 437.0,128.0 440.3,131.5 443.6,135.1 446.9,138.8 450.2,142.5 453.5,146.2 456.8,149.9 460.1,153.6 463.4,157.4 466.7,161.2 470.0,164.9 473.3,168.7 476.7,172.5 480.0,176.3 483.3,180.0 486.6,183.8 489.9,187.5 493.2,191.2 496.5,194.9 499.8,198.5 503.1,202.1 506.4,205.7 509.7,209.2 513.0,212.7 516.3,216.1 519.6,219.5 522.9,222.9 526.2,226.2 529.5,229.4 532.8,232.6 536.2,235.8 539.5,238.8 542.8,241.9 546.1,244.9 549.4,247.8 552.7,250.7 556.0,253.5 559.3,256.3 562.6,259.0 565.9,261.7 569.2,264.3 572.5,266.9 575.8,269.5 579.1,272.0 582.4,274.5 585.7,276.9 589.0,279.3 592.3,281.7 595.6,284.0 599.0,286.3 602.3,288.6 605.6,290.9 608.9,293.1 612.2,295.3 615.5,297.5 618.8,299.7 622.1,301.9 625.4,304.0 628.7,306.2 632.0,308.3 635.3,310.4 638.6,312.4 641.9,314.5 645.2,316.5 648.5,318.6 651.8,320.6 655.1,322.6 658.5,324.5 661.8,326.5 665.1,328.4 668.4,330.3 671.7,332.2 675.0,334.1 678.3,335.9 681.6,337.7 684.9,339.4 688.2,341.2 691.5,342.9 694.8,344.5 698.1,346.2 701.4,347.8 704.7,349.3 708.0,350.8 711.3,352.3 714.6,353.7 717.9,355.1 721.3,356.4 724.6,357.7 727.9,359.0 731.2,360.2 734.5,361.4 737.8,362.5 741.1,363.6 744.4,364.6 747.7,365.6 751.0,366.6 754.3,367.5 757.6,368.4 760.9,369.3 764.2,370.1 767.5,370.9 770.8,371.7 774.1,372.5 777.4,373.2 780.8,373.9 784.1,374.6 787.4,375.3 790.7,376.0 794.0,376.7 797.3,377.3 800.6,378.0 803.9,378.7 807.2,379.4 810.5,380.1 813.8,380.8 817.1,381.5 820.4,382.2 823.7,382.9 827.0,383.7 830.3,384.5 833.6,385.3 836.9,386.1 840.3,387.0 843.6,387.9 846.9,388.8 850.2,389.8 853.5,390.8 856.8,391.8 860.1,392.8 863.4,393.9 866.7,395.0 870.0,396.1"/>
<text x="740" y="70" font-size="14" font-family="Arial" fill="#2f6fed">intra-class</text>
<text x="740" y="92" font-size="14" font-family="Arial" fill="#d64545">inter-class</text>
</svg>