<svg xmlns="http://www.w3.org/2000/svg" width="260" height="220" viewBox="0 0 260 220">
<rect width="100%" height="100%" fill="white"/>
<text x="130.0" y="28" text-anchor="middle" font-size="20" font-family="Arial">Distance Matrix: latent_swd_patch_3_25</text>
<rect x="70" y="50" width="12" height="12" fill="rgb(255,255,255)" stroke="none"/>
<rect x="82" y="50" width="12" height="12" fill="rgb(255,104,104)" stroke="none"/>
<rect x="94" y="50" width="12" height="12" fill="rgb(255,106,106)" stroke="none"/>
<rect x="106" y="50" width="12" height="12" fill="rgb(255,149,149)" stroke="none"/>
<rect x="118" y="50" width="12" height="12" fill="rgb(255,0,0)" stroke="none"/>
<rect x="130" y="50" width="12" height="12" fill="rgb(255,49,49)" stroke="none"/>
<rect x="142" y="50" width="12" height="12" fill="rgb(255,18,18)" stroke="none"/>
<rect x="154" y="50" width="12" height="12" fill="rgb(255,11,11)" stroke="none"/>
<rect x="166" y="50" width="12" height="12" fill="rgb(255,75,75)" stroke="none"/>
<rect x="178" y="50" width="12" height="12" fill="rgb(255,72,72)" stroke="none"/>
<rect x="70" y="62" width="12" height="12" fill="rgb(255,104,104)" stroke="none"/>
<rect x="82" y="62" width="12" height="12" fill="rgb(255,255,255)" stroke="none"/>
<rect x="94" y="62" width="12" height="12" fill="rgb(255,188,188)" stroke="none"/>
<rect x="106" y="62" width="12" height="12" fill="rgb(255,159,159)" stroke="none"/>
<rect x="118" y="62" width="12" height="12" fill="rgb(255,119,119)" stroke="none"/>
<rect x="130" y="62" width="12" height="12" fill="rgb(255,187,187)" stroke="none"/>
<rect x="142" y="62" width="12" height="12" fill="rgb(255,146,146)" stroke="none"/>
<rect x="154" y="62" width="12" height="12" fill="rgb(255,138,138)" stroke="none"/>
<rect x="166" y="62" width="12" height="12" fill="rgb(255,194,194)" stroke="none"/>
<rect x="178" y="62" width="12" height="12" fill="rgb(255,192,192)" stroke="none"/>
<rect x="70" y="74" width="12" height="12" fill="rgb(255,106,106)" stroke="none"/>
<rect x="82" y="74" width="12" height="12" fill="rgb(255,188,188)" stroke="none"/>
<rect x="94" y="74" width="12" height="12" fill="rgb(255,255,255)" stroke="none"/>
<rect x="106" y="74" width="12" height="12" fill="rgb(255,174,174)" stroke="none"/>
<rect x="118" y="74" width="12" height="12" fill="rgb(255,122,122)" stroke="none"/>
<rect x="130" y="74" width="12" height="12" fill="rgb(255,178,178)" stroke="none"/>
<rect x="142" y="74" width="12" height="12" fill="rgb(255,149,149)" stroke="none"/>
<rect x="154" y="74" width="12" height="12" fill="rgb(255,138,138)" stroke="none"/>
<rect x="166" y="74" width="12" height="12" fill="rgb(255,195,195)" stroke="none"/>
<rect x="178" y="74" width="12" height="12" fill="rgb(255,191,191)" stroke="none"/>
<rect x="70" y="86" width="12" height="12" fill="rgb(255,149,149)" stroke="none"/>
<rect x="82" y="86" width="12" height="12" fill="rgb(255,159,159)" stroke="none"/>
<rect x="94" y="86" width="12" height="12" fill="rgb(255,174,174)" stroke="none"/>
<rect x="106" y="86" width="12" height="12" fill="rgb(255,255,255)" stroke="none"/>
<rect x="118" y="86" width="12" height="12" fill="rgb(255,77,77)" stroke="none"/>
<rect x="130" y="86" width="12" height="12" fill="rgb(255,126,126)" stroke="none"/>
<rect x="142" y="86" width="12" height="12" fill="rgb(255,94,94)" stroke="none"/>
<rect x="154" y="86" width="12" height="12" fill="rgb(255,85,85)" stroke="none"/>
<rect x="166" y="86" width="12" height="12" fill="rgb(255,139,139)" stroke="none"/>
<rect x="178" y="86" width="12" height="12" fill="rgb(255,136,136)" stroke="none"/>
<rect x="70" y="98" width="12" height="12" fill="rgb(255,0,0)" stroke="none"/>
<rect x="82" y="98" width="12" height="12" fill="rgb(255,119,119)" stroke="none"/>
<rect x="94" y="98" width="12" height="12" fill="rgb(255,122,122)" stroke="none"/>
<rect x="106" y="98" width="12" height="12" fill="rgb(255,77,77)" stroke="none"/>
<rect x="118" y="98" width="12" height="12" fill="rgb(255,255,255)" stroke="none"/>
<rect x="130" y="98" width="12" height="12" fill="rgb(255,169,169)" stroke="none"/>
<rect x="142" y="98" width="12" height="12" fill="rgb(255,212,212)" stroke="none"/>
<rect x="154" y="98" width="12" height="12" fill="rgb(255,220,220)" stroke="none"/>
<rect x="166" y="98" width="12" height="12" fill="rgb(255,147,147)" stroke="none"/>
<rect x="178" y="98" width="12" height="12" fill="rgb(255,150,150)" stroke="none"/>
<rect x="70" y="110" width="12" height="12" fill="rgb(255,49,49)" stroke="none"/>
<rect x="82" y="110" width="12" height="12" fill="rgb(255,187,187)" stroke="none"/>
<rect x="94" y="110" width="12" height="12" fill="rgb(255,178,178)" stroke="none"/>
<rect x="106" y="110" width="12" height="12" fill="rgb(255,126,126)" stroke="none"/>
<rect x="118" y="110" width="12" height="12" fill="rgb(255,169,169)" stroke="none"/>
<rect x="130" y="110" width="12" height="12" fill="rgb(255,255,255)" stroke="none"/>
<rect x="142" y="110" width="12" height="12" fill="rgb(255,201,201)" stroke="none"/>
<rect x="154" y="110" width="12" height="12" fill="rgb(255,191,191)" stroke="none"/>
<rect x="166" y="110" width="12" height="12" fill="rgb(255,206,206)" stroke="none"/>
<rect x="178" y="110" width="12" height="12" fill="rgb(255,203,203)" stroke="none"/>
<rect x="70" y="122" width="12" height="12" fill="rgb(255,18,18)" stroke="none"/>
<rect x="82" y="122" width="12" height="12" fill="rgb(255,146,146)" stroke="none"/>
<rect x="94" y="122" width="12" height="12" fill="rgb(255,149,149)" stroke="none"/>
<rect x="106" y="122" width="12" height="12" fill="rgb(255,94,94)" stroke="none"/>
<rect x="118" y="122" width="12" height="12" fill="rgb(255,212,212)" stroke="none"/>
<rect x="130" y="122" width="12" height="12" fill="rgb(255,201,201)" stroke="none"/>
<rect x="142" y="122" width="12" height="12" fill="rgb(255,255,255)" stroke="none"/>
<rect x="154" y="122" width="12" height="12" fill="rgb(255,240,240)" stroke="none"/>
<rect x="166" y="122" width="12" height="12" fill="rgb(255,180,180)" stroke="none"/>
<rect x="178" y="122" width="12" height="12" fill="rgb(255,179,179)" stroke="none"/>
<rect x="70" y="134" width="12" height="12" fill="rgb(255,11,11)" stroke="none"/>
<rect x="82" y="134" width="12" height="12" fill="rgb(255,138,138)" stroke="none"/>
<rect x="94" y="134" width="12" height="12" fill="rgb(255,138,138)" stroke="none"/>
<rect x="106" y="134" width="12" height="12" fill="rgb(255,85,85)" stroke="none"/>
<rect x="118" y="134" width="12" height="12" fill="rgb(255,220,220)" stroke="none"/>
<rect x="130" y="134" width="12" height="12" fill="rgb(255,191,191)" stroke="none"/>
<rect x="142" y="134" width="12" height="12" fill="rgb(255,240,240)" stroke="none"/>
<rect x="154" y="134" width="12" height="12" fill="rgb(255,255,255)" stroke="none"/>
<rect x="166" y="134" width="12" height="12" fill="rgb(255,171,171)" stroke="none"/>
<rect x="178" y="134" width="12" height="12" fill="rgb(255,171,171)" stroke="none"/>
<rect x="70" y="146" width="12" height="12" fill="rgb(255,75,75)" stroke="none"/>
<rect x="82" y="146" width="12" height="12" fill="rgb(255,194,194)" stroke="none"/>
<rect x="94" y="146" width="12" height="12" fill="rgb(255,195,195)" stroke="none"/>
<rect x="106" y="146" width="12" height="12" fill="rgb(255,139,139)" stroke="none"/>
<rect x="118" y="146" width="12" height="12" fill="rgb(255,147,147)" stroke="none"/>
<rect x="130" y="146" width="12" height="12" fill="rgb(255,206,206)" stroke="none"/>
<rect x="142" y="146" width="12" height="12" fill="rgb(255,180,180)" stroke="none"/>
<rect x="154" y="146" width="12" height="12" fill="rgb(255,171,171)" stroke="none"/>
<rect x="166" y="146" width="12" height="12" fill="rgb(255,255,255)" stroke="none"/>
<rect x="178" y="146" width="12" height="12" fill="rgb(255,243,243)" stroke="none"/>
<rect x="70" y="158" width="12" height="12" fill="rgb(255,72,72)" stroke="none"/>
<rect x="82" y="158" width="12" height="12" fill="rgb(255,192,192)" stroke="none"/>
<rect x="94" y="158" width="12" height="12" fill="rgb(255,191,191)" stroke="none"/>
<rect x="106" y="158" width="12" height="12" fill="rgb(255,136,136)" stroke="none"/>
<rect x="118" y="158" width="12" height="12" fill="rgb(255,150,150)" stroke="none"/>
<rect x="130" y="158" width="12" height="12" fill="rgb(255,203,203)" stroke="none"/>
<rect x="142" y="158" width="12" height="12" fill="rgb(255,179,179)" stroke="none"/>
<rect x="154" y="158" width="12" height="12" fill="rgb(255,171,171)" stroke="none"/>
<rect x="166" y="158" width="12" height="12" fill="rgb(255,243,243)" stroke="none"/>
<rect x="178" y="158" width="12" height="12" fill="rgb(255,255,255)" stroke="none"/>
<rect x="70" y="50" width="120" height="120" fill="none" stroke="black"/>
</svg>