<svg xmlns="http://www.w3.org/2000/svg" width="900" height="520" viewBox="0 0 900 520">
<rect width="100%" height="100%" fill="white"/>
<text x="450.0" y="28" text-anchor="middle" font-size="22" font-family="Arial">Intra vs Inter KDE: latent_tree_swd_patch_3_25</text>
<rect x="80" y="50" width="790" height="410" fill="none" stroke="black"/>
<polyline fill="none" stroke="#2f6fed" stroke-width="2.5" points="80.0,176.8 83.3,170.5 86.6,164.3 89.9,158.2 93.2,152.2 96.5,146.2 99.8,140.4 103.1,134.7 106.4,129.1 109.7,123.6 113.1,118.3 116.4,113.1 119.7,108.1 123.0,103.2 126.3,98.6 129.6,94.1 132.9,89.7 136.2,85.6 139.5,81.7 142.8,78.0 146.1,74.5 149.4,71.3 152.7,68.2 156.0,65.4 159.3,62.8 162.6,60.5 165.9,58.4 169.2,56.5 172.6,54.9 175.9,53.5 179.2,52.3 182.5,51.4 185.8,50.7 189.1,50.2 192.4,50.0 195.7,50.0 199.0,50.2 202.3,50.7 205.6,51.3 208.9,52.2 212.2,53.2 215.5,54.5 218.8,55.9 222.1,57.5 225.4,59.3 228.7,61.3 232.1,63.4 235.4,65.6 238.7,68.0 242.0,70.5 245.3,73.1 248.6,75.8 251.9,78.5 255.2,81.4 258.5,84.3 261.8,87.3 265.1,90.3 268.4,93.4 271.7,96.4 275.0,99.5 278.3,102.6 281.6,105.7 284.9,108.7 288.2,111.7 291.5,114.7 294.9,117.6 298.2,120.5 301.5,123.3 304.8,126.0 308.1,128.6 311.4,131.1 314.7,133.5 318.0,135.9 321.3,138.1 324.6,140.2 327.9,142.2 331.2,144.0 334.5,145.8 337.8,147.4 341.1,148.9 344.4,150.2 347.7,151.4 351.0,152.5 354.4,153.5 357.7,154.4 361.0,155.1 364.3,155.7 367.6,156.2 370.9,156.6 374.2,156.9 377.5,157.1 380.8,157.2 384.1,157.2 387.4,157.1 390.7,157.0 394.0,156.8 397.3,156.5 400.6,156.2 403.9,155.9 407.2,155.5 410.5,155.2 413.8,154.8 417.2,154.4 420.5,154.0 423.8,153.7 427.1,153.3 430.4,153.1 433.7,152.8 437.0,152.7 440.3,152.5 443.6,152.5 446.9,152.6 450.2,152.7 453.5,152.9 456.8,153.3 460.1,153.7 463.4,154.3 466.7,155.0 470.0,155.9 473.3,156.8 476.7,158.0 480.0,159.2 483.3,160.6 486.6,162.2 489.9,163.9 493.2,165.8 496.5,167.8 499.8,169.9 503.1,172.3 506.4,174.8 509.7,177.4 513.0,180.2 516.3,183.2 519.6,186.2 522.9,189.5 526.2,192.9 529.5,196.4 532.8,200.0 536.2,203.8 539.5,207.7 542.8,211.7 546.1,215.8 549.4,220.0 552.7,224.4 556.0,228.8 559.3,233.3 562.6,237.8 565.9,242.5 569.2,247.2 572.5,251.9 575.8,256.7 579.1,261.6 582.4,266.5 585.7,271.4 589.0,276.3 592.3,281.2 595.6,286.1 599.0,291.0 602.3,295.9 605.6,300.8 608.9,305.7 612.2,310.5 615.5,315.3 618.8,320.0 622.1,324.7 625.4,329.4 628.7,334.0 632.0,338.5 635.3,342.9 638.6,347.3 641.9,351.6 645.2,355.8 648.5,359.9 651.8,364.0 655.1,367.9 658.5,371.8 661.8,375.5 665.1,379.2 668.4,382.8 671.7,386.2 675.0,389.6 678.3,392.9 681.6,396.0 684.9,399.1 688.2,402.1 691.5,404.9 694.8,407.7 698.1,410.4 701.4,412.9 704.7,415.4 708.0,417.8 711.3,420.0 714.6,422.2 717.9,424.3 721.3,426.3 724.6,428.3 727.9,430.1 731.2,431.8 734.5,433.5 737.8,435.1 741.1,436.6 744.4,438.0 747.7,439.4 751.0,440.7 754.3,441.9 757.6,443.1 760.9,444.2 764.2,445.3 767.5,446.2 770.8,447.2 774.1,448.0 777.4,448.9 780.8,449.6 784.1,450.4 787.4,451.1 790.7,451.7 794.0,452.3 797.3,452.9 800.6,453.4 803.9,453.9 807.2,454.4 810.5,454.8 813.8,455.2 817.1,455.6 820.4,455.9 823.7,456.2 827.0,456.5 830.3,456.8 833.6,457.1 836.9,457.3 840.3,457.5 843.6,457.7 846.9,457.9 850.2,458.1 853.5,458.3 856.8,458.4 860.1,458.6 863.4,458.7 866.7,458.8 870.0,458.9"/>
<polyline fill="none" stroke="#d64545" stroke-width="2.5" points="80.0,322.4 83.3,319.6 86.6,316.8 89.9,314.0 93.2,311.3 96.5,308.5 99.8,305.8 103.1,303.2 106.4,300.5 109.7,297.9 113.1,295.3 116.4,292.8 119.7,290.2 123.0,287.7 126.3,285.2 129.6,282.8 132.9,280.3 136.2,277.9 139.5,275.5 142.8,273.1 146.1,270.7 149.4,268.3 152.7,265.9 156.0,263.5 159.3,261.2 162.6,258.8 165.9,256.4 169.2,254.0 172.6,251.7 175.9,249.3 179.2,246.8 182.5,244.4 185.8,242.0 189.1,239.5 192.4,237.0 195.7,234.6 199.0,232.0 202.3,229.5 205.6,226.9 208.9,224.3 212.2,221.7 215.5,219.1 218.8,216.4 222.1,213.8 225.4,211.1 228.7,208.3 232.1,205.6 235.4,202.8 238.7,200.0 242.0,197.2 245.3,194.4 248.6,191.6 251.9,188.8 255.2,185.9 258.5,183.1 261.8,180.2 265.1,177.4 268.4,174.6 271.7,171.7 275.0,168.9 278.3,166.1 281.6,163.3 284.9,160.5 288.2,157.8 291.5,155.1 294.9,152.4 298.2,149.7 301.5,147.1 304.8,144.5 308.1,141.9 311.4,139.4 314.7,136.9 318.0,134.5 321.3,132.1 324.6,129.7 327.9,127.5 331.2,125.2 334.5,123.0 337.8,120.9 341.1,118.8 344.4,116.8 347.7,114.9 351.0,113.0 354.4,111.1 357.7,109.3 361.0,107.6 364.3,106.0 367.6,104.3 370.9,102.8 374.2,101.3 377.5,99.9 380.8,98.5 384.1,97.2 387.4,95.9 390.7,94.7 394.0,93.6 397.3,92.5 400.6,91.5 403.9,90.6 407.2,89.7 410.5,88.8 413.8,88.1 417.2,87.4 420.5,86.7 423.8,86.1 427.1,85.6 430.4,85.2 433.7,84.8 437.0,84.5 440.3,84.2 443.6,84.1 446.9,84.0 450.2,83.9 453.5,84.0 456.8,84.1 460.1,84.4 463.4,84.7 466.7,85.0 470.0,85.5 473.3,86.1 476.7,86.7 480.0,87.5 483.3,88.3 486.6,89.3 489.9,90.3 493.2,91.5 496.5,92.7 499.8,94.0 503.1,95.5 506.4,97.0 509.7,98.7 513.0,100.5 516.3,102.3 519.6,104.3 522.9,106.4 526.2,108.6 529.5,110.9 532.8,113.3 536.2,115.8 539.5,118.5 542.8,121.2 546.1,124.0 549.4,127.0 552.7,130.0 556.0,133.1 559.3,136.4 562.6,139.7 565.9,143.1 569.2,146.6 572.5,150.2 575.8,153.9 579.1,157.7 582.4,161.5 585.7,165.4 589.0,169.4 592.3,173.4 595.6,177.6 599.0,181.7 602.3,186.0 605.6,190.2 608.9,194.6 612.2,198.9 615.5,203.3 618.8,207.7 622.1,212.2 625.4,216.7 628.7,221.2 632.0,225.7 635.3,230.2 638.6,234.7 641.9,239.3 645.2,243.8 648.5,248.3 651.8,252.8 655.1,257.3 658.5,261.7 661.8,266.1 665.1,270.5 668.4,274.8 671.7,279.1 675.0,283.4 678.3,287.6 681.6,291.8 684.9,295.9 688.2,299.9 691.5,303.9 694.8,307.8 698.1,311.6 701.4,315.4 704.7,319.1 708.0,322.7 711.3,326.2 714.6,329.7 717.9,333.0 721.3,336.3 724.6,339.5 727.9,342.6 731.2,345.7 734.5,348.6 737.8,351.5 741.1,354.3 744.4,356.9 747.7,359.5 751.0,362.1 754.3,364.5 757.6,366.9 760.9,369.1 764.2,371.3 767.5,373.4 770.8,375.5 774.1,377.5 777.4,379.4 780.8,381.2 784.1,383.0 787.4,384.7 790.7,386.3 794.0,387.9 797.3,389.4 800.6,390.9 803.9,392.3 807.2,393.7 810.5,395.1 813.8,396.4 817.1,397.6 820.4,398.9 823.7,400.1 827.0,401.2 830.3,402.4 833.6,403.5 836.9,404.6 840.3,405.7 843.6,406.8 846.9,407.8 850.2,408.8 853.5,409.9 856.8,410.9 860.1,411.9 863.4,412.9 866.7,413.9 870.0,414.9"/>
<text x="740" y="70" font-size="14" font-family="Arial" fill="#2f6fed">intra-class</text>
<text x="740" y="92" font-size="14" font-family="Arial" fill="#d64545">inter-class</text>
</svg>