<svg xmlns="http://www.w3.org/2000/svg" width="900" height="520" viewBox="0 0 900 520">
<rect width="100%" height="100%" fill="white"/>
<text x="450.0" y="28" text-anchor="middle" font-size="22" font-family="Arial">Intra vs Inter KDE: pixel_tree_swd_patch_3_25</text>
<rect x="80" y="50" width="790" height="410" fill="none" stroke="black"/>
<polyline fill="none" stroke="#2f6fed" stroke-width="2.5" points="80.0,160.8 83.3,155.8 86.6,150.8 89.9,145.9 93.2,141.0 96.5,136.3 99.8,131.6 103.1,127.0 106.4,122.5 109.7,118.0 113.1,113.7 116.4,109.5 119.7,105.4 123.0,101.4 126.3,97.5 129.6,93.7 132.9,90.1 136.2,86.6 139.5,83.2 142.8,80.0 146.1,77.0 149.4,74.0 152.7,71.3 156.0,68.6 159.3,66.2 162.6,63.9 165.9,61.8 169.2,59.8 172.6,58.0 175.9,56.4 179.2,55.0 182.5,53.7 185.8,52.7 189.1,51.8 192.4,51.0 195.7,50.5 199.0,50.2 202.3,50.0 205.6,50.0 208.9,50.2 212.2,50.6 215.5,51.2 218.8,51.9 222.1,52.8 225.4,53.9 228.7,55.2 232.1,56.7 235.4,58.3 238.7,60.1 242.0,62.1 245.3,64.2 248.6,66.5 251.9,68.9 255.2,71.5 258.5,74.3 261.8,77.2 265.1,80.2 268.4,83.4 271.7,86.7 275.0,90.2 278.3,93.7 281.6,97.4 284.9,101.2 288.2,105.1 291.5,109.1 294.9,113.2 298.2,117.4 301.5,121.7 304.8,126.1 308.1,130.5 311.4,135.1 314.7,139.6 318.0,144.3 321.3,149.0 324.6,153.7 327.9,158.5 331.2,163.3 334.5,168.1 337.8,173.0 341.1,177.9 344.4,182.8 347.7,187.7 351.0,192.6 354.4,197.5 357.7,202.3 361.0,207.2 364.3,212.1 367.6,216.9 370.9,221.7 374.2,226.4 377.5,231.2 380.8,235.8 384.1,240.5 387.4,245.0 390.7,249.6 394.0,254.0 397.3,258.4 400.6,262.7 403.9,267.0 407.2,271.1 410.5,275.2 413.8,279.3 417.2,283.2 420.5,287.0 423.8,290.8 427.1,294.5 430.4,298.0 433.7,301.5 437.0,304.9 440.3,308.2 443.6,311.4 446.9,314.5 450.2,317.4 453.5,320.3 456.8,323.1 460.1,325.8 463.4,328.4 466.7,330.8 470.0,333.2 473.3,335.5 476.7,337.7 480.0,339.7 483.3,341.7 486.6,343.6 489.9,345.3 493.2,347.0 496.5,348.6 499.8,350.0 503.1,351.4 506.4,352.7 509.7,353.9 513.0,355.0 516.3,356.0 519.6,357.0 522.9,357.8 526.2,358.6 529.5,359.3 532.8,359.9 536.2,360.5 539.5,361.0 542.8,361.4 546.1,361.7 549.4,362.0 552.7,362.3 556.0,362.4 559.3,362.5 562.6,362.6 565.9,362.6 569.2,362.6 572.5,362.5 575.8,362.4 579.1,362.2 582.4,362.1 585.7,361.8 589.0,361.6 592.3,361.3 595.6,361.0 599.0,360.7 602.3,360.4 605.6,360.0 608.9,359.7 612.2,359.3 615.5,358.9 618.8,358.6 622.1,358.2 625.4,357.8 628.7,357.4 632.0,357.1 635.3,356.7 638.6,356.4 641.9,356.0 645.2,355.7 648.5,355.4 651.8,355.1 655.1,354.8 658.5,354.6 661.8,354.4 665.1,354.2 668.4,354.0 671.7,353.9 675.0,353.8 678.3,353.7 681.6,353.7 684.9,353.7 688.2,353.7 691.5,353.7 694.8,353.8 698.1,354.0 701.4,354.2 704.7,354.4 708.0,354.6 711.3,354.9 714.6,355.2 717.9,355.6 721.3,356.0 724.6,356.4 727.9,356.9 731.2,357.5 734.5,358.0 737.8,358.6 741.1,359.3 744.4,359.9 747.7,360.7 751.0,361.4 754.3,362.2 757.6,363.0 760.9,363.9 764.2,364.8 767.5,365.7 770.8,366.7 774.1,367.7 777.4,368.7 780.8,369.7 784.1,370.8 787.4,371.9 790.7,373.0 794.0,374.2 797.3,375.3 800.6,376.5 803.9,377.8 807.2,379.0 810.5,380.2 813.8,381.5 817.1,382.8 820.4,384.1 823.7,385.4 827.0,386.7 830.3,388.0 833.6,389.4 836.9,390.7 840.3,392.1 843.6,393.4 846.9,394.8 850.2,396.1 853.5,397.5 856.8,398.9 860.1,400.2 863.4,401.6 866.7,402.9 870.0,404.3"/>
<polyline fill="none" stroke="#d64545" stroke-width="2.5" points="80.0,320.2 83.3,317.0 86.6,313.8 89.9,310.6 93.2,307.4 96.5,304.2 99.8,301.1 103.1,297.9 106.4,294.8 109.7,291.7 113.1,288.7 116.4,285.6 119.7,282.6 123.0,279.7 126.3,276.8 129.6,273.9 132.9,271.1 136.2,268.3 139.5,265.6 142.8,262.9 146.1,260.2 149.4,257.7 152.7,255.1 156.0,252.7 159.3,250.3 162.6,247.9 165.9,245.6 169.2,243.4 172.6,241.2 175.9,239.1 179.2,237.1 182.5,235.1 185.8,233.2 189.1,231.3 192.4,229.5 195.7,227.8 199.0,226.1 202.3,224.5 205.6,222.9 208.9,221.4 212.2,220.0 215.5,218.6 218.8,217.3 222.1,216.1 225.4,214.9 228.7,213.7 232.1,212.6 235.4,211.6 238.7,210.6 242.0,209.6 245.3,208.7 248.6,207.8 251.9,207.0 255.2,206.2 258.5,205.4 261.8,204.7 265.1,204.0 268.4,203.3 271.7,202.7 275.0,202.1 278.3,201.5 281.6,200.9 284.9,200.3 288.2,199.8 291.5,199.3 294.9,198.8 298.2,198.3 301.5,197.8 304.8,197.3 308.1,196.8 311.4,196.3 314.7,195.8 318.0,195.4 321.3,194.9 324.6,194.4 327.9,193.9 331.2,193.4 334.5,192.9 337.8,192.4 341.1,191.9 344.4,191.4 347.7,190.9 351.0,190.3 354.4,189.8 357.7,189.3 361.0,188.7 364.3,188.2 367.6,187.6 370.9,187.0 374.2,186.5 377.5,185.9 380.8,185.4 384.1,184.8 387.4,184.2 390.7,183.7 394.0,183.1 397.3,182.6 400.6,182.0 403.9,181.5 407.2,181.0 410.5,180.5 413.8,180.1 417.2,179.6 420.5,179.2 423.8,178.8 427.1,178.4 430.4,178.0 433.7,177.7 437.0,177.4 440.3,177.2 443.6,177.0 446.9,176.8 450.2,176.7 453.5,176.6 456.8,176.5 460.1,176.5 463.4,176.6 466.7,176.7 470.0,176.8 473.3,177.0 476.7,177.3 480.0,177.6 483.3,178.0 486.6,178.4 489.9,178.8 493.2,179.3 496.5,179.9 499.8,180.5 503.1,181.2 506.4,181.9 509.7,182.7 513.0,183.6 516.3,184.4 519.6,185.4 522.9,186.3 526.2,187.4 529.5,188.4 532.8,189.5 536.2,190.7 539.5,191.9 542.8,193.1 546.1,194.3 549.4,195.6 552.7,197.0 556.0,198.3 559.3,199.7 562.6,201.1 565.9,202.5 569.2,203.9 572.5,205.4 575.8,206.9 579.1,208.3 582.4,209.8 585.7,211.3 589.0,212.9 592.3,214.4 595.6,215.9 599.0,217.4 602.3,218.9 605.6,220.4 608.9,222.0 612.2,223.5 615.5,225.0 618.8,226.5 622.1,228.0 625.4,229.4 628.7,230.9 632.0,232.4 635.3,233.8 638.6,235.3 641.9,236.7 645.2,238.1 648.5,239.5 651.8,240.9 655.1,242.3 658.5,243.7 661.8,245.1 665.1,246.5 668.4,247.8 671.7,249.2 675.0,250.6 678.3,251.9 681.6,253.3 684.9,254.6 688.2,256.0 691.5,257.3 694.8,258.7 698.1,260.1 701.4,261.4 704.7,262.8 708.0,264.2 711.3,265.6 714.6,267.1 717.9,268.5 721.3,269.9 724.6,271.4 727.9,272.9 731.2,274.4 734.5,276.0 737.8,277.5 741.1,279.1 744.4,280.7 747.7,282.4 751.0,284.0 754.3,285.7 757.6,287.4 760.9,289.2 764.2,291.0 767.5,292.8 770.8,294.6 774.1,296.5 777.4,298.4 780.8,300.4 784.1,302.3 787.4,304.3 790.7,306.4 794.0,308.5 797.3,310.5 800.6,312.7 803.9,314.8 807.2,317.0 810.5,319.2 813.8,321.5 817.1,323.7 820.4,326.0 823.7,328.3 827.0,330.6 830.3,333.0 833.6,335.3 836.9,337.7 840.3,340.1 843.6,342.5 846.9,344.9 850.2,347.3 853.5,349.7 856.8,352.1 860.1,354.6 863.4,357.0 866.7,359.4 870.0,361.8"/>
<text x="740" y="70" font-size="14" font-family="Arial" fill="#2f6fed">intra-class</text>
<text x="740" y="92" font-size="14" font-family="Arial" fill="#d64545">inter-class</text>
</svg>