<svg xmlns="http://www.w3.org/2000/svg" width="900" height="520" viewBox="0 0 900 520">
<rect width="100%" height="100%" fill="white"/>
<text x="450.0" y="28" text-anchor="middle" font-size="22" font-family="Arial">Intra vs Inter KDE: pixel_gram</text>
<rect x="80" y="50" width="790" height="410" fill="none" stroke="black"/>
<polyline fill="none" stroke="#2f6fed" stroke-width="2.5" points="80.0,77.5 83.3,73.3 86.6,69.6 89.9,66.3 93.2,63.4 96.5,61.0 99.8,58.9 103.1,57.3 106.4,56.0 109.7,55.0 113.1,54.4 116.4,54.0 119.7,54.0 123.0,54.1 126.3,54.5 129.6,55.1 132.9,55.8 136.2,56.7 139.5,57.6 142.8,58.6 146.1,59.7 149.4,60.7 152.7,61.8 156.0,62.8 159.3,63.8 162.6,64.6 165.9,65.4 169.2,66.1 172.6,66.6 175.9,67.0 179.2,67.3 182.5,67.4 185.8,67.4 189.1,67.2 192.4,66.8 195.7,66.4 199.0,65.7 202.3,64.9 205.6,64.1 208.9,63.1 212.2,62.0 215.5,60.8 218.8,59.6 222.1,58.4 225.4,57.2 228.7,55.9 232.1,54.8 235.4,53.7 238.7,52.6 242.0,51.8 245.3,51.0 248.6,50.5 251.9,50.1 255.2,50.0 258.5,50.1 261.8,50.6 265.1,51.3 268.4,52.3 271.7,53.7 275.0,55.5 278.3,57.6 281.6,60.2 284.9,63.1 288.2,66.5 291.5,70.2 294.9,74.4 298.2,79.0 301.5,84.1 304.8,89.5 308.1,95.4 311.4,101.7 314.7,108.3 318.0,115.3 321.3,122.7 324.6,130.4 327.9,138.4 331.2,146.7 334.5,155.3 337.8,164.1 341.1,173.1 344.4,182.2 347.7,191.5 351.0,201.0 354.4,210.5 357.7,220.1 361.0,229.6 364.3,239.2 367.6,248.8 370.9,258.3 374.2,267.7 377.5,277.0 380.8,286.1 384.1,295.1 387.4,303.9 390.7,312.5 394.0,320.8 397.3,329.0 400.6,336.8 403.9,344.5 407.2,351.8 410.5,358.9 413.8,365.6 417.2,372.1 420.5,378.3 423.8,384.2 427.1,389.8 430.4,395.1 433.7,400.1 437.0,404.9 440.3,409.3 443.6,413.5 446.9,417.4 450.2,421.1 453.5,424.5 456.8,427.7 460.1,430.6 463.4,433.4 466.7,435.9 470.0,438.2 473.3,440.3 476.7,442.3 480.0,444.1 483.3,445.7 486.6,447.2 489.9,448.6 493.2,449.8 496.5,451.0 499.8,452.0 503.1,452.9 506.4,453.7 509.7,454.4 513.0,455.1 516.3,455.7 519.6,456.2 522.9,456.7 526.2,457.1 529.5,457.5 532.8,457.8 536.2,458.1 539.5,458.3 542.8,458.6 546.1,458.8 549.4,458.9 552.7,459.1 556.0,459.2 559.3,459.3 562.6,459.4 565.9,459.5 569.2,459.6 572.5,459.6 575.8,459.7 579.1,459.7 582.4,459.8 585.7,459.8 589.0,459.8 592.3,459.9 595.6,459.9 599.0,459.9 602.3,459.9 605.6,459.9 608.9,459.9 612.2,460.0 615.5,460.0 618.8,460.0 622.1,460.0 625.4,460.0 628.7,460.0 632.0,460.0 635.3,460.0 638.6,460.0 641.9,460.0 645.2,460.0 648.5,460.0 651.8,460.0 655.1,460.0 658.5,460.0 661.8,460.0 665.1,460.0 668.4,460.0 671.7,460.0 675.0,460.0 678.3,460.0 681.6,460.0 684.9,460.0 688.2,460.0 691.5,460.0 694.8,460.0 698.1,460.0 701.4,460.0 704.7,460.0 708.0,460.0 711.3,460.0 714.6,460.0 717.9,460.0 721.3,460.0 724.6,460.0 727.9,460.0 731.2,460.0 734.5,460.0 737.8,460.0 741.1,460.0 744.4,460.0 747.7,460.0 751.0,460.0 754.3,460.0 757.6,460.0 760.9,460.0 764.2,460.0 767.5,460.0 770.8,460.0 774.1,460.0 777.4,460.0 780.8,460.0 784.1,460.0 787.4,460.0 790.7,460.0 794.0,460.0 797.3,460.0 800.6,460.0 803.9,460.0 807.2,460.0 810.5,460.0 813.8,460.0 817.1,460.0 820.4,460.0 823.7,460.0 827.0,460.0 830.3,460.0 833.6,460.0 836.9,460.0 840.3,460.0 843.6,460.0 846.9,460.0 850.2,460.0 853.5,460.0 856.8,460.0 860.1,460.0 863.4,460.0 866.7,460.0 870.0,460.0"/>
<polyline fill="none" stroke="#d64545" stroke-width="2.5" points="80.0,391.0 83.3,388.2 86.6,385.4 89.9,382.5 93.2,379.6 96.5,376.6 99.8,373.6 103.1,370.5 106.4,367.5 109.7,364.3 113.1,361.2 116.4,358.1 119.7,354.9 123.0,351.7 126.3,348.5 129.6,345.3 132.9,342.1 136.2,338.9 139.5,335.7 142.8,332.5 146.1,329.2 149.4,326.0 152.7,322.9 156.0,319.7 159.3,316.5 162.6,313.4 165.9,310.3 169.2,307.2 172.6,304.1 175.9,301.0 179.2,298.0 182.5,295.0 185.8,292.1 189.1,289.1 192.4,286.2 195.7,283.3 199.0,280.5 202.3,277.7 205.6,274.9 208.9,272.2 212.2,269.5 215.5,266.8 218.8,264.2 222.1,261.6 225.4,259.0 228.7,256.4 232.1,253.9 235.4,251.5 238.7,249.0 242.0,246.6 245.3,244.3 248.6,242.0 251.9,239.7 255.2,237.4 258.5,235.2 261.8,233.0 265.1,230.8 268.4,228.7 271.7,226.6 275.0,224.6 278.3,222.6 281.6,220.6 284.9,218.7 288.2,216.8 291.5,215.0 294.9,213.2 298.2,211.5 301.5,209.8 304.8,208.1 308.1,206.5 311.4,205.0 314.7,203.5 318.0,202.1 321.3,200.7 324.6,199.4 327.9,198.2 331.2,197.0 334.5,195.9 337.8,194.8 341.1,193.9 344.4,193.0 347.7,192.1 351.0,191.4 354.4,190.7 357.7,190.1 361.0,189.5 364.3,189.1 367.6,188.7 370.9,188.4 374.2,188.2 377.5,188.1 380.8,188.1 384.1,188.1 387.4,188.3 390.7,188.5 394.0,188.8 397.3,189.1 400.6,189.6 403.9,190.1 407.2,190.8 410.5,191.5 413.8,192.3 417.2,193.1 420.5,194.0 423.8,195.1 427.1,196.1 430.4,197.3 433.7,198.5 437.0,199.8 440.3,201.1 443.6,202.6 446.9,204.0 450.2,205.6 453.5,207.2 456.8,208.8 460.1,210.5 463.4,212.2 466.7,214.0 470.0,215.8 473.3,217.7 476.7,219.6 480.0,221.5 483.3,223.4 486.6,225.4 489.9,227.4 493.2,229.4 496.5,231.4 499.8,233.5 503.1,235.5 506.4,237.6 509.7,239.6 513.0,241.7 516.3,243.7 519.6,245.8 522.9,247.8 526.2,249.9 529.5,251.9 532.8,253.9 536.2,255.8 539.5,257.8 542.8,259.7 546.1,261.6 549.4,263.5 552.7,265.4 556.0,267.2 559.3,269.0 562.6,270.7 565.9,272.4 569.2,274.1 572.5,275.7 575.8,277.3 579.1,278.9 582.4,280.4 585.7,281.9 589.0,283.3 592.3,284.7 595.6,286.1 599.0,287.4 602.3,288.7 605.6,290.0 608.9,291.2 612.2,292.4 615.5,293.5 618.8,294.6 622.1,295.7 625.4,296.8 628.7,297.8 632.0,298.8 635.3,299.8 638.6,300.8 641.9,301.7 645.2,302.6 648.5,303.5 651.8,304.5 655.1,305.3 658.5,306.2 661.8,307.1 665.1,308.0 668.4,308.9 671.7,309.8 675.0,310.6 678.3,311.5 681.6,312.4 684.9,313.4 688.2,314.3 691.5,315.2 694.8,316.2 698.1,317.2 701.4,318.2 704.7,319.2 708.0,320.3 711.3,321.4 714.6,322.5 717.9,323.6 721.3,324.7 724.6,325.9 727.9,327.2 731.2,328.4 734.5,329.7 737.8,331.0 741.1,332.4 744.4,333.7 747.7,335.1 751.0,336.6 754.3,338.0 757.6,339.5 760.9,341.1 764.2,342.6 767.5,344.2 770.8,345.8 774.1,347.5 777.4,349.1 780.8,350.8 784.1,352.5 787.4,354.2 790.7,356.0 794.0,357.7 797.3,359.5 800.6,361.3 803.9,363.1 807.2,364.9 810.5,366.8 813.8,368.6 817.1,370.4 820.4,372.3 823.7,374.1 827.0,376.0 830.3,377.9 833.6,379.7 836.9,381.6 840.3,383.4 843.6,385.2 846.9,387.1 850.2,388.9 853.5,390.7 856.8,392.5 860.1,394.3 863.4,396.1 866.7,397.8 870.0,399.6"/>
<text x="740" y="70" font-size="14" font-family="Arial" fill="#2f6fed">intra-class</text>
<text x="740" y="92" font-size="14" font-family="Arial" fill="#d64545">inter-class</text>
</svg>