<svg xmlns="http://www.w3.org/2000/svg" width="900" height="520" viewBox="0 0 900 520">
<rect width="100%" height="100%" fill="white"/>
<text x="450.0" y="28" text-anchor="middle" font-size="22" font-family="Arial">Intra vs Inter KDE: pixel_swd_patch_3_25</text>
<rect x="80" y="50" width="790" height="410" fill="none" stroke="black"/>
<polyline fill="none" stroke="#2f6fed" stroke-width="2.5" points="80.0,254.4 83.3,253.5 86.6,252.7 89.9,251.9 93.2,251.2 96.5,250.6 99.8,250.0 103.1,249.5 106.4,249.0 109.7,248.6 113.1,248.2 116.4,247.9 119.7,247.7 123.0,247.5 126.3,247.3 129.6,247.2 132.9,247.1 136.2,247.1 139.5,247.1 142.8,247.1 146.1,247.1 149.4,247.2 152.7,247.3 156.0,247.4 159.3,247.5 162.6,247.7 165.9,247.8 169.2,248.0 172.6,248.1 175.9,248.3 179.2,248.5 182.5,248.6 185.8,248.8 189.1,248.9 192.4,249.0 195.7,249.1 199.0,249.2 202.3,249.3 205.6,249.3 208.9,249.3 212.2,249.3 215.5,249.2 218.8,249.2 222.1,249.0 225.4,248.9 228.7,248.7 232.1,248.4 235.4,248.1 238.7,247.8 242.0,247.4 245.3,247.0 248.6,246.5 251.9,246.0 255.2,245.5 258.5,244.9 261.8,244.2 265.1,243.5 268.4,242.7 271.7,241.9 275.0,241.1 278.3,240.2 281.6,239.3 284.9,238.3 288.2,237.3 291.5,236.2 294.9,235.1 298.2,233.9 301.5,232.8 304.8,231.5 308.1,230.3 311.4,229.0 314.7,227.7 318.0,226.4 321.3,225.1 324.6,223.7 327.9,222.3 331.2,220.9 334.5,219.5 337.8,218.1 341.1,216.7 344.4,215.3 347.7,213.9 351.0,212.5 354.4,211.1 357.7,209.7 361.0,208.3 364.3,207.0 367.6,205.6 370.9,204.3 374.2,203.1 377.5,201.8 380.8,200.7 384.1,199.5 387.4,198.4 390.7,197.3 394.0,196.3 397.3,195.3 400.6,194.4 403.9,193.6 407.2,192.8 410.5,192.1 413.8,191.4 417.2,190.8 420.5,190.3 423.8,189.9 427.1,189.5 430.4,189.2 433.7,189.0 437.0,188.9 440.3,188.8 443.6,188.9 446.9,189.0 450.2,189.2 453.5,189.5 456.8,189.9 460.1,190.3 463.4,190.9 466.7,191.6 470.0,192.3 473.3,193.1 476.7,194.1 480.0,195.1 483.3,196.2 486.6,197.4 489.9,198.7 493.2,200.0 496.5,201.5 499.8,203.0 503.1,204.7 506.4,206.4 509.7,208.2 513.0,210.1 516.3,212.0 519.6,214.0 522.9,216.2 526.2,218.3 529.5,220.6 532.8,222.9 536.2,225.3 539.5,227.8 542.8,230.3 546.1,232.9 549.4,235.5 552.7,238.2 556.0,241.0 559.3,243.8 562.6,246.6 565.9,249.5 569.2,252.4 572.5,255.4 575.8,258.4 579.1,261.5 582.4,264.5 585.7,267.6 589.0,270.8 592.3,273.9 595.6,277.1 599.0,280.3 602.3,283.5 605.6,286.7 608.9,290.0 612.2,293.2 615.5,296.4 618.8,299.7 622.1,302.9 625.4,306.2 628.7,309.4 632.0,312.6 635.3,315.8 638.6,319.0 641.9,322.2 645.2,325.4 648.5,328.5 651.8,331.7 655.1,334.8 658.5,337.9 661.8,340.9 665.1,343.9 668.4,346.9 671.7,349.9 675.0,352.8 678.3,355.7 681.6,358.6 684.9,361.4 688.2,364.2 691.5,366.9 694.8,369.6 698.1,372.3 701.4,374.9 704.7,377.5 708.0,380.0 711.3,382.5 714.6,384.9 717.9,387.3 721.3,389.7 724.6,392.0 727.9,394.2 731.2,396.4 734.5,398.6 737.8,400.7 741.1,402.8 744.4,404.8 747.7,406.7 751.0,408.6 754.3,410.5 757.6,412.3 760.9,414.1 764.2,415.8 767.5,417.5 770.8,419.2 774.1,420.7 777.4,422.3 780.8,423.8 784.1,425.2 787.4,426.7 790.7,428.0 794.0,429.3 797.3,430.6 800.6,431.9 803.9,433.1 807.2,434.2 810.5,435.4 813.8,436.4 817.1,437.5 820.4,438.5 823.7,439.5 827.0,440.4 830.3,441.3 833.6,442.2 836.9,443.0 840.3,443.8 843.6,444.6 846.9,445.3 850.2,446.1 853.5,446.7 856.8,447.4 860.1,448.0 863.4,448.6 866.7,449.2 870.0,449.8"/>
<polyline fill="none" stroke="#d64545" stroke-width="2.5" points="80.0,460.0 83.3,460.0 86.6,460.0 89.9,460.0 93.2,459.9 96.5,459.9 99.8,459.9 103.1,459.9 106.4,459.9 109.7,459.9 113.1,459.9 116.4,459.8 119.7,459.8 123.0,459.8 126.3,459.7 129.6,459.7 132.9,459.6 136.2,459.6 139.5,459.5 142.8,459.4 146.1,459.3 149.4,459.2 152.7,459.1 156.0,458.9 159.3,458.8 162.6,458.6 165.9,458.4 169.2,458.1 172.6,457.9 175.9,457.6 179.2,457.2 182.5,456.9 185.8,456.5 189.1,456.0 192.4,455.5 195.7,454.9 199.0,454.3 202.3,453.6 205.6,452.8 208.9,451.9 212.2,451.0 215.5,450.0 218.8,448.8 222.1,447.6 225.4,446.2 228.7,444.8 232.1,443.2 235.4,441.4 238.7,439.5 242.0,437.5 245.3,435.3 248.6,433.0 251.9,430.5 255.2,427.7 258.5,424.8 261.8,421.8 265.1,418.5 268.4,415.0 271.7,411.2 275.0,407.3 278.3,403.1 281.6,398.8 284.9,394.1 288.2,389.3 291.5,384.2 294.9,378.8 298.2,373.3 301.5,367.5 304.8,361.4 308.1,355.1 311.4,348.6 314.7,341.9 318.0,334.9 321.3,327.8 324.6,320.4 327.9,312.9 331.2,305.1 334.5,297.2 337.8,289.2 341.1,281.0 344.4,272.6 347.7,264.2 351.0,255.7 354.4,247.1 357.7,238.4 361.0,229.8 364.3,221.1 367.6,212.4 370.9,203.7 374.2,195.1 377.5,186.6 380.8,178.1 384.1,169.8 387.4,161.6 390.7,153.6 394.0,145.7 397.3,138.1 400.6,130.7 403.9,123.5 407.2,116.6 410.5,109.9 413.8,103.6 417.2,97.6 420.5,91.9 423.8,86.5 427.1,81.5 430.4,76.9 433.7,72.6 437.0,68.7 440.3,65.1 443.6,62.0 446.9,59.2 450.2,56.8 453.5,54.7 456.8,53.1 460.1,51.8 463.4,50.9 466.7,50.3 470.0,50.0 473.3,50.1 476.7,50.4 480.0,51.1 483.3,52.0 486.6,53.2 489.9,54.6 493.2,56.3 496.5,58.1 499.8,60.1 503.1,62.3 506.4,64.6 509.7,67.0 513.0,69.6 516.3,72.2 519.6,74.8 522.9,77.5 526.2,80.2 529.5,82.9 532.8,85.6 536.2,88.2 539.5,90.8 542.8,93.4 546.1,95.9 549.4,98.2 552.7,100.6 556.0,102.8 559.3,104.9 562.6,106.9 565.9,108.8 569.2,110.6 572.5,112.3 575.8,113.9 579.1,115.4 582.4,116.7 585.7,118.0 589.0,119.2 592.3,120.4 595.6,121.4 599.0,122.4 602.3,123.3 605.6,124.2 608.9,125.0 612.2,125.8 615.5,126.6 618.8,127.4 622.1,128.2 625.4,129.0 628.7,129.8 632.0,130.7 635.3,131.6 638.6,132.5 641.9,133.5 645.2,134.5 648.5,135.6 651.8,136.8 655.1,138.1 658.5,139.4 661.8,140.8 665.1,142.4 668.4,144.0 671.7,145.6 675.0,147.4 678.3,149.3 681.6,151.3 684.9,153.3 688.2,155.5 691.5,157.7 694.8,160.0 698.1,162.4 701.4,164.9 704.7,167.5 708.0,170.1 711.3,172.8 714.6,175.6 717.9,178.5 721.3,181.4 724.6,184.3 727.9,187.4 731.2,190.4 734.5,193.5 737.8,196.7 741.1,199.9 744.4,203.2 747.7,206.4 751.0,209.7 754.3,213.1 757.6,216.4 760.9,219.8 764.2,223.3 767.5,226.7 770.8,230.1 774.1,233.6 777.4,237.1 780.8,240.6 784.1,244.1 787.4,247.6 790.7,251.2 794.0,254.7 797.3,258.3 800.6,261.9 803.9,265.5 807.2,269.1 810.5,272.7 813.8,276.3 817.1,279.9 820.4,283.6 823.7,287.2 827.0,290.9 830.3,294.6 833.6,298.3 836.9,302.0 840.3,305.7 843.6,309.4 846.9,313.2 850.2,316.9 853.5,320.7 856.8,324.4 860.1,328.2 863.4,332.0 866.7,335.7 870.0,339.5"/>
<text x="740" y="70" font-size="14" font-family="Arial" fill="#2f6fed">intra-class</text>
<text x="740" y="92" font-size="14" font-family="Arial" fill="#d64545">inter-class</text>
</svg>