<svg xmlns="http://www.w3.org/2000/svg" width="260" height="220" viewBox="0 0 260 220">
<rect width="100%" height="100%" fill="white"/>
<text x="130.0" y="28" text-anchor="middle" font-size="20" font-family="Arial">Distance Matrix: pixel_swd_patch_3_25</text>
<rect x="70" y="50" width="12" height="12" fill="rgb(255,255,255)" stroke="none"/>
<rect x="82" y="50" width="12" height="12" fill="rgb(255,142,142)" stroke="none"/>
<rect x="94" y="50" width="12" height="12" fill="rgb(255,0,0)" stroke="none"/>
<rect x="106" y="50" width="12" height="12" fill="rgb(255,58,58)" stroke="none"/>
<rect x="118" y="50" width="12" height="12" fill="rgb(255,6,6)" stroke="none"/>
<rect x="130" y="50" width="12" height="12" fill="rgb(255,66,66)" stroke="none"/>
<rect x="142" y="50" width="12" height="12" fill="rgb(255,57,57)" stroke="none"/>
<rect x="154" y="50" width="12" height="12" fill="rgb(255,58,58)" stroke="none"/>
<rect x="166" y="50" width="12" height="12" fill="rgb(255,149,149)" stroke="none"/>
<rect x="178" y="50" width="12" height="12" fill="rgb(255,148,148)" stroke="none"/>
<rect x="70" y="62" width="12" height="12" fill="rgb(255,142,142)" stroke="none"/>
<rect x="82" y="62" width="12" height="12" fill="rgb(255,255,255)" stroke="none"/>
<rect x="94" y="62" width="12" height="12" fill="rgb(255,3,3)" stroke="none"/>
<rect x="106" y="62" width="12" height="12" fill="rgb(255,33,33)" stroke="none"/>
<rect x="118" y="62" width="12" height="12" fill="rgb(255,20,20)" stroke="none"/>
<rect x="130" y="62" width="12" height="12" fill="rgb(255,113,113)" stroke="none"/>
<rect x="142" y="62" width="12" height="12" fill="rgb(255,87,87)" stroke="none"/>
<rect x="154" y="62" width="12" height="12" fill="rgb(255,89,89)" stroke="none"/>
<rect x="166" y="62" width="12" height="12" fill="rgb(255,130,130)" stroke="none"/>
<rect x="178" y="62" width="12" height="12" fill="rgb(255,134,134)" stroke="none"/>
<rect x="70" y="74" width="12" height="12" fill="rgb(255,0,0)" stroke="none"/>
<rect x="82" y="74" width="12" height="12" fill="rgb(255,3,3)" stroke="none"/>
<rect x="94" y="74" width="12" height="12" fill="rgb(255,255,255)" stroke="none"/>
<rect x="106" y="74" width="12" height="12" fill="rgb(255,97,97)" stroke="none"/>
<rect x="118" y="74" width="12" height="12" fill="rgb(255,134,134)" stroke="none"/>
<rect x="130" y="74" width="12" height="12" fill="rgb(255,74,74)" stroke="none"/>
<rect x="142" y="74" width="12" height="12" fill="rgb(255,134,134)" stroke="none"/>
<rect x="154" y="74" width="12" height="12" fill="rgb(255,132,132)" stroke="none"/>
<rect x="166" y="74" width="12" height="12" fill="rgb(255,35,35)" stroke="none"/>
<rect x="178" y="74" width="12" height="12" fill="rgb(255,33,33)" stroke="none"/>
<rect x="70" y="86" width="12" height="12" fill="rgb(255,58,58)" stroke="none"/>
<rect x="82" y="86" width="12" height="12" fill="rgb(255,33,33)" stroke="none"/>
<rect x="94" y="86" width="12" height="12" fill="rgb(255,97,97)" stroke="none"/>
<rect x="106" y="86" width="12" height="12" fill="rgb(255,255,255)" stroke="none"/>
<rect x="118" y="86" width="12" height="12" fill="rgb(255,125,125)" stroke="none"/>
<rect x="130" y="86" width="12" height="12" fill="rgb(255,99,99)" stroke="none"/>
<rect x="142" y="86" width="12" height="12" fill="rgb(255,96,96)" stroke="none"/>
<rect x="154" y="86" width="12" height="12" fill="rgb(255,101,101)" stroke="none"/>
<rect x="166" y="86" width="12" height="12" fill="rgb(255,66,66)" stroke="none"/>
<rect x="178" y="86" width="12" height="12" fill="rgb(255,70,70)" stroke="none"/>
<rect x="70" y="98" width="12" height="12" fill="rgb(255,6,6)" stroke="none"/>
<rect x="82" y="98" width="12" height="12" fill="rgb(255,20,20)" stroke="none"/>
<rect x="94" y="98" width="12" height="12" fill="rgb(255,134,134)" stroke="none"/>
<rect x="106" y="98" width="12" height="12" fill="rgb(255,125,125)" stroke="none"/>
<rect x="118" y="98" width="12" height="12" fill="rgb(255,255,255)" stroke="none"/>
<rect x="130" y="98" width="12" height="12" fill="rgb(255,132,132)" stroke="none"/>
<rect x="142" y="98" width="12" height="12" fill="rgb(255,147,147)" stroke="none"/>
<rect x="154" y="98" width="12" height="12" fill="rgb(255,149,149)" stroke="none"/>
<rect x="166" y="98" width="12" height="12" fill="rgb(255,41,41)" stroke="none"/>
<rect x="178" y="98" width="12" height="12" fill="rgb(255,42,42)" stroke="none"/>
<rect x="70" y="110" width="12" height="12" fill="rgb(255,66,66)" stroke="none"/>
<rect x="82" y="110" width="12" height="12" fill="rgb(255,113,113)" stroke="none"/>
<rect x="94" y="110" width="12" height="12" fill="rgb(255,74,74)" stroke="none"/>
<rect x="106" y="110" width="12" height="12" fill="rgb(255,99,99)" stroke="none"/>
<rect x="118" y="110" width="12" height="12" fill="rgb(255,132,132)" stroke="none"/>
<rect x="130" y="110" width="12" height="12" fill="rgb(255,255,255)" stroke="none"/>
<rect x="142" y="110" width="12" height="12" fill="rgb(255,119,119)" stroke="none"/>
<rect x="154" y="110" width="12" height="12" fill="rgb(255,123,123)" stroke="none"/>
<rect x="166" y="110" width="12" height="12" fill="rgb(255,73,73)" stroke="none"/>
<rect x="178" y="110" width="12" height="12" fill="rgb(255,79,79)" stroke="none"/>
<rect x="70" y="122" width="12" height="12" fill="rgb(255,57,57)" stroke="none"/>
<rect x="82" y="122" width="12" height="12" fill="rgb(255,87,87)" stroke="none"/>
<rect x="94" y="122" width="12" height="12" fill="rgb(255,134,134)" stroke="none"/>
<rect x="106" y="122" width="12" height="12" fill="rgb(255,96,96)" stroke="none"/>
<rect x="118" y="122" width="12" height="12" fill="rgb(255,147,147)" stroke="none"/>
<rect x="130" y="122" width="12" height="12" fill="rgb(255,119,119)" stroke="none"/>
<rect x="142" y="122" width="12" height="12" fill="rgb(255,255,255)" stroke="none"/>
<rect x="154" y="122" width="12" height="12" fill="rgb(255,239,239)" stroke="none"/>
<rect x="166" y="122" width="12" height="12" fill="rgb(255,118,118)" stroke="none"/>
<rect x="178" y="122" width="12" height="12" fill="rgb(255,117,117)" stroke="none"/>
<rect x="70" y="134" width="12" height="12" fill="rgb(255,58,58)" stroke="none"/>
<rect x="82" y="134" width="12" height="12" fill="rgb(255,89,89)" stroke="none"/>
<rect x="94" y="134" width="12" height="12" fill="rgb(255,132,132)" stroke="none"/>
<rect x="106" y="134" width="12" height="12" fill="rgb(255,101,101)" stroke="none"/>
<rect x="118" y="134" width="12" height="12" fill="rgb(255,149,149)" stroke="none"/>
<rect x="130" y="134" width="12" height="12" fill="rgb(255,123,123)" stroke="none"/>
<rect x="142" y="134" width="12" height="12" fill="rgb(255,239,239)" stroke="none"/>
<rect x="154" y="134" width="12" height="12" fill="rgb(255,255,255)" stroke="none"/>
<rect x="166" y="134" width="12" height="12" fill="rgb(255,119,119)" stroke="none"/>
<rect x="178" y="134" width="12" height="12" fill="rgb(255,119,119)" stroke="none"/>
<rect x="70" y="146" width="12" height="12" fill="rgb(255,149,149)" stroke="none"/>
<rect x="82" y="146" width="12" height="12" fill="rgb(255,130,130)" stroke="none"/>
<rect x="94" y="146" width="12" height="12" fill="rgb(255,35,35)" stroke="none"/>
<rect x="106" y="146" width="12" height="12" fill="rgb(255,66,66)" stroke="none"/>
<rect x="118" y="146" width="12" height="12" fill="rgb(255,41,41)" stroke="none"/>
<rect x="130" y="146" width="12" height="12" fill="rgb(255,73,73)" stroke="none"/>
<rect x="142" y="146" width="12" height="12" fill="rgb(255,118,118)" stroke="none"/>
<rect x="154" y="146" width="12" height="12" fill="rgb(255,119,119)" stroke="none"/>
<rect x="166" y="146" width="12" height="12" fill="rgb(255,255,255)" stroke="none"/>
<rect x="178" y="146" width="12" height="12" fill="rgb(255,235,235)" stroke="none"/>
<rect x="70" y="158" width="12" height="12" fill="rgb(255,148,148)" stroke="none"/>
<rect x="82" y="158" width="12" height="12" fill="rgb(255,134,134)" stroke="none"/>
<rect x="94" y="158" width="12" height="12" fill="rgb(255,33,33)" stroke="none"/>
<rect x="106" y="158" width="12" height="12" fill="rgb(255,70,70)" stroke="none"/>
<rect x="118" y="158" width="12" height="12" fill="rgb(255,42,42)" stroke="none"/>
<rect x="130" y="158" width="12" height="12" fill="rgb(255,79,79)" stroke="none"/>
<rect x="142" y="158" width="12" height="12" fill="rgb(255,117,117)" stroke="none"/>
<rect x="154" y="158" width="12" height="12" fill="rgb(255,119,119)" stroke="none"/>
<rect x="166" y="158" width="12" height="12" fill="rgb(255,235,235)" stroke="none"/>
<rect x="178" y="158" width="12" height="12" fill="rgb(255,255,255)" stroke="none"/>
<rect x="70" y="50" width="120" height="120" fill="none" stroke="black"/>
</svg>