<svg xmlns="http://www.w3.org/2000/svg" width="900" height="520" viewBox="0 0 900 520">
<rect width="100%" height="100%" fill="white"/>
<text x="450.0" y="28" text-anchor="middle" font-size="22" font-family="Arial">Intra vs Inter KDE: latent_swd_patch_3_25</text>
<rect x="80" y="50" width="790" height="410" fill="none" stroke="black"/>
<polyline fill="none" stroke="#2f6fed" stroke-width="2.5" points="80.0,205.0 83.3,203.5 86.6,202.0 89.9,200.6 93.2,199.2 96.5,197.9 99.8,196.6 103.1,195.4 106.4,194.3 109.7,193.2 113.1,192.2 116.4,191.2 119.7,190.3 123.0,189.4 126.3,188.6 129.6,187.8 132.9,187.1 136.2,186.5 139.5,185.9 142.8,185.3 146.1,184.8 149.4,184.4 152.7,184.0 156.0,183.7 159.3,183.4 162.6,183.2 165.9,183.0 169.2,182.9 172.6,182.8 175.9,182.7 179.2,182.7 182.5,182.8 185.8,182.9 189.1,183.0 192.4,183.2 195.7,183.4 199.0,183.6 202.3,183.9 205.6,184.3 208.9,184.6 212.2,185.0 215.5,185.5 218.8,185.9 222.1,186.4 225.4,186.9 228.7,187.5 232.1,188.0 235.4,188.6 238.7,189.3 242.0,189.9 245.3,190.6 248.6,191.3 251.9,192.0 255.2,192.7 258.5,193.4 261.8,194.2 265.1,194.9 268.4,195.7 271.7,196.5 275.0,197.3 278.3,198.1 281.6,198.9 284.9,199.7 288.2,200.5 291.5,201.3 294.9,202.2 298.2,203.0 301.5,203.8 304.8,204.6 308.1,205.5 311.4,206.3 314.7,207.1 318.0,207.9 321.3,208.7 324.6,209.5 327.9,210.3 331.2,211.1 334.5,211.9 337.8,212.6 341.1,213.4 344.4,214.1 347.7,214.9 351.0,215.6 354.4,216.3 357.7,217.0 361.0,217.7 364.3,218.4 367.6,219.1 370.9,219.7 374.2,220.4 377.5,221.0 380.8,221.6 384.1,222.3 387.4,222.9 390.7,223.4 394.0,224.0 397.3,224.6 400.6,225.1 403.9,225.6 407.2,226.2 410.5,226.7 413.8,227.2 417.2,227.7 420.5,228.1 423.8,228.6 427.1,229.1 430.4,229.5 433.7,230.0 437.0,230.4 440.3,230.8 443.6,231.3 446.9,231.7 450.2,232.1 453.5,232.5 456.8,232.9 460.1,233.3 463.4,233.7 466.7,234.1 470.0,234.5 473.3,234.9 476.7,235.3 480.0,235.7 483.3,236.1 486.6,236.5 489.9,237.0 493.2,237.4 496.5,237.8 499.8,238.2 503.1,238.7 506.4,239.1 509.7,239.6 513.0,240.1 516.3,240.5 519.6,241.0 522.9,241.5 526.2,242.1 529.5,242.6 532.8,243.2 536.2,243.7 539.5,244.3 542.8,244.9 546.1,245.5 549.4,246.2 552.7,246.8 556.0,247.5 559.3,248.2 562.6,248.9 565.9,249.7 569.2,250.4 572.5,251.2 575.8,252.1 579.1,252.9 582.4,253.8 585.7,254.6 589.0,255.6 592.3,256.5 595.6,257.5 599.0,258.5 602.3,259.5 605.6,260.5 608.9,261.6 612.2,262.7 615.5,263.8 618.8,265.0 622.1,266.2 625.4,267.4 628.7,268.6 632.0,269.9 635.3,271.2 638.6,272.5 641.9,273.8 645.2,275.2 648.5,276.6 651.8,278.0 655.1,279.5 658.5,281.0 661.8,282.5 665.1,284.0 668.4,285.5 671.7,287.1 675.0,288.7 678.3,290.3 681.6,292.0 684.9,293.6 688.2,295.3 691.5,297.0 694.8,298.8 698.1,300.5 701.4,302.3 704.7,304.0 708.0,305.8 711.3,307.6 714.6,309.5 717.9,311.3 721.3,313.2 724.6,315.0 727.9,316.9 731.2,318.8 734.5,320.7 737.8,322.6 741.1,324.5 744.4,326.5 747.7,328.4 751.0,330.3 754.3,332.3 757.6,334.2 760.9,336.2 764.2,338.1 767.5,340.1 770.8,342.0 774.1,344.0 777.4,345.9 780.8,347.9 784.1,349.8 787.4,351.8 790.7,353.7 794.0,355.6 797.3,357.5 800.6,359.5 803.9,361.4 807.2,363.3 810.5,365.2 813.8,367.0 817.1,368.9 820.4,370.8 823.7,372.6 827.0,374.4 830.3,376.2 833.6,378.0 836.9,379.8 840.3,381.6 843.6,383.3 846.9,385.1 850.2,386.8 853.5,388.5 856.8,390.2 860.1,391.8 863.4,393.5 866.7,395.1 870.0,396.7"/>
<polyline fill="none" stroke="#d64545" stroke-width="2.5" points="80.0,420.6 83.3,419.0 86.6,417.3 89.9,415.6 93.2,413.9 96.5,412.1 99.8,410.3 103.1,408.4 106.4,406.5 109.7,404.6 113.1,402.6 116.4,400.6 119.7,398.5 123.0,396.4 126.3,394.3 129.6,392.1 132.9,389.9 136.2,387.6 139.5,385.2 142.8,382.8 146.1,380.3 149.4,377.8 152.7,375.3 156.0,372.6 159.3,369.9 162.6,367.1 165.9,364.3 169.2,361.4 172.6,358.4 175.9,355.3 179.2,352.2 182.5,349.0 185.8,345.7 189.1,342.3 192.4,338.8 195.7,335.3 199.0,331.6 202.3,327.9 205.6,324.1 208.9,320.1 212.2,316.1 215.5,312.0 218.8,307.8 222.1,303.6 225.4,299.2 228.7,294.7 232.1,290.2 235.4,285.6 238.7,280.9 242.0,276.1 245.3,271.3 248.6,266.3 251.9,261.4 255.2,256.3 258.5,251.2 261.8,246.1 265.1,240.9 268.4,235.6 271.7,230.4 275.0,225.1 278.3,219.8 281.6,214.5 284.9,209.1 288.2,203.8 291.5,198.5 294.9,193.2 298.2,187.9 301.5,182.7 304.8,177.5 308.1,172.3 311.4,167.2 314.7,162.1 318.0,157.1 321.3,152.2 324.6,147.4 327.9,142.6 331.2,138.0 334.5,133.4 337.8,128.9 341.1,124.6 344.4,120.3 347.7,116.2 351.0,112.1 354.4,108.2 357.7,104.5 361.0,100.8 364.3,97.3 367.6,93.9 370.9,90.6 374.2,87.5 377.5,84.5 380.8,81.6 384.1,78.9 387.4,76.3 390.7,73.8 394.0,71.5 397.3,69.3 400.6,67.2 403.9,65.3 407.2,63.5 410.5,61.8 413.8,60.2 417.2,58.8 420.5,57.5 423.8,56.3 427.1,55.2 430.4,54.2 433.7,53.3 437.0,52.6 440.3,51.9 443.6,51.3 446.9,50.9 450.2,50.5 453.5,50.3 456.8,50.1 460.1,50.0 463.4,50.0 466.7,50.1 470.0,50.3 473.3,50.5 476.7,50.9 480.0,51.3 483.3,51.8 486.6,52.3 489.9,53.0 493.2,53.7 496.5,54.4 499.8,55.3 503.1,56.2 506.4,57.2 509.7,58.2 513.0,59.4 516.3,60.5 519.6,61.8 522.9,63.1 526.2,64.4 529.5,65.9 532.8,67.4 536.2,68.9 539.5,70.5 542.8,72.2 546.1,74.0 549.4,75.8 552.7,77.6 556.0,79.5 559.3,81.5 562.6,83.6 565.9,85.7 569.2,87.9 572.5,90.1 575.8,92.4 579.1,94.8 582.4,97.2 585.7,99.7 589.0,102.2 592.3,104.8 595.6,107.5 599.0,110.2 602.3,113.0 605.6,115.9 608.9,118.8 612.2,121.8 615.5,124.8 618.8,127.9 622.1,131.0 625.4,134.2 628.7,137.4 632.0,140.7 635.3,144.0 638.6,147.3 641.9,150.7 645.2,154.1 648.5,157.5 651.8,161.0 655.1,164.5 658.5,168.0 661.8,171.5 665.1,175.0 668.4,178.5 671.7,182.0 675.0,185.5 678.3,189.0 681.6,192.4 684.9,195.9 688.2,199.3 691.5,202.6 694.8,206.0 698.1,209.3 701.4,212.5 704.7,215.7 708.0,218.8 711.3,221.9 714.6,224.9 717.9,227.9 721.3,230.8 724.6,233.6 727.9,236.3 731.2,239.0 734.5,241.6 737.8,244.1 741.1,246.6 744.4,249.0 747.7,251.3 751.0,253.5 754.3,255.7 757.6,257.8 760.9,259.9 764.2,261.9 767.5,263.8 770.8,265.7 774.1,267.5 777.4,269.3 780.8,271.0 784.1,272.7 787.4,274.4 790.7,276.1 794.0,277.7 797.3,279.4 800.6,281.0 803.9,282.6 807.2,284.2 810.5,285.9 813.8,287.5 817.1,289.2 820.4,290.9 823.7,292.6 827.0,294.4 830.3,296.2 833.6,298.0 836.9,299.9 840.3,301.8 843.6,303.8 846.9,305.9 850.2,308.0 853.5,310.1 856.8,312.3 860.1,314.6 863.4,316.9 866.7,319.3 870.0,321.8"/>
<text x="740" y="70" font-size="14" font-family="Arial" fill="#2f6fed">intra-class</text>
<text x="740" y="92" font-size="14" font-family="Arial" fill="#d64545">inter-class</text>
</svg>