<svg xmlns="http://www.w3.org/2000/svg" width="260" height="220" viewBox="0 0 260 220">
<rect width="100%" height="100%" fill="white"/>
<text x="130.0" y="28" text-anchor="middle" font-size="20" font-family="Arial">Distance Matrix: latent_tree_swd_patch_3_25</text>
<rect x="70" y="50" width="12" height="12" fill="rgb(255,255,255)" stroke="none"/>
<rect x="82" y="50" width="12" height="12" fill="rgb(255,118,118)" stroke="none"/>
<rect x="94" y="50" width="12" height="12" fill="rgb(255,67,67)" stroke="none"/>
<rect x="106" y="50" width="12" height="12" fill="rgb(255,89,89)" stroke="none"/>
<rect x="118" y="50" width="12" height="12" fill="rgb(255,44,44)" stroke="none"/>
<rect x="130" y="50" width="12" height="12" fill="rgb(255,70,70)" stroke="none"/>
<rect x="142" y="50" width="12" height="12" fill="rgb(255,52,52)" stroke="none"/>
<rect x="154" y="50" width="12" height="12" fill="rgb(255,100,100)" stroke="none"/>
<rect x="166" y="50" width="12" height="12" fill="rgb(255,122,122)" stroke="none"/>
<rect x="178" y="50" width="12" height="12" fill="rgb(255,166,166)" stroke="none"/>
<rect x="70" y="62" width="12" height="12" fill="rgb(255,118,118)" stroke="none"/>
<rect x="82" y="62" width="12" height="12" fill="rgb(255,255,255)" stroke="none"/>
<rect x="94" y="62" width="12" height="12" fill="rgb(255,89,89)" stroke="none"/>
<rect x="106" y="62" width="12" height="12" fill="rgb(255,144,144)" stroke="none"/>
<rect x="118" y="62" width="12" height="12" fill="rgb(255,96,96)" stroke="none"/>
<rect x="130" y="62" width="12" height="12" fill="rgb(255,144,144)" stroke="none"/>
<rect x="142" y="62" width="12" height="12" fill="rgb(255,118,118)" stroke="none"/>
<rect x="154" y="62" width="12" height="12" fill="rgb(255,152,152)" stroke="none"/>
<rect x="166" y="62" width="12" height="12" fill="rgb(255,152,152)" stroke="none"/>
<rect x="178" y="62" width="12" height="12" fill="rgb(255,133,133)" stroke="none"/>
<rect x="70" y="74" width="12" height="12" fill="rgb(255,67,67)" stroke="none"/>
<rect x="82" y="74" width="12" height="12" fill="rgb(255,89,89)" stroke="none"/>
<rect x="94" y="74" width="12" height="12" fill="rgb(255,255,255)" stroke="none"/>
<rect x="106" y="74" width="12" height="12" fill="rgb(255,152,152)" stroke="none"/>
<rect x="118" y="74" width="12" height="12" fill="rgb(255,81,81)" stroke="none"/>
<rect x="130" y="74" width="12" height="12" fill="rgb(255,103,103)" stroke="none"/>
<rect x="142" y="74" width="12" height="12" fill="rgb(255,96,96)" stroke="none"/>
<rect x="154" y="74" width="12" height="12" fill="rgb(255,103,103)" stroke="none"/>
<rect x="166" y="74" width="12" height="12" fill="rgb(255,70,70)" stroke="none"/>
<rect x="178" y="74" width="12" height="12" fill="rgb(255,0,0)" stroke="none"/>
<rect x="70" y="86" width="12" height="12" fill="rgb(255,89,89)" stroke="none"/>
<rect x="82" y="86" width="12" height="12" fill="rgb(255,144,144)" stroke="none"/>
<rect x="94" y="86" width="12" height="12" fill="rgb(255,152,152)" stroke="none"/>
<rect x="106" y="86" width="12" height="12" fill="rgb(255,255,255)" stroke="none"/>
<rect x="118" y="86" width="12" height="12" fill="rgb(255,126,126)" stroke="none"/>
<rect x="130" y="86" width="12" height="12" fill="rgb(255,133,133)" stroke="none"/>
<rect x="142" y="86" width="12" height="12" fill="rgb(255,78,78)" stroke="none"/>
<rect x="154" y="86" width="12" height="12" fill="rgb(255,103,103)" stroke="none"/>
<rect x="166" y="86" width="12" height="12" fill="rgb(255,63,63)" stroke="none"/>
<rect x="178" y="86" width="12" height="12" fill="rgb(255,137,137)" stroke="none"/>
<rect x="70" y="98" width="12" height="12" fill="rgb(255,44,44)" stroke="none"/>
<rect x="82" y="98" width="12" height="12" fill="rgb(255,96,96)" stroke="none"/>
<rect x="94" y="98" width="12" height="12" fill="rgb(255,81,81)" stroke="none"/>
<rect x="106" y="98" width="12" height="12" fill="rgb(255,126,126)" stroke="none"/>
<rect x="118" y="98" width="12" height="12" fill="rgb(255,255,255)" stroke="none"/>
<rect x="130" y="98" width="12" height="12" fill="rgb(255,185,185)" stroke="none"/>
<rect x="142" y="98" width="12" height="12" fill="rgb(255,163,163)" stroke="none"/>
<rect x="154" y="98" width="12" height="12" fill="rgb(255,159,159)" stroke="none"/>
<rect x="166" y="98" width="12" height="12" fill="rgb(255,203,203)" stroke="none"/>
<rect x="178" y="98" width="12" height="12" fill="rgb(255,155,155)" stroke="none"/>
<rect x="70" y="110" width="12" height="12" fill="rgb(255,70,70)" stroke="none"/>
<rect x="82" y="110" width="12" height="12" fill="rgb(255,144,144)" stroke="none"/>
<rect x="94" y="110" width="12" height="12" fill="rgb(255,103,103)" stroke="none"/>
<rect x="106" y="110" width="12" height="12" fill="rgb(255,133,133)" stroke="none"/>
<rect x="118" y="110" width="12" height="12" fill="rgb(255,185,185)" stroke="none"/>
<rect x="130" y="110" width="12" height="12" fill="rgb(255,255,255)" stroke="none"/>
<rect x="142" y="110" width="12" height="12" fill="rgb(255,144,144)" stroke="none"/>
<rect x="154" y="110" width="12" height="12" fill="rgb(255,115,115)" stroke="none"/>
<rect x="166" y="110" width="12" height="12" fill="rgb(255,137,137)" stroke="none"/>
<rect x="178" y="110" width="12" height="12" fill="rgb(255,137,137)" stroke="none"/>
<rect x="70" y="122" width="12" height="12" fill="rgb(255,52,52)" stroke="none"/>
<rect x="82" y="122" width="12" height="12" fill="rgb(255,118,118)" stroke="none"/>
<rect x="94" y="122" width="12" height="12" fill="rgb(255,96,96)" stroke="none"/>
<rect x="106" y="122" width="12" height="12" fill="rgb(255,78,78)" stroke="none"/>
<rect x="118" y="122" width="12" height="12" fill="rgb(255,163,163)" stroke="none"/>
<rect x="130" y="122" width="12" height="12" fill="rgb(255,144,144)" stroke="none"/>
<rect x="142" y="122" width="12" height="12" fill="rgb(255,255,255)" stroke="none"/>
<rect x="154" y="122" width="12" height="12" fill="rgb(255,181,181)" stroke="none"/>
<rect x="166" y="122" width="12" height="12" fill="rgb(255,192,192)" stroke="none"/>
<rect x="178" y="122" width="12" height="12" fill="rgb(255,126,126)" stroke="none"/>
<rect x="70" y="134" width="12" height="12" fill="rgb(255,100,100)" stroke="none"/>
<rect x="82" y="134" width="12" height="12" fill="rgb(255,152,152)" stroke="none"/>
<rect x="94" y="134" width="12" height="12" fill="rgb(255,103,103)" stroke="none"/>
<rect x="106" y="134" width="12" height="12" fill="rgb(255,103,103)" stroke="none"/>
<rect x="118" y="134" width="12" height="12" fill="rgb(255,159,159)" stroke="none"/>
<rect x="130" y="134" width="12" height="12" fill="rgb(255,115,115)" stroke="none"/>
<rect x="142" y="134" width="12" height="12" fill="rgb(255,181,181)" stroke="none"/>
<rect x="154" y="134" width="12" height="12" fill="rgb(255,255,255)" stroke="none"/>
<rect x="166" y="134" width="12" height="12" fill="rgb(255,148,148)" stroke="none"/>
<rect x="178" y="134" width="12" height="12" fill="rgb(255,148,148)" stroke="none"/>
<rect x="70" y="146" width="12" height="12" fill="rgb(255,122,122)" stroke="none"/>
<rect x="82" y="146" width="12" height="12" fill="rgb(255,152,152)" stroke="none"/>
<rect x="94" y="146" width="12" height="12" fill="rgb(255,70,70)" stroke="none"/>
<rect x="106" y="146" width="12" height="12" fill="rgb(255,63,63)" stroke="none"/>
<rect x="118" y="146" width="12" height="12" fill="rgb(255,203,203)" stroke="none"/>
<rect x="130" y="146" width="12" height="12" fill="rgb(255,137,137)" stroke="none"/>
<rect x="142" y="146" width="12" height="12" fill="rgb(255,192,192)" stroke="none"/>
<rect x="154" y="146" width="12" height="12" fill="rgb(255,148,148)" stroke="none"/>
<rect x="166" y="146" width="12" height="12" fill="rgb(255,255,255)" stroke="none"/>
<rect x="178" y="146" width="12" height="12" fill="rgb(255,129,129)" stroke="none"/>
<rect x="70" y="158" width="12" height="12" fill="rgb(255,166,166)" stroke="none"/>
<rect x="82" y="158" width="12" height="12" fill="rgb(255,133,133)" stroke="none"/>
<rect x="94" y="158" width="12" height="12" fill="rgb(255,0,0)" stroke="none"/>
<rect x="106" y="158" width="12" height="12" fill="rgb(255,137,137)" stroke="none"/>
<rect x="118" y="158" width="12" height="12" fill="rgb(255,155,155)" stroke="none"/>
<rect x="130" y="158" width="12" height="12" fill="rgb(255,137,137)" stroke="none"/>
<rect x="142" y="158" width="12" height="12" fill="rgb(255,126,126)" stroke="none"/>
<rect x="154" y="158" width="12" height="12" fill="rgb(255,148,148)" stroke="none"/>
<rect x="166" y="158" width="12" height="12" fill="rgb(255,129,129)" stroke="none"/>
<rect x="178" y="158" width="12" height="12" fill="rgb(255,255,255)" stroke="none"/>
<rect x="70" y="50" width="120" height="120" fill="none" stroke="black"/>
</svg>