<svg xmlns="http://www.w3.org/2000/svg" width="900" height="520" viewBox="0 0 900 520">
<rect width="100%" height="100%" fill="white"/>
<text x="450.0" y="28" text-anchor="middle" font-size="22" font-family="Arial">Intra vs Inter KDE: pixel_tree_swd_patch_3_25</text>
<rect x="80" y="50" width="790" height="410" fill="none" stroke="black"/>
<polyline fill="none" stroke="#2f6fed" stroke-width="2.5" points="80.0,253.2 83.3,249.2 86.6,245.2 89.9,241.4 93.2,237.5 96.5,233.8 99.8,230.1 103.1,226.5 106.4,223.0 109.7,219.5 113.1,216.2 116.4,212.9 119.7,209.7 123.0,206.6 126.3,203.6 129.6,200.7 132.9,197.9 136.2,195.2 139.5,192.5 142.8,190.0 146.1,187.6 149.4,185.2 152.7,183.0 156.0,180.8 159.3,178.8 162.6,176.8 165.9,174.9 169.2,173.1 172.6,171.4 175.9,169.7 179.2,168.1 182.5,166.6 185.8,165.2 189.1,163.8 192.4,162.5 195.7,161.2 199.0,160.0 202.3,158.9 205.6,157.7 208.9,156.7 212.2,155.6 215.5,154.6 218.8,153.6 222.1,152.7 225.4,151.7 228.7,150.8 232.1,149.9 235.4,149.0 238.7,148.1 242.0,147.2 245.3,146.3 248.6,145.4 251.9,144.5 255.2,143.6 258.5,142.7 261.8,141.8 265.1,140.8 268.4,139.9 271.7,138.9 275.0,138.0 278.3,137.0 281.6,136.0 284.9,135.0 288.2,134.0 291.5,133.0 294.9,132.0 298.2,131.0 301.5,130.0 304.8,128.9 308.1,127.9 311.4,126.9 314.7,125.9 318.0,124.9 321.3,124.0 324.6,123.0 327.9,122.1 331.2,121.3 334.5,120.4 337.8,119.6 341.1,118.8 344.4,118.1 347.7,117.4 351.0,116.8 354.4,116.3 357.7,115.8 361.0,115.4 364.3,115.0 367.6,114.7 370.9,114.5 374.2,114.4 377.5,114.4 380.8,114.5 384.1,114.6 387.4,114.9 390.7,115.2 394.0,115.7 397.3,116.2 400.6,116.9 403.9,117.6 407.2,118.5 410.5,119.5 413.8,120.6 417.2,121.8 420.5,123.1 423.8,124.5 427.1,126.0 430.4,127.7 433.7,129.4 437.0,131.3 440.3,133.3 443.6,135.4 446.9,137.6 450.2,139.9 453.5,142.3 456.8,144.8 460.1,147.4 463.4,150.2 466.7,153.0 470.0,155.9 473.3,158.9 476.7,162.0 480.0,165.2 483.3,168.4 486.6,171.8 489.9,175.2 493.2,178.7 496.5,182.3 499.8,185.9 503.1,189.6 506.4,193.4 509.7,197.2 513.0,201.1 516.3,205.0 519.6,209.0 522.9,213.1 526.2,217.1 529.5,221.3 532.8,225.4 536.2,229.6 539.5,233.8 542.8,238.1 546.1,242.3 549.4,246.6 552.7,250.9 556.0,255.2 559.3,259.5 562.6,263.9 565.9,268.2 569.2,272.5 572.5,276.8 575.8,281.1 579.1,285.4 582.4,289.7 585.7,294.0 589.0,298.2 592.3,302.4 595.6,306.6 599.0,310.8 602.3,314.9 605.6,319.0 608.9,323.0 612.2,327.1 615.5,331.0 618.8,334.9 622.1,338.8 625.4,342.6 628.7,346.4 632.0,350.1 635.3,353.8 638.6,357.4 641.9,360.9 645.2,364.4 648.5,367.8 651.8,371.2 655.1,374.4 658.5,377.6 661.8,380.8 665.1,383.9 668.4,386.9 671.7,389.8 675.0,392.6 678.3,395.4 681.6,398.1 684.9,400.8 688.2,403.3 691.5,405.8 694.8,408.3 698.1,410.6 701.4,412.9 704.7,415.1 708.0,417.2 711.3,419.2 714.6,421.2 717.9,423.1 721.3,425.0 724.6,426.8 727.9,428.5 731.2,430.1 734.5,431.7 737.8,433.2 741.1,434.7 744.4,436.1 747.7,437.4 751.0,438.7 754.3,439.9 757.6,441.0 760.9,442.2 764.2,443.2 767.5,444.2 770.8,445.2 774.1,446.1 777.4,447.0 780.8,447.8 784.1,448.5 787.4,449.3 790.7,450.0 794.0,450.6 797.3,451.3 800.6,451.9 803.9,452.4 807.2,452.9 810.5,453.4 813.8,453.9 817.1,454.3 820.4,454.7 823.7,455.1 827.0,455.5 830.3,455.8 833.6,456.1 836.9,456.4 840.3,456.7 843.6,456.9 846.9,457.2 850.2,457.4 853.5,457.6 856.8,457.8 860.1,458.0 863.4,458.1 866.7,458.3 870.0,458.4"/>
<polyline fill="none" stroke="#d64545" stroke-width="2.5" points="80.0,203.6 83.3,197.2 86.6,191.0 89.9,184.8 93.2,178.7 96.5,172.6 99.8,166.7 103.1,160.9 106.4,155.3 109.7,149.7 113.1,144.3 116.4,139.0 119.7,133.8 123.0,128.8 126.3,123.9 129.6,119.2 132.9,114.7 136.2,110.3 139.5,106.1 142.8,102.0 146.1,98.1 149.4,94.4 152.7,90.9 156.0,87.5 159.3,84.2 162.6,81.2 165.9,78.3 169.2,75.5 172.6,73.0 175.9,70.6 179.2,68.3 182.5,66.2 185.8,64.2 189.1,62.4 192.4,60.7 195.7,59.2 199.0,57.8 202.3,56.5 205.6,55.3 208.9,54.3 212.2,53.4 215.5,52.6 218.8,51.9 222.1,51.3 225.4,50.9 228.7,50.5 232.1,50.2 235.4,50.1 238.7,50.0 242.0,50.0 245.3,50.2 248.6,50.4 251.9,50.7 255.2,51.1 258.5,51.6 261.8,52.2 265.1,52.9 268.4,53.7 271.7,54.6 275.0,55.6 278.3,56.6 281.6,57.8 284.9,59.1 288.2,60.6 291.5,62.1 294.9,63.7 298.2,65.5 301.5,67.3 304.8,69.3 308.1,71.4 311.4,73.7 314.7,76.0 318.0,78.5 321.3,81.1 324.6,83.9 327.9,86.8 331.2,89.8 334.5,92.9 337.8,96.2 341.1,99.6 344.4,103.1 347.7,106.7 351.0,110.5 354.4,114.4 357.7,118.4 361.0,122.5 364.3,126.7 367.6,131.1 370.9,135.5 374.2,140.0 377.5,144.6 380.8,149.2 384.1,154.0 387.4,158.8 390.7,163.6 394.0,168.5 397.3,173.5 400.6,178.4 403.9,183.4 407.2,188.5 410.5,193.5 413.8,198.5 417.2,203.5 420.5,208.5 423.8,213.5 427.1,218.5 430.4,223.4 433.7,228.3 437.0,233.2 440.3,238.0 443.6,242.7 446.9,247.4 450.2,252.0 453.5,256.5 456.8,261.0 460.1,265.4 463.4,269.7 466.7,273.9 470.0,278.0 473.3,282.1 476.7,286.1 480.0,289.9 483.3,293.7 486.6,297.5 489.9,301.1 493.2,304.6 496.5,308.1 499.8,311.5 503.1,314.8 506.4,318.0 509.7,321.2 513.0,324.2 516.3,327.2 519.6,330.2 522.9,333.1 526.2,335.9 529.5,338.6 532.8,341.3 536.2,343.9 539.5,346.5 542.8,349.0 546.1,351.5 549.4,353.9 552.7,356.2 556.0,358.6 559.3,360.8 562.6,363.1 565.9,365.3 569.2,367.4 572.5,369.5 575.8,371.6 579.1,373.6 582.4,375.6 585.7,377.6 589.0,379.5 592.3,381.3 595.6,383.2 599.0,385.0 602.3,386.7 605.6,388.4 608.9,390.1 612.2,391.8 615.5,393.3 618.8,394.9 622.1,396.4 625.4,397.9 628.7,399.3 632.0,400.7 635.3,402.1 638.6,403.4 641.9,404.6 645.2,405.9 648.5,407.1 651.8,408.2 655.1,409.3 658.5,410.4 661.8,411.4 665.1,412.4 668.4,413.3 671.7,414.2 675.0,415.1 678.3,415.9 681.6,416.7 684.9,417.5 688.2,418.2 691.5,418.9 694.8,419.6 698.1,420.2 701.4,420.8 704.7,421.4 708.0,421.9 711.3,422.4 714.6,422.9 717.9,423.4 721.3,423.8 724.6,424.3 727.9,424.7 731.2,425.0 734.5,425.4 737.8,425.8 741.1,426.1 744.4,426.4 747.7,426.7 751.0,427.0 754.3,427.2 757.6,427.5 760.9,427.7 764.2,428.0 767.5,428.2 770.8,428.4 774.1,428.6 777.4,428.8 780.8,429.0 784.1,429.2 787.4,429.3 790.7,429.5 794.0,429.7 797.3,429.8 800.6,430.0 803.9,430.2 807.2,430.3 810.5,430.5 813.8,430.6 817.1,430.8 820.4,431.0 823.7,431.2 827.0,431.3 830.3,431.5 833.6,431.7 836.9,431.9 840.3,432.1 843.6,432.3 846.9,432.6 850.2,432.8 853.5,433.1 856.8,433.3 860.1,433.6 863.4,433.9 866.7,434.2 870.0,434.5"/>
<text x="740" y="70" font-size="14" font-family="Arial" fill="#2f6fed">intra-class</text>
<text x="740" y="92" font-size="14" font-family="Arial" fill="#d64545">inter-class</text>
</svg>