<svg xmlns="http://www.w3.org/2000/svg" width="260" height="220" viewBox="0 0 260 220">
<rect width="100%" height="100%" fill="white"/>
<text x="130.0" y="28" text-anchor="middle" font-size="20" font-family="Arial">Distance Matrix: pixel_swd_patch_3_25</text>
<rect x="70" y="50" width="12" height="12" fill="rgb(255,255,255)" stroke="none"/>
<rect x="82" y="50" width="12" height="12" fill="rgb(255,167,167)" stroke="none"/>
<rect x="94" y="50" width="12" height="12" fill="rgb(255,0,0)" stroke="none"/>
<rect x="106" y="50" width="12" height="12" fill="rgb(255,36,36)" stroke="none"/>
<rect x="118" y="50" width="12" height="12" fill="rgb(255,34,34)" stroke="none"/>
<rect x="130" y="50" width="12" height="12" fill="rgb(255,96,96)" stroke="none"/>
<rect x="142" y="50" width="12" height="12" fill="rgb(255,68,68)" stroke="none"/>
<rect x="154" y="50" width="12" height="12" fill="rgb(255,68,68)" stroke="none"/>
<rect x="166" y="50" width="12" height="12" fill="rgb(255,134,134)" stroke="none"/>
<rect x="178" y="50" width="12" height="12" fill="rgb(255,133,133)" stroke="none"/>
<rect x="70" y="62" width="12" height="12" fill="rgb(255,167,167)" stroke="none"/>
<rect x="82" y="62" width="12" height="12" fill="rgb(255,255,255)" stroke="none"/>
<rect x="94" y="62" width="12" height="12" fill="rgb(255,12,12)" stroke="none"/>
<rect x="106" y="62" width="12" height="12" fill="rgb(255,40,40)" stroke="none"/>
<rect x="118" y="62" width="12" height="12" fill="rgb(255,51,51)" stroke="none"/>
<rect x="130" y="62" width="12" height="12" fill="rgb(255,130,130)" stroke="none"/>
<rect x="142" y="62" width="12" height="12" fill="rgb(255,93,93)" stroke="none"/>
<rect x="154" y="62" width="12" height="12" fill="rgb(255,92,92)" stroke="none"/>
<rect x="166" y="62" width="12" height="12" fill="rgb(255,155,155)" stroke="none"/>
<rect x="178" y="62" width="12" height="12" fill="rgb(255,157,157)" stroke="none"/>
<rect x="70" y="74" width="12" height="12" fill="rgb(255,0,0)" stroke="none"/>
<rect x="82" y="74" width="12" height="12" fill="rgb(255,12,12)" stroke="none"/>
<rect x="94" y="74" width="12" height="12" fill="rgb(255,255,255)" stroke="none"/>
<rect x="106" y="74" width="12" height="12" fill="rgb(255,114,114)" stroke="none"/>
<rect x="118" y="74" width="12" height="12" fill="rgb(255,180,180)" stroke="none"/>
<rect x="130" y="74" width="12" height="12" fill="rgb(255,102,102)" stroke="none"/>
<rect x="142" y="74" width="12" height="12" fill="rgb(255,164,164)" stroke="none"/>
<rect x="154" y="74" width="12" height="12" fill="rgb(255,161,161)" stroke="none"/>
<rect x="166" y="74" width="12" height="12" fill="rgb(255,78,78)" stroke="none"/>
<rect x="178" y="74" width="12" height="12" fill="rgb(255,72,72)" stroke="none"/>
<rect x="70" y="86" width="12" height="12" fill="rgb(255,36,36)" stroke="none"/>
<rect x="82" y="86" width="12" height="12" fill="rgb(255,40,40)" stroke="none"/>
<rect x="94" y="86" width="12" height="12" fill="rgb(255,114,114)" stroke="none"/>
<rect x="106" y="86" width="12" height="12" fill="rgb(255,255,255)" stroke="none"/>
<rect x="118" y="86" width="12" height="12" fill="rgb(255,165,165)" stroke="none"/>
<rect x="130" y="86" width="12" height="12" fill="rgb(255,131,131)" stroke="none"/>
<rect x="142" y="86" width="12" height="12" fill="rgb(255,111,111)" stroke="none"/>
<rect x="154" y="86" width="12" height="12" fill="rgb(255,109,109)" stroke="none"/>
<rect x="166" y="86" width="12" height="12" fill="rgb(255,82,82)" stroke="none"/>
<rect x="178" y="86" width="12" height="12" fill="rgb(255,80,80)" stroke="none"/>
<rect x="70" y="98" width="12" height="12" fill="rgb(255,34,34)" stroke="none"/>
<rect x="82" y="98" width="12" height="12" fill="rgb(255,51,51)" stroke="none"/>
<rect x="94" y="98" width="12" height="12" fill="rgb(255,180,180)" stroke="none"/>
<rect x="106" y="98" width="12" height="12" fill="rgb(255,165,165)" stroke="none"/>
<rect x="118" y="98" width="12" height="12" fill="rgb(255,255,255)" stroke="none"/>
<rect x="130" y="98" width="12" height="12" fill="rgb(255,157,157)" stroke="none"/>
<rect x="142" y="98" width="12" height="12" fill="rgb(255,186,186)" stroke="none"/>
<rect x="154" y="98" width="12" height="12" fill="rgb(255,182,182)" stroke="none"/>
<rect x="166" y="98" width="12" height="12" fill="rgb(255,109,109)" stroke="none"/>
<rect x="178" y="98" width="12" height="12" fill="rgb(255,106,106)" stroke="none"/>
<rect x="70" y="110" width="12" height="12" fill="rgb(255,96,96)" stroke="none"/>
<rect x="82" y="110" width="12" height="12" fill="rgb(255,130,130)" stroke="none"/>
<rect x="94" y="110" width="12" height="12" fill="rgb(255,102,102)" stroke="none"/>
<rect x="106" y="110" width="12" height="12" fill="rgb(255,131,131)" stroke="none"/>
<rect x="118" y="110" width="12" height="12" fill="rgb(255,157,157)" stroke="none"/>
<rect x="130" y="110" width="12" height="12" fill="rgb(255,255,255)" stroke="none"/>
<rect x="142" y="110" width="12" height="12" fill="rgb(255,148,148)" stroke="none"/>
<rect x="154" y="110" width="12" height="12" fill="rgb(255,145,145)" stroke="none"/>
<rect x="166" y="110" width="12" height="12" fill="rgb(255,134,134)" stroke="none"/>
<rect x="178" y="110" width="12" height="12" fill="rgb(255,133,133)" stroke="none"/>
<rect x="70" y="122" width="12" height="12" fill="rgb(255,68,68)" stroke="none"/>
<rect x="82" y="122" width="12" height="12" fill="rgb(255,93,93)" stroke="none"/>
<rect x="94" y="122" width="12" height="12" fill="rgb(255,164,164)" stroke="none"/>
<rect x="106" y="122" width="12" height="12" fill="rgb(255,111,111)" stroke="none"/>
<rect x="118" y="122" width="12" height="12" fill="rgb(255,186,186)" stroke="none"/>
<rect x="130" y="122" width="12" height="12" fill="rgb(255,148,148)" stroke="none"/>
<rect x="142" y="122" width="12" height="12" fill="rgb(255,255,255)" stroke="none"/>
<rect x="154" y="122" width="12" height="12" fill="rgb(255,244,244)" stroke="none"/>
<rect x="166" y="122" width="12" height="12" fill="rgb(255,159,159)" stroke="none"/>
<rect x="178" y="122" width="12" height="12" fill="rgb(255,156,156)" stroke="none"/>
<rect x="70" y="134" width="12" height="12" fill="rgb(255,68,68)" stroke="none"/>
<rect x="82" y="134" width="12" height="12" fill="rgb(255,92,92)" stroke="none"/>
<rect x="94" y="134" width="12" height="12" fill="rgb(255,161,161)" stroke="none"/>
<rect x="106" y="134" width="12" height="12" fill="rgb(255,109,109)" stroke="none"/>
<rect x="118" y="134" width="12" height="12" fill="rgb(255,182,182)" stroke="none"/>
<rect x="130" y="134" width="12" height="12" fill="rgb(255,145,145)" stroke="none"/>
<rect x="142" y="134" width="12" height="12" fill="rgb(255,244,244)" stroke="none"/>
<rect x="154" y="134" width="12" height="12" fill="rgb(255,255,255)" stroke="none"/>
<rect x="166" y="134" width="12" height="12" fill="rgb(255,161,161)" stroke="none"/>
<rect x="178" y="134" width="12" height="12" fill="rgb(255,158,158)" stroke="none"/>
<rect x="70" y="146" width="12" height="12" fill="rgb(255,134,134)" stroke="none"/>
<rect x="82" y="146" width="12" height="12" fill="rgb(255,155,155)" stroke="none"/>
<rect x="94" y="146" width="12" height="12" fill="rgb(255,78,78)" stroke="none"/>
<rect x="106" y="146" width="12" height="12" fill="rgb(255,82,82)" stroke="none"/>
<rect x="118" y="146" width="12" height="12" fill="rgb(255,109,109)" stroke="none"/>
<rect x="130" y="146" width="12" height="12" fill="rgb(255,134,134)" stroke="none"/>
<rect x="142" y="146" width="12" height="12" fill="rgb(255,159,159)" stroke="none"/>
<rect x="154" y="146" width="12" height="12" fill="rgb(255,161,161)" stroke="none"/>
<rect x="166" y="146" width="12" height="12" fill="rgb(255,255,255)" stroke="none"/>
<rect x="178" y="146" width="12" height="12" fill="rgb(255,242,242)" stroke="none"/>
<rect x="70" y="158" width="12" height="12" fill="rgb(255,133,133)" stroke="none"/>
<rect x="82" y="158" width="12" height="12" fill="rgb(255,157,157)" stroke="none"/>
<rect x="94" y="158" width="12" height="12" fill="rgb(255,72,72)" stroke="none"/>
<rect x="106" y="158" width="12" height="12" fill="rgb(255,80,80)" stroke="none"/>
<rect x="118" y="158" width="12" height="12" fill="rgb(255,106,106)" stroke="none"/>
<rect x="130" y="158" width="12" height="12" fill="rgb(255,133,133)" stroke="none"/>
<rect x="142" y="158" width="12" height="12" fill="rgb(255,156,156)" stroke="none"/>
<rect x="154" y="158" width="12" height="12" fill="rgb(255,158,158)" stroke="none"/>
<rect x="166" y="158" width="12" height="12" fill="rgb(255,242,242)" stroke="none"/>
<rect x="178" y="158" width="12" height="12" fill="rgb(255,255,255)" stroke="none"/>
<rect x="70" y="50" width="120" height="120" fill="none" stroke="black"/>
</svg>