<svg xmlns="http://www.w3.org/2000/svg" width="900" height="520" viewBox="0 0 900 520">
<rect width="100%" height="100%" fill="white"/>
<text x="450.0" y="28" text-anchor="middle" font-size="22" font-family="Arial">Intra vs Inter KDE: latent_tree_swd_patch_3_25</text>
<rect x="80" y="50" width="790" height="410" fill="none" stroke="black"/>
<polyline fill="none" stroke="#2f6fed" stroke-width="2.5" points="80.0,408.4 83.3,404.0 86.6,399.4 89.9,394.5 93.2,389.5 96.5,384.3 99.8,378.8 103.1,373.2 106.4,367.4 109.7,361.5 113.1,355.4 116.4,349.2 119.7,342.9 123.0,336.4 126.3,329.9 129.6,323.3 132.9,316.6 136.2,309.8 139.5,303.0 142.8,296.2 146.1,289.3 149.4,282.4 152.7,275.5 156.0,268.6 159.3,261.7 162.6,254.7 165.9,247.8 169.2,240.8 172.6,233.9 175.9,227.0 179.2,220.0 182.5,213.1 185.8,206.2 189.1,199.3 192.4,192.4 195.7,185.5 199.0,178.6 202.3,171.7 205.6,164.9 208.9,158.1 212.2,151.3 215.5,144.5 218.8,137.8 222.1,131.2 225.4,124.7 228.7,118.2 232.1,111.9 235.4,105.7 238.7,99.7 242.0,93.8 245.3,88.2 248.6,82.8 251.9,77.7 255.2,73.0 258.5,68.6 261.8,64.5 265.1,60.9 268.4,57.8 271.7,55.1 275.0,53.0 278.3,51.4 281.6,50.4 284.9,50.0 288.2,50.2 291.5,51.0 294.9,52.5 298.2,54.5 301.5,57.2 304.8,60.5 308.1,64.4 311.4,68.9 314.7,73.9 318.0,79.4 321.3,85.3 324.6,91.7 327.9,98.4 331.2,105.4 334.5,112.8 337.8,120.3 341.1,128.0 344.4,135.8 347.7,143.7 351.0,151.5 354.4,159.4 357.7,167.2 361.0,174.8 364.3,182.4 367.6,189.7 370.9,196.9 374.2,203.8 377.5,210.5 380.8,217.0 384.1,223.2 387.4,229.1 390.7,234.8 394.0,240.3 397.3,245.5 400.6,250.5 403.9,255.3 407.2,259.8 410.5,264.2 413.8,268.4 417.2,272.4 420.5,276.3 423.8,280.1 427.1,283.8 430.4,287.3 433.7,290.7 437.0,294.1 440.3,297.4 443.6,300.6 446.9,303.8 450.2,306.9 453.5,309.9 456.8,312.9 460.1,315.8 463.4,318.7 466.7,321.5 470.0,324.3 473.3,327.0 476.7,329.7 480.0,332.3 483.3,334.9 486.6,337.4 489.9,339.9 493.2,342.3 496.5,344.7 499.8,347.0 503.1,349.3 506.4,351.5 509.7,353.7 513.0,355.9 516.3,358.1 519.6,360.2 522.9,362.3 526.2,364.3 529.5,366.4 532.8,368.4 536.2,370.5 539.5,372.5 542.8,374.5 546.1,376.5 549.4,378.5 552.7,380.4 556.0,382.4 559.3,384.3 562.6,386.3 565.9,388.2 569.2,390.1 572.5,391.9 575.8,393.8 579.1,395.6 582.4,397.4 585.7,399.2 589.0,400.9 592.3,402.6 595.6,404.3 599.0,406.0 602.3,407.6 605.6,409.2 608.9,410.7 612.2,412.3 615.5,413.8 618.8,415.3 622.1,416.8 625.4,418.3 628.7,419.7 632.0,421.2 635.3,422.6 638.6,424.1 641.9,425.5 645.2,426.9 648.5,428.3 651.8,429.8 655.1,431.2 658.5,432.6 661.8,434.0 665.1,435.4 668.4,436.7 671.7,438.1 675.0,439.4 678.3,440.7 681.6,442.0 684.9,443.2 688.2,444.4 691.5,445.6 694.8,446.7 698.1,447.8 701.4,448.9 704.7,449.8 708.0,450.8 711.3,451.6 714.6,452.5 717.9,453.2 721.3,453.9 724.6,454.6 727.9,455.2 731.2,455.8 734.5,456.3 737.8,456.7 741.1,457.1 744.4,457.5 747.7,457.9 751.0,458.1 754.3,458.4 757.6,458.6 760.9,458.8 764.2,459.0 767.5,459.2 770.8,459.3 774.1,459.4 777.4,459.5 780.8,459.6 784.1,459.7 787.4,459.7 790.7,459.8 794.0,459.8 797.3,459.9 800.6,459.9 803.9,459.9 807.2,459.9 810.5,459.9 813.8,460.0 817.1,460.0 820.4,460.0 823.7,460.0 827.0,460.0 830.3,460.0 833.6,460.0 836.9,460.0 840.3,460.0 843.6,460.0 846.9,460.0 850.2,460.0 853.5,460.0 856.8,460.0 860.1,460.0 863.4,460.0 866.7,460.0 870.0,460.0"/>
<polyline fill="none" stroke="#d64545" stroke-width="2.5" points="80.0,455.6 83.3,454.8 86.6,453.9 89.9,452.9 93.2,451.8 96.5,450.5 99.8,449.1 103.1,447.5 106.4,445.8 109.7,443.8 113.1,441.6 116.4,439.2 119.7,436.6 123.0,433.8 126.3,430.7 129.6,427.3 132.9,423.8 136.2,419.9 139.5,415.8 142.8,411.5 146.1,406.9 149.4,402.0 152.7,397.0 156.0,391.6 159.3,386.1 162.6,380.4 165.9,374.4 169.2,368.3 172.6,362.0 175.9,355.6 179.2,349.0 182.5,342.4 185.8,335.6 189.1,328.8 192.4,321.9 195.7,314.9 199.0,308.0 202.3,301.1 205.6,294.2 208.9,287.4 212.2,280.6 215.5,274.0 218.8,267.4 222.1,261.0 225.4,254.7 228.7,248.6 232.1,242.7 235.4,237.0 238.7,231.5 242.0,226.2 245.3,221.1 248.6,216.3 251.9,211.8 255.2,207.4 258.5,203.4 261.8,199.5 265.1,196.0 268.4,192.6 271.7,189.5 275.0,186.5 278.3,183.8 281.6,181.2 284.9,178.8 288.2,176.5 291.5,174.3 294.9,172.2 298.2,170.2 301.5,168.2 304.8,166.3 308.1,164.4 311.4,162.4 314.7,160.5 318.0,158.5 321.3,156.6 324.6,154.6 327.9,152.6 331.2,150.6 334.5,148.7 337.8,146.7 341.1,144.9 344.4,143.1 347.7,141.4 351.0,139.9 354.4,138.5 357.7,137.3 361.0,136.2 364.3,135.4 367.6,134.8 370.9,134.5 374.2,134.4 377.5,134.6 380.8,135.0 384.1,135.6 387.4,136.5 390.7,137.5 394.0,138.8 397.3,140.3 400.6,141.9 403.9,143.7 407.2,145.6 410.5,147.6 413.8,149.7 417.2,151.8 420.5,154.1 423.8,156.3 427.1,158.7 430.4,161.1 433.7,163.5 437.0,166.0 440.3,168.6 443.6,171.3 446.9,174.1 450.2,176.9 453.5,179.9 456.8,183.1 460.1,186.4 463.4,189.8 466.7,193.4 470.0,197.2 473.3,201.2 476.7,205.3 480.0,209.6 483.3,214.0 486.6,218.6 489.9,223.3 493.2,228.1 496.5,233.0 499.8,238.0 503.1,243.0 506.4,248.1 509.7,253.2 513.0,258.3 516.3,263.4 519.6,268.5 522.9,273.6 526.2,278.6 529.5,283.5 532.8,288.4 536.2,293.3 539.5,298.1 542.8,302.8 546.1,307.4 549.4,311.9 552.7,316.4 556.0,320.7 559.3,325.0 562.6,329.1 565.9,333.2 569.2,337.1 572.5,340.8 575.8,344.5 579.1,347.9 582.4,351.3 585.7,354.4 589.0,357.4 592.3,360.3 595.6,362.9 599.0,365.5 602.3,367.8 605.6,370.1 608.9,372.2 612.2,374.1 615.5,376.0 618.8,377.8 622.1,379.5 625.4,381.1 628.7,382.7 632.0,384.3 635.3,385.8 638.6,387.4 641.9,388.9 645.2,390.4 648.5,392.0 651.8,393.6 655.1,395.1 658.5,396.7 661.8,398.3 665.1,399.9 668.4,401.4 671.7,403.0 675.0,404.5 678.3,406.0 681.6,407.4 684.9,408.8 688.2,410.2 691.5,411.4 694.8,412.7 698.1,413.8 701.4,415.0 704.7,416.0 708.0,417.0 711.3,417.9 714.6,418.8 717.9,419.7 721.3,420.5 724.6,421.3 727.9,422.0 731.2,422.8 734.5,423.5 737.8,424.3 741.1,425.0 744.4,425.8 747.7,426.5 751.0,427.3 754.3,428.1 757.6,429.0 760.9,429.9 764.2,430.8 767.5,431.7 770.8,432.7 774.1,433.7 777.4,434.7 780.8,435.7 784.1,436.7 787.4,437.8 790.7,438.8 794.0,439.8 797.3,440.9 800.6,441.9 803.9,442.8 807.2,443.8 810.5,444.7 813.8,445.6 817.1,446.5 820.4,447.3 823.7,448.0 827.0,448.8 830.3,449.4 833.6,450.1 836.9,450.7 840.3,451.3 843.6,451.8 846.9,452.3 850.2,452.8 853.5,453.3 856.8,453.7 860.1,454.1 863.4,454.5 866.7,454.8 870.0,455.2"/>
<text x="740" y="70" font-size="14" font-family="Arial" fill="#2f6fed">intra-class</text>
<text x="740" y="92" font-size="14" font-family="Arial" fill="#d64545">inter-class</text>
</svg>