<svg xmlns="http://www.w3.org/2000/svg" width="900" height="520" viewBox="0 0 900 520">
<rect width="100%" height="100%" fill="white"/>
<text x="450.0" y="28" text-anchor="middle" font-size="22" font-family="Arial">Intra vs Inter KDE: latent_swd_patch_3_25</text>
<rect x="80" y="50" width="790" height="410" fill="none" stroke="black"/>
<polyline fill="none" stroke="#2f6fed" stroke-width="2.5" points="80.0,407.0 83.3,405.0 86.6,403.2 89.9,401.5 93.2,399.9 96.5,398.5 99.8,397.1 103.1,395.9 106.4,394.7 109.7,393.5 113.1,392.3 116.4,391.1 119.7,389.7 123.0,388.3 126.3,386.7 129.6,384.9 132.9,382.8 136.2,380.5 139.5,377.9 142.8,375.0 146.1,371.7 149.4,368.0 152.7,363.9 156.0,359.4 159.3,354.5 162.6,349.2 165.9,343.5 169.2,337.3 172.6,330.8 175.9,323.8 179.2,316.4 182.5,308.6 185.8,300.4 189.1,291.9 192.4,283.0 195.7,273.7 199.0,264.2 202.3,254.4 205.6,244.4 208.9,234.1 212.2,223.6 215.5,213.0 218.8,202.3 222.1,191.5 225.4,180.8 228.7,170.1 232.1,159.4 235.4,149.0 238.7,138.8 242.0,128.9 245.3,119.3 248.6,110.2 251.9,101.5 255.2,93.4 258.5,85.9 261.8,78.9 265.1,72.7 268.4,67.2 271.7,62.4 275.0,58.4 278.3,55.2 281.6,52.7 284.9,51.1 288.2,50.2 291.5,50.0 294.9,50.6 298.2,51.9 301.5,53.8 304.8,56.4 308.1,59.6 311.4,63.4 314.7,67.7 318.0,72.5 321.3,77.8 324.6,83.5 327.9,89.5 331.2,96.0 334.5,102.8 337.8,109.9 341.1,117.3 344.4,125.0 347.7,133.0 351.0,141.2 354.4,149.6 357.7,158.2 361.0,167.0 364.3,176.0 367.6,185.1 370.9,194.3 374.2,203.6 377.5,213.0 380.8,222.4 384.1,231.8 387.4,241.2 390.7,250.5 394.0,259.7 397.3,268.8 400.6,277.7 403.9,286.3 407.2,294.8 410.5,302.9 413.8,310.7 417.2,318.2 420.5,325.2 423.8,331.9 427.1,338.1 430.4,343.9 433.7,349.3 437.0,354.1 440.3,358.5 443.6,362.5 446.9,366.0 450.2,369.0 453.5,371.6 456.8,373.8 460.1,375.7 463.4,377.2 466.7,378.4 470.0,379.3 473.3,379.9 476.7,380.4 480.0,380.7 483.3,380.8 486.6,380.9 489.9,380.9 493.2,380.8 496.5,380.8 499.8,380.8 503.1,380.8 506.4,380.9 509.7,381.1 513.0,381.3 516.3,381.7 519.6,382.3 522.9,382.9 526.2,383.7 529.5,384.7 532.8,385.8 536.2,387.0 539.5,388.4 542.8,390.0 546.1,391.7 549.4,393.6 552.7,395.6 556.0,397.7 559.3,400.0 562.6,402.4 565.9,404.8 569.2,407.4 572.5,410.0 575.8,412.7 579.1,415.4 582.4,418.2 585.7,420.9 589.0,423.7 592.3,426.4 595.6,429.0 599.0,431.6 602.3,434.0 605.6,436.4 608.9,438.7 612.2,440.8 615.5,442.9 618.8,444.8 622.1,446.5 625.4,448.1 628.7,449.6 632.0,451.0 635.3,452.2 638.6,453.3 641.9,454.2 645.2,455.1 648.5,455.8 651.8,456.5 655.1,457.1 658.5,457.6 661.8,458.0 665.1,458.4 668.4,458.7 671.7,458.9 675.0,459.1 678.3,459.3 681.6,459.4 684.9,459.6 688.2,459.6 691.5,459.7 694.8,459.8 698.1,459.8 701.4,459.9 704.7,459.9 708.0,459.9 711.3,459.9 714.6,460.0 717.9,460.0 721.3,460.0 724.6,460.0 727.9,460.0 731.2,460.0 734.5,460.0 737.8,460.0 741.1,460.0 744.4,460.0 747.7,460.0 751.0,460.0 754.3,460.0 757.6,460.0 760.9,460.0 764.2,460.0 767.5,460.0 770.8,460.0 774.1,460.0 777.4,460.0 780.8,460.0 784.1,460.0 787.4,460.0 790.7,460.0 794.0,460.0 797.3,460.0 800.6,460.0 803.9,460.0 807.2,460.0 810.5,460.0 813.8,460.0 817.1,460.0 820.4,460.0 823.7,460.0 827.0,460.0 830.3,460.0 833.6,460.0 836.9,460.0 840.3,460.0 843.6,460.0 846.9,460.0 850.2,460.0 853.5,460.0 856.8,460.0 860.1,460.0 863.4,460.0 866.7,460.0 870.0,460.0"/>
<polyline fill="none" stroke="#d64545" stroke-width="2.5" points="80.0,458.8 83.3,458.5 86.6,458.2 89.9,457.8 93.2,457.3 96.5,456.7 99.8,456.0 103.1,455.2 106.4,454.3 109.7,453.2 113.1,452.0 116.4,450.6 119.7,449.0 123.0,447.3 126.3,445.3 129.6,443.1 132.9,440.8 136.2,438.1 139.5,435.3 142.8,432.2 146.1,428.9 149.4,425.4 152.7,421.6 156.0,417.6 159.3,413.4 162.6,409.0 165.9,404.3 169.2,399.5 172.6,394.4 175.9,389.1 179.2,383.7 182.5,378.0 185.8,372.2 189.1,366.2 192.4,360.0 195.7,353.6 199.0,347.0 202.3,340.3 205.6,333.4 208.9,326.4 212.2,319.3 215.5,312.2 218.8,304.9 222.1,297.7 225.4,290.4 228.7,283.2 232.1,276.2 235.4,269.2 238.7,262.5 242.0,256.0 245.3,249.7 248.6,243.7 251.9,238.1 255.2,232.7 258.5,227.8 261.8,223.1 265.1,218.8 268.4,214.9 271.7,211.3 275.0,207.9 278.3,204.8 281.6,202.0 284.9,199.3 288.2,196.8 291.5,194.4 294.9,192.0 298.2,189.7 301.5,187.4 304.8,185.0 308.1,182.5 311.4,179.9 314.7,177.2 318.0,174.4 321.3,171.4 324.6,168.3 327.9,165.2 331.2,161.9 334.5,158.7 337.8,155.4 341.1,152.2 344.4,149.0 347.7,146.1 351.0,143.4 354.4,140.9 357.7,138.7 361.0,137.0 364.3,135.6 367.6,134.7 370.9,134.2 374.2,134.3 377.5,134.9 380.8,135.9 384.1,137.5 387.4,139.5 390.7,141.9 394.0,144.8 397.3,148.1 400.6,151.7 403.9,155.6 407.2,159.7 410.5,164.1 413.8,168.6 417.2,173.3 420.5,178.0 423.8,182.9 427.1,187.8 430.4,192.7 433.7,197.6 437.0,202.5 440.3,207.5 443.6,212.4 446.9,217.3 450.2,222.2 453.5,227.0 456.8,231.9 460.1,236.7 463.4,241.6 466.7,246.4 470.0,251.3 473.3,256.2 476.7,261.1 480.0,266.0 483.3,271.0 486.6,275.9 489.9,280.9 493.2,285.9 496.5,290.8 499.8,295.8 503.1,300.8 506.4,305.7 509.7,310.6 513.0,315.5 516.3,320.2 519.6,325.0 522.9,329.6 526.2,334.1 529.5,338.5 532.8,342.8 536.2,347.0 539.5,351.1 542.8,355.0 546.1,358.8 549.4,362.4 552.7,365.9 556.0,369.2 559.3,372.4 562.6,375.5 565.9,378.5 569.2,381.3 572.5,383.9 575.8,386.5 579.1,388.9 582.4,391.2 585.7,393.4 589.0,395.5 592.3,397.4 595.6,399.3 599.0,401.1 602.3,402.8 605.6,404.4 608.9,406.0 612.2,407.5 615.5,409.0 618.8,410.4 622.1,411.7 625.4,413.1 628.7,414.4 632.0,415.6 635.3,416.9 638.6,418.1 641.9,419.3 645.2,420.5 648.5,421.6 651.8,422.7 655.1,423.8 658.5,424.8 661.8,425.7 665.1,426.7 668.4,427.5 671.7,428.3 675.0,429.1 678.3,429.8 681.6,430.5 684.9,431.1 688.2,431.7 691.5,432.2 694.8,432.7 698.1,433.2 701.4,433.6 704.7,434.1 708.0,434.5 711.3,434.9 714.6,435.4 717.9,435.9 721.3,436.3 724.6,436.8 727.9,437.4 731.2,437.9 734.5,438.5 737.8,439.2 741.1,439.8 744.4,440.5 747.7,441.2 751.0,441.9 754.3,442.7 757.6,443.4 760.9,444.2 764.2,445.0 767.5,445.8 770.8,446.5 774.1,447.3 777.4,448.0 780.8,448.7 784.1,449.4 787.4,450.1 790.7,450.7 794.0,451.3 797.3,451.9 800.6,452.4 803.9,452.9 807.2,453.3 810.5,453.7 813.8,454.1 817.1,454.4 820.4,454.6 823.7,454.9 827.0,455.1 830.3,455.2 833.6,455.4 836.9,455.5 840.3,455.6 843.6,455.7 846.9,455.7 850.2,455.8 853.5,455.8 856.8,455.9 860.1,456.0 863.4,456.0 866.7,456.1 870.0,456.2"/>
<text x="740" y="70" font-size="14" font-family="Arial" fill="#2f6fed">intra-class</text>
<text x="740" y="92" font-size="14" font-family="Arial" fill="#d64545">inter-class</text>
</svg>