<svg xmlns="http://www.w3.org/2000/svg" width="900" height="520" viewBox="0 0 900 520">
<rect width="100%" height="100%" fill="white"/>
<text x="450.0" y="28" text-anchor="middle" font-size="22" font-family="Arial">Intra vs Inter KDE: pixel_swd_patch_3_25</text>
<rect x="80" y="50" width="790" height="410" fill="none" stroke="black"/>
<polyline fill="none" stroke="#2f6fed" stroke-width="2.5" points="80.0,409.2 83.3,408.2 86.6,407.2 89.9,406.3 93.2,405.5 96.5,404.8 99.8,404.2 103.1,403.6 106.4,403.0 109.7,402.5 113.1,401.9 116.4,401.4 119.7,400.8 123.0,400.2 126.3,399.5 129.6,398.8 132.9,397.9 136.2,396.8 139.5,395.7 142.8,394.3 146.1,392.8 149.4,391.0 152.7,389.0 156.0,386.8 159.3,384.4 162.6,381.7 165.9,378.7 169.2,375.5 172.6,372.0 175.9,368.2 179.2,364.2 182.5,359.9 185.8,355.3 189.1,350.6 192.4,345.6 195.7,340.4 199.0,335.0 202.3,329.4 205.6,323.7 208.9,317.8 212.2,311.9 215.5,305.8 218.8,299.7 222.1,293.5 225.4,287.3 228.7,281.1 232.1,274.8 235.4,268.6 238.7,262.4 242.0,256.3 245.3,250.2 248.6,244.2 251.9,238.3 255.2,232.5 258.5,226.7 261.8,221.1 265.1,215.5 268.4,210.0 271.7,204.6 275.0,199.3 278.3,194.0 281.6,188.9 284.9,183.8 288.2,178.7 291.5,173.7 294.9,168.7 298.2,163.8 301.5,158.9 304.8,154.1 308.1,149.2 311.4,144.4 314.7,139.6 318.0,134.7 321.3,129.9 324.6,125.2 327.9,120.4 331.2,115.6 334.5,110.9 337.8,106.3 341.1,101.6 344.4,97.1 347.7,92.6 351.0,88.2 354.4,84.0 357.7,79.9 361.0,75.9 364.3,72.1 367.6,68.6 370.9,65.2 374.2,62.2 377.5,59.4 380.8,56.9 384.1,54.8 387.4,53.0 390.7,51.6 394.0,50.6 397.3,50.1 400.6,50.0 403.9,50.4 407.2,51.2 410.5,52.5 413.8,54.3 417.2,56.6 420.5,59.4 423.8,62.7 427.1,66.4 430.4,70.6 433.7,75.2 437.0,80.3 440.3,85.8 443.6,91.6 446.9,97.8 450.2,104.3 453.5,111.0 456.8,118.0 460.1,125.2 463.4,132.6 466.7,140.1 470.0,147.7 473.3,155.3 476.7,162.9 480.0,170.5 483.3,178.1 486.6,185.6 489.9,192.9 493.2,200.2 496.5,207.3 499.8,214.2 503.1,220.9 506.4,227.4 509.7,233.8 513.0,239.9 516.3,245.8 519.6,251.5 522.9,257.1 526.2,262.4 529.5,267.5 532.8,272.5 536.2,277.3 539.5,281.9 542.8,286.5 546.1,290.8 549.4,295.1 552.7,299.3 556.0,303.3 559.3,307.3 562.6,311.2 565.9,315.1 569.2,318.8 572.5,322.6 575.8,326.3 579.1,329.9 582.4,333.6 585.7,337.1 589.0,340.7 592.3,344.2 595.6,347.7 599.0,351.1 602.3,354.5 605.6,357.9 608.9,361.2 612.2,364.4 615.5,367.6 618.8,370.8 622.1,373.9 625.4,376.9 628.7,379.8 632.0,382.7 635.3,385.4 638.6,388.1 641.9,390.7 645.2,393.2 648.5,395.6 651.8,397.8 655.1,400.0 658.5,402.1 661.8,404.0 665.1,405.9 668.4,407.6 671.7,409.2 675.0,410.7 678.3,412.1 681.6,413.3 684.9,414.5 688.2,415.6 691.5,416.5 694.8,417.4 698.1,418.2 701.4,419.0 704.7,419.6 708.0,420.2 711.3,420.7 714.6,421.2 717.9,421.6 721.3,422.0 724.6,422.4 727.9,422.8 731.2,423.1 734.5,423.5 737.8,423.8 741.1,424.2 744.4,424.5 747.7,424.9 751.0,425.3 754.3,425.8 757.6,426.3 760.9,426.8 764.2,427.3 767.5,427.9 770.8,428.5 774.1,429.2 777.4,429.9 780.8,430.6 784.1,431.4 787.4,432.2 790.7,433.0 794.0,433.8 797.3,434.7 800.6,435.6 803.9,436.5 807.2,437.5 810.5,438.4 813.8,439.4 817.1,440.3 820.4,441.2 823.7,442.2 827.0,443.1 830.3,444.0 833.6,445.0 836.9,445.8 840.3,446.7 843.6,447.6 846.9,448.4 850.2,449.2 853.5,449.9 856.8,450.7 860.1,451.4 863.4,452.1 866.7,452.7 870.0,453.3"/>
<polyline fill="none" stroke="#d64545" stroke-width="2.5" points="80.0,458.0 83.3,457.6 86.6,457.2 89.9,456.8 93.2,456.3 96.5,455.7 99.8,455.1 103.1,454.5 106.4,453.8 109.7,453.0 113.1,452.2 116.4,451.3 119.7,450.3 123.0,449.3 126.3,448.3 129.6,447.2 132.9,446.0 136.2,444.8 139.5,443.5 142.8,442.2 146.1,440.8 149.4,439.4 152.7,437.8 156.0,436.2 159.3,434.4 162.6,432.6 165.9,430.6 169.2,428.5 172.6,426.2 175.9,423.7 179.2,421.0 182.5,418.1 185.8,414.9 189.1,411.4 192.4,407.6 195.7,403.5 199.0,399.0 202.3,394.1 205.6,388.8 208.9,383.1 212.2,377.0 215.5,370.4 218.8,363.4 222.1,355.9 225.4,348.0 228.7,339.6 232.1,330.8 235.4,321.6 238.7,312.1 242.0,302.2 245.3,292.0 248.6,281.5 251.9,270.9 255.2,260.0 258.5,249.1 261.8,238.1 265.1,227.2 268.4,216.3 271.7,205.6 275.0,195.1 278.3,184.8 281.6,174.8 284.9,165.1 288.2,155.9 291.5,147.1 294.9,138.7 298.2,130.9 301.5,123.6 304.8,116.8 308.1,110.5 311.4,104.8 314.7,99.7 318.0,95.0 321.3,91.0 324.6,87.4 327.9,84.4 331.2,81.8 334.5,79.7 337.8,78.1 341.1,76.9 344.4,76.1 347.7,75.7 351.0,75.7 354.4,76.0 357.7,76.6 361.0,77.6 364.3,78.9 367.6,80.5 370.9,82.3 374.2,84.3 377.5,86.6 380.8,89.1 384.1,91.8 387.4,94.6 390.7,97.6 394.0,100.6 397.3,103.8 400.6,107.0 403.9,110.2 407.2,113.5 410.5,116.7 413.8,119.8 417.2,122.9 420.5,125.9 423.8,128.8 427.1,131.5 430.4,134.0 433.7,136.3 437.0,138.5 440.3,140.4 443.6,142.1 446.9,143.5 450.2,144.8 453.5,145.8 456.8,146.6 460.1,147.2 463.4,147.6 466.7,147.9 470.0,148.0 473.3,148.1 476.7,148.2 480.0,148.2 483.3,148.3 486.6,148.5 489.9,148.8 493.2,149.3 496.5,150.0 499.8,151.0 503.1,152.4 506.4,154.0 509.7,156.0 513.0,158.4 516.3,161.2 519.6,164.4 522.9,168.0 526.2,171.9 529.5,176.3 532.8,180.9 536.2,185.8 539.5,191.0 542.8,196.4 546.1,202.0 549.4,207.7 552.7,213.5 556.0,219.4 559.3,225.2 562.6,231.1 565.9,236.9 569.2,242.6 572.5,248.2 575.8,253.6 579.1,259.0 582.4,264.2 585.7,269.2 589.0,274.1 592.3,278.9 595.6,283.6 599.0,288.1 602.3,292.5 605.6,296.8 608.9,301.1 612.2,305.2 615.5,309.3 618.8,313.4 622.1,317.4 625.4,321.4 628.7,325.4 632.0,329.3 635.3,333.2 638.6,337.1 641.9,341.0 645.2,344.8 648.5,348.6 651.8,352.4 655.1,356.1 658.5,359.8 661.8,363.4 665.1,366.9 668.4,370.4 671.7,373.8 675.0,377.2 678.3,380.4 681.6,383.6 684.9,386.7 688.2,389.6 691.5,392.5 694.8,395.3 698.1,398.0 701.4,400.6 704.7,403.1 708.0,405.4 711.3,407.7 714.6,409.9 717.9,412.0 721.3,413.9 724.6,415.8 727.9,417.5 731.2,419.2 734.5,420.8 737.8,422.2 741.1,423.6 744.4,424.8 747.7,426.0 751.0,427.0 754.3,428.0 757.6,428.9 760.9,429.7 764.2,430.3 767.5,431.0 770.8,431.5 774.1,431.9 777.4,432.3 780.8,432.6 784.1,432.8 787.4,433.0 790.7,433.2 794.0,433.2 797.3,433.3 800.6,433.3 803.9,433.3 807.2,433.3 810.5,433.3 813.8,433.3 817.1,433.3 820.4,433.4 823.7,433.4 827.0,433.6 830.3,433.8 833.6,434.0 836.9,434.3 840.3,434.7 843.6,435.1 846.9,435.7 850.2,436.3 853.5,436.9 856.8,437.7 860.1,438.5 863.4,439.4 866.7,440.3 870.0,441.3"/>
<text x="740" y="70" font-size="14" font-family="Arial" fill="#2f6fed">intra-class</text>
<text x="740" y="92" font-size="14" font-family="Arial" fill="#d64545">inter-class</text>
</svg>