<svg xmlns="http://www.w3.org/2000/svg" width="900" height="520" viewBox="0 0 900 520">
<rect width="100%" height="100%" fill="white"/>
<text x="450.0" y="28" text-anchor="middle" font-size="22" font-family="Arial">Intra vs Inter KDE: pixel_tree_swd_patch_3_25</text>
<rect x="80" y="50" width="790" height="410" fill="none" stroke="black"/>
<polyline fill="none" stroke="#2f6fed" stroke-width="2.5" points="80.0,420.6 83.3,416.1 86.6,411.1 89.9,405.8 93.2,400.1 96.5,393.9 99.8,387.3 103.1,380.3 106.4,373.0 109.7,365.2 113.1,357.0 116.4,348.4 119.7,339.5 123.0,330.2 126.3,320.6 129.6,310.7 132.9,300.4 136.2,290.0 139.5,279.2 142.8,268.3 146.1,257.2 149.4,246.0 152.7,234.6 156.0,223.2 159.3,211.7 162.6,200.2 165.9,188.8 169.2,177.5 172.6,166.4 175.9,155.5 179.2,144.8 182.5,134.5 185.8,124.5 189.1,115.0 192.4,106.0 195.7,97.5 199.0,89.6 202.3,82.4 205.6,75.8 208.9,69.9 212.2,64.8 215.5,60.4 218.8,56.8 222.1,54.0 225.4,51.9 228.7,50.6 232.1,50.0 235.4,50.1 238.7,51.0 242.0,52.4 245.3,54.6 248.6,57.3 251.9,60.5 255.2,64.3 258.5,68.6 261.8,73.2 265.1,78.3 268.4,83.7 271.7,89.4 275.0,95.3 278.3,101.5 281.6,107.8 284.9,114.1 288.2,120.6 291.5,127.0 294.9,133.4 298.2,139.7 301.5,145.9 304.8,151.9 308.1,157.7 311.4,163.2 314.7,168.5 318.0,173.5 321.3,178.2 324.6,182.6 327.9,186.7 331.2,190.6 334.5,194.1 337.8,197.5 341.1,200.6 344.4,203.5 347.7,206.4 351.0,209.1 354.4,211.9 357.7,214.7 361.0,217.5 364.3,220.5 367.6,223.7 370.9,227.2 374.2,230.9 377.5,234.9 380.8,239.2 384.1,243.9 387.4,248.9 390.7,254.2 394.0,259.9 397.3,265.9 400.6,272.2 403.9,278.7 407.2,285.4 410.5,292.3 413.8,299.4 417.2,306.4 420.5,313.5 423.8,320.6 427.1,327.5 430.4,334.3 433.7,341.0 437.0,347.4 440.3,353.5 443.6,359.4 446.9,364.9 450.2,370.2 453.5,375.1 456.8,379.6 460.1,383.9 463.4,387.8 466.7,391.4 470.0,394.8 473.3,397.9 476.7,400.8 480.0,403.4 483.3,405.9 486.6,408.2 489.9,410.4 493.2,412.5 496.5,414.5 499.8,416.4 503.1,418.2 506.4,420.0 509.7,421.7 513.0,423.4 516.3,425.0 519.6,426.6 522.9,428.1 526.2,429.5 529.5,430.9 532.8,432.2 536.2,433.4 539.5,434.5 542.8,435.6 546.1,436.6 549.4,437.5 552.7,438.3 556.0,439.0 559.3,439.7 562.6,440.3 565.9,440.9 569.2,441.5 572.5,442.0 575.8,442.5 579.1,443.0 582.4,443.4 585.7,443.9 589.0,444.4 592.3,444.9 595.6,445.4 599.0,445.9 602.3,446.4 605.6,447.0 608.9,447.5 612.2,448.0 615.5,448.5 618.8,449.1 622.1,449.6 625.4,450.0 628.7,450.5 632.0,450.9 635.3,451.2 638.6,451.5 641.9,451.8 645.2,452.0 648.5,452.2 651.8,452.4 655.1,452.4 658.5,452.5 661.8,452.5 665.1,452.5 668.4,452.5 671.7,452.5 675.0,452.4 678.3,452.4 681.6,452.4 684.9,452.3 688.2,452.3 691.5,452.4 694.8,452.4 698.1,452.5 701.4,452.7 704.7,452.8 708.0,453.0 711.3,453.2 714.6,453.5 717.9,453.8 721.3,454.1 724.6,454.4 727.9,454.8 731.2,455.1 734.5,455.5 737.8,455.8 741.1,456.2 744.4,456.6 747.7,456.9 751.0,457.2 754.3,457.5 757.6,457.8 760.9,458.1 764.2,458.3 767.5,458.5 770.8,458.7 774.1,458.9 777.4,459.1 780.8,459.2 784.1,459.4 787.4,459.5 790.7,459.6 794.0,459.6 797.3,459.7 800.6,459.8 803.9,459.8 807.2,459.8 810.5,459.9 813.8,459.9 817.1,459.9 820.4,459.9 823.7,460.0 827.0,460.0 830.3,460.0 833.6,460.0 836.9,460.0 840.3,460.0 843.6,460.0 846.9,460.0 850.2,460.0 853.5,460.0 856.8,460.0 860.1,460.0 863.4,460.0 866.7,460.0 870.0,460.0"/>
<polyline fill="none" stroke="#d64545" stroke-width="2.5" points="80.0,436.0 83.3,433.3 86.6,430.3 89.9,427.1 93.2,423.7 96.5,420.0 99.8,416.1 103.1,412.0 106.4,407.6 109.7,403.0 113.1,398.2 116.4,393.1 119.7,387.8 123.0,382.3 126.3,376.6 129.6,370.8 132.9,364.8 136.2,358.6 139.5,352.3 142.8,345.9 146.1,339.3 149.4,332.7 152.7,326.1 156.0,319.4 159.3,312.7 162.6,306.0 165.9,299.3 169.2,292.6 172.6,286.0 175.9,279.4 179.2,273.0 182.5,266.6 185.8,260.3 189.1,254.2 192.4,248.2 195.7,242.4 199.0,236.7 202.3,231.2 205.6,225.8 208.9,220.7 212.2,215.8 215.5,211.1 218.8,206.6 222.1,202.3 225.4,198.2 228.7,194.4 232.1,190.8 235.4,187.4 238.7,184.3 242.0,181.4 245.3,178.7 248.6,176.2 251.9,173.9 255.2,171.8 258.5,169.9 261.8,168.2 265.1,166.7 268.4,165.3 271.7,164.1 275.0,163.1 278.3,162.2 281.6,161.5 284.9,160.9 288.2,160.5 291.5,160.3 294.9,160.2 298.2,160.2 301.5,160.4 304.8,160.9 308.1,161.4 311.4,162.2 314.7,163.2 318.0,164.4 321.3,165.8 324.6,167.4 327.9,169.2 331.2,171.2 334.5,173.5 337.8,175.9 341.1,178.5 344.4,181.4 347.7,184.4 351.0,187.5 354.4,190.8 357.7,194.2 361.0,197.7 364.3,201.2 367.6,204.9 370.9,208.6 374.2,212.3 377.5,216.0 380.8,219.7 384.1,223.4 387.4,227.0 390.7,230.7 394.0,234.3 397.3,237.8 400.6,241.3 403.9,244.8 407.2,248.2 410.5,251.5 413.8,254.9 417.2,258.2 420.5,261.5 423.8,264.8 427.1,268.1 430.4,271.3 433.7,274.6 437.0,277.9 440.3,281.1 443.6,284.4 446.9,287.6 450.2,290.9 453.5,294.1 456.8,297.3 460.1,300.5 463.4,303.7 466.7,306.8 470.0,309.9 473.3,313.0 476.7,316.0 480.0,318.9 483.3,321.8 486.6,324.7 489.9,327.5 493.2,330.2 496.5,332.9 499.8,335.6 503.1,338.2 506.4,340.8 509.7,343.3 513.0,345.8 516.3,348.3 519.6,350.8 522.9,353.2 526.2,355.6 529.5,358.0 532.8,360.4 536.2,362.8 539.5,365.1 542.8,367.5 546.1,369.7 549.4,372.0 552.7,374.2 556.0,376.3 559.3,378.4 562.6,380.4 565.9,382.4 569.2,384.2 572.5,386.0 575.8,387.8 579.1,389.4 582.4,390.9 585.7,392.4 589.0,393.8 592.3,395.1 595.6,396.4 599.0,397.6 602.3,398.7 605.6,399.8 608.9,400.9 612.2,401.9 615.5,402.9 618.8,403.9 622.1,404.9 625.4,405.9 628.7,406.9 632.0,407.9 635.3,408.9 638.6,409.9 641.9,411.0 645.2,412.1 648.5,413.2 651.8,414.4 655.1,415.6 658.5,416.8 661.8,418.0 665.1,419.3 668.4,420.5 671.7,421.8 675.0,423.2 678.3,424.5 681.6,425.8 684.9,427.1 688.2,428.5 691.5,429.8 694.8,431.1 698.1,432.5 701.4,433.8 704.7,435.0 708.0,436.3 711.3,437.5 714.6,438.8 717.9,439.9 721.3,441.1 724.6,442.2 727.9,443.3 731.2,444.4 734.5,445.4 737.8,446.3 741.1,447.3 744.4,448.1 747.7,449.0 751.0,449.7 754.3,450.5 757.6,451.1 760.9,451.8 764.2,452.3 767.5,452.8 770.8,453.3 774.1,453.7 777.4,454.1 780.8,454.4 784.1,454.6 787.4,454.9 790.7,455.0 794.0,455.2 797.3,455.3 800.6,455.4 803.9,455.4 807.2,455.4 810.5,455.4 813.8,455.4 817.1,455.3 820.4,455.3 823.7,455.2 827.0,455.2 830.3,455.1 833.6,455.0 836.9,455.0 840.3,455.0 843.6,454.9 846.9,454.9 850.2,454.9 853.5,454.9 856.8,455.0 860.1,455.1 863.4,455.1 866.7,455.2 870.0,455.4"/>
<text x="740" y="70" font-size="14" font-family="Arial" fill="#2f6fed">intra-class</text>
<text x="740" y="92" font-size="14" font-family="Arial" fill="#d64545">inter-class</text>
</svg>