<svg xmlns="http://www.w3.org/2000/svg" width="900" height="520" viewBox="0 0 900 520">
<rect width="100%" height="100%" fill="white"/>
<text x="450.0" y="28" text-anchor="middle" font-size="22" font-family="Arial">MDS Scatter: latent_tree_swd_patch_3_25</text>
<rect x="70" y="50" width="650" height="420" fill="none" stroke="black"/>
<circle cx="70.0" cy="270.4" r="4.2" fill="#2f6fed" fill-opacity="0.75"/>
<circle cx="233.2" cy="229.6" r="4.2" fill="#2f6fed" fill-opacity="0.75"/>
<circle cx="457.1" cy="143.2" r="4.2" fill="#2f6fed" fill-opacity="0.75"/>
<circle cx="558.9" cy="325.7" r="4.2" fill="#2f6fed" fill-opacity="0.75"/>
<circle cx="277.6" cy="135.8" r="4.2" fill="#2f6fed" fill-opacity="0.75"/>
<circle cx="323.8" cy="50.0" r="4.2" fill="#2f6fed" fill-opacity="0.75"/>
<circle cx="577.5" cy="341.6" r="4.2" fill="#2f6fed" fill-opacity="0.75"/>
<circle cx="125.1" cy="169.6" r="4.2" fill="#2f6fed" fill-opacity="0.75"/>
<circle cx="595.0" cy="400.8" r="4.2" fill="#ff7a00" fill-opacity="0.75"/>
<circle cx="457.3" cy="405.8" r="4.2" fill="#ff7a00" fill-opacity="0.75"/>
<circle cx="313.4" cy="401.3" r="4.2" fill="#ff7a00" fill-opacity="0.75"/>
<circle cx="543.2" cy="396.8" r="4.2" fill="#ff7a00" fill-opacity="0.75"/>
<circle cx="191.9" cy="395.7" r="4.2" fill="#ff7a00" fill-opacity="0.75"/>
<circle cx="536.4" cy="470.0" r="4.2" fill="#ff7a00" fill-opacity="0.75"/>
<circle cx="430.7" cy="387.5" r="4.2" fill="#ff7a00" fill-opacity="0.75"/>
<circle cx="362.6" cy="367.2" r="4.2" fill="#ff7a00" fill-opacity="0.75"/>
<circle cx="600.5" cy="114.8" r="4.2" fill="#1fa971" fill-opacity="0.75"/>
<circle cx="527.8" cy="236.5" r="4.2" fill="#1fa971" fill-opacity="0.75"/>
<circle cx="601.0" cy="283.1" r="4.2" fill="#1fa971" fill-opacity="0.75"/>
<circle cx="405.3" cy="237.4" r="4.2" fill="#1fa971" fill-opacity="0.75"/>
<circle cx="590.8" cy="250.0" r="4.2" fill="#1fa971" fill-opacity="0.75"/>
<circle cx="552.2" cy="293.5" r="4.2" fill="#1fa971" fill-opacity="0.75"/>
<circle cx="504.2" cy="68.9" r="4.2" fill="#1fa971" fill-opacity="0.75"/>
<circle cx="677.8" cy="208.4" r="4.2" fill="#1fa971" fill-opacity="0.75"/>
<circle cx="570.3" cy="157.8" r="4.2" fill="#a046f2" fill-opacity="0.75"/>
<circle cx="582.9" cy="124.5" r="4.2" fill="#a046f2" fill-opacity="0.75"/>
<circle cx="674.5" cy="230.9" r="4.2" fill="#a046f2" fill-opacity="0.75"/>
<circle cx="700.8" cy="224.5" r="4.2" fill="#a046f2" fill-opacity="0.75"/>
<circle cx="546.2" cy="282.2" r="4.2" fill="#a046f2" fill-opacity="0.75"/>
<circle cx="529.4" cy="288.7" r="4.2" fill="#a046f2" fill-opacity="0.75"/>
<circle cx="720.0" cy="221.8" r="4.2" fill="#a046f2" fill-opacity="0.75"/>
<circle cx="704.7" cy="226.1" r="4.2" fill="#a046f2" fill-opacity="0.75"/>
<circle cx="397.2" cy="211.8" r="4.2" fill="#d64545" fill-opacity="0.75"/>
<circle cx="393.2" cy="238.8" r="4.2" fill="#d64545" fill-opacity="0.75"/>
<circle cx="490.8" cy="338.1" r="4.2" fill="#d64545" fill-opacity="0.75"/>
<circle cx="460.9" cy="330.4" r="4.2" fill="#d64545" fill-opacity="0.75"/>
<circle cx="262.3" cy="187.9" r="4.2" fill="#d64545" fill-opacity="0.75"/>
<circle cx="277.6" cy="217.7" r="4.2" fill="#d64545" fill-opacity="0.75"/>
<circle cx="673.9" cy="235.7" r="4.2" fill="#d64545" fill-opacity="0.75"/>
<circle cx="666.7" cy="219.6" r="4.2" fill="#d64545" fill-opacity="0.75"/>
<rect x="750" y="60" width="14" height="14" fill="#2f6fed"/>
<text x="770" y="72" font-size="14" font-family="Arial">photo</text>
<rect x="750" y="84" width="14" height="14" fill="#ff7a00"/>
<text x="770" y="96" font-size="14" font-family="Arial">Hayao</text>
<rect x="750" y="108" width="14" height="14" fill="#1fa971"/>
<text x="770" y="120" font-size="14" font-family="Arial">monet</text>
<rect x="750" y="132" width="14" height="14" fill="#a046f2"/>
<text x="770" y="144" font-size="14" font-family="Arial">vangogh</text>
<rect x="750" y="156" width="14" height="14" fill="#d64545"/>
<text x="770" y="168" font-size="14" font-family="Arial">cezanne</text>
</svg>