<svg xmlns="http://www.w3.org/2000/svg" width="900" height="520" viewBox="0 0 900 520">
<rect width="100%" height="100%" fill="white"/>
<text x="450.0" y="28" text-anchor="middle" font-size="22" font-family="Arial">MDS Scatter: latent_swd_patch_3_25</text>
<rect x="70" y="50" width="650" height="420" fill="none" stroke="black"/>
<circle cx="720.0" cy="337.5" r="4.2" fill="#2f6fed" fill-opacity="0.75"/>
<circle cx="431.4" cy="404.2" r="4.2" fill="#2f6fed" fill-opacity="0.75"/>
<circle cx="298.4" cy="200.3" r="4.2" fill="#2f6fed" fill-opacity="0.75"/>
<circle cx="366.6" cy="148.5" r="4.2" fill="#2f6fed" fill-opacity="0.75"/>
<circle cx="431.0" cy="212.1" r="4.2" fill="#2f6fed" fill-opacity="0.75"/>
<circle cx="292.7" cy="188.9" r="4.2" fill="#2f6fed" fill-opacity="0.75"/>
<circle cx="340.1" cy="268.6" r="4.2" fill="#2f6fed" fill-opacity="0.75"/>
<circle cx="665.1" cy="50.0" r="4.2" fill="#2f6fed" fill-opacity="0.75"/>
<circle cx="364.3" cy="254.3" r="4.2" fill="#ff7a00" fill-opacity="0.75"/>
<circle cx="463.4" cy="378.1" r="4.2" fill="#ff7a00" fill-opacity="0.75"/>
<circle cx="506.7" cy="432.7" r="4.2" fill="#ff7a00" fill-opacity="0.75"/>
<circle cx="380.7" cy="244.1" r="4.2" fill="#ff7a00" fill-opacity="0.75"/>
<circle cx="703.8" cy="470.0" r="4.2" fill="#ff7a00" fill-opacity="0.75"/>
<circle cx="403.0" cy="267.2" r="4.2" fill="#ff7a00" fill-opacity="0.75"/>
<circle cx="427.5" cy="434.3" r="4.2" fill="#ff7a00" fill-opacity="0.75"/>
<circle cx="471.8" cy="297.5" r="4.2" fill="#ff7a00" fill-opacity="0.75"/>
<circle cx="161.7" cy="161.9" r="4.2" fill="#1fa971" fill-opacity="0.75"/>
<circle cx="270.4" cy="348.8" r="4.2" fill="#1fa971" fill-opacity="0.75"/>
<circle cx="280.2" cy="231.8" r="4.2" fill="#1fa971" fill-opacity="0.75"/>
<circle cx="314.9" cy="279.0" r="4.2" fill="#1fa971" fill-opacity="0.75"/>
<circle cx="243.9" cy="163.9" r="4.2" fill="#1fa971" fill-opacity="0.75"/>
<circle cx="268.1" cy="198.2" r="4.2" fill="#1fa971" fill-opacity="0.75"/>
<circle cx="202.2" cy="272.4" r="4.2" fill="#1fa971" fill-opacity="0.75"/>
<circle cx="207.1" cy="247.1" r="4.2" fill="#1fa971" fill-opacity="0.75"/>
<circle cx="195.4" cy="246.4" r="4.2" fill="#a046f2" fill-opacity="0.75"/>
<circle cx="182.8" cy="223.1" r="4.2" fill="#a046f2" fill-opacity="0.75"/>
<circle cx="114.5" cy="389.3" r="4.2" fill="#a046f2" fill-opacity="0.75"/>
<circle cx="132.1" cy="390.0" r="4.2" fill="#a046f2" fill-opacity="0.75"/>
<circle cx="268.8" cy="422.2" r="4.2" fill="#a046f2" fill-opacity="0.75"/>
<circle cx="274.8" cy="418.1" r="4.2" fill="#a046f2" fill-opacity="0.75"/>
<circle cx="70.0" cy="414.3" r="4.2" fill="#a046f2" fill-opacity="0.75"/>
<circle cx="89.5" cy="445.3" r="4.2" fill="#a046f2" fill-opacity="0.75"/>
<circle cx="333.6" cy="288.7" r="4.2" fill="#d64545" fill-opacity="0.75"/>
<circle cx="334.0" cy="283.4" r="4.2" fill="#d64545" fill-opacity="0.75"/>
<circle cx="374.0" cy="228.0" r="4.2" fill="#d64545" fill-opacity="0.75"/>
<circle cx="378.5" cy="223.3" r="4.2" fill="#d64545" fill-opacity="0.75"/>
<circle cx="460.8" cy="363.1" r="4.2" fill="#d64545" fill-opacity="0.75"/>
<circle cx="463.0" cy="362.6" r="4.2" fill="#d64545" fill-opacity="0.75"/>
<circle cx="206.7" cy="305.0" r="4.2" fill="#d64545" fill-opacity="0.75"/>
<circle cx="221.3" cy="316.0" r="4.2" fill="#d64545" fill-opacity="0.75"/>
<rect x="750" y="60" width="14" height="14" fill="#2f6fed"/>
<text x="770" y="72" font-size="14" font-family="Arial">photo</text>
<rect x="750" y="84" width="14" height="14" fill="#ff7a00"/>
<text x="770" y="96" font-size="14" font-family="Arial">Hayao</text>
<rect x="750" y="108" width="14" height="14" fill="#1fa971"/>
<text x="770" y="120" font-size="14" font-family="Arial">monet</text>
<rect x="750" y="132" width="14" height="14" fill="#a046f2"/>
<text x="770" y="144" font-size="14" font-family="Arial">vangogh</text>
<rect x="750" y="156" width="14" height="14" fill="#d64545"/>
<text x="770" y="168" font-size="14" font-family="Arial">cezanne</text>
</svg>