<svg xmlns="http://www.w3.org/2000/svg" width="900" height="520" viewBox="0 0 900 520">
<rect width="100%" height="100%" fill="white"/>
<text x="450.0" y="28" text-anchor="middle" font-size="22" font-family="Arial">Intra vs Inter KDE: latent_gram</text>
<rect x="80" y="50" width="790" height="410" fill="none" stroke="black"/>
<polyline fill="none" stroke="#2f6fed" stroke-width="2.5" points="80.0,383.5 83.3,380.1 86.6,376.6 89.9,373.0 93.2,369.3 96.5,365.4 99.8,361.5 103.1,357.4 106.4,353.3 109.7,349.0 113.1,344.6 116.4,340.1 119.7,335.5 123.0,330.7 126.3,325.9 129.6,320.9 132.9,315.9 136.2,310.7 139.5,305.4 142.8,300.1 146.1,294.6 149.4,289.0 152.7,283.4 156.0,277.7 159.3,271.9 162.6,266.0 165.9,260.1 169.2,254.2 172.6,248.2 175.9,242.1 179.2,236.1 182.5,230.0 185.8,223.9 189.1,217.8 192.4,211.8 195.7,205.7 199.0,199.7 202.3,193.7 205.6,187.8 208.9,181.9 212.2,176.1 215.5,170.4 218.8,164.7 222.1,159.2 225.4,153.7 228.7,148.3 232.1,143.1 235.4,138.0 238.7,133.0 242.0,128.1 245.3,123.4 248.6,118.8 251.9,114.4 255.2,110.2 258.5,106.2 261.8,102.3 265.1,98.7 268.4,95.2 271.7,92.0 275.0,89.0 278.3,86.2 281.6,83.7 284.9,81.4 288.2,79.4 291.5,77.6 294.9,76.2 298.2,75.0 301.5,74.1 304.8,73.5 308.1,73.3 311.4,73.3 314.7,73.6 318.0,74.3 321.3,75.3 324.6,76.6 327.9,78.2 331.2,80.2 334.5,82.4 337.8,85.0 341.1,87.8 344.4,91.0 347.7,94.5 351.0,98.2 354.4,102.2 357.7,106.5 361.0,110.9 364.3,115.7 367.6,120.6 370.9,125.7 374.2,131.0 377.5,136.5 380.8,142.0 384.1,147.7 387.4,153.5 390.7,159.4 394.0,165.3 397.3,171.3 400.6,177.3 403.9,183.3 407.2,189.2 410.5,195.1 413.8,201.0 417.2,206.7 420.5,212.4 423.8,218.0 427.1,223.4 430.4,228.7 433.7,233.9 437.0,238.9 440.3,243.8 443.6,248.4 446.9,252.9 450.2,257.2 453.5,261.4 456.8,265.3 460.1,269.0 463.4,272.6 466.7,276.0 470.0,279.2 473.3,282.2 476.7,285.0 480.0,287.7 483.3,290.2 486.6,292.5 489.9,294.7 493.2,296.8 496.5,298.8 499.8,300.6 503.1,302.3 506.4,303.9 509.7,305.5 513.0,306.9 516.3,308.3 519.6,309.7 522.9,311.0 526.2,312.2 529.5,313.5 532.8,314.7 536.2,315.9 539.5,317.1 542.8,318.3 546.1,319.5 549.4,320.7 552.7,321.9 556.0,323.2 559.3,324.5 562.6,325.8 565.9,327.1 569.2,328.5 572.5,329.9 575.8,331.4 579.1,332.9 582.4,334.4 585.7,336.0 589.0,337.6 592.3,339.2 595.6,340.9 599.0,342.6 602.3,344.3 605.6,346.0 608.9,347.8 612.2,349.5 615.5,351.3 618.8,353.1 622.1,354.9 625.4,356.6 628.7,358.4 632.0,360.2 635.3,361.9 638.6,363.7 641.9,365.4 645.2,367.1 648.5,368.8 651.8,370.4 655.1,372.0 658.5,373.6 661.8,375.1 665.1,376.6 668.4,378.1 671.7,379.5 675.0,380.9 678.3,382.2 681.6,383.5 684.9,384.7 688.2,385.9 691.5,387.1 694.8,388.2 698.1,389.2 701.4,390.2 704.7,391.2 708.0,392.1 711.3,393.0 714.6,393.8 717.9,394.6 721.3,395.4 724.6,396.1 727.9,396.8 731.2,397.5 734.5,398.2 737.8,398.8 741.1,399.4 744.4,400.0 747.7,400.6 751.0,401.1 754.3,401.7 757.6,402.3 760.9,402.8 764.2,403.4 767.5,404.0 770.8,404.6 774.1,405.2 777.4,405.8 780.8,406.4 784.1,407.1 787.4,407.8 790.7,408.5 794.0,409.2 797.3,410.0 800.6,410.8 803.9,411.6 807.2,412.5 810.5,413.4 813.8,414.3 817.1,415.3 820.4,416.3 823.7,417.3 827.0,418.3 830.3,419.4 833.6,420.4 836.9,421.5 840.3,422.7 843.6,423.8 846.9,425.0 850.2,426.1 853.5,427.3 856.8,428.5 860.1,429.6 863.4,430.8 866.7,432.0 870.0,433.1"/>
<polyline fill="none" stroke="#d64545" stroke-width="2.5" points="80.0,453.1 83.3,451.9 86.6,450.6 89.9,449.1 93.2,447.4 96.5,445.6 99.8,443.4 103.1,441.1 106.4,438.5 109.7,435.6 113.1,432.4 116.4,428.9 119.7,425.0 123.0,420.8 126.3,416.3 129.6,411.4 132.9,406.1 136.2,400.4 139.5,394.4 142.8,387.9 146.1,381.0 149.4,373.7 152.7,366.0 156.0,357.9 159.3,349.5 162.6,340.6 165.9,331.4 169.2,321.9 172.6,312.0 175.9,301.8 179.2,291.4 182.5,280.7 185.8,269.8 189.1,258.8 192.4,247.6 195.7,236.3 199.0,224.9 202.3,213.6 205.6,202.2 208.9,191.0 212.2,179.9 215.5,168.9 218.8,158.2 222.1,147.7 225.4,137.6 228.7,127.8 232.1,118.4 235.4,109.5 238.7,101.1 242.0,93.2 245.3,85.9 248.6,79.2 251.9,73.2 255.2,67.8 258.5,63.1 261.8,59.1 265.1,55.9 268.4,53.3 271.7,51.5 275.0,50.4 278.3,50.0 281.6,50.3 284.9,51.3 288.2,52.9 291.5,55.1 294.9,57.9 298.2,61.2 301.5,65.0 304.8,69.2 308.1,73.8 311.4,78.7 314.7,83.9 318.0,89.3 321.3,94.9 324.6,100.6 327.9,106.2 331.2,111.9 334.5,117.6 337.8,123.1 341.1,128.4 344.4,133.6 347.7,138.5 351.0,143.2 354.4,147.6 357.7,151.7 361.0,155.5 364.3,159.0 367.6,162.1 370.9,165.0 374.2,167.5 377.5,169.8 380.8,171.7 384.1,173.5 387.4,175.0 390.7,176.3 394.0,177.5 397.3,178.6 400.6,179.5 403.9,180.4 407.2,181.2 410.5,182.1 413.8,183.0 417.2,183.9 420.5,184.9 423.8,186.0 427.1,187.2 430.4,188.6 433.7,190.1 437.0,191.7 440.3,193.5 443.6,195.5 446.9,197.6 450.2,199.9 453.5,202.3 456.8,204.8 460.1,207.4 463.4,210.2 466.7,213.1 470.0,216.0 473.3,219.0 476.7,222.0 480.0,225.1 483.3,228.2 486.6,231.4 489.9,234.5 493.2,237.6 496.5,240.7 499.8,243.8 503.1,246.8 506.4,249.8 509.7,252.7 513.0,255.6 516.3,258.4 519.6,261.2 522.9,263.9 526.2,266.6 529.5,269.2 532.8,271.7 536.2,274.2 539.5,276.6 542.8,279.0 546.1,281.3 549.4,283.5 552.7,285.7 556.0,287.9 559.3,290.0 562.6,292.0 565.9,294.0 569.2,295.9 572.5,297.8 575.8,299.7 579.1,301.5 582.4,303.2 585.7,304.9 589.0,306.5 592.3,308.1 595.6,309.6 599.0,311.1 602.3,312.5 605.6,313.8 608.9,315.2 612.2,316.4 615.5,317.7 618.8,318.8 622.1,320.0 625.4,321.1 628.7,322.2 632.0,323.2 635.3,324.3 638.6,325.3 641.9,326.3 645.2,327.3 648.5,328.2 651.8,329.2 655.1,330.2 658.5,331.2 661.8,332.3 665.1,333.3 668.4,334.4 671.7,335.5 675.0,336.7 678.3,337.9 681.6,339.2 684.9,340.5 688.2,341.9 691.5,343.4 694.8,344.9 698.1,346.5 701.4,348.1 704.7,349.8 708.0,351.6 711.3,353.5 714.6,355.4 717.9,357.4 721.3,359.4 724.6,361.5 727.9,363.6 731.2,365.8 734.5,368.0 737.8,370.2 741.1,372.5 744.4,374.7 747.7,377.0 751.0,379.3 754.3,381.5 757.6,383.8 760.9,386.0 764.2,388.3 767.5,390.5 770.8,392.6 774.1,394.8 777.4,396.9 780.8,399.0 784.1,401.1 787.4,403.1 790.7,405.1 794.0,407.0 797.3,409.0 800.6,410.9 803.9,412.8 807.2,414.6 810.5,416.5 813.8,418.3 817.1,420.1 820.4,421.9 823.7,423.7 827.0,425.4 830.3,427.1 833.6,428.8 836.9,430.4 840.3,432.1 843.6,433.7 846.9,435.2 850.2,436.8 853.5,438.2 856.8,439.7 860.1,441.1 863.4,442.4 866.7,443.7 870.0,444.9"/>
<text x="740" y="70" font-size="14" font-family="Arial" fill="#2f6fed">intra-class</text>
<text x="740" y="92" font-size="14" font-family="Arial" fill="#d64545">inter-class</text>
</svg>