<svg xmlns="http://www.w3.org/2000/svg" width="900" height="520" viewBox="0 0 900 520">
<rect width="100%" height="100%" fill="white"/>
<text x="450.0" y="28" text-anchor="middle" font-size="22" font-family="Arial">Intra vs Inter KDE: latent_tree_swd_patch_3_25</text>
<rect x="80" y="50" width="790" height="410" fill="none" stroke="black"/>
<polyline fill="none" stroke="#2f6fed" stroke-width="2.5" points="80.0,395.6 83.3,392.1 86.6,388.5 89.9,384.8 93.2,381.0 96.5,377.2 99.8,373.2 103.1,369.2 106.4,365.1 109.7,360.8 113.1,356.4 116.4,352.0 119.7,347.4 123.0,342.6 126.3,337.8 129.6,332.8 132.9,327.6 136.2,322.3 139.5,316.8 142.8,311.2 146.1,305.4 149.4,299.4 152.7,293.3 156.0,287.0 159.3,280.5 162.6,273.8 165.9,267.0 169.2,260.0 172.6,252.9 175.9,245.6 179.2,238.2 182.5,230.7 185.8,223.1 189.1,215.4 192.4,207.7 195.7,199.8 199.0,192.0 202.3,184.2 205.6,176.4 208.9,168.6 212.2,160.9 215.5,153.3 218.8,145.9 222.1,138.6 225.4,131.4 228.7,124.5 232.1,117.8 235.4,111.4 238.7,105.2 242.0,99.3 245.3,93.7 248.6,88.4 251.9,83.5 255.2,78.9 258.5,74.6 261.8,70.7 265.1,67.2 268.4,64.0 271.7,61.1 275.0,58.6 278.3,56.4 281.6,54.6 284.9,53.0 288.2,51.8 291.5,51.0 294.9,50.4 298.2,50.0 301.5,50.0 304.8,50.2 308.1,50.7 311.4,51.5 314.7,52.5 318.0,53.7 321.3,55.2 324.6,56.9 327.9,58.8 331.2,61.0 334.5,63.4 337.8,66.0 341.1,68.9 344.4,72.0 347.7,75.4 351.0,79.0 354.4,82.8 357.7,86.9 361.0,91.2 364.3,95.8 367.6,100.5 370.9,105.6 374.2,110.8 377.5,116.3 380.8,121.9 384.1,127.8 387.4,133.8 390.7,140.0 394.0,146.4 397.3,152.8 400.6,159.4 403.9,166.1 407.2,172.8 410.5,179.6 413.8,186.4 417.2,193.2 420.5,200.0 423.8,206.7 427.1,213.4 430.4,219.9 433.7,226.4 437.0,232.7 440.3,238.9 443.6,244.9 446.9,250.7 450.2,256.4 453.5,261.8 456.8,267.1 460.1,272.1 463.4,276.8 466.7,281.4 470.0,285.7 473.3,289.8 476.7,293.7 480.0,297.3 483.3,300.7 486.6,304.0 489.9,307.0 493.2,309.8 496.5,312.4 499.8,314.9 503.1,317.2 506.4,319.3 509.7,321.3 513.0,323.2 516.3,324.9 519.6,326.6 522.9,328.2 526.2,329.7 529.5,331.1 532.8,332.5 536.2,333.8 539.5,335.1 542.8,336.4 546.1,337.7 549.4,338.9 552.7,340.2 556.0,341.5 559.3,342.8 562.6,344.1 565.9,345.4 569.2,346.8 572.5,348.3 575.8,349.8 579.1,351.3 582.4,352.9 585.7,354.6 589.0,356.3 592.3,358.1 595.6,360.0 599.0,361.9 602.3,363.9 605.6,365.9 608.9,368.0 612.2,370.2 615.5,372.4 618.8,374.7 622.1,377.0 625.4,379.3 628.7,381.7 632.0,384.2 635.3,386.6 638.6,389.1 641.9,391.5 645.2,394.0 648.5,396.5 651.8,399.0 655.1,401.4 658.5,403.8 661.8,406.2 665.1,408.6 668.4,410.9 671.7,413.2 675.0,415.4 678.3,417.6 681.6,419.7 684.9,421.7 688.2,423.7 691.5,425.6 694.8,427.4 698.1,429.2 701.4,430.9 704.7,432.5 708.0,434.1 711.3,435.5 714.6,436.9 717.9,438.3 721.3,439.5 724.6,440.7 727.9,441.8 731.2,442.8 734.5,443.8 737.8,444.7 741.1,445.5 744.4,446.3 747.7,446.9 751.0,447.6 754.3,448.2 757.6,448.7 760.9,449.1 764.2,449.5 767.5,449.9 770.8,450.2 774.1,450.5 777.4,450.7 780.8,450.9 784.1,451.1 787.4,451.2 790.7,451.3 794.0,451.4 797.3,451.5 800.6,451.6 803.9,451.7 807.2,451.7 810.5,451.8 813.8,451.8 817.1,451.9 820.4,452.0 823.7,452.1 827.0,452.1 830.3,452.3 833.6,452.4 836.9,452.5 840.3,452.7 843.6,452.8 846.9,453.0 850.2,453.2 853.5,453.4 856.8,453.6 860.1,453.9 863.4,454.1 866.7,454.4 870.0,454.6"/>
<polyline fill="none" stroke="#d64545" stroke-width="2.5" points="80.0,455.5 83.3,454.7 86.6,453.9 89.9,453.0 93.2,452.0 96.5,450.8 99.8,449.5 103.1,448.1 106.4,446.5 109.7,444.7 113.1,442.8 116.4,440.7 119.7,438.4 123.0,435.9 126.3,433.1 129.6,430.2 132.9,427.0 136.2,423.7 139.5,420.1 142.8,416.2 146.1,412.2 149.4,407.9 152.7,403.4 156.0,398.7 159.3,393.8 162.6,388.7 165.9,383.5 169.2,378.1 172.6,372.5 175.9,366.8 179.2,361.0 182.5,355.1 185.8,349.2 189.1,343.1 192.4,337.1 195.7,331.0 199.0,324.9 202.3,318.8 205.6,312.7 208.9,306.6 212.2,300.6 215.5,294.6 218.8,288.7 222.1,282.9 225.4,277.1 228.7,271.3 232.1,265.7 235.4,260.1 238.7,254.6 242.0,249.1 245.3,243.8 248.6,238.5 251.9,233.2 255.2,228.1 258.5,223.0 261.8,218.0 265.1,213.0 268.4,208.2 271.7,203.4 275.0,198.8 278.3,194.2 281.6,189.7 284.9,185.4 288.2,181.1 291.5,177.0 294.9,173.0 298.2,169.1 301.5,165.4 304.8,161.9 308.1,158.4 311.4,155.2 314.7,152.0 318.0,149.1 321.3,146.2 324.6,143.5 327.9,141.0 331.2,138.5 334.5,136.2 337.8,134.0 341.1,131.9 344.4,129.9 347.7,127.9 351.0,126.0 354.4,124.2 357.7,122.5 361.0,120.8 364.3,119.1 367.6,117.5 370.9,115.9 374.2,114.4 377.5,113.0 380.8,111.6 384.1,110.3 387.4,109.1 390.7,108.0 394.0,107.0 397.3,106.1 400.6,105.4 403.9,104.8 407.2,104.4 410.5,104.2 413.8,104.2 417.2,104.3 420.5,104.7 423.8,105.3 427.1,106.1 430.4,107.1 433.7,108.4 437.0,109.9 440.3,111.6 443.6,113.5 446.9,115.6 450.2,117.9 453.5,120.4 456.8,123.1 460.1,125.9 463.4,128.9 466.7,132.1 470.0,135.5 473.3,138.9 476.7,142.5 480.0,146.3 483.3,150.1 486.6,154.0 489.9,158.1 493.2,162.2 496.5,166.5 499.8,170.8 503.1,175.2 506.4,179.7 509.7,184.2 513.0,188.8 516.3,193.4 519.6,198.1 522.9,202.9 526.2,207.6 529.5,212.4 532.8,217.3 536.2,222.1 539.5,227.0 542.8,231.9 546.1,236.8 549.4,241.7 552.7,246.5 556.0,251.4 559.3,256.2 562.6,261.0 565.9,265.7 569.2,270.4 572.5,275.0 575.8,279.5 579.1,283.9 582.4,288.3 585.7,292.5 589.0,296.7 592.3,300.7 595.6,304.6 599.0,308.4 602.3,312.1 605.6,315.6 608.9,319.0 612.2,322.3 615.5,325.5 618.8,328.5 622.1,331.4 625.4,334.2 628.7,336.9 632.0,339.5 635.3,341.9 638.6,344.3 641.9,346.6 645.2,348.8 648.5,350.9 651.8,352.9 655.1,354.9 658.5,356.8 661.8,358.7 665.1,360.5 668.4,362.2 671.7,363.9 675.0,365.6 678.3,367.3 681.6,368.9 684.9,370.5 688.2,372.1 691.5,373.6 694.8,375.2 698.1,376.7 701.4,378.2 704.7,379.6 708.0,381.0 711.3,382.5 714.6,383.8 717.9,385.2 721.3,386.5 724.6,387.8 727.9,389.0 731.2,390.2 734.5,391.4 737.8,392.5 741.1,393.7 744.4,394.8 747.7,395.9 751.0,396.9 754.3,398.0 757.6,399.1 760.9,400.2 764.2,401.3 767.5,402.5 770.8,403.6 774.1,404.9 777.4,406.1 780.8,407.4 784.1,408.8 787.4,410.3 790.7,411.7 794.0,413.3 797.3,414.9 800.6,416.6 803.9,418.3 807.2,420.0 810.5,421.8 813.8,423.6 817.1,425.4 820.4,427.2 823.7,429.0 827.0,430.8 830.3,432.6 833.6,434.3 836.9,436.0 840.3,437.6 843.6,439.2 846.9,440.8 850.2,442.2 853.5,443.6 856.8,445.0 860.1,446.2 863.4,447.4 866.7,448.5 870.0,449.6"/>
<text x="740" y="70" font-size="14" font-family="Arial" fill="#2f6fed">intra-class</text>
<text x="740" y="92" font-size="14" font-family="Arial" fill="#d64545">inter-class</text>
</svg>