<svg xmlns="http://www.w3.org/2000/svg" width="900" height="520" viewBox="0 0 900 520">
<rect width="100%" height="100%" fill="white"/>
<text x="450.0" y="28" text-anchor="middle" font-size="22" font-family="Arial">Intra vs Inter KDE: latent_swd_patch_3_25</text>
<rect x="80" y="50" width="790" height="410" fill="none" stroke="black"/>
<polyline fill="none" stroke="#2f6fed" stroke-width="2.5" points="80.0,412.4 83.3,410.6 86.6,408.9 89.9,407.2 93.2,405.7 96.5,404.2 99.8,402.7 103.1,401.3 106.4,399.8 109.7,398.2 113.1,396.6 116.4,394.8 119.7,392.9 123.0,390.7 126.3,388.3 129.6,385.6 132.9,382.5 136.2,379.0 139.5,375.1 142.8,370.8 146.1,366.0 149.4,360.8 152.7,355.0 156.0,348.8 159.3,342.0 162.6,334.8 165.9,327.1 169.2,318.9 172.6,310.3 175.9,301.3 179.2,292.0 182.5,282.2 185.8,272.2 189.1,261.9 192.4,251.4 195.7,240.7 199.0,229.9 202.3,218.9 205.6,207.9 208.9,197.0 212.2,186.0 215.5,175.2 218.8,164.5 222.1,154.0 225.4,143.7 228.7,133.7 232.1,124.1 235.4,114.8 238.7,106.0 242.0,97.6 245.3,89.8 248.6,82.5 251.9,75.9 255.2,69.9 258.5,64.7 261.8,60.2 265.1,56.5 268.4,53.6 271.7,51.5 275.0,50.3 278.3,50.0 281.6,50.6 284.9,52.1 288.2,54.5 291.5,57.7 294.9,61.9 298.2,66.9 301.5,72.7 304.8,79.3 308.1,86.6 311.4,94.6 314.7,103.2 318.0,112.3 321.3,122.0 324.6,132.0 327.9,142.4 331.2,153.0 334.5,163.8 337.8,174.7 341.1,185.7 344.4,196.6 347.7,207.3 351.0,217.9 354.4,228.2 357.7,238.3 361.0,248.0 364.3,257.3 367.6,266.2 370.9,274.7 374.2,282.7 377.5,290.4 380.8,297.5 384.1,304.3 387.4,310.6 390.7,316.6 394.0,322.2 397.3,327.5 400.6,332.4 403.9,337.1 407.2,341.6 410.5,345.9 413.8,349.9 417.2,353.8 420.5,357.6 423.8,361.2 427.1,364.7 430.4,368.2 433.7,371.5 437.0,374.7 440.3,377.8 443.6,380.8 446.9,383.6 450.2,386.4 453.5,389.0 456.8,391.4 460.1,393.7 463.4,395.9 466.7,397.8 470.0,399.6 473.3,401.2 476.7,402.6 480.0,403.8 483.3,404.9 486.6,405.8 489.9,406.5 493.2,407.1 496.5,407.5 499.8,407.9 503.1,408.1 506.4,408.2 509.7,408.3 513.0,408.4 516.3,408.4 519.6,408.4 522.9,408.4 526.2,408.4 529.5,408.5 532.8,408.6 536.2,408.9 539.5,409.1 542.8,409.5 546.1,410.0 549.4,410.5 552.7,411.2 556.0,411.9 559.3,412.8 562.6,413.7 565.9,414.7 569.2,415.8 572.5,416.9 575.8,418.2 579.1,419.5 582.4,420.8 585.7,422.2 589.0,423.6 592.3,425.0 595.6,426.5 599.0,428.0 602.3,429.4 605.6,430.9 608.9,432.4 612.2,433.9 615.5,435.4 618.8,436.8 622.1,438.2 625.4,439.6 628.7,441.0 632.0,442.3 635.3,443.6 638.6,444.9 641.9,446.1 645.2,447.3 648.5,448.4 651.8,449.4 655.1,450.4 658.5,451.4 661.8,452.3 665.1,453.1 668.4,453.9 671.7,454.6 675.0,455.2 678.3,455.8 681.6,456.4 684.9,456.8 688.2,457.3 691.5,457.7 694.8,458.0 698.1,458.3 701.4,458.6 704.7,458.8 708.0,459.0 711.3,459.2 714.6,459.3 717.9,459.4 721.3,459.5 724.6,459.6 727.9,459.7 731.2,459.8 734.5,459.8 737.8,459.8 741.1,459.9 744.4,459.9 747.7,459.9 751.0,459.9 754.3,460.0 757.6,460.0 760.9,460.0 764.2,460.0 767.5,460.0 770.8,460.0 774.1,460.0 777.4,460.0 780.8,460.0 784.1,460.0 787.4,460.0 790.7,460.0 794.0,460.0 797.3,460.0 800.6,460.0 803.9,460.0 807.2,460.0 810.5,460.0 813.8,460.0 817.1,460.0 820.4,460.0 823.7,460.0 827.0,460.0 830.3,460.0 833.6,460.0 836.9,460.0 840.3,460.0 843.6,460.0 846.9,460.0 850.2,460.0 853.5,460.0 856.8,460.0 860.1,460.0 863.4,460.0 866.7,460.0 870.0,460.0"/>
<polyline fill="none" stroke="#d64545" stroke-width="2.5" points="80.0,455.6 83.3,454.8 86.6,454.0 89.9,453.0 93.2,451.9 96.5,450.7 99.8,449.4 103.1,447.9 106.4,446.3 109.7,444.5 113.1,442.6 116.4,440.4 119.7,438.2 123.0,435.7 126.3,433.0 129.6,430.2 132.9,427.2 136.2,424.0 139.5,420.5 142.8,416.9 146.1,413.1 149.4,409.1 152.7,404.8 156.0,400.4 159.3,395.8 162.6,391.0 165.9,385.9 169.2,380.8 172.6,375.4 175.9,369.8 179.2,364.1 182.5,358.3 185.8,352.2 189.1,346.1 192.4,339.8 195.7,333.5 199.0,327.0 202.3,320.4 205.6,313.8 208.9,307.1 212.2,300.4 215.5,293.7 218.8,287.0 222.1,280.2 225.4,273.5 228.7,266.9 232.1,260.3 235.4,253.7 238.7,247.2 242.0,240.9 245.3,234.6 248.6,228.5 251.9,222.5 255.2,216.6 258.5,210.9 261.8,205.4 265.1,200.1 268.4,195.0 271.7,190.2 275.0,185.6 278.3,181.2 281.6,177.1 284.9,173.3 288.2,169.8 291.5,166.5 294.9,163.6 298.2,161.1 301.5,158.8 304.8,156.9 308.1,155.3 311.4,154.0 314.7,153.1 318.0,152.5 321.3,152.2 324.6,152.2 327.9,152.6 331.2,153.3 334.5,154.2 337.8,155.4 341.1,157.0 344.4,158.8 347.7,160.8 351.0,163.1 354.4,165.6 357.7,168.4 361.0,171.3 364.3,174.5 367.6,177.9 370.9,181.5 374.2,185.3 377.5,189.3 380.8,193.4 384.1,197.7 387.4,202.2 390.7,206.8 394.0,211.6 397.3,216.5 400.6,221.5 403.9,226.6 407.2,231.8 410.5,237.0 413.8,242.3 417.2,247.6 420.5,252.9 423.8,258.1 427.1,263.3 430.4,268.4 433.7,273.4 437.0,278.3 440.3,283.1 443.6,287.7 446.9,292.1 450.2,296.4 453.5,300.5 456.8,304.4 460.1,308.2 463.4,311.7 466.7,315.2 470.0,318.5 473.3,321.6 476.7,324.7 480.0,327.6 483.3,330.5 486.6,333.3 489.9,336.1 493.2,338.9 496.5,341.6 499.8,344.4 503.1,347.1 506.4,349.9 509.7,352.7 513.0,355.5 516.3,358.3 519.6,361.1 522.9,364.0 526.2,366.9 529.5,369.8 532.8,372.7 536.2,375.5 539.5,378.4 542.8,381.3 546.1,384.1 549.4,386.9 552.7,389.6 556.0,392.3 559.3,394.9 562.6,397.5 565.9,399.9 569.2,402.3 572.5,404.6 575.8,406.7 579.1,408.8 582.4,410.7 585.7,412.5 589.0,414.1 592.3,415.6 595.6,417.0 599.0,418.2 602.3,419.3 605.6,420.3 608.9,421.1 612.2,421.8 615.5,422.4 618.8,422.8 622.1,423.2 625.4,423.4 628.7,423.6 632.0,423.7 635.3,423.7 638.6,423.7 641.9,423.7 645.2,423.6 648.5,423.5 651.8,423.5 655.1,423.4 658.5,423.4 661.8,423.4 665.1,423.5 668.4,423.6 671.7,423.8 675.0,424.1 678.3,424.4 681.6,424.8 684.9,425.2 688.2,425.7 691.5,426.3 694.8,426.9 698.1,427.5 701.4,428.2 704.7,428.9 708.0,429.7 711.3,430.4 714.6,431.2 717.9,432.0 721.3,432.7 724.6,433.5 727.9,434.2 731.2,434.9 734.5,435.6 737.8,436.3 741.1,436.9 744.4,437.5 747.7,438.0 751.0,438.5 754.3,439.0 757.6,439.4 760.9,439.8 764.2,440.2 767.5,440.5 770.8,440.8 774.1,441.1 777.4,441.3 780.8,441.6 784.1,441.8 787.4,442.0 790.7,442.3 794.0,442.5 797.3,442.7 800.6,442.9 803.9,443.2 807.2,443.4 810.5,443.7 813.8,443.9 817.1,444.2 820.4,444.5 823.7,444.8 827.0,445.2 830.3,445.5 833.6,445.9 836.9,446.3 840.3,446.7 843.6,447.2 846.9,447.6 850.2,448.1 853.5,448.6 856.8,449.1 860.1,449.6 863.4,450.1 866.7,450.6 870.0,451.1"/>
<text x="740" y="70" font-size="14" font-family="Arial" fill="#2f6fed">intra-class</text>
<text x="740" y="92" font-size="14" font-family="Arial" fill="#d64545">inter-class</text>
</svg>