<svg xmlns="http://www.w3.org/2000/svg" width="900" height="520" viewBox="0 0 900 520">
<rect width="100%" height="100%" fill="white"/>
<text x="450.0" y="28" text-anchor="middle" font-size="22" font-family="Arial">Intra vs Inter KDE: pixel_swd_patch_3_25</text>
<rect x="80" y="50" width="790" height="410" fill="none" stroke="black"/>
<polyline fill="none" stroke="#2f6fed" stroke-width="2.5" points="80.0,406.0 83.3,404.4 86.6,402.8 89.9,401.3 93.2,399.8 96.5,398.3 99.8,396.9 103.1,395.4 106.4,394.0 109.7,392.5 113.1,391.1 116.4,389.5 119.7,388.0 123.0,386.3 126.3,384.6 129.6,382.8 132.9,380.8 136.2,378.8 139.5,376.6 142.8,374.2 146.1,371.7 149.4,369.1 152.7,366.2 156.0,363.2 159.3,359.9 162.6,356.5 165.9,352.9 169.2,349.1 172.6,345.1 175.9,340.9 179.2,336.5 182.5,331.9 185.8,327.1 189.1,322.2 192.4,317.1 195.7,311.8 199.0,306.4 202.3,300.9 205.6,295.2 208.9,289.4 212.2,283.5 215.5,277.6 218.8,271.5 222.1,265.4 225.4,259.2 228.7,253.0 232.1,246.7 235.4,240.5 238.7,234.3 242.0,228.1 245.3,221.9 248.6,215.8 251.9,209.7 255.2,203.7 258.5,197.8 261.8,192.0 265.1,186.4 268.4,180.8 271.7,175.4 275.0,170.2 278.3,165.1 281.6,160.2 284.9,155.5 288.2,150.9 291.5,146.6 294.9,142.5 298.2,138.5 301.5,134.8 304.8,131.3 308.1,128.0 311.4,125.0 314.7,122.2 318.0,119.6 321.3,117.3 324.6,115.2 327.9,113.4 331.2,111.9 334.5,110.5 337.8,109.5 341.1,108.7 344.4,108.2 347.7,107.9 351.0,107.9 354.4,108.2 357.7,108.8 361.0,109.6 364.3,110.7 367.6,112.1 370.9,113.8 374.2,115.7 377.5,117.8 380.8,120.3 384.1,122.9 387.4,125.9 390.7,129.0 394.0,132.4 397.3,136.0 400.6,139.8 403.9,143.8 407.2,148.0 410.5,152.4 413.8,156.9 417.2,161.5 420.5,166.3 423.8,171.2 427.1,176.2 430.4,181.3 433.7,186.4 437.0,191.6 440.3,196.8 443.6,202.1 446.9,207.3 450.2,212.6 453.5,217.8 456.8,223.0 460.1,228.2 463.4,233.3 466.7,238.3 470.0,243.3 473.3,248.2 476.7,253.1 480.0,257.8 483.3,262.5 486.6,267.0 489.9,271.5 493.2,275.9 496.5,280.2 499.8,284.3 503.1,288.4 506.4,292.5 509.7,296.4 513.0,300.2 516.3,304.0 519.6,307.7 522.9,311.4 526.2,315.0 529.5,318.6 532.8,322.1 536.2,325.5 539.5,329.0 542.8,332.4 546.1,335.7 549.4,339.1 552.7,342.4 556.0,345.8 559.3,349.1 562.6,352.3 565.9,355.6 569.2,358.9 572.5,362.1 575.8,365.4 579.1,368.6 582.4,371.8 585.7,374.9 589.0,378.0 592.3,381.1 595.6,384.2 599.0,387.2 602.3,390.1 605.6,392.9 608.9,395.7 612.2,398.4 615.5,401.1 618.8,403.6 622.1,406.0 625.4,408.3 628.7,410.5 632.0,412.6 635.3,414.6 638.6,416.4 641.9,418.1 645.2,419.7 648.5,421.1 651.8,422.5 655.1,423.6 658.5,424.7 661.8,425.6 665.1,426.4 668.4,427.0 671.7,427.6 675.0,428.0 678.3,428.4 681.6,428.6 684.9,428.8 688.2,428.9 691.5,429.0 694.8,429.0 698.1,428.9 701.4,428.9 704.7,428.8 708.0,428.7 711.3,428.6 714.6,428.5 717.9,428.4 721.3,428.4 724.6,428.4 727.9,428.4 731.2,428.5 734.5,428.7 737.8,428.9 741.1,429.2 744.4,429.6 747.7,430.0 751.0,430.5 754.3,431.1 757.6,431.7 760.9,432.4 764.2,433.1 767.5,433.9 770.8,434.8 774.1,435.7 777.4,436.6 780.8,437.6 784.1,438.6 787.4,439.6 790.7,440.6 794.0,441.7 797.3,442.7 800.6,443.7 803.9,444.7 807.2,445.7 810.5,446.7 813.8,447.7 817.1,448.6 820.4,449.5 823.7,450.3 827.0,451.1 830.3,451.9 833.6,452.6 836.9,453.3 840.3,453.9 843.6,454.5 846.9,455.1 850.2,455.6 853.5,456.1 856.8,456.5 860.1,456.9 863.4,457.3 866.7,457.6 870.0,457.9"/>
<polyline fill="none" stroke="#d64545" stroke-width="2.5" points="80.0,458.3 83.3,458.0 86.6,457.5 89.9,457.1 93.2,456.5 96.5,455.9 99.8,455.2 103.1,454.4 106.4,453.5 109.7,452.5 113.1,451.4 116.4,450.3 119.7,449.0 123.0,447.6 126.3,446.1 129.6,444.5 132.9,442.8 136.2,441.0 139.5,439.0 142.8,436.9 146.1,434.6 149.4,432.2 152.7,429.7 156.0,426.9 159.3,423.9 162.6,420.7 165.9,417.3 169.2,413.6 172.6,409.6 175.9,405.4 179.2,400.8 182.5,395.8 185.8,390.5 189.1,384.8 192.4,378.7 195.7,372.1 199.0,365.2 202.3,357.9 205.6,350.1 208.9,341.9 212.2,333.3 215.5,324.3 218.8,314.9 222.1,305.2 225.4,295.2 228.7,284.9 232.1,274.3 235.4,263.5 238.7,252.6 242.0,241.5 245.3,230.4 248.6,219.3 251.9,208.2 255.2,197.1 258.5,186.3 261.8,175.6 265.1,165.1 268.4,154.9 271.7,145.0 275.0,135.5 278.3,126.4 281.6,117.7 284.9,109.5 288.2,101.8 291.5,94.6 294.9,87.9 298.2,81.7 301.5,76.1 304.8,71.0 308.1,66.5 311.4,62.5 314.7,59.1 318.0,56.3 321.3,54.0 324.6,52.2 327.9,51.0 331.2,50.2 334.5,50.0 337.8,50.3 341.1,51.0 344.4,52.1 347.7,53.7 351.0,55.6 354.4,57.9 357.7,60.6 361.0,63.5 364.3,66.6 367.6,69.9 370.9,73.4 374.2,77.0 377.5,80.7 380.8,84.4 384.1,88.2 387.4,91.9 390.7,95.5 394.0,99.1 397.3,102.7 400.6,106.1 403.9,109.5 407.2,112.9 410.5,116.2 413.8,119.5 417.2,122.8 420.5,126.2 423.8,129.6 427.1,133.2 430.4,136.8 433.7,140.6 437.0,144.6 440.3,148.8 443.6,153.1 446.9,157.7 450.2,162.6 453.5,167.7 456.8,173.0 460.1,178.6 463.4,184.4 466.7,190.5 470.0,196.7 473.3,203.2 476.7,209.8 480.0,216.6 483.3,223.5 486.6,230.5 489.9,237.6 493.2,244.7 496.5,251.7 499.8,258.7 503.1,265.5 506.4,272.3 509.7,278.8 513.0,285.2 516.3,291.3 519.6,297.1 522.9,302.7 526.2,308.0 529.5,313.0 532.8,317.7 536.2,322.1 539.5,326.3 542.8,330.2 546.1,333.8 549.4,337.3 552.7,340.5 556.0,343.6 559.3,346.5 562.6,349.3 565.9,351.9 569.2,354.5 572.5,357.0 575.8,359.4 579.1,361.8 582.4,364.1 585.7,366.3 589.0,368.5 592.3,370.7 595.6,372.8 599.0,374.9 602.3,376.9 605.6,378.9 608.9,380.8 612.2,382.7 615.5,384.6 618.8,386.4 622.1,388.3 625.4,390.0 628.7,391.8 632.0,393.6 635.3,395.3 638.6,397.1 641.9,398.8 645.2,400.6 648.5,402.4 651.8,404.2 655.1,406.0 658.5,407.8 661.8,409.6 665.1,411.5 668.4,413.3 671.7,415.2 675.0,417.0 678.3,418.8 681.6,420.6 684.9,422.4 688.2,424.1 691.5,425.8 694.8,427.5 698.1,429.0 701.4,430.5 704.7,432.0 708.0,433.4 711.3,434.7 714.6,436.0 717.9,437.1 721.3,438.3 724.6,439.3 727.9,440.3 731.2,441.3 734.5,442.2 737.8,443.0 741.1,443.8 744.4,444.6 747.7,445.3 751.0,446.0 754.3,446.6 757.6,447.2 760.9,447.7 764.2,448.2 767.5,448.7 770.8,449.1 774.1,449.5 777.4,449.9 780.8,450.2 784.1,450.5 787.4,450.8 790.7,451.1 794.0,451.3 797.3,451.5 800.6,451.7 803.9,451.9 807.2,452.1 810.5,452.3 813.8,452.4 817.1,452.6 820.4,452.7 823.7,452.9 827.0,453.0 830.3,453.1 833.6,453.3 836.9,453.4 840.3,453.5 843.6,453.6 846.9,453.7 850.2,453.8 853.5,454.0 856.8,454.1 860.1,454.2 863.4,454.4 866.7,454.6 870.0,454.8"/>
<text x="740" y="70" font-size="14" font-family="Arial" fill="#2f6fed">intra-class</text>
<text x="740" y="92" font-size="14" font-family="Arial" fill="#d64545">inter-class</text>
</svg>