<svg xmlns="http://www.w3.org/2000/svg" width="900" height="520" viewBox="0 0 900 520">
<rect width="100%" height="100%" fill="white"/>
<text x="450.0" y="28" text-anchor="middle" font-size="22" font-family="Arial">Intra vs Inter KDE: pixel_tree_swd_patch_3_25</text>
<rect x="80" y="50" width="790" height="410" fill="none" stroke="black"/>
<polyline fill="none" stroke="#2f6fed" stroke-width="2.5" points="80.0,358.3 83.3,350.3 86.6,341.9 89.9,333.4 93.2,324.5 96.5,315.5 99.8,306.2 103.1,296.8 106.4,287.3 109.7,277.6 113.1,267.9 116.4,258.1 119.7,248.2 123.0,238.4 126.3,228.5 129.6,218.7 132.9,208.9 136.2,199.2 139.5,189.6 142.8,180.1 146.1,170.8 149.4,161.6 152.7,152.7 156.0,143.9 159.3,135.4 162.6,127.2 165.9,119.2 169.2,111.6 172.6,104.3 175.9,97.4 179.2,90.9 182.5,84.8 185.8,79.1 189.1,73.9 192.4,69.2 195.7,65.0 199.0,61.3 202.3,58.1 205.6,55.5 208.9,53.3 212.2,51.7 215.5,50.6 218.8,50.1 222.1,50.0 225.4,50.4 228.7,51.3 232.1,52.5 235.4,54.2 238.7,56.3 242.0,58.6 245.3,61.3 248.6,64.2 251.9,67.3 255.2,70.5 258.5,73.9 261.8,77.5 265.1,81.0 268.4,84.7 271.7,88.3 275.0,92.0 278.3,95.6 281.6,99.3 284.9,102.9 288.2,106.6 291.5,110.2 294.9,113.8 298.2,117.5 301.5,121.3 304.8,125.1 308.1,129.0 311.4,133.1 314.7,137.3 318.0,141.7 321.3,146.3 324.6,151.2 327.9,156.3 331.2,161.7 334.5,167.3 337.8,173.2 341.1,179.5 344.4,185.9 347.7,192.7 351.0,199.7 354.4,206.9 357.7,214.4 361.0,222.0 364.3,229.8 367.6,237.6 370.9,245.6 374.2,253.7 377.5,261.7 380.8,269.7 384.1,277.7 387.4,285.5 390.7,293.3 394.0,300.8 397.3,308.2 400.6,315.4 403.9,322.4 407.2,329.0 410.5,335.4 413.8,341.5 417.2,347.3 420.5,352.8 423.8,357.9 427.1,362.7 430.4,367.2 433.7,371.3 437.0,375.1 440.3,378.5 443.6,381.6 446.9,384.3 450.2,386.7 453.5,388.9 456.8,390.7 460.1,392.3 463.4,393.5 466.7,394.6 470.0,395.5 473.3,396.1 476.7,396.6 480.0,397.0 483.3,397.2 486.6,397.4 489.9,397.5 493.2,397.7 496.5,397.8 499.8,397.9 503.1,398.1 506.4,398.4 509.7,398.8 513.0,399.3 516.3,400.0 519.6,400.8 522.9,401.7 526.2,402.8 529.5,404.0 532.8,405.4 536.2,406.9 539.5,408.6 542.8,410.4 546.1,412.3 549.4,414.2 552.7,416.3 556.0,418.4 559.3,420.5 562.6,422.6 565.9,424.7 569.2,426.8 572.5,428.8 575.8,430.8 579.1,432.7 582.4,434.5 585.7,436.2 589.0,437.8 592.3,439.3 595.6,440.6 599.0,441.9 602.3,443.0 605.6,444.0 608.9,444.9 612.2,445.7 615.5,446.4 618.8,447.0 622.1,447.6 625.4,448.0 628.7,448.4 632.0,448.7 635.3,449.0 638.6,449.2 641.9,449.4 645.2,449.6 648.5,449.7 651.8,449.8 655.1,449.9 658.5,450.0 661.8,450.1 665.1,450.1 668.4,450.2 671.7,450.2 675.0,450.3 678.3,450.3 681.6,450.3 684.9,450.4 688.2,450.4 691.5,450.5 694.8,450.5 698.1,450.6 701.4,450.6 704.7,450.7 708.0,450.8 711.3,450.9 714.6,451.0 717.9,451.1 721.3,451.3 724.6,451.4 727.9,451.6 731.2,451.8 734.5,452.1 737.8,452.3 741.1,452.6 744.4,452.9 747.7,453.2 751.0,453.5 754.3,453.8 757.6,454.2 760.9,454.5 764.2,454.9 767.5,455.2 770.8,455.6 774.1,455.9 777.4,456.3 780.8,456.6 784.1,456.9 787.4,457.2 790.7,457.5 794.0,457.7 797.3,458.0 800.6,458.2 803.9,458.4 807.2,458.6 810.5,458.8 813.8,459.0 817.1,459.1 820.4,459.2 823.7,459.3 827.0,459.4 830.3,459.5 833.6,459.6 836.9,459.7 840.3,459.7 843.6,459.8 846.9,459.8 850.2,459.8 853.5,459.9 856.8,459.9 860.1,459.9 863.4,459.9 866.7,459.9 870.0,460.0"/>
<polyline fill="none" stroke="#d64545" stroke-width="2.5" points="80.0,424.3 83.3,420.8 86.6,417.1 89.9,413.3 93.2,409.3 96.5,405.2 99.8,400.9 103.1,396.5 106.4,391.9 109.7,387.2 113.1,382.3 116.4,377.3 119.7,372.1 123.0,366.8 126.3,361.3 129.6,355.6 132.9,349.8 136.2,343.7 139.5,337.5 142.8,331.1 146.1,324.5 149.4,317.7 152.7,310.6 156.0,303.4 159.3,296.0 162.6,288.5 165.9,280.7 169.2,272.8 172.6,264.7 175.9,256.5 179.2,248.2 182.5,239.8 185.8,231.4 189.1,222.9 192.4,214.4 195.7,205.9 199.0,197.5 202.3,189.2 205.6,181.0 208.9,173.1 212.2,165.3 215.5,157.8 218.8,150.6 222.1,143.7 225.4,137.2 228.7,131.0 232.1,125.2 235.4,119.9 238.7,114.9 242.0,110.3 245.3,106.1 248.6,102.3 251.9,98.9 255.2,95.8 258.5,93.0 261.8,90.6 265.1,88.4 268.4,86.4 271.7,84.7 275.0,83.1 278.3,81.8 281.6,80.7 284.9,79.7 288.2,78.9 291.5,78.4 294.9,78.0 298.2,77.8 301.5,77.8 304.8,78.0 308.1,78.4 311.4,79.1 314.7,80.0 318.0,81.2 321.3,82.6 324.6,84.3 327.9,86.2 331.2,88.4 334.5,90.9 337.8,93.7 341.1,96.7 344.4,100.0 347.7,103.5 351.0,107.4 354.4,111.5 357.7,115.8 361.0,120.5 364.3,125.4 367.6,130.7 370.9,136.2 374.2,142.0 377.5,148.1 380.8,154.5 384.1,161.2 387.4,168.1 390.7,175.3 394.0,182.7 397.3,190.4 400.6,198.2 403.9,206.1 407.2,214.2 410.5,222.2 413.8,230.3 417.2,238.3 420.5,246.2 423.8,253.9 427.1,261.5 430.4,268.8 433.7,275.8 437.0,282.5 440.3,288.9 443.6,295.0 446.9,300.7 450.2,306.1 453.5,311.2 456.8,315.9 460.1,320.4 463.4,324.7 466.7,328.7 470.0,332.5 473.3,336.1 476.7,339.6 480.0,343.0 483.3,346.3 486.6,349.5 489.9,352.6 493.2,355.6 496.5,358.6 499.8,361.4 503.1,364.2 506.4,366.9 509.7,369.4 513.0,371.9 516.3,374.1 519.6,376.3 522.9,378.2 526.2,380.1 529.5,381.7 532.8,383.2 536.2,384.5 539.5,385.8 542.8,386.9 546.1,387.9 549.4,388.8 552.7,389.8 556.0,390.7 559.3,391.6 562.6,392.5 565.9,393.6 569.2,394.7 572.5,395.9 575.8,397.2 579.1,398.6 582.4,400.2 585.7,401.8 589.0,403.6 592.3,405.4 595.6,407.3 599.0,409.3 602.3,411.3 605.6,413.3 608.9,415.3 612.2,417.3 615.5,419.3 618.8,421.1 622.1,423.0 625.4,424.7 628.7,426.3 632.0,427.9 635.3,429.4 638.6,430.8 641.9,432.1 645.2,433.3 648.5,434.4 651.8,435.5 655.1,436.6 658.5,437.5 661.8,438.5 665.1,439.4 668.4,440.2 671.7,441.0 675.0,441.8 678.3,442.6 681.6,443.3 684.9,444.0 688.2,444.6 691.5,445.2 694.8,445.8 698.1,446.4 701.4,446.9 704.7,447.3 708.0,447.8 711.3,448.2 714.6,448.5 717.9,448.8 721.3,449.1 724.6,449.4 727.9,449.6 731.2,449.8 734.5,450.0 737.8,450.2 741.1,450.4 744.4,450.5 747.7,450.7 751.0,450.9 754.3,451.0 757.6,451.2 760.9,451.4 764.2,451.6 767.5,451.8 770.8,452.0 774.1,452.3 777.4,452.5 780.8,452.8 784.1,453.1 787.4,453.4 790.7,453.7 794.0,454.0 797.3,454.3 800.6,454.6 803.9,454.8 807.2,455.1 810.5,455.3 813.8,455.5 817.1,455.7 820.4,455.8 823.7,456.0 827.0,456.0 830.3,456.1 833.6,456.1 836.9,456.1 840.3,456.1 843.6,456.1 846.9,456.1 850.2,456.0 853.5,456.0 856.8,455.9 860.1,455.9 863.4,455.9 866.7,455.9 870.0,456.0"/>
<text x="740" y="70" font-size="14" font-family="Arial" fill="#2f6fed">intra-class</text>
<text x="740" y="92" font-size="14" font-family="Arial" fill="#d64545">inter-class</text>
</svg>