<svg xmlns="http://www.w3.org/2000/svg" width="900" height="520" viewBox="0 0 900 520">
<rect width="100%" height="100%" fill="white"/>
<text x="450.0" y="28" text-anchor="middle" font-size="22" font-family="Arial">Intra vs Inter KDE: pixel_gram</text>
<rect x="80" y="50" width="790" height="410" fill="none" stroke="black"/>
<polyline fill="none" stroke="#2f6fed" stroke-width="2.5" points="80.0,272.6 83.3,265.3 86.6,257.9 89.9,250.6 93.2,243.2 96.5,235.9 99.8,228.6 103.1,221.3 106.4,214.1 109.7,206.9 113.1,199.8 116.4,192.8 119.7,185.9 123.0,179.2 126.3,172.5 129.6,166.0 132.9,159.7 136.2,153.5 139.5,147.6 142.8,141.8 146.1,136.2 149.4,130.8 152.7,125.7 156.0,120.8 159.3,116.1 162.6,111.7 165.9,107.6 169.2,103.8 172.6,100.2 175.9,96.9 179.2,94.0 182.5,91.3 185.8,88.9 189.1,86.9 192.4,85.1 195.7,83.6 199.0,82.5 202.3,81.7 205.6,81.1 208.9,80.8 212.2,80.9 215.5,81.1 218.8,81.7 222.1,82.5 225.4,83.5 228.7,84.8 232.1,86.3 235.4,87.9 238.7,89.8 242.0,91.8 245.3,93.9 248.6,96.1 251.9,98.5 255.2,100.9 258.5,103.4 261.8,106.0 265.1,108.5 268.4,111.1 271.7,113.7 275.0,116.2 278.3,118.7 281.6,121.1 284.9,123.5 288.2,125.8 291.5,128.0 294.9,130.1 298.2,132.1 301.5,134.0 304.8,135.7 308.1,137.4 311.4,138.9 314.7,140.3 318.0,141.5 321.3,142.6 324.6,143.6 327.9,144.5 331.2,145.2 334.5,145.8 337.8,146.3 341.1,146.7 344.4,147.0 347.7,147.2 351.0,147.2 354.4,147.2 357.7,147.1 361.0,147.0 364.3,146.7 367.6,146.4 370.9,146.1 374.2,145.7 377.5,145.3 380.8,144.8 384.1,144.4 387.4,143.9 390.7,143.4 394.0,142.9 397.3,142.5 400.6,142.1 403.9,141.7 407.2,141.4 410.5,141.1 413.8,140.9 417.2,140.8 420.5,140.8 423.8,140.8 427.1,141.0 430.4,141.4 433.7,141.8 437.0,142.4 440.3,143.1 443.6,144.0 446.9,145.1 450.2,146.3 453.5,147.7 456.8,149.3 460.1,151.1 463.4,153.0 466.7,155.2 470.0,157.5 473.3,160.0 476.7,162.7 480.0,165.5 483.3,168.6 486.6,171.8 489.9,175.1 493.2,178.6 496.5,182.3 499.8,186.0 503.1,189.9 506.4,194.0 509.7,198.1 513.0,202.3 516.3,206.6 519.6,211.0 522.9,215.4 526.2,219.9 529.5,224.4 532.8,228.9 536.2,233.5 539.5,238.0 542.8,242.6 546.1,247.1 549.4,251.7 552.7,256.2 556.0,260.6 559.3,265.1 562.6,269.4 565.9,273.8 569.2,278.0 572.5,282.2 575.8,286.3 579.1,290.4 582.4,294.4 585.7,298.3 589.0,302.1 592.3,305.8 595.6,309.4 599.0,313.0 602.3,316.4 605.6,319.8 608.9,323.1 612.2,326.3 615.5,329.4 618.8,332.5 622.1,335.4 625.4,338.3 628.7,341.1 632.0,343.8 635.3,346.5 638.6,349.1 641.9,351.6 645.2,354.1 648.5,356.5 651.8,358.8 655.1,361.1 658.5,363.4 661.8,365.6 665.1,367.8 668.4,370.0 671.7,372.1 675.0,374.2 678.3,376.3 681.6,378.4 684.9,380.5 688.2,382.5 691.5,384.5 694.8,386.6 698.1,388.6 701.4,390.6 704.7,392.6 708.0,394.6 711.3,396.6 714.6,398.6 717.9,400.6 721.3,402.6 724.6,404.6 727.9,406.6 731.2,408.6 734.5,410.5 737.8,412.5 741.1,414.4 744.4,416.3 747.7,418.2 751.0,420.0 754.3,421.9 757.6,423.7 760.9,425.4 764.2,427.2 767.5,428.9 770.8,430.5 774.1,432.2 777.4,433.7 780.8,435.3 784.1,436.7 787.4,438.2 790.7,439.6 794.0,440.9 797.3,442.2 800.6,443.4 803.9,444.5 807.2,445.6 810.5,446.7 813.8,447.7 817.1,448.7 820.4,449.6 823.7,450.4 827.0,451.2 830.3,451.9 833.6,452.6 836.9,453.3 840.3,453.9 843.6,454.5 846.9,455.0 850.2,455.5 853.5,455.9 856.8,456.3 860.1,456.7 863.4,457.0 866.7,457.4 870.0,457.6"/>
<polyline fill="none" stroke="#d64545" stroke-width="2.5" points="80.0,386.9 83.3,379.3 86.6,371.2 89.9,362.7 93.2,353.8 96.5,344.4 99.8,334.7 103.1,324.7 106.4,314.4 109.7,303.8 113.1,293.0 116.4,282.1 119.7,271.1 123.0,260.0 126.3,248.9 129.6,237.9 132.9,226.9 136.2,216.2 139.5,205.6 142.8,195.3 146.1,185.2 149.4,175.5 152.7,166.1 156.0,157.0 159.3,148.4 162.6,140.2 165.9,132.3 169.2,124.9 172.6,117.9 175.9,111.4 179.2,105.2 182.5,99.5 185.8,94.1 189.1,89.1 192.4,84.5 195.7,80.2 199.0,76.2 202.3,72.6 205.6,69.3 208.9,66.2 212.2,63.5 215.5,61.0 218.8,58.8 222.1,56.9 225.4,55.2 228.7,53.8 232.1,52.6 235.4,51.6 238.7,50.9 242.0,50.4 245.3,50.1 248.6,50.0 251.9,50.1 255.2,50.4 258.5,50.8 261.8,51.4 265.1,52.2 268.4,53.0 271.7,54.0 275.0,55.0 278.3,56.1 281.6,57.2 284.9,58.4 288.2,59.5 291.5,60.7 294.9,61.8 298.2,62.9 301.5,63.9 304.8,64.8 308.1,65.7 311.4,66.5 314.7,67.2 318.0,67.9 321.3,68.5 324.6,69.0 327.9,69.5 331.2,70.0 334.5,70.4 337.8,70.9 341.1,71.3 344.4,71.8 347.7,72.3 351.0,72.9 354.4,73.6 357.7,74.4 361.0,75.3 364.3,76.3 367.6,77.4 370.9,78.6 374.2,80.0 377.5,81.6 380.8,83.2 384.1,85.0 387.4,87.0 390.7,89.0 394.0,91.1 397.3,93.4 400.6,95.7 403.9,98.1 407.2,100.5 410.5,103.0 413.8,105.5 417.2,108.0 420.5,110.5 423.8,113.0 427.1,115.5 430.4,117.9 433.7,120.3 437.0,122.7 440.3,125.0 443.6,127.3 446.9,129.6 450.2,131.8 453.5,134.0 456.8,136.2 460.1,138.4 463.4,140.6 466.7,142.9 470.0,145.1 473.3,147.4 476.7,149.8 480.0,152.2 483.3,154.8 486.6,157.4 489.9,160.1 493.2,163.0 496.5,165.9 499.8,169.0 503.1,172.3 506.4,175.6 509.7,179.1 513.0,182.8 516.3,186.5 519.6,190.4 522.9,194.5 526.2,198.6 529.5,202.8 532.8,207.2 536.2,211.6 539.5,216.1 542.8,220.7 546.1,225.3 549.4,230.0 552.7,234.7 556.0,239.4 559.3,244.1 562.6,248.7 565.9,253.4 569.2,258.0 572.5,262.6 575.8,267.1 579.1,271.6 582.4,275.9 585.7,280.2 589.0,284.5 592.3,288.6 595.6,292.7 599.0,296.7 602.3,300.6 605.6,304.4 608.9,308.2 612.2,311.9 615.5,315.5 618.8,319.1 622.1,322.6 625.4,326.1 628.7,329.5 632.0,332.9 635.3,336.2 638.6,339.6 641.9,342.9 645.2,346.1 648.5,349.4 651.8,352.6 655.1,355.8 658.5,359.0 661.8,362.1 665.1,365.3 668.4,368.4 671.7,371.4 675.0,374.4 678.3,377.4 681.6,380.4 684.9,383.3 688.2,386.1 691.5,388.9 694.8,391.7 698.1,394.3 701.4,397.0 704.7,399.6 708.0,402.1 711.3,404.5 714.6,406.9 717.9,409.3 721.3,411.6 724.6,413.8 727.9,415.9 731.2,418.0 734.5,420.0 737.8,422.0 741.1,423.9 744.4,425.7 747.7,427.5 751.0,429.2 754.3,430.8 757.6,432.3 760.9,433.8 764.2,435.2 767.5,436.6 770.8,437.8 774.1,439.1 777.4,440.2 780.8,441.3 784.1,442.3 787.4,443.3 790.7,444.2 794.0,445.0 797.3,445.8 800.6,446.6 803.9,447.3 807.2,447.9 810.5,448.5 813.8,449.1 817.1,449.6 820.4,450.1 823.7,450.6 827.0,451.0 830.3,451.4 833.6,451.8 836.9,452.2 840.3,452.6 843.6,452.9 846.9,453.2 850.2,453.5 853.5,453.8 856.8,454.1 860.1,454.4 863.4,454.6 866.7,454.9 870.0,455.2"/>
<text x="740" y="70" font-size="14" font-family="Arial" fill="#2f6fed">intra-class</text>
<text x="740" y="92" font-size="14" font-family="Arial" fill="#d64545">inter-class</text>
</svg>